G04*
G04 #@! TF.GenerationSoftware,Altium Limited,Altium Designer,20.1.8 (145)*
G04*
G04 Layer_Color=16711935*
%FSLAX25Y25*%
%MOIN*%
G70*
G04*
G04 #@! TF.SameCoordinates,B2F8307C-7DD5-46F7-85BE-D442A9776901*
G04*
G04*
G04 #@! TF.FilePolarity,Positive*
G04*
G01*
G75*
%ADD10C,0.00787*%
%ADD12C,0.00394*%
D10*
X102646Y119902D02*
Y142539D01*
X83354D02*
X102646D01*
X83354Y119902D02*
Y142539D01*
Y119902D02*
X102646D01*
X127646D02*
Y142539D01*
X108354D02*
X127646D01*
X108354Y119902D02*
Y142539D01*
Y119902D02*
X127646D01*
X102646Y152854D02*
Y175492D01*
X83354D02*
X102646D01*
X83354Y152854D02*
Y175492D01*
Y152854D02*
X102646D01*
X12815Y40169D02*
Y79539D01*
Y40169D02*
X52185D01*
Y79539D01*
X12815D02*
X52185D01*
X183299Y87079D02*
Y96921D01*
X170701Y87079D02*
X183299D01*
X170701D02*
Y96921D01*
X183299D01*
X127142Y6142D02*
Y23858D01*
Y6142D02*
X144858D01*
Y23858D01*
X127142D02*
X144858D01*
X127646Y151902D02*
Y174539D01*
X108354D02*
X127646D01*
X108354Y151902D02*
Y174539D01*
Y151902D02*
X127646D01*
X140425Y36850D02*
X143575D01*
X140425D02*
Y43150D01*
X143575D01*
Y36850D02*
Y43150D01*
X126425Y36850D02*
X129575D01*
X126425D02*
Y43150D01*
X129575D01*
Y36850D02*
Y43150D01*
X133425Y36850D02*
X136575D01*
X133425D02*
Y43150D01*
X136575D01*
Y36850D02*
Y43150D01*
X147425Y36850D02*
X150575D01*
X147425D02*
Y43150D01*
X150575D01*
Y36850D02*
Y43150D01*
X173677Y5370D02*
Y26630D01*
X158323D02*
X173677D01*
X158323Y5370D02*
Y26630D01*
Y5370D02*
X173677D01*
X295779Y-1996D02*
X296764Y-4358D01*
X297748D01*
X296764Y-1996D02*
X297748Y-4358D01*
X267236D02*
X268220Y-1996D01*
X266252Y-4358D02*
X267236D01*
X266252D02*
X267236Y-1996D01*
X294205Y-4358D02*
Y-1996D01*
X269795Y-4358D02*
X294205D01*
X269795D02*
Y-1996D01*
X259500Y469D02*
X304500D01*
X267236Y-1996D02*
Y17689D01*
Y-1996D02*
X296764D01*
Y17689D01*
X267236D02*
X296764D01*
D12*
X156063Y45539D02*
X163937D01*
X156063D02*
Y50461D01*
X163937D01*
Y45539D02*
Y50461D01*
X82500Y200079D02*
Y209921D01*
X32500D02*
X82500D01*
X32500Y200079D02*
Y209921D01*
Y200079D02*
X82500D01*
X307500D02*
Y209921D01*
Y200079D02*
X357500D01*
Y209921D01*
X307500D02*
X357500D01*
X307500Y10079D02*
Y19921D01*
Y10079D02*
X357500D01*
Y19921D01*
X307500D02*
X357500D01*
X82500Y10079D02*
Y19921D01*
X32500D02*
X82500D01*
X32500Y10079D02*
Y19921D01*
Y10079D02*
X82500D01*
X91500Y9307D02*
X116500D01*
X91500Y22693D02*
X116500D01*
Y9307D02*
Y22693D01*
X57323Y151646D02*
X62323Y156646D01*
X57323Y137354D02*
Y156646D01*
Y137354D02*
X72677D01*
Y156646D01*
X57323D02*
X72677D01*
X87110Y71150D02*
X96165D01*
X87110Y62094D02*
Y71150D01*
X100890D01*
Y45559D02*
Y71150D01*
X87110Y45559D02*
X100890D01*
X87110D02*
Y71150D01*
X93654Y73433D02*
Y83276D01*
X81055D02*
X93654D01*
X81055Y73433D02*
Y83276D01*
Y73433D02*
X93654D01*
X221000Y94839D02*
X248839Y67000D01*
X221000Y39161D02*
X248839Y67000D01*
X193161D02*
X221000Y39161D01*
X193161Y67000D02*
X221000Y94839D01*
X219608Y93447D02*
X222392D01*
X138323Y151646D02*
X143323Y156646D01*
X138323Y137354D02*
Y156646D01*
Y137354D02*
X153677D01*
Y156646D01*
X138323D02*
X153677D01*
X273244Y63803D02*
X284756D01*
Y70197D01*
X273244D02*
X284756D01*
X273244Y63803D02*
Y70197D01*
X218886Y26012D02*
X227114D01*
Y19988D02*
Y26012D01*
X218886Y19988D02*
X227114D01*
X218886D02*
Y26012D01*
X60488Y56465D02*
Y70244D01*
X71512D01*
Y56465D02*
Y70244D01*
X60488Y56465D02*
X71512D01*
X27299Y115433D02*
Y125276D01*
X14701D02*
X27299D01*
X14701Y115433D02*
Y125276D01*
Y115433D02*
X27299D01*
Y101433D02*
Y111276D01*
X14701D02*
X27299D01*
X14701Y101433D02*
Y111276D01*
Y101433D02*
X27299D01*
Y87433D02*
Y97276D01*
X14701D02*
X27299D01*
X14701Y87433D02*
Y97276D01*
Y87433D02*
X27299D01*
X66079Y36299D02*
X75921D01*
X66079Y23701D02*
Y36299D01*
Y23701D02*
X75921D01*
Y36299D01*
X242937Y12539D02*
Y17461D01*
X235063D02*
X242937D01*
X235063Y12539D02*
Y17461D01*
Y12539D02*
X242937D01*
X235063Y4539D02*
Y9461D01*
Y4539D02*
X242937D01*
Y9461D01*
X235063D02*
X242937D01*
X140327Y49949D02*
X143673D01*
Y56051D01*
X140327D02*
X143673D01*
X140327Y49949D02*
Y56051D01*
X126327Y49949D02*
X129673D01*
Y56051D01*
X126327D02*
X129673D01*
X126327Y49949D02*
Y56051D01*
X133327Y49949D02*
X136673D01*
Y56051D01*
X133327D02*
X136673D01*
X133327Y49949D02*
Y56051D01*
X147327Y49949D02*
X150673D01*
Y56051D01*
X147327D02*
X150673D01*
X147327Y49949D02*
Y56051D01*
X180937Y78539D02*
Y83461D01*
X173063D02*
X180937D01*
X173063Y78539D02*
Y83461D01*
Y78539D02*
X180937D01*
X173063Y99539D02*
Y104461D01*
Y99539D02*
X180937D01*
Y104461D01*
X173063D02*
X180937D01*
X226937Y12539D02*
Y17461D01*
X219063D02*
X226937D01*
X219063Y12539D02*
Y17461D01*
Y12539D02*
X226937D01*
X168087Y32539D02*
Y37461D01*
X160213D02*
X168087D01*
X160213Y32539D02*
Y37461D01*
Y32539D02*
X168087D01*
X157063Y54539D02*
Y59461D01*
Y54539D02*
X164937D01*
Y59461D01*
X157063D02*
X164937D01*
X242937Y20539D02*
Y25461D01*
X235063D02*
X242937D01*
X235063Y20539D02*
Y25461D01*
Y20539D02*
X242937D01*
X149937Y64539D02*
Y69461D01*
X142063D02*
X149937D01*
X142063Y64539D02*
Y69461D01*
Y64539D02*
X149937D01*
X38803Y87539D02*
Y92461D01*
Y87539D02*
X46677D01*
Y92461D01*
X38803D02*
X46677D01*
X41937Y25539D02*
Y30461D01*
X34063D02*
X41937D01*
X34063Y25539D02*
Y30461D01*
Y25539D02*
X41937D01*
M02*
