G04*
G04 #@! TF.GenerationSoftware,Altium Limited,Altium Designer,21.0.8 (223)*
G04*
G04 Layer_Physical_Order=2*
G04 Layer_Color=36540*
%FSLAX25Y25*%
%MOIN*%
G70*
G04*
G04 #@! TF.SameCoordinates,7C19FEE0-9405-418D-A0C6-2703AC14626A*
G04*
G04*
G04 #@! TF.FilePolarity,Positive*
G04*
G01*
G75*
%ADD139O,0.04331X0.05906*%
%ADD140R,0.04331X0.05906*%
%ADD141C,0.03347*%
G36*
X377129Y218440D02*
X379205Y217942D01*
X381178Y217125D01*
X382998Y216009D01*
X384622Y214622D01*
X386009Y212998D01*
X387124Y211178D01*
X387942Y209205D01*
X388440Y207129D01*
X388602Y205069D01*
X388589Y205000D01*
Y15000D01*
X388602Y14931D01*
X388440Y12871D01*
X387942Y10795D01*
X387124Y8822D01*
X386009Y7002D01*
X384622Y5378D01*
X382998Y3991D01*
X381178Y2875D01*
X379205Y2058D01*
X377129Y1560D01*
X375069Y1398D01*
X375000Y1411D01*
X15529D01*
X15030Y1411D01*
X15029Y1411D01*
X14536Y1430D01*
X12884Y1560D01*
X10805Y2059D01*
X8830Y2877D01*
X7008Y3994D01*
X5382Y5382D01*
X3994Y7008D01*
X2877Y8830D01*
X2059Y10805D01*
X1560Y12884D01*
X1432Y14510D01*
X1411Y15001D01*
X1411Y15030D01*
X1411Y15494D01*
Y204500D01*
X1411Y205000D01*
X1431Y205492D01*
X1560Y207129D01*
X2058Y209205D01*
X2875Y211178D01*
X3991Y212998D01*
X5378Y214622D01*
X7002Y216009D01*
X8822Y217125D01*
X10795Y217942D01*
X12871Y218440D01*
X14931Y218602D01*
X15000Y218589D01*
X375000D01*
X375069Y218602D01*
X377129Y218440D01*
D02*
G37*
%LPC*%
G36*
X355000Y208375D02*
X354330Y208287D01*
X353706Y208028D01*
X353170Y207617D01*
X352774Y207101D01*
X352648Y207081D01*
X352352D01*
X352226Y207101D01*
X351830Y207617D01*
X351294Y208028D01*
X350670Y208287D01*
X350000Y208375D01*
X349330Y208287D01*
X348706Y208028D01*
X348170Y207617D01*
X347774Y207101D01*
X347648Y207081D01*
X347352D01*
X347226Y207101D01*
X346830Y207617D01*
X346294Y208028D01*
X345670Y208287D01*
X345000Y208375D01*
X344330Y208287D01*
X343706Y208028D01*
X343170Y207617D01*
X342774Y207101D01*
X342648Y207081D01*
X342352D01*
X342226Y207101D01*
X341830Y207617D01*
X341294Y208028D01*
X340670Y208287D01*
X340000Y208375D01*
X339330Y208287D01*
X338706Y208028D01*
X338170Y207617D01*
X337774Y207101D01*
X337648Y207081D01*
X337352D01*
X337226Y207101D01*
X336830Y207617D01*
X336294Y208028D01*
X335670Y208287D01*
X335000Y208375D01*
X334330Y208287D01*
X333706Y208028D01*
X333170Y207617D01*
X332774Y207101D01*
X332648Y207081D01*
X332352D01*
X332226Y207101D01*
X331830Y207617D01*
X331294Y208028D01*
X330670Y208287D01*
X330000Y208375D01*
X329330Y208287D01*
X328706Y208028D01*
X328170Y207617D01*
X327759Y207081D01*
X327501Y206457D01*
X327413Y205787D01*
Y204213D01*
X327501Y203543D01*
X327759Y202919D01*
X328170Y202383D01*
X328706Y201972D01*
X329330Y201713D01*
X330000Y201625D01*
X330670Y201713D01*
X331294Y201972D01*
X331830Y202383D01*
X332226Y202900D01*
X332352Y202919D01*
X332648D01*
X332774Y202900D01*
X333170Y202383D01*
X333706Y201972D01*
X334330Y201713D01*
X335000Y201625D01*
X335670Y201713D01*
X336294Y201972D01*
X336830Y202383D01*
X337226Y202900D01*
X337352Y202919D01*
X337648D01*
X337774Y202900D01*
X338170Y202383D01*
X338706Y201972D01*
X339330Y201713D01*
X340000Y201625D01*
X340670Y201713D01*
X341294Y201972D01*
X341830Y202383D01*
X342226Y202900D01*
X342352Y202919D01*
X342648D01*
X342774Y202900D01*
X343170Y202383D01*
X343706Y201972D01*
X344330Y201713D01*
X345000Y201625D01*
X345670Y201713D01*
X346294Y201972D01*
X346830Y202383D01*
X347226Y202900D01*
X347352Y202919D01*
X347648D01*
X347774Y202900D01*
X348170Y202383D01*
X348706Y201972D01*
X349330Y201713D01*
X350000Y201625D01*
X350670Y201713D01*
X351294Y201972D01*
X351830Y202383D01*
X352226Y202900D01*
X352352Y202919D01*
X352648D01*
X352774Y202900D01*
X353170Y202383D01*
X353706Y201972D01*
X354330Y201713D01*
X355000Y201625D01*
X355670Y201713D01*
X356294Y201972D01*
X356830Y202383D01*
X357241Y202919D01*
X357499Y203543D01*
X357588Y204213D01*
Y205787D01*
X357499Y206457D01*
X357241Y207081D01*
X356830Y207617D01*
X356294Y208028D01*
X355670Y208287D01*
X355000Y208375D01*
D02*
G37*
G36*
X60000D02*
X59330Y208287D01*
X58706Y208028D01*
X58170Y207617D01*
X57774Y207101D01*
X57648Y207081D01*
X57352D01*
X57226Y207101D01*
X56830Y207617D01*
X56294Y208028D01*
X55670Y208287D01*
X55000Y208375D01*
X54330Y208287D01*
X53706Y208028D01*
X53170Y207617D01*
X52774Y207101D01*
X52648Y207081D01*
X52352D01*
X52226Y207101D01*
X51830Y207617D01*
X51294Y208028D01*
X50670Y208287D01*
X50000Y208375D01*
X49330Y208287D01*
X48706Y208028D01*
X48170Y207617D01*
X47774Y207101D01*
X47648Y207081D01*
X47352D01*
X47226Y207101D01*
X46830Y207617D01*
X46294Y208028D01*
X45670Y208287D01*
X45000Y208375D01*
X44330Y208287D01*
X43706Y208028D01*
X43170Y207617D01*
X42774Y207101D01*
X42648Y207081D01*
X42352D01*
X42226Y207101D01*
X41830Y207617D01*
X41294Y208028D01*
X40670Y208287D01*
X40000Y208375D01*
X39330Y208287D01*
X38706Y208028D01*
X38170Y207617D01*
X37774Y207101D01*
X37648Y207081D01*
X37352D01*
X37226Y207101D01*
X36830Y207617D01*
X36294Y208028D01*
X35670Y208287D01*
X35000Y208375D01*
X34330Y208287D01*
X33706Y208028D01*
X33170Y207617D01*
X32759Y207081D01*
X32501Y206457D01*
X32412Y205787D01*
Y204213D01*
X32501Y203543D01*
X32759Y202919D01*
X33170Y202383D01*
X33706Y201972D01*
X34330Y201713D01*
X35000Y201625D01*
X35670Y201713D01*
X36294Y201972D01*
X36830Y202383D01*
X37226Y202900D01*
X37352Y202919D01*
X37648D01*
X37774Y202900D01*
X38170Y202383D01*
X38706Y201972D01*
X39330Y201713D01*
X40000Y201625D01*
X40670Y201713D01*
X41294Y201972D01*
X41830Y202383D01*
X42226Y202900D01*
X42352Y202919D01*
X42648D01*
X42774Y202900D01*
X43170Y202383D01*
X43706Y201972D01*
X44330Y201713D01*
X45000Y201625D01*
X45670Y201713D01*
X46294Y201972D01*
X46830Y202383D01*
X47226Y202900D01*
X47352Y202919D01*
X47648D01*
X47774Y202900D01*
X48170Y202383D01*
X48706Y201972D01*
X49330Y201713D01*
X50000Y201625D01*
X50670Y201713D01*
X51294Y201972D01*
X51830Y202383D01*
X52226Y202900D01*
X52352Y202919D01*
X52648D01*
X52774Y202900D01*
X53170Y202383D01*
X53706Y201972D01*
X54330Y201713D01*
X55000Y201625D01*
X55670Y201713D01*
X56294Y201972D01*
X56830Y202383D01*
X57226Y202900D01*
X57352Y202919D01*
X57648D01*
X57774Y202900D01*
X58170Y202383D01*
X58706Y201972D01*
X59330Y201713D01*
X60000Y201625D01*
X60670Y201713D01*
X61294Y201972D01*
X61830Y202383D01*
X62241Y202919D01*
X62499Y203543D01*
X62587Y204213D01*
Y205787D01*
X62499Y206457D01*
X62241Y207081D01*
X61830Y207617D01*
X61294Y208028D01*
X60670Y208287D01*
X60000Y208375D01*
D02*
G37*
G36*
X287000Y207287D02*
X286152Y207118D01*
X285433Y206638D01*
X284953Y205919D01*
X284784Y205071D01*
X284953Y204223D01*
X285433Y203504D01*
X286152Y203024D01*
X287000Y202855D01*
X287848Y203024D01*
X288567Y203504D01*
X289047Y204223D01*
X289216Y205071D01*
X289047Y205919D01*
X288567Y206638D01*
X287848Y207118D01*
X287000Y207287D01*
D02*
G37*
G36*
X273000D02*
X272152Y207118D01*
X271433Y206638D01*
X270953Y205919D01*
X270784Y205071D01*
X270953Y204223D01*
X271433Y203504D01*
X272152Y203024D01*
X273000Y202855D01*
X273848Y203024D01*
X274567Y203504D01*
X275047Y204223D01*
X275216Y205071D01*
X275047Y205919D01*
X274567Y206638D01*
X273848Y207118D01*
X273000Y207287D01*
D02*
G37*
G36*
X117000D02*
X116152Y207118D01*
X115433Y206638D01*
X114953Y205919D01*
X114784Y205071D01*
X114953Y204223D01*
X115433Y203504D01*
X116152Y203024D01*
X117000Y202855D01*
X117848Y203024D01*
X118567Y203504D01*
X119047Y204223D01*
X119216Y205071D01*
X119047Y205919D01*
X118567Y206638D01*
X117848Y207118D01*
X117000Y207287D01*
D02*
G37*
G36*
X103000D02*
X102152Y207118D01*
X101433Y206638D01*
X100953Y205919D01*
X100784Y205071D01*
X100953Y204223D01*
X101433Y203504D01*
X102152Y203024D01*
X103000Y202855D01*
X103848Y203024D01*
X104567Y203504D01*
X105047Y204223D01*
X105216Y205071D01*
X105047Y205919D01*
X104567Y206638D01*
X103848Y207118D01*
X103000Y207287D01*
D02*
G37*
G36*
X248000Y202716D02*
X247152Y202547D01*
X246433Y202067D01*
X245953Y201348D01*
X245784Y200500D01*
X245953Y199652D01*
X246433Y198933D01*
X247152Y198453D01*
X248000Y198284D01*
X248848Y198453D01*
X249567Y198933D01*
X250047Y199652D01*
X250216Y200500D01*
X250047Y201348D01*
X249567Y202067D01*
X248848Y202547D01*
X248000Y202716D01*
D02*
G37*
G36*
X240000D02*
X239152Y202547D01*
X238433Y202067D01*
X237953Y201348D01*
X237784Y200500D01*
X237953Y199652D01*
X238433Y198933D01*
X239152Y198453D01*
X240000Y198284D01*
X240848Y198453D01*
X241567Y198933D01*
X242047Y199652D01*
X242216Y200500D01*
X242047Y201348D01*
X241567Y202067D01*
X240848Y202547D01*
X240000Y202716D01*
D02*
G37*
G36*
X232000D02*
X231152Y202547D01*
X230433Y202067D01*
X229953Y201348D01*
X229784Y200500D01*
X229953Y199652D01*
X230433Y198933D01*
X231152Y198453D01*
X232000Y198284D01*
X232848Y198453D01*
X233567Y198933D01*
X234047Y199652D01*
X234216Y200500D01*
X234047Y201348D01*
X233567Y202067D01*
X232848Y202547D01*
X232000Y202716D01*
D02*
G37*
G36*
X158000D02*
X157152Y202547D01*
X156433Y202067D01*
X155953Y201348D01*
X155784Y200500D01*
X155953Y199652D01*
X156433Y198933D01*
X157152Y198453D01*
X158000Y198284D01*
X158848Y198453D01*
X159567Y198933D01*
X160047Y199652D01*
X160216Y200500D01*
X160047Y201348D01*
X159567Y202067D01*
X158848Y202547D01*
X158000Y202716D01*
D02*
G37*
G36*
X150000D02*
X149152Y202547D01*
X148433Y202067D01*
X147953Y201348D01*
X147784Y200500D01*
X147953Y199652D01*
X148433Y198933D01*
X149152Y198453D01*
X150000Y198284D01*
X150848Y198453D01*
X151567Y198933D01*
X152047Y199652D01*
X152216Y200500D01*
X152047Y201348D01*
X151567Y202067D01*
X150848Y202547D01*
X150000Y202716D01*
D02*
G37*
G36*
X142000D02*
X141152Y202547D01*
X140433Y202067D01*
X139953Y201348D01*
X139784Y200500D01*
X139953Y199652D01*
X140433Y198933D01*
X141152Y198453D01*
X142000Y198284D01*
X142848Y198453D01*
X143567Y198933D01*
X144047Y199652D01*
X144216Y200500D01*
X144047Y201348D01*
X143567Y202067D01*
X142848Y202547D01*
X142000Y202716D01*
D02*
G37*
G36*
X287000Y201287D02*
X286152Y201118D01*
X285433Y200638D01*
X284953Y199919D01*
X284784Y199071D01*
X284953Y198223D01*
X285433Y197504D01*
X286152Y197024D01*
X287000Y196855D01*
X287848Y197024D01*
X288567Y197504D01*
X289047Y198223D01*
X289216Y199071D01*
X289047Y199919D01*
X288567Y200638D01*
X287848Y201118D01*
X287000Y201287D01*
D02*
G37*
G36*
X273000D02*
X272152Y201118D01*
X271433Y200638D01*
X270953Y199919D01*
X270784Y199071D01*
X270953Y198223D01*
X271433Y197504D01*
X272152Y197024D01*
X273000Y196855D01*
X273848Y197024D01*
X274567Y197504D01*
X275047Y198223D01*
X275216Y199071D01*
X275047Y199919D01*
X274567Y200638D01*
X273848Y201118D01*
X273000Y201287D01*
D02*
G37*
G36*
X117000D02*
X116152Y201118D01*
X115433Y200638D01*
X114953Y199919D01*
X114784Y199071D01*
X114953Y198223D01*
X115433Y197504D01*
X116152Y197024D01*
X117000Y196855D01*
X117848Y197024D01*
X118567Y197504D01*
X119047Y198223D01*
X119216Y199071D01*
X119047Y199919D01*
X118567Y200638D01*
X117848Y201118D01*
X117000Y201287D01*
D02*
G37*
G36*
X103000D02*
X102152Y201118D01*
X101433Y200638D01*
X100953Y199919D01*
X100784Y199071D01*
X100953Y198223D01*
X101433Y197504D01*
X102152Y197024D01*
X103000Y196855D01*
X103848Y197024D01*
X104567Y197504D01*
X105047Y198223D01*
X105216Y199071D01*
X105047Y199919D01*
X104567Y200638D01*
X103848Y201118D01*
X103000Y201287D01*
D02*
G37*
G36*
X375000Y217249D02*
X373084Y217098D01*
X371215Y216649D01*
X369439Y215914D01*
X367800Y214910D01*
X366339Y213661D01*
X365090Y212200D01*
X364086Y210561D01*
X363351Y208785D01*
X362902Y206916D01*
X362751Y205000D01*
X362902Y203084D01*
X363351Y201215D01*
X364086Y199439D01*
X365090Y197800D01*
X366339Y196339D01*
X367800Y195090D01*
X369439Y194086D01*
X371215Y193351D01*
X373084Y192902D01*
X375000Y192751D01*
X376916Y192902D01*
X378785Y193351D01*
X380561Y194086D01*
X382200Y195090D01*
X383661Y196339D01*
X384910Y197800D01*
X385914Y199439D01*
X386649Y201215D01*
X387098Y203084D01*
X387249Y205000D01*
X387098Y206916D01*
X386649Y208785D01*
X385914Y210561D01*
X384910Y212200D01*
X383661Y213661D01*
X382200Y214910D01*
X380561Y215914D01*
X378785Y216649D01*
X376916Y217098D01*
X375000Y217249D01*
D02*
G37*
G36*
X15000D02*
X13084Y217098D01*
X11215Y216649D01*
X9439Y215914D01*
X7800Y214910D01*
X6339Y213661D01*
X5091Y212200D01*
X4086Y210561D01*
X3351Y208785D01*
X2902Y206916D01*
X2751Y205000D01*
X2902Y203084D01*
X3351Y201215D01*
X4086Y199439D01*
X5091Y197800D01*
X6339Y196339D01*
X7800Y195090D01*
X9439Y194086D01*
X11215Y193351D01*
X13084Y192902D01*
X15000Y192751D01*
X16916Y192902D01*
X18785Y193351D01*
X20561Y194086D01*
X22200Y195090D01*
X23661Y196339D01*
X24909Y197800D01*
X25914Y199439D01*
X26649Y201215D01*
X27098Y203084D01*
X27249Y205000D01*
X27098Y206916D01*
X26649Y208785D01*
X25914Y210561D01*
X24909Y212200D01*
X23661Y213661D01*
X22200Y214910D01*
X20561Y215914D01*
X18785Y216649D01*
X16916Y217098D01*
X15000Y217249D01*
D02*
G37*
G36*
X287000Y195287D02*
X286152Y195118D01*
X285433Y194638D01*
X284953Y193919D01*
X284784Y193071D01*
X284953Y192223D01*
X285433Y191504D01*
X286152Y191024D01*
X287000Y190855D01*
X287848Y191024D01*
X288567Y191504D01*
X289047Y192223D01*
X289216Y193071D01*
X289047Y193919D01*
X288567Y194638D01*
X287848Y195118D01*
X287000Y195287D01*
D02*
G37*
G36*
X273000D02*
X272152Y195118D01*
X271433Y194638D01*
X270953Y193919D01*
X270784Y193071D01*
X270953Y192223D01*
X271433Y191504D01*
X272152Y191024D01*
X273000Y190855D01*
X273848Y191024D01*
X274567Y191504D01*
X275047Y192223D01*
X275216Y193071D01*
X275047Y193919D01*
X274567Y194638D01*
X273848Y195118D01*
X273000Y195287D01*
D02*
G37*
G36*
X117000D02*
X116152Y195118D01*
X115433Y194638D01*
X114953Y193919D01*
X114784Y193071D01*
X114953Y192223D01*
X115433Y191504D01*
X116152Y191024D01*
X117000Y190855D01*
X117848Y191024D01*
X118567Y191504D01*
X119047Y192223D01*
X119216Y193071D01*
X119047Y193919D01*
X118567Y194638D01*
X117848Y195118D01*
X117000Y195287D01*
D02*
G37*
G36*
X103000D02*
X102152Y195118D01*
X101433Y194638D01*
X100953Y193919D01*
X100784Y193071D01*
X100953Y192223D01*
X101433Y191504D01*
X102152Y191024D01*
X103000Y190855D01*
X103848Y191024D01*
X104567Y191504D01*
X105047Y192223D01*
X105216Y193071D01*
X105047Y193919D01*
X104567Y194638D01*
X103848Y195118D01*
X103000Y195287D01*
D02*
G37*
G36*
X248000Y194716D02*
X247152Y194547D01*
X246433Y194067D01*
X245953Y193348D01*
X245784Y192500D01*
X245953Y191652D01*
X246433Y190933D01*
X247152Y190453D01*
X248000Y190284D01*
X248848Y190453D01*
X249567Y190933D01*
X250047Y191652D01*
X250216Y192500D01*
X250047Y193348D01*
X249567Y194067D01*
X248848Y194547D01*
X248000Y194716D01*
D02*
G37*
G36*
X240000D02*
X239152Y194547D01*
X238433Y194067D01*
X237953Y193348D01*
X237784Y192500D01*
X237953Y191652D01*
X238433Y190933D01*
X239152Y190453D01*
X240000Y190284D01*
X240848Y190453D01*
X241567Y190933D01*
X242047Y191652D01*
X242216Y192500D01*
X242047Y193348D01*
X241567Y194067D01*
X240848Y194547D01*
X240000Y194716D01*
D02*
G37*
G36*
X232000D02*
X231152Y194547D01*
X230433Y194067D01*
X229953Y193348D01*
X229784Y192500D01*
X229953Y191652D01*
X230433Y190933D01*
X231152Y190453D01*
X232000Y190284D01*
X232848Y190453D01*
X233567Y190933D01*
X234047Y191652D01*
X234216Y192500D01*
X234047Y193348D01*
X233567Y194067D01*
X232848Y194547D01*
X232000Y194716D01*
D02*
G37*
G36*
X158000D02*
X157152Y194547D01*
X156433Y194067D01*
X155953Y193348D01*
X155784Y192500D01*
X155953Y191652D01*
X156433Y190933D01*
X157152Y190453D01*
X158000Y190284D01*
X158848Y190453D01*
X159567Y190933D01*
X160047Y191652D01*
X160216Y192500D01*
X160047Y193348D01*
X159567Y194067D01*
X158848Y194547D01*
X158000Y194716D01*
D02*
G37*
G36*
X150000D02*
X149152Y194547D01*
X148433Y194067D01*
X147953Y193348D01*
X147784Y192500D01*
X147953Y191652D01*
X148433Y190933D01*
X149152Y190453D01*
X150000Y190284D01*
X150848Y190453D01*
X151567Y190933D01*
X152047Y191652D01*
X152216Y192500D01*
X152047Y193348D01*
X151567Y194067D01*
X150848Y194547D01*
X150000Y194716D01*
D02*
G37*
G36*
X142000D02*
X141152Y194547D01*
X140433Y194067D01*
X139953Y193348D01*
X139784Y192500D01*
X139953Y191652D01*
X140433Y190933D01*
X141152Y190453D01*
X142000Y190284D01*
X142848Y190453D01*
X143567Y190933D01*
X144047Y191652D01*
X144216Y192500D01*
X144047Y193348D01*
X143567Y194067D01*
X142848Y194547D01*
X142000Y194716D01*
D02*
G37*
G36*
X382000Y187614D02*
X381191Y187453D01*
X380505Y186995D01*
X380047Y186309D01*
X379886Y185500D01*
X380047Y184691D01*
X380505Y184005D01*
X381191Y183547D01*
X382000Y183386D01*
X382809Y183547D01*
X383495Y184005D01*
X383953Y184691D01*
X384114Y185500D01*
X383953Y186309D01*
X383495Y186995D01*
X382809Y187453D01*
X382000Y187614D01*
D02*
G37*
G36*
X374000D02*
X373191Y187453D01*
X372505Y186995D01*
X372047Y186309D01*
X371886Y185500D01*
X372047Y184691D01*
X372505Y184005D01*
X373191Y183547D01*
X374000Y183386D01*
X374809Y183547D01*
X375495Y184005D01*
X375953Y184691D01*
X376114Y185500D01*
X375953Y186309D01*
X375495Y186995D01*
X374809Y187453D01*
X374000Y187614D01*
D02*
G37*
G36*
X366000D02*
X365191Y187453D01*
X364505Y186995D01*
X364047Y186309D01*
X363886Y185500D01*
X364047Y184691D01*
X364505Y184005D01*
X365191Y183547D01*
X366000Y183386D01*
X366809Y183547D01*
X367495Y184005D01*
X367953Y184691D01*
X368114Y185500D01*
X367953Y186309D01*
X367495Y186995D01*
X366809Y187453D01*
X366000Y187614D01*
D02*
G37*
G36*
X358000D02*
X357191Y187453D01*
X356505Y186995D01*
X356047Y186309D01*
X355886Y185500D01*
X356047Y184691D01*
X356505Y184005D01*
X357191Y183547D01*
X358000Y183386D01*
X358809Y183547D01*
X359495Y184005D01*
X359953Y184691D01*
X360114Y185500D01*
X359953Y186309D01*
X359495Y186995D01*
X358809Y187453D01*
X358000Y187614D01*
D02*
G37*
G36*
X32000D02*
X31191Y187453D01*
X30505Y186995D01*
X30047Y186309D01*
X29886Y185500D01*
X30047Y184691D01*
X30505Y184005D01*
X31191Y183547D01*
X32000Y183386D01*
X32809Y183547D01*
X33495Y184005D01*
X33953Y184691D01*
X34114Y185500D01*
X33953Y186309D01*
X33495Y186995D01*
X32809Y187453D01*
X32000Y187614D01*
D02*
G37*
G36*
X24000D02*
X23191Y187453D01*
X22505Y186995D01*
X22047Y186309D01*
X21886Y185500D01*
X22047Y184691D01*
X22505Y184005D01*
X23191Y183547D01*
X24000Y183386D01*
X24809Y183547D01*
X25495Y184005D01*
X25953Y184691D01*
X26114Y185500D01*
X25953Y186309D01*
X25495Y186995D01*
X24809Y187453D01*
X24000Y187614D01*
D02*
G37*
G36*
X16000D02*
X15191Y187453D01*
X14505Y186995D01*
X14047Y186309D01*
X13886Y185500D01*
X14047Y184691D01*
X14505Y184005D01*
X15191Y183547D01*
X16000Y183386D01*
X16809Y183547D01*
X17495Y184005D01*
X17953Y184691D01*
X18114Y185500D01*
X17953Y186309D01*
X17495Y186995D01*
X16809Y187453D01*
X16000Y187614D01*
D02*
G37*
G36*
X8000D02*
X7191Y187453D01*
X6505Y186995D01*
X6047Y186309D01*
X5886Y185500D01*
X6047Y184691D01*
X6505Y184005D01*
X7191Y183547D01*
X8000Y183386D01*
X8809Y183547D01*
X9495Y184005D01*
X9953Y184691D01*
X10114Y185500D01*
X9953Y186309D01*
X9495Y186995D01*
X8809Y187453D01*
X8000Y187614D01*
D02*
G37*
G36*
X248000Y186716D02*
X247152Y186547D01*
X246433Y186067D01*
X245953Y185348D01*
X245784Y184500D01*
X245953Y183652D01*
X246433Y182933D01*
X247152Y182453D01*
X248000Y182284D01*
X248848Y182453D01*
X249567Y182933D01*
X250047Y183652D01*
X250216Y184500D01*
X250047Y185348D01*
X249567Y186067D01*
X248848Y186547D01*
X248000Y186716D01*
D02*
G37*
G36*
X240000D02*
X239152Y186547D01*
X238433Y186067D01*
X237953Y185348D01*
X237784Y184500D01*
X237953Y183652D01*
X238433Y182933D01*
X239152Y182453D01*
X240000Y182284D01*
X240848Y182453D01*
X241567Y182933D01*
X242047Y183652D01*
X242216Y184500D01*
X242047Y185348D01*
X241567Y186067D01*
X240848Y186547D01*
X240000Y186716D01*
D02*
G37*
G36*
X232000D02*
X231152Y186547D01*
X230433Y186067D01*
X229953Y185348D01*
X229784Y184500D01*
X229953Y183652D01*
X230433Y182933D01*
X231152Y182453D01*
X232000Y182284D01*
X232848Y182453D01*
X233567Y182933D01*
X234047Y183652D01*
X234216Y184500D01*
X234047Y185348D01*
X233567Y186067D01*
X232848Y186547D01*
X232000Y186716D01*
D02*
G37*
G36*
X158000D02*
X157152Y186547D01*
X156433Y186067D01*
X155953Y185348D01*
X155784Y184500D01*
X155953Y183652D01*
X156433Y182933D01*
X157152Y182453D01*
X158000Y182284D01*
X158848Y182453D01*
X159567Y182933D01*
X160047Y183652D01*
X160216Y184500D01*
X160047Y185348D01*
X159567Y186067D01*
X158848Y186547D01*
X158000Y186716D01*
D02*
G37*
G36*
X150000D02*
X149152Y186547D01*
X148433Y186067D01*
X147953Y185348D01*
X147784Y184500D01*
X147953Y183652D01*
X148433Y182933D01*
X149152Y182453D01*
X150000Y182284D01*
X150848Y182453D01*
X151567Y182933D01*
X152047Y183652D01*
X152216Y184500D01*
X152047Y185348D01*
X151567Y186067D01*
X150848Y186547D01*
X150000Y186716D01*
D02*
G37*
G36*
X142000D02*
X141152Y186547D01*
X140433Y186067D01*
X139953Y185348D01*
X139784Y184500D01*
X139953Y183652D01*
X140433Y182933D01*
X141152Y182453D01*
X142000Y182284D01*
X142848Y182453D01*
X143567Y182933D01*
X144047Y183652D01*
X144216Y184500D01*
X144047Y185348D01*
X143567Y186067D01*
X142848Y186547D01*
X142000Y186716D01*
D02*
G37*
G36*
X84000Y182216D02*
X83152Y182047D01*
X82433Y181567D01*
X81953Y180848D01*
X81784Y180000D01*
X81953Y179152D01*
X82433Y178433D01*
X83152Y177953D01*
X84000Y177784D01*
X84848Y177953D01*
X85567Y178433D01*
X86047Y179152D01*
X86216Y180000D01*
X86047Y180848D01*
X85567Y181567D01*
X84848Y182047D01*
X84000Y182216D01*
D02*
G37*
G36*
X78000D02*
X77152Y182047D01*
X76433Y181567D01*
X75953Y180848D01*
X75784Y180000D01*
X75953Y179152D01*
X76433Y178433D01*
X77152Y177953D01*
X78000Y177784D01*
X78848Y177953D01*
X79567Y178433D01*
X80047Y179152D01*
X80216Y180000D01*
X80047Y180848D01*
X79567Y181567D01*
X78848Y182047D01*
X78000Y182216D01*
D02*
G37*
G36*
X71500D02*
X70652Y182047D01*
X69933Y181567D01*
X69453Y180848D01*
X69284Y180000D01*
X69453Y179152D01*
X69933Y178433D01*
X70652Y177953D01*
X71500Y177784D01*
X72348Y177953D01*
X73067Y178433D01*
X73547Y179152D01*
X73716Y180000D01*
X73547Y180848D01*
X73067Y181567D01*
X72348Y182047D01*
X71500Y182216D01*
D02*
G37*
G36*
X65500D02*
X64652Y182047D01*
X63933Y181567D01*
X63453Y180848D01*
X63284Y180000D01*
X63453Y179152D01*
X63933Y178433D01*
X64652Y177953D01*
X65500Y177784D01*
X66348Y177953D01*
X67067Y178433D01*
X67547Y179152D01*
X67716Y180000D01*
X67547Y180848D01*
X67067Y181567D01*
X66348Y182047D01*
X65500Y182216D01*
D02*
G37*
G36*
X341000Y181216D02*
X340152Y181047D01*
X339433Y180567D01*
X338953Y179848D01*
X338784Y179000D01*
X338953Y178152D01*
X339433Y177433D01*
X340152Y176953D01*
X341000Y176784D01*
X341848Y176953D01*
X342567Y177433D01*
X343047Y178152D01*
X343216Y179000D01*
X343047Y179848D01*
X342567Y180567D01*
X341848Y181047D01*
X341000Y181216D01*
D02*
G37*
G36*
X332709D02*
X331861Y181047D01*
X331142Y180567D01*
X330662Y179848D01*
X330493Y179000D01*
X330662Y178152D01*
X331142Y177433D01*
X331861Y176953D01*
X332709Y176784D01*
X333557Y176953D01*
X334276Y177433D01*
X334756Y178152D01*
X334925Y179000D01*
X334756Y179848D01*
X334276Y180567D01*
X333557Y181047D01*
X332709Y181216D01*
D02*
G37*
G36*
X57000D02*
X56152Y181047D01*
X55433Y180567D01*
X54953Y179848D01*
X54784Y179000D01*
X54953Y178152D01*
X55433Y177433D01*
X56152Y176953D01*
X57000Y176784D01*
X57848Y176953D01*
X58567Y177433D01*
X59047Y178152D01*
X59216Y179000D01*
X59047Y179848D01*
X58567Y180567D01*
X57848Y181047D01*
X57000Y181216D01*
D02*
G37*
G36*
X48709D02*
X47861Y181047D01*
X47142Y180567D01*
X46661Y179848D01*
X46493Y179000D01*
X46661Y178152D01*
X47142Y177433D01*
X47861Y176953D01*
X48709Y176784D01*
X49557Y176953D01*
X50275Y177433D01*
X50756Y178152D01*
X50924Y179000D01*
X50756Y179848D01*
X50275Y180567D01*
X49557Y181047D01*
X48709Y181216D01*
D02*
G37*
G36*
X382000Y179614D02*
X381191Y179453D01*
X380505Y178995D01*
X380047Y178309D01*
X379886Y177500D01*
X380047Y176691D01*
X380505Y176005D01*
X381191Y175547D01*
X382000Y175386D01*
X382809Y175547D01*
X383495Y176005D01*
X383953Y176691D01*
X384114Y177500D01*
X383953Y178309D01*
X383495Y178995D01*
X382809Y179453D01*
X382000Y179614D01*
D02*
G37*
G36*
X374000D02*
X373191Y179453D01*
X372505Y178995D01*
X372047Y178309D01*
X371886Y177500D01*
X372047Y176691D01*
X372505Y176005D01*
X373191Y175547D01*
X374000Y175386D01*
X374809Y175547D01*
X375495Y176005D01*
X375953Y176691D01*
X376114Y177500D01*
X375953Y178309D01*
X375495Y178995D01*
X374809Y179453D01*
X374000Y179614D01*
D02*
G37*
G36*
X366000D02*
X365191Y179453D01*
X364505Y178995D01*
X364047Y178309D01*
X363886Y177500D01*
X364047Y176691D01*
X364505Y176005D01*
X365191Y175547D01*
X366000Y175386D01*
X366809Y175547D01*
X367495Y176005D01*
X367953Y176691D01*
X368114Y177500D01*
X367953Y178309D01*
X367495Y178995D01*
X366809Y179453D01*
X366000Y179614D01*
D02*
G37*
G36*
X358000D02*
X357191Y179453D01*
X356505Y178995D01*
X356047Y178309D01*
X355886Y177500D01*
X356047Y176691D01*
X356505Y176005D01*
X357191Y175547D01*
X358000Y175386D01*
X358809Y175547D01*
X359495Y176005D01*
X359953Y176691D01*
X360114Y177500D01*
X359953Y178309D01*
X359495Y178995D01*
X358809Y179453D01*
X358000Y179614D01*
D02*
G37*
G36*
X32000D02*
X31191Y179453D01*
X30505Y178995D01*
X30047Y178309D01*
X29886Y177500D01*
X30047Y176691D01*
X30505Y176005D01*
X31191Y175547D01*
X32000Y175386D01*
X32809Y175547D01*
X33495Y176005D01*
X33953Y176691D01*
X34114Y177500D01*
X33953Y178309D01*
X33495Y178995D01*
X32809Y179453D01*
X32000Y179614D01*
D02*
G37*
G36*
X24000D02*
X23191Y179453D01*
X22505Y178995D01*
X22047Y178309D01*
X21886Y177500D01*
X22047Y176691D01*
X22505Y176005D01*
X23191Y175547D01*
X24000Y175386D01*
X24809Y175547D01*
X25495Y176005D01*
X25953Y176691D01*
X26114Y177500D01*
X25953Y178309D01*
X25495Y178995D01*
X24809Y179453D01*
X24000Y179614D01*
D02*
G37*
G36*
X16000D02*
X15191Y179453D01*
X14505Y178995D01*
X14047Y178309D01*
X13886Y177500D01*
X14047Y176691D01*
X14505Y176005D01*
X15191Y175547D01*
X16000Y175386D01*
X16809Y175547D01*
X17495Y176005D01*
X17953Y176691D01*
X18114Y177500D01*
X17953Y178309D01*
X17495Y178995D01*
X16809Y179453D01*
X16000Y179614D01*
D02*
G37*
G36*
X8000D02*
X7191Y179453D01*
X6505Y178995D01*
X6047Y178309D01*
X5886Y177500D01*
X6047Y176691D01*
X6505Y176005D01*
X7191Y175547D01*
X8000Y175386D01*
X8809Y175547D01*
X9495Y176005D01*
X9953Y176691D01*
X10114Y177500D01*
X9953Y178309D01*
X9495Y178995D01*
X8809Y179453D01*
X8000Y179614D01*
D02*
G37*
G36*
X324000Y179716D02*
X323152Y179547D01*
X322433Y179067D01*
X321953Y178348D01*
X321784Y177500D01*
X321953Y176652D01*
X322433Y175933D01*
X323152Y175453D01*
X324000Y175284D01*
X324848Y175453D01*
X325567Y175933D01*
X326047Y176652D01*
X326216Y177500D01*
X326047Y178348D01*
X325567Y179067D01*
X324848Y179547D01*
X324000Y179716D01*
D02*
G37*
G36*
X318000D02*
X317152Y179547D01*
X316433Y179067D01*
X315953Y178348D01*
X315784Y177500D01*
X315953Y176652D01*
X316433Y175933D01*
X317152Y175453D01*
X318000Y175284D01*
X318848Y175453D01*
X319567Y175933D01*
X320047Y176652D01*
X320216Y177500D01*
X320047Y178348D01*
X319567Y179067D01*
X318848Y179547D01*
X318000Y179716D01*
D02*
G37*
G36*
X311500D02*
X310652Y179547D01*
X309933Y179067D01*
X309453Y178348D01*
X309284Y177500D01*
X309453Y176652D01*
X309933Y175933D01*
X310652Y175453D01*
X311500Y175284D01*
X312348Y175453D01*
X313067Y175933D01*
X313547Y176652D01*
X313716Y177500D01*
X313547Y178348D01*
X313067Y179067D01*
X312348Y179547D01*
X311500Y179716D01*
D02*
G37*
G36*
X305500D02*
X304652Y179547D01*
X303933Y179067D01*
X303453Y178348D01*
X303284Y177500D01*
X303453Y176652D01*
X303933Y175933D01*
X304652Y175453D01*
X305500Y175284D01*
X306348Y175453D01*
X307067Y175933D01*
X307547Y176652D01*
X307716Y177500D01*
X307547Y178348D01*
X307067Y179067D01*
X306348Y179547D01*
X305500Y179716D01*
D02*
G37*
G36*
X254000Y176216D02*
X253152Y176047D01*
X252433Y175567D01*
X251953Y174848D01*
X251784Y174000D01*
X251953Y173152D01*
X252433Y172433D01*
X253152Y171953D01*
X254000Y171784D01*
X254848Y171953D01*
X255567Y172433D01*
X256047Y173152D01*
X256216Y174000D01*
X256047Y174848D01*
X255567Y175567D01*
X254848Y176047D01*
X254000Y176216D01*
D02*
G37*
G36*
X249000D02*
X248152Y176047D01*
X247433Y175567D01*
X246953Y174848D01*
X246784Y174000D01*
X246953Y173152D01*
X247433Y172433D01*
X248152Y171953D01*
X249000Y171784D01*
X249848Y171953D01*
X250567Y172433D01*
X251047Y173152D01*
X251216Y174000D01*
X251047Y174848D01*
X250567Y175567D01*
X249848Y176047D01*
X249000Y176216D01*
D02*
G37*
G36*
X244000D02*
X243152Y176047D01*
X242433Y175567D01*
X241953Y174848D01*
X241784Y174000D01*
X241953Y173152D01*
X242433Y172433D01*
X243152Y171953D01*
X244000Y171784D01*
X244848Y171953D01*
X245567Y172433D01*
X246047Y173152D01*
X246216Y174000D01*
X246047Y174848D01*
X245567Y175567D01*
X244848Y176047D01*
X244000Y176216D01*
D02*
G37*
G36*
X164000D02*
X163152Y176047D01*
X162433Y175567D01*
X161953Y174848D01*
X161784Y174000D01*
X161953Y173152D01*
X162433Y172433D01*
X163152Y171953D01*
X164000Y171784D01*
X164848Y171953D01*
X165567Y172433D01*
X166047Y173152D01*
X166216Y174000D01*
X166047Y174848D01*
X165567Y175567D01*
X164848Y176047D01*
X164000Y176216D01*
D02*
G37*
G36*
X159000D02*
X158152Y176047D01*
X157433Y175567D01*
X156953Y174848D01*
X156784Y174000D01*
X156953Y173152D01*
X157433Y172433D01*
X158152Y171953D01*
X159000Y171784D01*
X159848Y171953D01*
X160567Y172433D01*
X161047Y173152D01*
X161216Y174000D01*
X161047Y174848D01*
X160567Y175567D01*
X159848Y176047D01*
X159000Y176216D01*
D02*
G37*
G36*
X154000D02*
X153152Y176047D01*
X152433Y175567D01*
X151953Y174848D01*
X151784Y174000D01*
X151953Y173152D01*
X152433Y172433D01*
X153152Y171953D01*
X154000Y171784D01*
X154848Y171953D01*
X155567Y172433D01*
X156047Y173152D01*
X156216Y174000D01*
X156047Y174848D01*
X155567Y175567D01*
X154848Y176047D01*
X154000Y176216D01*
D02*
G37*
G36*
X341000Y174716D02*
X340152Y174547D01*
X339433Y174067D01*
X338953Y173348D01*
X338784Y172500D01*
X338953Y171652D01*
X339433Y170933D01*
X340152Y170453D01*
X341000Y170284D01*
X341848Y170453D01*
X342567Y170933D01*
X343047Y171652D01*
X343216Y172500D01*
X343047Y173348D01*
X342567Y174067D01*
X341848Y174547D01*
X341000Y174716D01*
D02*
G37*
G36*
X332709D02*
X331861Y174547D01*
X331142Y174067D01*
X330662Y173348D01*
X330493Y172500D01*
X330662Y171652D01*
X331142Y170933D01*
X331861Y170453D01*
X332709Y170284D01*
X333557Y170453D01*
X334276Y170933D01*
X334756Y171652D01*
X334925Y172500D01*
X334756Y173348D01*
X334276Y174067D01*
X333557Y174547D01*
X332709Y174716D01*
D02*
G37*
G36*
X57000D02*
X56152Y174547D01*
X55433Y174067D01*
X54953Y173348D01*
X54784Y172500D01*
X54953Y171652D01*
X55433Y170933D01*
X56152Y170453D01*
X57000Y170284D01*
X57848Y170453D01*
X58567Y170933D01*
X59047Y171652D01*
X59216Y172500D01*
X59047Y173348D01*
X58567Y174067D01*
X57848Y174547D01*
X57000Y174716D01*
D02*
G37*
G36*
X48709D02*
X47861Y174547D01*
X47142Y174067D01*
X46661Y173348D01*
X46493Y172500D01*
X46661Y171652D01*
X47142Y170933D01*
X47861Y170453D01*
X48709Y170284D01*
X49557Y170453D01*
X50275Y170933D01*
X50756Y171652D01*
X50924Y172500D01*
X50756Y173348D01*
X50275Y174067D01*
X49557Y174547D01*
X48709Y174716D01*
D02*
G37*
G36*
X382000Y171614D02*
X381191Y171453D01*
X380505Y170995D01*
X380047Y170309D01*
X379886Y169500D01*
X380047Y168691D01*
X380505Y168005D01*
X381191Y167547D01*
X382000Y167386D01*
X382809Y167547D01*
X383495Y168005D01*
X383953Y168691D01*
X384114Y169500D01*
X383953Y170309D01*
X383495Y170995D01*
X382809Y171453D01*
X382000Y171614D01*
D02*
G37*
G36*
X374000D02*
X373191Y171453D01*
X372505Y170995D01*
X372047Y170309D01*
X371886Y169500D01*
X372047Y168691D01*
X372505Y168005D01*
X373191Y167547D01*
X374000Y167386D01*
X374809Y167547D01*
X375495Y168005D01*
X375953Y168691D01*
X376114Y169500D01*
X375953Y170309D01*
X375495Y170995D01*
X374809Y171453D01*
X374000Y171614D01*
D02*
G37*
G36*
X366000D02*
X365191Y171453D01*
X364505Y170995D01*
X364047Y170309D01*
X363886Y169500D01*
X364047Y168691D01*
X364505Y168005D01*
X365191Y167547D01*
X366000Y167386D01*
X366809Y167547D01*
X367495Y168005D01*
X367953Y168691D01*
X368114Y169500D01*
X367953Y170309D01*
X367495Y170995D01*
X366809Y171453D01*
X366000Y171614D01*
D02*
G37*
G36*
X358000D02*
X357191Y171453D01*
X356505Y170995D01*
X356047Y170309D01*
X355886Y169500D01*
X356047Y168691D01*
X356505Y168005D01*
X357191Y167547D01*
X358000Y167386D01*
X358809Y167547D01*
X359495Y168005D01*
X359953Y168691D01*
X360114Y169500D01*
X359953Y170309D01*
X359495Y170995D01*
X358809Y171453D01*
X358000Y171614D01*
D02*
G37*
G36*
X32000D02*
X31191Y171453D01*
X30505Y170995D01*
X30047Y170309D01*
X29886Y169500D01*
X30047Y168691D01*
X30505Y168005D01*
X31191Y167547D01*
X32000Y167386D01*
X32809Y167547D01*
X33495Y168005D01*
X33953Y168691D01*
X34114Y169500D01*
X33953Y170309D01*
X33495Y170995D01*
X32809Y171453D01*
X32000Y171614D01*
D02*
G37*
G36*
X24000D02*
X23191Y171453D01*
X22505Y170995D01*
X22047Y170309D01*
X21886Y169500D01*
X22047Y168691D01*
X22505Y168005D01*
X23191Y167547D01*
X24000Y167386D01*
X24809Y167547D01*
X25495Y168005D01*
X25953Y168691D01*
X26114Y169500D01*
X25953Y170309D01*
X25495Y170995D01*
X24809Y171453D01*
X24000Y171614D01*
D02*
G37*
G36*
X16000D02*
X15191Y171453D01*
X14505Y170995D01*
X14047Y170309D01*
X13886Y169500D01*
X14047Y168691D01*
X14505Y168005D01*
X15191Y167547D01*
X16000Y167386D01*
X16809Y167547D01*
X17495Y168005D01*
X17953Y168691D01*
X18114Y169500D01*
X17953Y170309D01*
X17495Y170995D01*
X16809Y171453D01*
X16000Y171614D01*
D02*
G37*
G36*
X8000D02*
X7191Y171453D01*
X6505Y170995D01*
X6047Y170309D01*
X5886Y169500D01*
X6047Y168691D01*
X6505Y168005D01*
X7191Y167547D01*
X8000Y167386D01*
X8809Y167547D01*
X9495Y168005D01*
X9953Y168691D01*
X10114Y169500D01*
X9953Y170309D01*
X9495Y170995D01*
X8809Y171453D01*
X8000Y171614D01*
D02*
G37*
G36*
X254000Y169716D02*
X253152Y169547D01*
X252433Y169067D01*
X251953Y168348D01*
X251784Y167500D01*
X251953Y166652D01*
X252433Y165933D01*
X253152Y165453D01*
X254000Y165284D01*
X254848Y165453D01*
X255567Y165933D01*
X256047Y166652D01*
X256216Y167500D01*
X256047Y168348D01*
X255567Y169067D01*
X254848Y169547D01*
X254000Y169716D01*
D02*
G37*
G36*
X244000D02*
X243152Y169547D01*
X242433Y169067D01*
X241953Y168348D01*
X241784Y167500D01*
X241953Y166652D01*
X242433Y165933D01*
X243152Y165453D01*
X244000Y165284D01*
X244848Y165453D01*
X245567Y165933D01*
X246047Y166652D01*
X246216Y167500D01*
X246047Y168348D01*
X245567Y169067D01*
X244848Y169547D01*
X244000Y169716D01*
D02*
G37*
G36*
X164000D02*
X163152Y169547D01*
X162433Y169067D01*
X161953Y168348D01*
X161784Y167500D01*
X161953Y166652D01*
X162433Y165933D01*
X163152Y165453D01*
X164000Y165284D01*
X164848Y165453D01*
X165567Y165933D01*
X166047Y166652D01*
X166216Y167500D01*
X166047Y168348D01*
X165567Y169067D01*
X164848Y169547D01*
X164000Y169716D01*
D02*
G37*
G36*
X154000D02*
X153152Y169547D01*
X152433Y169067D01*
X151953Y168348D01*
X151784Y167500D01*
X151953Y166652D01*
X152433Y165933D01*
X153152Y165453D01*
X154000Y165284D01*
X154848Y165453D01*
X155567Y165933D01*
X156047Y166652D01*
X156216Y167500D01*
X156047Y168348D01*
X155567Y169067D01*
X154848Y169547D01*
X154000Y169716D01*
D02*
G37*
G36*
X254000Y163216D02*
X253152Y163047D01*
X252433Y162567D01*
X251953Y161848D01*
X251784Y161000D01*
X251953Y160152D01*
X252433Y159433D01*
X253152Y158953D01*
X254000Y158784D01*
X254848Y158953D01*
X255567Y159433D01*
X256047Y160152D01*
X256216Y161000D01*
X256047Y161848D01*
X255567Y162567D01*
X254848Y163047D01*
X254000Y163216D01*
D02*
G37*
G36*
X249000D02*
X248152Y163047D01*
X247433Y162567D01*
X246953Y161848D01*
X246784Y161000D01*
X246953Y160152D01*
X247433Y159433D01*
X248152Y158953D01*
X249000Y158784D01*
X249848Y158953D01*
X250567Y159433D01*
X251047Y160152D01*
X251216Y161000D01*
X251047Y161848D01*
X250567Y162567D01*
X249848Y163047D01*
X249000Y163216D01*
D02*
G37*
G36*
X159000D02*
X158152Y163047D01*
X157433Y162567D01*
X156953Y161848D01*
X156784Y161000D01*
X156953Y160152D01*
X157433Y159433D01*
X158152Y158953D01*
X159000Y158784D01*
X159848Y158953D01*
X160567Y159433D01*
X161047Y160152D01*
X161216Y161000D01*
X161047Y161848D01*
X160567Y162567D01*
X159848Y163047D01*
X159000Y163216D01*
D02*
G37*
G36*
X154000D02*
X153152Y163047D01*
X152433Y162567D01*
X151953Y161848D01*
X151784Y161000D01*
X151953Y160152D01*
X152433Y159433D01*
X153152Y158953D01*
X154000Y158784D01*
X154848Y158953D01*
X155567Y159433D01*
X156047Y160152D01*
X156216Y161000D01*
X156047Y161848D01*
X155567Y162567D01*
X154848Y163047D01*
X154000Y163216D01*
D02*
G37*
G36*
X220094Y158216D02*
X219247Y158047D01*
X218528Y157567D01*
X218047Y156848D01*
X217879Y156000D01*
X218047Y155152D01*
X218528Y154433D01*
X219247Y153953D01*
X220094Y153784D01*
X220942Y153953D01*
X221661Y154433D01*
X222142Y155152D01*
X222310Y156000D01*
X222142Y156848D01*
X221661Y157567D01*
X220942Y158047D01*
X220094Y158216D01*
D02*
G37*
G36*
X214094D02*
X213246Y158047D01*
X212528Y157567D01*
X212047Y156848D01*
X211879Y156000D01*
X212047Y155152D01*
X212528Y154433D01*
X213246Y153953D01*
X214094Y153784D01*
X214942Y153953D01*
X215661Y154433D01*
X216142Y155152D01*
X216310Y156000D01*
X216142Y156848D01*
X215661Y157567D01*
X214942Y158047D01*
X214094Y158216D01*
D02*
G37*
G36*
X176000D02*
X175152Y158047D01*
X174433Y157567D01*
X173953Y156848D01*
X173784Y156000D01*
X173953Y155152D01*
X174433Y154433D01*
X175152Y153953D01*
X176000Y153784D01*
X176848Y153953D01*
X177567Y154433D01*
X178047Y155152D01*
X178216Y156000D01*
X178047Y156848D01*
X177567Y157567D01*
X176848Y158047D01*
X176000Y158216D01*
D02*
G37*
G36*
X170000D02*
X169152Y158047D01*
X168433Y157567D01*
X167953Y156848D01*
X167784Y156000D01*
X167953Y155152D01*
X168433Y154433D01*
X169152Y153953D01*
X170000Y153784D01*
X170848Y153953D01*
X171567Y154433D01*
X172047Y155152D01*
X172216Y156000D01*
X172047Y156848D01*
X171567Y157567D01*
X170848Y158047D01*
X170000Y158216D01*
D02*
G37*
G36*
X259500Y153216D02*
X258652Y153047D01*
X257933Y152567D01*
X257453Y151848D01*
X257284Y151000D01*
X257453Y150152D01*
X257933Y149433D01*
X258652Y148953D01*
X259500Y148784D01*
X260348Y148953D01*
X261067Y149433D01*
X261547Y150152D01*
X261716Y151000D01*
X261547Y151848D01*
X261067Y152567D01*
X260348Y153047D01*
X259500Y153216D01*
D02*
G37*
G36*
X128500D02*
X127652Y153047D01*
X126933Y152567D01*
X126453Y151848D01*
X126284Y151000D01*
X126453Y150152D01*
X126933Y149433D01*
X127652Y148953D01*
X128500Y148784D01*
X129348Y148953D01*
X130067Y149433D01*
X130547Y150152D01*
X130716Y151000D01*
X130547Y151848D01*
X130067Y152567D01*
X129348Y153047D01*
X128500Y153216D01*
D02*
G37*
G36*
X121500D02*
X120652Y153047D01*
X119933Y152567D01*
X119453Y151848D01*
X119284Y151000D01*
X119453Y150152D01*
X119933Y149433D01*
X120652Y148953D01*
X121500Y148784D01*
X122348Y148953D01*
X123067Y149433D01*
X123547Y150152D01*
X123716Y151000D01*
X123547Y151848D01*
X123067Y152567D01*
X122348Y153047D01*
X121500Y153216D01*
D02*
G37*
G36*
X217047Y152216D02*
X216199Y152047D01*
X215480Y151567D01*
X215000Y150848D01*
X214831Y150000D01*
X215000Y149152D01*
X215480Y148433D01*
X216199Y147953D01*
X217047Y147784D01*
X217895Y147953D01*
X218614Y148433D01*
X219094Y149152D01*
X219263Y150000D01*
X219094Y150848D01*
X218614Y151567D01*
X217895Y152047D01*
X217047Y152216D01*
D02*
G37*
G36*
X172953D02*
X172105Y152047D01*
X171386Y151567D01*
X170906Y150848D01*
X170737Y150000D01*
X170906Y149152D01*
X171386Y148433D01*
X172105Y147953D01*
X172953Y147784D01*
X173801Y147953D01*
X174520Y148433D01*
X175000Y149152D01*
X175169Y150000D01*
X175000Y150848D01*
X174520Y151567D01*
X173801Y152047D01*
X172953Y152216D01*
D02*
G37*
G36*
X248000Y150216D02*
X247152Y150047D01*
X246433Y149567D01*
X245953Y148848D01*
X245784Y148000D01*
X245953Y147152D01*
X246433Y146433D01*
X247152Y145953D01*
X248000Y145784D01*
X248848Y145953D01*
X249567Y146433D01*
X250047Y147152D01*
X250216Y148000D01*
X250047Y148848D01*
X249567Y149567D01*
X248848Y150047D01*
X248000Y150216D01*
D02*
G37*
G36*
X240000D02*
X239152Y150047D01*
X238433Y149567D01*
X237953Y148848D01*
X237784Y148000D01*
X237953Y147152D01*
X238433Y146433D01*
X239152Y145953D01*
X240000Y145784D01*
X240848Y145953D01*
X241567Y146433D01*
X242047Y147152D01*
X242216Y148000D01*
X242047Y148848D01*
X241567Y149567D01*
X240848Y150047D01*
X240000Y150216D01*
D02*
G37*
G36*
X232000D02*
X231152Y150047D01*
X230433Y149567D01*
X229953Y148848D01*
X229784Y148000D01*
X229953Y147152D01*
X230433Y146433D01*
X231152Y145953D01*
X232000Y145784D01*
X232848Y145953D01*
X233567Y146433D01*
X234047Y147152D01*
X234216Y148000D01*
X234047Y148848D01*
X233567Y149567D01*
X232848Y150047D01*
X232000Y150216D01*
D02*
G37*
G36*
X158000D02*
X157152Y150047D01*
X156433Y149567D01*
X155953Y148848D01*
X155784Y148000D01*
X155953Y147152D01*
X156433Y146433D01*
X157152Y145953D01*
X158000Y145784D01*
X158848Y145953D01*
X159567Y146433D01*
X160047Y147152D01*
X160216Y148000D01*
X160047Y148848D01*
X159567Y149567D01*
X158848Y150047D01*
X158000Y150216D01*
D02*
G37*
G36*
X150000D02*
X149152Y150047D01*
X148433Y149567D01*
X147953Y148848D01*
X147784Y148000D01*
X147953Y147152D01*
X148433Y146433D01*
X149152Y145953D01*
X150000Y145784D01*
X150848Y145953D01*
X151567Y146433D01*
X152047Y147152D01*
X152216Y148000D01*
X152047Y148848D01*
X151567Y149567D01*
X150848Y150047D01*
X150000Y150216D01*
D02*
G37*
G36*
X142000D02*
X141152Y150047D01*
X140433Y149567D01*
X139953Y148848D01*
X139784Y148000D01*
X139953Y147152D01*
X140433Y146433D01*
X141152Y145953D01*
X142000Y145784D01*
X142848Y145953D01*
X143567Y146433D01*
X144047Y147152D01*
X144216Y148000D01*
X144047Y148848D01*
X143567Y149567D01*
X142848Y150047D01*
X142000Y150216D01*
D02*
G37*
G36*
X342000Y148716D02*
X341152Y148547D01*
X340433Y148067D01*
X339953Y147348D01*
X339784Y146500D01*
X339953Y145652D01*
X340433Y144933D01*
X341152Y144453D01*
X342000Y144284D01*
X342848Y144453D01*
X343567Y144933D01*
X344047Y145652D01*
X344216Y146500D01*
X344047Y147348D01*
X343567Y148067D01*
X342848Y148547D01*
X342000Y148716D01*
D02*
G37*
G36*
X116500D02*
X115652Y148547D01*
X114933Y148067D01*
X114453Y147348D01*
X114284Y146500D01*
X114453Y145652D01*
X114933Y144933D01*
X115652Y144453D01*
X116500Y144284D01*
X117348Y144453D01*
X118067Y144933D01*
X118547Y145652D01*
X118716Y146500D01*
X118547Y147348D01*
X118067Y148067D01*
X117348Y148547D01*
X116500Y148716D01*
D02*
G37*
G36*
X58000D02*
X57152Y148547D01*
X56433Y148067D01*
X55953Y147348D01*
X55784Y146500D01*
X55953Y145652D01*
X56433Y144933D01*
X57152Y144453D01*
X58000Y144284D01*
X58848Y144453D01*
X59567Y144933D01*
X60047Y145652D01*
X60216Y146500D01*
X60047Y147348D01*
X59567Y148067D01*
X58848Y148547D01*
X58000Y148716D01*
D02*
G37*
G36*
X48000D02*
X47152Y148547D01*
X46433Y148067D01*
X45953Y147348D01*
X45784Y146500D01*
X45953Y145652D01*
X46433Y144933D01*
X47152Y144453D01*
X48000Y144284D01*
X48848Y144453D01*
X49567Y144933D01*
X50047Y145652D01*
X50216Y146500D01*
X50047Y147348D01*
X49567Y148067D01*
X48848Y148547D01*
X48000Y148716D01*
D02*
G37*
G36*
X220094Y146216D02*
X219247Y146047D01*
X218528Y145567D01*
X218047Y144848D01*
X217879Y144000D01*
X218047Y143152D01*
X218528Y142433D01*
X219247Y141953D01*
X220094Y141784D01*
X220942Y141953D01*
X221661Y142433D01*
X222142Y143152D01*
X222310Y144000D01*
X222142Y144848D01*
X221661Y145567D01*
X220942Y146047D01*
X220094Y146216D01*
D02*
G37*
G36*
X214094D02*
X213246Y146047D01*
X212528Y145567D01*
X212047Y144848D01*
X211879Y144000D01*
X212047Y143152D01*
X212528Y142433D01*
X213246Y141953D01*
X214094Y141784D01*
X214942Y141953D01*
X215661Y142433D01*
X216142Y143152D01*
X216310Y144000D01*
X216142Y144848D01*
X215661Y145567D01*
X214942Y146047D01*
X214094Y146216D01*
D02*
G37*
G36*
X176000D02*
X175152Y146047D01*
X174433Y145567D01*
X173953Y144848D01*
X173784Y144000D01*
X173953Y143152D01*
X174433Y142433D01*
X175152Y141953D01*
X176000Y141784D01*
X176848Y141953D01*
X177567Y142433D01*
X178047Y143152D01*
X178216Y144000D01*
X178047Y144848D01*
X177567Y145567D01*
X176848Y146047D01*
X176000Y146216D01*
D02*
G37*
G36*
X170000D02*
X169152Y146047D01*
X168433Y145567D01*
X167953Y144848D01*
X167784Y144000D01*
X167953Y143152D01*
X168433Y142433D01*
X169152Y141953D01*
X170000Y141784D01*
X170848Y141953D01*
X171567Y142433D01*
X172047Y143152D01*
X172216Y144000D01*
X172047Y144848D01*
X171567Y145567D01*
X170848Y146047D01*
X170000Y146216D01*
D02*
G37*
G36*
X248000Y142216D02*
X247152Y142047D01*
X246433Y141567D01*
X245953Y140848D01*
X245784Y140000D01*
X245953Y139152D01*
X246433Y138433D01*
X247152Y137953D01*
X248000Y137784D01*
X248848Y137953D01*
X249567Y138433D01*
X250047Y139152D01*
X250216Y140000D01*
X250047Y140848D01*
X249567Y141567D01*
X248848Y142047D01*
X248000Y142216D01*
D02*
G37*
G36*
X240000D02*
X239152Y142047D01*
X238433Y141567D01*
X237953Y140848D01*
X237784Y140000D01*
X237953Y139152D01*
X238433Y138433D01*
X239152Y137953D01*
X240000Y137784D01*
X240848Y137953D01*
X241567Y138433D01*
X242047Y139152D01*
X242216Y140000D01*
X242047Y140848D01*
X241567Y141567D01*
X240848Y142047D01*
X240000Y142216D01*
D02*
G37*
G36*
X232000D02*
X231152Y142047D01*
X230433Y141567D01*
X229953Y140848D01*
X229784Y140000D01*
X229953Y139152D01*
X230433Y138433D01*
X231152Y137953D01*
X232000Y137784D01*
X232848Y137953D01*
X233567Y138433D01*
X234047Y139152D01*
X234216Y140000D01*
X234047Y140848D01*
X233567Y141567D01*
X232848Y142047D01*
X232000Y142216D01*
D02*
G37*
G36*
X158000D02*
X157152Y142047D01*
X156433Y141567D01*
X155953Y140848D01*
X155784Y140000D01*
X155953Y139152D01*
X156433Y138433D01*
X157152Y137953D01*
X158000Y137784D01*
X158848Y137953D01*
X159567Y138433D01*
X160047Y139152D01*
X160216Y140000D01*
X160047Y140848D01*
X159567Y141567D01*
X158848Y142047D01*
X158000Y142216D01*
D02*
G37*
G36*
X150000D02*
X149152Y142047D01*
X148433Y141567D01*
X147953Y140848D01*
X147784Y140000D01*
X147953Y139152D01*
X148433Y138433D01*
X149152Y137953D01*
X150000Y137784D01*
X150848Y137953D01*
X151567Y138433D01*
X152047Y139152D01*
X152216Y140000D01*
X152047Y140848D01*
X151567Y141567D01*
X150848Y142047D01*
X150000Y142216D01*
D02*
G37*
G36*
X142000D02*
X141152Y142047D01*
X140433Y141567D01*
X139953Y140848D01*
X139784Y140000D01*
X139953Y139152D01*
X140433Y138433D01*
X141152Y137953D01*
X142000Y137784D01*
X142848Y137953D01*
X143567Y138433D01*
X144047Y139152D01*
X144216Y140000D01*
X144047Y140848D01*
X143567Y141567D01*
X142848Y142047D01*
X142000Y142216D01*
D02*
G37*
G36*
X248000Y134216D02*
X247152Y134047D01*
X246433Y133567D01*
X245953Y132848D01*
X245784Y132000D01*
X245953Y131152D01*
X246433Y130433D01*
X247152Y129953D01*
X248000Y129784D01*
X248848Y129953D01*
X249567Y130433D01*
X250047Y131152D01*
X250216Y132000D01*
X250047Y132848D01*
X249567Y133567D01*
X248848Y134047D01*
X248000Y134216D01*
D02*
G37*
G36*
X240000D02*
X239152Y134047D01*
X238433Y133567D01*
X237953Y132848D01*
X237784Y132000D01*
X237953Y131152D01*
X238433Y130433D01*
X239152Y129953D01*
X240000Y129784D01*
X240848Y129953D01*
X241567Y130433D01*
X242047Y131152D01*
X242216Y132000D01*
X242047Y132848D01*
X241567Y133567D01*
X240848Y134047D01*
X240000Y134216D01*
D02*
G37*
G36*
X232000D02*
X231152Y134047D01*
X230433Y133567D01*
X229953Y132848D01*
X229784Y132000D01*
X229953Y131152D01*
X230433Y130433D01*
X231152Y129953D01*
X232000Y129784D01*
X232848Y129953D01*
X233567Y130433D01*
X234047Y131152D01*
X234216Y132000D01*
X234047Y132848D01*
X233567Y133567D01*
X232848Y134047D01*
X232000Y134216D01*
D02*
G37*
G36*
X158000D02*
X157152Y134047D01*
X156433Y133567D01*
X155953Y132848D01*
X155784Y132000D01*
X155953Y131152D01*
X156433Y130433D01*
X157152Y129953D01*
X158000Y129784D01*
X158848Y129953D01*
X159567Y130433D01*
X160047Y131152D01*
X160216Y132000D01*
X160047Y132848D01*
X159567Y133567D01*
X158848Y134047D01*
X158000Y134216D01*
D02*
G37*
G36*
X150000D02*
X149152Y134047D01*
X148433Y133567D01*
X147953Y132848D01*
X147784Y132000D01*
X147953Y131152D01*
X148433Y130433D01*
X149152Y129953D01*
X150000Y129784D01*
X150848Y129953D01*
X151567Y130433D01*
X152047Y131152D01*
X152216Y132000D01*
X152047Y132848D01*
X151567Y133567D01*
X150848Y134047D01*
X150000Y134216D01*
D02*
G37*
G36*
X142000D02*
X141152Y134047D01*
X140433Y133567D01*
X139953Y132848D01*
X139784Y132000D01*
X139953Y131152D01*
X140433Y130433D01*
X141152Y129953D01*
X142000Y129784D01*
X142848Y129953D01*
X143567Y130433D01*
X144047Y131152D01*
X144216Y132000D01*
X144047Y132848D01*
X143567Y133567D01*
X142848Y134047D01*
X142000Y134216D01*
D02*
G37*
G36*
X292500Y133216D02*
X291652Y133047D01*
X290933Y132567D01*
X290453Y131848D01*
X290284Y131000D01*
X290453Y130152D01*
X290933Y129433D01*
X291652Y128953D01*
X292500Y128784D01*
X293348Y128953D01*
X294067Y129433D01*
X294547Y130152D01*
X294716Y131000D01*
X294547Y131848D01*
X294067Y132567D01*
X293348Y133047D01*
X292500Y133216D01*
D02*
G37*
G36*
X108000Y132716D02*
X107152Y132547D01*
X106433Y132067D01*
X105953Y131348D01*
X105784Y130500D01*
X105953Y129652D01*
X106433Y128933D01*
X107152Y128453D01*
X108000Y128284D01*
X108848Y128453D01*
X109567Y128933D01*
X110047Y129652D01*
X110216Y130500D01*
X110047Y131348D01*
X109567Y132067D01*
X108848Y132547D01*
X108000Y132716D01*
D02*
G37*
G36*
X51500Y129216D02*
X50652Y129047D01*
X49933Y128567D01*
X49453Y127848D01*
X49284Y127000D01*
X49453Y126152D01*
X49933Y125433D01*
X50652Y124953D01*
X51500Y124784D01*
X52348Y124953D01*
X53067Y125433D01*
X53547Y126152D01*
X53716Y127000D01*
X53547Y127848D01*
X53067Y128567D01*
X52348Y129047D01*
X51500Y129216D01*
D02*
G37*
G36*
X302189Y124216D02*
X301341Y124047D01*
X300622Y123567D01*
X300142Y122848D01*
X299973Y122000D01*
X300142Y121152D01*
X300622Y120433D01*
X301341Y119953D01*
X302189Y119784D01*
X303037Y119953D01*
X303756Y120433D01*
X304236Y121152D01*
X304405Y122000D01*
X304236Y122848D01*
X303756Y123567D01*
X303037Y124047D01*
X302189Y124216D01*
D02*
G37*
G36*
X87311D02*
X86463Y124047D01*
X85744Y123567D01*
X85264Y122848D01*
X85095Y122000D01*
X85264Y121152D01*
X85744Y120433D01*
X86463Y119953D01*
X87311Y119784D01*
X88159Y119953D01*
X88878Y120433D01*
X89358Y121152D01*
X89527Y122000D01*
X89358Y122848D01*
X88878Y123567D01*
X88159Y124047D01*
X87311Y124216D01*
D02*
G37*
G36*
X276500Y121716D02*
X275652Y121547D01*
X274933Y121067D01*
X274453Y120348D01*
X274284Y119500D01*
X274453Y118652D01*
X274933Y117933D01*
X275652Y117453D01*
X276500Y117284D01*
X277348Y117453D01*
X278067Y117933D01*
X278547Y118652D01*
X278716Y119500D01*
X278547Y120348D01*
X278067Y121067D01*
X277348Y121547D01*
X276500Y121716D01*
D02*
G37*
G36*
X32000Y128830D02*
X30842Y128677D01*
X29762Y128230D01*
X28835Y127519D01*
X28124Y126592D01*
X27677Y125513D01*
X27525Y124354D01*
X27677Y123196D01*
X28124Y122117D01*
X28835Y121190D01*
X29762Y120479D01*
X29805Y120461D01*
X29784Y120354D01*
X29953Y119506D01*
X30433Y118788D01*
X30707Y118604D01*
Y118104D01*
X30433Y117921D01*
X29953Y117202D01*
X29784Y116354D01*
X29953Y115506D01*
X30433Y114788D01*
X31152Y114307D01*
X32000Y114139D01*
X32848Y114307D01*
X33567Y114788D01*
X34047Y115506D01*
X34216Y116354D01*
X34047Y117202D01*
X33567Y117921D01*
X33293Y118104D01*
Y118604D01*
X33567Y118788D01*
X34047Y119506D01*
X34216Y120354D01*
X34195Y120461D01*
X34238Y120479D01*
X35164Y121190D01*
X35876Y122117D01*
X36323Y123196D01*
X36475Y124354D01*
X36323Y125513D01*
X35876Y126592D01*
X35164Y127519D01*
X34238Y128230D01*
X33158Y128677D01*
X32000Y128830D01*
D02*
G37*
G36*
X266500Y118216D02*
X265652Y118047D01*
X264933Y117567D01*
X264453Y116848D01*
X264284Y116000D01*
X264453Y115152D01*
X264933Y114433D01*
X265652Y113953D01*
X266500Y113784D01*
X267348Y113953D01*
X268067Y114433D01*
X268547Y115152D01*
X268716Y116000D01*
X268547Y116848D01*
X268067Y117567D01*
X267348Y118047D01*
X266500Y118216D01*
D02*
G37*
G36*
X259000D02*
X258152Y118047D01*
X257433Y117567D01*
X256953Y116848D01*
X256784Y116000D01*
X256953Y115152D01*
X257433Y114433D01*
X258152Y113953D01*
X259000Y113784D01*
X259848Y113953D01*
X260567Y114433D01*
X261047Y115152D01*
X261216Y116000D01*
X261047Y116848D01*
X260567Y117567D01*
X259848Y118047D01*
X259000Y118216D01*
D02*
G37*
G36*
X128500D02*
X127652Y118047D01*
X126933Y117567D01*
X126453Y116848D01*
X126284Y116000D01*
X126453Y115152D01*
X126933Y114433D01*
X127652Y113953D01*
X128500Y113784D01*
X129348Y113953D01*
X130067Y114433D01*
X130547Y115152D01*
X130716Y116000D01*
X130547Y116848D01*
X130067Y117567D01*
X129348Y118047D01*
X128500Y118216D01*
D02*
G37*
G36*
X358000Y116716D02*
X357152Y116547D01*
X356433Y116067D01*
X355953Y115348D01*
X355784Y114500D01*
X355953Y113652D01*
X356433Y112933D01*
X357152Y112453D01*
X358000Y112284D01*
X358848Y112453D01*
X359567Y112933D01*
X360047Y113652D01*
X360216Y114500D01*
X360047Y115348D01*
X359567Y116067D01*
X358848Y116547D01*
X358000Y116716D01*
D02*
G37*
G36*
X262500Y114216D02*
X261652Y114047D01*
X260933Y113567D01*
X260453Y112848D01*
X260284Y112000D01*
X260453Y111152D01*
X260933Y110433D01*
X261652Y109953D01*
X262500Y109784D01*
X263348Y109953D01*
X264067Y110433D01*
X264547Y111152D01*
X264716Y112000D01*
X264547Y112848D01*
X264067Y113567D01*
X263348Y114047D01*
X262500Y114216D01*
D02*
G37*
G36*
X32000Y112570D02*
X31152Y112401D01*
X30433Y111921D01*
X29953Y111202D01*
X29784Y110354D01*
X29953Y109506D01*
X30433Y108788D01*
X30707Y108604D01*
Y108104D01*
X30433Y107921D01*
X29953Y107202D01*
X29784Y106354D01*
X29953Y105506D01*
X30433Y104788D01*
X30707Y104604D01*
Y104104D01*
X30433Y103921D01*
X29953Y103202D01*
X29784Y102354D01*
X29953Y101506D01*
X30433Y100788D01*
X31152Y100307D01*
X32000Y100139D01*
X32848Y100307D01*
X33567Y100788D01*
X34047Y101506D01*
X34216Y102354D01*
X34047Y103202D01*
X33567Y103921D01*
X33293Y104104D01*
Y104604D01*
X33567Y104788D01*
X34047Y105506D01*
X34216Y106354D01*
X34047Y107202D01*
X33567Y107921D01*
X33293Y108104D01*
Y108604D01*
X33567Y108788D01*
X34047Y109506D01*
X34216Y110354D01*
X34047Y111202D01*
X33567Y111921D01*
X32848Y112401D01*
X32000Y112570D01*
D02*
G37*
G36*
X220500Y103216D02*
X219652Y103047D01*
X218933Y102567D01*
X218453Y101848D01*
X218284Y101000D01*
X218453Y100152D01*
X218933Y99433D01*
X219652Y98953D01*
X220500Y98784D01*
X221348Y98953D01*
X222067Y99433D01*
X222547Y100152D01*
X222716Y101000D01*
X222547Y101848D01*
X222067Y102567D01*
X221348Y103047D01*
X220500Y103216D01*
D02*
G37*
G36*
X51000Y92216D02*
X50152Y92047D01*
X49433Y91567D01*
X48953Y90848D01*
X48784Y90000D01*
X48953Y89152D01*
X49433Y88433D01*
X50152Y87953D01*
X51000Y87784D01*
X51848Y87953D01*
X52567Y88433D01*
X53047Y89152D01*
X53216Y90000D01*
X53047Y90848D01*
X52567Y91567D01*
X51848Y92047D01*
X51000Y92216D01*
D02*
G37*
G36*
X92000Y91716D02*
X91152Y91547D01*
X90433Y91067D01*
X89953Y90348D01*
X89784Y89500D01*
X89953Y88652D01*
X90433Y87933D01*
X91152Y87453D01*
X92000Y87284D01*
X92848Y87453D01*
X93567Y87933D01*
X94047Y88652D01*
X94216Y89500D01*
X94047Y90348D01*
X93567Y91067D01*
X92848Y91547D01*
X92000Y91716D01*
D02*
G37*
G36*
X32000Y98570D02*
X31152Y98401D01*
X30433Y97921D01*
X29953Y97202D01*
X29784Y96354D01*
X29953Y95506D01*
X30433Y94788D01*
X30707Y94604D01*
Y94104D01*
X30433Y93921D01*
X29953Y93202D01*
X29784Y92354D01*
X29953Y91506D01*
X30433Y90788D01*
X30707Y90604D01*
Y90104D01*
X30433Y89921D01*
X29953Y89202D01*
X29784Y88354D01*
X29953Y87506D01*
X30433Y86788D01*
X31152Y86307D01*
X32000Y86139D01*
X32848Y86307D01*
X33567Y86788D01*
X34047Y87506D01*
X34216Y88354D01*
X34047Y89202D01*
X33567Y89921D01*
X33293Y90104D01*
Y90604D01*
X33567Y90788D01*
X34047Y91506D01*
X34216Y92354D01*
X34047Y93202D01*
X33567Y93921D01*
X33293Y94104D01*
Y94604D01*
X33567Y94788D01*
X34047Y95506D01*
X34216Y96354D01*
X34047Y97202D01*
X33567Y97921D01*
X32848Y98401D01*
X32000Y98570D01*
D02*
G37*
G36*
X123500Y87216D02*
X122652Y87047D01*
X121933Y86567D01*
X121453Y85848D01*
X121284Y85000D01*
X121453Y84152D01*
X121933Y83433D01*
X122652Y82953D01*
X123500Y82784D01*
X124348Y82953D01*
X125067Y83433D01*
X125547Y84152D01*
X125716Y85000D01*
X125547Y85848D01*
X125067Y86567D01*
X124348Y87047D01*
X123500Y87216D01*
D02*
G37*
G36*
X118500D02*
X117652Y87047D01*
X116933Y86567D01*
X116453Y85848D01*
X116284Y85000D01*
X116453Y84152D01*
X116933Y83433D01*
X117652Y82953D01*
X118500Y82784D01*
X119348Y82953D01*
X120067Y83433D01*
X120547Y84152D01*
X120716Y85000D01*
X120547Y85848D01*
X120067Y86567D01*
X119348Y87047D01*
X118500Y87216D01*
D02*
G37*
G36*
X92000Y86216D02*
X91152Y86047D01*
X90433Y85567D01*
X89953Y84848D01*
X89784Y84000D01*
X89953Y83152D01*
X90433Y82433D01*
X91152Y81953D01*
X92000Y81784D01*
X92848Y81953D01*
X93567Y82433D01*
X94047Y83152D01*
X94216Y84000D01*
X94047Y84848D01*
X93567Y85567D01*
X92848Y86047D01*
X92000Y86216D01*
D02*
G37*
G36*
X109000Y78216D02*
X108152Y78047D01*
X107433Y77567D01*
X106953Y76848D01*
X106784Y76000D01*
X106953Y75152D01*
X107433Y74433D01*
X108152Y73953D01*
X109000Y73784D01*
X109848Y73953D01*
X110567Y74433D01*
X111047Y75152D01*
X111216Y76000D01*
X111047Y76848D01*
X110567Y77567D01*
X109848Y78047D01*
X109000Y78216D01*
D02*
G37*
G36*
X101008D02*
X100160Y78047D01*
X99441Y77567D01*
X98961Y76848D01*
X98792Y76000D01*
X98961Y75152D01*
X99441Y74433D01*
X100160Y73953D01*
X101008Y73784D01*
X101856Y73953D01*
X102575Y74433D01*
X103055Y75152D01*
X103224Y76000D01*
X103055Y76848D01*
X102575Y77567D01*
X101856Y78047D01*
X101008Y78216D01*
D02*
G37*
G36*
X93500D02*
X92652Y78047D01*
X91933Y77567D01*
X91453Y76848D01*
X91284Y76000D01*
X91453Y75152D01*
X91933Y74433D01*
X92652Y73953D01*
X93500Y73784D01*
X94348Y73953D01*
X95067Y74433D01*
X95547Y75152D01*
X95716Y76000D01*
X95547Y76848D01*
X95067Y77567D01*
X94348Y78047D01*
X93500Y78216D01*
D02*
G37*
G36*
X44000Y75570D02*
X43152Y75402D01*
X42433Y74921D01*
X41953Y74202D01*
X41784Y73354D01*
X41953Y72506D01*
X42433Y71788D01*
X43152Y71307D01*
X44000Y71139D01*
X44848Y71307D01*
X45567Y71788D01*
X46047Y72506D01*
X46216Y73354D01*
X46047Y74202D01*
X45567Y74921D01*
X44848Y75402D01*
X44000Y75570D01*
D02*
G37*
G36*
X229000Y69716D02*
X228152Y69547D01*
X227433Y69067D01*
X226953Y68348D01*
X226784Y67500D01*
X226953Y66652D01*
X227433Y65933D01*
X228152Y65453D01*
X229000Y65284D01*
X229848Y65453D01*
X230567Y65933D01*
X231047Y66652D01*
X231216Y67500D01*
X231047Y68348D01*
X230567Y69067D01*
X229848Y69547D01*
X229000Y69716D01*
D02*
G37*
G36*
X109000Y68216D02*
X108152Y68047D01*
X107433Y67567D01*
X106953Y66848D01*
X106784Y66000D01*
X106953Y65152D01*
X107433Y64433D01*
X108152Y63953D01*
X109000Y63784D01*
X109848Y63953D01*
X110567Y64433D01*
X111047Y65152D01*
X111216Y66000D01*
X111047Y66848D01*
X110567Y67567D01*
X109848Y68047D01*
X109000Y68216D01*
D02*
G37*
G36*
X93500D02*
X92652Y68047D01*
X91933Y67567D01*
X91453Y66848D01*
X91284Y66000D01*
X91453Y65152D01*
X91933Y64433D01*
X92652Y63953D01*
X93500Y63784D01*
X94348Y63953D01*
X95067Y64433D01*
X95547Y65152D01*
X95716Y66000D01*
X95547Y66848D01*
X95067Y67567D01*
X94348Y68047D01*
X93500Y68216D01*
D02*
G37*
G36*
X209000Y67216D02*
X208152Y67047D01*
X207433Y66567D01*
X206953Y65848D01*
X206784Y65000D01*
X206953Y64152D01*
X207433Y63433D01*
X208152Y62953D01*
X209000Y62784D01*
X209848Y62953D01*
X210567Y63433D01*
X211047Y64152D01*
X211216Y65000D01*
X211047Y65848D01*
X210567Y66567D01*
X209848Y67047D01*
X209000Y67216D01*
D02*
G37*
G36*
X197000D02*
X196152Y67047D01*
X195433Y66567D01*
X194953Y65848D01*
X194784Y65000D01*
X194953Y64152D01*
X195433Y63433D01*
X196152Y62953D01*
X197000Y62784D01*
X197848Y62953D01*
X198567Y63433D01*
X199047Y64152D01*
X199216Y65000D01*
X199047Y65848D01*
X198567Y66567D01*
X197848Y67047D01*
X197000Y67216D01*
D02*
G37*
G36*
X188000Y89454D02*
X150000D01*
X149679Y89321D01*
X149546Y89000D01*
Y79904D01*
X149047Y79848D01*
X148567Y80567D01*
X147848Y81047D01*
X147000Y81216D01*
X146152Y81047D01*
X145433Y80567D01*
X144953Y79848D01*
X144784Y79000D01*
X144953Y78152D01*
X145433Y77433D01*
X146152Y76953D01*
X147000Y76784D01*
X147848Y76953D01*
X148567Y77433D01*
X149047Y78152D01*
X149546Y78096D01*
Y65500D01*
X149679Y65179D01*
X150000Y65046D01*
X165498D01*
Y62590D01*
X165631Y62269D01*
X165953Y62136D01*
X166274Y62269D01*
X166407Y62590D01*
Y65453D01*
X166274Y65774D01*
X166227Y65821D01*
X165905Y65954D01*
X150454D01*
Y88546D01*
X187546D01*
Y65954D01*
X172000D01*
X171679Y65821D01*
X171537Y65680D01*
X171404Y65358D01*
Y62590D01*
X171537Y62269D01*
X171858Y62136D01*
X172179Y62269D01*
X172312Y62590D01*
Y65046D01*
X188000D01*
X188321Y65179D01*
X188454Y65500D01*
Y89000D01*
X188321Y89321D01*
X188000Y89454D01*
D02*
G37*
G36*
X56500Y65716D02*
X55652Y65547D01*
X54933Y65067D01*
X54453Y64348D01*
X54284Y63500D01*
X54453Y62652D01*
X54933Y61933D01*
X55652Y61453D01*
X56500Y61284D01*
X57348Y61453D01*
X58067Y61933D01*
X58547Y62652D01*
X58716Y63500D01*
X58547Y64348D01*
X58067Y65067D01*
X57348Y65547D01*
X56500Y65716D01*
D02*
G37*
G36*
X373000Y65216D02*
X372152Y65047D01*
X371433Y64567D01*
X370953Y63848D01*
X370784Y63000D01*
X370953Y62152D01*
X371433Y61433D01*
X372152Y60953D01*
X373000Y60784D01*
X373848Y60953D01*
X374567Y61433D01*
X375047Y62152D01*
X375216Y63000D01*
X375047Y63848D01*
X374567Y64567D01*
X373848Y65047D01*
X373000Y65216D01*
D02*
G37*
G36*
X360752Y65196D02*
X359904Y65027D01*
X359185Y64547D01*
X358705Y63828D01*
X358536Y62980D01*
X358705Y62132D01*
X359185Y61414D01*
X359904Y60933D01*
X360752Y60764D01*
X361600Y60933D01*
X362319Y61414D01*
X362799Y62132D01*
X362968Y62980D01*
X362799Y63828D01*
X362319Y64547D01*
X361600Y65027D01*
X360752Y65196D01*
D02*
G37*
G36*
X337500Y64716D02*
X336652Y64547D01*
X335933Y64067D01*
X335453Y63348D01*
X335284Y62500D01*
X335453Y61652D01*
X335933Y60933D01*
X336652Y60453D01*
X337500Y60284D01*
X338348Y60453D01*
X339067Y60933D01*
X339547Y61652D01*
X339716Y62500D01*
X339547Y63348D01*
X339067Y64067D01*
X338348Y64547D01*
X337500Y64716D01*
D02*
G37*
G36*
X304000D02*
X303152Y64547D01*
X302433Y64067D01*
X301953Y63348D01*
X301784Y62500D01*
X301953Y61652D01*
X302433Y60933D01*
X303152Y60453D01*
X304000Y60284D01*
X304848Y60453D01*
X305567Y60933D01*
X306047Y61652D01*
X306216Y62500D01*
X306047Y63348D01*
X305567Y64067D01*
X304848Y64547D01*
X304000Y64716D01*
D02*
G37*
G36*
X220500Y61216D02*
X219652Y61047D01*
X218933Y60567D01*
X218453Y59848D01*
X218284Y59000D01*
X218453Y58152D01*
X218933Y57433D01*
X219652Y56953D01*
X220500Y56784D01*
X221348Y56953D01*
X222067Y57433D01*
X222547Y58152D01*
X222716Y59000D01*
X222547Y59848D01*
X222067Y60567D01*
X221348Y61047D01*
X220500Y61216D01*
D02*
G37*
G36*
X214500D02*
X213652Y61047D01*
X212933Y60567D01*
X212453Y59848D01*
X212284Y59000D01*
X212453Y58152D01*
X212933Y57433D01*
X213652Y56953D01*
X214500Y56784D01*
X215348Y56953D01*
X216067Y57433D01*
X216547Y58152D01*
X216716Y59000D01*
X216547Y59848D01*
X216067Y60567D01*
X215348Y61047D01*
X214500Y61216D01*
D02*
G37*
G36*
X67500Y59216D02*
X66652Y59047D01*
X65933Y58567D01*
X65453Y57848D01*
X65284Y57000D01*
X65453Y56152D01*
X65933Y55433D01*
X66652Y54953D01*
X67500Y54784D01*
X68348Y54953D01*
X69067Y55433D01*
X69547Y56152D01*
X69716Y57000D01*
X69547Y57848D01*
X69067Y58567D01*
X68348Y59047D01*
X67500Y59216D01*
D02*
G37*
G36*
X62000D02*
X61152Y59047D01*
X60433Y58567D01*
X59953Y57848D01*
X59784Y57000D01*
X59953Y56152D01*
X60433Y55433D01*
X61152Y54953D01*
X62000Y54784D01*
X62848Y54953D01*
X63567Y55433D01*
X64047Y56152D01*
X64216Y57000D01*
X64047Y57848D01*
X63567Y58567D01*
X62848Y59047D01*
X62000Y59216D01*
D02*
G37*
G36*
X56500D02*
X55652Y59047D01*
X54933Y58567D01*
X54453Y57848D01*
X54284Y57000D01*
X54453Y56152D01*
X54933Y55433D01*
X55652Y54953D01*
X56500Y54784D01*
X57348Y54953D01*
X58067Y55433D01*
X58547Y56152D01*
X58716Y57000D01*
X58547Y57848D01*
X58067Y58567D01*
X57348Y59047D01*
X56500Y59216D01*
D02*
G37*
G36*
X160000Y58216D02*
X159152Y58047D01*
X158433Y57567D01*
X157953Y56848D01*
X157784Y56000D01*
X157953Y55152D01*
X158433Y54433D01*
X159152Y53953D01*
X160000Y53784D01*
X160848Y53953D01*
X161567Y54433D01*
X162047Y55152D01*
X162216Y56000D01*
X162047Y56848D01*
X161567Y57567D01*
X160848Y58047D01*
X160000Y58216D01*
D02*
G37*
G36*
X154500D02*
X153652Y58047D01*
X152933Y57567D01*
X152453Y56848D01*
X152284Y56000D01*
X152453Y55152D01*
X152933Y54433D01*
X153652Y53953D01*
X154500Y53784D01*
X155348Y53953D01*
X156067Y54433D01*
X156547Y55152D01*
X156716Y56000D01*
X156547Y56848D01*
X156067Y57567D01*
X155348Y58047D01*
X154500Y58216D01*
D02*
G37*
G36*
X109000D02*
X108152Y58047D01*
X107433Y57567D01*
X106953Y56848D01*
X106784Y56000D01*
X106953Y55152D01*
X107433Y54433D01*
X108152Y53953D01*
X109000Y53784D01*
X109848Y53953D01*
X110567Y54433D01*
X111047Y55152D01*
X111216Y56000D01*
X111047Y56848D01*
X110567Y57567D01*
X109848Y58047D01*
X109000Y58216D01*
D02*
G37*
G36*
X101008D02*
X100160Y58047D01*
X99441Y57567D01*
X98961Y56848D01*
X98792Y56000D01*
X98961Y55152D01*
X99441Y54433D01*
X100160Y53953D01*
X101008Y53784D01*
X101856Y53953D01*
X102575Y54433D01*
X103055Y55152D01*
X103224Y56000D01*
X103055Y56848D01*
X102575Y57567D01*
X101856Y58047D01*
X101008Y58216D01*
D02*
G37*
G36*
X93500D02*
X92652Y58047D01*
X91933Y57567D01*
X91453Y56848D01*
X91284Y56000D01*
X91453Y55152D01*
X91933Y54433D01*
X92652Y53953D01*
X93500Y53784D01*
X94348Y53953D01*
X95067Y54433D01*
X95547Y55152D01*
X95716Y56000D01*
X95547Y56848D01*
X95067Y57567D01*
X94348Y58047D01*
X93500Y58216D01*
D02*
G37*
G36*
X172500Y55716D02*
X171652Y55547D01*
X170933Y55067D01*
X170453Y54348D01*
X170284Y53500D01*
X170453Y52652D01*
X170933Y51933D01*
X171652Y51453D01*
X172500Y51284D01*
X173348Y51453D01*
X174067Y51933D01*
X174547Y52652D01*
X174716Y53500D01*
X174547Y54348D01*
X174067Y55067D01*
X173348Y55547D01*
X172500Y55716D01*
D02*
G37*
G36*
X167000D02*
X166152Y55547D01*
X165433Y55067D01*
X164953Y54348D01*
X164784Y53500D01*
X164953Y52652D01*
X165433Y51933D01*
X166152Y51453D01*
X167000Y51284D01*
X167848Y51453D01*
X168567Y51933D01*
X169047Y52652D01*
X169216Y53500D01*
X169047Y54348D01*
X168567Y55067D01*
X167848Y55547D01*
X167000Y55716D01*
D02*
G37*
G36*
X343500Y54716D02*
X342652Y54547D01*
X341933Y54067D01*
X341453Y53348D01*
X341284Y52500D01*
X341453Y51652D01*
X341933Y50933D01*
X342652Y50453D01*
X343500Y50284D01*
X344348Y50453D01*
X345067Y50933D01*
X345547Y51652D01*
X345716Y52500D01*
X345547Y53348D01*
X345067Y54067D01*
X344348Y54547D01*
X343500Y54716D01*
D02*
G37*
G36*
X134500D02*
X133652Y54547D01*
X132933Y54067D01*
X132453Y53348D01*
X132284Y52500D01*
X132453Y51652D01*
X132933Y50933D01*
X133652Y50453D01*
X134500Y50284D01*
X135348Y50453D01*
X136067Y50933D01*
X136547Y51652D01*
X136716Y52500D01*
X136547Y53348D01*
X136067Y54067D01*
X135348Y54547D01*
X134500Y54716D01*
D02*
G37*
G36*
X297000Y53216D02*
X296152Y53047D01*
X295433Y52567D01*
X294953Y51848D01*
X294784Y51000D01*
X294953Y50152D01*
X295433Y49433D01*
X296152Y48953D01*
X297000Y48784D01*
X297848Y48953D01*
X298567Y49433D01*
X299047Y50152D01*
X299216Y51000D01*
X299047Y51848D01*
X298567Y52567D01*
X297848Y53047D01*
X297000Y53216D01*
D02*
G37*
G36*
X178000Y50716D02*
X177152Y50547D01*
X176433Y50067D01*
X175953Y49348D01*
X175784Y48500D01*
X175953Y47652D01*
X176433Y46933D01*
X177152Y46453D01*
X178000Y46284D01*
X178848Y46453D01*
X179567Y46933D01*
X180047Y47652D01*
X180216Y48500D01*
X180047Y49348D01*
X179567Y50067D01*
X178848Y50547D01*
X178000Y50716D01*
D02*
G37*
G36*
X172500D02*
X171652Y50547D01*
X170933Y50067D01*
X170453Y49348D01*
X170284Y48500D01*
X170453Y47652D01*
X170933Y46933D01*
X171652Y46453D01*
X172500Y46284D01*
X173348Y46453D01*
X174067Y46933D01*
X174547Y47652D01*
X174716Y48500D01*
X174547Y49348D01*
X174067Y50067D01*
X173348Y50547D01*
X172500Y50716D01*
D02*
G37*
G36*
X167000D02*
X166152Y50547D01*
X165433Y50067D01*
X164953Y49348D01*
X164784Y48500D01*
X164953Y47652D01*
X165433Y46933D01*
X166152Y46453D01*
X167000Y46284D01*
X167848Y46453D01*
X168567Y46933D01*
X169047Y47652D01*
X169216Y48500D01*
X169047Y49348D01*
X168567Y50067D01*
X167848Y50547D01*
X167000Y50716D01*
D02*
G37*
G36*
X202000Y49216D02*
X201152Y49047D01*
X200433Y48567D01*
X199953Y47848D01*
X199784Y47000D01*
X199932Y46258D01*
X199665Y46001D01*
X199527Y45928D01*
X199348Y46047D01*
X198500Y46216D01*
X197652Y46047D01*
X196933Y45567D01*
X196528Y44960D01*
X196370Y44923D01*
X196130D01*
X195972Y44960D01*
X195567Y45567D01*
X194848Y46047D01*
X194000Y46216D01*
X193152Y46047D01*
X192433Y45567D01*
X191953Y44848D01*
X191784Y44000D01*
X191953Y43152D01*
X192433Y42433D01*
X193152Y41953D01*
X194000Y41784D01*
X194848Y41953D01*
X195567Y42433D01*
X195972Y43040D01*
X196130Y43077D01*
X196370D01*
X196528Y43040D01*
X196933Y42433D01*
X197652Y41953D01*
X198500Y41784D01*
X199348Y41953D01*
X200067Y42433D01*
X200547Y43152D01*
X200716Y44000D01*
X200568Y44742D01*
X200835Y44999D01*
X200974Y45072D01*
X201152Y44953D01*
X202000Y44784D01*
X202848Y44953D01*
X203567Y45433D01*
X204047Y46152D01*
X204216Y47000D01*
X204047Y47848D01*
X203567Y48567D01*
X202848Y49047D01*
X202000Y49216D01*
D02*
G37*
G36*
X242000Y50216D02*
X241152Y50047D01*
X240433Y49567D01*
X239953Y48848D01*
X239784Y48000D01*
X239953Y47152D01*
X240433Y46433D01*
X241152Y45953D01*
X242000Y45784D01*
X242848Y45953D01*
X243567Y46433D01*
X244047Y47152D01*
X244216Y48000D01*
X244047Y48848D01*
X243567Y49567D01*
X242848Y50047D01*
X242000Y50216D01*
D02*
G37*
G36*
X131000D02*
X130152Y50047D01*
X129433Y49567D01*
X128953Y48848D01*
X128784Y48000D01*
X128953Y47152D01*
X129433Y46433D01*
X130152Y45953D01*
X131000Y45784D01*
X131848Y45953D01*
X132567Y46433D01*
X133047Y47152D01*
X133216Y48000D01*
X133047Y48848D01*
X132567Y49567D01*
X131848Y50047D01*
X131000Y50216D01*
D02*
G37*
G36*
X343500Y49716D02*
X342652Y49547D01*
X341933Y49067D01*
X341453Y48348D01*
X341284Y47500D01*
X341453Y46652D01*
X341933Y45933D01*
X342652Y45453D01*
X343500Y45284D01*
X344348Y45453D01*
X345067Y45933D01*
X345547Y46652D01*
X345716Y47500D01*
X345547Y48348D01*
X345067Y49067D01*
X344348Y49547D01*
X343500Y49716D01*
D02*
G37*
G36*
X297000Y47716D02*
X296152Y47547D01*
X295433Y47067D01*
X294953Y46348D01*
X294784Y45500D01*
X294953Y44652D01*
X295433Y43933D01*
X296152Y43453D01*
X297000Y43284D01*
X297848Y43453D01*
X298567Y43933D01*
X299047Y44652D01*
X299216Y45500D01*
X299047Y46348D01*
X298567Y47067D01*
X297848Y47547D01*
X297000Y47716D01*
D02*
G37*
G36*
X246000Y47216D02*
X245152Y47047D01*
X244433Y46567D01*
X243953Y45848D01*
X243784Y45000D01*
X243953Y44152D01*
X244433Y43433D01*
X245152Y42953D01*
X246000Y42784D01*
X246848Y42953D01*
X247567Y43433D01*
X248047Y44152D01*
X248216Y45000D01*
X248047Y45848D01*
X247567Y46567D01*
X246848Y47047D01*
X246000Y47216D01*
D02*
G37*
G36*
X178000Y45716D02*
X177152Y45547D01*
X176433Y45067D01*
X175953Y44348D01*
X175784Y43500D01*
X175953Y42652D01*
X176433Y41933D01*
X177152Y41453D01*
X178000Y41284D01*
X178848Y41453D01*
X179567Y41933D01*
X180047Y42652D01*
X180216Y43500D01*
X180047Y44348D01*
X179567Y45067D01*
X178848Y45547D01*
X178000Y45716D01*
D02*
G37*
G36*
X167000D02*
X166152Y45547D01*
X165433Y45067D01*
X164953Y44348D01*
X164784Y43500D01*
X164953Y42652D01*
X165433Y41933D01*
X166152Y41453D01*
X167000Y41284D01*
X167848Y41453D01*
X168567Y41933D01*
X169047Y42652D01*
X169216Y43500D01*
X169047Y44348D01*
X168567Y45067D01*
X167848Y45547D01*
X167000Y45716D01*
D02*
G37*
G36*
X157500D02*
X156652Y45547D01*
X155933Y45067D01*
X155453Y44348D01*
X155284Y43500D01*
X155453Y42652D01*
X155933Y41933D01*
X156652Y41453D01*
X157500Y41284D01*
X158348Y41453D01*
X159067Y41933D01*
X159547Y42652D01*
X159716Y43500D01*
X159547Y44348D01*
X159067Y45067D01*
X158348Y45547D01*
X157500Y45716D01*
D02*
G37*
G36*
X152500D02*
X151652Y45547D01*
X150933Y45067D01*
X150453Y44348D01*
X150284Y43500D01*
X150453Y42652D01*
X150933Y41933D01*
X151652Y41453D01*
X152500Y41284D01*
X153348Y41453D01*
X154067Y41933D01*
X154547Y42652D01*
X154716Y43500D01*
X154547Y44348D01*
X154067Y45067D01*
X153348Y45547D01*
X152500Y45716D01*
D02*
G37*
G36*
X147500D02*
X146652Y45547D01*
X145933Y45067D01*
X145453Y44348D01*
X145284Y43500D01*
X145453Y42652D01*
X145933Y41933D01*
X146652Y41453D01*
X147500Y41284D01*
X148348Y41453D01*
X149067Y41933D01*
X149547Y42652D01*
X149716Y43500D01*
X149547Y44348D01*
X149067Y45067D01*
X148348Y45547D01*
X147500Y45716D01*
D02*
G37*
G36*
X157500Y40716D02*
X156652Y40547D01*
X155933Y40067D01*
X155453Y39348D01*
X155284Y38500D01*
X155453Y37652D01*
X155933Y36933D01*
X156652Y36453D01*
X157500Y36284D01*
X158348Y36453D01*
X159067Y36933D01*
X159547Y37652D01*
X159716Y38500D01*
X159547Y39348D01*
X159067Y40067D01*
X158348Y40547D01*
X157500Y40716D01*
D02*
G37*
G36*
X225000Y40216D02*
X224152Y40047D01*
X223433Y39567D01*
X222953Y38848D01*
X222784Y38000D01*
X222953Y37152D01*
X223433Y36433D01*
X224152Y35953D01*
X225000Y35784D01*
X225848Y35953D01*
X226567Y36433D01*
X227047Y37152D01*
X227216Y38000D01*
X227047Y38848D01*
X226567Y39567D01*
X225848Y40047D01*
X225000Y40216D01*
D02*
G37*
G36*
X35000Y37570D02*
X34152Y37402D01*
X33433Y36921D01*
X32953Y36202D01*
X32784Y35354D01*
X32953Y34506D01*
X33433Y33788D01*
X34152Y33307D01*
X35000Y33139D01*
X35848Y33307D01*
X36567Y33788D01*
X37047Y34506D01*
X37216Y35354D01*
X37047Y36202D01*
X36567Y36921D01*
X35848Y37402D01*
X35000Y37570D01*
D02*
G37*
G36*
X157500Y35716D02*
X156652Y35547D01*
X155933Y35067D01*
X155453Y34348D01*
X155284Y33500D01*
X155453Y32652D01*
X155933Y31933D01*
X156652Y31453D01*
X157500Y31284D01*
X158348Y31453D01*
X159067Y31933D01*
X159547Y32652D01*
X159716Y33500D01*
X159547Y34348D01*
X159067Y35067D01*
X158348Y35547D01*
X157500Y35716D01*
D02*
G37*
G36*
X50500D02*
X49652Y35547D01*
X48933Y35067D01*
X48453Y34348D01*
X48284Y33500D01*
X48453Y32652D01*
X48933Y31933D01*
X49652Y31453D01*
X50500Y31284D01*
X51348Y31453D01*
X52067Y31933D01*
X52547Y32652D01*
X52716Y33500D01*
X52547Y34348D01*
X52067Y35067D01*
X51348Y35547D01*
X50500Y35716D01*
D02*
G37*
G36*
X239000Y35216D02*
X238152Y35047D01*
X237433Y34567D01*
X236953Y33848D01*
X236784Y33000D01*
X236953Y32152D01*
X237433Y31433D01*
X238152Y30953D01*
X239000Y30784D01*
X239848Y30953D01*
X240567Y31433D01*
X241047Y32152D01*
X241216Y33000D01*
X241047Y33848D01*
X240567Y34567D01*
X239848Y35047D01*
X239000Y35216D01*
D02*
G37*
G36*
X147000D02*
X146152Y35047D01*
X145433Y34567D01*
X144953Y33848D01*
X144784Y33000D01*
X144953Y32152D01*
X145433Y31433D01*
X146152Y30953D01*
X147000Y30784D01*
X147848Y30953D01*
X148567Y31433D01*
X149047Y32152D01*
X149216Y33000D01*
X149047Y33848D01*
X148567Y34567D01*
X147848Y35047D01*
X147000Y35216D01*
D02*
G37*
G36*
X259000Y33716D02*
X258152Y33547D01*
X257433Y33067D01*
X256953Y32348D01*
X256784Y31500D01*
X256953Y30652D01*
X257433Y29933D01*
X258152Y29453D01*
X259000Y29284D01*
X259848Y29453D01*
X260567Y29933D01*
X261047Y30652D01*
X261216Y31500D01*
X261047Y32348D01*
X260567Y33067D01*
X259848Y33547D01*
X259000Y33716D01*
D02*
G37*
G36*
X208500Y25716D02*
X207652Y25547D01*
X206933Y25067D01*
X206453Y24348D01*
X206284Y23500D01*
X206453Y22652D01*
X206933Y21933D01*
X207652Y21453D01*
X208500Y21284D01*
X209348Y21453D01*
X210067Y21933D01*
X210547Y22652D01*
X210716Y23500D01*
X210547Y24348D01*
X210067Y25067D01*
X209348Y25547D01*
X208500Y25716D01*
D02*
G37*
G36*
X128500D02*
X127652Y25547D01*
X126933Y25067D01*
X126453Y24348D01*
X126284Y23500D01*
X126453Y22652D01*
X126933Y21933D01*
X127652Y21453D01*
X128500Y21284D01*
X129348Y21453D01*
X130067Y21933D01*
X130547Y22652D01*
X130716Y23500D01*
X130547Y24348D01*
X130067Y25067D01*
X129348Y25547D01*
X128500Y25716D01*
D02*
G37*
G36*
X226500Y23716D02*
X225652Y23547D01*
X224933Y23067D01*
X224453Y22348D01*
X224284Y21500D01*
X224453Y20652D01*
X224933Y19933D01*
X225652Y19453D01*
X226500Y19284D01*
X227348Y19453D01*
X228067Y19933D01*
X228547Y20652D01*
X228716Y21500D01*
X228547Y22348D01*
X228067Y23067D01*
X227348Y23547D01*
X226500Y23716D01*
D02*
G37*
G36*
X202000Y21716D02*
X201152Y21547D01*
X200433Y21067D01*
X199953Y20348D01*
X199784Y19500D01*
X199953Y18652D01*
X200433Y17933D01*
X201152Y17453D01*
X202000Y17284D01*
X202848Y17453D01*
X203567Y17933D01*
X204047Y18652D01*
X204216Y19500D01*
X204047Y20348D01*
X203567Y21067D01*
X202848Y21547D01*
X202000Y21716D01*
D02*
G37*
G36*
X355000Y18375D02*
X354330Y18287D01*
X353706Y18028D01*
X353170Y17617D01*
X352774Y17100D01*
X352648Y17081D01*
X352352D01*
X352226Y17100D01*
X351830Y17617D01*
X351294Y18028D01*
X350670Y18287D01*
X350000Y18375D01*
X349330Y18287D01*
X348706Y18028D01*
X348170Y17617D01*
X347774Y17100D01*
X347648Y17081D01*
X347352D01*
X347226Y17100D01*
X346830Y17617D01*
X346294Y18028D01*
X345670Y18287D01*
X345000Y18375D01*
X344330Y18287D01*
X343706Y18028D01*
X343170Y17617D01*
X342774Y17100D01*
X342648Y17081D01*
X342352D01*
X342226Y17100D01*
X341830Y17617D01*
X341294Y18028D01*
X340670Y18287D01*
X340000Y18375D01*
X339330Y18287D01*
X338706Y18028D01*
X338170Y17617D01*
X337774Y17100D01*
X337648Y17081D01*
X337352D01*
X337226Y17100D01*
X336830Y17617D01*
X336294Y18028D01*
X335670Y18287D01*
X335000Y18375D01*
X334330Y18287D01*
X333706Y18028D01*
X333170Y17617D01*
X332774Y17100D01*
X332648Y17081D01*
X332352D01*
X332226Y17100D01*
X331830Y17617D01*
X331294Y18028D01*
X330670Y18287D01*
X330000Y18375D01*
X329330Y18287D01*
X328706Y18028D01*
X328170Y17617D01*
X327774Y17100D01*
X327648Y17081D01*
X327352D01*
X327226Y17100D01*
X326830Y17617D01*
X326294Y18028D01*
X325670Y18287D01*
X325000Y18375D01*
X324330Y18287D01*
X323706Y18028D01*
X323170Y17617D01*
X322774Y17100D01*
X322648Y17081D01*
X322352D01*
X322226Y17100D01*
X321830Y17617D01*
X321294Y18028D01*
X320670Y18287D01*
X320000Y18375D01*
X319330Y18287D01*
X318706Y18028D01*
X318170Y17617D01*
X317774Y17100D01*
X317648Y17081D01*
X317352D01*
X317226Y17100D01*
X316830Y17617D01*
X316294Y18028D01*
X315670Y18287D01*
X315000Y18375D01*
X314330Y18287D01*
X313706Y18028D01*
X313170Y17617D01*
X313065Y17480D01*
X312565Y17650D01*
Y18353D01*
X307435D01*
Y15120D01*
X307419Y15000D01*
X307435Y14880D01*
Y11647D01*
X312565D01*
Y12350D01*
X313065Y12520D01*
X313170Y12383D01*
X313706Y11972D01*
X314330Y11713D01*
X315000Y11625D01*
X315670Y11713D01*
X316294Y11972D01*
X316830Y12383D01*
X317226Y12900D01*
X317352Y12919D01*
X317648D01*
X317774Y12900D01*
X318170Y12383D01*
X318706Y11972D01*
X319330Y11713D01*
X320000Y11625D01*
X320670Y11713D01*
X321294Y11972D01*
X321830Y12383D01*
X322226Y12900D01*
X322352Y12919D01*
X322648D01*
X322774Y12900D01*
X323170Y12383D01*
X323706Y11972D01*
X324330Y11713D01*
X325000Y11625D01*
X325670Y11713D01*
X326294Y11972D01*
X326830Y12383D01*
X327226Y12900D01*
X327352Y12919D01*
X327648D01*
X327774Y12900D01*
X328170Y12383D01*
X328706Y11972D01*
X329330Y11713D01*
X330000Y11625D01*
X330670Y11713D01*
X331294Y11972D01*
X331830Y12383D01*
X332226Y12900D01*
X332352Y12919D01*
X332648D01*
X332774Y12900D01*
X333170Y12383D01*
X333706Y11972D01*
X334330Y11713D01*
X335000Y11625D01*
X335670Y11713D01*
X336294Y11972D01*
X336830Y12383D01*
X337226Y12900D01*
X337352Y12919D01*
X337648D01*
X337774Y12900D01*
X338170Y12383D01*
X338706Y11972D01*
X339330Y11713D01*
X340000Y11625D01*
X340670Y11713D01*
X341294Y11972D01*
X341830Y12383D01*
X342226Y12900D01*
X342352Y12919D01*
X342648D01*
X342774Y12900D01*
X343170Y12383D01*
X343706Y11972D01*
X344330Y11713D01*
X345000Y11625D01*
X345670Y11713D01*
X346294Y11972D01*
X346830Y12383D01*
X347226Y12900D01*
X347352Y12919D01*
X347648D01*
X347774Y12900D01*
X348170Y12383D01*
X348706Y11972D01*
X349330Y11713D01*
X350000Y11625D01*
X350670Y11713D01*
X351294Y11972D01*
X351830Y12383D01*
X352226Y12900D01*
X352352Y12919D01*
X352648D01*
X352774Y12900D01*
X353170Y12383D01*
X353706Y11972D01*
X354330Y11713D01*
X355000Y11625D01*
X355670Y11713D01*
X356294Y11972D01*
X356830Y12383D01*
X357241Y12919D01*
X357499Y13543D01*
X357588Y14213D01*
Y15787D01*
X357499Y16457D01*
X357241Y17081D01*
X356830Y17617D01*
X356294Y18028D01*
X355670Y18287D01*
X355000Y18375D01*
D02*
G37*
G36*
X75000D02*
X74330Y18287D01*
X73706Y18028D01*
X73170Y17617D01*
X72774Y17100D01*
X72648Y17081D01*
X72352D01*
X72226Y17100D01*
X71830Y17617D01*
X71294Y18028D01*
X70670Y18287D01*
X70000Y18375D01*
X69330Y18287D01*
X68706Y18028D01*
X68170Y17617D01*
X67774Y17100D01*
X67648Y17081D01*
X67352D01*
X67226Y17100D01*
X66830Y17617D01*
X66294Y18028D01*
X65670Y18287D01*
X65000Y18375D01*
X64330Y18287D01*
X63706Y18028D01*
X63170Y17617D01*
X62774Y17100D01*
X62648Y17081D01*
X62352D01*
X62226Y17100D01*
X61830Y17617D01*
X61294Y18028D01*
X60670Y18287D01*
X60000Y18375D01*
X59330Y18287D01*
X58706Y18028D01*
X58170Y17617D01*
X57774Y17100D01*
X57648Y17081D01*
X57352D01*
X57226Y17100D01*
X56830Y17617D01*
X56294Y18028D01*
X55670Y18287D01*
X55000Y18375D01*
X54330Y18287D01*
X53706Y18028D01*
X53170Y17617D01*
X52774Y17100D01*
X52648Y17081D01*
X52352D01*
X52226Y17100D01*
X51830Y17617D01*
X51294Y18028D01*
X50670Y18287D01*
X50000Y18375D01*
X49330Y18287D01*
X48706Y18028D01*
X48170Y17617D01*
X47774Y17100D01*
X47648Y17081D01*
X47352D01*
X47226Y17100D01*
X46830Y17617D01*
X46294Y18028D01*
X45670Y18287D01*
X45000Y18375D01*
X44330Y18287D01*
X43706Y18028D01*
X43170Y17617D01*
X42759Y17081D01*
X42501Y16457D01*
X42412Y15787D01*
Y14213D01*
X42501Y13543D01*
X42759Y12919D01*
X43170Y12383D01*
X43706Y11972D01*
X44330Y11713D01*
X45000Y11625D01*
X45670Y11713D01*
X46294Y11972D01*
X46830Y12383D01*
X47226Y12900D01*
X47352Y12919D01*
X47648D01*
X47774Y12900D01*
X48170Y12383D01*
X48706Y11972D01*
X49330Y11713D01*
X50000Y11625D01*
X50670Y11713D01*
X51294Y11972D01*
X51830Y12383D01*
X52226Y12900D01*
X52352Y12919D01*
X52648D01*
X52774Y12900D01*
X53170Y12383D01*
X53706Y11972D01*
X54330Y11713D01*
X55000Y11625D01*
X55670Y11713D01*
X56294Y11972D01*
X56830Y12383D01*
X57226Y12900D01*
X57352Y12919D01*
X57648D01*
X57774Y12900D01*
X58170Y12383D01*
X58706Y11972D01*
X59330Y11713D01*
X60000Y11625D01*
X60670Y11713D01*
X61294Y11972D01*
X61830Y12383D01*
X62226Y12900D01*
X62352Y12919D01*
X62648D01*
X62774Y12900D01*
X63170Y12383D01*
X63706Y11972D01*
X64330Y11713D01*
X65000Y11625D01*
X65670Y11713D01*
X66294Y11972D01*
X66830Y12383D01*
X67226Y12900D01*
X67352Y12919D01*
X67648D01*
X67774Y12900D01*
X68170Y12383D01*
X68706Y11972D01*
X69330Y11713D01*
X70000Y11625D01*
X70670Y11713D01*
X71294Y11972D01*
X71830Y12383D01*
X72226Y12900D01*
X72352Y12919D01*
X72648D01*
X72774Y12900D01*
X73170Y12383D01*
X73706Y11972D01*
X74330Y11713D01*
X75000Y11625D01*
X75670Y11713D01*
X76294Y11972D01*
X76830Y12383D01*
X76935Y12520D01*
X77435Y12350D01*
Y11647D01*
X82565D01*
Y14880D01*
X82581Y15000D01*
X82565Y15120D01*
Y18353D01*
X77435D01*
Y17650D01*
X76935Y17480D01*
X76830Y17617D01*
X76294Y18028D01*
X75670Y18287D01*
X75000Y18375D01*
D02*
G37*
G36*
X151000Y12716D02*
X150152Y12547D01*
X149433Y12067D01*
X148953Y11348D01*
X148784Y10500D01*
X148953Y9652D01*
X149433Y8933D01*
X150152Y8453D01*
X151000Y8284D01*
X151848Y8453D01*
X152567Y8933D01*
X153047Y9652D01*
X153216Y10500D01*
X153047Y11348D01*
X152567Y12067D01*
X151848Y12547D01*
X151000Y12716D01*
D02*
G37*
G36*
X188500Y11716D02*
X187652Y11547D01*
X186933Y11067D01*
X186453Y10348D01*
X186284Y9500D01*
X186453Y8652D01*
X186933Y7933D01*
X187652Y7453D01*
X188500Y7284D01*
X189348Y7453D01*
X190067Y7933D01*
X190547Y8652D01*
X190716Y9500D01*
X190547Y10348D01*
X190067Y11067D01*
X189348Y11547D01*
X188500Y11716D01*
D02*
G37*
G36*
X160000Y8216D02*
X159152Y8047D01*
X158433Y7567D01*
X157953Y6848D01*
X157784Y6000D01*
X157953Y5152D01*
X158433Y4433D01*
X159152Y3953D01*
X160000Y3784D01*
X160848Y3953D01*
X161567Y4433D01*
X162047Y5152D01*
X162216Y6000D01*
X162047Y6848D01*
X161567Y7567D01*
X160848Y8047D01*
X160000Y8216D01*
D02*
G37*
G36*
X375000Y27249D02*
X373084Y27098D01*
X371215Y26649D01*
X369439Y25914D01*
X367800Y24909D01*
X366339Y23661D01*
X365090Y22200D01*
X364086Y20561D01*
X363351Y18785D01*
X362902Y16916D01*
X362751Y15000D01*
X362902Y13084D01*
X363351Y11215D01*
X364086Y9439D01*
X365090Y7800D01*
X366339Y6339D01*
X367800Y5091D01*
X369439Y4086D01*
X371215Y3351D01*
X373084Y2902D01*
X375000Y2751D01*
X376916Y2902D01*
X378785Y3351D01*
X380561Y4086D01*
X382200Y5091D01*
X383661Y6339D01*
X384910Y7800D01*
X385914Y9439D01*
X386649Y11215D01*
X387098Y13084D01*
X387249Y15000D01*
X387098Y16916D01*
X386649Y18785D01*
X385914Y20561D01*
X384910Y22200D01*
X383661Y23661D01*
X382200Y24909D01*
X380561Y25914D01*
X378785Y26649D01*
X376916Y27098D01*
X375000Y27249D01*
D02*
G37*
G36*
X15000D02*
X13084Y27098D01*
X11215Y26649D01*
X9439Y25914D01*
X7800Y24909D01*
X6339Y23661D01*
X5091Y22200D01*
X4086Y20561D01*
X3351Y18785D01*
X2902Y16916D01*
X2751Y15000D01*
X2902Y13084D01*
X3351Y11215D01*
X4086Y9439D01*
X5091Y7800D01*
X6339Y6339D01*
X7800Y5091D01*
X9439Y4086D01*
X11215Y3351D01*
X13084Y2902D01*
X15000Y2751D01*
X16916Y2902D01*
X18785Y3351D01*
X20561Y4086D01*
X22200Y5091D01*
X23661Y6339D01*
X24909Y7800D01*
X25914Y9439D01*
X26649Y11215D01*
X27098Y13084D01*
X27249Y15000D01*
X27098Y16916D01*
X26649Y18785D01*
X25914Y20561D01*
X24909Y22200D01*
X23661Y23661D01*
X22200Y24909D01*
X20561Y25914D01*
X18785Y26649D01*
X16916Y27098D01*
X15000Y27249D01*
D02*
G37*
G36*
X270000Y6716D02*
X269152Y6547D01*
X268433Y6067D01*
X267953Y5348D01*
X267784Y4500D01*
X267953Y3652D01*
X268433Y2933D01*
X269152Y2453D01*
X270000Y2284D01*
X270848Y2453D01*
X271567Y2933D01*
X272047Y3652D01*
X272216Y4500D01*
X272047Y5348D01*
X271567Y6067D01*
X270848Y6547D01*
X270000Y6716D01*
D02*
G37*
%LPD*%
D139*
X325000Y205000D02*
D03*
X320000D02*
D03*
X315000D02*
D03*
X40000Y15000D02*
D03*
X35000D02*
D03*
X75000Y205000D02*
D03*
X70000D02*
D03*
X65000D02*
D03*
D140*
X310000D02*
D03*
X80000D02*
D03*
D141*
X366000Y153000D02*
D03*
X374000D02*
D03*
X382000D02*
D03*
X358000D02*
D03*
Y145000D02*
D03*
X366000D02*
D03*
X374000D02*
D03*
X382000D02*
D03*
Y137000D02*
D03*
X374000D02*
D03*
X366000D02*
D03*
X358000D02*
D03*
X7500D02*
D03*
X15500D02*
D03*
X23500D02*
D03*
X31500D02*
D03*
Y145000D02*
D03*
X23500D02*
D03*
X15500D02*
D03*
X7500D02*
D03*
Y153000D02*
D03*
X31500D02*
D03*
X23500D02*
D03*
X15500D02*
D03*
X250000Y68500D02*
D03*
X229000Y81500D02*
D03*
X273000Y70000D02*
D03*
X376969Y118280D02*
D03*
X56000Y116500D02*
D03*
X376969Y123201D02*
D03*
Y85799D02*
D03*
X103000Y172000D02*
D03*
Y166000D02*
D03*
Y160000D02*
D03*
X117000D02*
D03*
Y166000D02*
D03*
Y172000D02*
D03*
X326000Y118000D02*
D03*
Y126000D02*
D03*
Y133500D02*
D03*
Y141500D02*
D03*
X63500Y118000D02*
D03*
Y126000D02*
D03*
Y133500D02*
D03*
Y141500D02*
D03*
X126221Y131291D02*
D03*
X264000Y131000D02*
D03*
X341500Y104000D02*
D03*
X337000Y146500D02*
D03*
X53000D02*
D03*
X14488Y77866D02*
D03*
X38000Y60000D02*
D03*
X27000D02*
D03*
X32500Y59854D02*
D03*
X324000Y156500D02*
D03*
X318500D02*
D03*
X311500D02*
D03*
X306000D02*
D03*
X84000Y159000D02*
D03*
X78000D02*
D03*
X71500D02*
D03*
X65500D02*
D03*
X304500Y47500D02*
D03*
X337500Y57500D02*
D03*
X137500Y69000D02*
D03*
X188000Y19500D02*
D03*
X209500Y88000D02*
D03*
X197000D02*
D03*
X196500Y52500D02*
D03*
X118500Y72500D02*
D03*
Y63500D02*
D03*
X71000Y86500D02*
D03*
X67500Y81500D02*
D03*
X62500D02*
D03*
X379650Y71740D02*
D03*
Y39260D02*
D03*
X358000Y94500D02*
D03*
X373000Y58000D02*
D03*
Y48000D02*
D03*
X287000Y172000D02*
D03*
X273000D02*
D03*
X287000Y160000D02*
D03*
X273000D02*
D03*
X287000Y166000D02*
D03*
X273000D02*
D03*
X244000Y115000D02*
D03*
X254000D02*
D03*
X249000Y108500D02*
D03*
Y121500D02*
D03*
X244000Y108500D02*
D03*
Y121500D02*
D03*
X254000D02*
D03*
Y108500D02*
D03*
X164000D02*
D03*
Y121500D02*
D03*
X154000D02*
D03*
Y108500D02*
D03*
X159000Y121500D02*
D03*
Y108500D02*
D03*
X164000Y115000D02*
D03*
X154000D02*
D03*
X290000Y4500D02*
D03*
X280000D02*
D03*
X274991D02*
D03*
X185500Y77500D02*
D03*
X152500Y77500D02*
D03*
X185500Y68500D02*
D03*
X152500D02*
D03*
X185500Y86500D02*
D03*
X152500Y86500D02*
D03*
X169000Y86500D02*
D03*
X157000Y82500D02*
D03*
X181000Y68500D02*
D03*
X243000Y21500D02*
D03*
X208500Y9500D02*
D03*
X85000Y6500D02*
D03*
X128500Y29000D02*
D03*
X10000Y110000D02*
D03*
Y102000D02*
D03*
Y88000D02*
D03*
Y92000D02*
D03*
Y96000D02*
D03*
Y106000D02*
D03*
Y117000D02*
D03*
Y121000D02*
D03*
Y125000D02*
D03*
M02*
