G04*
G04 #@! TF.GenerationSoftware,Altium Limited,Altium Designer,21.0.8 (223)*
G04*
G04 Layer_Color=16711935*
%FSLAX25Y25*%
%MOIN*%
G70*
G04*
G04 #@! TF.SameCoordinates,7C19FEE0-9405-418D-A0C6-2703AC14626A*
G04*
G04*
G04 #@! TF.FilePolarity,Negative*
G04*
G01*
G75*
%ADD69C,0.03543*%
G04:AMPARAMS|DCode=81|XSize=318.9mil|YSize=240.16mil|CornerRadius=13.78mil|HoleSize=0mil|Usage=FLASHONLY|Rotation=0.000|XOffset=0mil|YOffset=0mil|HoleType=Round|Shape=RoundedRectangle|*
%AMROUNDEDRECTD81*
21,1,0.31890,0.21260,0,0,0.0*
21,1,0.29134,0.24016,0,0,0.0*
1,1,0.02756,0.14567,-0.10630*
1,1,0.02756,-0.14567,-0.10630*
1,1,0.02756,-0.14567,0.10630*
1,1,0.02756,0.14567,0.10630*
%
%ADD81ROUNDEDRECTD81*%
%ADD96R,0.07480X0.03150*%
%ADD97R,0.09055X0.06693*%
%ADD125O,0.04724X0.06299*%
%ADD126R,0.04724X0.06299*%
%ADD127C,0.03740*%
%ADD128C,0.24016*%
G36*
X138583Y205098D02*
X161417D01*
Y179902D01*
X132402D01*
X129931Y177431D01*
X102431Y177431D01*
X94500Y169500D01*
X67500Y169500D01*
X54000D01*
Y197500D01*
X85000D01*
X95000Y207500D01*
X136181D01*
X138583Y205098D01*
D02*
G37*
G36*
X192500Y170000D02*
X192500Y131500D01*
X186000Y125000D01*
X140500D01*
X134000Y131500D01*
X134000Y176500D01*
X186000Y176500D01*
X192500Y170000D01*
D02*
G37*
G36*
X305000Y197500D02*
X336000D01*
Y169500D01*
X322000D01*
X295500Y169500D01*
X287569Y177431D01*
X260069Y177431D01*
X257598Y179902D01*
X228583D01*
Y205098D01*
X251417D01*
X253819Y207500D01*
X295000D01*
X305000Y197500D01*
D02*
G37*
G36*
X256000Y131500D02*
X249500Y125000D01*
X204000D01*
X197500Y131500D01*
Y170000D01*
X204000Y176500D01*
X256000D01*
Y131500D01*
D02*
G37*
D69*
X310000Y205000D02*
X355000D01*
X35000Y15000D02*
X80000D01*
X310000D02*
X355000D01*
X35000Y205000D02*
X80000D01*
D81*
X370000Y145000D02*
D03*
X19500D02*
D03*
X20000Y177500D02*
D03*
X370000D02*
D03*
D96*
X366657Y48118D02*
D03*
Y53039D02*
D03*
Y57961D02*
D03*
Y62882D02*
D03*
X363976Y94657D02*
D03*
Y99579D02*
D03*
Y104500D02*
D03*
Y109421D02*
D03*
D97*
X379650Y71740D02*
D03*
Y39260D02*
D03*
X376969Y118280D02*
D03*
Y85799D02*
D03*
D125*
X355000Y205000D02*
D03*
X350000D02*
D03*
X345000D02*
D03*
X340000D02*
D03*
X335000D02*
D03*
X330000D02*
D03*
X325000D02*
D03*
X320000D02*
D03*
X315000D02*
D03*
X75000Y15000D02*
D03*
X70000D02*
D03*
X65000D02*
D03*
X60000D02*
D03*
X55000D02*
D03*
X50000D02*
D03*
X45000D02*
D03*
X40000D02*
D03*
X35000D02*
D03*
X355000D02*
D03*
X350000D02*
D03*
X345000D02*
D03*
X340000D02*
D03*
X335000D02*
D03*
X330000D02*
D03*
X325000D02*
D03*
X320000D02*
D03*
X315000D02*
D03*
X75000Y205000D02*
D03*
X70000D02*
D03*
X65000D02*
D03*
X60000D02*
D03*
X55000D02*
D03*
X50000D02*
D03*
X45000D02*
D03*
X40000D02*
D03*
X35000D02*
D03*
D126*
X310000D02*
D03*
X80000Y15000D02*
D03*
X310000D02*
D03*
X80000Y205000D02*
D03*
D127*
X366000Y153000D02*
D03*
X374000D02*
D03*
X382000D02*
D03*
X358000D02*
D03*
Y145000D02*
D03*
X366000D02*
D03*
X374000D02*
D03*
X382000D02*
D03*
Y137000D02*
D03*
X374000D02*
D03*
X366000D02*
D03*
X358000D02*
D03*
X7500D02*
D03*
X15500D02*
D03*
X23500D02*
D03*
X31500D02*
D03*
Y145000D02*
D03*
X23500D02*
D03*
X15500D02*
D03*
X7500D02*
D03*
Y153000D02*
D03*
X31500D02*
D03*
X23500D02*
D03*
X15500D02*
D03*
X8000Y169500D02*
D03*
X16000D02*
D03*
X24000D02*
D03*
X32000D02*
D03*
Y177500D02*
D03*
X24000D02*
D03*
X16000D02*
D03*
X8000D02*
D03*
Y185500D02*
D03*
X32000D02*
D03*
X24000D02*
D03*
X16000D02*
D03*
X366000D02*
D03*
X374000D02*
D03*
X382000D02*
D03*
X358000D02*
D03*
Y177500D02*
D03*
X366000D02*
D03*
X374000D02*
D03*
X382000D02*
D03*
Y169500D02*
D03*
X374000D02*
D03*
X366000D02*
D03*
X358000D02*
D03*
D128*
X15000Y15000D02*
D03*
X375000D02*
D03*
X15000Y205000D02*
D03*
X375000D02*
D03*
M02*
