G04*
G04 #@! TF.GenerationSoftware,Altium Limited,Altium Designer,21.0.8 (223)*
G04*
G04 Layer_Color=8421504*
%FSLAX25Y25*%
%MOIN*%
G70*
G04*
G04 #@! TF.SameCoordinates,F73AF2F2-5EA1-4A86-BE9F-7F0372A2F074*
G04*
G04*
G04 #@! TF.FilePolarity,Positive*
G04*
G01*
G75*
%ADD15R,0.01968X0.04134*%
%ADD16C,0.01181*%
%ADD17R,0.03150X0.03150*%
%ADD18R,0.01173X0.05807*%
%ADD19R,0.05807X0.01173*%
%ADD20R,0.08661X0.06299*%
%ADD21R,0.07087X0.02756*%
%ADD22C,0.05906*%
%ADD23R,0.03937X0.03543*%
%ADD24R,0.03150X0.03937*%
%ADD25R,0.03937X0.03150*%
%ADD26R,0.02126X0.03701*%
%ADD27R,0.03701X0.02126*%
%ADD28R,0.05512X0.04528*%
%ADD29R,0.05709X0.25591*%
%ADD30R,0.04331X0.02559*%
%ADD31R,0.02559X0.04331*%
%ADD32R,0.03071X0.03858*%
%ADD33R,0.03858X0.03071*%
%ADD34R,0.12205X0.08661*%
%ADD35R,0.05906X0.05984*%
%ADD36R,0.07874X0.04331*%
%ADD37R,0.03150X0.04331*%
%ADD38R,0.01575X0.05315*%
%ADD39R,0.06299X0.05512*%
%ADD40R,0.09055X0.05118*%
%ADD41R,0.07087X0.07480*%
%ADD42R,0.10709X0.04961*%
%ADD43R,0.05886X0.11614*%
%ADD44R,0.05886X0.02756*%
G04:AMPARAMS|DCode=45|XSize=314.96mil|YSize=236.22mil|CornerRadius=11.81mil|HoleSize=0mil|Usage=FLASHONLY|Rotation=0.000|XOffset=0mil|YOffset=0mil|HoleType=Round|Shape=RoundedRectangle|*
%AMROUNDEDRECTD45*
21,1,0.31496,0.21260,0,0,0.0*
21,1,0.29134,0.23622,0,0,0.0*
1,1,0.02362,0.14567,-0.10630*
1,1,0.02362,-0.14567,-0.10630*
1,1,0.02362,-0.14567,0.10630*
1,1,0.02362,0.14567,0.10630*
%
%ADD45ROUNDEDRECTD45*%
%ADD46R,0.02362X0.04921*%
%ADD47R,0.13976X0.19291*%
%ADD48R,0.06004X0.02559*%
%ADD49R,0.04724X0.08661*%
%ADD50R,0.22835X0.25197*%
%ADD51R,0.08465X0.16929*%
%ADD52R,0.01575X0.04724*%
%ADD53R,0.01772X0.05610*%
%ADD54R,0.07402X0.06614*%
%ADD55R,0.04134X0.01968*%
%ADD56R,0.04921X0.02362*%
%ADD57R,0.05787X0.04016*%
%ADD58R,0.06496X0.06496*%
%ADD59R,0.01968X0.03740*%
%ADD60R,0.03740X0.01968*%
%ADD61R,0.19685X0.09252*%
%ADD62R,0.04409X0.04134*%
%ADD63R,0.03937X0.12992*%
%ADD64R,0.03937X0.06102*%
%ADD65R,0.02559X0.11221*%
%ADD66R,0.07480X0.03543*%
%ADD67R,0.07480X0.12598*%
%ADD68R,0.04528X0.02362*%
%ADD69R,0.08858X0.06890*%
%ADD70R,0.05118X0.11102*%
%ADD71R,0.11102X0.05118*%
%ADD72R,0.06299X0.03937*%
%ADD73R,0.04134X0.05512*%
G36*
X348969Y67075D02*
X347000Y65106D01*
X345031Y67075D01*
Y70224D01*
X348969D01*
Y67075D01*
D02*
G37*
G36*
X343969D02*
X342000Y65106D01*
X340032Y67075D01*
Y70224D01*
X343969D01*
Y67075D01*
D02*
G37*
G36*
X348969Y60776D02*
X345031D01*
Y66091D01*
X347000Y64122D01*
X348969Y66091D01*
Y60776D01*
D02*
G37*
G36*
X343969D02*
X340032D01*
Y66091D01*
X342000Y64122D01*
X343969Y66091D01*
Y60776D01*
D02*
G37*
D15*
X89000Y136020D02*
D03*
Y144980D02*
D03*
X261500Y13980D02*
D03*
Y5020D02*
D03*
X96000Y136020D02*
D03*
Y144980D02*
D03*
X266500Y76020D02*
D03*
Y84980D02*
D03*
X306500Y144980D02*
D03*
Y136020D02*
D03*
X294500D02*
D03*
Y144980D02*
D03*
D16*
X347000Y62500D02*
D03*
Y68500D02*
D03*
X342000D02*
D03*
Y62500D02*
D03*
D17*
X89500Y12453D02*
D03*
Y6547D02*
D03*
X96500D02*
D03*
Y12453D02*
D03*
X103500D02*
D03*
Y6547D02*
D03*
X110500D02*
D03*
Y12453D02*
D03*
D18*
X177764Y62590D02*
D03*
X175795D02*
D03*
X173827D02*
D03*
X171858D02*
D03*
X169890D02*
D03*
X167921D02*
D03*
X165953D02*
D03*
X163984D02*
D03*
X162016D02*
D03*
X160047D02*
D03*
X158079D02*
D03*
X156110D02*
D03*
X154142D02*
D03*
X152173D02*
D03*
X150205D02*
D03*
X148236D02*
D03*
Y17410D02*
D03*
X150205D02*
D03*
X152173D02*
D03*
X154142D02*
D03*
X156110D02*
D03*
X158079D02*
D03*
X160047D02*
D03*
X162016D02*
D03*
X163984D02*
D03*
X165953D02*
D03*
X167921D02*
D03*
X169890D02*
D03*
X171858D02*
D03*
X173827D02*
D03*
X175795D02*
D03*
X177764D02*
D03*
D19*
X140409Y54764D02*
D03*
Y52795D02*
D03*
Y50827D02*
D03*
Y48858D02*
D03*
Y46890D02*
D03*
Y44921D02*
D03*
Y42953D02*
D03*
Y40984D02*
D03*
Y39016D02*
D03*
Y37047D02*
D03*
Y35079D02*
D03*
Y33110D02*
D03*
Y31142D02*
D03*
Y29173D02*
D03*
Y27205D02*
D03*
Y25236D02*
D03*
X185591D02*
D03*
Y27205D02*
D03*
Y29173D02*
D03*
Y31142D02*
D03*
Y33110D02*
D03*
Y35079D02*
D03*
Y37047D02*
D03*
Y39016D02*
D03*
Y40984D02*
D03*
Y42953D02*
D03*
Y44921D02*
D03*
Y46890D02*
D03*
Y48858D02*
D03*
Y50827D02*
D03*
Y52795D02*
D03*
Y54764D02*
D03*
D20*
X379650Y39260D02*
D03*
Y71740D02*
D03*
X377000Y123661D02*
D03*
Y81339D02*
D03*
D21*
X366657Y62882D02*
D03*
Y57961D02*
D03*
Y53039D02*
D03*
Y48118D02*
D03*
X364008Y114803D02*
D03*
Y109882D02*
D03*
Y104961D02*
D03*
Y100039D02*
D03*
Y95118D02*
D03*
Y90197D02*
D03*
D22*
X90500Y45500D02*
D03*
X83500Y34500D02*
D03*
X76500Y45500D02*
D03*
D23*
X123500Y26850D02*
D03*
Y33150D02*
D03*
D24*
X312850Y81000D02*
D03*
X319150D02*
D03*
X109650Y46500D02*
D03*
X103350D02*
D03*
X160350Y10500D02*
D03*
X166650D02*
D03*
X147150Y74500D02*
D03*
X140850D02*
D03*
X124650Y13000D02*
D03*
X118350D02*
D03*
Y6000D02*
D03*
X124650D02*
D03*
D25*
X49000Y139850D02*
D03*
Y146150D02*
D03*
X305000Y28350D02*
D03*
Y34650D02*
D03*
X299000Y25850D02*
D03*
Y32150D02*
D03*
X339000Y46850D02*
D03*
Y53150D02*
D03*
X57937Y115925D02*
D03*
Y122224D02*
D03*
Y104425D02*
D03*
Y110724D02*
D03*
X345500Y129850D02*
D03*
Y136150D02*
D03*
Y117850D02*
D03*
Y124150D02*
D03*
X208000Y59150D02*
D03*
Y52850D02*
D03*
X202000D02*
D03*
Y59150D02*
D03*
X89500Y25150D02*
D03*
Y18850D02*
D03*
X96500D02*
D03*
Y25150D02*
D03*
D26*
X344000Y84000D02*
D03*
X337701D02*
D03*
X83850Y113500D02*
D03*
X90150D02*
D03*
X282697Y140403D02*
D03*
X276398D02*
D03*
X111650Y139500D02*
D03*
X105350D02*
D03*
X252350Y82000D02*
D03*
X258650D02*
D03*
X301350Y113500D02*
D03*
X307650D02*
D03*
D27*
X52500Y104350D02*
D03*
Y110650D02*
D03*
X157000Y78650D02*
D03*
Y72350D02*
D03*
X181000D02*
D03*
Y78650D02*
D03*
X307000Y74850D02*
D03*
Y81150D02*
D03*
X49000Y129350D02*
D03*
Y135650D02*
D03*
X83000Y143650D02*
D03*
Y137350D02*
D03*
X228500Y74850D02*
D03*
Y81150D02*
D03*
X272500Y84650D02*
D03*
Y78350D02*
D03*
X300500Y145000D02*
D03*
Y138701D02*
D03*
D28*
X173231Y78750D02*
D03*
X164569D02*
D03*
Y72450D02*
D03*
X173231D02*
D03*
D29*
X331815Y123500D02*
D03*
X321185D02*
D03*
X65685Y129500D02*
D03*
X76315D02*
D03*
D30*
X64866Y111279D02*
D03*
Y103720D02*
D03*
X73134Y107500D02*
D03*
D31*
X343779Y98134D02*
D03*
X336221D02*
D03*
X340000Y89866D02*
D03*
D32*
X331256Y68500D02*
D03*
X325744D02*
D03*
X54244Y146000D02*
D03*
X59756D02*
D03*
X337744Y145500D02*
D03*
X343256D02*
D03*
X197756Y19500D02*
D03*
X192244D02*
D03*
X141744Y69000D02*
D03*
X147256D02*
D03*
X118244Y48500D02*
D03*
X123756D02*
D03*
D33*
X297500Y56988D02*
D03*
Y62500D02*
D03*
X192000Y58256D02*
D03*
Y52744D02*
D03*
X133000Y27756D02*
D03*
Y22244D02*
D03*
D34*
X233189Y93500D02*
D03*
D35*
X245866D02*
D03*
D36*
X89559Y107000D02*
D03*
X307559D02*
D03*
D37*
X82079D02*
D03*
X300079D02*
D03*
D38*
X240118Y16532D02*
D03*
X229882D02*
D03*
X232441D02*
D03*
X235000D02*
D03*
X237559D02*
D03*
D39*
X222402Y15646D02*
D03*
X247598D02*
D03*
D40*
X220236Y6000D02*
D03*
X249764D02*
D03*
D41*
X230472D02*
D03*
X239528D02*
D03*
D42*
X308000Y164264D02*
D03*
Y174736D02*
D03*
X321000D02*
D03*
Y164264D02*
D03*
X68500Y174736D02*
D03*
Y164264D02*
D03*
X81000Y174736D02*
D03*
Y164264D02*
D03*
D43*
X341146Y175862D02*
D03*
X332854D02*
D03*
X57146D02*
D03*
X48854D02*
D03*
D44*
X341146Y166709D02*
D03*
X332854D02*
D03*
X57146D02*
D03*
X48854D02*
D03*
D45*
X370000Y145000D02*
D03*
X19500D02*
D03*
X20000Y177500D02*
D03*
X370000D02*
D03*
D46*
X84866Y119579D02*
D03*
X89000D02*
D03*
X93134D02*
D03*
Y129421D02*
D03*
X89000D02*
D03*
X84866D02*
D03*
X302366Y119579D02*
D03*
X306500D02*
D03*
X310634D02*
D03*
Y129421D02*
D03*
X306500D02*
D03*
X302366D02*
D03*
D47*
X217047Y150000D02*
D03*
X172953D02*
D03*
D48*
X331677Y62500D02*
D03*
Y57500D02*
D03*
Y52500D02*
D03*
Y47500D02*
D03*
X310323D02*
D03*
Y52500D02*
D03*
Y57500D02*
D03*
Y62500D02*
D03*
D49*
X158976Y167697D02*
D03*
X141024D02*
D03*
X248976D02*
D03*
X231024D02*
D03*
X158976Y115197D02*
D03*
X141024D02*
D03*
X248976D02*
D03*
X231024D02*
D03*
D50*
X150000Y192500D02*
D03*
X240000D02*
D03*
X150000Y140000D02*
D03*
X240000D02*
D03*
D51*
X280000Y199035D02*
D03*
Y165965D02*
D03*
X110000Y199035D02*
D03*
Y165965D02*
D03*
D52*
X50441Y159740D02*
D03*
X55559D02*
D03*
Y152260D02*
D03*
X53000D02*
D03*
X50441D02*
D03*
X334441Y159240D02*
D03*
X339559D02*
D03*
Y151760D02*
D03*
X337000D02*
D03*
X334441D02*
D03*
D53*
X276709Y116695D02*
D03*
X279268D02*
D03*
X281827D02*
D03*
X284386D02*
D03*
Y134112D02*
D03*
X281827D02*
D03*
X279268D02*
D03*
X276709D02*
D03*
X105882Y115583D02*
D03*
X108441D02*
D03*
X111000D02*
D03*
X113559D02*
D03*
Y133000D02*
D03*
X111000D02*
D03*
X108441D02*
D03*
X105882D02*
D03*
D54*
X280547Y125403D02*
D03*
X109721Y124291D02*
D03*
D55*
X251020Y76000D02*
D03*
X259980D02*
D03*
D56*
X234579Y80134D02*
D03*
Y76000D02*
D03*
Y71866D02*
D03*
X244421D02*
D03*
Y76000D02*
D03*
Y80134D02*
D03*
D57*
X131500Y33850D02*
D03*
Y40150D02*
D03*
D58*
X14488Y41843D02*
D03*
X50512D02*
D03*
Y77866D02*
D03*
X14488D02*
D03*
D59*
X19902Y40465D02*
D03*
X23051D02*
D03*
X26201D02*
D03*
X29350D02*
D03*
X32500D02*
D03*
X35650D02*
D03*
X38799D02*
D03*
X41949D02*
D03*
X45098D02*
D03*
Y79244D02*
D03*
X41949D02*
D03*
X38799D02*
D03*
X35650D02*
D03*
X32500D02*
D03*
X29350D02*
D03*
X26201D02*
D03*
X23051D02*
D03*
X19902D02*
D03*
D60*
X51890Y47256D02*
D03*
Y50406D02*
D03*
Y53555D02*
D03*
Y56705D02*
D03*
Y59854D02*
D03*
Y63004D02*
D03*
Y66154D02*
D03*
Y69303D02*
D03*
Y72453D02*
D03*
X13110D02*
D03*
Y69303D02*
D03*
Y66154D02*
D03*
Y63004D02*
D03*
Y59854D02*
D03*
Y56705D02*
D03*
Y53555D02*
D03*
Y50406D02*
D03*
Y47256D02*
D03*
D61*
X32500Y59854D02*
D03*
D62*
X27827Y73929D02*
D03*
D63*
X46673Y59854D02*
D03*
D64*
X130799Y78335D02*
D03*
Y57665D02*
D03*
X118201Y78335D02*
D03*
Y57665D02*
D03*
D65*
X270000Y12905D02*
D03*
Y26094D02*
D03*
X275000Y12905D02*
D03*
Y26094D02*
D03*
X280000Y12905D02*
D03*
Y26094D02*
D03*
X285000Y12905D02*
D03*
Y26094D02*
D03*
X290000Y12905D02*
D03*
Y26094D02*
D03*
D66*
X76992Y75055D02*
D03*
Y66000D02*
D03*
Y56945D02*
D03*
D67*
X101008Y66000D02*
D03*
D68*
X193382Y5760D02*
D03*
Y9500D02*
D03*
Y13240D02*
D03*
X203618D02*
D03*
Y9500D02*
D03*
Y5760D02*
D03*
D69*
X65000Y63595D02*
D03*
Y75406D02*
D03*
D70*
X26354Y120354D02*
D03*
X15646D02*
D03*
X26354Y106354D02*
D03*
X15646D02*
D03*
X26354Y92354D02*
D03*
X15646D02*
D03*
X86854Y86500D02*
D03*
X76146D02*
D03*
D71*
X65000Y51854D02*
D03*
Y41146D02*
D03*
D72*
X210283Y69610D02*
D03*
Y76500D02*
D03*
Y83390D02*
D03*
X195717Y69610D02*
D03*
Y76500D02*
D03*
Y83390D02*
D03*
D73*
X46240Y89500D02*
D03*
X38760D02*
D03*
X34260Y28000D02*
D03*
X41740D02*
D03*
M02*
