G04*
G04 #@! TF.GenerationSoftware,Altium Limited,Altium Designer,20.1.8 (145)*
G04*
G04 Layer_Physical_Order=2*
G04 Layer_Color=36540*
%FSLAX25Y25*%
%MOIN*%
G70*
G04*
G04 #@! TF.SameCoordinates,B2F8307C-7DD5-46F7-85BE-D442A9776901*
G04*
G04*
G04 #@! TF.FilePolarity,Positive*
G04*
G01*
G75*
%ADD88C,0.03347*%
G36*
X377068Y218056D02*
X379085Y217572D01*
X381001Y216778D01*
X382770Y215694D01*
X384347Y214347D01*
X385695Y212770D01*
X386778Y211001D01*
X387572Y209085D01*
X388056Y207068D01*
X388212Y205092D01*
X388194Y205000D01*
Y15000D01*
X388212Y14908D01*
X388056Y12932D01*
X387572Y10915D01*
X386778Y8999D01*
X385695Y7230D01*
X384347Y5653D01*
X382770Y4306D01*
X381001Y3222D01*
X379085Y2428D01*
X377068Y1944D01*
X375092Y1788D01*
X375000Y1806D01*
X15030D01*
X14934Y1787D01*
X12945Y1944D01*
X10925Y2429D01*
X9007Y3223D01*
X7236Y4308D01*
X5657Y5657D01*
X4308Y7236D01*
X3223Y9007D01*
X2429Y10925D01*
X1944Y12945D01*
X1821Y14508D01*
X1806Y15002D01*
X1806Y15030D01*
X1806Y15494D01*
Y205000D01*
X1806Y205000D01*
X1806D01*
X1820Y205494D01*
X1944Y207068D01*
X2428Y209085D01*
X3222Y211001D01*
X4306Y212770D01*
X5653Y214347D01*
X7230Y215694D01*
X8999Y216778D01*
X10915Y217572D01*
X12932Y218056D01*
X14908Y218212D01*
X15000Y218194D01*
X375000D01*
X375092Y218212D01*
X377068Y218056D01*
D02*
G37*
%LPC*%
G36*
X355000Y208177D02*
X354178Y208068D01*
X353412Y207751D01*
X352754Y207246D01*
X352750Y207242D01*
X352250D01*
X352246Y207246D01*
X351588Y207751D01*
X350822Y208068D01*
X350000Y208177D01*
X349178Y208068D01*
X348412Y207751D01*
X347754Y207246D01*
X347750Y207242D01*
X347250D01*
X347246Y207246D01*
X346588Y207751D01*
X345822Y208068D01*
X345000Y208177D01*
X344178Y208068D01*
X343412Y207751D01*
X342754Y207246D01*
X342750Y207242D01*
X342250D01*
X342246Y207246D01*
X341588Y207751D01*
X340822Y208068D01*
X340000Y208177D01*
X339178Y208068D01*
X338412Y207751D01*
X337754Y207246D01*
X337750Y207242D01*
X337250D01*
X337246Y207246D01*
X336588Y207751D01*
X335822Y208068D01*
X335000Y208177D01*
X334178Y208068D01*
X333412Y207751D01*
X332754Y207246D01*
X332750Y207242D01*
X332250D01*
X332246Y207246D01*
X331588Y207751D01*
X330822Y208068D01*
X330000Y208177D01*
X329178Y208068D01*
X328412Y207751D01*
X327754Y207246D01*
X327750Y207242D01*
X327250D01*
X327246Y207246D01*
X326588Y207751D01*
X325822Y208068D01*
X325000Y208177D01*
X324178Y208068D01*
X323412Y207751D01*
X322754Y207246D01*
X322750Y207242D01*
X322250D01*
X322246Y207246D01*
X321588Y207751D01*
X320822Y208068D01*
X320000Y208177D01*
X319178Y208068D01*
X318412Y207751D01*
X317754Y207246D01*
X317750Y207242D01*
X317250D01*
X317246Y207246D01*
X316588Y207751D01*
X315822Y208068D01*
X315000Y208177D01*
X314178Y208068D01*
X313650Y207850D01*
X313150Y208142D01*
Y208150D01*
X306850D01*
Y201850D01*
X313150D01*
Y201857D01*
X313650Y202150D01*
X314178Y201932D01*
X315000Y201823D01*
X315822Y201932D01*
X316588Y202249D01*
X317246Y202754D01*
X317250Y202759D01*
X317750D01*
X317754Y202754D01*
X318412Y202249D01*
X319178Y201932D01*
X320000Y201823D01*
X320822Y201932D01*
X321588Y202249D01*
X322246Y202754D01*
X322250Y202759D01*
X322750D01*
X322754Y202754D01*
X323412Y202249D01*
X324178Y201932D01*
X325000Y201823D01*
X325822Y201932D01*
X326588Y202249D01*
X327246Y202754D01*
X327250Y202759D01*
X327750D01*
X327754Y202754D01*
X328412Y202249D01*
X329178Y201932D01*
X330000Y201823D01*
X330822Y201932D01*
X331588Y202249D01*
X332246Y202754D01*
X332250Y202759D01*
X332750D01*
X332754Y202754D01*
X333412Y202249D01*
X334178Y201932D01*
X335000Y201823D01*
X335822Y201932D01*
X336588Y202249D01*
X337246Y202754D01*
X337250Y202759D01*
X337750D01*
X337754Y202754D01*
X338412Y202249D01*
X339178Y201932D01*
X340000Y201823D01*
X340822Y201932D01*
X341588Y202249D01*
X342246Y202754D01*
X342250Y202759D01*
X342750D01*
X342754Y202754D01*
X343412Y202249D01*
X344178Y201932D01*
X345000Y201823D01*
X345822Y201932D01*
X346588Y202249D01*
X347246Y202754D01*
X347250Y202759D01*
X347750D01*
X347754Y202754D01*
X348412Y202249D01*
X349178Y201932D01*
X350000Y201823D01*
X350822Y201932D01*
X351588Y202249D01*
X352246Y202754D01*
X352250Y202759D01*
X352750D01*
X352754Y202754D01*
X353412Y202249D01*
X354178Y201932D01*
X355000Y201823D01*
X355822Y201932D01*
X356588Y202249D01*
X357246Y202754D01*
X357751Y203412D01*
X358068Y204178D01*
X358177Y205000D01*
X358068Y205822D01*
X357751Y206588D01*
X357246Y207246D01*
X356588Y207751D01*
X355822Y208068D01*
X355000Y208177D01*
D02*
G37*
G36*
X75000D02*
X74178Y208068D01*
X73412Y207751D01*
X72754Y207246D01*
X72750Y207242D01*
X72250D01*
X72246Y207246D01*
X71588Y207751D01*
X70822Y208068D01*
X70000Y208177D01*
X69178Y208068D01*
X68412Y207751D01*
X67754Y207246D01*
X67750Y207242D01*
X67250D01*
X67246Y207246D01*
X66588Y207751D01*
X65822Y208068D01*
X65000Y208177D01*
X64178Y208068D01*
X63412Y207751D01*
X62754Y207246D01*
X62750Y207242D01*
X62250D01*
X62246Y207246D01*
X61588Y207751D01*
X60822Y208068D01*
X60000Y208177D01*
X59178Y208068D01*
X58412Y207751D01*
X57754Y207246D01*
X57750Y207242D01*
X57250D01*
X57246Y207246D01*
X56588Y207751D01*
X55822Y208068D01*
X55000Y208177D01*
X54178Y208068D01*
X53412Y207751D01*
X52754Y207246D01*
X52750Y207242D01*
X52250D01*
X52246Y207246D01*
X51588Y207751D01*
X50822Y208068D01*
X50000Y208177D01*
X49178Y208068D01*
X48412Y207751D01*
X47754Y207246D01*
X47750Y207242D01*
X47250D01*
X47246Y207246D01*
X46588Y207751D01*
X45822Y208068D01*
X45000Y208177D01*
X44178Y208068D01*
X43412Y207751D01*
X42754Y207246D01*
X42750Y207242D01*
X42250D01*
X42246Y207246D01*
X41588Y207751D01*
X40822Y208068D01*
X40000Y208177D01*
X39178Y208068D01*
X38412Y207751D01*
X37754Y207246D01*
X37750Y207242D01*
X37250D01*
X37246Y207246D01*
X36588Y207751D01*
X35822Y208068D01*
X35000Y208177D01*
X34178Y208068D01*
X33412Y207751D01*
X32754Y207246D01*
X32249Y206588D01*
X31931Y205822D01*
X31823Y205000D01*
X31931Y204178D01*
X32249Y203412D01*
X32754Y202754D01*
X33412Y202249D01*
X34178Y201932D01*
X35000Y201823D01*
X35822Y201932D01*
X36588Y202249D01*
X37246Y202754D01*
X37250Y202759D01*
X37750D01*
X37754Y202754D01*
X38412Y202249D01*
X39178Y201932D01*
X40000Y201823D01*
X40822Y201932D01*
X41588Y202249D01*
X42246Y202754D01*
X42250Y202759D01*
X42750D01*
X42754Y202754D01*
X43412Y202249D01*
X44178Y201932D01*
X45000Y201823D01*
X45822Y201932D01*
X46588Y202249D01*
X47246Y202754D01*
X47250Y202759D01*
X47750D01*
X47754Y202754D01*
X48412Y202249D01*
X49178Y201932D01*
X50000Y201823D01*
X50822Y201932D01*
X51588Y202249D01*
X52246Y202754D01*
X52250Y202759D01*
X52750D01*
X52754Y202754D01*
X53412Y202249D01*
X54178Y201932D01*
X55000Y201823D01*
X55822Y201932D01*
X56588Y202249D01*
X57246Y202754D01*
X57250Y202759D01*
X57750D01*
X57754Y202754D01*
X58412Y202249D01*
X59178Y201932D01*
X60000Y201823D01*
X60822Y201932D01*
X61588Y202249D01*
X62246Y202754D01*
X62250Y202759D01*
X62750D01*
X62754Y202754D01*
X63412Y202249D01*
X64178Y201932D01*
X65000Y201823D01*
X65822Y201932D01*
X66588Y202249D01*
X67246Y202754D01*
X67250Y202759D01*
X67750D01*
X67754Y202754D01*
X68412Y202249D01*
X69178Y201932D01*
X70000Y201823D01*
X70822Y201932D01*
X71588Y202249D01*
X72246Y202754D01*
X72250Y202759D01*
X72750D01*
X72754Y202754D01*
X73412Y202249D01*
X74178Y201932D01*
X75000Y201823D01*
X75822Y201932D01*
X76350Y202150D01*
X76850Y201857D01*
Y201850D01*
X83150D01*
Y208150D01*
X76850D01*
Y208142D01*
X76350Y207850D01*
X75822Y208068D01*
X75000Y208177D01*
D02*
G37*
G36*
X375000Y217637D02*
X373023Y217482D01*
X371095Y217019D01*
X369263Y216260D01*
X367572Y215224D01*
X366064Y213936D01*
X364776Y212428D01*
X363740Y210737D01*
X362981Y208905D01*
X362518Y206977D01*
X362363Y205000D01*
X362518Y203023D01*
X362981Y201095D01*
X363740Y199263D01*
X364776Y197572D01*
X366064Y196064D01*
X367572Y194776D01*
X369263Y193740D01*
X371095Y192981D01*
X373023Y192518D01*
X375000Y192363D01*
X376977Y192518D01*
X378905Y192981D01*
X380737Y193740D01*
X382428Y194776D01*
X383936Y196064D01*
X385224Y197572D01*
X386260Y199263D01*
X387019Y201095D01*
X387482Y203023D01*
X387637Y205000D01*
X387482Y206977D01*
X387019Y208905D01*
X386260Y210737D01*
X385224Y212428D01*
X383936Y213936D01*
X382428Y215224D01*
X380737Y216260D01*
X378905Y217019D01*
X376977Y217482D01*
X375000Y217637D01*
D02*
G37*
G36*
X15000D02*
X13023Y217482D01*
X11095Y217019D01*
X9263Y216260D01*
X7572Y215224D01*
X6064Y213936D01*
X4776Y212428D01*
X3740Y210737D01*
X2981Y208905D01*
X2518Y206977D01*
X2363Y205000D01*
X2518Y203023D01*
X2981Y201095D01*
X3740Y199263D01*
X4776Y197572D01*
X6064Y196064D01*
X7572Y194776D01*
X9263Y193740D01*
X11095Y192981D01*
X13023Y192518D01*
X15000Y192363D01*
X16977Y192518D01*
X18905Y192981D01*
X20737Y193740D01*
X22428Y194776D01*
X23936Y196064D01*
X25224Y197572D01*
X26260Y199263D01*
X27019Y201095D01*
X27482Y203023D01*
X27637Y205000D01*
X27482Y206977D01*
X27019Y208905D01*
X26260Y210737D01*
X25224Y212428D01*
X23936Y213936D01*
X22428Y215224D01*
X20737Y216260D01*
X18905Y217019D01*
X16977Y217482D01*
X15000Y217637D01*
D02*
G37*
G36*
X32000Y126863D02*
X31040Y126672D01*
X30226Y126128D01*
X29682Y125314D01*
X29491Y124354D01*
X29682Y123394D01*
X30157Y122684D01*
X30198Y122354D01*
X30157Y122025D01*
X29682Y121315D01*
X29491Y120354D01*
X29682Y119394D01*
X30157Y118684D01*
X30198Y118354D01*
X30157Y118025D01*
X29682Y117315D01*
X29491Y116354D01*
X29682Y115394D01*
X30226Y114580D01*
X31040Y114037D01*
X32000Y113846D01*
X32960Y114037D01*
X33774Y114580D01*
X34318Y115394D01*
X34509Y116354D01*
X34318Y117315D01*
X33843Y118025D01*
X33802Y118354D01*
X33843Y118684D01*
X34318Y119394D01*
X34509Y120354D01*
X34318Y121315D01*
X33843Y122025D01*
X33802Y122354D01*
X33843Y122684D01*
X34318Y123394D01*
X34509Y124354D01*
X34318Y125314D01*
X33774Y126128D01*
X32960Y126672D01*
X32000Y126863D01*
D02*
G37*
G36*
Y112863D02*
X31040Y112672D01*
X30226Y112128D01*
X29682Y111314D01*
X29491Y110354D01*
X29682Y109394D01*
X30157Y108684D01*
X30198Y108354D01*
X30157Y108025D01*
X29682Y107315D01*
X29491Y106354D01*
X29682Y105394D01*
X30157Y104684D01*
X30198Y104354D01*
X30157Y104025D01*
X29682Y103314D01*
X29491Y102354D01*
X29682Y101394D01*
X30226Y100580D01*
X31040Y100037D01*
X32000Y99845D01*
X32960Y100037D01*
X33774Y100580D01*
X34318Y101394D01*
X34509Y102354D01*
X34318Y103314D01*
X33843Y104025D01*
X33802Y104354D01*
X33843Y104684D01*
X34318Y105394D01*
X34509Y106354D01*
X34318Y107315D01*
X33843Y108025D01*
X33802Y108354D01*
X33843Y108684D01*
X34318Y109394D01*
X34509Y110354D01*
X34318Y111314D01*
X33774Y112128D01*
X32960Y112672D01*
X32000Y112863D01*
D02*
G37*
G36*
X53000Y92509D02*
X52040Y92318D01*
X51226Y91774D01*
X50682Y90960D01*
X50491Y90000D01*
X50682Y89040D01*
X51226Y88226D01*
X52040Y87682D01*
X53000Y87491D01*
X53960Y87682D01*
X54774Y88226D01*
X55318Y89040D01*
X55509Y90000D01*
X55318Y90960D01*
X54774Y91774D01*
X53960Y92318D01*
X53000Y92509D01*
D02*
G37*
G36*
X32000Y98863D02*
X31040Y98672D01*
X30226Y98128D01*
X29682Y97315D01*
X29491Y96354D01*
X29682Y95394D01*
X30157Y94684D01*
X30198Y94354D01*
X30157Y94025D01*
X29682Y93314D01*
X29491Y92354D01*
X29682Y91394D01*
X30157Y90684D01*
X30198Y90354D01*
X30157Y90025D01*
X29682Y89315D01*
X29491Y88354D01*
X29682Y87394D01*
X30226Y86580D01*
X31040Y86036D01*
X32000Y85846D01*
X32960Y86036D01*
X33774Y86580D01*
X34318Y87394D01*
X34509Y88354D01*
X34318Y89315D01*
X33843Y90025D01*
X33802Y90354D01*
X33843Y90684D01*
X34318Y91394D01*
X34509Y92354D01*
X34318Y93314D01*
X33843Y94025D01*
X33802Y94354D01*
X33843Y94684D01*
X34318Y95394D01*
X34509Y96354D01*
X34318Y97315D01*
X33774Y98128D01*
X32960Y98672D01*
X32000Y98863D01*
D02*
G37*
G36*
X99000Y82863D02*
X98040Y82672D01*
X97226Y82128D01*
X96682Y81314D01*
X96491Y80354D01*
X96682Y79394D01*
X97226Y78580D01*
X97897Y78132D01*
X97917Y78068D01*
Y77641D01*
X97897Y77577D01*
X97226Y77128D01*
X96682Y76315D01*
X96491Y75354D01*
X96682Y74394D01*
X97226Y73580D01*
X98040Y73036D01*
X99000Y72846D01*
X99960Y73036D01*
X100774Y73580D01*
X101318Y74394D01*
X101509Y75354D01*
X101318Y76315D01*
X100774Y77128D01*
X100103Y77577D01*
X100083Y77641D01*
Y78068D01*
X100103Y78132D01*
X100774Y78580D01*
X101318Y79394D01*
X101509Y80354D01*
X101318Y81314D01*
X100774Y82128D01*
X99960Y82672D01*
X99000Y82863D01*
D02*
G37*
G36*
X44000Y75863D02*
X43040Y75672D01*
X42226Y75128D01*
X41682Y74314D01*
X41491Y73354D01*
X41682Y72394D01*
X42226Y71580D01*
X43040Y71036D01*
X44000Y70846D01*
X44960Y71036D01*
X45774Y71580D01*
X46318Y72394D01*
X46509Y73354D01*
X46318Y74314D01*
X45774Y75128D01*
X44960Y75672D01*
X44000Y75863D01*
D02*
G37*
G36*
X105000Y70863D02*
X104040Y70672D01*
X103226Y70128D01*
X102682Y69314D01*
X102491Y68354D01*
X102682Y67394D01*
X103226Y66580D01*
X104040Y66036D01*
X105000Y65846D01*
X105960Y66036D01*
X106774Y66580D01*
X107318Y67394D01*
X107509Y68354D01*
X107318Y69314D01*
X106774Y70128D01*
X105960Y70672D01*
X105000Y70863D01*
D02*
G37*
G36*
X98000D02*
X97040Y70672D01*
X96226Y70128D01*
X95682Y69314D01*
X95491Y68354D01*
X95682Y67394D01*
X96226Y66580D01*
X97040Y66036D01*
X98000Y65846D01*
X98960Y66036D01*
X99774Y66580D01*
X100318Y67394D01*
X100509Y68354D01*
X100318Y69314D01*
X99774Y70128D01*
X98960Y70672D01*
X98000Y70863D01*
D02*
G37*
G36*
Y63863D02*
X97040Y63672D01*
X96226Y63128D01*
X95682Y62314D01*
X95491Y61354D01*
X95682Y60394D01*
X96226Y59580D01*
X97040Y59036D01*
X98000Y58846D01*
X98960Y59036D01*
X99774Y59580D01*
X100318Y60394D01*
X100509Y61354D01*
X100318Y62314D01*
X99774Y63128D01*
X98960Y63672D01*
X98000Y63863D01*
D02*
G37*
G36*
Y56863D02*
X97040Y56672D01*
X96226Y56128D01*
X95682Y55314D01*
X95491Y54354D01*
X95682Y53394D01*
X96226Y52580D01*
X97040Y52036D01*
X98000Y51846D01*
X98960Y52036D01*
X99774Y52580D01*
X100318Y53394D01*
X100509Y54354D01*
X100318Y55314D01*
X99774Y56128D01*
X98960Y56672D01*
X98000Y56863D01*
D02*
G37*
G36*
X69000Y52863D02*
X68040Y52672D01*
X67226Y52128D01*
X66682Y51315D01*
X66491Y50354D01*
X66682Y49394D01*
X67226Y48580D01*
X68040Y48037D01*
X69000Y47846D01*
X69960Y48037D01*
X70774Y48580D01*
X71318Y49394D01*
X71509Y50354D01*
X71318Y51315D01*
X70774Y52128D01*
X69960Y52672D01*
X69000Y52863D01*
D02*
G37*
G36*
X63000D02*
X62040Y52672D01*
X61226Y52128D01*
X60682Y51315D01*
X60491Y50354D01*
X60682Y49394D01*
X61226Y48580D01*
X62040Y48037D01*
X63000Y47846D01*
X63960Y48037D01*
X64774Y48580D01*
X65318Y49394D01*
X65509Y50354D01*
X65318Y51315D01*
X64774Y52128D01*
X63960Y52672D01*
X63000Y52863D01*
D02*
G37*
G36*
X105000Y50863D02*
X104040Y50672D01*
X103226Y50128D01*
X102682Y49314D01*
X102491Y48354D01*
X102682Y47394D01*
X103226Y46580D01*
X104040Y46036D01*
X105000Y45845D01*
X105960Y46036D01*
X106774Y46580D01*
X107318Y47394D01*
X107509Y48354D01*
X107318Y49314D01*
X106774Y50128D01*
X105960Y50672D01*
X105000Y50863D01*
D02*
G37*
G36*
X98000D02*
X97040Y50672D01*
X96226Y50128D01*
X95682Y49314D01*
X95491Y48354D01*
X95682Y47394D01*
X96226Y46580D01*
X97040Y46036D01*
X98000Y45845D01*
X98960Y46036D01*
X99774Y46580D01*
X100318Y47394D01*
X100509Y48354D01*
X100318Y49314D01*
X99774Y50128D01*
X98960Y50672D01*
X98000Y50863D01*
D02*
G37*
G36*
X8500Y44363D02*
X7540Y44172D01*
X6726Y43628D01*
X6182Y42814D01*
X5991Y41854D01*
X6182Y40894D01*
X6726Y40080D01*
X7540Y39536D01*
X8500Y39345D01*
X9460Y39536D01*
X10274Y40080D01*
X10818Y40894D01*
X11009Y41854D01*
X10818Y42814D01*
X10274Y43628D01*
X9460Y44172D01*
X8500Y44363D01*
D02*
G37*
G36*
X80000Y43509D02*
X79040Y43318D01*
X78226Y42774D01*
X77682Y41960D01*
X77491Y41000D01*
X77682Y40040D01*
X78226Y39226D01*
X79040Y38682D01*
X80000Y38491D01*
X80960Y38682D01*
X81774Y39226D01*
X82318Y40040D01*
X82509Y41000D01*
X82318Y41960D01*
X81774Y42774D01*
X80960Y43318D01*
X80000Y43509D01*
D02*
G37*
G36*
X74000D02*
X73040Y43318D01*
X72226Y42774D01*
X71682Y41960D01*
X71491Y41000D01*
X71682Y40040D01*
X72226Y39226D01*
X73040Y38682D01*
X74000Y38491D01*
X74960Y38682D01*
X75774Y39226D01*
X76318Y40040D01*
X76509Y41000D01*
X76318Y41960D01*
X75774Y42774D01*
X74960Y43318D01*
X74000Y43509D01*
D02*
G37*
G36*
X68000D02*
X67040Y43318D01*
X66226Y42774D01*
X65682Y41960D01*
X65491Y41000D01*
X65682Y40040D01*
X66226Y39226D01*
X67040Y38682D01*
X68000Y38491D01*
X68960Y38682D01*
X69774Y39226D01*
X70318Y40040D01*
X70509Y41000D01*
X70318Y41960D01*
X69774Y42774D01*
X68960Y43318D01*
X68000Y43509D01*
D02*
G37*
G36*
X62000D02*
X61040Y43318D01*
X60226Y42774D01*
X59682Y41960D01*
X59491Y41000D01*
X59682Y40040D01*
X60226Y39226D01*
X61040Y38682D01*
X62000Y38491D01*
X62960Y38682D01*
X63774Y39226D01*
X64318Y40040D01*
X64509Y41000D01*
X64318Y41960D01*
X63774Y42774D01*
X62960Y43318D01*
X62000Y43509D01*
D02*
G37*
G36*
X26500Y38363D02*
X25540Y38172D01*
X24726Y37628D01*
X24182Y36814D01*
X23991Y35854D01*
X24182Y34894D01*
X24726Y34080D01*
X25540Y33536D01*
X26500Y33345D01*
X27460Y33536D01*
X28274Y34080D01*
X28818Y34894D01*
X29009Y35854D01*
X28818Y36814D01*
X28274Y37628D01*
X27460Y38172D01*
X26500Y38363D01*
D02*
G37*
G36*
X20500D02*
X19540Y38172D01*
X18726Y37628D01*
X18182Y36814D01*
X17991Y35854D01*
X18182Y34894D01*
X18726Y34080D01*
X19540Y33536D01*
X20500Y33345D01*
X21460Y33536D01*
X22274Y34080D01*
X22818Y34894D01*
X23009Y35854D01*
X22818Y36814D01*
X22274Y37628D01*
X21460Y38172D01*
X20500Y38363D01*
D02*
G37*
G36*
X14500D02*
X13540Y38172D01*
X12726Y37628D01*
X12182Y36814D01*
X11991Y35854D01*
X12182Y34894D01*
X12726Y34080D01*
X13540Y33536D01*
X14500Y33345D01*
X15460Y33536D01*
X16274Y34080D01*
X16818Y34894D01*
X17009Y35854D01*
X16818Y36814D01*
X16274Y37628D01*
X15460Y38172D01*
X14500Y38363D01*
D02*
G37*
G36*
X8500D02*
X7540Y38172D01*
X6726Y37628D01*
X6182Y36814D01*
X5991Y35854D01*
X6182Y34894D01*
X6726Y34080D01*
X7540Y33536D01*
X8500Y33345D01*
X9460Y33536D01*
X10274Y34080D01*
X10818Y34894D01*
X11009Y35854D01*
X10818Y36814D01*
X10274Y37628D01*
X9460Y38172D01*
X8500Y38363D01*
D02*
G37*
G36*
X35000Y37863D02*
X34040Y37672D01*
X33226Y37128D01*
X32682Y36314D01*
X32491Y35354D01*
X32682Y34394D01*
X33226Y33580D01*
X34040Y33037D01*
X35000Y32846D01*
X35960Y33037D01*
X36774Y33580D01*
X37318Y34394D01*
X37509Y35354D01*
X37318Y36314D01*
X36774Y37128D01*
X35960Y37672D01*
X35000Y37863D01*
D02*
G37*
G36*
X52000Y33509D02*
X51040Y33318D01*
X50226Y32774D01*
X49774D01*
X48960Y33318D01*
X48000Y33509D01*
X47040Y33318D01*
X46226Y32774D01*
X45682Y31960D01*
X45491Y31000D01*
X45682Y30040D01*
X46157Y29329D01*
X46198Y29000D01*
X46157Y28671D01*
X45682Y27960D01*
X45491Y27000D01*
X45682Y26040D01*
X46226Y25226D01*
X47040Y24682D01*
X48000Y24491D01*
X48960Y24682D01*
X49774Y25226D01*
X50226D01*
X51040Y24682D01*
X52000Y24491D01*
X52960Y24682D01*
X53774Y25226D01*
X54318Y26040D01*
X54509Y27000D01*
X54318Y27960D01*
X53843Y28671D01*
X53802Y29000D01*
X53843Y29329D01*
X54318Y30040D01*
X54509Y31000D01*
X54318Y31960D01*
X53774Y32774D01*
X52960Y33318D01*
X52000Y33509D01*
D02*
G37*
G36*
X80000Y37509D02*
X79040Y37318D01*
X78226Y36774D01*
X77682Y35960D01*
X77491Y35000D01*
X77682Y34040D01*
X78226Y33226D01*
X79040Y32682D01*
X80000Y32491D01*
X80960Y32682D01*
X81774Y33226D01*
X82318Y34040D01*
X82509Y35000D01*
X82318Y35960D01*
X81774Y36774D01*
X80960Y37318D01*
X80000Y37509D01*
D02*
G37*
G36*
X62000D02*
X61040Y37318D01*
X60226Y36774D01*
X59682Y35960D01*
X59491Y35000D01*
X59682Y34040D01*
X60226Y33226D01*
X61040Y32682D01*
X62000Y32491D01*
X62960Y32682D01*
X63774Y33226D01*
X64318Y34040D01*
X64509Y35000D01*
X64318Y35960D01*
X63774Y36774D01*
X62960Y37318D01*
X62000Y37509D01*
D02*
G37*
G36*
X80000Y27509D02*
X79040Y27318D01*
X78226Y26774D01*
X77682Y25960D01*
X77491Y25000D01*
X77682Y24040D01*
X78226Y23226D01*
X79040Y22682D01*
X80000Y22491D01*
X80960Y22682D01*
X81774Y23226D01*
X82318Y24040D01*
X82509Y25000D01*
X82318Y25960D01*
X81774Y26774D01*
X80960Y27318D01*
X80000Y27509D01*
D02*
G37*
G36*
X62000D02*
X61040Y27318D01*
X60226Y26774D01*
X59682Y25960D01*
X59491Y25000D01*
X59682Y24040D01*
X60226Y23226D01*
X61040Y22682D01*
X62000Y22491D01*
X62960Y22682D01*
X63774Y23226D01*
X64318Y24040D01*
X64509Y25000D01*
X64318Y25960D01*
X63774Y26774D01*
X62960Y27318D01*
X62000Y27509D01*
D02*
G37*
G36*
X355000Y18177D02*
X354178Y18068D01*
X353412Y17751D01*
X352754Y17246D01*
X352750Y17242D01*
X352250D01*
X352246Y17246D01*
X351588Y17751D01*
X350822Y18068D01*
X350000Y18177D01*
X349178Y18068D01*
X348412Y17751D01*
X347754Y17246D01*
X347750Y17242D01*
X347250D01*
X347246Y17246D01*
X346588Y17751D01*
X345822Y18068D01*
X345000Y18177D01*
X344178Y18068D01*
X343412Y17751D01*
X342754Y17246D01*
X342750Y17242D01*
X342250D01*
X342246Y17246D01*
X341588Y17751D01*
X340822Y18068D01*
X340000Y18177D01*
X339178Y18068D01*
X338412Y17751D01*
X337754Y17246D01*
X337750Y17242D01*
X337250D01*
X337246Y17246D01*
X336588Y17751D01*
X335822Y18068D01*
X335000Y18177D01*
X334178Y18068D01*
X333412Y17751D01*
X332754Y17246D01*
X332750Y17242D01*
X332250D01*
X332246Y17246D01*
X331588Y17751D01*
X330822Y18068D01*
X330000Y18177D01*
X329178Y18068D01*
X328412Y17751D01*
X327754Y17246D01*
X327750Y17242D01*
X327250D01*
X327246Y17246D01*
X326588Y17751D01*
X325822Y18068D01*
X325000Y18177D01*
X324178Y18068D01*
X323412Y17751D01*
X322754Y17246D01*
X322750Y17242D01*
X322250D01*
X322246Y17246D01*
X321588Y17751D01*
X320822Y18068D01*
X320000Y18177D01*
X319178Y18068D01*
X318412Y17751D01*
X317754Y17246D01*
X317750Y17242D01*
X317250D01*
X317246Y17246D01*
X316588Y17751D01*
X315822Y18068D01*
X315000Y18177D01*
X314178Y18068D01*
X313650Y17850D01*
X313150Y18142D01*
Y18150D01*
X306850D01*
Y11850D01*
X313150D01*
Y11858D01*
X313650Y12150D01*
X314178Y11931D01*
X315000Y11823D01*
X315822Y11931D01*
X316588Y12249D01*
X317246Y12754D01*
X317250Y12758D01*
X317750D01*
X317754Y12754D01*
X318412Y12249D01*
X319178Y11931D01*
X320000Y11823D01*
X320822Y11931D01*
X321588Y12249D01*
X322246Y12754D01*
X322250Y12758D01*
X322750D01*
X322754Y12754D01*
X323412Y12249D01*
X324178Y11931D01*
X325000Y11823D01*
X325822Y11931D01*
X326588Y12249D01*
X327246Y12754D01*
X327250Y12758D01*
X327750D01*
X327754Y12754D01*
X328412Y12249D01*
X329178Y11931D01*
X330000Y11823D01*
X330822Y11931D01*
X331588Y12249D01*
X332246Y12754D01*
X332250Y12758D01*
X332750D01*
X332754Y12754D01*
X333412Y12249D01*
X334178Y11931D01*
X335000Y11823D01*
X335822Y11931D01*
X336588Y12249D01*
X337246Y12754D01*
X337250Y12758D01*
X337750D01*
X337754Y12754D01*
X338412Y12249D01*
X339178Y11931D01*
X340000Y11823D01*
X340822Y11931D01*
X341588Y12249D01*
X342246Y12754D01*
X342250Y12758D01*
X342750D01*
X342754Y12754D01*
X343412Y12249D01*
X344178Y11931D01*
X345000Y11823D01*
X345822Y11931D01*
X346588Y12249D01*
X347246Y12754D01*
X347250Y12758D01*
X347750D01*
X347754Y12754D01*
X348412Y12249D01*
X349178Y11931D01*
X350000Y11823D01*
X350822Y11931D01*
X351588Y12249D01*
X352246Y12754D01*
X352250Y12758D01*
X352750D01*
X352754Y12754D01*
X353412Y12249D01*
X354178Y11931D01*
X355000Y11823D01*
X355822Y11931D01*
X356588Y12249D01*
X357246Y12754D01*
X357751Y13412D01*
X358068Y14178D01*
X358177Y15000D01*
X358068Y15822D01*
X357751Y16588D01*
X357246Y17246D01*
X356588Y17751D01*
X355822Y18068D01*
X355000Y18177D01*
D02*
G37*
G36*
X75000D02*
X74178Y18068D01*
X73412Y17751D01*
X72754Y17246D01*
X72750Y17242D01*
X72250D01*
X72246Y17246D01*
X71588Y17751D01*
X70822Y18068D01*
X70000Y18177D01*
X69178Y18068D01*
X68412Y17751D01*
X67754Y17246D01*
X67750Y17242D01*
X67250D01*
X67246Y17246D01*
X66588Y17751D01*
X65822Y18068D01*
X65000Y18177D01*
X64178Y18068D01*
X63412Y17751D01*
X62754Y17246D01*
X62750Y17242D01*
X62250D01*
X62246Y17246D01*
X61588Y17751D01*
X60822Y18068D01*
X60000Y18177D01*
X59178Y18068D01*
X58412Y17751D01*
X57754Y17246D01*
X57750Y17242D01*
X57250D01*
X57246Y17246D01*
X56588Y17751D01*
X55822Y18068D01*
X55000Y18177D01*
X54178Y18068D01*
X53412Y17751D01*
X52754Y17246D01*
X52750Y17242D01*
X52250D01*
X52246Y17246D01*
X51588Y17751D01*
X50822Y18068D01*
X50000Y18177D01*
X49178Y18068D01*
X48412Y17751D01*
X47754Y17246D01*
X47750Y17242D01*
X47250D01*
X47246Y17246D01*
X46588Y17751D01*
X45822Y18068D01*
X45000Y18177D01*
X44178Y18068D01*
X43412Y17751D01*
X42754Y17246D01*
X42750Y17242D01*
X42250D01*
X42246Y17246D01*
X41588Y17751D01*
X40822Y18068D01*
X40000Y18177D01*
X39178Y18068D01*
X38412Y17751D01*
X37754Y17246D01*
X37750Y17242D01*
X37250D01*
X37246Y17246D01*
X36588Y17751D01*
X35822Y18068D01*
X35000Y18177D01*
X34178Y18068D01*
X33412Y17751D01*
X32754Y17246D01*
X32249Y16588D01*
X31931Y15822D01*
X31823Y15000D01*
X31931Y14178D01*
X32249Y13412D01*
X32754Y12754D01*
X33412Y12249D01*
X34178Y11931D01*
X35000Y11823D01*
X35822Y11931D01*
X36588Y12249D01*
X37246Y12754D01*
X37250Y12758D01*
X37750D01*
X37754Y12754D01*
X38412Y12249D01*
X39178Y11931D01*
X40000Y11823D01*
X40822Y11931D01*
X41588Y12249D01*
X42246Y12754D01*
X42250Y12758D01*
X42750D01*
X42754Y12754D01*
X43412Y12249D01*
X44178Y11931D01*
X45000Y11823D01*
X45822Y11931D01*
X46588Y12249D01*
X47246Y12754D01*
X47250Y12758D01*
X47750D01*
X47754Y12754D01*
X48412Y12249D01*
X49178Y11931D01*
X50000Y11823D01*
X50822Y11931D01*
X51588Y12249D01*
X52246Y12754D01*
X52250Y12758D01*
X52750D01*
X52754Y12754D01*
X53412Y12249D01*
X54178Y11931D01*
X55000Y11823D01*
X55822Y11931D01*
X56588Y12249D01*
X57246Y12754D01*
X57250Y12758D01*
X57750D01*
X57754Y12754D01*
X58412Y12249D01*
X59178Y11931D01*
X60000Y11823D01*
X60822Y11931D01*
X61588Y12249D01*
X62246Y12754D01*
X62250Y12758D01*
X62750D01*
X62754Y12754D01*
X63412Y12249D01*
X64178Y11931D01*
X65000Y11823D01*
X65822Y11931D01*
X66588Y12249D01*
X67246Y12754D01*
X67250Y12758D01*
X67750D01*
X67754Y12754D01*
X68412Y12249D01*
X69178Y11931D01*
X70000Y11823D01*
X70822Y11931D01*
X71588Y12249D01*
X72246Y12754D01*
X72250Y12758D01*
X72750D01*
X72754Y12754D01*
X73412Y12249D01*
X74178Y11931D01*
X75000Y11823D01*
X75822Y11931D01*
X76350Y12150D01*
X76850Y11858D01*
Y11850D01*
X83150D01*
Y18150D01*
X76850D01*
Y18142D01*
X76350Y17850D01*
X75822Y18068D01*
X75000Y18177D01*
D02*
G37*
G36*
X375000Y27637D02*
X373023Y27482D01*
X371095Y27019D01*
X369263Y26260D01*
X367572Y25224D01*
X366064Y23936D01*
X364776Y22428D01*
X363740Y20737D01*
X362981Y18905D01*
X362518Y16977D01*
X362363Y15000D01*
X362518Y13023D01*
X362981Y11095D01*
X363740Y9263D01*
X364776Y7572D01*
X366064Y6064D01*
X367572Y4776D01*
X369263Y3740D01*
X371095Y2981D01*
X373023Y2518D01*
X375000Y2363D01*
X376977Y2518D01*
X378905Y2981D01*
X380737Y3740D01*
X382428Y4776D01*
X383936Y6064D01*
X385224Y7572D01*
X386260Y9263D01*
X387019Y11095D01*
X387482Y13023D01*
X387637Y15000D01*
X387482Y16977D01*
X387019Y18905D01*
X386260Y20737D01*
X385224Y22428D01*
X383936Y23936D01*
X382428Y25224D01*
X380737Y26260D01*
X378905Y27019D01*
X376977Y27482D01*
X375000Y27637D01*
D02*
G37*
G36*
X15000D02*
X13023Y27482D01*
X11095Y27019D01*
X9263Y26260D01*
X7572Y25224D01*
X6064Y23936D01*
X4776Y22428D01*
X3740Y20737D01*
X2981Y18905D01*
X2518Y16977D01*
X2363Y15000D01*
X2518Y13023D01*
X2981Y11095D01*
X3740Y9263D01*
X4776Y7572D01*
X6064Y6064D01*
X7572Y4776D01*
X9263Y3740D01*
X11095Y2981D01*
X13023Y2518D01*
X15000Y2363D01*
X16977Y2518D01*
X18905Y2981D01*
X20737Y3740D01*
X22428Y4776D01*
X23936Y6064D01*
X25224Y7572D01*
X26260Y9263D01*
X27019Y11095D01*
X27482Y13023D01*
X27637Y15000D01*
X27482Y16977D01*
X27019Y18905D01*
X26260Y20737D01*
X25224Y22428D01*
X23936Y23936D01*
X22428Y25224D01*
X20737Y26260D01*
X18905Y27019D01*
X16977Y27482D01*
X15000Y27637D01*
D02*
G37*
%LPD*%
D88*
X10000Y96354D02*
D03*
X40000Y57354D02*
D03*
X35000D02*
D03*
X40000Y62354D02*
D03*
X25000D02*
D03*
X30000Y57354D02*
D03*
Y62354D02*
D03*
X25000Y57354D02*
D03*
X35000Y62354D02*
D03*
X10000Y120354D02*
D03*
Y110354D02*
D03*
Y106354D02*
D03*
Y102354D02*
D03*
Y88354D02*
D03*
X76000Y81354D02*
D03*
X10000Y124354D02*
D03*
Y116354D02*
D03*
Y92354D02*
D03*
X63000Y76354D02*
D03*
X69000D02*
D03*
X76000Y75354D02*
D03*
M02*
