G04*
G04 #@! TF.GenerationSoftware,Altium Limited,Altium Designer,21.0.8 (223)*
G04*
G04 Layer_Color=32896*
%FSLAX25Y25*%
%MOIN*%
G70*
G04*
G04 #@! TF.SameCoordinates,7C19FEE0-9405-418D-A0C6-2703AC14626A*
G04*
G04*
G04 #@! TF.FilePolarity,Positive*
G04*
G01*
G75*
%ADD10C,0.00787*%
%ADD12C,0.00394*%
%ADD13C,0.01000*%
D10*
X361539Y62980D02*
X360752D01*
X361539D01*
X358858Y109520D02*
X358071D01*
X358858D01*
X310000Y200079D02*
X358740D01*
Y209921D01*
X306260D02*
X358740D01*
X306260Y205000D02*
Y209921D01*
X83740Y10079D02*
Y15000D01*
X31260Y10079D02*
X83740D01*
X31260D02*
Y19921D01*
X80000D01*
X310000Y10079D02*
X358740D01*
Y19921D01*
X306260D02*
X358740D01*
X306260Y15000D02*
Y19921D01*
X83740Y200079D02*
Y205000D01*
X31260Y200079D02*
X83740D01*
X31260D02*
Y209921D01*
X80000D01*
D12*
X386343Y39457D02*
Y71543D01*
X383661Y85996D02*
Y118083D01*
D13*
X350499Y85499D02*
X352498D01*
X351499D01*
Y80501D01*
X352498Y79501D01*
X353498D01*
X354498Y80501D01*
X348499Y79501D02*
X346500D01*
X347500D01*
Y85499D01*
X348499Y84499D01*
X343501D02*
X342501Y85499D01*
X340502D01*
X339502Y84499D01*
Y80501D01*
X340502Y79501D01*
X342501D01*
X343501Y80501D01*
Y84499D01*
X354000Y38499D02*
X355999D01*
X354999D01*
Y33501D01*
X355999Y32501D01*
X356999D01*
X357998Y33501D01*
X352000D02*
X351001Y32501D01*
X349001D01*
X348002Y33501D01*
Y37499D01*
X349001Y38499D01*
X351001D01*
X352000Y37499D01*
Y36500D01*
X351001Y35500D01*
X348002D01*
X37000Y197999D02*
X38999D01*
X37999D01*
Y193001D01*
X38999Y192001D01*
X39999D01*
X40998Y193001D01*
X31002Y197999D02*
X33001Y196999D01*
X35000Y195000D01*
Y193001D01*
X34001Y192001D01*
X32001D01*
X31002Y193001D01*
Y194000D01*
X32001Y195000D01*
X35000D01*
X336500Y28499D02*
X338499D01*
X337499D01*
Y23501D01*
X338499Y22501D01*
X339499D01*
X340498Y23501D01*
X330502Y28499D02*
X334500D01*
Y25500D01*
X332501Y26500D01*
X331501D01*
X330502Y25500D01*
Y23501D01*
X331501Y22501D01*
X333501D01*
X334500Y23501D01*
X37000Y27999D02*
X38999D01*
X37999D01*
Y23001D01*
X38999Y22001D01*
X39999D01*
X40998Y23001D01*
X32001Y22001D02*
Y27999D01*
X35000Y25000D01*
X31002D01*
X355000Y196999D02*
X356999D01*
X355999D01*
Y192001D01*
X356999Y191001D01*
X357999D01*
X358998Y192001D01*
X353000Y195999D02*
X352001Y196999D01*
X350001D01*
X349002Y195999D01*
Y195000D01*
X350001Y194000D01*
X351001D01*
X350001D01*
X349002Y193000D01*
Y192001D01*
X350001Y191001D01*
X352001D01*
X353000Y192001D01*
M02*
