G04*
G04 #@! TF.GenerationSoftware,Altium Limited,Altium Designer,20.1.8 (145)*
G04*
G04 Layer_Color=32896*
%FSLAX25Y25*%
%MOIN*%
G70*
G04*
G04 #@! TF.SameCoordinates,B2F8307C-7DD5-46F7-85BE-D442A9776901*
G04*
G04*
G04 #@! TF.FilePolarity,Positive*
G04*
G01*
G75*
%ADD10C,0.00787*%
%ADD13C,0.01000*%
D10*
X83740Y200079D02*
Y205000D01*
X31260Y200079D02*
X83740D01*
X31260D02*
Y209921D01*
X80000D01*
X306260Y205000D02*
Y209921D01*
X358740D01*
Y200079D02*
Y209921D01*
X310000Y200079D02*
X358740D01*
X306260Y15000D02*
Y19921D01*
X358740D01*
Y10079D02*
Y19921D01*
X310000Y10079D02*
X358740D01*
X83740D02*
Y15000D01*
X31260Y10079D02*
X83740D01*
X31260D02*
Y19921D01*
X80000D01*
D13*
X79101Y219998D02*
X81101D01*
X80101D01*
Y215000D01*
X81101Y214000D01*
X82100D01*
X83100Y215000D01*
X73103Y219998D02*
X75103Y218998D01*
X77102Y216999D01*
Y215000D01*
X76102Y214000D01*
X74103D01*
X73103Y215000D01*
Y215999D01*
X74103Y216999D01*
X77102D01*
X354101Y29998D02*
X356101D01*
X355101D01*
Y25000D01*
X356101Y24000D01*
X357100D01*
X358100Y25000D01*
X348103Y29998D02*
X352102D01*
Y26999D01*
X350103Y27999D01*
X349103D01*
X348103Y26999D01*
Y25000D01*
X349103Y24000D01*
X351102D01*
X352102Y25000D01*
X79101Y29998D02*
X81101D01*
X80101D01*
Y25000D01*
X81101Y24000D01*
X82100D01*
X83100Y25000D01*
X74103Y24000D02*
Y29998D01*
X77102Y26999D01*
X73103D01*
X354101Y219998D02*
X356101D01*
X355101D01*
Y215000D01*
X356101Y214000D01*
X357100D01*
X358100Y215000D01*
X352102Y218998D02*
X351102Y219998D01*
X349103D01*
X348103Y218998D01*
Y217999D01*
X349103Y216999D01*
X350103D01*
X349103D01*
X348103Y215999D01*
Y215000D01*
X349103Y214000D01*
X351102D01*
X352102Y215000D01*
M02*
