G04*
G04 #@! TF.GenerationSoftware,Altium Limited,Altium Designer,20.1.8 (145)*
G04*
G04 Layer_Color=8421504*
%FSLAX25Y25*%
%MOIN*%
G70*
G04*
G04 #@! TF.SameCoordinates,B2F8307C-7DD5-46F7-85BE-D442A9776901*
G04*
G04*
G04 #@! TF.FilePolarity,Positive*
G04*
G01*
G75*
%ADD14R,0.04016X0.05787*%
%ADD15R,0.02559X0.11221*%
%ADD16R,0.02657X0.02953*%
%ADD17R,0.02657X0.02579*%
%ADD18R,0.17756X0.16910*%
%ADD19R,0.09449X0.12205*%
%ADD20R,0.06004X0.02559*%
%ADD21R,0.03937X0.12992*%
%ADD22R,0.04409X0.04134*%
%ADD23R,0.19685X0.09252*%
%ADD24R,0.03740X0.01968*%
%ADD25R,0.06496X0.06496*%
%ADD26R,0.01968X0.03740*%
%ADD27R,0.07480X0.03543*%
%ADD28R,0.07480X0.12598*%
%ADD29R,0.05118X0.11102*%
G04:AMPARAMS|DCode=30|XSize=58.07mil|YSize=11.81mil|CornerRadius=0mil|HoleSize=0mil|Usage=FLASHONLY|Rotation=315.000|XOffset=0mil|YOffset=0mil|HoleType=Round|Shape=Rectangle|*
%AMROTATEDRECTD30*
4,1,4,-0.02471,0.01636,-0.01636,0.02471,0.02471,-0.01636,0.01636,-0.02471,-0.02471,0.01636,0.0*
%
%ADD30ROTATEDRECTD30*%

G04:AMPARAMS|DCode=31|XSize=58.07mil|YSize=11.81mil|CornerRadius=0mil|HoleSize=0mil|Usage=FLASHONLY|Rotation=45.000|XOffset=0mil|YOffset=0mil|HoleType=Round|Shape=Rectangle|*
%AMROTATEDRECTD31*
4,1,4,-0.01636,-0.02471,-0.02471,-0.01636,0.01636,0.02471,0.02471,0.01636,-0.01636,-0.02471,0.0*
%
%ADD31ROTATEDRECTD31*%

%ADD32R,0.05512X0.04528*%
%ADD33R,0.06102X0.03937*%
%ADD34R,0.02362X0.04528*%
%ADD35R,0.04016X0.07008*%
%ADD36R,0.08858X0.06890*%
%ADD37R,0.11102X0.05118*%
%ADD38R,0.03740X0.05512*%
%ADD39R,0.03937X0.03150*%
%ADD40R,0.03150X0.03150*%
%ADD41R,0.06299X0.03937*%
%ADD42R,0.07087X0.07480*%
%ADD43R,0.09055X0.05118*%
%ADD44R,0.06299X0.05512*%
%ADD45R,0.01575X0.05315*%
%ADD46R,0.04134X0.05512*%
D14*
X163150Y48000D02*
D03*
X156850D02*
D03*
X173850Y81000D02*
D03*
X180150D02*
D03*
Y102000D02*
D03*
X173850D02*
D03*
X219850Y15000D02*
D03*
X226150D02*
D03*
X161000Y35000D02*
D03*
X167299D02*
D03*
X164150Y57000D02*
D03*
X157850D02*
D03*
X235850Y23000D02*
D03*
X242150D02*
D03*
X142850Y67000D02*
D03*
X149150D02*
D03*
D15*
X114000Y22594D02*
D03*
Y9405D02*
D03*
X109000Y22594D02*
D03*
Y9405D02*
D03*
X104000Y22594D02*
D03*
Y9405D02*
D03*
X99000Y22594D02*
D03*
Y9405D02*
D03*
X94000Y22594D02*
D03*
Y9405D02*
D03*
D16*
X100795Y142154D02*
D03*
X95598D02*
D03*
X90402D02*
D03*
X85205D02*
D03*
X125795D02*
D03*
X120598D02*
D03*
X115402D02*
D03*
X110205D02*
D03*
X100795Y175106D02*
D03*
X95598D02*
D03*
X90402D02*
D03*
X85205D02*
D03*
X125795Y174153D02*
D03*
X120598D02*
D03*
X115402D02*
D03*
X110205D02*
D03*
D17*
X85205Y120291D02*
D03*
X90402D02*
D03*
X95598D02*
D03*
X100795D02*
D03*
X110205D02*
D03*
X115402D02*
D03*
X120598D02*
D03*
X125795D02*
D03*
X85205Y153244D02*
D03*
X90402D02*
D03*
X95598D02*
D03*
X100795D02*
D03*
X110205Y152291D02*
D03*
X115402D02*
D03*
X120598D02*
D03*
X125795D02*
D03*
D18*
X93000Y130047D02*
D03*
X118000D02*
D03*
X93000Y163000D02*
D03*
X118000Y162047D02*
D03*
D19*
X65000Y147000D02*
D03*
X146000D02*
D03*
D20*
X75677Y154500D02*
D03*
Y149500D02*
D03*
Y144500D02*
D03*
Y139500D02*
D03*
X54323D02*
D03*
Y144500D02*
D03*
Y149500D02*
D03*
Y154500D02*
D03*
X156677D02*
D03*
Y149500D02*
D03*
Y144500D02*
D03*
Y139500D02*
D03*
X135323D02*
D03*
Y144500D02*
D03*
Y149500D02*
D03*
Y154500D02*
D03*
D21*
X46673Y59854D02*
D03*
D22*
X27827Y73929D02*
D03*
D23*
X32500Y59854D02*
D03*
D24*
X13110Y47256D02*
D03*
Y50406D02*
D03*
Y53555D02*
D03*
Y56705D02*
D03*
Y59854D02*
D03*
Y63004D02*
D03*
Y66154D02*
D03*
Y69303D02*
D03*
Y72453D02*
D03*
X51890D02*
D03*
Y69303D02*
D03*
Y66154D02*
D03*
Y63004D02*
D03*
Y59854D02*
D03*
Y56705D02*
D03*
Y53555D02*
D03*
Y50406D02*
D03*
Y47256D02*
D03*
D25*
X14488Y77866D02*
D03*
X50512D02*
D03*
Y41843D02*
D03*
X14488D02*
D03*
D26*
X19902Y79244D02*
D03*
X23051D02*
D03*
X26201D02*
D03*
X29350D02*
D03*
X32500D02*
D03*
X35650D02*
D03*
X38799D02*
D03*
X41949D02*
D03*
X45098D02*
D03*
Y40465D02*
D03*
X41949D02*
D03*
X38799D02*
D03*
X35650D02*
D03*
X32500D02*
D03*
X29350D02*
D03*
X26201D02*
D03*
X23051D02*
D03*
X19902D02*
D03*
D27*
X81992Y67409D02*
D03*
Y58354D02*
D03*
Y49299D02*
D03*
D28*
X106008Y58354D02*
D03*
D29*
X82000Y78354D02*
D03*
X92709D02*
D03*
X15646Y120354D02*
D03*
X26354D02*
D03*
X15646Y106354D02*
D03*
X26354D02*
D03*
X15646Y92354D02*
D03*
X26354D02*
D03*
D30*
X215466Y93414D02*
D03*
X214074Y92022D02*
D03*
X212682Y90630D02*
D03*
X211290Y89238D02*
D03*
X209898Y87846D02*
D03*
X208506Y86454D02*
D03*
X207114Y85062D02*
D03*
X205722Y83670D02*
D03*
X204330Y82278D02*
D03*
X202938Y80886D02*
D03*
X201546Y79494D02*
D03*
X200154Y78102D02*
D03*
X198762Y76710D02*
D03*
X197370Y75318D02*
D03*
X195978Y73926D02*
D03*
X194587Y72534D02*
D03*
X226534Y40587D02*
D03*
X227926Y41978D02*
D03*
X229318Y43370D02*
D03*
X230710Y44762D02*
D03*
X232102Y46154D02*
D03*
X233494Y47546D02*
D03*
X234886Y48938D02*
D03*
X236278Y50330D02*
D03*
X237670Y51722D02*
D03*
X239062Y53114D02*
D03*
X240454Y54506D02*
D03*
X241846Y55898D02*
D03*
X243238Y57290D02*
D03*
X244630Y58682D02*
D03*
X246022Y60074D02*
D03*
X247413Y61466D02*
D03*
D31*
X194587D02*
D03*
X195978Y60074D02*
D03*
X197370Y58682D02*
D03*
X198762Y57290D02*
D03*
X200154Y55898D02*
D03*
X201546Y54506D02*
D03*
X202938Y53114D02*
D03*
X204330Y51722D02*
D03*
X205722Y50330D02*
D03*
X207114Y48938D02*
D03*
X208506Y47546D02*
D03*
X209898Y46154D02*
D03*
X211290Y44762D02*
D03*
X212682Y43370D02*
D03*
X214074Y41978D02*
D03*
X215466Y40587D02*
D03*
X247413Y72534D02*
D03*
X246022Y73926D02*
D03*
X244630Y75318D02*
D03*
X243238Y76710D02*
D03*
X241846Y78102D02*
D03*
X240454Y79494D02*
D03*
X239062Y80886D02*
D03*
X237670Y82278D02*
D03*
X236278Y83670D02*
D03*
X234886Y85062D02*
D03*
X233494Y86454D02*
D03*
X232102Y87846D02*
D03*
X230710Y89238D02*
D03*
X229318Y90630D02*
D03*
X227926Y92022D02*
D03*
X226534Y93414D02*
D03*
D32*
X181331Y88850D02*
D03*
X172669D02*
D03*
Y95150D02*
D03*
X181331D02*
D03*
D33*
X146335Y8701D02*
D03*
X125665D02*
D03*
X146335Y21299D02*
D03*
X125665D02*
D03*
D34*
X275260Y72118D02*
D03*
X279000D02*
D03*
X282740D02*
D03*
Y61882D02*
D03*
X279000D02*
D03*
X275260D02*
D03*
D35*
X219496Y23000D02*
D03*
X226504D02*
D03*
D36*
X66000Y57449D02*
D03*
Y69260D02*
D03*
D37*
X71000Y24646D02*
D03*
Y35354D02*
D03*
D38*
X235260Y15000D02*
D03*
X242740D02*
D03*
Y7000D02*
D03*
X235260D02*
D03*
D39*
X142000Y56150D02*
D03*
Y49850D02*
D03*
X128000Y56150D02*
D03*
Y49850D02*
D03*
X135000Y56150D02*
D03*
Y49850D02*
D03*
X149000Y56150D02*
D03*
Y49850D02*
D03*
D40*
X142000Y42953D02*
D03*
Y37047D02*
D03*
X128000Y42953D02*
D03*
Y37047D02*
D03*
X135000Y42953D02*
D03*
Y37047D02*
D03*
X149000Y42953D02*
D03*
Y37047D02*
D03*
D41*
X173284Y9110D02*
D03*
Y16000D02*
D03*
Y22890D02*
D03*
X158716Y9110D02*
D03*
Y16000D02*
D03*
Y22890D02*
D03*
D42*
X286528Y6469D02*
D03*
X277472D02*
D03*
D43*
X296764D02*
D03*
X267236D02*
D03*
D44*
X294598Y16114D02*
D03*
X269402D02*
D03*
D45*
X287118Y17000D02*
D03*
X284559D02*
D03*
X282000D02*
D03*
X279441D02*
D03*
X276882D02*
D03*
D46*
X46480Y90000D02*
D03*
X39000D02*
D03*
X34260Y28000D02*
D03*
X41740D02*
D03*
M02*
