M48
;Layer_Color=9474304
;FILE_FORMAT=2:4
INCH,TZ
;TYPE=PLATED
T1F00S00C0.0177
T2F00S00C0.0315
T3F00S00C0.1339
%
T01
X3500Y3535
X5050Y3350
X8500Y650
X9350Y5600
X10101
X10900
X13450Y5250
X13100Y4800
X14750Y4350
X15250
X15750
Y3850
Y3350
X14700Y3300
X12850Y2900
Y2350
X15100Y1050
X16000Y600
X18850Y950
X18800Y1950
X20200
X20850Y2350
Y950
X22650Y2150
X24300
X23900Y3300
X24200Y4800
X22500Y3800
X20200Y4700
X19850Y4400
X19400
X19650Y5250
X17800Y4850
Y4350
X17250Y4850
Y5350
X16700
Y4850
Y4350
X16000Y5600
X15450
X24600Y4500
X25900Y3150
X27000Y450
X27499
X28000
X29000
X29700Y4550
Y5100
X30450Y4750
X34350
Y5250
X37300Y4800
X37965Y3926
X37300Y5800
Y6300
X36075Y6298
X33750Y6250
Y5750
X30400Y6250
X27300Y7000
X25000Y6850
X24900Y10850
X25400
Y11500
X25900Y11600
X26250Y11200
X26650Y11600
X27650Y11950
X26400Y13100
X24800Y13200
Y14000
Y14800
X24900Y16100
X25400
Y16750
Y17400
X24900
X24800Y18450
Y19250
Y20050
X27300Y19907
Y20507
Y19307
X28700
Y19907
Y20507
Y17200
Y16600
Y16000
X27300
Y16600
Y17200
X25950Y15100
X25400Y12150
X24900
X29250Y13100
X30219Y12200
X32600Y11800
Y12600
Y13350
Y14150
X33700Y14650
X34200
X35800Y14500
Y15300
X36600
X37400
X38200
Y14500
X37400
X36600
Y13700
X37400
X38200
X37697Y12320
Y11828
X35800Y11450
Y9450
X34150Y10400
X35800Y13700
Y16950
Y17750
Y18550
X36600
X37400
X38200
Y17750
X37400
X36600
Y16950
X37400
X38200
X34100Y17250
Y17900
X33271
Y17250
X32400Y17750
X31800
X31150
X30550
X30600Y15650
X31150
X31850
X32400
X37697Y8580
X37965Y7174
X22900Y6750
Y8150
X20950Y8800
X19700
X18550Y8650
Y7750
Y6850
X18100
X19700Y6500
X20900
X21450Y5900
X22050
Y10100
X24400Y10850
Y11500
Y12150
X24000Y13200
Y14000
X23200
Y13200
Y14800
X24000
X24400Y16750
Y17400
X24000Y18450
Y19250
X23200
Y18450
Y20050
X24000
X22009Y15600
X21409
X21705Y15000
X21409Y14400
X22009
X17600
X17000
X17295Y15000
X17000Y15600
X17600
X15900Y16100
X15400
Y16750
Y17400
X15900
X16400
Y16750
X15800Y18450
Y19250
X15000
Y18450
X14200
Y19250
Y20050
X15000
X15800
X11700Y19907
Y20507
Y19307
X10300
Y19907
Y20507
Y17200
Y16600
Y16000
X11700
Y16600
Y17200
X12150Y15100
X12850
X14200Y14800
X15000
X15800
Y14000
Y13200
X15000
X14200
Y14000
X15000
X15400Y12150
X15900
X16400
Y11500
Y10850
X15900
X15400
Y11500
X12850Y11600
X12622Y13129
X10800Y13050
X11650Y14650
X11850Y8500
X12350
X11850Y7250
Y6350
X10900Y6600
Y7600
X10101
X9350
X9200Y8400
Y8950
X9350Y6600
X13750Y6900
X15250Y6850
Y7750
X14700Y7900
X15250Y8650
X15700Y8250
X16900Y8650
X7100
X6750Y8150
X6250
X5100Y9000
X3200Y8835
Y9235
Y9635
Y10235
Y10635
Y11035
Y11635
Y12035
Y12435
X3150Y13700
X2350
X1550
X750
Y14500
X1550
X2350
X3150
Y15300
X2350
X1550
X750
X800Y16950
X1600
X2400
X3200
Y17750
X2400
X1600
X800
Y18550
X1600
X2400
X3200
X4871Y17900
Y17250
X5700
Y17900
X6550Y18000
X7150
X7800
X8400
Y15900
X7800
X7150
X6550
X6350Y14150
Y13350
Y12600
Y11800
X5600Y11650
X5150Y12700
X5300Y14650
X4800
X5800
X8731Y12200
X1000Y12100
Y11700
Y11000
Y10600
Y10200
Y9600
Y9200
Y8800
X1449Y7787
X2700Y6000
X3250Y5985
X3800Y6000
X4400Y7335
X5650Y6350
Y5700
X6200
X6750
X1000Y12500
T02
X3500Y1500
X4000
X4500
X5000
X5500
X6000
X6500
X7000
X7500
X8000
X31000
X31500
X32000
X32500
X33000
X33500
X34000
X34500
X35000
X35500
Y20500
X35000
X34500
X34000
X33500
X33000
X32500
X32000
X31500
X31000
X8000
X7500
X7000
X6500
X6000
X5500
X5000
X4500
X4000
X3500
T03
X1500Y1500
X37500
Y20500
X1500
M30
