G04*
G04 #@! TF.GenerationSoftware,Altium Limited,Altium Designer,21.0.8 (223)*
G04*
G04 Layer_Color=8388736*
%FSLAX25Y25*%
%MOIN*%
G70*
G04*
G04 #@! TF.SameCoordinates,7920E5AB-F19E-47E3-9C16-B8E2F772CBAB*
G04*
G04*
G04 #@! TF.FilePolarity,Negative*
G04*
G01*
G75*
%ADD68R,0.04528X0.02362*%
%ADD74C,0.03543*%
%ADD75R,0.03543X0.03543*%
%ADD76R,0.01567X0.06201*%
%ADD77R,0.06201X0.01567*%
%ADD78R,0.09055X0.06693*%
%ADD79R,0.07480X0.03150*%
%ADD80C,0.06299*%
%ADD81R,0.04331X0.03937*%
%ADD82R,0.03543X0.04331*%
%ADD83R,0.04331X0.03543*%
%ADD84R,0.02520X0.04095*%
%ADD85R,0.04095X0.02520*%
%ADD86R,0.05906X0.04921*%
%ADD87R,0.02362X0.04528*%
%ADD88R,0.06102X0.25984*%
%ADD89R,0.04724X0.02953*%
%ADD90R,0.02953X0.04724*%
%ADD91C,0.01575*%
%ADD92R,0.03465X0.04252*%
%ADD93R,0.04252X0.03465*%
%ADD94R,0.12598X0.09055*%
%ADD95R,0.06299X0.06378*%
%ADD96R,0.08268X0.04724*%
%ADD97R,0.03543X0.04724*%
%ADD98R,0.01968X0.05709*%
%ADD99R,0.06693X0.05906*%
%ADD100R,0.09449X0.05512*%
%ADD101R,0.07480X0.07874*%
%ADD102R,0.11102X0.05354*%
%ADD103R,0.06280X0.12008*%
%ADD104R,0.06280X0.03150*%
G04:AMPARAMS|DCode=105|XSize=318.9mil|YSize=240.16mil|CornerRadius=13.78mil|HoleSize=0mil|Usage=FLASHONLY|Rotation=0.000|XOffset=0mil|YOffset=0mil|HoleType=Round|Shape=RoundedRectangle|*
%AMROUNDEDRECTD105*
21,1,0.31890,0.21260,0,0,0.0*
21,1,0.29134,0.24016,0,0,0.0*
1,1,0.02756,0.14567,-0.10630*
1,1,0.02756,-0.14567,-0.10630*
1,1,0.02756,-0.14567,0.10630*
1,1,0.02756,0.14567,0.10630*
%
%ADD105ROUNDEDRECTD105*%
%ADD106R,0.02756X0.05315*%
%ADD107R,0.14370X0.19685*%
%ADD108R,0.06398X0.02953*%
%ADD109R,0.05118X0.09055*%
%ADD110R,0.23228X0.25591*%
%ADD111R,0.08858X0.17323*%
%ADD112R,0.01968X0.05118*%
%ADD113R,0.02165X0.06004*%
%ADD114R,0.07795X0.07008*%
%ADD115R,0.05315X0.02756*%
%ADD116R,0.06181X0.04409*%
%ADD117R,0.06890X0.06890*%
%ADD118R,0.02362X0.04134*%
%ADD119R,0.04134X0.02362*%
%ADD120R,0.20079X0.09646*%
%ADD121R,0.04803X0.04528*%
%ADD122R,0.04331X0.13386*%
%ADD123R,0.04331X0.06496*%
%ADD124R,0.02953X0.11614*%
%ADD125R,0.07874X0.03937*%
%ADD126R,0.07874X0.12992*%
%ADD127R,0.04921X0.02756*%
%ADD128R,0.09252X0.07284*%
%ADD129R,0.05512X0.11496*%
%ADD130R,0.11496X0.05512*%
%ADD131R,0.06693X0.04331*%
%ADD132R,0.04528X0.05906*%
%ADD133C,0.03347*%
%ADD134R,0.04724X0.06693*%
%ADD135O,0.04724X0.06693*%
%ADD136C,0.03740*%
%ADD137C,0.24016*%
G36*
X349165Y67066D02*
X347000Y64900D01*
X344834Y67066D01*
X344834Y70500D01*
X349165D01*
X349165Y67066D01*
D02*
G37*
G36*
X344165D02*
X342000Y64900D01*
X339834Y67066D01*
X339834Y70500D01*
X344165D01*
X344165Y67066D01*
D02*
G37*
G36*
X349166Y60400D02*
X344835D01*
X344835Y66465D01*
X347000Y64300D01*
X349165Y66465D01*
X349166Y60400D01*
D02*
G37*
G36*
X344165D02*
X339835D01*
X339835Y66465D01*
X342000Y64300D01*
X344165Y66465D01*
X344165Y60400D01*
D02*
G37*
D68*
X251020Y76000D02*
D03*
X259980D02*
D03*
X266961Y93000D02*
D03*
X258000D02*
D03*
D74*
X310000Y205000D02*
X355000D01*
X35000Y15000D02*
X80000D01*
X310000D02*
X355000D01*
X35000Y205000D02*
X80000D01*
D75*
X89500Y12453D02*
D03*
Y6547D02*
D03*
X96500D02*
D03*
Y12453D02*
D03*
X103500D02*
D03*
Y6547D02*
D03*
X110500D02*
D03*
Y12453D02*
D03*
D76*
X177764Y62590D02*
D03*
X175795D02*
D03*
X173827D02*
D03*
X171858D02*
D03*
X169890D02*
D03*
X167921D02*
D03*
X165953D02*
D03*
X163984D02*
D03*
X162016D02*
D03*
X160047D02*
D03*
X158079D02*
D03*
X156110D02*
D03*
X154142D02*
D03*
X152173D02*
D03*
X150205D02*
D03*
X148236D02*
D03*
Y17410D02*
D03*
X150205D02*
D03*
X152173D02*
D03*
X154142D02*
D03*
X156110D02*
D03*
X158079D02*
D03*
X160047D02*
D03*
X162016D02*
D03*
X163984D02*
D03*
X165953D02*
D03*
X167921D02*
D03*
X169890D02*
D03*
X171858D02*
D03*
X173827D02*
D03*
X175795D02*
D03*
X177764D02*
D03*
D77*
X140409Y54764D02*
D03*
Y52795D02*
D03*
Y50827D02*
D03*
Y48858D02*
D03*
Y46890D02*
D03*
Y44921D02*
D03*
Y42953D02*
D03*
Y40984D02*
D03*
Y39016D02*
D03*
Y37047D02*
D03*
Y35079D02*
D03*
Y33110D02*
D03*
Y31142D02*
D03*
Y29173D02*
D03*
Y27205D02*
D03*
Y25236D02*
D03*
X185591D02*
D03*
Y27205D02*
D03*
Y29173D02*
D03*
Y31142D02*
D03*
Y33110D02*
D03*
Y35079D02*
D03*
Y37047D02*
D03*
Y39016D02*
D03*
Y40984D02*
D03*
Y42953D02*
D03*
Y44921D02*
D03*
Y46890D02*
D03*
Y48858D02*
D03*
Y50827D02*
D03*
Y52795D02*
D03*
Y54764D02*
D03*
D78*
X379650Y39260D02*
D03*
Y71740D02*
D03*
X377000Y123661D02*
D03*
Y81339D02*
D03*
D79*
X366657Y62882D02*
D03*
Y57961D02*
D03*
Y53039D02*
D03*
Y48118D02*
D03*
X364008Y114803D02*
D03*
Y109882D02*
D03*
Y104961D02*
D03*
Y100039D02*
D03*
Y95118D02*
D03*
Y90197D02*
D03*
D80*
X90500Y45500D02*
D03*
X83500Y34500D02*
D03*
X76500Y45500D02*
D03*
D81*
X123500Y26850D02*
D03*
Y33150D02*
D03*
D82*
X312850Y81000D02*
D03*
X319150D02*
D03*
X109650Y46500D02*
D03*
X103350D02*
D03*
X160350Y10500D02*
D03*
X166650D02*
D03*
X147150Y74500D02*
D03*
X140850D02*
D03*
X124650Y13000D02*
D03*
X118350D02*
D03*
Y6000D02*
D03*
X124650D02*
D03*
D83*
X49000Y139850D02*
D03*
Y146150D02*
D03*
X305000Y28350D02*
D03*
Y34650D02*
D03*
X299000Y25850D02*
D03*
Y32150D02*
D03*
X339000Y46850D02*
D03*
Y53150D02*
D03*
X57937Y115925D02*
D03*
Y122224D02*
D03*
Y104425D02*
D03*
Y110724D02*
D03*
X345500Y129850D02*
D03*
Y136150D02*
D03*
Y117850D02*
D03*
Y124150D02*
D03*
X208000Y59150D02*
D03*
Y52850D02*
D03*
X202000D02*
D03*
Y59150D02*
D03*
X89500Y25150D02*
D03*
Y18850D02*
D03*
X96500D02*
D03*
Y25150D02*
D03*
D84*
X344000Y84000D02*
D03*
X337701D02*
D03*
X83850Y113500D02*
D03*
X90150D02*
D03*
X282697Y140403D02*
D03*
X276398D02*
D03*
X111650Y139500D02*
D03*
X105350D02*
D03*
X252350Y82000D02*
D03*
X258650D02*
D03*
X252350Y87000D02*
D03*
X258650D02*
D03*
X301350Y113500D02*
D03*
X307650D02*
D03*
D85*
X52500Y104350D02*
D03*
Y110650D02*
D03*
X157000Y78650D02*
D03*
Y72350D02*
D03*
X181000D02*
D03*
Y78650D02*
D03*
X307000Y74850D02*
D03*
Y81150D02*
D03*
X49000Y129350D02*
D03*
Y135650D02*
D03*
X83000Y143650D02*
D03*
Y137350D02*
D03*
X98500Y124850D02*
D03*
Y131150D02*
D03*
X228500Y74850D02*
D03*
Y81150D02*
D03*
X272500Y84650D02*
D03*
Y78350D02*
D03*
X300500Y145000D02*
D03*
Y138701D02*
D03*
X294500Y124850D02*
D03*
Y131150D02*
D03*
D86*
X173231Y78750D02*
D03*
X164569D02*
D03*
Y72450D02*
D03*
X173231D02*
D03*
D87*
X261500Y13980D02*
D03*
Y5020D02*
D03*
X89000Y144980D02*
D03*
Y136020D02*
D03*
X96000D02*
D03*
Y144980D02*
D03*
X266500Y76020D02*
D03*
Y84980D02*
D03*
X306500Y144980D02*
D03*
Y136020D02*
D03*
X294500D02*
D03*
Y144980D02*
D03*
D88*
X331815Y123500D02*
D03*
X321185D02*
D03*
X65685Y129500D02*
D03*
X76315D02*
D03*
D89*
X64866Y111279D02*
D03*
Y103720D02*
D03*
X73134Y107500D02*
D03*
D90*
X343779Y98134D02*
D03*
X336221D02*
D03*
X340000Y89866D02*
D03*
D91*
X347000Y62500D02*
D03*
Y68500D02*
D03*
X342000D02*
D03*
Y62500D02*
D03*
D92*
X331256Y68500D02*
D03*
X325744D02*
D03*
X54244Y146000D02*
D03*
X59756D02*
D03*
X337744Y145500D02*
D03*
X343256D02*
D03*
X197756Y19500D02*
D03*
X192244D02*
D03*
X141744Y69000D02*
D03*
X147256D02*
D03*
X118244Y48500D02*
D03*
X123756D02*
D03*
D93*
X297500Y56988D02*
D03*
Y62500D02*
D03*
X192000Y58256D02*
D03*
Y52744D02*
D03*
X133000Y27756D02*
D03*
Y22244D02*
D03*
D94*
X233189Y93500D02*
D03*
D95*
X245866D02*
D03*
D96*
X89559Y107000D02*
D03*
X307559D02*
D03*
D97*
X82079D02*
D03*
X300079D02*
D03*
D98*
X240118Y16532D02*
D03*
X229882D02*
D03*
X232441D02*
D03*
X235000D02*
D03*
X237559D02*
D03*
D99*
X222402Y15646D02*
D03*
X247598D02*
D03*
D100*
X220236Y6000D02*
D03*
X249764D02*
D03*
D101*
X230472D02*
D03*
X239528D02*
D03*
D102*
X308000Y164264D02*
D03*
Y174736D02*
D03*
X321000D02*
D03*
Y164264D02*
D03*
X68500Y174736D02*
D03*
Y164264D02*
D03*
X81000Y174736D02*
D03*
Y164264D02*
D03*
D103*
X341146Y175862D02*
D03*
X332854D02*
D03*
X57146D02*
D03*
X48854D02*
D03*
D104*
X341146Y166709D02*
D03*
X332854D02*
D03*
X57146D02*
D03*
X48854D02*
D03*
D105*
X370000Y145000D02*
D03*
X19500D02*
D03*
X20000Y177500D02*
D03*
X370000D02*
D03*
D106*
X84866Y119579D02*
D03*
X89000D02*
D03*
X93134D02*
D03*
Y129421D02*
D03*
X89000D02*
D03*
X84866D02*
D03*
X302366Y119579D02*
D03*
X306500D02*
D03*
X310634D02*
D03*
Y129421D02*
D03*
X306500D02*
D03*
X302366D02*
D03*
D107*
X217047Y150000D02*
D03*
X172953D02*
D03*
D108*
X331677Y62500D02*
D03*
Y57500D02*
D03*
Y52500D02*
D03*
Y47500D02*
D03*
X310323D02*
D03*
Y52500D02*
D03*
Y57500D02*
D03*
Y62500D02*
D03*
D109*
X158976Y167697D02*
D03*
X141024D02*
D03*
X248976D02*
D03*
X231024D02*
D03*
X158976Y115197D02*
D03*
X141024D02*
D03*
X248976D02*
D03*
X231024D02*
D03*
D110*
X150000Y192500D02*
D03*
X240000D02*
D03*
X150000Y140000D02*
D03*
X240000D02*
D03*
D111*
X280000Y199035D02*
D03*
Y165965D02*
D03*
X110000Y199035D02*
D03*
Y165965D02*
D03*
D112*
X50441Y159740D02*
D03*
X55559D02*
D03*
Y152260D02*
D03*
X53000D02*
D03*
X50441D02*
D03*
X334441Y159240D02*
D03*
X339559D02*
D03*
Y151760D02*
D03*
X337000D02*
D03*
X334441D02*
D03*
D113*
X276709Y116695D02*
D03*
X279268D02*
D03*
X281827D02*
D03*
X284386D02*
D03*
Y134112D02*
D03*
X281827D02*
D03*
X279268D02*
D03*
X276709D02*
D03*
X105882Y115583D02*
D03*
X108441D02*
D03*
X111000D02*
D03*
X113559D02*
D03*
Y133000D02*
D03*
X111000D02*
D03*
X108441D02*
D03*
X105882D02*
D03*
D114*
X280547Y125403D02*
D03*
X109721Y124291D02*
D03*
D115*
X234579Y80134D02*
D03*
Y76000D02*
D03*
Y71866D02*
D03*
X244421D02*
D03*
Y76000D02*
D03*
Y80134D02*
D03*
D116*
X131500Y33850D02*
D03*
Y40150D02*
D03*
D117*
X14488Y41843D02*
D03*
X50512D02*
D03*
Y77866D02*
D03*
X14488D02*
D03*
D118*
X19902Y40465D02*
D03*
X23051D02*
D03*
X26201D02*
D03*
X29350D02*
D03*
X32500D02*
D03*
X35650D02*
D03*
X38799D02*
D03*
X41949D02*
D03*
X45098D02*
D03*
Y79244D02*
D03*
X41949D02*
D03*
X38799D02*
D03*
X35650D02*
D03*
X32500D02*
D03*
X29350D02*
D03*
X26201D02*
D03*
X23051D02*
D03*
X19902D02*
D03*
D119*
X51890Y47256D02*
D03*
Y50406D02*
D03*
Y53555D02*
D03*
Y56705D02*
D03*
Y59854D02*
D03*
Y63004D02*
D03*
Y66154D02*
D03*
Y69303D02*
D03*
Y72453D02*
D03*
X13110D02*
D03*
Y69303D02*
D03*
Y66154D02*
D03*
Y63004D02*
D03*
Y59854D02*
D03*
Y56705D02*
D03*
Y53555D02*
D03*
Y50406D02*
D03*
Y47256D02*
D03*
D120*
X32500Y59854D02*
D03*
D121*
X27827Y73929D02*
D03*
D122*
X46673Y59854D02*
D03*
D123*
X130799Y78335D02*
D03*
Y57665D02*
D03*
X118201Y78335D02*
D03*
Y57665D02*
D03*
D124*
X270000Y12905D02*
D03*
Y26094D02*
D03*
X275000Y12905D02*
D03*
Y26094D02*
D03*
X280000Y12905D02*
D03*
Y26094D02*
D03*
X285000Y12905D02*
D03*
Y26094D02*
D03*
X290000Y12905D02*
D03*
Y26094D02*
D03*
D125*
X76992Y75055D02*
D03*
Y66000D02*
D03*
Y56945D02*
D03*
D126*
X101008Y66000D02*
D03*
D127*
X193382Y5760D02*
D03*
Y9500D02*
D03*
Y13240D02*
D03*
X203618D02*
D03*
Y9500D02*
D03*
Y5760D02*
D03*
D128*
X65000Y63595D02*
D03*
Y75406D02*
D03*
D129*
X26354Y120354D02*
D03*
X15646D02*
D03*
X26354Y106354D02*
D03*
X15646D02*
D03*
X26354Y92354D02*
D03*
X15646D02*
D03*
X86854Y86500D02*
D03*
X76146D02*
D03*
D130*
X65000Y51854D02*
D03*
Y41146D02*
D03*
D131*
X210283Y69610D02*
D03*
Y76500D02*
D03*
Y83390D02*
D03*
X195717Y69610D02*
D03*
Y76500D02*
D03*
Y83390D02*
D03*
D132*
X46240Y89500D02*
D03*
X38760D02*
D03*
X34260Y28000D02*
D03*
X41740D02*
D03*
D133*
X185500Y68500D02*
Y86500D01*
X169000D02*
X185500D01*
X169000Y86500D02*
X169000Y86500D01*
X152500Y86500D02*
X169000D01*
X152500Y68500D02*
Y86500D01*
D134*
X310000Y205000D02*
D03*
X80000Y15000D02*
D03*
X310000D02*
D03*
X80000Y205000D02*
D03*
D135*
X315000D02*
D03*
X320000D02*
D03*
X325000D02*
D03*
X330000D02*
D03*
X335000D02*
D03*
X340000D02*
D03*
X345000D02*
D03*
X350000D02*
D03*
X355000D02*
D03*
X35000Y15000D02*
D03*
X40000D02*
D03*
X45000D02*
D03*
X50000D02*
D03*
X55000D02*
D03*
X60000D02*
D03*
X65000D02*
D03*
X70000D02*
D03*
X75000D02*
D03*
X315000D02*
D03*
X320000D02*
D03*
X325000D02*
D03*
X330000D02*
D03*
X335000D02*
D03*
X340000D02*
D03*
X345000D02*
D03*
X350000D02*
D03*
X355000D02*
D03*
X35000Y205000D02*
D03*
X40000D02*
D03*
X45000D02*
D03*
X50000D02*
D03*
X55000D02*
D03*
X60000D02*
D03*
X65000D02*
D03*
X70000D02*
D03*
X75000D02*
D03*
D136*
X366000Y153000D02*
D03*
X374000D02*
D03*
X382000D02*
D03*
X358000D02*
D03*
Y145000D02*
D03*
X366000D02*
D03*
X374000D02*
D03*
X382000D02*
D03*
Y137000D02*
D03*
X374000D02*
D03*
X366000D02*
D03*
X358000D02*
D03*
X7500D02*
D03*
X15500D02*
D03*
X23500D02*
D03*
X31500D02*
D03*
Y145000D02*
D03*
X23500D02*
D03*
X15500D02*
D03*
X7500D02*
D03*
Y153000D02*
D03*
X31500D02*
D03*
X23500D02*
D03*
X15500D02*
D03*
X8000Y169500D02*
D03*
X16000D02*
D03*
X24000D02*
D03*
X32000D02*
D03*
Y177500D02*
D03*
X24000D02*
D03*
X16000D02*
D03*
X8000D02*
D03*
Y185500D02*
D03*
X32000D02*
D03*
X24000D02*
D03*
X16000D02*
D03*
X366000D02*
D03*
X374000D02*
D03*
X382000D02*
D03*
X358000D02*
D03*
Y177500D02*
D03*
X366000D02*
D03*
X374000D02*
D03*
X382000D02*
D03*
Y169500D02*
D03*
X374000D02*
D03*
X366000D02*
D03*
X358000D02*
D03*
X40000Y62500D02*
D03*
X35000D02*
D03*
X30000D02*
D03*
X25000D02*
D03*
Y57500D02*
D03*
X30000D02*
D03*
X35000D02*
D03*
X40000D02*
D03*
D137*
X15000Y15000D02*
D03*
X375000D02*
D03*
X15000Y205000D02*
D03*
X375000D02*
D03*
M02*
