G04*
G04 #@! TF.GenerationSoftware,Altium Limited,Altium Designer,20.1.8 (145)*
G04*
G04 Layer_Color=65535*
%FSLAX25Y25*%
%MOIN*%
G70*
G04*
G04 #@! TF.SameCoordinates,B2F8307C-7DD5-46F7-85BE-D442A9776901*
G04*
G04*
G04 #@! TF.FilePolarity,Positive*
G04*
G01*
G75*
%ADD10C,0.00787*%
%ADD11C,0.00984*%
%ADD12C,0.00394*%
%ADD13C,0.01000*%
D10*
X100795Y146181D02*
Y145394D01*
Y146181D01*
X125795D02*
Y145394D01*
Y146181D01*
X100795Y179134D02*
Y178347D01*
Y179134D01*
X182000Y100000D02*
Y99606D01*
Y100000D01*
X119858Y20906D02*
X120252D01*
X119858D01*
X125795Y178181D02*
Y177394D01*
Y178181D01*
X178606Y6000D02*
X179000D01*
X178606D01*
X277276Y21232D02*
X276488D01*
X277276D01*
X51319Y157158D02*
X57323D01*
X87110Y71150D02*
X100890D01*
Y45559D02*
Y71150D01*
X87110Y45559D02*
X100890D01*
X87110D02*
Y71150D01*
X87354Y73827D02*
Y82882D01*
X221000Y92890D02*
X246890Y67000D01*
X221000Y41110D02*
X246890Y67000D01*
X195110D02*
X221000Y41110D01*
X195110Y67000D02*
X221000Y92890D01*
X132319Y157158D02*
X138323D01*
X272000Y61000D02*
Y63000D01*
X223000Y20382D02*
Y25618D01*
X60488Y70244D02*
X60500Y56354D01*
X71512Y56465D02*
Y70244D01*
X21000Y115827D02*
Y124882D01*
Y101827D02*
Y110882D01*
Y87827D02*
Y96882D01*
X66472Y30000D02*
X75528D01*
X239000Y12933D02*
Y17067D01*
Y4933D02*
Y9067D01*
X140720Y53000D02*
X143280D01*
X126720D02*
X129279D01*
X133721D02*
X136279D01*
X147721D02*
X150279D01*
X42740Y87933D02*
Y92067D01*
X38000Y25933D02*
Y30067D01*
D11*
X216690Y96857D02*
X215952Y97283D01*
Y96431D01*
X216690Y96857D01*
D12*
X14784Y37807D02*
X14390D01*
X14784D01*
X163047Y5370D02*
X168953D01*
X163047D02*
X168953D01*
X163047Y26630D02*
X168953D01*
X163047D02*
X168953D01*
D13*
X144600Y35100D02*
Y35300D01*
X130600Y35100D02*
Y35300D01*
X137600Y35100D02*
Y35300D01*
X151600Y35100D02*
Y35300D01*
X120100Y28200D02*
X119100D01*
X119600D01*
Y25201D01*
X120100Y25701D01*
X85799Y184100D02*
Y188098D01*
X84799Y189098D01*
X82800D01*
X81800Y188098D01*
Y184100D01*
X82800Y183100D01*
X84799D01*
X83799Y185099D02*
X85799Y183100D01*
X84799D02*
X85799Y184100D01*
X90797Y183100D02*
Y189098D01*
X87798Y186099D01*
X91797D01*
X110799Y151200D02*
Y155198D01*
X109799Y156198D01*
X107800D01*
X106800Y155198D01*
Y151200D01*
X107800Y150200D01*
X109799D01*
X108799Y152199D02*
X110799Y150200D01*
X109799D02*
X110799Y151200D01*
X112798Y155198D02*
X113798Y156198D01*
X115797D01*
X116797Y155198D01*
Y154199D01*
X115797Y153199D01*
X114797D01*
X115797D01*
X116797Y152199D01*
Y151200D01*
X115797Y150200D01*
X113798D01*
X112798Y151200D01*
X85799D02*
Y155198D01*
X84799Y156198D01*
X82800D01*
X81800Y155198D01*
Y151200D01*
X82800Y150200D01*
X84799D01*
X83799Y152199D02*
X85799Y150200D01*
X84799D02*
X85799Y151200D01*
X91797Y150200D02*
X87798D01*
X91797Y154199D01*
Y155198D01*
X90797Y156198D01*
X88798D01*
X87798Y155198D01*
X51250Y166948D02*
X53249D01*
X52250D01*
Y160950D01*
X51250D01*
X53249D01*
X60247Y165948D02*
X59247Y166948D01*
X57248D01*
X56248Y165948D01*
Y161950D01*
X57248Y160950D01*
X59247D01*
X60247Y161950D01*
X66245Y166948D02*
X62246D01*
Y163949D01*
X64246Y164949D01*
X65245D01*
X66245Y163949D01*
Y161950D01*
X65245Y160950D01*
X63246D01*
X62246Y161950D01*
X110799Y183200D02*
Y187198D01*
X109799Y188198D01*
X107800D01*
X106800Y187198D01*
Y183200D01*
X107800Y182200D01*
X109799D01*
X108799Y184199D02*
X110799Y182200D01*
X109799D02*
X110799Y183200D01*
X112798Y182200D02*
X114797D01*
X113798D01*
Y188198D01*
X112798Y187198D01*
X132200Y166898D02*
X134199D01*
X133200D01*
Y160900D01*
X132200D01*
X134199D01*
X141197Y165898D02*
X140197Y166898D01*
X138198D01*
X137198Y165898D01*
Y161900D01*
X138198Y160900D01*
X140197D01*
X141197Y161900D01*
X146195Y160900D02*
Y166898D01*
X143196Y163899D01*
X147195D01*
X8999Y65852D02*
Y63853D01*
Y64853D01*
X3001D01*
Y65852D01*
Y63853D01*
X7999Y56855D02*
X8999Y57855D01*
Y59854D01*
X7999Y60854D01*
X4001D01*
X3001Y59854D01*
Y57855D01*
X4001Y56855D01*
X3001Y54856D02*
Y52856D01*
Y53856D01*
X8999D01*
X7999Y54856D01*
X281502Y94999D02*
X283502D01*
X282502D01*
Y89001D01*
X281502D01*
X283502D01*
X290499Y93999D02*
X289500Y94999D01*
X287501D01*
X286501Y93999D01*
Y90001D01*
X287501Y89001D01*
X289500D01*
X290499Y90001D01*
X296498Y89001D02*
X292499D01*
X296498Y93000D01*
Y93999D01*
X295498Y94999D01*
X293498D01*
X292499Y93999D01*
X247002Y4001D02*
Y9999D01*
X250001D01*
X251000Y8999D01*
Y7000D01*
X250001Y6000D01*
X247002D01*
X249001D02*
X251000Y4001D01*
X256998D02*
X253000D01*
X256998Y8000D01*
Y8999D01*
X255999Y9999D01*
X253999D01*
X253000Y8999D01*
X246742Y12001D02*
Y17999D01*
X249741D01*
X250740Y16999D01*
Y15000D01*
X249741Y14000D01*
X246742D01*
X248741D02*
X250740Y12001D01*
X252740D02*
X254739D01*
X253739D01*
Y17999D01*
X252740Y16999D01*
X127501Y68999D02*
X126502Y69999D01*
X124502D01*
X123502Y68999D01*
Y65001D01*
X124502Y64001D01*
X126502D01*
X127501Y65001D01*
X129500Y64001D02*
X131500D01*
X130500D01*
Y69999D01*
X129500Y68999D01*
X138498Y64001D02*
X134499D01*
X138498Y68000D01*
Y68999D01*
X137498Y69999D01*
X135499D01*
X134499Y68999D01*
X204506Y25999D02*
Y20001D01*
X208504D01*
X210504Y24999D02*
X211503Y25999D01*
X213503D01*
X214502Y24999D01*
Y24000D01*
X213503Y23000D01*
X212503D01*
X213503D01*
X214502Y22000D01*
Y21001D01*
X213503Y20001D01*
X211503D01*
X210504Y21001D01*
X250501Y24999D02*
X249501Y25999D01*
X247502D01*
X246502Y24999D01*
Y21001D01*
X247502Y20001D01*
X249501D01*
X250501Y21001D01*
X252500Y20001D02*
X254500D01*
X253500D01*
Y25999D01*
X252500Y24999D01*
X257499Y20001D02*
X259498D01*
X258498D01*
Y25999D01*
X257499Y24999D01*
X171501Y48999D02*
X170501Y49999D01*
X168502D01*
X167502Y48999D01*
Y45001D01*
X168502Y44001D01*
X170501D01*
X171501Y45001D01*
X173501Y44001D02*
X175500D01*
X174500D01*
Y49999D01*
X173501Y48999D01*
X178499D02*
X179499Y49999D01*
X181498D01*
X182498Y48999D01*
Y45001D01*
X181498Y44001D01*
X179499D01*
X178499Y45001D01*
Y48999D01*
X160149Y68648D02*
X159149Y69648D01*
X157150D01*
X156150Y68648D01*
Y64650D01*
X157150Y63650D01*
X159149D01*
X160149Y64650D01*
X162148D02*
X163148Y63650D01*
X165147D01*
X166147Y64650D01*
Y68648D01*
X165147Y69648D01*
X163148D01*
X162148Y68648D01*
Y67649D01*
X163148Y66649D01*
X166147D01*
X176000Y37999D02*
X175001Y38999D01*
X173001D01*
X172002Y37999D01*
Y34001D01*
X173001Y33001D01*
X175001D01*
X176000Y34001D01*
X178000Y37999D02*
X178999Y38999D01*
X180999D01*
X181998Y37999D01*
Y37000D01*
X180999Y36000D01*
X181998Y35000D01*
Y34001D01*
X180999Y33001D01*
X178999D01*
X178000Y34001D01*
Y35000D01*
X178999Y36000D01*
X178000Y37000D01*
Y37999D01*
X178999Y36000D02*
X180999D01*
X209000Y16999D02*
X208001Y17999D01*
X206001D01*
X205002Y16999D01*
Y13001D01*
X206001Y12001D01*
X208001D01*
X209000Y13001D01*
X211000Y17999D02*
X214998D01*
Y16999D01*
X211000Y13001D01*
Y12001D01*
X145002Y94999D02*
X149001Y89001D01*
Y94999D02*
X145002Y89001D01*
X154999Y93999D02*
X153999Y94999D01*
X152000D01*
X151000Y93999D01*
Y90001D01*
X152000Y89001D01*
X153999D01*
X154999Y90001D01*
X156998Y89001D02*
X158998D01*
X157998D01*
Y94999D01*
X156998Y93999D01*
X148001Y103999D02*
X147002Y104999D01*
X145002D01*
X144003Y103999D01*
Y100001D01*
X145002Y99001D01*
X147002D01*
X148001Y100001D01*
X150001Y104999D02*
Y99001D01*
X153999D01*
X159997D02*
X155999D01*
X159997Y103000D01*
Y103999D01*
X158998Y104999D01*
X156998D01*
X155999Y103999D01*
X148151Y82999D02*
X147151Y83999D01*
X145152D01*
X144152Y82999D01*
Y79001D01*
X145152Y78001D01*
X147151D01*
X148151Y79001D01*
X150150Y83999D02*
Y78001D01*
X154149D01*
X156148D02*
X158147D01*
X157148D01*
Y83999D01*
X156148Y82999D01*
X86502Y42353D02*
X88502D01*
X87502D01*
Y36355D01*
X86502D01*
X88502D01*
X95499Y41354D02*
X94500Y42353D01*
X92501D01*
X91501Y41354D01*
Y37355D01*
X92501Y36355D01*
X94500D01*
X95499Y37355D01*
X97499Y41354D02*
X98499Y42353D01*
X100498D01*
X101498Y41354D01*
Y40354D01*
X100498Y39354D01*
X99498D01*
X100498D01*
X101498Y38355D01*
Y37355D01*
X100498Y36355D01*
X98499D01*
X97499Y37355D01*
X53000Y30999D02*
X52001Y31999D01*
X50001D01*
X49002Y30999D01*
Y27001D01*
X50001Y26001D01*
X52001D01*
X53000Y27001D01*
X58998Y31999D02*
X56999Y30999D01*
X55000Y29000D01*
Y27001D01*
X55999Y26001D01*
X57999D01*
X58998Y27001D01*
Y28000D01*
X57999Y29000D01*
X55000D01*
X107000Y80354D02*
X106001Y81353D01*
X104001D01*
X103002Y80354D01*
Y76355D01*
X104001Y75355D01*
X106001D01*
X107000Y76355D01*
X112998Y81353D02*
X109000D01*
Y78354D01*
X110999Y79354D01*
X111999D01*
X112998Y78354D01*
Y76355D01*
X111999Y75355D01*
X109999D01*
X109000Y76355D01*
X236559Y91040D02*
X240801Y95281D01*
Y92454D01*
X243628Y92454D01*
X239387Y88213D01*
X247163Y87506D02*
Y88919D01*
X245749Y90333D01*
X244335D01*
X241508Y87506D01*
Y86092D01*
X242921Y84678D01*
X244335D01*
X249283Y86799D02*
X245749Y83264D01*
Y81851D01*
X247163Y80437D01*
X248576D01*
X252111Y83971D01*
X249283Y78316D02*
X250697Y76903D01*
X249990Y77609D01*
X254231Y81851D01*
X252818D01*
X33002Y16001D02*
Y21999D01*
X36001D01*
X37001Y20999D01*
Y19000D01*
X36001Y18000D01*
X33002D01*
X35002D02*
X37001Y16001D01*
X39000Y21999D02*
X42999D01*
X41000D01*
Y16001D01*
X44998D02*
X46998D01*
X45998D01*
Y21999D01*
X44998Y20999D01*
X56744Y86001D02*
Y91999D01*
X59743D01*
X60743Y90999D01*
Y89000D01*
X59743Y88000D01*
X56744D01*
X58744D02*
X60743Y86001D01*
X62742D02*
Y90000D01*
X64742Y91999D01*
X66741Y90000D01*
Y86001D01*
Y89000D01*
X62742D01*
X68740Y91999D02*
Y86001D01*
X71740D01*
X72739Y87001D01*
Y90999D01*
X71740Y91999D01*
X68740D01*
X78737D02*
X76738D01*
X77738D01*
Y87001D01*
X76738Y86001D01*
X75738D01*
X74739Y87001D01*
X80737Y86001D02*
X82736D01*
X81736D01*
Y91999D01*
X80737Y90999D01*
X65000Y45354D02*
X64001Y46353D01*
X62001D01*
X61002Y45354D01*
Y41355D01*
X62001Y40355D01*
X64001D01*
X65000Y41355D01*
X69999Y40355D02*
Y46353D01*
X67000Y43354D01*
X70998D01*
X40000Y100354D02*
X39001Y101353D01*
X37001D01*
X36002Y100354D01*
Y96355D01*
X37001Y95355D01*
X39001D01*
X40000Y96355D01*
X42000Y100354D02*
X42999Y101353D01*
X44999D01*
X45998Y100354D01*
Y99354D01*
X44999Y98354D01*
X43999D01*
X44999D01*
X45998Y97355D01*
Y96355D01*
X44999Y95355D01*
X42999D01*
X42000Y96355D01*
X40000Y111354D02*
X39001Y112353D01*
X37001D01*
X36002Y111354D01*
Y107355D01*
X37001Y106355D01*
X39001D01*
X40000Y107355D01*
X45998Y106355D02*
X42000D01*
X45998Y110354D01*
Y111354D01*
X44999Y112353D01*
X42999D01*
X42000Y111354D01*
X40000Y122354D02*
X39000Y123353D01*
X37001D01*
X36001Y122354D01*
Y118355D01*
X37001Y117355D01*
X39000D01*
X40000Y118355D01*
X41999Y117355D02*
X43999D01*
X42999D01*
Y123353D01*
X41999Y122354D01*
M02*
