G04*
G04 #@! TF.GenerationSoftware,Altium Limited,Altium Designer,20.1.8 (145)*
G04*
G04 Layer_Color=16711935*
%FSLAX25Y25*%
%MOIN*%
G70*
G04*
G04 #@! TF.SameCoordinates,B2F8307C-7DD5-46F7-85BE-D442A9776901*
G04*
G04*
G04 #@! TF.FilePolarity,Negative*
G04*
G01*
G75*
%ADD80R,0.05118X0.05118*%
%ADD81C,0.05118*%
%ADD82C,0.24016*%
D80*
X80000Y205000D02*
D03*
X310000D02*
D03*
Y15000D02*
D03*
X80000D02*
D03*
D81*
X75000Y205000D02*
D03*
X70000D02*
D03*
X65000D02*
D03*
X60000D02*
D03*
X55000D02*
D03*
X50000D02*
D03*
X45000D02*
D03*
X40000D02*
D03*
X35000D02*
D03*
X315000D02*
D03*
X320000D02*
D03*
X325000D02*
D03*
X330000D02*
D03*
X335000D02*
D03*
X340000D02*
D03*
X345000D02*
D03*
X350000D02*
D03*
X355000D02*
D03*
X315000Y15000D02*
D03*
X320000D02*
D03*
X325000D02*
D03*
X330000D02*
D03*
X335000D02*
D03*
X340000D02*
D03*
X345000D02*
D03*
X350000D02*
D03*
X355000D02*
D03*
X75000D02*
D03*
X70000D02*
D03*
X65000D02*
D03*
X60000D02*
D03*
X55000D02*
D03*
X50000D02*
D03*
X45000D02*
D03*
X40000D02*
D03*
X35000D02*
D03*
D82*
X15000D02*
D03*
X375000D02*
D03*
X15000Y205000D02*
D03*
X375000D02*
D03*
M02*
