G04*
G04 #@! TF.GenerationSoftware,Altium Limited,Altium Designer,21.0.8 (223)*
G04*
G04 Layer_Color=255*
%FSLAX25Y25*%
%MOIN*%
G70*
G04*
G04 #@! TF.SameCoordinates,7920E5AB-F19E-47E3-9C16-B8E2F772CBAB*
G04*
G04*
G04 #@! TF.FilePolarity,Positive*
G04*
G01*
G75*
%ADD18R,0.08661X0.06299*%
%ADD19R,0.07087X0.02756*%
G04:AMPARAMS|DCode=45|XSize=314.96mil|YSize=236.22mil|CornerRadius=11.81mil|HoleSize=0mil|Usage=FLASHONLY|Rotation=0.000|XOffset=0mil|YOffset=0mil|HoleType=Round|Shape=RoundedRectangle|*
%AMROUNDEDRECTD45*
21,1,0.31496,0.21260,0,0,0.0*
21,1,0.29134,0.23622,0,0,0.0*
1,1,0.02362,0.14567,-0.10630*
1,1,0.02362,-0.14567,-0.10630*
1,1,0.02362,-0.14567,0.10630*
1,1,0.02362,0.14567,0.10630*
%
%ADD45ROUNDEDRECTD45*%
%ADD148R,0.04331X0.06299*%
%ADD149O,0.04331X0.06299*%
%ADD150C,0.03347*%
%ADD151C,0.23622*%
%ADD152R,0.02756X0.07087*%
%ADD153R,0.06299X0.08661*%
D18*
X379650Y39260D02*
D03*
Y71740D02*
D03*
X376969Y118280D02*
D03*
Y85799D02*
D03*
D19*
X366657Y62882D02*
D03*
Y57961D02*
D03*
Y53039D02*
D03*
Y48118D02*
D03*
X363976Y94657D02*
D03*
Y99579D02*
D03*
Y104500D02*
D03*
Y109421D02*
D03*
D45*
X370000Y145000D02*
D03*
X19500D02*
D03*
X20000Y177500D02*
D03*
X370000D02*
D03*
D148*
X310000Y205000D02*
D03*
X80000Y15000D02*
D03*
X310000D02*
D03*
X80000Y205000D02*
D03*
D149*
X315000D02*
D03*
X320000D02*
D03*
X325000D02*
D03*
X330000D02*
D03*
X335000D02*
D03*
X340000D02*
D03*
X345000D02*
D03*
X350000D02*
D03*
X355000D02*
D03*
X35000Y15000D02*
D03*
X40000D02*
D03*
X45000D02*
D03*
X50000D02*
D03*
X55000D02*
D03*
X60000D02*
D03*
X65000D02*
D03*
X70000D02*
D03*
X75000D02*
D03*
X315000D02*
D03*
X320000D02*
D03*
X325000D02*
D03*
X330000D02*
D03*
X335000D02*
D03*
X340000D02*
D03*
X345000D02*
D03*
X350000D02*
D03*
X355000D02*
D03*
X35000Y205000D02*
D03*
X40000D02*
D03*
X45000D02*
D03*
X50000D02*
D03*
X55000D02*
D03*
X60000D02*
D03*
X65000D02*
D03*
X70000D02*
D03*
X75000D02*
D03*
D150*
X366000Y153000D02*
D03*
X374000D02*
D03*
X382000D02*
D03*
X358000D02*
D03*
Y145000D02*
D03*
X366000D02*
D03*
X374000D02*
D03*
X382000D02*
D03*
Y137000D02*
D03*
X374000D02*
D03*
X366000D02*
D03*
X358000D02*
D03*
X7500D02*
D03*
X15500D02*
D03*
X23500D02*
D03*
X31500D02*
D03*
Y145000D02*
D03*
X23500D02*
D03*
X15500D02*
D03*
X7500D02*
D03*
Y153000D02*
D03*
X31500D02*
D03*
X23500D02*
D03*
X15500D02*
D03*
X8000Y169500D02*
D03*
X16000D02*
D03*
X24000D02*
D03*
X32000D02*
D03*
Y177500D02*
D03*
X24000D02*
D03*
X16000D02*
D03*
X8000D02*
D03*
Y185500D02*
D03*
X32000D02*
D03*
X24000D02*
D03*
X16000D02*
D03*
X366000D02*
D03*
X374000D02*
D03*
X382000D02*
D03*
X358000D02*
D03*
Y177500D02*
D03*
X366000D02*
D03*
X374000D02*
D03*
X382000D02*
D03*
Y169500D02*
D03*
X374000D02*
D03*
X366000D02*
D03*
X358000D02*
D03*
D151*
X15000Y15000D02*
D03*
X375000D02*
D03*
X15000Y205000D02*
D03*
X375000D02*
D03*
D152*
X113382Y23843D02*
D03*
X108461D02*
D03*
X103539D02*
D03*
X98618D02*
D03*
D153*
X89760Y10850D02*
D03*
X122240D02*
D03*
M02*
