G04*
G04 #@! TF.GenerationSoftware,Altium Limited,Altium Designer,21.0.8 (223)*
G04*
G04 Layer_Physical_Order=1*
G04 Layer_Color=255*
%FSLAX25Y25*%
%MOIN*%
G70*
G04*
G04 #@! TF.SameCoordinates,7920E5AB-F19E-47E3-9C16-B8E2F772CBAB*
G04*
G04*
G04 #@! TF.FilePolarity,Positive*
G04*
G01*
G75*
%ADD11C,0.00787*%
%ADD15R,0.03150X0.03150*%
%ADD16R,0.01173X0.05807*%
%ADD17R,0.05807X0.01173*%
%ADD18R,0.08661X0.06299*%
%ADD19R,0.07087X0.02756*%
%ADD20C,0.05906*%
%ADD21R,0.03937X0.03543*%
%ADD22R,0.03150X0.03937*%
%ADD23R,0.03937X0.03150*%
%ADD24R,0.02126X0.03701*%
%ADD25R,0.03701X0.02126*%
%ADD26R,0.05512X0.04528*%
%ADD27R,0.01968X0.04134*%
%ADD28R,0.05709X0.25591*%
%ADD29R,0.04331X0.02559*%
%ADD30R,0.02559X0.04331*%
%ADD31C,0.01181*%
%ADD32R,0.03071X0.03858*%
%ADD33R,0.03858X0.03071*%
%ADD34R,0.12205X0.08661*%
%ADD35R,0.05906X0.05984*%
%ADD36R,0.07874X0.04331*%
%ADD37R,0.03150X0.04331*%
%ADD38R,0.01575X0.05315*%
%ADD39R,0.06299X0.05512*%
%ADD40R,0.09055X0.05118*%
%ADD41R,0.07087X0.07480*%
%ADD42R,0.10709X0.04961*%
%ADD43R,0.05886X0.11614*%
%ADD44R,0.05886X0.02756*%
G04:AMPARAMS|DCode=45|XSize=314.96mil|YSize=236.22mil|CornerRadius=11.81mil|HoleSize=0mil|Usage=FLASHONLY|Rotation=0.000|XOffset=0mil|YOffset=0mil|HoleType=Round|Shape=RoundedRectangle|*
%AMROUNDEDRECTD45*
21,1,0.31496,0.21260,0,0,0.0*
21,1,0.29134,0.23622,0,0,0.0*
1,1,0.02362,0.14567,-0.10630*
1,1,0.02362,-0.14567,-0.10630*
1,1,0.02362,-0.14567,0.10630*
1,1,0.02362,0.14567,0.10630*
%
%ADD45ROUNDEDRECTD45*%
%ADD46R,0.02362X0.04921*%
%ADD47R,0.13976X0.19291*%
%ADD48R,0.06004X0.02559*%
%ADD49R,0.04724X0.08661*%
%ADD50R,0.22835X0.25197*%
%ADD51R,0.08465X0.16929*%
%ADD52R,0.01575X0.04724*%
%ADD53R,0.01772X0.05610*%
%ADD54R,0.07402X0.06614*%
%ADD55R,0.04134X0.01968*%
%ADD56R,0.04921X0.02362*%
%ADD57R,0.05787X0.04016*%
%ADD58R,0.06496X0.06496*%
%ADD59R,0.01968X0.03740*%
%ADD60R,0.03740X0.01968*%
%ADD61R,0.19685X0.09252*%
%ADD62R,0.04409X0.04134*%
%ADD63R,0.03937X0.12992*%
%ADD64R,0.03937X0.06102*%
%ADD65R,0.02559X0.11221*%
%ADD66R,0.07480X0.03543*%
%ADD67R,0.07480X0.12598*%
%ADD68R,0.04528X0.02362*%
%ADD69R,0.08858X0.06890*%
%ADD70R,0.05118X0.11102*%
%ADD71R,0.11102X0.05118*%
%ADD72R,0.06299X0.03937*%
%ADD73R,0.04134X0.05512*%
%ADD133C,0.03347*%
%ADD138C,0.01181*%
%ADD139C,0.01772*%
%ADD140C,0.01575*%
%ADD141C,0.02559*%
%ADD142C,0.01028*%
%ADD143C,0.01968*%
%ADD144C,0.03071*%
%ADD145C,0.00500*%
%ADD146C,0.03150*%
%ADD147C,0.02000*%
%ADD148R,0.04331X0.06299*%
%ADD149O,0.04331X0.06299*%
%ADD150C,0.03347*%
%ADD151C,0.23622*%
G36*
X139279Y205500D02*
X162716D01*
Y179701D01*
X133701Y179701D01*
X132500Y178500D01*
X103500Y178500D01*
X94500Y169500D01*
X54000Y169500D01*
X54000Y197299D01*
X68799Y197299D01*
X86299D01*
X96500Y207500D01*
X137279D01*
X139279Y205500D01*
D02*
G37*
G36*
X305000Y197500D02*
X336000D01*
X336000Y169500D01*
X296500Y169500D01*
X287500Y178500D01*
X258000Y178500D01*
X256598Y179902D01*
X228583Y179902D01*
Y205098D01*
X251417D01*
X253819Y207500D01*
X295000D01*
X305000Y197500D01*
D02*
G37*
G36*
X377619Y218165D02*
X379315Y217711D01*
X380937Y217039D01*
X382457Y216161D01*
X383851Y215092D01*
X385092Y213850D01*
X386161Y212457D01*
X387039Y210937D01*
X387711Y209315D01*
X388165Y207619D01*
X388394Y205878D01*
Y205000D01*
Y165000D01*
X354500Y165000D01*
Y169500D01*
X338500D01*
Y199000D01*
X328000D01*
Y218394D01*
X375878D01*
X377619Y218165D01*
D02*
G37*
G36*
X340628Y165331D02*
X340528Y165296D01*
X340439Y165236D01*
X340362Y165154D01*
X340297Y165047D01*
X340244Y164918D01*
X340203Y164764D01*
X340173Y164587D01*
X340156Y164386D01*
X340150Y164162D01*
X338968D01*
X338963Y164386D01*
X338945Y164587D01*
X338915Y164764D01*
X338874Y164918D01*
X338821Y165047D01*
X338756Y165154D01*
X338679Y165236D01*
X338591Y165296D01*
X338490Y165331D01*
X338378Y165343D01*
X340740D01*
X340628Y165331D01*
D02*
G37*
G36*
X335510D02*
X335409Y165296D01*
X335321Y165236D01*
X335244Y165154D01*
X335179Y165047D01*
X335126Y164918D01*
X335085Y164764D01*
X335055Y164587D01*
X335037Y164386D01*
X335032Y164162D01*
X333850D01*
X333844Y164386D01*
X333827Y164587D01*
X333797Y164764D01*
X333756Y164918D01*
X333703Y165047D01*
X333638Y165154D01*
X333561Y165236D01*
X333472Y165296D01*
X333372Y165331D01*
X333260Y165343D01*
X335622D01*
X335510Y165331D01*
D02*
G37*
G36*
X56628D02*
X56528Y165296D01*
X56439Y165236D01*
X56362Y165154D01*
X56297Y165047D01*
X56244Y164918D01*
X56203Y164764D01*
X56173Y164587D01*
X56156Y164386D01*
X56150Y164162D01*
X54969D01*
X54963Y164386D01*
X54945Y164587D01*
X54915Y164764D01*
X54874Y164918D01*
X54821Y165047D01*
X54756Y165154D01*
X54679Y165236D01*
X54591Y165296D01*
X54490Y165331D01*
X54378Y165343D01*
X56740D01*
X56628Y165331D01*
D02*
G37*
G36*
X51510D02*
X51409Y165296D01*
X51321Y165236D01*
X51244Y165154D01*
X51179Y165047D01*
X51126Y164918D01*
X51085Y164764D01*
X51055Y164587D01*
X51037Y164386D01*
X51032Y164162D01*
X49850D01*
X49845Y164386D01*
X49827Y164587D01*
X49797Y164764D01*
X49756Y164918D01*
X49703Y165047D01*
X49638Y165154D01*
X49561Y165236D01*
X49472Y165296D01*
X49372Y165331D01*
X49260Y165343D01*
X51622D01*
X51510Y165331D01*
D02*
G37*
G36*
X56151Y163047D02*
X56196Y162386D01*
X56216Y162279D01*
X56240Y162197D01*
X56268Y162138D01*
X56299Y162102D01*
X56335Y162090D01*
X54784D01*
X54819Y162102D01*
X54850Y162138D01*
X54878Y162197D01*
X54902Y162279D01*
X54922Y162386D01*
X54939Y162516D01*
X54961Y162846D01*
X54969Y163271D01*
X56150D01*
X56151Y163047D01*
D02*
G37*
G36*
X51033D02*
X51078Y162386D01*
X51098Y162279D01*
X51122Y162197D01*
X51150Y162138D01*
X51181Y162102D01*
X51216Y162090D01*
X49665D01*
X49701Y162102D01*
X49732Y162138D01*
X49760Y162197D01*
X49784Y162279D01*
X49804Y162386D01*
X49821Y162516D01*
X49843Y162846D01*
X49850Y163271D01*
X51032D01*
X51033Y163047D01*
D02*
G37*
G36*
X340152Y162547D02*
X340196Y161886D01*
X340216Y161779D01*
X340240Y161697D01*
X340268Y161638D01*
X340299Y161602D01*
X340335Y161590D01*
X338784D01*
X338819Y161602D01*
X338850Y161638D01*
X338878Y161697D01*
X338902Y161779D01*
X338922Y161886D01*
X338939Y162016D01*
X338961Y162346D01*
X338968Y162771D01*
X340150D01*
X340152Y162547D01*
D02*
G37*
G36*
X335033D02*
X335078Y161886D01*
X335098Y161779D01*
X335122Y161697D01*
X335150Y161638D01*
X335181Y161602D01*
X335216Y161590D01*
X333665D01*
X333701Y161602D01*
X333732Y161638D01*
X333760Y161697D01*
X333784Y161779D01*
X333804Y161886D01*
X333821Y162016D01*
X333843Y162346D01*
X333850Y162771D01*
X335032D01*
X335033Y162547D01*
D02*
G37*
G36*
X56346Y151557D02*
X56382Y151457D01*
X56441Y151368D01*
X56523Y151291D01*
X56630Y151226D01*
X56760Y151173D01*
X56913Y151132D01*
X57090Y151102D01*
X57291Y151085D01*
X57516Y151079D01*
Y149898D01*
X56335Y149910D01*
Y151669D01*
X56346Y151557D01*
D02*
G37*
G36*
X340349Y151534D02*
X340394Y151416D01*
X340468Y151312D01*
X340571Y151222D01*
X340705Y151146D01*
X340867Y151083D01*
X341060Y151035D01*
X341282Y151000D01*
X341534Y150979D01*
X341815Y150972D01*
Y149398D01*
X340335Y149410D01*
Y151665D01*
X340349Y151534D01*
D02*
G37*
G36*
X53775Y149910D02*
X53787Y148943D01*
X52606D01*
X52602Y149128D01*
X52572Y149441D01*
X52546Y149568D01*
X52512Y149675D01*
X52471Y149764D01*
X52422Y149832D01*
X52365Y149881D01*
X52301Y149911D01*
X52230Y149922D01*
X53775Y149910D01*
D02*
G37*
G36*
X335192Y149398D02*
X335171Y149362D01*
X335152Y149303D01*
X335136Y149221D01*
X335122Y149114D01*
X335102Y148831D01*
X335090Y148229D01*
X333910D01*
X333907Y148453D01*
X333870Y148984D01*
X333849Y149114D01*
X333822Y149221D01*
X333790Y149303D01*
X333753Y149362D01*
X333712Y149398D01*
X333665Y149410D01*
X335216D01*
X335192Y149398D01*
D02*
G37*
G36*
X60192Y148872D02*
X60210Y148669D01*
X60239Y148490D01*
X60281Y148335D01*
X60334Y148203D01*
X60399Y148096D01*
X60475Y148012D01*
X60564Y147953D01*
X60664Y147917D01*
X60777Y147905D01*
X58414D01*
X58527Y147917D01*
X58627Y147953D01*
X58716Y148012D01*
X58792Y148096D01*
X58857Y148203D01*
X58911Y148335D01*
X58952Y148490D01*
X58981Y148669D01*
X58999Y148872D01*
X59005Y149098D01*
X60186D01*
X60192Y148872D01*
D02*
G37*
G36*
X53981Y148591D02*
X54000Y148321D01*
X54017Y148211D01*
X54039Y148118D01*
X54066Y148041D01*
X54098Y147982D01*
X54135Y147940D01*
X54176Y147914D01*
X54222Y147905D01*
X52721Y147917D01*
X52735Y147925D01*
X52748Y147950D01*
X52760Y147992D01*
X52770Y148051D01*
X52778Y148126D01*
X52794Y148451D01*
X52797Y148752D01*
X53978D01*
X53981Y148591D01*
D02*
G37*
G36*
X51181Y149898D02*
X51150Y149862D01*
X51122Y149803D01*
X51098Y149721D01*
X51078Y149614D01*
X51061Y149484D01*
X51039Y149154D01*
X51032Y148729D01*
X51031D01*
X51031Y148669D01*
X50971Y147724D01*
X50956Y147712D01*
X49260D01*
X49372Y147724D01*
X49472Y147760D01*
X49561Y147819D01*
X49638Y147901D01*
X49703Y148008D01*
X49756Y148138D01*
X49797Y148291D01*
X49827Y148468D01*
X49845Y148669D01*
X49849Y148854D01*
X49848Y148953D01*
X49804Y149614D01*
X49784Y149721D01*
X49760Y149803D01*
X49732Y149862D01*
X49701Y149898D01*
X49665Y149910D01*
X51216D01*
X51181Y149898D01*
D02*
G37*
G36*
X343795Y148691D02*
X343819Y148422D01*
X343858Y148184D01*
X343913Y147978D01*
X343984Y147803D01*
X344071Y147661D01*
X344173Y147549D01*
X344291Y147470D01*
X344425Y147422D01*
X344575Y147405D01*
X341733Y147417D01*
X341824Y147433D01*
X341905Y147480D01*
X341977Y147559D01*
X342040Y147669D01*
X342093Y147811D01*
X342136Y147984D01*
X342169Y148189D01*
X342193Y148425D01*
X342213Y148992D01*
X343787D01*
X343795Y148691D01*
D02*
G37*
G36*
X337795Y148691D02*
X337819Y148422D01*
X337858Y148184D01*
X337913Y147978D01*
X337984Y147804D01*
X338071Y147661D01*
X338173Y147550D01*
X338291Y147470D01*
X338425Y147422D01*
X338575Y147405D01*
X336221Y147417D01*
X336213Y148992D01*
X337787D01*
X337795Y148691D01*
D02*
G37*
G36*
X53859Y147223D02*
X53966Y147136D01*
X54020Y147099D01*
X54074Y147067D01*
X54128Y147040D01*
X54183Y147018D01*
X54238Y147000D01*
X54293Y146987D01*
X54349Y146979D01*
X53265Y145895D01*
X53257Y145951D01*
X53244Y146006D01*
X53226Y146061D01*
X53204Y146116D01*
X53177Y146170D01*
X53145Y146224D01*
X53108Y146278D01*
X53067Y146332D01*
X53021Y146386D01*
X52970Y146439D01*
X53805Y147274D01*
X53859Y147223D01*
D02*
G37*
G36*
X305528Y143219D02*
X305510Y143387D01*
X305457Y143537D01*
X305368Y143670D01*
X305244Y143785D01*
X305085Y143883D01*
X304890Y143963D01*
X304660Y144025D01*
X304394Y144069D01*
X304093Y144096D01*
X303809Y144103D01*
X303773Y144103D01*
X302498Y144028D01*
X302409Y144005D01*
X302356Y143979D01*
X302338Y143949D01*
Y146051D01*
X302356Y146018D01*
X302409Y145988D01*
X302498Y145962D01*
X302622Y145939D01*
X302781Y145920D01*
X303206Y145892D01*
X303897Y145880D01*
X304093Y145885D01*
X304394Y145911D01*
X304660Y145956D01*
X304890Y146018D01*
X305085Y146097D01*
X305244Y146195D01*
X305368Y146310D01*
X305457Y146443D01*
X305510Y146593D01*
X305528Y146762D01*
Y143219D01*
D02*
G37*
G36*
X61299Y147740D02*
X61358Y147581D01*
X61457Y147441D01*
X61594Y147320D01*
X61772Y147218D01*
X61988Y147134D01*
X62244Y147068D01*
X62449Y147036D01*
X62531Y147052D01*
X62624Y147076D01*
X62700Y147104D01*
X62761Y147136D01*
X62805Y147171D01*
Y146999D01*
X62874Y146994D01*
X63248Y146984D01*
Y145016D01*
X62874Y145006D01*
X62805Y145001D01*
Y144829D01*
X62761Y144864D01*
X62700Y144896D01*
X62624Y144924D01*
X62531Y144948D01*
X62449Y144964D01*
X62244Y144932D01*
X61988Y144867D01*
X61772Y144782D01*
X61594Y144680D01*
X61457Y144559D01*
X61358Y144419D01*
X61299Y144260D01*
X61279Y144083D01*
Y147917D01*
X61299Y147740D01*
D02*
G37*
G36*
X88028Y143972D02*
X88017Y143999D01*
X87987Y144023D01*
X87935Y144045D01*
X87863Y144063D01*
X87771Y144079D01*
X87658Y144091D01*
X87370Y144108D01*
X87000Y144114D01*
Y145886D01*
X87195Y145887D01*
X87863Y145937D01*
X87935Y145955D01*
X87987Y145977D01*
X88017Y146001D01*
X88028Y146028D01*
Y143972D01*
D02*
G37*
G36*
X295490Y146593D02*
X295543Y146443D01*
X295632Y146310D01*
X295756Y146195D01*
X295915Y146097D01*
X296110Y146018D01*
X296340Y145956D01*
X296606Y145911D01*
X296907Y145885D01*
X297185Y145878D01*
X297227Y145878D01*
X298502Y145962D01*
X298591Y145988D01*
X298644Y146018D01*
X298662Y146051D01*
Y143949D01*
X298644Y143979D01*
X298591Y144005D01*
X298502Y144028D01*
X298378Y144048D01*
X298219Y144065D01*
X297528Y144098D01*
X297148Y144102D01*
X296907Y144096D01*
X296606Y144069D01*
X296340Y144025D01*
X296110Y143963D01*
X295915Y143883D01*
X295756Y143785D01*
X295632Y143670D01*
X295543Y143537D01*
X295490Y143387D01*
X295472Y143219D01*
Y146762D01*
X295490Y146593D01*
D02*
G37*
G36*
X95040Y143209D02*
X95022Y143377D01*
X94968Y143528D01*
X94879Y143660D01*
X94754Y143776D01*
X94594Y143873D01*
X94398Y143953D01*
X94166Y144015D01*
X93898Y144059D01*
X93595Y144086D01*
X93256Y144095D01*
Y145866D01*
X93595Y145875D01*
X93898Y145902D01*
X94166Y145946D01*
X94398Y146008D01*
X94594Y146088D01*
X94754Y146185D01*
X94879Y146300D01*
X94968Y146433D01*
X95022Y146584D01*
X95040Y146752D01*
Y143209D01*
D02*
G37*
G36*
X89978Y146584D02*
X90032Y146433D01*
X90121Y146300D01*
X90246Y146185D01*
X90406Y146088D01*
X90602Y146008D01*
X90834Y145946D01*
X91102Y145902D01*
X91405Y145875D01*
X91744Y145866D01*
Y144095D01*
X91405Y144086D01*
X91102Y144059D01*
X90834Y144015D01*
X90602Y143953D01*
X90406Y143873D01*
X90246Y143776D01*
X90121Y143660D01*
X90032Y143528D01*
X89978Y143377D01*
X89960Y143209D01*
Y146752D01*
X89978Y146584D01*
D02*
G37*
G36*
X85827Y142941D02*
X85637Y142940D01*
X84917Y142891D01*
X84867Y142875D01*
X84837Y142858D01*
X84826Y142838D01*
X84838Y144701D01*
X85827Y144713D01*
Y142941D01*
D02*
G37*
G36*
X281098Y143725D02*
X281033Y143633D01*
X280976Y143531D01*
X280926Y143419D01*
X280883Y143296D01*
X280849Y143162D01*
X280822Y143017D01*
X280803Y142862D01*
X280791Y142696D01*
X280787Y142520D01*
X279213D01*
X279209Y142696D01*
X279178Y143017D01*
X279151Y143162D01*
X279117Y143296D01*
X279074Y143419D01*
X279025Y143531D01*
X278967Y143633D01*
X278902Y143725D01*
X278829Y143805D01*
X281171D01*
X281098Y143725D01*
D02*
G37*
G36*
X109628Y143764D02*
X109552Y143686D01*
X109484Y143597D01*
X109424Y143496D01*
X109372Y143385D01*
X109328Y143263D01*
X109292Y143130D01*
X109264Y142986D01*
X109244Y142832D01*
X109232Y142666D01*
X109228Y142490D01*
X107653Y142553D01*
X107650Y142729D01*
X107621Y143051D01*
X107595Y143196D01*
X107562Y143331D01*
X107522Y143455D01*
X107474Y143569D01*
X107419Y143672D01*
X107357Y143765D01*
X107287Y143847D01*
X109628Y143764D01*
D02*
G37*
G36*
X277075Y143853D02*
X277106D01*
X277110Y143547D01*
X277161Y142822D01*
X277192Y142645D01*
X277229Y142500D01*
X277274Y142387D01*
X277325Y142306D01*
X277384Y142258D01*
X277449Y142242D01*
X275347D01*
X275346Y142332D01*
X275335Y142331D01*
X275331Y142514D01*
X275301Y142831D01*
X275274Y142964D01*
X275240Y143081D01*
X275199Y143181D01*
X275150Y143265D01*
X275093Y143332D01*
X275029Y143383D01*
X274957Y143417D01*
X275337Y143595D01*
X275335Y143853D01*
X275890D01*
X277062Y144401D01*
X277075Y143853D01*
D02*
G37*
G36*
X55689Y144063D02*
X55620Y144004D01*
X55558Y143906D01*
X55504Y143768D01*
X55459Y143591D01*
X55422Y143374D01*
X55404Y143211D01*
X55411Y143164D01*
X55436Y143055D01*
X55464Y142963D01*
X55497Y142887D01*
X55535Y142826D01*
X55576Y142781D01*
X55375Y142765D01*
X55360Y142488D01*
X55356Y142114D01*
X53388D01*
X53381Y142488D01*
X53371Y142612D01*
X53241Y142602D01*
X53269Y142644D01*
X53294Y142702D01*
X53316Y142776D01*
X53335Y142867D01*
X53344Y142927D01*
X53328Y143118D01*
X53281Y143374D01*
X53221Y143591D01*
X53148Y143768D01*
X53061Y143906D01*
X52961Y144004D01*
X52847Y144063D01*
X52721Y144083D01*
X55768D01*
X55689Y144063D01*
D02*
G37*
G36*
X105173Y144826D02*
X105190Y144757D01*
X105222Y144680D01*
X105268Y144595D01*
X105327Y144501D01*
X105402Y144400D01*
X105593Y144173D01*
X105840Y143913D01*
X105037Y143110D01*
X106236D01*
X106238Y142773D01*
X106317Y141498D01*
X106342Y141409D01*
X106370Y141356D01*
X106401Y141338D01*
X104299D01*
X104331Y141356D01*
X104359Y141409D01*
X104384Y141498D01*
X104405Y141622D01*
X104423Y141781D01*
X104458Y142472D01*
X104461Y142783D01*
X104453Y142791D01*
X104100Y143098D01*
X103999Y143173D01*
X103905Y143233D01*
X103820Y143278D01*
X103743Y143310D01*
X103674Y143327D01*
X103613Y143331D01*
X105169Y144887D01*
X105173Y144826D01*
D02*
G37*
G36*
X339246Y143558D02*
X339226Y143485D01*
X339208Y143362D01*
X339193Y143190D01*
X339156Y142012D01*
X339152Y141128D01*
X336593D01*
X336589Y141594D01*
X336500Y142969D01*
X336459Y143190D01*
X336410Y143362D01*
X336354Y143485D01*
X336291Y143558D01*
X336221Y143583D01*
X339267D01*
X339246Y143558D01*
D02*
G37*
G36*
X344709D02*
X344646Y143485D01*
X344590Y143362D01*
X344541Y143190D01*
X344500Y142969D01*
X344467Y142699D01*
X344422Y142012D01*
X344408Y141128D01*
X341848D01*
X341733Y143583D01*
X344779D01*
X344709Y143558D01*
D02*
G37*
G36*
X283766Y142079D02*
X283819Y141934D01*
X283907Y141805D01*
X284031Y141694D01*
X284191Y141600D01*
X284386Y141523D01*
X284616Y141463D01*
X284882Y141420D01*
X285183Y141394D01*
X285520Y141386D01*
Y139614D01*
X285181Y139605D01*
X284878Y139579D01*
X284611Y139534D01*
X284379Y139472D01*
X284183Y139393D01*
X284023Y139295D01*
X283898Y139180D01*
X283808Y139047D01*
X283754Y138897D01*
X283736Y138728D01*
X283748Y142242D01*
X283766Y142079D01*
D02*
G37*
G36*
X112706Y141103D02*
X112760Y140953D01*
X112849Y140820D01*
X112974Y140705D01*
X113135Y140607D01*
X113191Y140584D01*
X113242Y140617D01*
X113305Y140671D01*
Y140538D01*
X113331Y140528D01*
X113563Y140466D01*
X113830Y140421D01*
X114133Y140395D01*
X114472Y140386D01*
Y138614D01*
X114133Y138605D01*
X113830Y138579D01*
X113563Y138534D01*
X113331Y138472D01*
X113305Y138462D01*
Y138329D01*
X113242Y138383D01*
X113191Y138416D01*
X113135Y138393D01*
X112974Y138295D01*
X112849Y138180D01*
X112760Y138047D01*
X112706Y137897D01*
X112689Y137728D01*
Y138574D01*
X112586Y138589D01*
X112260Y138611D01*
X112076Y138614D01*
Y140386D01*
X112260Y140389D01*
X112586Y140411D01*
X112689Y140426D01*
Y141272D01*
X112706Y141103D01*
D02*
G37*
G36*
X104299Y138228D02*
X104282Y138397D01*
X104228Y138547D01*
X104140Y138680D01*
X104016Y138795D01*
X103857Y138893D01*
X103662Y138972D01*
X103431Y139034D01*
X103165Y139079D01*
X102864Y139105D01*
X102528Y139114D01*
Y140886D01*
X102864Y140890D01*
X103662Y140958D01*
X103857Y140999D01*
X104016Y141049D01*
X104140Y141108D01*
X104228Y141175D01*
X104282Y141252D01*
X104299Y141338D01*
Y138228D01*
D02*
G37*
G36*
X277449Y138565D02*
X277437Y138555D01*
X277426Y138523D01*
X277417Y138469D01*
X277408Y138395D01*
X277392Y138043D01*
X277386Y137500D01*
X275614D01*
X275612Y137705D01*
X275569Y138307D01*
X275550Y138404D01*
X275526Y138480D01*
X275499Y138534D01*
X275469Y138566D01*
X275435Y138577D01*
X277449Y138565D01*
D02*
G37*
G36*
X280141Y136905D02*
X278394D01*
X278429Y136921D01*
X278460Y136968D01*
X278488Y137047D01*
X278512Y137157D01*
X278533Y137299D01*
X278562Y137677D01*
X278579Y138480D01*
X280153D01*
X280141Y136905D01*
D02*
G37*
G36*
X50069Y138288D02*
X49968Y138252D01*
X49880Y138192D01*
X49803Y138109D01*
X49738Y138001D01*
X49685Y137870D01*
X49644Y137715D01*
X49614Y137536D01*
X49611Y137496D01*
X49614Y137457D01*
X49644Y137279D01*
X49685Y137126D01*
X49738Y136996D01*
X49803Y136890D01*
X49880Y136807D01*
X49968Y136748D01*
X50069Y136712D01*
X50181Y136701D01*
X47819D01*
X47931Y136712D01*
X48031Y136748D01*
X48120Y136807D01*
X48197Y136890D01*
X48262Y136996D01*
X48315Y137126D01*
X48356Y137279D01*
X48386Y137457D01*
X48389Y137496D01*
X48386Y137536D01*
X48356Y137715D01*
X48315Y137870D01*
X48262Y138001D01*
X48197Y138109D01*
X48120Y138192D01*
X48031Y138252D01*
X47931Y138288D01*
X47819Y138300D01*
X50181D01*
X50069Y138288D01*
D02*
G37*
G36*
X302103Y137644D02*
X301953Y137590D01*
X301820Y137501D01*
X301705Y137376D01*
X301607Y137216D01*
X301528Y137020D01*
X301466Y136788D01*
X301421Y136520D01*
X301395Y136217D01*
X301386Y135878D01*
X299614D01*
X299605Y136217D01*
X299579Y136520D01*
X299535Y136788D01*
X299472Y137020D01*
X299393Y137216D01*
X299295Y137376D01*
X299180Y137501D01*
X299047Y137590D01*
X298897Y137644D01*
X298728Y137662D01*
X302272D01*
X302103Y137644D01*
D02*
G37*
G36*
X109315Y135793D02*
X107567D01*
X107583Y135809D01*
X107598Y135856D01*
X107611Y135935D01*
X107622Y136045D01*
X107646Y136565D01*
X107653Y137368D01*
X109228D01*
X109315Y135793D01*
D02*
G37*
G36*
X293773Y139089D02*
X294440Y138526D01*
X294640Y138388D01*
X294829Y138275D01*
X295007Y138187D01*
X295173Y138125D01*
X295328Y138087D01*
X295472Y138075D01*
X293540Y135569D01*
X293624Y135720D01*
X293662Y135893D01*
X293653Y136089D01*
X293597Y136306D01*
X293494Y136546D01*
X293344Y136807D01*
X293147Y137091D01*
X292903Y137397D01*
X292275Y138075D01*
X293528Y139327D01*
X293773Y139089D01*
D02*
G37*
G36*
X347456Y137144D02*
X347492Y137043D01*
X347552Y136955D01*
X347635Y136878D01*
X347743Y136813D01*
X347874Y136760D01*
X347981Y136731D01*
X348068Y136755D01*
X348210Y136805D01*
X348348Y136866D01*
X348481Y136939D01*
X348611Y137023D01*
X348737Y137118D01*
X348859Y137223D01*
X348754Y134883D01*
X348643Y134997D01*
X348528Y135100D01*
X348406Y135190D01*
X348280Y135268D01*
X348147Y135334D01*
X348010Y135388D01*
X347942Y135408D01*
X347874Y135390D01*
X347743Y135337D01*
X347635Y135272D01*
X347552Y135195D01*
X347492Y135106D01*
X347456Y135006D01*
X347445Y134894D01*
Y135483D01*
X347404Y135484D01*
X347445Y136325D01*
Y137256D01*
X347456Y137144D01*
D02*
G37*
G36*
X50850Y136613D02*
X50886Y136535D01*
X50945Y136466D01*
X51027Y136406D01*
X51134Y136355D01*
X51264Y136314D01*
X51417Y136282D01*
X51594Y136259D01*
X51795Y136245D01*
X52020Y136240D01*
Y135059D01*
X51795Y135055D01*
X51417Y135018D01*
X51264Y134985D01*
X51134Y134944D01*
X51027Y134893D01*
X50945Y134833D01*
X50886Y134764D01*
X50850Y134686D01*
X50838Y134599D01*
Y136701D01*
X50850Y136613D01*
D02*
G37*
G36*
X96990Y137363D02*
X97043Y137213D01*
X97132Y137080D01*
X97256Y136965D01*
X97415Y136867D01*
X97610Y136787D01*
X97840Y136725D01*
X98036Y136693D01*
X98063Y136695D01*
X98178Y136717D01*
X98280Y136742D01*
X98368Y136772D01*
X98441Y136805D01*
X98501Y136843D01*
X98472Y136653D01*
X98744Y136646D01*
Y134874D01*
X98407Y134865D01*
X98188Y134846D01*
X98138Y134529D01*
X98081Y134594D01*
X98011Y134653D01*
X97927Y134705D01*
X97829Y134750D01*
X97760Y134773D01*
X97610Y134732D01*
X97415Y134653D01*
X97256Y134555D01*
X97132Y134440D01*
X97043Y134307D01*
X96990Y134157D01*
X96972Y133988D01*
Y134873D01*
X96944Y134874D01*
X96972Y135023D01*
Y137531D01*
X96990Y137363D01*
D02*
G37*
G36*
X84603Y136294D02*
X84453Y136240D01*
X84320Y136151D01*
X84205Y136026D01*
X84107Y135865D01*
X84028Y135669D01*
X83965Y135437D01*
X83921Y135170D01*
X83895Y134867D01*
X83886Y134528D01*
X82114D01*
X82105Y134867D01*
X82079Y135170D01*
X82034Y135437D01*
X81972Y135669D01*
X81893Y135865D01*
X81795Y136026D01*
X81680Y136151D01*
X81547Y136240D01*
X81397Y136294D01*
X81228Y136311D01*
X84772D01*
X84603Y136294D01*
D02*
G37*
G36*
X35500Y157000D02*
X35500Y133000D01*
X20000Y133000D01*
X20000Y125117D01*
X20000Y81114D01*
X24035Y81114D01*
Y70354D01*
X53760Y70354D01*
X54854D01*
X55000Y70500D01*
Y78850D01*
Y91768D01*
X80732D01*
Y71000D01*
X72000D01*
Y68319D01*
X53760D01*
X42342Y68319D01*
X42342Y49421D01*
X15380Y49421D01*
Y51671D01*
X15380Y51790D01*
Y52171D01*
X15380Y52290D01*
Y54821D01*
X15380Y54939D01*
Y55321D01*
X15380Y55439D01*
Y57970D01*
X15380Y58089D01*
Y58470D01*
X15380Y58589D01*
Y61120D01*
X15380Y61239D01*
Y61620D01*
X15380Y61739D01*
Y64269D01*
X15380Y64388D01*
Y64769D01*
X15380Y64888D01*
Y67538D01*
X10840D01*
Y64888D01*
X10840Y64769D01*
Y64388D01*
X10840Y64269D01*
Y61739D01*
X10840Y61620D01*
Y61239D01*
X10840Y61120D01*
Y58589D01*
X10840Y58470D01*
Y58089D01*
X10840Y57970D01*
Y55439D01*
X10840Y55321D01*
Y54939D01*
X10840Y54821D01*
Y52290D01*
X10840Y52171D01*
Y51790D01*
X10840Y51671D01*
Y49421D01*
X1606D01*
Y157000D01*
X35500Y157000D01*
D02*
G37*
G36*
X96984Y132764D02*
X95213D01*
X95211Y132992D01*
X95166Y133665D01*
X95146Y133773D01*
X95122Y133857D01*
X95094Y133917D01*
X95063Y133953D01*
X95028Y133965D01*
X96972D01*
X96984Y132764D01*
D02*
G37*
G36*
X295386Y133965D02*
X295472D01*
X295456Y133947D01*
X295441Y133894D01*
X295428Y133805D01*
X295417Y133681D01*
X295410Y133461D01*
X295421Y133330D01*
X295465Y133063D01*
X295528Y132831D01*
X295607Y132634D01*
X295705Y132474D01*
X295820Y132349D01*
X295953Y132260D01*
X296103Y132206D01*
X296272Y132189D01*
X292728D01*
X292897Y132206D01*
X293047Y132260D01*
X293180Y132349D01*
X293295Y132474D01*
X293393Y132634D01*
X293472Y132831D01*
X293534Y133063D01*
X293563Y133237D01*
X293528Y133965D01*
X293614D01*
X293614Y133972D01*
X295386D01*
X295386Y133965D01*
D02*
G37*
G36*
X307456Y133947D02*
X307441Y133894D01*
X307428Y133805D01*
X307417Y133681D01*
X307400Y133146D01*
X307457Y132313D01*
X307488Y132153D01*
X307525Y132029D01*
X307567Y131941D01*
X307615Y131888D01*
X307669Y131870D01*
X305331D01*
X305385Y131888D01*
X305433Y131941D01*
X305475Y132029D01*
X305512Y132153D01*
X305543Y132313D01*
X305569Y132508D01*
X305586Y132763D01*
X305528Y133965D01*
X307472D01*
X307456Y133947D01*
D02*
G37*
G36*
X303255Y133299D02*
X303323Y132311D01*
X303354Y132152D01*
X303391Y132029D01*
X303433Y131940D01*
X303481Y131887D01*
X303535Y131870D01*
X301197D01*
X301251Y131887D01*
X301299Y131940D01*
X301342Y132029D01*
X301378Y132152D01*
X301410Y132311D01*
X301435Y132505D01*
X301469Y132999D01*
X301480Y133634D01*
X303252D01*
X303255Y133299D01*
D02*
G37*
G36*
X89956Y133947D02*
X89941Y133894D01*
X89928Y133805D01*
X89917Y133681D01*
X89899Y133146D01*
X89957Y132313D01*
X89988Y132153D01*
X90025Y132029D01*
X90067Y131941D01*
X90115Y131888D01*
X90169Y131870D01*
X87831D01*
X87885Y131888D01*
X87933Y131941D01*
X87975Y132029D01*
X88012Y132153D01*
X88043Y132313D01*
X88069Y132508D01*
X88086Y132763D01*
X88028Y133965D01*
X89972D01*
X89956Y133947D01*
D02*
G37*
G36*
X290704Y132174D02*
X290781Y132129D01*
X290871Y132089D01*
X290974Y132055D01*
X291090Y132026D01*
X291220Y132003D01*
X291364Y131984D01*
X291446Y131979D01*
X292378Y132047D01*
X292502Y132078D01*
X292591Y132114D01*
X292644Y132155D01*
X292662Y132201D01*
Y130099D01*
X292644Y130116D01*
X292591Y130131D01*
X292502Y130145D01*
X292378Y130156D01*
X291793Y130181D01*
X291725Y130181D01*
X291460Y130161D01*
X291317Y130140D01*
X291188Y130113D01*
X291073Y130079D01*
X290971Y130039D01*
X290883Y129993D01*
X290808Y129941D01*
X290746Y129883D01*
X290641Y132223D01*
X290704Y132174D01*
D02*
G37*
G36*
X333032Y132683D02*
X332913Y132581D01*
X332806Y132473D01*
X332713Y132359D01*
X332631Y132238D01*
X332562Y132110D01*
X332506Y131976D01*
X332462Y131835D01*
X332431Y131687D01*
X332412Y131533D01*
X332411Y131500D01*
X332412Y131467D01*
X332431Y131313D01*
X332462Y131165D01*
X332506Y131024D01*
X332562Y130890D01*
X332631Y130762D01*
X332713Y130641D01*
X332806Y130527D01*
X332913Y130419D01*
X333032Y130317D01*
X330704Y130058D01*
X330803Y130187D01*
X330891Y130319D01*
X330969Y130455D01*
X331037Y130593D01*
X331094Y130734D01*
X331141Y130878D01*
X331178Y131026D01*
X331204Y131176D01*
X331219Y131330D01*
X331224Y131487D01*
X331337Y131500D01*
X331224Y131513D01*
X331219Y131670D01*
X331204Y131824D01*
X331178Y131974D01*
X331141Y132122D01*
X331094Y132266D01*
X331037Y132407D01*
X330969Y132545D01*
X330891Y132681D01*
X330803Y132813D01*
X330704Y132942D01*
X333032Y132683D01*
D02*
G37*
G36*
X318343Y127650D02*
X318325Y127818D01*
X318272Y127969D01*
X318183Y128101D01*
X318059Y128217D01*
X317900Y128314D01*
X317705Y128394D01*
X317475Y128456D01*
X317209Y128500D01*
X316908Y128527D01*
X316571Y128535D01*
Y130307D01*
X316908Y130316D01*
X317209Y130342D01*
X317475Y130387D01*
X317705Y130449D01*
X317900Y130528D01*
X318059Y130626D01*
X318183Y130741D01*
X318272Y130874D01*
X318325Y131025D01*
X318343Y131193D01*
Y127650D01*
D02*
G37*
G36*
X311821Y131025D02*
X311874Y130874D01*
X311962Y130741D01*
X312086Y130626D01*
X312246Y130528D01*
X312441Y130449D01*
X312671Y130387D01*
X312937Y130342D01*
X313238Y130316D01*
X313575Y130307D01*
Y128535D01*
X313238Y128527D01*
X312937Y128500D01*
X312671Y128456D01*
X312441Y128394D01*
X312246Y128314D01*
X312086Y128217D01*
X311962Y128101D01*
X311874Y127969D01*
X311821Y127818D01*
X311803Y127650D01*
Y131193D01*
X311821Y131025D01*
D02*
G37*
G36*
X49596Y128411D02*
X49608Y128311D01*
X50181D01*
X50069Y128299D01*
X49968Y128264D01*
X49880Y128204D01*
X49803Y128121D01*
X49738Y128013D01*
X49700Y127919D01*
X49736Y127823D01*
X49800Y127688D01*
X49875Y127558D01*
X49962Y127432D01*
X50061Y127311D01*
X50171Y127195D01*
X49593D01*
X49591Y127118D01*
X48409D01*
X48408Y127195D01*
X47829D01*
X47939Y127311D01*
X48038Y127432D01*
X48125Y127558D01*
X48200Y127688D01*
X48264Y127823D01*
X48300Y127919D01*
X48262Y128013D01*
X48197Y128121D01*
X48120Y128204D01*
X48031Y128264D01*
X47931Y128299D01*
X47819Y128311D01*
X48392D01*
X48404Y128411D01*
X48409Y128569D01*
X49591D01*
X49596Y128411D01*
D02*
G37*
G36*
X346569Y128288D02*
X346468Y128252D01*
X346380Y128192D01*
X346303Y128109D01*
X346238Y128001D01*
X346185Y127870D01*
X346144Y127715D01*
X346114Y127536D01*
X346096Y127333D01*
X346091Y127106D01*
X344910D01*
X344903Y127333D01*
X344886Y127536D01*
X344856Y127715D01*
X344815Y127870D01*
X344762Y128001D01*
X344697Y128109D01*
X344620Y128192D01*
X344531Y128252D01*
X344431Y128288D01*
X344319Y128300D01*
X346681D01*
X346569Y128288D01*
D02*
G37*
G36*
X77076Y128010D02*
X77004Y127964D01*
X76941Y127903D01*
X76885Y127827D01*
X76836Y127735D01*
X76794Y127629D01*
X76761Y127507D01*
X76735Y127370D01*
X76716Y127218D01*
X76705Y127050D01*
X76701Y126868D01*
X74929Y127558D01*
X74928Y127747D01*
X74872Y128611D01*
X74857Y128668D01*
X74840Y128710D01*
X77076Y128010D01*
D02*
G37*
G36*
X333061Y127689D02*
X332962Y127568D01*
X332875Y127442D01*
X332800Y127312D01*
X332736Y127177D01*
X332683Y127037D01*
X332643Y126892D01*
X332614Y126743D01*
X332596Y126589D01*
X332591Y126430D01*
X331410D01*
X331404Y126589D01*
X331386Y126743D01*
X331357Y126892D01*
X331316Y127037D01*
X331264Y127177D01*
X331200Y127312D01*
X331125Y127442D01*
X331038Y127568D01*
X330939Y127689D01*
X330829Y127805D01*
X333171D01*
X333061Y127689D01*
D02*
G37*
G36*
X94207Y129336D02*
X94160Y129171D01*
X94162Y128981D01*
X94213Y128766D01*
X94314Y128528D01*
X94464Y128265D01*
X94663Y127978D01*
X94911Y127667D01*
X95556Y126973D01*
X94303Y125720D01*
X94054Y125958D01*
X93566Y126359D01*
X93327Y126522D01*
X93092Y126659D01*
X92860Y126772D01*
X92631Y126860D01*
X92406Y126923D01*
X92184Y126960D01*
X91965Y126973D01*
X94303Y129478D01*
X94207Y129336D01*
D02*
G37*
G36*
X346096Y126669D02*
X346114Y126468D01*
X346144Y126291D01*
X346185Y126138D01*
X346238Y126008D01*
X346303Y125901D01*
X346380Y125819D01*
X346468Y125760D01*
X346569Y125724D01*
X346681Y125712D01*
X344319D01*
X344431Y125724D01*
X344531Y125760D01*
X344620Y125819D01*
X344697Y125901D01*
X344762Y126008D01*
X344815Y126138D01*
X344856Y126291D01*
X344886Y126468D01*
X344903Y126669D01*
X344910Y126893D01*
X346091D01*
X346096Y126669D01*
D02*
G37*
G36*
X307615Y126955D02*
X307567Y126902D01*
X307525Y126813D01*
X307488Y126689D01*
X307457Y126530D01*
X307431Y126335D01*
X307397Y125839D01*
X307386Y125201D01*
X305614D01*
X305611Y125538D01*
X305543Y126530D01*
X305512Y126689D01*
X305475Y126813D01*
X305433Y126902D01*
X305385Y126955D01*
X305331Y126973D01*
X307669D01*
X307615Y126955D01*
D02*
G37*
G36*
X90115D02*
X90067Y126902D01*
X90025Y126813D01*
X89988Y126689D01*
X89957Y126530D01*
X89931Y126335D01*
X89897Y125839D01*
X89886Y125201D01*
X88114D01*
X88111Y125538D01*
X88043Y126530D01*
X88012Y126689D01*
X87975Y126813D01*
X87933Y126902D01*
X87885Y126955D01*
X87831Y126973D01*
X90169D01*
X90115Y126955D01*
D02*
G37*
G36*
X256000Y131500D02*
X249500Y125000D01*
X204000D01*
X197500Y131500D01*
Y170000D01*
X204000Y176500D01*
X256000D01*
Y131500D01*
D02*
G37*
G36*
X192500Y170000D02*
X192500Y131500D01*
X186000Y125000D01*
X140500D01*
X134000Y131500D01*
X134000Y176500D01*
X186000Y176500D01*
X192500Y170000D01*
D02*
G37*
G36*
X332596Y125911D02*
X332614Y125757D01*
X332643Y125608D01*
X332683Y125463D01*
X332736Y125323D01*
X332800Y125188D01*
X332875Y125058D01*
X332962Y124932D01*
X333061Y124811D01*
X333171Y124695D01*
X330829D01*
X330939Y124811D01*
X331038Y124932D01*
X331125Y125058D01*
X331200Y125188D01*
X331264Y125323D01*
X331316Y125463D01*
X331357Y125608D01*
X331386Y125757D01*
X331404Y125911D01*
X331410Y126069D01*
X332591D01*
X332596Y125911D01*
D02*
G37*
G36*
X322074Y125740D02*
X322096Y125414D01*
X322116Y125271D01*
X322142Y125142D01*
X322174Y125026D01*
X322211Y124923D01*
X322253Y124834D01*
X322302Y124758D01*
X322356Y124695D01*
X320014D01*
X320068Y124758D01*
X320116Y124834D01*
X320159Y124923D01*
X320197Y125026D01*
X320228Y125142D01*
X320253Y125271D01*
X320273Y125414D01*
X320296Y125740D01*
X320299Y125924D01*
X322071D01*
X322074Y125740D01*
D02*
G37*
G36*
X295500Y167500D02*
X327000D01*
Y156500D01*
X305500Y156500D01*
X297000Y148000D01*
X273000D01*
Y118500D01*
X256500Y102000D01*
X166500Y102000D01*
X132500Y102000D01*
X117000Y117500D01*
X117000Y148000D01*
X92500Y148000D01*
X84000Y156500D01*
X62500Y156500D01*
X62500Y167500D01*
X95000Y167500D01*
X104000Y176500D01*
X132000D01*
X132000Y131000D01*
X139500Y123500D01*
X250000D01*
X258000Y131500D01*
X258000Y176500D01*
X286500D01*
X295500Y167500D01*
D02*
G37*
G36*
X58595Y124805D02*
X59171D01*
X59061Y124689D01*
X58962Y124568D01*
X58875Y124442D01*
X58800Y124312D01*
X58736Y124177D01*
X58719Y124131D01*
X58738Y124083D01*
X58803Y123976D01*
X58880Y123893D01*
X58969Y123834D01*
X59069Y123799D01*
X59181Y123787D01*
X58622D01*
X58614Y123743D01*
X58596Y123589D01*
X58591Y123431D01*
X57410D01*
X57404Y123589D01*
X57386Y123743D01*
X57378Y123787D01*
X56819D01*
X56931Y123799D01*
X57032Y123834D01*
X57120Y123893D01*
X57197Y123976D01*
X57262Y124083D01*
X57282Y124131D01*
X57264Y124177D01*
X57200Y124312D01*
X57125Y124442D01*
X57038Y124568D01*
X56939Y124689D01*
X56829Y124805D01*
X57405D01*
X57410Y124968D01*
X58591D01*
X58595Y124805D01*
D02*
G37*
G36*
X296341Y123782D02*
X296343Y123729D01*
X296350Y122028D01*
X294579D01*
X294570Y122364D01*
X294543Y122666D01*
X294499Y122931D01*
X294437Y123162D01*
X294357Y123356D01*
X294260Y123516D01*
X294145Y123640D01*
X294012Y123729D01*
X293861Y123782D01*
X293693Y123799D01*
X296338D01*
X296341Y123782D01*
D02*
G37*
G36*
X307389Y123462D02*
X307457Y122470D01*
X307488Y122311D01*
X307525Y122187D01*
X307567Y122098D01*
X307615Y122045D01*
X307669Y122027D01*
X305331D01*
X305385Y122045D01*
X305433Y122098D01*
X305475Y122187D01*
X305512Y122311D01*
X305543Y122470D01*
X305569Y122665D01*
X305603Y123161D01*
X305614Y123799D01*
X307386D01*
X307389Y123462D01*
D02*
G37*
G36*
X89889D02*
X89957Y122470D01*
X89988Y122311D01*
X90025Y122187D01*
X90067Y122098D01*
X90115Y122045D01*
X90169Y122027D01*
X87831D01*
X87885Y122045D01*
X87933Y122098D01*
X87975Y122187D01*
X88012Y122311D01*
X88043Y122470D01*
X88069Y122665D01*
X88103Y123161D01*
X88114Y123799D01*
X89886D01*
X89889Y123462D01*
D02*
G37*
G36*
X100103Y123782D02*
X99953Y123729D01*
X99820Y123640D01*
X99705Y123516D01*
X99607Y123356D01*
X99528Y123162D01*
X99466Y122931D01*
X99421Y122666D01*
X99406Y122493D01*
X99411Y122414D01*
X99432Y122272D01*
X99457Y122142D01*
X99489Y122026D01*
X99526Y121923D01*
X99568Y121834D01*
X99617Y121758D01*
X99671Y121695D01*
X97329D01*
X97383Y121758D01*
X97431Y121834D01*
X97474Y121923D01*
X97511Y122026D01*
X97543Y122142D01*
X97569Y122272D01*
X97588Y122414D01*
X97594Y122493D01*
X97579Y122666D01*
X97535Y122931D01*
X97472Y123162D01*
X97393Y123356D01*
X97295Y123516D01*
X97180Y123640D01*
X97047Y123729D01*
X96897Y123782D01*
X96728Y123799D01*
X100272D01*
X100103Y123782D01*
D02*
G37*
G36*
X333061Y122189D02*
X332962Y122068D01*
X332875Y121942D01*
X332800Y121812D01*
X332736Y121677D01*
X332683Y121537D01*
X332643Y121393D01*
X332614Y121243D01*
X332596Y121089D01*
X332591Y120931D01*
X331410D01*
X331404Y121089D01*
X331386Y121243D01*
X331357Y121393D01*
X331316Y121537D01*
X331264Y121677D01*
X331200Y121812D01*
X331125Y121942D01*
X331038Y122068D01*
X330939Y122189D01*
X330829Y122305D01*
X333171D01*
X333061Y122189D01*
D02*
G37*
G36*
X301209Y117768D02*
X301191Y117936D01*
X301138Y118087D01*
X301048Y118219D01*
X300924Y118335D01*
X300763Y118432D01*
X300567Y118512D01*
X300335Y118574D01*
X300067Y118618D01*
X299764Y118645D01*
X299705Y118646D01*
X299439Y118627D01*
X299296Y118606D01*
X299167Y118579D01*
X299051Y118547D01*
X298949Y118508D01*
X298860Y118464D01*
X298784Y118413D01*
X298722Y118357D01*
X298667Y120699D01*
X298730Y120647D01*
X298806Y120600D01*
X298896Y120559D01*
X298999Y120524D01*
X299115Y120494D01*
X299245Y120469D01*
X299388Y120450D01*
X299663Y120431D01*
X299764Y120434D01*
X300067Y120461D01*
X300335Y120505D01*
X300567Y120567D01*
X300763Y120647D01*
X300924Y120744D01*
X301048Y120859D01*
X301138Y120992D01*
X301191Y121143D01*
X301209Y121311D01*
Y117768D01*
D02*
G37*
G36*
X296928Y121753D02*
X297384Y121359D01*
X297479Y121292D01*
X297567Y121237D01*
X297647Y121195D01*
X297720Y121166D01*
X297785Y121149D01*
X295857Y119818D01*
X295866Y119904D01*
X295860Y119995D01*
X295838Y120091D01*
X295802Y120192D01*
X295750Y120298D01*
X295684Y120410D01*
X295602Y120526D01*
X295506Y120647D01*
X295268Y120905D01*
X296796Y121883D01*
X296928Y121753D01*
D02*
G37*
G36*
X83709Y117807D02*
X83691Y117975D01*
X83638Y118126D01*
X83548Y118259D01*
X83424Y118374D01*
X83263Y118472D01*
X83067Y118551D01*
X82835Y118613D01*
X82568Y118658D01*
X82264Y118684D01*
X81925Y118693D01*
Y120465D01*
X82264Y120473D01*
X82568Y120500D01*
X82835Y120544D01*
X83067Y120606D01*
X83263Y120686D01*
X83424Y120783D01*
X83548Y120899D01*
X83638Y121031D01*
X83691Y121182D01*
X83709Y121350D01*
Y117807D01*
D02*
G37*
G36*
X79175Y121182D02*
X79228Y121031D01*
X79317Y120899D01*
X79441Y120783D01*
X79600Y120686D01*
X79795Y120606D01*
X80025Y120544D01*
X80291Y120500D01*
X80592Y120473D01*
X80929Y120465D01*
Y118693D01*
X80592Y118684D01*
X80291Y118658D01*
X80025Y118613D01*
X79795Y118551D01*
X79600Y118472D01*
X79441Y118374D01*
X79317Y118259D01*
X79228Y118126D01*
X79175Y117975D01*
X79157Y117807D01*
Y121350D01*
X79175Y121182D01*
D02*
G37*
G36*
X90169Y117130D02*
X90181Y116205D01*
X88409D01*
X88370Y117142D01*
X90169Y117130D01*
D02*
G37*
G36*
X307615Y117113D02*
X307567Y117062D01*
X307525Y116978D01*
X307488Y116859D01*
X307457Y116707D01*
X307431Y116521D01*
X307397Y116047D01*
X307386Y115437D01*
X305614D01*
X305611Y115759D01*
X305543Y116707D01*
X305512Y116859D01*
X305475Y116978D01*
X305433Y117062D01*
X305385Y117113D01*
X305331Y117130D01*
X307669D01*
X307615Y117113D01*
D02*
G37*
G36*
X86007D02*
X85981Y117062D01*
X85959Y116978D01*
X85940Y116859D01*
X85923Y116707D01*
X85892Y116047D01*
X85886Y115437D01*
X84114D01*
X84110Y115759D01*
X84047Y116521D01*
X84010Y116707D01*
X83964Y116859D01*
X83910Y116978D01*
X83847Y117062D01*
X83776Y117113D01*
X83697Y117130D01*
X86035D01*
X86007Y117113D01*
D02*
G37*
G36*
X332596Y120411D02*
X332614Y120257D01*
X332643Y120107D01*
X332683Y119963D01*
X332736Y119823D01*
X332800Y119688D01*
X332875Y119558D01*
X332962Y119432D01*
X333061Y119311D01*
X333171Y119195D01*
X332000Y118000D01*
X333171Y116805D01*
X333061Y116689D01*
X332962Y116568D01*
X332875Y116442D01*
X332800Y116312D01*
X332736Y116177D01*
X332683Y116037D01*
X332643Y115893D01*
X332614Y115743D01*
X332596Y115589D01*
X332593Y115500D01*
X332596Y115411D01*
X332614Y115257D01*
X332643Y115108D01*
X332683Y114963D01*
X332736Y114823D01*
X332800Y114688D01*
X332875Y114558D01*
X332962Y114432D01*
X333061Y114311D01*
X333171Y114195D01*
X330829D01*
X330939Y114311D01*
X331038Y114432D01*
X331125Y114558D01*
X331200Y114688D01*
X331264Y114823D01*
X331316Y114963D01*
X331357Y115108D01*
X331386Y115257D01*
X331404Y115411D01*
X331407Y115500D01*
X331404Y115589D01*
X331386Y115743D01*
X331357Y115893D01*
X331316Y116037D01*
X331264Y116177D01*
X331200Y116312D01*
X331125Y116442D01*
X331038Y116568D01*
X330939Y116689D01*
X330829Y116805D01*
X332000Y118000D01*
X330829Y119195D01*
X330939Y119311D01*
X331038Y119432D01*
X331125Y119558D01*
X331200Y119688D01*
X331264Y119823D01*
X331316Y119963D01*
X331357Y120107D01*
X331386Y120257D01*
X331404Y120411D01*
X331410Y120570D01*
X332591D01*
X332596Y120411D01*
D02*
G37*
G36*
X347328Y116262D02*
X347213Y116185D01*
X347111Y116057D01*
X347023Y115878D01*
X346949Y115648D01*
X346888Y115366D01*
X346841Y115034D01*
X346807Y114650D01*
X346779Y113728D01*
X344220D01*
X344214Y114215D01*
X344112Y115366D01*
X344051Y115648D01*
X343977Y115878D01*
X343889Y116057D01*
X343787Y116185D01*
X343672Y116262D01*
X343544Y116288D01*
X347457D01*
X347328Y116262D01*
D02*
G37*
G36*
X360477Y113437D02*
X358418Y113425D01*
Y115984D01*
X358809Y115986D01*
X360291Y116075D01*
X360394Y116103D01*
X360456Y116134D01*
X360477Y116169D01*
Y113437D01*
D02*
G37*
G36*
X114451Y115603D02*
X114504Y115453D01*
X114592Y115320D01*
X114716Y115205D01*
X114876Y115107D01*
X115071Y115028D01*
X115250Y114979D01*
X115285Y114989D01*
X115388Y115026D01*
X115477Y115068D01*
X115553Y115117D01*
X115616Y115171D01*
Y114917D01*
X115868Y114895D01*
X116205Y114886D01*
Y113114D01*
X115868Y113111D01*
X115616Y113091D01*
Y112829D01*
X115553Y112883D01*
X115477Y112932D01*
X115388Y112974D01*
X115285Y113011D01*
X115169Y113043D01*
X115121Y113052D01*
X114876Y113033D01*
X114716Y112997D01*
X114592Y112955D01*
X114504Y112906D01*
X114451Y112851D01*
X114433Y112790D01*
Y113113D01*
X114388Y113114D01*
Y114886D01*
X114433Y114886D01*
Y115772D01*
X114451Y115603D01*
D02*
G37*
G36*
X280037Y113890D02*
X279943Y113855D01*
X279860Y113795D01*
X279789Y113713D01*
X279728Y113607D01*
X279679Y113477D01*
X279640Y113323D01*
X279613Y113146D01*
X279596Y112945D01*
X279591Y112721D01*
X278410D01*
X278394Y113902D01*
X280141D01*
X280037Y113890D01*
D02*
G37*
G36*
X277509D02*
X277443Y113855D01*
X277385Y113795D01*
X277334Y113713D01*
X277292Y113607D01*
X277257Y113477D01*
X277230Y113323D01*
X277210Y113146D01*
X277195Y112721D01*
X276014D01*
X276012Y112945D01*
X275969Y113607D01*
X275949Y113713D01*
X275926Y113795D01*
X275899Y113855D01*
X275869Y113890D01*
X275835Y113902D01*
X277583D01*
X277509Y113890D01*
D02*
G37*
G36*
X285252Y115347D02*
X285273Y115287D01*
X285325Y115201D01*
X285405Y115091D01*
X285656Y114795D01*
X286254Y114163D01*
X286512Y113902D01*
X285260Y112649D01*
X284999Y112908D01*
X283875Y113888D01*
X283814Y113910D01*
X283779Y113902D01*
X285260Y115382D01*
X285252Y115347D01*
D02*
G37*
G36*
X308706Y115103D02*
X308760Y114953D01*
X308849Y114820D01*
X308974Y114705D01*
X309135Y114607D01*
X309331Y114528D01*
X309563Y114466D01*
X309747Y114435D01*
X309858Y114457D01*
X309974Y114489D01*
X310077Y114526D01*
X310166Y114568D01*
X310242Y114617D01*
X310305Y114671D01*
Y114390D01*
X310472Y114386D01*
Y112614D01*
X310305Y112610D01*
Y112329D01*
X310242Y112383D01*
X310166Y112432D01*
X310077Y112474D01*
X309974Y112511D01*
X309858Y112543D01*
X309747Y112565D01*
X309563Y112534D01*
X309331Y112472D01*
X309135Y112393D01*
X308974Y112295D01*
X308849Y112180D01*
X308760Y112047D01*
X308706Y111897D01*
X308689Y111728D01*
Y115272D01*
X308706Y115103D01*
D02*
G37*
G36*
X91206D02*
X91260Y114953D01*
X91349Y114820D01*
X91474Y114705D01*
X91635Y114607D01*
X91831Y114528D01*
X92063Y114466D01*
X92330Y114421D01*
X92505Y114406D01*
X92586Y114411D01*
X92729Y114432D01*
X92858Y114457D01*
X92974Y114489D01*
X93077Y114526D01*
X93166Y114568D01*
X93242Y114617D01*
X93305Y114671D01*
Y112329D01*
X93242Y112383D01*
X93166Y112432D01*
X93077Y112474D01*
X92974Y112511D01*
X92858Y112543D01*
X92729Y112568D01*
X92586Y112589D01*
X92505Y112594D01*
X92330Y112579D01*
X92063Y112534D01*
X91831Y112472D01*
X91635Y112393D01*
X91474Y112295D01*
X91349Y112180D01*
X91260Y112047D01*
X91206Y111897D01*
X91189Y111728D01*
Y115272D01*
X91206Y115103D01*
D02*
G37*
G36*
X59006Y114363D02*
X58906Y114327D01*
X58817Y114267D01*
X58740Y114183D01*
X58675Y114076D01*
X58622Y113945D01*
X58581Y113790D01*
X58551Y113611D01*
X58534Y113408D01*
X58531Y113326D01*
X58534Y113244D01*
X58551Y113043D01*
X58581Y112866D01*
X58622Y112712D01*
X58675Y112583D01*
X58740Y112476D01*
X58817Y112393D01*
X58906Y112334D01*
X59006Y112299D01*
X59118Y112287D01*
X56756D01*
X56868Y112299D01*
X56969Y112334D01*
X57057Y112393D01*
X57134Y112476D01*
X57199Y112583D01*
X57252Y112712D01*
X57293Y112866D01*
X57323Y113043D01*
X57341Y113244D01*
X57343Y113326D01*
X57341Y113408D01*
X57323Y113611D01*
X57293Y113790D01*
X57252Y113945D01*
X57199Y114076D01*
X57134Y114183D01*
X57057Y114267D01*
X56969Y114327D01*
X56868Y114363D01*
X56756Y114374D01*
X59118D01*
X59006Y114363D01*
D02*
G37*
G36*
X68385Y110253D02*
X68261Y110356D01*
X68133Y110449D01*
X68001Y110531D01*
X67866Y110602D01*
X67727Y110663D01*
X67584Y110712D01*
X67524Y110728D01*
X67439Y110705D01*
X67307Y110652D01*
X67200Y110587D01*
X67116Y110510D01*
X67056Y110421D01*
X67020Y110321D01*
X67007Y110209D01*
X67010Y110798D01*
X66977Y110799D01*
X66893Y111980D01*
X67017Y111985D01*
X67019Y112547D01*
X67031Y112439D01*
X67067Y112343D01*
X67126Y112258D01*
X67208Y112184D01*
X67315Y112122D01*
X67445Y112071D01*
X67461Y112067D01*
X67498Y112078D01*
X67634Y112133D01*
X67765Y112200D01*
X67890Y112279D01*
X68010Y112371D01*
X68123Y112474D01*
X68230Y112590D01*
X68385Y110253D01*
D02*
G37*
G36*
X83684Y111662D02*
X83664Y111677D01*
X83626Y111672D01*
X83572Y111645D01*
X83500Y111598D01*
X83410Y111529D01*
X83180Y111329D01*
X82761Y110925D01*
X82965D01*
X82971Y110588D01*
X83025Y110021D01*
X83073Y109791D01*
X83134Y109596D01*
X83208Y109437D01*
X83296Y109313D01*
X83398Y109224D01*
X83513Y109171D01*
X83641Y109153D01*
X80516D01*
X80645Y109171D01*
X80760Y109224D01*
X80861Y109313D01*
X80949Y109437D01*
X81024Y109596D01*
X81085Y109791D01*
X81132Y110021D01*
X81166Y110287D01*
X81186Y110588D01*
X81193Y110925D01*
X82651D01*
X81452Y112124D01*
X81719Y112392D01*
X82796Y113621D01*
X82799Y113660D01*
X83684Y111662D01*
D02*
G37*
G36*
X109261Y112778D02*
X109213Y112742D01*
X109170Y112683D01*
X109134Y112601D01*
X109102Y112494D01*
X109077Y112364D01*
X109057Y112211D01*
X109034Y111833D01*
X109031Y111609D01*
X107850D01*
X107848Y111833D01*
X107805Y112364D01*
X107780Y112494D01*
X107748Y112601D01*
X107712Y112683D01*
X107669Y112742D01*
X107621Y112778D01*
X107567Y112790D01*
X109315D01*
X109261Y112778D01*
D02*
G37*
G36*
X106702D02*
X106654Y112742D01*
X106611Y112683D01*
X106574Y112601D01*
X106543Y112494D01*
X106518Y112364D01*
X106498Y112211D01*
X106475Y111833D01*
X106472Y111609D01*
X105291D01*
X105289Y111833D01*
X105246Y112364D01*
X105220Y112494D01*
X105189Y112601D01*
X105152Y112683D01*
X105110Y112742D01*
X105062Y112778D01*
X105008Y112790D01*
X106756D01*
X106702Y112778D01*
D02*
G37*
G36*
X55993Y109506D02*
X55981Y109618D01*
X55945Y109719D01*
X55885Y109807D01*
X55802Y109884D01*
X55694Y109949D01*
X55563Y110002D01*
X55408Y110043D01*
X55229Y110073D01*
X55168Y110078D01*
X54917Y110052D01*
X54764Y110017D01*
X54634Y109972D01*
X54527Y109917D01*
X54445Y109853D01*
X54386Y109778D01*
X54350Y109693D01*
X54338Y109599D01*
Y111701D01*
X54350Y111620D01*
X54386Y111548D01*
X54445Y111485D01*
X54527Y111430D01*
X54634Y111383D01*
X54764Y111345D01*
X54917Y111316D01*
X55094Y111294D01*
X55128Y111292D01*
X55229Y111301D01*
X55408Y111331D01*
X55563Y111372D01*
X55694Y111425D01*
X55802Y111490D01*
X55885Y111567D01*
X55945Y111655D01*
X55981Y111756D01*
X55993Y111868D01*
Y109506D01*
D02*
G37*
G36*
X308669Y111644D02*
X308641Y111591D01*
X308616Y111502D01*
X308595Y111378D01*
X308577Y111219D01*
X308545Y110583D01*
X308571Y110287D01*
X308615Y110021D01*
X308677Y109791D01*
X308757Y109596D01*
X308854Y109437D01*
X308969Y109313D01*
X309102Y109224D01*
X309253Y109171D01*
X309421Y109153D01*
X305878D01*
X306046Y109171D01*
X306197Y109224D01*
X306330Y109313D01*
X306445Y109437D01*
X306542Y109596D01*
X306622Y109791D01*
X306684Y110021D01*
X306728Y110287D01*
X306746Y110487D01*
X306683Y111502D01*
X306658Y111591D01*
X306630Y111644D01*
X306599Y111662D01*
X308701D01*
X308669Y111644D01*
D02*
G37*
G36*
X300971Y110588D02*
X301026Y110021D01*
X301073Y109791D01*
X301134Y109596D01*
X301208Y109437D01*
X301296Y109313D01*
X301398Y109224D01*
X301513Y109171D01*
X301642Y109153D01*
X298516D01*
X298645Y109171D01*
X298760Y109224D01*
X298861Y109313D01*
X298949Y109437D01*
X299024Y109596D01*
X299085Y109791D01*
X299132Y110021D01*
X299166Y110287D01*
X299186Y110588D01*
X299193Y110925D01*
X300965D01*
X300971Y110588D01*
D02*
G37*
G36*
X91169Y111644D02*
X91141Y111591D01*
X91116Y111502D01*
X91095Y111378D01*
X91077Y111219D01*
X91045Y110583D01*
X91071Y110287D01*
X91115Y110021D01*
X91177Y109791D01*
X91257Y109596D01*
X91354Y109437D01*
X91470Y109313D01*
X91602Y109224D01*
X91753Y109171D01*
X91921Y109153D01*
X88378D01*
X88546Y109171D01*
X88697Y109224D01*
X88830Y109313D01*
X88945Y109437D01*
X89042Y109596D01*
X89122Y109791D01*
X89184Y110021D01*
X89228Y110287D01*
X89246Y110487D01*
X89183Y111502D01*
X89158Y111591D01*
X89130Y111644D01*
X89099Y111662D01*
X91201D01*
X91169Y111644D01*
D02*
G37*
G36*
X360489Y108701D02*
X360477Y108813D01*
X360441Y108913D01*
X360381Y109002D01*
X360298Y109079D01*
X360190Y109144D01*
X360059Y109197D01*
X359904Y109238D01*
X359725Y109268D01*
X359522Y109285D01*
X359296Y109291D01*
Y110472D01*
X359522Y110478D01*
X359725Y110496D01*
X359904Y110526D01*
X360059Y110567D01*
X360190Y110620D01*
X360298Y110685D01*
X360381Y110762D01*
X360441Y110850D01*
X360477Y110951D01*
X360489Y111063D01*
Y108701D01*
D02*
G37*
G36*
X59816Y110741D02*
X59784Y110633D01*
X59785Y110509D01*
X59820Y110367D01*
X59888Y110209D01*
X59989Y110033D01*
X60124Y109841D01*
X60292Y109631D01*
X60729Y109162D01*
X59894Y108326D01*
X59650Y108562D01*
X59215Y108931D01*
X59022Y109066D01*
X58847Y109168D01*
X58688Y109236D01*
X58547Y109270D01*
X58422Y109271D01*
X58314Y109239D01*
X58223Y109174D01*
X59882Y110832D01*
X59816Y110741D01*
D02*
G37*
G36*
X70992Y106319D02*
X70981Y106431D01*
X70945Y106532D01*
X70885Y106620D01*
X70802Y106697D01*
X70694Y106762D01*
X70563Y106815D01*
X70408Y106856D01*
X70229Y106886D01*
X70026Y106904D01*
X69799Y106909D01*
Y108091D01*
X70026Y108097D01*
X70229Y108114D01*
X70408Y108144D01*
X70563Y108185D01*
X70694Y108238D01*
X70802Y108303D01*
X70885Y108380D01*
X70945Y108468D01*
X70981Y108569D01*
X70992Y108681D01*
Y106319D01*
D02*
G37*
G36*
X74203Y106221D02*
X74102Y106185D01*
X74014Y106126D01*
X73937Y106044D01*
X73872Y105937D01*
X73819Y105807D01*
X73778Y105654D01*
X73748Y105477D01*
X73730Y105276D01*
X73724Y105051D01*
X72543D01*
X72537Y105276D01*
X72520Y105477D01*
X72490Y105654D01*
X72449Y105807D01*
X72396Y105937D01*
X72331Y106044D01*
X72254Y106126D01*
X72165Y106185D01*
X72065Y106221D01*
X71953Y106233D01*
X74315D01*
X74203Y106221D01*
D02*
G37*
G36*
X360489Y103819D02*
X360477Y103931D01*
X360441Y104032D01*
X360381Y104120D01*
X360298Y104197D01*
X360190Y104262D01*
X360059Y104315D01*
X359904Y104356D01*
X359725Y104386D01*
X359522Y104403D01*
X359296Y104409D01*
Y105591D01*
X359522Y105596D01*
X359725Y105614D01*
X359904Y105644D01*
X360059Y105685D01*
X360190Y105738D01*
X360298Y105803D01*
X360381Y105880D01*
X360441Y105968D01*
X360477Y106069D01*
X360489Y106181D01*
Y103819D01*
D02*
G37*
G36*
X67020Y104679D02*
X67056Y104579D01*
X67116Y104490D01*
X67200Y104413D01*
X67307Y104348D01*
X67439Y104295D01*
X67524Y104272D01*
X67584Y104288D01*
X67727Y104337D01*
X67866Y104398D01*
X68001Y104469D01*
X68133Y104551D01*
X68261Y104644D01*
X68385Y104747D01*
X68230Y102410D01*
X68123Y102526D01*
X68010Y102629D01*
X67890Y102721D01*
X67765Y102800D01*
X67634Y102867D01*
X67498Y102922D01*
X67461Y102933D01*
X67445Y102929D01*
X67315Y102878D01*
X67208Y102816D01*
X67126Y102742D01*
X67067Y102657D01*
X67031Y102561D01*
X67019Y102453D01*
X67017Y103015D01*
X66893Y103020D01*
X66977Y104201D01*
X67010Y104202D01*
X67007Y104791D01*
X67020Y104679D01*
D02*
G37*
G36*
X53096Y103411D02*
X53108Y103311D01*
X53681D01*
X53569Y103299D01*
X53469Y103264D01*
X53380Y103204D01*
X53303Y103121D01*
X53238Y103013D01*
X53200Y102919D01*
X53236Y102823D01*
X53300Y102688D01*
X53375Y102558D01*
X53462Y102432D01*
X53561Y102311D01*
X53671Y102195D01*
X53093D01*
X53091Y102118D01*
X51910D01*
X51907Y102195D01*
X51329D01*
X51439Y102311D01*
X51538Y102432D01*
X51625Y102558D01*
X51700Y102688D01*
X51764Y102823D01*
X51800Y102919D01*
X51762Y103013D01*
X51697Y103121D01*
X51620Y103204D01*
X51531Y103264D01*
X51431Y103299D01*
X51319Y103311D01*
X51892D01*
X51904Y103411D01*
X51910Y103569D01*
X53091D01*
X53096Y103411D01*
D02*
G37*
G36*
X58596Y102911D02*
X58600Y102874D01*
X59181D01*
X59069Y102863D01*
X58969Y102827D01*
X58880Y102767D01*
X58803Y102683D01*
X58738Y102576D01*
X58688Y102452D01*
X58736Y102323D01*
X58800Y102188D01*
X58875Y102058D01*
X58962Y101932D01*
X59061Y101811D01*
X59171Y101695D01*
X58591D01*
X58591Y101681D01*
X57410D01*
X57409Y101695D01*
X56829D01*
X56939Y101811D01*
X57038Y101932D01*
X57125Y102058D01*
X57200Y102188D01*
X57264Y102323D01*
X57312Y102452D01*
X57262Y102576D01*
X57197Y102683D01*
X57120Y102767D01*
X57032Y102827D01*
X56931Y102863D01*
X56819Y102874D01*
X57399D01*
X57404Y102911D01*
X57410Y103069D01*
X58591D01*
X58596Y102911D01*
D02*
G37*
G36*
X116044Y103213D02*
X116291Y102998D01*
X116406Y102911D01*
X116516Y102838D01*
X116620Y102778D01*
X116719Y102732D01*
X116813Y102699D01*
X116901Y102679D01*
X116983Y102673D01*
X115327Y101017D01*
X115321Y101099D01*
X115302Y101187D01*
X115269Y101281D01*
X115222Y101380D01*
X115162Y101484D01*
X115089Y101594D01*
X115002Y101709D01*
X114787Y101956D01*
X114660Y102087D01*
X115913Y103340D01*
X116044Y103213D01*
D02*
G37*
G36*
X283389Y101240D02*
X283412Y100914D01*
X283432Y100771D01*
X283457Y100642D01*
X283489Y100526D01*
X283526Y100423D01*
X283569Y100334D01*
X283617Y100258D01*
X283671Y100195D01*
X281329D01*
X281383Y100258D01*
X281432Y100334D01*
X281474Y100423D01*
X281511Y100526D01*
X281543Y100642D01*
X281569Y100771D01*
X281589Y100914D01*
X281611Y101240D01*
X281614Y101424D01*
X283386D01*
X283389Y101240D01*
D02*
G37*
G36*
X360489Y98819D02*
X360477Y98931D01*
X360441Y99032D01*
X360381Y99120D01*
X360298Y99197D01*
X360190Y99262D01*
X360059Y99315D01*
X359904Y99356D01*
X359725Y99386D01*
X359522Y99404D01*
X359296Y99410D01*
Y100591D01*
X359522Y100596D01*
X359725Y100614D01*
X359904Y100644D01*
X360059Y100685D01*
X360190Y100738D01*
X360298Y100803D01*
X360381Y100880D01*
X360441Y100969D01*
X360477Y101069D01*
X360489Y101181D01*
Y98819D01*
D02*
G37*
G36*
X83305Y98329D02*
X83189Y98439D01*
X83068Y98538D01*
X82942Y98625D01*
X82812Y98700D01*
X82677Y98764D01*
X82537Y98817D01*
X82393Y98857D01*
X82243Y98886D01*
X82089Y98904D01*
X81931Y98909D01*
Y100091D01*
X82089Y100096D01*
X82243Y100114D01*
X82393Y100143D01*
X82537Y100183D01*
X82677Y100236D01*
X82812Y100300D01*
X82942Y100375D01*
X83068Y100462D01*
X83189Y100561D01*
X83305Y100671D01*
Y98329D01*
D02*
G37*
G36*
X251305Y97829D02*
X251242Y97883D01*
X251166Y97931D01*
X251077Y97974D01*
X250974Y98011D01*
X250858Y98043D01*
X250729Y98068D01*
X250586Y98089D01*
X250260Y98111D01*
X250077Y98114D01*
Y99886D01*
X250260Y99889D01*
X250586Y99911D01*
X250729Y99932D01*
X250858Y99957D01*
X250974Y99989D01*
X251077Y100026D01*
X251166Y100068D01*
X251242Y100117D01*
X251305Y100171D01*
Y97829D01*
D02*
G37*
G36*
X240532Y97819D02*
X240193Y97469D01*
X239656Y96844D01*
X239459Y96570D01*
X239309Y96321D01*
X239206Y96098D01*
X239151Y95899D01*
X239142Y95726D01*
X239181Y95579D01*
X239267Y95456D01*
X236917Y97807D01*
X237039Y97721D01*
X237187Y97682D01*
X237360Y97690D01*
X237558Y97746D01*
X237782Y97848D01*
X238031Y97998D01*
X238305Y98196D01*
X238604Y98440D01*
X239279Y99072D01*
X240532Y97819D01*
D02*
G37*
G36*
X223795Y98074D02*
X223870Y98023D01*
X223959Y97978D01*
X224061Y97939D01*
X224177Y97906D01*
X224306Y97879D01*
X224448Y97858D01*
X224774Y97834D01*
X224956Y97831D01*
X224887Y96059D01*
X224704Y96056D01*
X224234Y96016D01*
X224104Y95992D01*
X223988Y95962D01*
X223885Y95927D01*
X223795Y95887D01*
X223719Y95841D01*
X223656Y95790D01*
X223733Y98131D01*
X223795Y98074D01*
D02*
G37*
G36*
X227099Y97819D02*
X227111Y95173D01*
X227092Y95341D01*
X227038Y95492D01*
X226948Y95625D01*
X226823Y95740D01*
X226663Y95838D01*
X226467Y95917D01*
X226235Y95979D01*
X225968Y96024D01*
X225665Y96050D01*
X225327Y96059D01*
Y97831D01*
X227099Y97819D01*
D02*
G37*
G36*
X95805Y94829D02*
X95689Y94939D01*
X95568Y95038D01*
X95442Y95125D01*
X95312Y95200D01*
X95177Y95264D01*
X95037Y95316D01*
X94893Y95357D01*
X94743Y95386D01*
X94589Y95404D01*
X94431Y95410D01*
Y96591D01*
X94589Y96596D01*
X94743Y96614D01*
X94893Y96643D01*
X95037Y96684D01*
X95177Y96736D01*
X95312Y96800D01*
X95442Y96875D01*
X95568Y96962D01*
X95689Y97061D01*
X95805Y97171D01*
Y94829D01*
D02*
G37*
G36*
X337413Y95961D02*
X337346Y95902D01*
X337287Y95803D01*
X337236Y95666D01*
X337193Y95488D01*
X337157Y95272D01*
X337131Y95023D01*
X337133Y94989D01*
X337150Y94882D01*
X337169Y94791D01*
X337192Y94716D01*
X337218Y94657D01*
X337247Y94615D01*
X337110Y94624D01*
X337098Y94386D01*
X337094Y94012D01*
X335126D01*
X335124Y94386D01*
X335103Y94757D01*
X334910Y94770D01*
X334951Y94814D01*
X334988Y94875D01*
X335020Y94952D01*
X335048Y95044D01*
X335072Y95152D01*
X335077Y95187D01*
X335041Y95803D01*
X335015Y95902D01*
X334986Y95961D01*
X334953Y95981D01*
X337488D01*
X337413Y95961D01*
D02*
G37*
G36*
X345014D02*
X344985Y95902D01*
X344959Y95803D01*
X344936Y95666D01*
X344917Y95488D01*
X344908Y95288D01*
X344909Y95277D01*
X344928Y95152D01*
X344952Y95044D01*
X344980Y94952D01*
X345012Y94875D01*
X345049Y94814D01*
X345090Y94770D01*
X344883Y94756D01*
X344881Y94721D01*
X344874Y94012D01*
X342905D01*
X342902Y94386D01*
X342886Y94624D01*
X342753Y94615D01*
X342782Y94657D01*
X342808Y94716D01*
X342831Y94791D01*
X342850Y94882D01*
X342863Y94963D01*
X342843Y95272D01*
X342807Y95488D01*
X342764Y95666D01*
X342713Y95803D01*
X342654Y95902D01*
X342587Y95961D01*
X342512Y95981D01*
X345047D01*
X345014Y95961D01*
D02*
G37*
G36*
X360489Y93937D02*
X360477Y94049D01*
X360441Y94150D01*
X360381Y94238D01*
X360298Y94315D01*
X360190Y94380D01*
X360059Y94433D01*
X359904Y94474D01*
X359725Y94504D01*
X359522Y94522D01*
X359296Y94528D01*
Y95709D01*
X359522Y95715D01*
X359725Y95732D01*
X359904Y95762D01*
X360059Y95803D01*
X360190Y95856D01*
X360298Y95921D01*
X360381Y95998D01*
X360441Y96087D01*
X360477Y96187D01*
X360489Y96299D01*
Y93937D01*
D02*
G37*
G36*
X340597Y92974D02*
X340614Y92771D01*
X340644Y92592D01*
X340685Y92437D01*
X340738Y92306D01*
X340803Y92198D01*
X340880Y92115D01*
X340968Y92055D01*
X341069Y92019D01*
X341181Y92007D01*
X338819D01*
X338931Y92019D01*
X339032Y92055D01*
X339120Y92115D01*
X339197Y92198D01*
X339262Y92306D01*
X339315Y92437D01*
X339356Y92592D01*
X339386Y92771D01*
X339404Y92974D01*
X339409Y93201D01*
X340591D01*
X340597Y92974D01*
D02*
G37*
G36*
X345136Y92260D02*
X345104Y92200D01*
X345076Y92124D01*
X345052Y92031D01*
X345031Y91923D01*
X345014Y91799D01*
X344992Y91503D01*
X344984Y91143D01*
X343016D01*
X343014Y91331D01*
X342969Y91923D01*
X342948Y92031D01*
X342924Y92124D01*
X342896Y92200D01*
X342864Y92260D01*
X342829Y92305D01*
X345171D01*
X345136Y92260D01*
D02*
G37*
G36*
X277195Y92526D02*
X277200Y92369D01*
X277217Y92215D01*
X277244Y92065D01*
X277283Y91918D01*
X277332Y91776D01*
X277392Y91637D01*
X277464Y91502D01*
X277546Y91371D01*
X277639Y91243D01*
X277744Y91120D01*
X275406Y91266D01*
X275521Y91374D01*
X275624Y91487D01*
X275716Y91607D01*
X275795Y91732D01*
X275862Y91864D01*
X275917Y92000D01*
X275959Y92143D01*
X275989Y92291D01*
X276008Y92445D01*
X276014Y92605D01*
X277195Y92526D01*
D02*
G37*
G36*
X248827Y94826D02*
X248887Y94656D01*
X248987Y94506D01*
X249127Y94376D01*
X249307Y94266D01*
X249527Y94176D01*
X249787Y94106D01*
X250087Y94056D01*
X250427Y94026D01*
X250807Y94016D01*
Y92016D01*
X250427Y92006D01*
X250087Y91976D01*
X249787Y91926D01*
X249527Y91856D01*
X249307Y91766D01*
X249127Y91656D01*
X248987Y91526D01*
X248887Y91376D01*
X248827Y91206D01*
X248807Y91016D01*
Y95016D01*
X248827Y94826D01*
D02*
G37*
G36*
X268310Y92008D02*
X268140Y91948D01*
X267990Y91848D01*
X267860Y91708D01*
X267750Y91528D01*
X267660Y91308D01*
X267590Y91048D01*
X267540Y90748D01*
X267510Y90408D01*
X267500Y90028D01*
X265500D01*
X265494Y90408D01*
X265446Y91048D01*
X265405Y91308D01*
X265351Y91528D01*
X265286Y91708D01*
X265209Y91848D01*
X265120Y91948D01*
X265019Y92008D01*
X264906Y92028D01*
X268500D01*
X268310Y92008D01*
D02*
G37*
G36*
X259978D02*
X259909Y91948D01*
X259848Y91848D01*
X259795Y91708D01*
X259751Y91528D01*
X259715Y91308D01*
X259686Y91048D01*
X259658Y90499D01*
X259701Y88838D01*
X257599D01*
X257608Y88858D01*
X257617Y88918D01*
X257625Y89018D01*
X257647Y90111D01*
X257640Y90408D01*
X257610Y90748D01*
X257560Y91048D01*
X257490Y91308D01*
X257400Y91528D01*
X257290Y91708D01*
X257160Y91848D01*
X257010Y91948D01*
X256840Y92008D01*
X256650Y92028D01*
X260055D01*
X259978Y92008D01*
D02*
G37*
G36*
X367563Y91528D02*
X367634Y91496D01*
X367752Y91469D01*
X367917Y91444D01*
X368390Y91408D01*
X369902Y91378D01*
Y88819D01*
X367539Y88831D01*
Y91563D01*
X367563Y91528D01*
D02*
G37*
G36*
X48320Y91814D02*
X48394Y91680D01*
X48517Y91561D01*
X48689Y91458D01*
X48911Y91371D01*
X49182Y91300D01*
X49503Y91245D01*
X49872Y91205D01*
X50760Y91173D01*
Y87827D01*
X50292Y87819D01*
X49503Y87756D01*
X49182Y87700D01*
X48911Y87629D01*
X48689Y87542D01*
X48517Y87439D01*
X48394Y87320D01*
X48320Y87186D01*
X48295Y87035D01*
Y91965D01*
X48320Y91814D01*
D02*
G37*
G36*
X124096Y87411D02*
X124114Y87257D01*
X124143Y87107D01*
X124183Y86963D01*
X124236Y86823D01*
X124300Y86688D01*
X124375Y86558D01*
X124462Y86432D01*
X124561Y86311D01*
X124671Y86195D01*
X122329D01*
X122439Y86311D01*
X122538Y86432D01*
X122625Y86558D01*
X122700Y86688D01*
X122764Y86823D01*
X122817Y86963D01*
X122857Y87107D01*
X122886Y87257D01*
X122904Y87411D01*
X122909Y87569D01*
X124091D01*
X124096Y87411D01*
D02*
G37*
G36*
X119096D02*
X119114Y87257D01*
X119143Y87107D01*
X119184Y86963D01*
X119236Y86823D01*
X119300Y86688D01*
X119375Y86558D01*
X119462Y86432D01*
X119561Y86311D01*
X119671Y86195D01*
X117329D01*
X117439Y86311D01*
X117538Y86432D01*
X117625Y86558D01*
X117700Y86688D01*
X117764Y86823D01*
X117816Y86963D01*
X117857Y87107D01*
X117886Y87257D01*
X117904Y87411D01*
X117909Y87569D01*
X119091D01*
X119096Y87411D01*
D02*
G37*
G36*
X345051Y85838D02*
X342949D01*
X342962Y85858D01*
X342973Y85917D01*
X342983Y86016D01*
X343005Y86547D01*
X343016Y87807D01*
X344984D01*
X345051Y85838D01*
D02*
G37*
G36*
X338269Y86795D02*
X338309Y86417D01*
X338343Y86264D01*
X338386Y86134D01*
X338440Y86027D01*
X338503Y85945D01*
X338576Y85886D01*
X338659Y85850D01*
X338752Y85838D01*
X336650D01*
X336732Y85850D01*
X336806Y85886D01*
X336871Y85945D01*
X336927Y86027D01*
X336975Y86134D01*
X337014Y86264D01*
X337045Y86417D01*
X337066Y86594D01*
X337079Y86795D01*
X337084Y87019D01*
X338265D01*
X338269Y86795D01*
D02*
G37*
G36*
X211183Y87496D02*
X211262Y86647D01*
X211330Y86302D01*
X211418Y86010D01*
X211526Y85771D01*
X211654Y85585D01*
X211801Y85452D01*
X211967Y85373D01*
X212154Y85346D01*
X207146D01*
X207275Y85373D01*
X207391Y85452D01*
X207493Y85585D01*
X207582Y85771D01*
X207657Y86010D01*
X207718Y86302D01*
X207766Y86647D01*
X207820Y87496D01*
X207827Y88000D01*
X211173D01*
X211183Y87496D01*
D02*
G37*
G36*
X198675D02*
X198820Y85373D01*
X198854Y85346D01*
X194346D01*
X194533Y85373D01*
X194699Y85452D01*
X194846Y85585D01*
X194974Y85771D01*
X195082Y86010D01*
X195170Y86302D01*
X195238Y86647D01*
X195288Y87045D01*
X195317Y87496D01*
X195327Y88000D01*
X198673D01*
X198675Y87496D01*
D02*
G37*
G36*
X40581Y86748D02*
X40413Y86689D01*
X40266Y86590D01*
X40138Y86451D01*
X40029Y86273D01*
X39941Y86055D01*
X39872Y85798D01*
X39823Y85501D01*
X39793Y85164D01*
X39783Y84788D01*
X37815D01*
X37805Y85164D01*
X37776Y85501D01*
X37726Y85798D01*
X37657Y86055D01*
X37569Y86273D01*
X37461Y86451D01*
X37333Y86590D01*
X37185Y86689D01*
X37018Y86748D01*
X36831Y86768D01*
X40768D01*
X40581Y86748D01*
D02*
G37*
G36*
X267481Y86460D02*
X267542Y86290D01*
X267643Y86140D01*
X267784Y86010D01*
X267965Y85900D01*
X268186Y85810D01*
X268447Y85740D01*
X268749Y85690D01*
X269082Y85660D01*
X270662Y85701D01*
Y83599D01*
X270642Y83608D01*
X270582Y83617D01*
X270482Y83625D01*
X269382Y83648D01*
X269367Y83648D01*
X269092Y83642D01*
X268452Y83584D01*
X268192Y83534D01*
X267972Y83469D01*
X267792Y83389D01*
X267652Y83295D01*
X267552Y83186D01*
X267492Y83063D01*
X267472Y82925D01*
X267460Y86650D01*
X267481Y86460D01*
D02*
G37*
G36*
X253368Y85162D02*
X253401D01*
X253392Y85142D01*
X253383Y85082D01*
X253375Y84982D01*
X253374Y84914D01*
X253401Y83838D01*
X253352D01*
X253350Y83162D01*
X251350D01*
X251333Y83838D01*
X251299D01*
X251309Y83858D01*
X251318Y83918D01*
X251325Y84018D01*
X251327Y84086D01*
X251299Y85162D01*
X251348D01*
X251350Y85838D01*
X253350D01*
X253368Y85162D01*
D02*
G37*
G36*
X336650Y82819D02*
X336638Y82931D01*
X336603Y83031D01*
X336543Y83120D01*
X336461Y83197D01*
X336354Y83262D01*
X336225Y83315D01*
X336071Y83356D01*
X335894Y83386D01*
X335693Y83403D01*
X335469Y83410D01*
Y84591D01*
X335693Y84597D01*
X335894Y84614D01*
X336071Y84644D01*
X336225Y84685D01*
X336354Y84738D01*
X336461Y84803D01*
X336543Y84880D01*
X336603Y84969D01*
X336638Y85069D01*
X336650Y85181D01*
Y82819D01*
D02*
G37*
G36*
X280596Y83911D02*
X280614Y83757D01*
X280643Y83608D01*
X280683Y83463D01*
X280736Y83323D01*
X280800Y83188D01*
X280875Y83058D01*
X280962Y82932D01*
X281061Y82811D01*
X281171Y82695D01*
X278829D01*
X278939Y82811D01*
X279038Y82932D01*
X279125Y83058D01*
X279200Y83188D01*
X279264Y83323D01*
X279316Y83463D01*
X279357Y83608D01*
X279386Y83757D01*
X279404Y83911D01*
X279410Y84070D01*
X280591D01*
X280596Y83911D01*
D02*
G37*
G36*
X229390Y83805D02*
X229671D01*
X229617Y83742D01*
X229569Y83666D01*
X229526Y83577D01*
X229489Y83474D01*
X229457Y83358D01*
X229435Y83249D01*
X229466Y83069D01*
X229528Y82838D01*
X229607Y82644D01*
X229705Y82484D01*
X229820Y82360D01*
X229953Y82271D01*
X230103Y82218D01*
X230272Y82201D01*
X226728D01*
X226897Y82218D01*
X227047Y82271D01*
X227180Y82360D01*
X227295Y82484D01*
X227393Y82644D01*
X227472Y82838D01*
X227535Y83069D01*
X227565Y83249D01*
X227543Y83358D01*
X227511Y83474D01*
X227474Y83577D01*
X227432Y83666D01*
X227383Y83742D01*
X227329Y83805D01*
X227610D01*
X227614Y83972D01*
X229386D01*
X229390Y83805D01*
D02*
G37*
G36*
X251311Y80701D02*
X251298Y80757D01*
X251259Y80808D01*
X251193Y80853D01*
X251102Y80892D01*
X250984Y80925D01*
X250839Y80952D01*
X250669Y80973D01*
X250249Y80997D01*
X250000Y81000D01*
Y83000D01*
X250249Y83003D01*
X250839Y83048D01*
X250984Y83075D01*
X251102Y83108D01*
X251193Y83147D01*
X251259Y83192D01*
X251298Y83242D01*
X251311Y83299D01*
Y80701D01*
D02*
G37*
G36*
X308850Y82113D02*
X308886Y82035D01*
X308945Y81966D01*
X309027Y81906D01*
X309134Y81855D01*
X309264Y81814D01*
X309417Y81782D01*
X309594Y81759D01*
X309795Y81745D01*
X310019Y81740D01*
Y80559D01*
X309795Y80554D01*
X309417Y80518D01*
X309264Y80485D01*
X309134Y80444D01*
X309027Y80393D01*
X308945Y80333D01*
X308886Y80264D01*
X308850Y80186D01*
X308838Y80099D01*
Y82201D01*
X308850Y82113D01*
D02*
G37*
G36*
X305162Y80099D02*
X305150Y80186D01*
X305114Y80264D01*
X305055Y80333D01*
X304973Y80393D01*
X304866Y80444D01*
X304736Y80485D01*
X304583Y80518D01*
X304406Y80541D01*
X304205Y80554D01*
X303980Y80559D01*
Y81740D01*
X304205Y81745D01*
X304583Y81782D01*
X304736Y81814D01*
X304866Y81855D01*
X304973Y81906D01*
X305055Y81966D01*
X305114Y82035D01*
X305150Y82113D01*
X305162Y82201D01*
Y80099D01*
D02*
G37*
G36*
X311300Y79969D02*
X311288Y80081D01*
X311252Y80181D01*
X311192Y80270D01*
X311109Y80347D01*
X311001Y80411D01*
X310870Y80465D01*
X310715Y80506D01*
X310536Y80535D01*
X310333Y80553D01*
X310106Y80559D01*
Y81740D01*
X310333Y81746D01*
X310536Y81764D01*
X310715Y81793D01*
X310870Y81835D01*
X311001Y81888D01*
X311109Y81953D01*
X311192Y82029D01*
X311252Y82118D01*
X311288Y82218D01*
X311300Y82331D01*
Y79969D01*
D02*
G37*
G36*
X320724Y82069D02*
X320760Y81968D01*
X320819Y81880D01*
X320901Y81803D01*
X321008Y81738D01*
X321138Y81685D01*
X321291Y81644D01*
X321468Y81614D01*
X321669Y81596D01*
X321894Y81590D01*
Y80409D01*
X321669Y80404D01*
X321468Y80386D01*
X321291Y80356D01*
X321138Y80315D01*
X321008Y80262D01*
X320901Y80197D01*
X320819Y80120D01*
X320760Y80032D01*
X320724Y79931D01*
X320712Y79819D01*
Y82181D01*
X320724Y82069D01*
D02*
G37*
G36*
X158098Y81225D02*
X158033Y81133D01*
X157975Y81031D01*
X157926Y80919D01*
X157883Y80796D01*
X157849Y80662D01*
X157837Y80597D01*
X157858Y80466D01*
X157913Y80260D01*
X157984Y80085D01*
X158071Y79943D01*
X158173Y79831D01*
X158291Y79752D01*
X158425Y79704D01*
X158575Y79689D01*
X155425D01*
X155575Y79704D01*
X155709Y79752D01*
X155827Y79831D01*
X155929Y79943D01*
X156016Y80085D01*
X156087Y80260D01*
X156142Y80466D01*
X156163Y80597D01*
X156151Y80662D01*
X156117Y80796D01*
X156074Y80919D01*
X156025Y81031D01*
X155967Y81133D01*
X155902Y81225D01*
X155829Y81305D01*
X158171D01*
X158098Y81225D01*
D02*
G37*
G36*
X161837Y76925D02*
X161821Y77075D01*
X161774Y77209D01*
X161695Y77327D01*
X161583Y77429D01*
X161441Y77516D01*
X161266Y77587D01*
X161060Y77642D01*
X160822Y77681D01*
X160552Y77705D01*
X160271Y77712D01*
X160114Y77711D01*
X158901Y77640D01*
X158854Y77620D01*
X158838Y77599D01*
Y79701D01*
X158854Y79622D01*
X158901Y79552D01*
X158980Y79490D01*
X159090Y79436D01*
X159232Y79391D01*
X159405Y79353D01*
X159610Y79325D01*
X159846Y79304D01*
X160336Y79290D01*
X160552Y79295D01*
X160822Y79319D01*
X161060Y79358D01*
X161266Y79413D01*
X161441Y79484D01*
X161583Y79571D01*
X161695Y79673D01*
X161774Y79791D01*
X161821Y79925D01*
X161837Y80075D01*
Y76925D01*
D02*
G37*
G36*
X248315Y79315D02*
X248040Y79312D01*
X247390Y79259D01*
X247231Y79227D01*
X247101Y79189D01*
X247000Y79143D01*
X246928Y79091D01*
X246884Y79031D01*
X246870Y78965D01*
Y81303D01*
X246884Y81305D01*
X246928Y81307D01*
X248315Y81315D01*
Y79315D01*
D02*
G37*
G36*
X230356Y82032D02*
X230409Y81882D01*
X230498Y81749D01*
X230622Y81634D01*
X230781Y81536D01*
X230976Y81457D01*
X231206Y81395D01*
X231472Y81350D01*
X231773Y81324D01*
X232110Y81315D01*
Y81303D01*
X232130Y81303D01*
Y78965D01*
X232112Y79075D01*
X232059Y79173D01*
X231971Y79260D01*
X231847Y79335D01*
X231687Y79399D01*
X231492Y79451D01*
X231262Y79491D01*
X230996Y79520D01*
X230359Y79543D01*
Y80092D01*
X230338Y80099D01*
Y82201D01*
X230356Y82032D01*
D02*
G37*
G36*
X179162Y77599D02*
X179146Y77620D01*
X179099Y77640D01*
X179020Y77657D01*
X178910Y77672D01*
X178595Y77694D01*
X177587Y77713D01*
Y79287D01*
X177886Y79291D01*
X178595Y79353D01*
X178768Y79391D01*
X178910Y79436D01*
X179020Y79490D01*
X179099Y79552D01*
X179146Y79622D01*
X179162Y79701D01*
Y77599D01*
D02*
G37*
G36*
X261028Y76972D02*
X258972D01*
X258978Y76982D01*
X258982Y77013D01*
X258986Y77065D01*
X258998Y77476D01*
X259000Y78000D01*
X261000D01*
X261028Y76972D01*
D02*
G37*
G36*
X175979Y79925D02*
X176026Y79791D01*
X176105Y79673D01*
X176216Y79571D01*
X176359Y79484D01*
X176534Y79413D01*
X176740Y79358D01*
X176978Y79319D01*
X177248Y79295D01*
X177549Y79287D01*
Y77713D01*
X177248Y77705D01*
X176978Y77681D01*
X176740Y77642D01*
X176534Y77587D01*
X176359Y77516D01*
X176216Y77429D01*
X176105Y77327D01*
X176026Y77209D01*
X175979Y77075D01*
X175963Y76925D01*
Y80075D01*
X175979Y79925D01*
D02*
G37*
G36*
X170487Y76498D02*
X170479Y76496D01*
X170455Y76494D01*
X170288Y76489D01*
X169692Y76486D01*
Y77667D01*
X169845Y77669D01*
X170208Y77700D01*
X170296Y77718D01*
X170369Y77741D01*
X170425Y77767D01*
X170466Y77798D01*
X170490Y77833D01*
X170499Y77871D01*
X170487Y76498D01*
D02*
G37*
G36*
X148137Y77731D02*
X148181Y77017D01*
X148208Y76842D01*
X148241Y76699D01*
X148279Y76588D01*
X148324Y76508D01*
X148374Y76461D01*
X148430Y76445D01*
X145587Y76456D01*
X145575Y78033D01*
X148134D01*
X148137Y77731D01*
D02*
G37*
G36*
X46036Y77370D02*
X46004Y77323D01*
X45976Y77244D01*
X45952Y77134D01*
X45932Y76992D01*
X45902Y76614D01*
X45886Y75811D01*
X44311D01*
X44309Y76111D01*
X44245Y77134D01*
X44220Y77244D01*
X44193Y77323D01*
X44161Y77370D01*
X44126Y77386D01*
X46071D01*
X46036Y77370D01*
D02*
G37*
G36*
X273925Y77284D02*
X273791Y77236D01*
X273673Y77158D01*
X273571Y77047D01*
X273484Y76906D01*
X273413Y76732D01*
X273358Y76528D01*
X273337Y76401D01*
X273349Y76338D01*
X273383Y76204D01*
X273426Y76081D01*
X273476Y75969D01*
X273533Y75867D01*
X273598Y75775D01*
X273671Y75695D01*
X271329D01*
X271402Y75775D01*
X271467Y75867D01*
X271525Y75969D01*
X271574Y76081D01*
X271617Y76204D01*
X271651Y76338D01*
X271663Y76401D01*
X271642Y76528D01*
X271587Y76732D01*
X271516Y76906D01*
X271429Y77047D01*
X271327Y77158D01*
X271209Y77236D01*
X271075Y77284D01*
X270925Y77299D01*
X274075D01*
X273925Y77284D01*
D02*
G37*
G36*
X246888Y77115D02*
X246941Y77067D01*
X247029Y77025D01*
X247153Y76988D01*
X247313Y76957D01*
X247508Y76931D01*
X247763Y76914D01*
X248965Y76972D01*
Y75028D01*
X248947Y75044D01*
X248894Y75059D01*
X248805Y75072D01*
X248681Y75083D01*
X248146Y75100D01*
X247313Y75043D01*
X247153Y75012D01*
X247029Y74975D01*
X246941Y74933D01*
X246888Y74885D01*
X246870Y74831D01*
Y77169D01*
X246888Y77115D01*
D02*
G37*
G36*
X241973Y74831D02*
X241955Y74885D01*
X241902Y74933D01*
X241813Y74975D01*
X241689Y75012D01*
X241530Y75043D01*
X241335Y75069D01*
X240839Y75103D01*
X240201Y75114D01*
Y76886D01*
X240538Y76889D01*
X241530Y76957D01*
X241689Y76988D01*
X241813Y77025D01*
X241902Y77067D01*
X241955Y77115D01*
X241973Y77169D01*
Y74831D01*
D02*
G37*
G36*
X237045Y77115D02*
X237098Y77067D01*
X237187Y77025D01*
X237311Y76988D01*
X237470Y76957D01*
X237665Y76931D01*
X238161Y76897D01*
X238799Y76886D01*
Y75114D01*
X238462Y75111D01*
X237470Y75043D01*
X237311Y75012D01*
X237187Y74975D01*
X237098Y74933D01*
X237045Y74885D01*
X237027Y74831D01*
Y77169D01*
X237045Y77115D01*
D02*
G37*
G36*
X208816Y74555D02*
X208725Y74621D01*
X208618Y74653D01*
X208493Y74652D01*
X208351Y74617D01*
X208193Y74550D01*
X208017Y74448D01*
X207825Y74313D01*
X207615Y74145D01*
X207146Y73708D01*
X206311Y74543D01*
X206546Y74787D01*
X206916Y75222D01*
X207050Y75415D01*
X207152Y75590D01*
X207220Y75749D01*
X207255Y75891D01*
X207256Y76015D01*
X207224Y76123D01*
X207158Y76214D01*
X208816Y74555D01*
D02*
G37*
G36*
X265528Y74000D02*
X265508Y74190D01*
X265448Y74360D01*
X265348Y74510D01*
X265208Y74640D01*
X265028Y74750D01*
X264808Y74840D01*
X264548Y74910D01*
X264248Y74960D01*
X263908Y74990D01*
X263528Y75000D01*
Y77000D01*
X263908Y77010D01*
X264248Y77040D01*
X264548Y77090D01*
X264808Y77160D01*
X265028Y77250D01*
X265208Y77360D01*
X265348Y77490D01*
X265448Y77640D01*
X265508Y77810D01*
X265528Y78000D01*
Y74000D01*
D02*
G37*
G36*
X232130Y74831D02*
X232110Y74831D01*
Y74819D01*
X231772Y74810D01*
X231470Y74783D01*
X231203Y74739D01*
X230971Y74677D01*
X230775Y74598D01*
X230614Y74500D01*
X230489Y74385D01*
X230399Y74252D01*
X230345Y74101D01*
X230326Y73933D01*
X230338Y75901D01*
X230359Y75909D01*
Y76591D01*
X230695Y76596D01*
X231262Y76643D01*
X231492Y76683D01*
X231687Y76735D01*
X231847Y76799D01*
X231971Y76874D01*
X232059Y76961D01*
X232112Y77059D01*
X232130Y77169D01*
Y74831D01*
D02*
G37*
G36*
X308858Y75874D02*
X308917Y75849D01*
X309016Y75827D01*
X309153Y75808D01*
X309547Y75779D01*
X309864Y75773D01*
X310356Y75802D01*
X310425Y75816D01*
X310477Y75832D01*
X310511Y75850D01*
X310497Y75762D01*
X310807Y75756D01*
Y73787D01*
X310172Y73791D01*
X310131Y73538D01*
X310088Y73586D01*
X310029Y73628D01*
X309954Y73665D01*
X309863Y73698D01*
X309756Y73725D01*
X309633Y73747D01*
X309494Y73765D01*
X309169Y73785D01*
X308982Y73787D01*
X308984Y73799D01*
X308838Y73799D01*
Y75901D01*
X308858Y75874D01*
D02*
G37*
G36*
X198776Y76123D02*
X198744Y76015D01*
X198746Y75891D01*
X198780Y75749D01*
X198848Y75590D01*
X198950Y75415D01*
X199084Y75222D01*
X199253Y75013D01*
X199689Y74543D01*
X198854Y73708D01*
X198611Y73943D01*
X198175Y74313D01*
X197983Y74448D01*
X197807Y74550D01*
X197649Y74617D01*
X197507Y74652D01*
X197382Y74653D01*
X197275Y74621D01*
X197184Y74555D01*
X198842Y76214D01*
X198776Y76123D01*
D02*
G37*
G36*
X45311Y74697D02*
X45189Y74570D01*
X44983Y74321D01*
X44900Y74200D01*
X44830Y74081D01*
X44773Y73964D01*
X44728Y73849D01*
X44697Y73736D01*
X44679Y73625D01*
X44673Y73517D01*
X43017Y75173D01*
X43125Y75178D01*
X43236Y75197D01*
X43349Y75228D01*
X43464Y75273D01*
X43581Y75330D01*
X43700Y75400D01*
X43821Y75483D01*
X43944Y75579D01*
X44070Y75688D01*
X44197Y75811D01*
X45311Y74697D01*
D02*
G37*
G36*
X161837Y70925D02*
X161821Y71075D01*
X161774Y71209D01*
X161695Y71327D01*
X161583Y71429D01*
X161441Y71516D01*
X161266Y71587D01*
X161060Y71642D01*
X160822Y71681D01*
X160552Y71705D01*
X160307Y71711D01*
X160114Y71709D01*
X159405Y71646D01*
X159232Y71609D01*
X159090Y71564D01*
X158980Y71510D01*
X158901Y71448D01*
X158854Y71378D01*
X158838Y71299D01*
Y73401D01*
X158854Y73380D01*
X158901Y73360D01*
X158980Y73343D01*
X159090Y73328D01*
X159405Y73306D01*
X160317Y73289D01*
X160552Y73295D01*
X160822Y73319D01*
X161060Y73358D01*
X161266Y73413D01*
X161441Y73484D01*
X161583Y73571D01*
X161695Y73673D01*
X161774Y73791D01*
X161821Y73925D01*
X161837Y74075D01*
Y70925D01*
D02*
G37*
G36*
X248271Y72827D02*
X248641Y72819D01*
Y71047D01*
X248342Y71044D01*
X248353Y70782D01*
X248290Y70832D01*
X248213Y70877D01*
X248124Y70917D01*
X248020Y70952D01*
X247904Y70981D01*
X247774Y71005D01*
X247754Y71007D01*
X247508Y70991D01*
X247313Y70960D01*
X247153Y70921D01*
X247029Y70876D01*
X246941Y70823D01*
X246888Y70764D01*
X246870Y70697D01*
Y73035D01*
X246888Y72994D01*
X246941Y72957D01*
X247029Y72925D01*
X247153Y72897D01*
X247313Y72873D01*
X247579Y72851D01*
X247687Y72868D01*
X247816Y72895D01*
X247932Y72928D01*
X248034Y72968D01*
X248122Y73013D01*
X248198Y73065D01*
X248259Y73123D01*
X248271Y72827D01*
D02*
G37*
G36*
X120049Y75268D02*
X119952Y75186D01*
X119867Y75049D01*
X119793Y74857D01*
X119730Y74610D01*
X119679Y74308D01*
X119639Y73952D01*
X119594Y73074D01*
X119588Y72553D01*
X116517D01*
X116515Y73074D01*
X116384Y75049D01*
X116343Y75186D01*
X116296Y75268D01*
X116244Y75296D01*
X120157D01*
X120049Y75268D01*
D02*
G37*
G36*
X139288Y72544D02*
X139257Y72541D01*
X139011Y72537D01*
X136217Y72531D01*
Y75602D01*
X136800Y75611D01*
X137783Y75679D01*
X138182Y75739D01*
X138520Y75816D01*
X138796Y75910D01*
X139011Y76021D01*
X139165Y76149D01*
X139257Y76294D01*
X139288Y76456D01*
Y72544D01*
D02*
G37*
G36*
X230103Y73794D02*
X229953Y73740D01*
X229820Y73651D01*
X229705Y73526D01*
X229607Y73365D01*
X229528Y73169D01*
X229466Y72937D01*
X229435Y72753D01*
X229457Y72642D01*
X229489Y72526D01*
X229526Y72423D01*
X229569Y72334D01*
X229617Y72258D01*
X229671Y72195D01*
X229390D01*
X229386Y72028D01*
X227614D01*
X227610Y72195D01*
X227329D01*
X227383Y72258D01*
X227432Y72334D01*
X227474Y72423D01*
X227511Y72526D01*
X227543Y72642D01*
X227565Y72753D01*
X227535Y72937D01*
X227472Y73169D01*
X227393Y73365D01*
X227295Y73526D01*
X227180Y73651D01*
X227047Y73740D01*
X226897Y73794D01*
X226728Y73811D01*
X230272D01*
X230103Y73794D01*
D02*
G37*
G36*
X62500Y206649D02*
X62413Y205984D01*
Y204016D01*
X62500Y203351D01*
Y199000D01*
X52000Y199000D01*
Y169500D01*
X45000D01*
Y94500D01*
X35000D01*
X35000Y82500D01*
X33484D01*
Y71469D01*
X25216D01*
Y82500D01*
X22000D01*
X22000Y131000D01*
X38000Y131000D01*
X38000Y165500D01*
X1606Y165500D01*
Y205000D01*
Y205878D01*
X1835Y207619D01*
X2289Y209315D01*
X2961Y210937D01*
X3839Y212457D01*
X4908Y213850D01*
X6149Y215092D01*
X7542Y216161D01*
X9063Y217039D01*
X10685Y217711D01*
X12381Y218165D01*
X14122Y218394D01*
X62500D01*
Y206649D01*
D02*
G37*
G36*
X179162Y71299D02*
X179146Y71378D01*
X179099Y71448D01*
X179020Y71510D01*
X178910Y71564D01*
X178768Y71609D01*
X178595Y71646D01*
X178390Y71675D01*
X178154Y71696D01*
X177587Y71713D01*
Y73287D01*
X177886Y73289D01*
X179099Y73360D01*
X179146Y73380D01*
X179162Y73401D01*
Y71299D01*
D02*
G37*
G36*
X175979Y73925D02*
X176026Y73791D01*
X176105Y73673D01*
X176216Y73571D01*
X176359Y73484D01*
X176534Y73413D01*
X176740Y73358D01*
X176978Y73319D01*
X177248Y73295D01*
X177549Y73287D01*
Y71713D01*
X177248Y71705D01*
X176978Y71681D01*
X176740Y71642D01*
X176534Y71587D01*
X176359Y71516D01*
X176216Y71429D01*
X176105Y71327D01*
X176026Y71209D01*
X175979Y71075D01*
X175963Y70925D01*
Y74075D01*
X175979Y73925D01*
D02*
G37*
G36*
X348117Y71742D02*
X348068Y71666D01*
X348026Y71577D01*
X347989Y71474D01*
X347957Y71358D01*
X347932Y71228D01*
X347912Y71086D01*
X347889Y70760D01*
X347886Y70577D01*
X346114D01*
X346111Y70760D01*
X346089Y71086D01*
X346069Y71228D01*
X346043Y71358D01*
X346011Y71474D01*
X345974Y71577D01*
X345932Y71666D01*
X345883Y71742D01*
X345829Y71805D01*
X348171D01*
X348117Y71742D01*
D02*
G37*
G36*
X343117D02*
X343069Y71666D01*
X343026Y71577D01*
X342989Y71474D01*
X342957Y71358D01*
X342932Y71228D01*
X342912Y71086D01*
X342889Y70760D01*
X342886Y70577D01*
X341114D01*
X341111Y70760D01*
X341089Y71086D01*
X341069Y71228D01*
X341043Y71358D01*
X341011Y71474D01*
X340974Y71577D01*
X340932Y71666D01*
X340883Y71742D01*
X340829Y71805D01*
X343171D01*
X343117Y71742D01*
D02*
G37*
G36*
X148485Y72990D02*
X148513Y72544D01*
X148712D01*
X148669Y72518D01*
X148630Y72441D01*
X148595Y72313D01*
X148565Y72134D01*
X148548Y71981D01*
X148589Y71327D01*
X148628Y71148D01*
X148672Y71020D01*
X148723Y70943D01*
X148779Y70917D01*
X148492D01*
X148492Y70906D01*
X148482Y69984D01*
X145923D01*
X145920Y70471D01*
X145888Y70917D01*
X145732D01*
X145769Y70943D01*
X145801Y71020D01*
X145830Y71148D01*
X145855Y71327D01*
X145857Y71359D01*
X145802Y72134D01*
X145758Y72313D01*
X145708Y72441D01*
X145651Y72518D01*
X145587Y72544D01*
X145906D01*
X145923Y73476D01*
X148482D01*
X148485Y72990D01*
D02*
G37*
G36*
X182425Y71295D02*
X182291Y71248D01*
X182173Y71169D01*
X182071Y71057D01*
X181984Y70915D01*
X181913Y70740D01*
X181858Y70534D01*
X181837Y70403D01*
X181849Y70338D01*
X181883Y70204D01*
X181926Y70081D01*
X181975Y69969D01*
X182033Y69867D01*
X182098Y69775D01*
X182171Y69695D01*
X179829D01*
X179902Y69775D01*
X179967Y69867D01*
X180025Y69969D01*
X180074Y70081D01*
X180117Y70204D01*
X180151Y70338D01*
X180163Y70403D01*
X180142Y70534D01*
X180087Y70740D01*
X180016Y70915D01*
X179929Y71057D01*
X179827Y71169D01*
X179709Y71248D01*
X179575Y71295D01*
X179425Y71311D01*
X182575D01*
X182425Y71295D01*
D02*
G37*
G36*
X167313Y70199D02*
X167315Y70187D01*
X167317Y70151D01*
X167325Y69017D01*
X166144D01*
X166138Y69244D01*
X166121Y69446D01*
X166091Y69624D01*
X166050Y69779D01*
X165997Y69910D01*
X165931Y70018D01*
X165855Y70101D01*
X165766Y70162D01*
X165666Y70198D01*
X165554Y70211D01*
X167313Y70199D01*
D02*
G37*
G36*
X140221Y67083D02*
X140195Y67204D01*
X140118Y67312D01*
X139990Y67408D01*
X139811Y67491D01*
X139581Y67561D01*
X139299Y67618D01*
X138967Y67663D01*
X138148Y67714D01*
X137662Y67721D01*
Y70280D01*
X138148Y70286D01*
X139299Y70382D01*
X139581Y70439D01*
X139811Y70509D01*
X139990Y70592D01*
X140118Y70688D01*
X140195Y70796D01*
X140221Y70917D01*
Y67083D01*
D02*
G37*
G36*
X148779D02*
X148788Y67071D01*
X148796Y67036D01*
X148803Y66977D01*
X148815Y66788D01*
X148827Y65902D01*
X147646D01*
X147640Y66128D01*
X147622Y66330D01*
X147592Y66509D01*
X147551Y66663D01*
X147498Y66795D01*
X147433Y66902D01*
X147356Y66986D01*
X147268Y67046D01*
X147167Y67082D01*
X147055Y67095D01*
X148779Y67083D01*
D02*
G37*
G36*
X197381Y67646D02*
X197214Y67586D01*
X197066Y67488D01*
X196939Y67349D01*
X196830Y67171D01*
X196742Y66953D01*
X196673Y66695D01*
X196672Y66691D01*
X196676Y66676D01*
X196704Y66600D01*
X196736Y66540D01*
X196771Y66495D01*
X196640D01*
X196624Y66398D01*
X196594Y66062D01*
X196584Y65685D01*
X194616D01*
X194606Y66062D01*
X194576Y66398D01*
X194560Y66495D01*
X194429D01*
X194464Y66540D01*
X194496Y66600D01*
X194524Y66676D01*
X194528Y66691D01*
X194527Y66695D01*
X194458Y66953D01*
X194370Y67171D01*
X194261Y67349D01*
X194133Y67488D01*
X193986Y67586D01*
X193818Y67646D01*
X193631Y67666D01*
X197569D01*
X197381Y67646D01*
D02*
G37*
G36*
X142590Y68011D02*
X142536Y67883D01*
X142489Y67712D01*
X142448Y67498D01*
X142413Y67241D01*
X142402Y67095D01*
X142925D01*
X142813Y67083D01*
X142713Y67047D01*
X142624Y66988D01*
X142547Y66904D01*
X142482Y66797D01*
X142429Y66665D01*
X142388Y66510D01*
X142358Y66331D01*
X142357Y66314D01*
X142335Y65306D01*
X141154D01*
X141150Y65779D01*
X141105Y66479D01*
X141100Y66510D01*
X141059Y66665D01*
X141006Y66797D01*
X140941Y66904D01*
X140864Y66988D01*
X140776Y67047D01*
X140675Y67083D01*
X140563Y67095D01*
X141066D01*
X141040Y67498D01*
X140999Y67712D01*
X140952Y67883D01*
X140899Y68011D01*
X140839Y68096D01*
X142649D01*
X142590Y68011D01*
D02*
G37*
G36*
X348969Y67075D02*
X347000Y65106D01*
X345031Y67075D01*
Y70224D01*
X348969D01*
Y67075D01*
D02*
G37*
G36*
X343969D02*
X342000Y65106D01*
X340032Y67075D01*
Y70224D01*
X343969D01*
Y67075D01*
D02*
G37*
G36*
X348969Y60776D02*
X345031D01*
Y66091D01*
X347000Y64122D01*
X348969Y66091D01*
Y60776D01*
D02*
G37*
G36*
X343969D02*
X340032D01*
Y66091D01*
X342000Y64122D01*
X343969Y66091D01*
Y60776D01*
D02*
G37*
G36*
X327221Y66557D02*
X327180Y66480D01*
X327143Y66352D01*
X327111Y66173D01*
X327085Y65943D01*
X327046Y65329D01*
X327024Y64024D01*
X324465D01*
X324462Y64510D01*
X324345Y66352D01*
X324308Y66480D01*
X324267Y66557D01*
X324221Y66583D01*
X327268D01*
X327221Y66557D01*
D02*
G37*
G36*
X332733D02*
X332692Y66480D01*
X332655Y66352D01*
X332623Y66173D01*
X332596Y65943D01*
X332572Y65564D01*
X332587Y65401D01*
X332651Y65015D01*
X332740Y64681D01*
X332855Y64398D01*
X332996Y64167D01*
X333162Y63987D01*
X333354Y63858D01*
X333572Y63781D01*
X333815Y63756D01*
X328697D01*
X328940Y63781D01*
X329157Y63858D01*
X329349Y63987D01*
X329516Y64167D01*
X329657Y64398D01*
X329772Y64681D01*
X329861Y65015D01*
X329920Y65367D01*
X329857Y66352D01*
X329820Y66480D01*
X329779Y66557D01*
X329732Y66583D01*
X332779D01*
X332733Y66557D01*
D02*
G37*
G36*
X241811Y65561D02*
X241932Y65462D01*
X242058Y65375D01*
X242188Y65300D01*
X242323Y65236D01*
X242463Y65184D01*
X242607Y65143D01*
X242757Y65114D01*
X242911Y65096D01*
X243070Y65091D01*
Y63910D01*
X242911Y63904D01*
X242757Y63886D01*
X242607Y63857D01*
X242463Y63816D01*
X242323Y63764D01*
X242188Y63700D01*
X242058Y63625D01*
X241932Y63538D01*
X241811Y63439D01*
X241695Y63329D01*
Y65671D01*
X241811Y65561D01*
D02*
G37*
G36*
X195583Y63627D02*
X195527Y63620D01*
X195461Y63600D01*
X195387Y63566D01*
X195305Y63518D01*
X195214Y63456D01*
X195114Y63380D01*
X194889Y63186D01*
X194629Y62937D01*
X193237Y64329D01*
X193369Y64463D01*
X193756Y64914D01*
X193818Y65005D01*
X193866Y65087D01*
X193900Y65161D01*
X193920Y65227D01*
X193927Y65283D01*
X195583Y63627D01*
D02*
G37*
G36*
X299443Y63977D02*
X299519Y63936D01*
X299647Y63899D01*
X299827Y63867D01*
X300057Y63841D01*
X300671Y63801D01*
X301976Y63779D01*
Y61221D01*
X301490Y61218D01*
X299647Y61101D01*
X299519Y61064D01*
X299443Y61023D01*
X299417Y60977D01*
Y64023D01*
X299443Y63977D01*
D02*
G37*
G36*
X132538Y63192D02*
X132676Y60827D01*
X132714Y60735D01*
X132756Y60704D01*
X128843D01*
X128961Y60735D01*
X129067Y60827D01*
X129160Y60981D01*
X129241Y61196D01*
X129309Y61472D01*
X129365Y61810D01*
X129409Y62209D01*
X129458Y63192D01*
X129465Y63775D01*
X132535D01*
X132538Y63192D01*
D02*
G37*
G36*
X119984Y62926D02*
X120124Y60732D01*
X120157Y60704D01*
X116244D01*
X116371Y60732D01*
X116485Y60814D01*
X116585Y60951D01*
X116672Y61143D01*
X116745Y61390D01*
X116805Y61692D01*
X116852Y62049D01*
X116905Y62926D01*
X116912Y63447D01*
X119983D01*
X119984Y62926D01*
D02*
G37*
G36*
X201596Y61667D02*
X201614Y61465D01*
X201644Y61286D01*
X201685Y61132D01*
X201738Y61000D01*
X201803Y60893D01*
X201880Y60809D01*
X201969Y60749D01*
X202069Y60713D01*
X202181Y60700D01*
X200044Y60712D01*
X200113Y60724D01*
X200175Y60760D01*
X200230Y60819D01*
X200278Y60901D01*
X200318Y61008D01*
X200351Y61138D01*
X200377Y61291D01*
X200395Y61468D01*
X200409Y61893D01*
X201591D01*
X201596Y61667D01*
D02*
G37*
G36*
X237959Y62346D02*
X238061Y62237D01*
X238171Y62141D01*
X238288Y62058D01*
X238412Y61987D01*
X238544Y61929D01*
X238683Y61884D01*
X238830Y61852D01*
X238984Y61833D01*
X239145Y61827D01*
X238943Y60646D01*
X238787Y60641D01*
X238634Y60626D01*
X238483Y60602D01*
X238335Y60567D01*
X238189Y60523D01*
X238045Y60469D01*
X237904Y60405D01*
X237765Y60332D01*
X237629Y60248D01*
X237495Y60155D01*
X237865Y62468D01*
X237959Y62346D01*
D02*
G37*
G36*
X192994Y61335D02*
X193022Y61009D01*
X193068Y60720D01*
X193133Y60471D01*
X193218Y60259D01*
X193320Y60087D01*
X193441Y59952D01*
X193581Y59856D01*
X193740Y59799D01*
X193917Y59779D01*
X190083D01*
X190260Y59799D01*
X190419Y59856D01*
X190559Y59952D01*
X190680Y60087D01*
X190782Y60259D01*
X190866Y60471D01*
X190932Y60720D01*
X190978Y61009D01*
X191006Y61335D01*
X191016Y61700D01*
X192984D01*
X192994Y61335D01*
D02*
G37*
G36*
X206325Y61668D02*
X207111Y61005D01*
X207331Y60860D01*
X207529Y60752D01*
X207706Y60682D01*
X207861Y60651D01*
X207995Y60657D01*
X208107Y60700D01*
X206055Y59436D01*
X206139Y59509D01*
X206185Y59603D01*
X206193Y59718D01*
X206164Y59854D01*
X206098Y60010D01*
X205995Y60188D01*
X205854Y60386D01*
X205676Y60605D01*
X205208Y61106D01*
X206020Y61965D01*
X206325Y61668D01*
D02*
G37*
G36*
X166438Y59706D02*
X166419Y59690D01*
X166402Y59664D01*
X166387Y59628D01*
X166375Y59581D01*
X166365Y59524D01*
X166357Y59457D01*
X166348Y59290D01*
X166347Y59192D01*
X165559D01*
X165558Y59290D01*
X165541Y59524D01*
X165531Y59581D01*
X165518Y59628D01*
X165504Y59664D01*
X165487Y59690D01*
X165467Y59706D01*
X165446Y59711D01*
X166460D01*
X166438Y59706D01*
D02*
G37*
G36*
X158079Y58488D02*
X158064Y58480D01*
X158033Y58455D01*
X157924Y58355D01*
X157211Y57654D01*
X156654Y58211D01*
X157488Y59079D01*
X158079Y58488D01*
D02*
G37*
G36*
X156797Y57240D02*
X156715Y57149D01*
X156636Y57043D01*
X156561Y56922D01*
X156490Y56786D01*
X156422Y56636D01*
X156359Y56471D01*
X156241Y56096D01*
X156188Y55887D01*
X156139Y55663D01*
X154870Y57632D01*
X155062Y57595D01*
X155244Y57572D01*
X155417Y57564D01*
X155581Y57571D01*
X155735Y57593D01*
X155879Y57629D01*
X156015Y57680D01*
X156141Y57746D01*
X156257Y57826D01*
X156364Y57921D01*
X156797Y57240D01*
D02*
G37*
G36*
X190716Y57812D02*
X190818Y57933D01*
X190866Y58000D01*
X190908Y58065D01*
X190943Y58130D01*
X190973Y58194D01*
X190996Y58257D01*
X191013Y58319D01*
X191024Y58380D01*
X192124Y57279D01*
X192063Y57269D01*
X192000Y57252D01*
X191938Y57229D01*
X191874Y57199D01*
X191809Y57164D01*
X191744Y57122D01*
X191677Y57074D01*
X191542Y56960D01*
X191473Y56893D01*
X191259Y57107D01*
X191539Y56744D01*
X191457Y56820D01*
X191357Y56859D01*
X191238Y56863D01*
X191099Y56832D01*
X190942Y56765D01*
X190765Y56663D01*
X190570Y56525D01*
X190355Y56351D01*
X189868Y55897D01*
X188830Y56529D01*
X189135Y56842D01*
X189812Y57643D01*
X189958Y57863D01*
X190065Y58060D01*
X190131Y58234D01*
X190159Y58385D01*
X190147Y58513D01*
X190095Y58617D01*
X190716Y57812D01*
D02*
G37*
G36*
X363138Y56795D02*
X363126Y56904D01*
X363091Y57002D01*
X363032Y57088D01*
X362950Y57163D01*
X362844Y57226D01*
X362714Y57278D01*
X362561Y57318D01*
X362385Y57347D01*
X362184Y57364D01*
X361961Y57370D01*
Y58551D01*
X362184Y58557D01*
X362385Y58574D01*
X362561Y58603D01*
X362714Y58643D01*
X362844Y58695D01*
X362950Y58758D01*
X363032Y58833D01*
X363091Y58919D01*
X363126Y59017D01*
X363138Y59126D01*
Y56795D01*
D02*
G37*
G36*
X160638Y58231D02*
X160641Y58079D01*
X160670Y57777D01*
X160695Y57627D01*
X160767Y57330D01*
X160814Y57183D01*
X160929Y56891D01*
X160998Y56746D01*
X158784Y57512D01*
X158912Y57581D01*
X159026Y57661D01*
X159127Y57751D01*
X159214Y57851D01*
X159289Y57963D01*
X159349Y58084D01*
X159396Y58217D01*
X159430Y58359D01*
X159450Y58513D01*
X159457Y58677D01*
X160638Y58231D01*
D02*
G37*
G36*
X234141Y58136D02*
X234152Y58089D01*
X234176Y58034D01*
X234213Y57971D01*
X234262Y57899D01*
X234323Y57819D01*
X234483Y57635D01*
X234692Y57418D01*
X233857Y56582D01*
X233764Y56673D01*
X233596Y56819D01*
X233521Y56876D01*
X233452Y56921D01*
X233389Y56955D01*
X233332Y56977D01*
X233280Y56989D01*
X233235Y56989D01*
X233195Y56978D01*
X234141Y58174D01*
X234141Y58136D01*
D02*
G37*
G36*
X307345Y56319D02*
X307333Y56431D01*
X307297Y56532D01*
X307238Y56620D01*
X307154Y56697D01*
X307047Y56762D01*
X306915Y56815D01*
X306760Y56856D01*
X306581Y56886D01*
X306379Y56903D01*
X306152Y56910D01*
Y58091D01*
X306379Y58096D01*
X306581Y58114D01*
X306760Y58144D01*
X306915Y58185D01*
X307047Y58238D01*
X307154Y58303D01*
X307238Y58380D01*
X307297Y58469D01*
X307333Y58569D01*
X307345Y58681D01*
Y56319D01*
D02*
G37*
G36*
X175773Y56709D02*
X175768Y56680D01*
X175764Y56637D01*
X175755Y56415D01*
X175750Y55909D01*
X175250D01*
X175221Y56722D01*
X175779D01*
X175773Y56709D01*
D02*
G37*
G36*
X295583Y55465D02*
X295557Y55512D01*
X295480Y55555D01*
X295353Y55592D01*
X295173Y55625D01*
X294943Y55652D01*
X294329Y55692D01*
X293024Y55715D01*
Y58274D01*
X293510Y58276D01*
X295353Y58390D01*
X295480Y58426D01*
X295557Y58466D01*
X295583Y58512D01*
Y55465D01*
D02*
G37*
G36*
X189317Y55346D02*
X189159Y55184D01*
X188691Y54639D01*
X188616Y54529D01*
X188557Y54428D01*
X188515Y54339D01*
X188490Y54259D01*
X188482Y54189D01*
X186804Y55326D01*
X186909Y55275D01*
X187028Y55254D01*
X187160Y55263D01*
X187307Y55302D01*
X187467Y55372D01*
X187641Y55472D01*
X187828Y55602D01*
X188030Y55762D01*
X188245Y55953D01*
X188474Y56174D01*
X189317Y55346D01*
D02*
G37*
G36*
X128843Y55157D02*
X128819Y55311D01*
X128749Y55448D01*
X128632Y55569D01*
X128468Y55674D01*
X128257Y55763D01*
X127999Y55835D01*
X127695Y55892D01*
X127343Y55932D01*
X126945Y55957D01*
X126500Y55965D01*
Y59035D01*
X126945Y59044D01*
X127695Y59108D01*
X127999Y59165D01*
X128257Y59237D01*
X128468Y59326D01*
X128632Y59431D01*
X128749Y59552D01*
X128819Y59689D01*
X128843Y59843D01*
Y55157D01*
D02*
G37*
G36*
X171217Y55626D02*
X171338Y55530D01*
X171464Y55445D01*
X171595Y55371D01*
X171731Y55309D01*
X171872Y55259D01*
X172017Y55220D01*
X172168Y55193D01*
X172323Y55177D01*
X172483Y55173D01*
X170827Y53517D01*
X170823Y53677D01*
X170807Y53832D01*
X170780Y53983D01*
X170741Y54128D01*
X170691Y54269D01*
X170629Y54405D01*
X170555Y54536D01*
X170470Y54662D01*
X170374Y54783D01*
X170265Y54899D01*
X171101Y55734D01*
X171217Y55626D01*
D02*
G37*
G36*
X165477Y55490D02*
X165599Y55395D01*
X165726Y55314D01*
X165856Y55247D01*
X165990Y55195D01*
X166127Y55157D01*
X166269Y55134D01*
X166414Y55124D01*
X166564Y55130D01*
X166717Y55149D01*
X165346Y53250D01*
X165317Y53410D01*
X165279Y53565D01*
X165233Y53715D01*
X165178Y53860D01*
X165114Y54000D01*
X165042Y54134D01*
X164962Y54264D01*
X164872Y54387D01*
X164774Y54506D01*
X164668Y54620D01*
X165358Y55600D01*
X165477Y55490D01*
D02*
G37*
G36*
X299354Y52019D02*
X299248Y51907D01*
X299150Y51789D01*
X299059Y51666D01*
X298976Y51538D01*
X298901Y51405D01*
X298833Y51267D01*
X298773Y51124D01*
X298721Y50975D01*
X298676Y50822D01*
X298639Y50663D01*
X297370Y52632D01*
X297519Y52605D01*
X297665Y52594D01*
X297808Y52597D01*
X297948Y52616D01*
X298084Y52650D01*
X298216Y52700D01*
X298346Y52764D01*
X298472Y52844D01*
X298594Y52939D01*
X298713Y53049D01*
X299354Y52019D01*
D02*
G37*
G36*
X132658Y57867D02*
X132639Y57682D01*
X132688Y57453D01*
X132805Y57180D01*
X132990Y56864D01*
X133242Y56503D01*
X133562Y56100D01*
X134404Y55161D01*
X134927Y54626D01*
X132756Y52455D01*
X132221Y52978D01*
X130878Y54140D01*
X130518Y54392D01*
X130202Y54577D01*
X129929Y54694D01*
X129700Y54743D01*
X129514Y54724D01*
X129373Y54638D01*
X132744Y58009D01*
X132658Y57867D01*
D02*
G37*
G36*
X340956Y54144D02*
X340992Y54043D01*
X341052Y53955D01*
X341135Y53878D01*
X341243Y53813D01*
X341374Y53760D01*
X341529Y53719D01*
X341708Y53689D01*
X341750Y53685D01*
X341773Y53688D01*
X341922Y53716D01*
X342068Y53755D01*
X342210Y53805D01*
X342348Y53866D01*
X342481Y53939D01*
X342611Y54023D01*
X342737Y54118D01*
X342859Y54224D01*
X342754Y51883D01*
X342643Y51998D01*
X342528Y52100D01*
X342406Y52190D01*
X342280Y52268D01*
X342147Y52334D01*
X342010Y52388D01*
X341866Y52430D01*
X341718Y52460D01*
X341712Y52461D01*
X341708Y52461D01*
X341529Y52431D01*
X341374Y52390D01*
X341243Y52337D01*
X341135Y52272D01*
X341052Y52195D01*
X340992Y52106D01*
X340956Y52006D01*
X340945Y51894D01*
Y54256D01*
X340956Y54144D01*
D02*
G37*
G36*
X363138Y51858D02*
X363126Y51970D01*
X363090Y52071D01*
X363031Y52160D01*
X362947Y52236D01*
X362840Y52301D01*
X362709Y52354D01*
X362554Y52396D01*
X362375Y52425D01*
X362172Y52443D01*
X361945Y52449D01*
Y53630D01*
X362172Y53636D01*
X362375Y53654D01*
X362554Y53683D01*
X362709Y53724D01*
X362840Y53778D01*
X362947Y53843D01*
X363031Y53919D01*
X363090Y54008D01*
X363126Y54108D01*
X363138Y54220D01*
Y51858D01*
D02*
G37*
G36*
X175779Y51778D02*
X175221D01*
X175227Y51792D01*
X175232Y51820D01*
X175236Y51863D01*
X175245Y52085D01*
X175250Y52592D01*
X175750D01*
X175779Y51778D01*
D02*
G37*
G36*
X337055Y51644D02*
X337044Y51756D01*
X337008Y51856D01*
X336948Y51945D01*
X336865Y52022D01*
X336757Y52087D01*
X336626Y52140D01*
X336471Y52181D01*
X336292Y52211D01*
X336089Y52228D01*
X335862Y52234D01*
Y53415D01*
X336089Y53421D01*
X336292Y53439D01*
X336471Y53469D01*
X336626Y53510D01*
X336757Y53563D01*
X336865Y53628D01*
X336948Y53705D01*
X337008Y53793D01*
X337044Y53894D01*
X337055Y54006D01*
Y51644D01*
D02*
G37*
G36*
X334679Y53701D02*
X334714Y53641D01*
X334773Y53588D01*
X334856Y53542D01*
X334962Y53503D01*
X335092Y53472D01*
X335246Y53447D01*
X335423Y53429D01*
X335848Y53415D01*
Y52234D01*
X335622Y52228D01*
X335420Y52211D01*
X335241Y52181D01*
X335086Y52140D01*
X334955Y52087D01*
X334848Y52022D01*
X334764Y51945D01*
X334704Y51856D01*
X334668Y51756D01*
X334655Y51644D01*
X334667Y53768D01*
X334679Y53701D01*
D02*
G37*
G36*
X190095Y51614D02*
X190083Y51726D01*
X190047Y51827D01*
X189988Y51915D01*
X189904Y51992D01*
X189797Y52057D01*
X189665Y52110D01*
X189510Y52152D01*
X189331Y52181D01*
X189128Y52199D01*
X188902Y52205D01*
Y53386D01*
X189128Y53392D01*
X189331Y53409D01*
X189510Y53439D01*
X189665Y53480D01*
X189797Y53534D01*
X189904Y53598D01*
X189988Y53675D01*
X190047Y53764D01*
X190083Y53864D01*
X190095Y53976D01*
Y51614D01*
D02*
G37*
G36*
X120086Y54596D02*
X120021Y54503D01*
X119965Y54350D01*
X119915Y54135D01*
X119874Y53859D01*
X119814Y53121D01*
X119780Y51555D01*
X116709D01*
X116704Y52139D01*
X116593Y53859D01*
X116542Y54135D01*
X116481Y54350D01*
X116411Y54503D01*
X116332Y54596D01*
X116244Y54626D01*
X120157D01*
X120086Y54596D01*
D02*
G37*
G36*
X307345Y51319D02*
X307333Y51431D01*
X307297Y51531D01*
X307238Y51620D01*
X307154Y51697D01*
X307047Y51762D01*
X306915Y51815D01*
X306760Y51856D01*
X306581Y51886D01*
X306379Y51903D01*
X306152Y51910D01*
Y53091D01*
X306379Y53096D01*
X306581Y53114D01*
X306760Y53144D01*
X306915Y53185D01*
X307047Y53238D01*
X307154Y53303D01*
X307238Y53380D01*
X307297Y53469D01*
X307333Y53569D01*
X307345Y53681D01*
Y51319D01*
D02*
G37*
G36*
X180177Y53323D02*
X180193Y53168D01*
X180220Y53017D01*
X180259Y52872D01*
X180309Y52731D01*
X180371Y52595D01*
X180445Y52464D01*
X180530Y52338D01*
X180626Y52217D01*
X180735Y52101D01*
X179899Y51266D01*
X179783Y51374D01*
X179662Y51470D01*
X179536Y51555D01*
X179405Y51629D01*
X179269Y51691D01*
X179128Y51741D01*
X178983Y51780D01*
X178832Y51807D01*
X178677Y51823D01*
X178517Y51827D01*
X180173Y53483D01*
X180177Y53323D01*
D02*
G37*
G36*
X193942Y54198D02*
X194016Y54136D01*
X194139Y54081D01*
X194311Y54033D01*
X194532Y53993D01*
X194803Y53960D01*
X195492Y53916D01*
X196378Y53902D01*
Y51342D01*
X193917Y51221D01*
Y54268D01*
X193942Y54198D01*
D02*
G37*
G36*
X203000Y51277D02*
X202914Y51244D01*
X202838Y51189D01*
X202772Y51112D01*
X202717Y51014D01*
X202671Y50893D01*
X202636Y50751D01*
X202611Y50586D01*
X202596Y50400D01*
X202591Y50192D01*
X201409D01*
X201404Y50400D01*
X201389Y50586D01*
X201364Y50751D01*
X201329Y50893D01*
X201283Y51014D01*
X201228Y51112D01*
X201162Y51189D01*
X201086Y51244D01*
X201000Y51277D01*
X200904Y51288D01*
X203096D01*
X203000Y51277D01*
D02*
G37*
G36*
X209069Y51276D02*
X208968Y51240D01*
X208880Y51181D01*
X208803Y51099D01*
X208738Y50992D01*
X208685Y50862D01*
X208644Y50709D01*
X208614Y50532D01*
X208596Y50331D01*
X208591Y50107D01*
X207410D01*
X207403Y50331D01*
X207386Y50532D01*
X207356Y50709D01*
X207315Y50862D01*
X207262Y50992D01*
X207197Y51099D01*
X207120Y51181D01*
X207031Y51240D01*
X206931Y51276D01*
X206819Y51288D01*
X209181D01*
X209069Y51276D01*
D02*
G37*
G36*
X174638Y50081D02*
X174548Y49980D01*
X174467Y49867D01*
X174397Y49741D01*
X174335Y49603D01*
X174284Y49452D01*
X174242Y49290D01*
X174210Y49115D01*
X174188Y48928D01*
X174176Y48728D01*
X174173Y48517D01*
X173629Y49060D01*
X173091Y48500D01*
X172500Y49091D01*
X172514Y49099D01*
X172545Y49124D01*
X172655Y49224D01*
X173064Y49626D01*
X172517Y50173D01*
X172728Y50176D01*
X173115Y50210D01*
X173290Y50242D01*
X173452Y50284D01*
X173603Y50335D01*
X173741Y50397D01*
X173866Y50467D01*
X173980Y50548D01*
X174081Y50638D01*
X174638Y50081D01*
D02*
G37*
G36*
X113000Y49500D02*
X91093D01*
X91097Y49361D01*
X91114Y49164D01*
X91144Y48985D01*
X91185Y48822D01*
X91238Y48677D01*
X91303Y48549D01*
X91380Y48438D01*
X91469Y48343D01*
X91569Y48266D01*
X91681Y48206D01*
X89319D01*
X89431Y48266D01*
X89531Y48343D01*
X89620Y48438D01*
X89697Y48549D01*
X89762Y48677D01*
X89815Y48822D01*
X89856Y48985D01*
X89886Y49164D01*
X89903Y49361D01*
X89907Y49500D01*
X83000D01*
Y62500D01*
X73252D01*
Y69500D01*
X83000D01*
Y92000D01*
X113000D01*
Y49500D01*
D02*
G37*
G36*
X72000Y67138D02*
X72000Y61000D01*
X80732D01*
Y49421D01*
X77095D01*
X77096Y49361D01*
X77114Y49164D01*
X77144Y48985D01*
X77185Y48822D01*
X77238Y48677D01*
X77303Y48549D01*
X77380Y48438D01*
X77469Y48343D01*
X77569Y48266D01*
X77681Y48206D01*
X75319D01*
X75431Y48266D01*
X75532Y48343D01*
X75620Y48438D01*
X75697Y48549D01*
X75762Y48677D01*
X75815Y48822D01*
X75856Y48985D01*
X75886Y49164D01*
X75903Y49361D01*
X75905Y49421D01*
X44705D01*
X44705Y67138D01*
X53760D01*
X72000Y67138D01*
D02*
G37*
G36*
X343132Y46569D02*
X342991Y46650D01*
X342705Y46786D01*
X342560Y46842D01*
X342413Y46889D01*
X342265Y46927D01*
X342115Y46957D01*
X341964Y46978D01*
X341872Y46986D01*
X341709Y46971D01*
X341531Y46942D01*
X341376Y46901D01*
X341245Y46848D01*
X341137Y46782D01*
X341053Y46706D01*
X340993Y46617D01*
X340957Y46517D01*
X340945Y46405D01*
X340956Y48413D01*
X340968Y48368D01*
X341004Y48328D01*
X341063Y48292D01*
X341145Y48261D01*
X341252Y48235D01*
X341382Y48214D01*
X341535Y48198D01*
X341588Y48195D01*
X341649Y48203D01*
X341793Y48236D01*
X341929Y48282D01*
X342055Y48342D01*
X342173Y48415D01*
X342281Y48501D01*
X342381Y48600D01*
X342471Y48713D01*
X342552Y48839D01*
X343132Y46569D01*
D02*
G37*
G36*
X240805Y47329D02*
X240689Y47439D01*
X240568Y47538D01*
X240442Y47625D01*
X240312Y47700D01*
X240177Y47764D01*
X240037Y47817D01*
X239893Y47857D01*
X239743Y47886D01*
X239589Y47904D01*
X239430Y47909D01*
Y49091D01*
X239589Y49096D01*
X239743Y49114D01*
X239893Y49143D01*
X240037Y49183D01*
X240177Y49236D01*
X240312Y49300D01*
X240442Y49375D01*
X240568Y49462D01*
X240689Y49561D01*
X240805Y49671D01*
Y47329D01*
D02*
G37*
G36*
X101788Y45319D02*
X101776Y45431D01*
X101740Y45531D01*
X101681Y45620D01*
X101599Y45697D01*
X101492Y45762D01*
X101362Y45815D01*
X101209Y45856D01*
X101152Y45866D01*
X101108Y45857D01*
X100963Y45816D01*
X100823Y45764D01*
X100688Y45700D01*
X100558Y45625D01*
X100432Y45538D01*
X100311Y45439D01*
X100195Y45329D01*
Y47671D01*
X100311Y47561D01*
X100432Y47462D01*
X100558Y47375D01*
X100688Y47300D01*
X100823Y47236D01*
X100963Y47183D01*
X101108Y47143D01*
X101152Y47134D01*
X101209Y47144D01*
X101362Y47185D01*
X101492Y47238D01*
X101599Y47303D01*
X101681Y47380D01*
X101740Y47469D01*
X101776Y47569D01*
X101788Y47681D01*
Y45319D01*
D02*
G37*
G36*
X177549Y46889D02*
X177403Y46922D01*
X177260Y46939D01*
X177121Y46940D01*
X176984Y46926D01*
X176850Y46895D01*
X176718Y46848D01*
X176590Y46786D01*
X176464Y46707D01*
X176342Y46613D01*
X176222Y46502D01*
X175630Y47581D01*
X175736Y47692D01*
X175834Y47809D01*
X175926Y47930D01*
X176012Y48057D01*
X176090Y48188D01*
X176162Y48324D01*
X176226Y48465D01*
X176284Y48612D01*
X176380Y48919D01*
X177549Y46889D01*
D02*
G37*
G36*
X370214Y49456D02*
X370291Y49432D01*
X370419Y49410D01*
X370598Y49391D01*
X371443Y49352D01*
X372748Y49339D01*
Y46780D01*
X370189Y46752D01*
Y49484D01*
X370214Y49456D01*
D02*
G37*
G36*
X168677Y48323D02*
X168693Y48168D01*
X168720Y48017D01*
X168759Y47872D01*
X168809Y47731D01*
X168871Y47595D01*
X168945Y47464D01*
X169030Y47338D01*
X169126Y47217D01*
X169235Y47101D01*
X168399Y46266D01*
X168283Y46374D01*
X168162Y46470D01*
X168036Y46555D01*
X167905Y46629D01*
X167769Y46691D01*
X167628Y46741D01*
X167483Y46780D01*
X167332Y46807D01*
X167177Y46823D01*
X167017Y46827D01*
X168673Y48483D01*
X168677Y48323D01*
D02*
G37*
G36*
X334668Y48244D02*
X334704Y48144D01*
X334764Y48055D01*
X334848Y47978D01*
X334955Y47913D01*
X335086Y47860D01*
X335241Y47819D01*
X335420Y47789D01*
X335622Y47772D01*
X335848Y47766D01*
Y46585D01*
X335624Y46581D01*
X335246Y46553D01*
X335092Y46528D01*
X334962Y46497D01*
X334856Y46458D01*
X334773Y46412D01*
X334714Y46359D01*
X334679Y46299D01*
X334667Y46233D01*
X334655Y48356D01*
X334668Y48244D01*
D02*
G37*
G36*
X202140Y47610D02*
X202372Y47413D01*
X202415Y47385D01*
X202453Y47366D01*
X202484Y47357D01*
X202510Y47355D01*
X202529Y47363D01*
X201838Y46198D01*
X201833Y46211D01*
X201816Y46236D01*
X201786Y46272D01*
X201623Y46450D01*
X201233Y46846D01*
X202068Y47681D01*
X202140Y47610D01*
D02*
G37*
G36*
X337055Y45994D02*
X337044Y46106D01*
X337008Y46207D01*
X336948Y46295D01*
X336865Y46372D01*
X336757Y46437D01*
X336626Y46490D01*
X336471Y46532D01*
X336292Y46561D01*
X336089Y46579D01*
X335862Y46585D01*
Y47766D01*
X336089Y47772D01*
X336292Y47789D01*
X336471Y47819D01*
X336626Y47860D01*
X336757Y47913D01*
X336865Y47978D01*
X336948Y48055D01*
X337008Y48144D01*
X337044Y48244D01*
X337055Y48356D01*
Y45994D01*
D02*
G37*
G36*
X173561Y47189D02*
X173462Y47068D01*
X173375Y46942D01*
X173300Y46812D01*
X173236Y46677D01*
X173184Y46537D01*
X173143Y46393D01*
X173114Y46243D01*
X173096Y46089D01*
X173091Y45930D01*
X171909D01*
X171904Y46089D01*
X171886Y46243D01*
X171857Y46393D01*
X171817Y46537D01*
X171764Y46677D01*
X171700Y46812D01*
X171625Y46942D01*
X171538Y47068D01*
X171439Y47189D01*
X171329Y47305D01*
X173671D01*
X173561Y47189D01*
D02*
G37*
G36*
X299235Y46899D02*
X299126Y46783D01*
X299030Y46662D01*
X298945Y46536D01*
X298871Y46405D01*
X298809Y46269D01*
X298759Y46128D01*
X298720Y45983D01*
X298693Y45832D01*
X298677Y45677D01*
X298673Y45517D01*
X297017Y47173D01*
X297177Y47177D01*
X297332Y47193D01*
X297483Y47220D01*
X297628Y47259D01*
X297769Y47309D01*
X297905Y47371D01*
X298036Y47445D01*
X298162Y47530D01*
X298283Y47626D01*
X298399Y47734D01*
X299235Y46899D01*
D02*
G37*
G36*
X111235Y48328D02*
X111304Y48213D01*
X111418Y48111D01*
X111578Y48023D01*
X111784Y47949D01*
X112036Y47888D01*
X112333Y47840D01*
X112677Y47807D01*
X113500Y47780D01*
Y45221D01*
X113065Y45214D01*
X112333Y45160D01*
X112036Y45112D01*
X111784Y45051D01*
X111578Y44977D01*
X111418Y44889D01*
X111304Y44787D01*
X111235Y44672D01*
X111212Y44543D01*
Y48456D01*
X111235Y48328D01*
D02*
G37*
G36*
X245005Y44155D02*
X244871Y44248D01*
X244735Y44332D01*
X244596Y44405D01*
X244455Y44469D01*
X244311Y44523D01*
X244165Y44567D01*
X244017Y44602D01*
X243866Y44626D01*
X243713Y44641D01*
X243557Y44646D01*
X243355Y45827D01*
X243516Y45833D01*
X243670Y45852D01*
X243817Y45884D01*
X243956Y45929D01*
X244088Y45987D01*
X244212Y46058D01*
X244329Y46141D01*
X244439Y46237D01*
X244541Y46346D01*
X244635Y46468D01*
X245005Y44155D01*
D02*
G37*
G36*
X156217Y45626D02*
X156338Y45530D01*
X156464Y45445D01*
X156595Y45371D01*
X156731Y45309D01*
X156872Y45259D01*
X157017Y45220D01*
X157168Y45193D01*
X157323Y45177D01*
X157483Y45173D01*
X155827Y43517D01*
X155823Y43677D01*
X155807Y43832D01*
X155780Y43983D01*
X155741Y44128D01*
X155691Y44269D01*
X155629Y44405D01*
X155555Y44536D01*
X155470Y44662D01*
X155374Y44783D01*
X155265Y44899D01*
X156101Y45735D01*
X156217Y45626D01*
D02*
G37*
G36*
X151217D02*
X151338Y45530D01*
X151464Y45445D01*
X151595Y45371D01*
X151731Y45309D01*
X151872Y45259D01*
X152017Y45220D01*
X152168Y45193D01*
X152323Y45177D01*
X152483Y45173D01*
X150827Y43517D01*
X150823Y43677D01*
X150807Y43832D01*
X150780Y43983D01*
X150741Y44128D01*
X150691Y44269D01*
X150629Y44405D01*
X150555Y44536D01*
X150470Y44662D01*
X150374Y44783D01*
X150266Y44899D01*
X151101Y45735D01*
X151217Y45626D01*
D02*
G37*
G36*
X146010Y45245D02*
X146106Y45165D01*
X146200Y45099D01*
X146291Y45046D01*
X146380Y45006D01*
X146466Y44981D01*
X146550Y44968D01*
X146631Y44970D01*
X146710Y44984D01*
X146785Y45013D01*
X145830Y43401D01*
X145819Y43478D01*
X145795Y43561D01*
X145758Y43650D01*
X145708Y43746D01*
X145645Y43847D01*
X145569Y43955D01*
X145377Y44188D01*
X145262Y44314D01*
X145133Y44445D01*
X145910Y45339D01*
X146010Y45245D01*
D02*
G37*
G36*
X198483Y42327D02*
X198323Y42323D01*
X198168Y42307D01*
X198017Y42280D01*
X197872Y42241D01*
X197731Y42191D01*
X197595Y42129D01*
X197464Y42055D01*
X197338Y41970D01*
X197217Y41874D01*
X197101Y41765D01*
X196265Y42601D01*
X196374Y42717D01*
X196470Y42838D01*
X196555Y42964D01*
X196629Y43095D01*
X196691Y43231D01*
X196741Y43372D01*
X196780Y43517D01*
X196807Y43668D01*
X196823Y43823D01*
X196827Y43983D01*
X198483Y42327D01*
D02*
G37*
G36*
X179061Y42189D02*
X178962Y42068D01*
X178875Y41942D01*
X178800Y41812D01*
X178736Y41677D01*
X178683Y41537D01*
X178643Y41392D01*
X178614Y41243D01*
X178596Y41089D01*
X178591Y40931D01*
X177409D01*
X177404Y41089D01*
X177386Y41243D01*
X177357Y41392D01*
X177316Y41537D01*
X177264Y41677D01*
X177200Y41812D01*
X177125Y41942D01*
X177038Y42068D01*
X176939Y42189D01*
X176829Y42305D01*
X179171D01*
X179061Y42189D01*
D02*
G37*
G36*
X168061D02*
X167962Y42068D01*
X167875Y41942D01*
X167800Y41812D01*
X167736Y41677D01*
X167683Y41537D01*
X167643Y41392D01*
X167614Y41243D01*
X167596Y41089D01*
X167591Y40931D01*
X166409D01*
X166404Y41089D01*
X166386Y41243D01*
X166357Y41392D01*
X166316Y41537D01*
X166264Y41677D01*
X166200Y41812D01*
X166125Y41942D01*
X166038Y42068D01*
X165939Y42189D01*
X165829Y42305D01*
X168171D01*
X168061Y42189D01*
D02*
G37*
G36*
X227356Y39011D02*
X227250Y38899D01*
X227151Y38781D01*
X227061Y38658D01*
X226977Y38531D01*
X226902Y38398D01*
X226834Y38260D01*
X226773Y38116D01*
X226720Y37968D01*
X226675Y37815D01*
X226638Y37656D01*
X225377Y39630D01*
X225526Y39603D01*
X225672Y39591D01*
X225814Y39594D01*
X225953Y39613D01*
X226089Y39647D01*
X226222Y39696D01*
X226351Y39760D01*
X226477Y39840D01*
X226600Y39935D01*
X226719Y40045D01*
X227356Y39011D01*
D02*
G37*
G36*
X159734Y39899D02*
X159626Y39783D01*
X159530Y39662D01*
X159445Y39536D01*
X159371Y39405D01*
X159309Y39269D01*
X159259Y39128D01*
X159220Y38983D01*
X159193Y38832D01*
X159177Y38677D01*
X159173Y38517D01*
X157517Y40173D01*
X157677Y40177D01*
X157832Y40193D01*
X157983Y40220D01*
X158128Y40259D01*
X158269Y40309D01*
X158405Y40371D01*
X158536Y40445D01*
X158662Y40530D01*
X158783Y40626D01*
X158899Y40734D01*
X159734Y39899D01*
D02*
G37*
G36*
X132789Y40179D02*
X132841Y39936D01*
X132873Y39827D01*
X132909Y39725D01*
X132950Y39630D01*
X132995Y39544D01*
X133044Y39465D01*
X133097Y39394D01*
X133154Y39331D01*
X132319Y38495D01*
X132256Y38553D01*
X132185Y38606D01*
X132106Y38655D01*
X132019Y38700D01*
X131925Y38741D01*
X131823Y38777D01*
X131713Y38809D01*
X131471Y38861D01*
X131338Y38880D01*
X132769Y40312D01*
X132789Y40179D01*
D02*
G37*
G36*
X134379Y39775D02*
X134408Y39718D01*
X134455Y39668D01*
X134521Y39624D01*
X134606Y39587D01*
X134709Y39557D01*
X134830Y39534D01*
X134971Y39517D01*
X135130Y39507D01*
X135308Y39503D01*
Y38322D01*
X135132Y38321D01*
X134613Y38280D01*
X134530Y38262D01*
X134465Y38240D01*
X134419Y38214D01*
X134391Y38186D01*
X134382Y38154D01*
X134370Y39839D01*
X134379Y39775D01*
D02*
G37*
G36*
X128618Y38154D02*
X128593Y38290D01*
X128516Y38412D01*
X128388Y38519D01*
X128209Y38612D01*
X127979Y38691D01*
X127697Y38756D01*
X127364Y38806D01*
X126980Y38841D01*
X126059Y38870D01*
Y41429D01*
X126546Y41436D01*
X127364Y41494D01*
X127697Y41544D01*
X127979Y41608D01*
X128209Y41687D01*
X128388Y41780D01*
X128516Y41888D01*
X128593Y42009D01*
X128618Y42145D01*
Y38154D01*
D02*
G37*
G36*
X84346Y39161D02*
X84292Y39033D01*
X84245Y38862D01*
X84204Y38648D01*
X84169Y38390D01*
X84140Y38010D01*
X84144Y37985D01*
X84185Y37822D01*
X84238Y37677D01*
X84303Y37549D01*
X84380Y37438D01*
X84469Y37343D01*
X84569Y37266D01*
X84681Y37206D01*
X84107D01*
X84091Y36456D01*
X82910D01*
X82906Y36929D01*
X82889Y37206D01*
X82319D01*
X82431Y37266D01*
X82531Y37343D01*
X82620Y37438D01*
X82697Y37549D01*
X82762Y37677D01*
X82815Y37822D01*
X82842Y37929D01*
X82839Y37985D01*
X82796Y38648D01*
X82755Y38862D01*
X82708Y39033D01*
X82655Y39161D01*
X82595Y39245D01*
X84405D01*
X84346Y39161D01*
D02*
G37*
G36*
X115839Y38870D02*
X115352Y38844D01*
X114917Y38768D01*
X114533Y38640D01*
X114201Y38461D01*
X113919Y38230D01*
X113689Y37949D01*
X113510Y37616D01*
X113382Y37232D01*
X113305Y36797D01*
X113279Y36311D01*
X110721D01*
X110695Y36797D01*
X110618Y37232D01*
X110490Y37616D01*
X110311Y37949D01*
X110081Y38230D01*
X109799Y38461D01*
X109467Y38640D01*
X109083Y38768D01*
X108648Y38844D01*
X108161Y38870D01*
X112000Y41429D01*
X115839Y38870D01*
D02*
G37*
G36*
X159782Y34782D02*
X159675Y34667D01*
X159578Y34547D01*
X159491Y34421D01*
X159414Y34291D01*
X159348Y34155D01*
X159292Y34014D01*
X159246Y33869D01*
X159210Y33718D01*
X159185Y33561D01*
X159170Y33400D01*
X157633Y35168D01*
X157791Y35162D01*
X157944Y35168D01*
X158093Y35187D01*
X158238Y35219D01*
X158378Y35264D01*
X158513Y35322D01*
X158644Y35392D01*
X158770Y35475D01*
X158892Y35571D01*
X159009Y35680D01*
X159782Y34782D01*
D02*
G37*
G36*
X313311Y35561D02*
X313432Y35462D01*
X313558Y35375D01*
X313688Y35300D01*
X313823Y35236D01*
X313963Y35184D01*
X314107Y35143D01*
X314257Y35114D01*
X314407Y35097D01*
X314756Y35091D01*
Y33909D01*
X314240Y33883D01*
X314107Y33857D01*
X313963Y33816D01*
X313823Y33764D01*
X313688Y33700D01*
X313558Y33625D01*
X313432Y33538D01*
X313311Y33439D01*
X313195Y33329D01*
Y33829D01*
X312696Y33804D01*
Y35196D01*
X312735Y35176D01*
X312812Y35158D01*
X312926Y35142D01*
X313195Y35122D01*
Y35671D01*
X313311Y35561D01*
D02*
G37*
G36*
X128618Y31855D02*
X128599Y31980D01*
X128540Y32093D01*
X128441Y32192D01*
X128303Y32278D01*
X128126Y32350D01*
X127910Y32410D01*
X127654Y32456D01*
X127358Y32489D01*
X127009Y32502D01*
X126713Y32476D01*
X126416Y32427D01*
X126159Y32358D01*
X125941Y32270D01*
X125763Y32161D01*
X125624Y32034D01*
X125525Y31886D01*
X125465Y31719D01*
X125444Y31532D01*
X125457Y34909D01*
X125476Y34828D01*
X125535Y34756D01*
X125634Y34692D01*
X125771Y34637D01*
X125949Y34591D01*
X126165Y34552D01*
X126421Y34523D01*
X126973Y34493D01*
X127025Y34494D01*
X127362Y34524D01*
X127658Y34573D01*
X127916Y34642D01*
X128133Y34730D01*
X128312Y34839D01*
X128451Y34966D01*
X128550Y35114D01*
X128610Y35282D01*
X128630Y35469D01*
X128618Y31855D01*
D02*
G37*
G36*
X303056Y34319D02*
X303043Y34431D01*
X303007Y34532D01*
X302946Y34620D01*
X302863Y34697D01*
X302755Y34762D01*
X302624Y34815D01*
X302469Y34856D01*
X302291Y34886D01*
X302088Y34903D01*
X301862Y34909D01*
Y36091D01*
X302087Y36092D01*
X302937Y36150D01*
X302996Y36169D01*
X303032Y36189D01*
X303044Y36212D01*
X303056Y34319D01*
D02*
G37*
G36*
X240311Y36061D02*
X240432Y35962D01*
X240558Y35875D01*
X240688Y35800D01*
X240823Y35736D01*
X240963Y35684D01*
X241108Y35643D01*
X241257Y35614D01*
X241411Y35596D01*
X241569Y35591D01*
Y34409D01*
X241411Y34404D01*
X241257Y34386D01*
X241108Y34357D01*
X240963Y34317D01*
X240823Y34264D01*
X240688Y34200D01*
X240558Y34125D01*
X240432Y34038D01*
X240311Y33939D01*
X240195Y33829D01*
Y36171D01*
X240311Y36061D01*
D02*
G37*
G36*
X310754Y33383D02*
X310709Y33423D01*
X310648Y33458D01*
X310571Y33489D01*
X310479Y33516D01*
X310370Y33539D01*
X310246Y33557D01*
X309951Y33582D01*
X309592Y33591D01*
X309701Y35559D01*
X309889Y35561D01*
X310481Y35600D01*
X310589Y35618D01*
X310680Y35640D01*
X310756Y35664D01*
X310815Y35692D01*
X310859Y35724D01*
X310754Y33383D01*
D02*
G37*
G36*
X306976Y36088D02*
X307035Y35977D01*
X307134Y35879D01*
X307272Y35794D01*
X307449Y35722D01*
X307665Y35664D01*
X307921Y35618D01*
X308216Y35585D01*
X308925Y35559D01*
Y33591D01*
X308551Y33586D01*
X307665Y33510D01*
X307449Y33465D01*
X307272Y33409D01*
X307134Y33344D01*
X307035Y33268D01*
X306976Y33182D01*
X306957Y33087D01*
Y36212D01*
X306976Y36088D01*
D02*
G37*
G36*
X262234Y33899D02*
X262126Y33783D01*
X262030Y33662D01*
X261945Y33536D01*
X261871Y33405D01*
X261809Y33269D01*
X261759Y33128D01*
X261720Y32983D01*
X261693Y32832D01*
X261677Y32677D01*
X261673Y32517D01*
X260017Y34173D01*
X260177Y34177D01*
X260332Y34193D01*
X260483Y34220D01*
X260628Y34259D01*
X260769Y34309D01*
X260905Y34371D01*
X261036Y34445D01*
X261162Y34530D01*
X261283Y34626D01*
X261399Y34734D01*
X262234Y33899D01*
D02*
G37*
G36*
X145730Y31910D02*
X145623Y32026D01*
X145510Y32129D01*
X145390Y32221D01*
X145265Y32300D01*
X145134Y32367D01*
X144998Y32422D01*
X144855Y32465D01*
X144707Y32495D01*
X144553Y32514D01*
X144393Y32520D01*
X144477Y33701D01*
X144634Y33706D01*
X144788Y33723D01*
X144938Y33750D01*
X145084Y33788D01*
X145227Y33838D01*
X145366Y33898D01*
X145501Y33969D01*
X145633Y34051D01*
X145761Y34144D01*
X145885Y34247D01*
X145730Y31910D01*
D02*
G37*
G36*
X280596Y32647D02*
X280614Y32444D01*
X280644Y32265D01*
X280685Y32110D01*
X280738Y31979D01*
X280803Y31872D01*
X280880Y31788D01*
X280968Y31728D01*
X281069Y31693D01*
X281181Y31681D01*
X278819D01*
X278931Y31693D01*
X279031Y31728D01*
X279120Y31788D01*
X279197Y31872D01*
X279262Y31979D01*
X279315Y32110D01*
X279356Y32265D01*
X279386Y32444D01*
X279403Y32647D01*
X279410Y32874D01*
X280591D01*
X280596Y32647D01*
D02*
G37*
G36*
X275596Y32594D02*
X275611Y32402D01*
X275638Y32233D01*
X275675Y32087D01*
X275722Y31963D01*
X275780Y31861D01*
X275848Y31782D01*
X275926Y31726D01*
X276016Y31692D01*
X276115Y31681D01*
X273885D01*
X273984Y31692D01*
X274074Y31726D01*
X274152Y31782D01*
X274220Y31861D01*
X274278Y31963D01*
X274325Y32087D01*
X274362Y32233D01*
X274389Y32402D01*
X274404Y32594D01*
X274410Y32808D01*
X275590D01*
X275596Y32594D01*
D02*
G37*
G36*
X134326Y33214D02*
X134311Y33130D01*
X134325Y33030D01*
X134366Y32913D01*
X134437Y32779D01*
X134536Y32628D01*
X134663Y32460D01*
X135004Y32073D01*
X135217Y31855D01*
X134382Y31019D01*
X134163Y31232D01*
X133608Y31700D01*
X133457Y31799D01*
X133323Y31870D01*
X133206Y31912D01*
X133106Y31925D01*
X133022Y31910D01*
X132956Y31866D01*
X134370Y33280D01*
X134326Y33214D01*
D02*
G37*
G36*
X297056Y30968D02*
X297044Y31081D01*
X297008Y31181D01*
X296948Y31270D01*
X296865Y31346D01*
X296757Y31411D01*
X296626Y31465D01*
X296471Y31506D01*
X296292Y31535D01*
X296089Y31553D01*
X295862Y31559D01*
Y32740D01*
X296089Y32746D01*
X296292Y32764D01*
X296471Y32793D01*
X296626Y32835D01*
X296757Y32888D01*
X296865Y32953D01*
X296948Y33029D01*
X297008Y33118D01*
X297044Y33219D01*
X297056Y33331D01*
Y30968D01*
D02*
G37*
G36*
X300957Y32569D02*
X300993Y32469D01*
X301053Y32380D01*
X301137Y32303D01*
X301244Y32238D01*
X301376Y32185D01*
X301531Y32144D01*
X301709Y32114D01*
X301911Y32096D01*
X302138Y32091D01*
Y30909D01*
X301913Y30906D01*
X301535Y30880D01*
X301382Y30858D01*
X301252Y30829D01*
X301146Y30793D01*
X301063Y30751D01*
X301004Y30703D01*
X300968Y30648D01*
X300957Y30587D01*
X300944Y32681D01*
X300957Y32569D01*
D02*
G37*
G36*
X311772Y30409D02*
X311547Y30398D01*
X311347Y30362D01*
X311169Y30303D01*
X311016Y30220D01*
X310886Y30114D01*
X310780Y29984D01*
X310697Y29831D01*
X310638Y29654D01*
X310602Y29453D01*
X310591Y29228D01*
X309409D01*
X309405Y29453D01*
X309393Y29654D01*
X309373Y29831D01*
X309344Y29984D01*
X309307Y30114D01*
X309262Y30220D01*
X309209Y30303D01*
X309147Y30362D01*
X309078Y30398D01*
X309000Y30409D01*
X310000Y31591D01*
X311772Y30409D01*
D02*
G37*
G36*
X172096Y30411D02*
X172114Y30257D01*
X172143Y30108D01*
X172184Y29963D01*
X172236Y29823D01*
X172300Y29688D01*
X172375Y29558D01*
X172462Y29432D01*
X172561Y29311D01*
X172671Y29195D01*
X170329D01*
X170439Y29311D01*
X170538Y29432D01*
X170625Y29558D01*
X170700Y29688D01*
X170764Y29823D01*
X170817Y29963D01*
X170857Y30108D01*
X170886Y30257D01*
X170904Y30411D01*
X170909Y30569D01*
X172091D01*
X172096Y30411D01*
D02*
G37*
G36*
X146413Y28048D02*
X146409Y28008D01*
X146402Y27860D01*
X146394Y26860D01*
X145606D01*
X145582Y28064D01*
X146418D01*
X146413Y28048D01*
D02*
G37*
G36*
X90096Y27667D02*
X90114Y27464D01*
X90144Y27285D01*
X90185Y27130D01*
X90238Y26999D01*
X90303Y26891D01*
X90380Y26808D01*
X90469Y26748D01*
X90569Y26712D01*
X90681Y26700D01*
X88319D01*
X88431Y26712D01*
X88532Y26748D01*
X88620Y26808D01*
X88697Y26891D01*
X88762Y26999D01*
X88815Y27130D01*
X88856Y27285D01*
X88886Y27464D01*
X88903Y27667D01*
X88910Y27893D01*
X90091D01*
X90096Y27667D01*
D02*
G37*
G36*
X134918Y28274D02*
X134954Y28173D01*
X135014Y28085D01*
X135098Y28008D01*
X135205Y27943D01*
X135336Y27890D01*
X135491Y27848D01*
X135670Y27819D01*
X135872Y27801D01*
X136098Y27795D01*
Y26614D01*
X135874Y26610D01*
X135496Y26580D01*
X135342Y26553D01*
X135212Y26519D01*
X135106Y26477D01*
X135023Y26427D01*
X134964Y26370D01*
X134929Y26305D01*
X134917Y26232D01*
X134905Y28386D01*
X134918Y28274D01*
D02*
G37*
G36*
X131083Y26232D02*
X131058Y26254D01*
X130985Y26274D01*
X130862Y26292D01*
X130690Y26307D01*
X129512Y26344D01*
X128628Y26348D01*
Y28907D01*
X129094Y28911D01*
X130469Y29000D01*
X130690Y29041D01*
X130862Y29090D01*
X130985Y29146D01*
X131058Y29209D01*
X131083Y29279D01*
Y26232D01*
D02*
G37*
G36*
X150500Y26909D02*
X150486Y26901D01*
X150455Y26876D01*
X150345Y26776D01*
X149632Y26075D01*
X149075Y26632D01*
X149909Y27500D01*
X150500Y26909D01*
D02*
G37*
G36*
X268744Y25819D02*
X268733Y25931D01*
X268697Y26032D01*
X268637Y26120D01*
X268554Y26197D01*
X268446Y26262D01*
X268315Y26315D01*
X268160Y26356D01*
X267981Y26386D01*
X267778Y26403D01*
X267551Y26409D01*
Y27591D01*
X267778Y27597D01*
X267981Y27614D01*
X268160Y27644D01*
X268315Y27685D01*
X268446Y27738D01*
X268554Y27803D01*
X268637Y27880D01*
X268697Y27968D01*
X268733Y28069D01*
X268744Y28181D01*
Y25819D01*
D02*
G37*
G36*
X152500Y26409D02*
X152486Y26401D01*
X152455Y26376D01*
X152345Y26276D01*
X151632Y25575D01*
X151075Y26132D01*
X151909Y27000D01*
X152500Y26409D01*
D02*
G37*
G36*
X291279Y27069D02*
X291315Y26969D01*
X291374Y26880D01*
X291457Y26803D01*
X291563Y26738D01*
X291620Y26715D01*
X291677Y26736D01*
X291812Y26800D01*
X291942Y26875D01*
X292068Y26962D01*
X292189Y27061D01*
X292305Y27171D01*
Y26594D01*
X292449Y26591D01*
Y25409D01*
X292305Y25406D01*
Y24829D01*
X292189Y24939D01*
X292068Y25038D01*
X291942Y25125D01*
X291812Y25200D01*
X291677Y25264D01*
X291620Y25285D01*
X291563Y25262D01*
X291457Y25197D01*
X291374Y25120D01*
X291315Y25032D01*
X291279Y24931D01*
X291267Y24819D01*
Y25381D01*
X291243Y25386D01*
X291089Y25404D01*
X290931Y25409D01*
Y26591D01*
X291089Y26596D01*
X291243Y26614D01*
X291267Y26618D01*
Y27181D01*
X291279Y27069D01*
D02*
G37*
G36*
X306828Y26762D02*
X306713Y26685D01*
X306611Y26557D01*
X306523Y26378D01*
X306449Y26148D01*
X306388Y25866D01*
X306341Y25534D01*
X306307Y25150D01*
X306279Y24228D01*
X303720D01*
X303714Y24715D01*
X303612Y25866D01*
X303551Y26148D01*
X303477Y26378D01*
X303389Y26557D01*
X303287Y26685D01*
X303172Y26762D01*
X303044Y26788D01*
X306957D01*
X306828Y26762D01*
D02*
G37*
G36*
X98456Y26219D02*
X98492Y26118D01*
X98552Y26030D01*
X98635Y25953D01*
X98743Y25888D01*
X98874Y25835D01*
X99029Y25793D01*
X99208Y25764D01*
X99411Y25746D01*
X99638Y25740D01*
Y24559D01*
X99411Y24553D01*
X99208Y24535D01*
X99029Y24506D01*
X98874Y24465D01*
X98743Y24411D01*
X98635Y24347D01*
X98552Y24270D01*
X98492Y24181D01*
X98456Y24081D01*
X98444Y23968D01*
Y26331D01*
X98456Y26219D01*
D02*
G37*
G36*
X131083Y20721D02*
X131063Y20847D01*
X131004Y20961D01*
X130906Y21061D01*
X130768Y21148D01*
X130591Y21221D01*
X130374Y21281D01*
X130118Y21328D01*
X129981Y21343D01*
X129867Y21335D01*
X129776Y21316D01*
X129702Y21294D01*
X129644Y21269D01*
X129602Y21241D01*
X129612Y21374D01*
X129488Y21381D01*
X129114Y21388D01*
Y23356D01*
X129488Y23360D01*
X129766Y23380D01*
X129781Y23576D01*
X129826Y23535D01*
X129887Y23497D01*
X129963Y23464D01*
X130055Y23436D01*
X130164Y23411D01*
X130181Y23409D01*
X130374Y23422D01*
X130591Y23459D01*
X130768Y23504D01*
X130906Y23558D01*
X131004Y23619D01*
X131063Y23689D01*
X131083Y23767D01*
Y20721D01*
D02*
G37*
G36*
X134917Y23441D02*
X134953Y23340D01*
X135012Y23252D01*
X135096Y23175D01*
X135203Y23110D01*
X135335Y23057D01*
X135490Y23016D01*
X135669Y22986D01*
X135872Y22968D01*
X136098Y22963D01*
Y21781D01*
X135872Y21776D01*
X135669Y21758D01*
X135490Y21728D01*
X135335Y21687D01*
X135203Y21634D01*
X135096Y21569D01*
X135012Y21492D01*
X134953Y21404D01*
X134917Y21303D01*
X134905Y21191D01*
Y21744D01*
X133568Y21676D01*
Y23068D01*
X133607Y23048D01*
X133684Y23030D01*
X133798Y23015D01*
X134136Y22989D01*
X134905Y22975D01*
Y23553D01*
X134917Y23441D01*
D02*
G37*
G36*
X140434Y23413D02*
X140473Y23409D01*
X140622Y23402D01*
X141621Y23394D01*
Y22606D01*
X140417Y22582D01*
Y23418D01*
X140434Y23413D01*
D02*
G37*
G36*
X125328Y25065D02*
X125213Y24988D01*
X125111Y24860D01*
X125023Y24681D01*
X124949Y24451D01*
X124888Y24170D01*
X124840Y23837D01*
X124807Y23453D01*
X124779Y22532D01*
X122221D01*
X122214Y23018D01*
X122112Y24170D01*
X122051Y24451D01*
X121977Y24681D01*
X121889Y24860D01*
X121787Y24988D01*
X121672Y25065D01*
X121544Y25091D01*
X125457D01*
X125328Y25065D01*
D02*
G37*
G36*
X207979Y22174D02*
X207847Y22270D01*
X207713Y22355D01*
X207575Y22431D01*
X207435Y22496D01*
X207293Y22551D01*
X207147Y22597D01*
X206999Y22632D01*
X206849Y22657D01*
X206695Y22672D01*
X206539Y22677D01*
X206362Y23858D01*
X206523Y23865D01*
X206677Y23884D01*
X206824Y23915D01*
X206963Y23960D01*
X207096Y24017D01*
X207222Y24087D01*
X207341Y24170D01*
X207452Y24265D01*
X207557Y24373D01*
X207654Y24494D01*
X207979Y22174D01*
D02*
G37*
G36*
X300828Y24262D02*
X300713Y24185D01*
X300611Y24057D01*
X300523Y23878D01*
X300449Y23648D01*
X300388Y23366D01*
X300341Y23034D01*
X300307Y22650D01*
X300279Y21729D01*
X297721D01*
X297714Y22215D01*
X297612Y23366D01*
X297551Y23648D01*
X297477Y23878D01*
X297389Y24057D01*
X297287Y24185D01*
X297172Y24262D01*
X297043Y24288D01*
X300957D01*
X300828Y24262D01*
D02*
G37*
G36*
X227925Y22392D02*
X227969Y22370D01*
X228031Y22351D01*
X228110Y22334D01*
X228207Y22320D01*
X228455Y22299D01*
X228959Y22287D01*
Y20713D01*
X228773Y20711D01*
X228110Y20666D01*
X228031Y20649D01*
X227969Y20629D01*
X227925Y20607D01*
X227899Y20583D01*
Y22417D01*
X227925Y22392D01*
D02*
G37*
G36*
X141306Y21285D02*
X141346Y21281D01*
X141494Y21275D01*
X142494Y21266D01*
Y20479D01*
X141290Y20454D01*
Y21290D01*
X141306Y21285D01*
D02*
G37*
G36*
X153428Y20882D02*
X153302Y20840D01*
X153189Y20785D01*
X153089Y20715D01*
X153003Y20631D01*
X152930Y20534D01*
X152870Y20423D01*
X152824Y20298D01*
X152790Y20159D01*
X152770Y20006D01*
X152764Y19840D01*
X151583Y20041D01*
X151581Y20316D01*
X151499Y21583D01*
X151474Y21731D01*
X151412Y21972D01*
X153428Y20882D01*
D02*
G37*
G36*
X235242Y19737D02*
X235269Y19420D01*
X235286Y19342D01*
X235306Y19279D01*
X235329Y19229D01*
X235356Y19194D01*
X235387Y19172D01*
X235421Y19165D01*
X234225Y19177D01*
X234222Y19184D01*
X234220Y19205D01*
X234217Y19288D01*
X234213Y19871D01*
X235241D01*
X235242Y19737D01*
D02*
G37*
G36*
X233216Y19177D02*
X232020Y19165D01*
X232054Y19172D01*
X232085Y19194D01*
X232112Y19229D01*
X232135Y19279D01*
X232155Y19342D01*
X232172Y19420D01*
X232184Y19512D01*
X232199Y19737D01*
X232200Y19871D01*
X233228D01*
X233216Y19177D01*
D02*
G37*
G36*
X186805Y20270D02*
X186883Y20292D01*
X187011Y20346D01*
X187096Y20405D01*
Y18595D01*
X187011Y18654D01*
X186883Y18708D01*
X186805Y18730D01*
Y18329D01*
X186689Y18439D01*
X186568Y18538D01*
X186442Y18625D01*
X186312Y18700D01*
X186177Y18764D01*
X186037Y18816D01*
X185892Y18857D01*
X185886Y18858D01*
X185596Y18881D01*
X184306Y18910D01*
Y20090D01*
X184779Y20094D01*
X185995Y20172D01*
X186037Y20184D01*
X186177Y20236D01*
X186312Y20300D01*
X186442Y20375D01*
X186568Y20462D01*
X186689Y20561D01*
X186805Y20671D01*
Y20270D01*
D02*
G37*
G36*
X310596Y19092D02*
X310614Y18889D01*
X310644Y18710D01*
X310685Y18555D01*
X310738Y18424D01*
X310803Y18316D01*
X310880Y18233D01*
X310968Y18173D01*
X311069Y18137D01*
X311181Y18126D01*
X308819D01*
X308931Y18137D01*
X309032Y18173D01*
X309120Y18233D01*
X309197Y18316D01*
X309262Y18424D01*
X309315Y18555D01*
X309356Y18710D01*
X309386Y18889D01*
X309403Y19092D01*
X309409Y19319D01*
X310591D01*
X310596Y19092D01*
D02*
G37*
G36*
X199305Y21296D02*
X199382Y21188D01*
X199510Y21092D01*
X199689Y21009D01*
X199919Y20939D01*
X200201Y20881D01*
X200533Y20837D01*
X201352Y20786D01*
X201838Y20779D01*
Y18221D01*
X201352Y18214D01*
X200201Y18119D01*
X199919Y18061D01*
X199689Y17991D01*
X199510Y17908D01*
X199382Y17812D01*
X199305Y17704D01*
X199279Y17583D01*
Y21417D01*
X199305Y21296D01*
D02*
G37*
G36*
X197903Y17583D02*
X197811Y17650D01*
X197702Y17683D01*
X197577D01*
X197435Y17650D01*
X197276Y17583D01*
X197101Y17483D01*
X196909Y17349D01*
X196700Y17182D01*
X196232Y16748D01*
X195397Y17583D01*
X195631Y17825D01*
X195999Y18259D01*
X196132Y18451D01*
X196232Y18627D01*
X196299Y18786D01*
X196333Y18927D01*
Y19053D01*
X196299Y19161D01*
X196232Y19253D01*
X197903Y17583D01*
D02*
G37*
G36*
X190721D02*
X190695Y17704D01*
X190618Y17812D01*
X190490Y17908D01*
X190311Y17991D01*
X190081Y18061D01*
X189799Y18119D01*
X189467Y18163D01*
X188648Y18214D01*
X188162Y18221D01*
Y20779D01*
X188648Y20786D01*
X189799Y20881D01*
X190081Y20939D01*
X190311Y21009D01*
X190490Y21092D01*
X190618Y21188D01*
X190695Y21296D01*
X190721Y21417D01*
Y17583D01*
D02*
G37*
G36*
X144138Y18081D02*
X144048Y17980D01*
X143967Y17866D01*
X143896Y17741D01*
X143835Y17603D01*
X143784Y17452D01*
X143742Y17290D01*
X143710Y17115D01*
X143688Y16928D01*
X143676Y16728D01*
X143673Y16517D01*
X142017Y18173D01*
X142228Y18176D01*
X142615Y18210D01*
X142790Y18242D01*
X142952Y18284D01*
X143103Y18335D01*
X143241Y18396D01*
X143367Y18467D01*
X143480Y18548D01*
X143581Y18638D01*
X144138Y18081D01*
D02*
G37*
G36*
X97569Y17276D02*
X97469Y17240D01*
X97380Y17181D01*
X97303Y17099D01*
X97238Y16992D01*
X97185Y16862D01*
X97144Y16709D01*
X97114Y16532D01*
X97097Y16331D01*
X97091Y16106D01*
X95910D01*
X95903Y16331D01*
X95886Y16532D01*
X95856Y16709D01*
X95815Y16862D01*
X95762Y16992D01*
X95697Y17099D01*
X95620Y17181D01*
X95531Y17240D01*
X95431Y17276D01*
X95319Y17288D01*
X97681D01*
X97569Y17276D01*
D02*
G37*
G36*
X90569D02*
X90469Y17240D01*
X90380Y17181D01*
X90303Y17099D01*
X90238Y16992D01*
X90185Y16862D01*
X90144Y16709D01*
X90114Y16532D01*
X90096Y16331D01*
X90091Y16106D01*
X88910D01*
X88903Y16331D01*
X88886Y16532D01*
X88856Y16709D01*
X88815Y16862D01*
X88762Y16992D01*
X88697Y17099D01*
X88620Y17181D01*
X88532Y17240D01*
X88431Y17276D01*
X88319Y17288D01*
X90681D01*
X90569Y17276D01*
D02*
G37*
G36*
X178338Y17069D02*
X178374Y16969D01*
X178434Y16880D01*
X178517Y16803D01*
X178625Y16738D01*
X178756Y16685D01*
X178911Y16644D01*
X179090Y16614D01*
X179293Y16597D01*
X179519Y16590D01*
Y15409D01*
X179293Y15404D01*
X179090Y15386D01*
X178911Y15356D01*
X178756Y15315D01*
X178625Y15262D01*
X178517Y15197D01*
X178434Y15120D01*
X178374Y15032D01*
X178338Y14931D01*
X178326Y14819D01*
Y17181D01*
X178338Y17069D01*
D02*
G37*
G36*
X260540Y12415D02*
X260524Y12565D01*
X260476Y12699D01*
X260397Y12817D01*
X260286Y12919D01*
X260143Y13006D01*
X259968Y13077D01*
X259762Y13132D01*
X259524Y13171D01*
X259255Y13195D01*
X258977Y13169D01*
X258833Y13142D01*
X258699Y13107D01*
X258575Y13066D01*
X258463Y13016D01*
X258360Y12959D01*
X258269Y12894D01*
X258188Y12822D01*
X258202Y15164D01*
X258282Y15091D01*
X258373Y15025D01*
X258475Y14967D01*
X258587Y14917D01*
X258710Y14874D01*
X258844Y14839D01*
X258988Y14812D01*
X259143Y14793D01*
X259253Y14785D01*
X259254Y14785D01*
X259524Y14809D01*
X259762Y14848D01*
X259968Y14904D01*
X260143Y14974D01*
X260286Y15061D01*
X260397Y15163D01*
X260476Y15281D01*
X260524Y15415D01*
X260540Y15565D01*
Y12415D01*
D02*
G37*
G36*
X104096Y14898D02*
X104111Y14710D01*
X104136Y14545D01*
X104171Y14401D01*
X104216Y14280D01*
X104271Y14180D01*
X104337Y14103D01*
X104412Y14048D01*
X104497Y14015D01*
X104593Y14004D01*
X102407D01*
X102503Y14015D01*
X102588Y14048D01*
X102664Y14103D01*
X102729Y14180D01*
X102784Y14280D01*
X102829Y14401D01*
X102864Y14545D01*
X102889Y14710D01*
X102904Y14898D01*
X102909Y15108D01*
X104091D01*
X104096Y14898D01*
D02*
G37*
G36*
X97097Y14970D02*
X97114Y14767D01*
X97144Y14588D01*
X97185Y14433D01*
X97238Y14302D01*
X97303Y14195D01*
X97380Y14111D01*
X97469Y14051D01*
X97569Y14016D01*
X97681Y14004D01*
X95319D01*
X95431Y14016D01*
X95531Y14051D01*
X95620Y14111D01*
X95697Y14195D01*
X95762Y14302D01*
X95815Y14433D01*
X95856Y14588D01*
X95886Y14767D01*
X95903Y14970D01*
X95910Y15197D01*
X97091D01*
X97097Y14970D01*
D02*
G37*
G36*
X90096D02*
X90114Y14767D01*
X90144Y14588D01*
X90185Y14433D01*
X90238Y14302D01*
X90303Y14195D01*
X90380Y14111D01*
X90469Y14051D01*
X90569Y14016D01*
X90681Y14004D01*
X88319D01*
X88431Y14016D01*
X88532Y14051D01*
X88620Y14111D01*
X88697Y14195D01*
X88762Y14302D01*
X88815Y14433D01*
X88856Y14588D01*
X88886Y14767D01*
X88903Y14970D01*
X88910Y15197D01*
X90091D01*
X90096Y14970D01*
D02*
G37*
G36*
X174376Y14508D02*
X174354Y14477D01*
X174335Y14425D01*
X174318Y14353D01*
X174303Y14261D01*
X174282Y14014D01*
X174272Y13685D01*
X174270Y13490D01*
X173242D01*
X173252Y14518D01*
X174401D01*
X174376Y14508D01*
D02*
G37*
G36*
X172435D02*
X172436Y14477D01*
X172442Y13490D01*
X171414D01*
X171413Y13685D01*
X171367Y14353D01*
X171350Y14425D01*
X171331Y14477D01*
X171309Y14508D01*
X171284Y14518D01*
X172433D01*
X172435Y14508D01*
D02*
G37*
G36*
X166549Y13411D02*
X166567Y13209D01*
X166596Y13031D01*
X166638Y12876D01*
X166691Y12744D01*
X166756Y12637D01*
X166833Y12553D01*
X166921Y12493D01*
X167022Y12457D01*
X167134Y12444D01*
X165087Y12456D01*
X165139Y12468D01*
X165186Y12504D01*
X165227Y12563D01*
X165263Y12645D01*
X165293Y12752D01*
X165318Y12882D01*
X165337Y13035D01*
X165359Y13413D01*
X165362Y13638D01*
X166543D01*
X166549Y13411D01*
D02*
G37*
G36*
X205868Y14171D02*
X205900Y14083D01*
X205951Y14006D01*
X206024Y13939D01*
X206118Y13883D01*
X206232Y13836D01*
X206367Y13800D01*
X206523Y13775D01*
X206700Y13759D01*
X206898Y13754D01*
Y12726D01*
X206700Y12721D01*
X206523Y12706D01*
X206367Y12680D01*
X206232Y12644D01*
X206118Y12598D01*
X206024Y12541D01*
X205951Y12474D01*
X205900Y12397D01*
X205868Y12310D01*
X205858Y12212D01*
Y14268D01*
X205868Y14171D01*
D02*
G37*
G36*
X191142Y12212D02*
X191132Y12310D01*
X191101Y12397D01*
X191049Y12474D01*
X190976Y12541D01*
X190882Y12598D01*
X190768Y12644D01*
X190632Y12680D01*
X190477Y12706D01*
X190300Y12721D01*
X190102Y12726D01*
Y13754D01*
X190300Y13759D01*
X190477Y13775D01*
X190632Y13800D01*
X190768Y13836D01*
X190882Y13883D01*
X190976Y13939D01*
X191049Y14006D01*
X191101Y14083D01*
X191132Y14171D01*
X191142Y14268D01*
Y12212D01*
D02*
G37*
G36*
X126212Y14069D02*
X126248Y13969D01*
X126308Y13880D01*
X126391Y13803D01*
X126499Y13738D01*
X126630Y13685D01*
X126785Y13644D01*
X126964Y13614D01*
X127167Y13597D01*
X127393Y13590D01*
Y12409D01*
X127167Y12404D01*
X126964Y12386D01*
X126785Y12356D01*
X126630Y12315D01*
X126499Y12262D01*
X126391Y12197D01*
X126308Y12120D01*
X126248Y12032D01*
X126212Y11931D01*
X126200Y11819D01*
Y14181D01*
X126212Y14069D01*
D02*
G37*
G36*
X116788Y11819D02*
X116776Y11931D01*
X116740Y12032D01*
X116681Y12120D01*
X116599Y12197D01*
X116492Y12262D01*
X116362Y12315D01*
X116209Y12356D01*
X116032Y12386D01*
X115831Y12404D01*
X115606Y12409D01*
Y13590D01*
X115831Y13597D01*
X116032Y13614D01*
X116209Y13644D01*
X116362Y13685D01*
X116492Y13738D01*
X116599Y13803D01*
X116681Y13880D01*
X116740Y13969D01*
X116776Y14069D01*
X116788Y14181D01*
Y11819D01*
D02*
G37*
G36*
X112070Y13169D02*
X112093Y13142D01*
X112130Y13119D01*
X112182Y13099D01*
X112249Y13082D01*
X112331Y13068D01*
X112428Y13057D01*
X112666Y13045D01*
X112808Y13043D01*
Y11862D01*
X112666Y11861D01*
X112331Y11837D01*
X112249Y11823D01*
X112182Y11806D01*
X112130Y11786D01*
X112093Y11763D01*
X112070Y11737D01*
X112063Y11707D01*
Y13198D01*
X112070Y13169D01*
D02*
G37*
G36*
X150802Y12989D02*
X150821Y12835D01*
X150854Y12689D01*
X150899Y12551D01*
X150957Y12420D01*
X151028Y12297D01*
X151112Y12182D01*
X151209Y12075D01*
X151319Y11975D01*
X151442Y11883D01*
X149136Y11469D01*
X149227Y11605D01*
X149308Y11743D01*
X149380Y11883D01*
X149442Y12025D01*
X149495Y12169D01*
X149538Y12316D01*
X149571Y12464D01*
X149595Y12615D01*
X149609Y12768D01*
X149614Y12923D01*
X150795Y13151D01*
X150802Y12989D01*
D02*
G37*
G36*
X268744Y10768D02*
X268722Y10949D01*
X268655Y11111D01*
X268543Y11253D01*
X268385Y11377D01*
X268183Y11482D01*
X267936Y11568D01*
X267645Y11635D01*
X267308Y11682D01*
X266927Y11711D01*
X266500Y11721D01*
Y14279D01*
X266927Y14289D01*
X267308Y14318D01*
X267645Y14365D01*
X267936Y14432D01*
X268183Y14518D01*
X268385Y14623D01*
X268543Y14747D01*
X268655Y14889D01*
X268722Y15051D01*
X268744Y15233D01*
Y10768D01*
D02*
G37*
G36*
X207305Y8329D02*
X207189Y8439D01*
X207068Y8538D01*
X206942Y8625D01*
X206812Y8700D01*
X206677Y8764D01*
X206537Y8817D01*
X206419Y8850D01*
X206295Y8817D01*
X206165Y8765D01*
X206059Y8701D01*
X205976Y8626D01*
X205917Y8539D01*
X205882Y8441D01*
X205870Y8331D01*
Y10669D01*
X205882Y10559D01*
X205917Y10461D01*
X205976Y10374D01*
X206059Y10299D01*
X206165Y10235D01*
X206295Y10183D01*
X206419Y10150D01*
X206537Y10183D01*
X206677Y10236D01*
X206812Y10300D01*
X206942Y10375D01*
X207068Y10462D01*
X207189Y10561D01*
X207305Y10671D01*
Y8329D01*
D02*
G37*
G36*
X158800Y9212D02*
X158787Y9214D01*
X158748Y9215D01*
X157500Y9221D01*
Y11779D01*
X158800Y11788D01*
Y9212D01*
D02*
G37*
G36*
X189737Y10639D02*
X189795Y10610D01*
X189869Y10584D01*
X189960Y10562D01*
X190067Y10543D01*
X190082Y10541D01*
X191050Y10608D01*
X191110Y10637D01*
X191130Y10669D01*
Y8331D01*
X191110Y8363D01*
X191050Y8392D01*
X190950Y8417D01*
X190810Y8439D01*
X190630Y8458D01*
X190294Y8473D01*
X190067Y8457D01*
X189960Y8438D01*
X189869Y8416D01*
X189795Y8390D01*
X189737Y8361D01*
X189695Y8329D01*
Y8495D01*
X189130Y8500D01*
Y10500D01*
X189510Y10502D01*
X189695Y10514D01*
Y10671D01*
X189737Y10639D01*
D02*
G37*
G36*
X171077Y9418D02*
X171094Y9264D01*
X171124Y9115D01*
X171165Y8971D01*
X171217Y8831D01*
X171282Y8697D01*
X171358Y8568D01*
X171446Y8443D01*
X171546Y8323D01*
X171657Y8209D01*
X169315Y8181D01*
X169424Y8299D01*
X169522Y8421D01*
X169608Y8548D01*
X169683Y8679D01*
X169746Y8815D01*
X169798Y8955D01*
X169838Y9100D01*
X169867Y9250D01*
X169884Y9403D01*
X169890Y9562D01*
X171071Y9577D01*
X171077Y9418D01*
D02*
G37*
G36*
X127048Y7579D02*
X126829Y7352D01*
X126482Y6939D01*
X126353Y6752D01*
X126253Y6578D01*
X126183Y6418D01*
X126143Y6271D01*
X126133Y6137D01*
X126152Y6016D01*
X126200Y5908D01*
X124920Y7944D01*
X124994Y7862D01*
X125089Y7817D01*
X125204Y7808D01*
X125340Y7837D01*
X125496Y7904D01*
X125674Y8007D01*
X125872Y8147D01*
X126091Y8325D01*
X126590Y8792D01*
X127048Y7579D01*
D02*
G37*
G36*
X166954Y8544D02*
X166874Y8512D01*
X166803Y8458D01*
X166742Y8382D01*
X166690Y8286D01*
X166648Y8168D01*
X166614Y8028D01*
X166591Y7867D01*
X166577Y7685D01*
X166572Y7481D01*
X165391D01*
X165388Y7683D01*
X165364Y8023D01*
X165342Y8161D01*
X165315Y8278D01*
X165281Y8374D01*
X165242Y8448D01*
X165196Y8501D01*
X165145Y8533D01*
X165087Y8544D01*
X167043Y8556D01*
X166954Y8544D01*
D02*
G37*
G36*
X276213Y7288D02*
X276164Y7228D01*
X276121Y7130D01*
X276083Y6992D01*
X276052Y6815D01*
X276026Y6599D01*
X276008Y6315D01*
X276026Y6074D01*
X276047Y5966D01*
X276071Y5873D01*
X276099Y5797D01*
X276130Y5736D01*
X276166Y5692D01*
X275986Y5692D01*
X275980Y5339D01*
X274011D01*
X274009Y5697D01*
X273823Y5698D01*
X273859Y5743D01*
X273891Y5803D01*
X273919Y5880D01*
X273944Y5972D01*
X273964Y6080D01*
X273979Y6192D01*
X273942Y6815D01*
X273911Y6992D01*
X273875Y7130D01*
X273833Y7228D01*
X273785Y7288D01*
X273732Y7307D01*
X276268D01*
X276213Y7288D01*
D02*
G37*
G36*
X291214D02*
X291165Y7228D01*
X291123Y7130D01*
X291086Y6992D01*
X291055Y6815D01*
X291030Y6599D01*
X291013Y6322D01*
X291031Y6077D01*
X291052Y5969D01*
X291076Y5877D01*
X291104Y5800D01*
X291136Y5740D01*
X291171Y5695D01*
X290990D01*
X290984Y5339D01*
X289016D01*
X289013Y5695D01*
X288829D01*
X288864Y5740D01*
X288896Y5800D01*
X288924Y5877D01*
X288948Y5969D01*
X288969Y6077D01*
X288984Y6186D01*
X288945Y6815D01*
X288914Y6992D01*
X288877Y7130D01*
X288835Y7228D01*
X288786Y7288D01*
X288733Y7307D01*
X291267D01*
X291214Y7288D01*
D02*
G37*
G36*
X281214D02*
X281166Y7228D01*
X281123Y7130D01*
X281086Y6992D01*
X281055Y6815D01*
X281030Y6599D01*
X281013Y6322D01*
X281031Y6077D01*
X281052Y5969D01*
X281076Y5877D01*
X281104Y5800D01*
X281136Y5740D01*
X281171Y5695D01*
X280990D01*
X280984Y5339D01*
X279016D01*
X279013Y5695D01*
X278829D01*
X278864Y5740D01*
X278896Y5800D01*
X278924Y5877D01*
X278948Y5969D01*
X278969Y6077D01*
X278984Y6186D01*
X278945Y6815D01*
X278914Y6992D01*
X278877Y7130D01*
X278835Y7228D01*
X278786Y7288D01*
X278732Y7307D01*
X281267D01*
X281214Y7288D01*
D02*
G37*
G36*
X116788Y4819D02*
X116776Y4931D01*
X116740Y5032D01*
X116681Y5120D01*
X116599Y5197D01*
X116492Y5262D01*
X116362Y5315D01*
X116209Y5356D01*
X116032Y5386D01*
X115831Y5404D01*
X115606Y5409D01*
Y6591D01*
X115831Y6596D01*
X116032Y6614D01*
X116209Y6644D01*
X116362Y6685D01*
X116492Y6738D01*
X116599Y6803D01*
X116681Y6880D01*
X116740Y6968D01*
X116776Y7069D01*
X116788Y7181D01*
Y4819D01*
D02*
G37*
G36*
X205868Y6690D02*
X205900Y6603D01*
X205951Y6526D01*
X206024Y6459D01*
X206118Y6402D01*
X206232Y6356D01*
X206367Y6320D01*
X206523Y6294D01*
X206700Y6279D01*
X206898Y6274D01*
Y5246D01*
X206700Y5241D01*
X206523Y5225D01*
X206367Y5200D01*
X206232Y5164D01*
X206118Y5117D01*
X206024Y5061D01*
X205951Y4994D01*
X205900Y4917D01*
X205868Y4829D01*
X205858Y4732D01*
Y6788D01*
X205868Y6690D01*
D02*
G37*
G36*
X191142Y4732D02*
X191132Y4829D01*
X191101Y4917D01*
X191049Y4994D01*
X190976Y5061D01*
X190882Y5117D01*
X190768Y5164D01*
X190632Y5200D01*
X190477Y5225D01*
X190300Y5241D01*
X190102Y5246D01*
Y6274D01*
X190300Y6279D01*
X190477Y6294D01*
X190632Y6320D01*
X190768Y6356D01*
X190882Y6402D01*
X190976Y6459D01*
X191049Y6526D01*
X191101Y6603D01*
X191132Y6690D01*
X191142Y6788D01*
Y4732D01*
D02*
G37*
G36*
X132605Y6481D02*
X132594Y6335D01*
X132597Y6192D01*
X132616Y6053D01*
X132650Y5916D01*
X132700Y5784D01*
X132764Y5654D01*
X132844Y5528D01*
X132939Y5406D01*
X133049Y5286D01*
X132019Y4646D01*
X131907Y4752D01*
X131789Y4850D01*
X131666Y4941D01*
X131538Y5024D01*
X131405Y5099D01*
X131267Y5167D01*
X131124Y5227D01*
X130975Y5279D01*
X130822Y5324D01*
X130663Y5361D01*
X132632Y6630D01*
X132605Y6481D01*
D02*
G37*
G36*
X262490Y6613D02*
X262543Y6463D01*
X262632Y6330D01*
X262756Y6215D01*
X262915Y6117D01*
X263110Y6037D01*
X263340Y5975D01*
X263606Y5931D01*
X263883Y5907D01*
X264092Y5921D01*
X264235Y5941D01*
X264365Y5966D01*
X264481Y5997D01*
X264584Y6034D01*
X264673Y6076D01*
X264749Y6125D01*
X264812Y6178D01*
X264798Y3836D01*
X264736Y3891D01*
X264660Y3940D01*
X264570Y3983D01*
X264468Y4020D01*
X264352Y4052D01*
X264222Y4078D01*
X264079Y4098D01*
X263876Y4112D01*
X263606Y4089D01*
X263340Y4044D01*
X263110Y3982D01*
X262915Y3903D01*
X262756Y3805D01*
X262632Y3690D01*
X262543Y3557D01*
X262490Y3407D01*
X262472Y3238D01*
Y6781D01*
X262490Y6613D01*
D02*
G37*
G36*
X10840Y48240D02*
Y45872D01*
X15380D01*
Y48240D01*
X53760Y48240D01*
Y48000D01*
X71500D01*
Y41622D01*
X71789Y41544D01*
X72174Y41480D01*
X72610Y41442D01*
X73098Y41429D01*
Y38870D01*
X72612Y38867D01*
X71500Y38789D01*
Y34000D01*
X68000Y30500D01*
X57500D01*
X57500Y20500D01*
X52500D01*
Y16649D01*
X52412Y15984D01*
Y14016D01*
X52500Y13351D01*
Y1606D01*
X14122D01*
X12381Y1835D01*
X10685Y2289D01*
X9063Y2961D01*
X7542Y3839D01*
X6149Y4908D01*
X4908Y6149D01*
X3839Y7542D01*
X2961Y9063D01*
X2289Y10685D01*
X1835Y12381D01*
X1606Y14122D01*
Y15000D01*
Y48240D01*
X10840D01*
D02*
G37*
%LPC*%
G36*
X375000Y217249D02*
X373084Y217098D01*
X371215Y216649D01*
X369439Y215914D01*
X367800Y214910D01*
X366339Y213661D01*
X365090Y212200D01*
X364086Y210561D01*
X363351Y208785D01*
X362902Y206916D01*
X362751Y205000D01*
X362902Y203084D01*
X363351Y201215D01*
X364086Y199439D01*
X365090Y197800D01*
X366339Y196339D01*
X367800Y195090D01*
X369439Y194086D01*
X371215Y193351D01*
X373084Y192902D01*
X375000Y192751D01*
X376916Y192902D01*
X378785Y193351D01*
X380561Y194086D01*
X382200Y195090D01*
X383661Y196339D01*
X384910Y197800D01*
X385914Y199439D01*
X386649Y201215D01*
X387098Y203084D01*
X387249Y205000D01*
X387098Y206916D01*
X386649Y208785D01*
X385914Y210561D01*
X384910Y212200D01*
X383661Y213661D01*
X382200Y214910D01*
X380561Y215914D01*
X378785Y216649D01*
X376916Y217098D01*
X375000Y217249D01*
D02*
G37*
G36*
X233786Y172428D02*
X228261D01*
Y162966D01*
X233786D01*
Y172428D01*
D02*
G37*
G36*
X143786D02*
X138261D01*
Y162966D01*
X143786D01*
Y172428D01*
D02*
G37*
G36*
X233786Y119928D02*
X228261D01*
Y110466D01*
X233786D01*
Y119928D01*
D02*
G37*
G36*
X143786D02*
X138261D01*
Y110466D01*
X143786D01*
Y119928D01*
D02*
G37*
G36*
X15000Y217249D02*
X13084Y217098D01*
X11215Y216649D01*
X9439Y215914D01*
X7800Y214910D01*
X6339Y213661D01*
X5091Y212200D01*
X4086Y210561D01*
X3351Y208785D01*
X2902Y206916D01*
X2751Y205000D01*
X2902Y203084D01*
X3351Y201215D01*
X4086Y199439D01*
X5091Y197800D01*
X6339Y196339D01*
X7800Y195090D01*
X9439Y194086D01*
X11215Y193351D01*
X13084Y192902D01*
X15000Y192751D01*
X16916Y192902D01*
X18785Y193351D01*
X20561Y194086D01*
X22200Y195090D01*
X23661Y196339D01*
X24909Y197800D01*
X25914Y199439D01*
X26649Y201215D01*
X27098Y203084D01*
X27249Y205000D01*
X27098Y206916D01*
X26649Y208785D01*
X25914Y210561D01*
X24909Y212200D01*
X23661Y213661D01*
X22200Y214910D01*
X20561Y215914D01*
X18785Y216649D01*
X16916Y217098D01*
X15000Y217249D01*
D02*
G37*
G36*
X34265Y42735D02*
X33884D01*
X33765Y42735D01*
X31116D01*
Y38195D01*
X33776D01*
X33837Y38170D01*
X34173Y37883D01*
X34168Y37779D01*
X34126Y37384D01*
X33433Y36921D01*
X32953Y36202D01*
X32784Y35354D01*
X32953Y34506D01*
X33433Y33788D01*
X34152Y33307D01*
X35000Y33139D01*
X35848Y33307D01*
X36567Y33788D01*
X37047Y34506D01*
X37216Y35354D01*
X37047Y36202D01*
X37031Y36226D01*
X37061Y36377D01*
Y37767D01*
X37066Y37880D01*
X37061Y37895D01*
Y40465D01*
X37034Y40601D01*
Y42735D01*
X34384D01*
X34265Y42735D01*
D02*
G37*
G36*
X36727Y31156D02*
X34460D01*
Y28200D01*
X36727D01*
Y31156D01*
D02*
G37*
G36*
X34060D02*
X31793D01*
Y28200D01*
X34060D01*
Y31156D01*
D02*
G37*
G36*
X43714Y42735D02*
X43333D01*
X43214Y42735D01*
X40565D01*
Y40601D01*
X40538Y40465D01*
Y32737D01*
X40532Y32724D01*
X40522Y32361D01*
X40495Y32055D01*
X40452Y31795D01*
X40396Y31585D01*
X40330Y31424D01*
X40263Y31312D01*
X40198Y31242D01*
X40138Y31201D01*
X40070Y31177D01*
X39933Y31162D01*
X39922Y31156D01*
X39273D01*
Y24844D01*
X44207D01*
Y30656D01*
X44207Y30661D01*
X44225Y30692D01*
X44223Y30734D01*
X44228Y30745D01*
X44207Y31156D01*
X43985D01*
X43985Y31156D01*
X43985D01*
X43566Y31374D01*
X43545Y31412D01*
X43487Y31576D01*
X43436Y31789D01*
X43398Y32052D01*
X43374Y32360D01*
X43366Y32722D01*
X43360Y32735D01*
Y37842D01*
X43714Y38195D01*
X43860Y38195D01*
X46483D01*
Y42735D01*
X43833D01*
X43714Y42735D01*
D02*
G37*
G36*
X36727Y27800D02*
X34460D01*
Y24844D01*
X36727D01*
Y27800D01*
D02*
G37*
G36*
X34060D02*
X31793D01*
Y24844D01*
X34060D01*
Y27800D01*
D02*
G37*
G36*
X40000Y18572D02*
X39330Y18484D01*
X38706Y18225D01*
X38170Y17814D01*
X37774Y17297D01*
X37648Y17278D01*
X37352D01*
X37226Y17297D01*
X36830Y17814D01*
X36294Y18225D01*
X35670Y18484D01*
X35000Y18572D01*
X34330Y18484D01*
X33706Y18225D01*
X33170Y17814D01*
X32759Y17278D01*
X32501Y16654D01*
X32412Y15984D01*
Y14016D01*
X32501Y13346D01*
X32759Y12722D01*
X33170Y12186D01*
X33706Y11775D01*
X34330Y11516D01*
X35000Y11428D01*
X35670Y11516D01*
X36294Y11775D01*
X36830Y12186D01*
X37226Y12703D01*
X37352Y12722D01*
X37648D01*
X37774Y12703D01*
X38170Y12186D01*
X38706Y11775D01*
X39330Y11516D01*
X40000Y11428D01*
X40670Y11516D01*
X41294Y11775D01*
X41830Y12186D01*
X42241Y12722D01*
X42499Y13346D01*
X42588Y14016D01*
Y15984D01*
X42499Y16654D01*
X42241Y17278D01*
X41830Y17814D01*
X41294Y18225D01*
X40670Y18484D01*
X40000Y18572D01*
D02*
G37*
G36*
X15000Y27249D02*
X13084Y27098D01*
X11215Y26649D01*
X9439Y25914D01*
X7800Y24909D01*
X6339Y23661D01*
X5091Y22200D01*
X4086Y20561D01*
X3351Y18785D01*
X2902Y16916D01*
X2751Y15000D01*
X2902Y13084D01*
X3351Y11215D01*
X4086Y9439D01*
X5091Y7800D01*
X6339Y6339D01*
X7800Y5091D01*
X9439Y4086D01*
X11215Y3351D01*
X13084Y2902D01*
X15000Y2751D01*
X16916Y2902D01*
X18785Y3351D01*
X20561Y4086D01*
X22200Y5091D01*
X23661Y6339D01*
X24909Y7800D01*
X25914Y9439D01*
X26649Y11215D01*
X27098Y13084D01*
X27249Y15000D01*
X27098Y16916D01*
X26649Y18785D01*
X25914Y20561D01*
X24909Y22200D01*
X23661Y23661D01*
X22200Y24909D01*
X20561Y25914D01*
X18785Y26649D01*
X16916Y27098D01*
X15000Y27249D01*
D02*
G37*
%LPD*%
G36*
X36634Y37900D02*
X36543Y36001D01*
X34385Y36910D01*
X34438Y36941D01*
X34486Y36989D01*
X34528Y37055D01*
X34564Y37138D01*
X34595Y37238D01*
X34620Y37355D01*
X34640Y37490D01*
X34654Y37642D01*
X34665Y37998D01*
X36634Y37900D01*
D02*
G37*
G36*
X42942Y32338D02*
X42968Y32004D01*
X43011Y31708D01*
X43071Y31453D01*
X43149Y31236D01*
X43243Y31059D01*
X43356Y30921D01*
X43485Y30823D01*
X43631Y30764D01*
X43795Y30744D01*
X39980Y30732D01*
X40167Y30752D01*
X40335Y30812D01*
X40482Y30911D01*
X40610Y31050D01*
X40718Y31229D01*
X40807Y31446D01*
X40876Y31704D01*
X40925Y32000D01*
X40955Y32337D01*
X40965Y32712D01*
X42933D01*
X42942Y32338D01*
D02*
G37*
D11*
X154500Y56000D02*
X155000D01*
X158079Y59079D01*
X166645Y58500D02*
X174000D01*
X165953Y59192D02*
X166645Y58500D01*
X165953Y59192D02*
Y62590D01*
X174000Y58500D02*
X175500Y57000D01*
X172500Y48500D02*
X175500Y51500D01*
X140000Y23000D02*
X143500D01*
X146000Y25500D02*
Y28481D01*
X143500Y23000D02*
X146000Y25500D01*
X142618Y17118D02*
X152500Y27000D01*
X140872Y20872D02*
X143872D01*
X150500Y27500D01*
D15*
X89500Y12453D02*
D03*
Y6547D02*
D03*
X96500D02*
D03*
Y12453D02*
D03*
X103500D02*
D03*
Y6547D02*
D03*
X110500D02*
D03*
Y12453D02*
D03*
D16*
X177764Y62590D02*
D03*
X175795D02*
D03*
X173827D02*
D03*
X171858D02*
D03*
X169890D02*
D03*
X167921D02*
D03*
X165953D02*
D03*
X163984D02*
D03*
X162016D02*
D03*
X160047D02*
D03*
X158079D02*
D03*
X156110D02*
D03*
X154142D02*
D03*
X152173D02*
D03*
X150205D02*
D03*
X148236D02*
D03*
Y17410D02*
D03*
X150205D02*
D03*
X152173D02*
D03*
X154142D02*
D03*
X156110D02*
D03*
X158079D02*
D03*
X160047D02*
D03*
X162016D02*
D03*
X163984D02*
D03*
X165953D02*
D03*
X167921D02*
D03*
X169890D02*
D03*
X171858D02*
D03*
X173827D02*
D03*
X175795D02*
D03*
X177764D02*
D03*
D17*
X140409Y54764D02*
D03*
Y52795D02*
D03*
Y50827D02*
D03*
Y48858D02*
D03*
Y46890D02*
D03*
Y44921D02*
D03*
Y42953D02*
D03*
Y40984D02*
D03*
Y39016D02*
D03*
Y37047D02*
D03*
Y35079D02*
D03*
Y33110D02*
D03*
Y31142D02*
D03*
Y29173D02*
D03*
Y27205D02*
D03*
Y25236D02*
D03*
X185591D02*
D03*
Y27205D02*
D03*
Y29173D02*
D03*
Y31142D02*
D03*
Y33110D02*
D03*
Y35079D02*
D03*
Y37047D02*
D03*
Y39016D02*
D03*
Y40984D02*
D03*
Y42953D02*
D03*
Y44921D02*
D03*
Y46890D02*
D03*
Y48858D02*
D03*
Y50827D02*
D03*
Y52795D02*
D03*
Y54764D02*
D03*
D18*
X379650Y39260D02*
D03*
Y71740D02*
D03*
X377000Y123661D02*
D03*
Y81339D02*
D03*
D19*
X366657Y62882D02*
D03*
Y57961D02*
D03*
Y53039D02*
D03*
Y48118D02*
D03*
X364008Y114803D02*
D03*
Y109882D02*
D03*
Y104961D02*
D03*
Y100039D02*
D03*
Y95118D02*
D03*
Y90197D02*
D03*
D20*
X90500Y45500D02*
D03*
X83500Y34500D02*
D03*
X76500Y45500D02*
D03*
D21*
X123500Y26850D02*
D03*
Y33150D02*
D03*
D22*
X312850Y81000D02*
D03*
X319150D02*
D03*
X109650Y46500D02*
D03*
X103350D02*
D03*
X160350Y10500D02*
D03*
X166650D02*
D03*
X147150Y74500D02*
D03*
X140850D02*
D03*
X124650Y13000D02*
D03*
X118350D02*
D03*
Y6000D02*
D03*
X124650D02*
D03*
D23*
X49000Y139850D02*
D03*
Y146150D02*
D03*
X305000Y28350D02*
D03*
Y34650D02*
D03*
X299000Y25850D02*
D03*
Y32150D02*
D03*
X339000Y46850D02*
D03*
Y53150D02*
D03*
X57937Y115925D02*
D03*
Y122224D02*
D03*
Y104425D02*
D03*
Y110724D02*
D03*
X345500Y129850D02*
D03*
Y136150D02*
D03*
Y117850D02*
D03*
Y124150D02*
D03*
X208000Y59150D02*
D03*
Y52850D02*
D03*
X202000D02*
D03*
Y59150D02*
D03*
X89500Y25150D02*
D03*
Y18850D02*
D03*
X96500D02*
D03*
Y25150D02*
D03*
D24*
X344000Y84000D02*
D03*
X337701D02*
D03*
X83850Y113500D02*
D03*
X90150D02*
D03*
X282697Y140403D02*
D03*
X276398D02*
D03*
X111650Y139500D02*
D03*
X105350D02*
D03*
X252350Y82000D02*
D03*
X258650D02*
D03*
X252350Y87000D02*
D03*
X258650D02*
D03*
X301350Y113500D02*
D03*
X307650D02*
D03*
D25*
X52500Y104350D02*
D03*
Y110650D02*
D03*
X157000Y78650D02*
D03*
Y72350D02*
D03*
X181000D02*
D03*
Y78650D02*
D03*
X307000Y74850D02*
D03*
Y81150D02*
D03*
X49000Y129350D02*
D03*
Y135650D02*
D03*
X83000Y143650D02*
D03*
Y137350D02*
D03*
X98500Y124850D02*
D03*
Y131150D02*
D03*
X228500Y74850D02*
D03*
Y81150D02*
D03*
X272500Y84650D02*
D03*
Y78350D02*
D03*
X300500Y145000D02*
D03*
Y138701D02*
D03*
X294500Y124850D02*
D03*
Y131150D02*
D03*
D26*
X173231Y78750D02*
D03*
X164569D02*
D03*
Y72450D02*
D03*
X173231D02*
D03*
D27*
X261500Y13980D02*
D03*
Y5020D02*
D03*
X89000Y144980D02*
D03*
Y136020D02*
D03*
X96000D02*
D03*
Y144980D02*
D03*
X266500Y76020D02*
D03*
Y84980D02*
D03*
X306500Y144980D02*
D03*
Y136020D02*
D03*
X294500D02*
D03*
Y144980D02*
D03*
D28*
X331815Y123500D02*
D03*
X321185D02*
D03*
X65685Y129500D02*
D03*
X76315D02*
D03*
D29*
X64866Y111279D02*
D03*
Y103720D02*
D03*
X73134Y107500D02*
D03*
D30*
X343779Y98134D02*
D03*
X336221D02*
D03*
X340000Y89866D02*
D03*
D31*
X347000Y62500D02*
D03*
Y68500D02*
D03*
X342000D02*
D03*
Y62500D02*
D03*
D32*
X331256Y68500D02*
D03*
X325744D02*
D03*
X54244Y146000D02*
D03*
X59756D02*
D03*
X337744Y145500D02*
D03*
X343256D02*
D03*
X197756Y19500D02*
D03*
X192244D02*
D03*
X141744Y69000D02*
D03*
X147256D02*
D03*
X118244Y48500D02*
D03*
X123756D02*
D03*
D33*
X297500Y56988D02*
D03*
Y62500D02*
D03*
X192000Y58256D02*
D03*
Y52744D02*
D03*
X133000Y27756D02*
D03*
Y22244D02*
D03*
D34*
X233189Y93500D02*
D03*
D35*
X245866D02*
D03*
D36*
X89559Y107000D02*
D03*
X307559D02*
D03*
D37*
X82079D02*
D03*
X300079D02*
D03*
D38*
X240118Y16532D02*
D03*
X229882D02*
D03*
X232441D02*
D03*
X235000D02*
D03*
X237559D02*
D03*
D39*
X222402Y15646D02*
D03*
X247598D02*
D03*
D40*
X220236Y6000D02*
D03*
X249764D02*
D03*
D41*
X230472D02*
D03*
X239528D02*
D03*
D42*
X308000Y164264D02*
D03*
Y174736D02*
D03*
X321000D02*
D03*
Y164264D02*
D03*
X68500Y174736D02*
D03*
Y164264D02*
D03*
X81000Y174736D02*
D03*
Y164264D02*
D03*
D43*
X341146Y175862D02*
D03*
X332854D02*
D03*
X57146D02*
D03*
X48854D02*
D03*
D44*
X341146Y166709D02*
D03*
X332854D02*
D03*
X57146D02*
D03*
X48854D02*
D03*
D45*
X370000Y145000D02*
D03*
X19500D02*
D03*
X20000Y177500D02*
D03*
X370000D02*
D03*
D46*
X84866Y119579D02*
D03*
X89000D02*
D03*
X93134D02*
D03*
Y129421D02*
D03*
X89000D02*
D03*
X84866D02*
D03*
X302366Y119579D02*
D03*
X306500D02*
D03*
X310634D02*
D03*
Y129421D02*
D03*
X306500D02*
D03*
X302366D02*
D03*
D47*
X217047Y150000D02*
D03*
X172953D02*
D03*
D48*
X331677Y62500D02*
D03*
Y57500D02*
D03*
Y52500D02*
D03*
Y47500D02*
D03*
X310323D02*
D03*
Y52500D02*
D03*
Y57500D02*
D03*
Y62500D02*
D03*
D49*
X158976Y167697D02*
D03*
X141024D02*
D03*
X248976D02*
D03*
X231024D02*
D03*
X158976Y115197D02*
D03*
X141024D02*
D03*
X248976D02*
D03*
X231024D02*
D03*
D50*
X150000Y192500D02*
D03*
X240000D02*
D03*
X150000Y140000D02*
D03*
X240000D02*
D03*
D51*
X280000Y199035D02*
D03*
Y165965D02*
D03*
X110000Y199035D02*
D03*
Y165965D02*
D03*
D52*
X50441Y159740D02*
D03*
X55559D02*
D03*
Y152260D02*
D03*
X53000D02*
D03*
X50441D02*
D03*
X334441Y159240D02*
D03*
X339559D02*
D03*
Y151760D02*
D03*
X337000D02*
D03*
X334441D02*
D03*
D53*
X276709Y116695D02*
D03*
X279268D02*
D03*
X281827D02*
D03*
X284386D02*
D03*
Y134112D02*
D03*
X281827D02*
D03*
X279268D02*
D03*
X276709D02*
D03*
X105882Y115583D02*
D03*
X108441D02*
D03*
X111000D02*
D03*
X113559D02*
D03*
Y133000D02*
D03*
X111000D02*
D03*
X108441D02*
D03*
X105882D02*
D03*
D54*
X280547Y125403D02*
D03*
X109721Y124291D02*
D03*
D55*
X251020Y76000D02*
D03*
X259980D02*
D03*
X266961Y93000D02*
D03*
X258000D02*
D03*
D56*
X234579Y80134D02*
D03*
Y76000D02*
D03*
Y71866D02*
D03*
X244421D02*
D03*
Y76000D02*
D03*
Y80134D02*
D03*
D57*
X131500Y33850D02*
D03*
Y40150D02*
D03*
D58*
X14488Y41843D02*
D03*
X50512D02*
D03*
Y77866D02*
D03*
X14488D02*
D03*
D59*
X19902Y40465D02*
D03*
X23051D02*
D03*
X26201D02*
D03*
X29350D02*
D03*
X32500D02*
D03*
X35650D02*
D03*
X38799D02*
D03*
X41949D02*
D03*
X45098D02*
D03*
Y79244D02*
D03*
X41949D02*
D03*
X38799D02*
D03*
X35650D02*
D03*
X32500D02*
D03*
X29350D02*
D03*
X26201D02*
D03*
X23051D02*
D03*
X19902D02*
D03*
D60*
X51890Y47256D02*
D03*
Y50406D02*
D03*
Y53555D02*
D03*
Y56705D02*
D03*
Y59854D02*
D03*
Y63004D02*
D03*
Y66154D02*
D03*
Y69303D02*
D03*
Y72453D02*
D03*
X13110D02*
D03*
Y69303D02*
D03*
Y66154D02*
D03*
Y63004D02*
D03*
Y59854D02*
D03*
Y56705D02*
D03*
Y53555D02*
D03*
Y50406D02*
D03*
Y47256D02*
D03*
D61*
X32500Y59854D02*
D03*
D62*
X27827Y73929D02*
D03*
D63*
X46673Y59854D02*
D03*
D64*
X130799Y78335D02*
D03*
Y57665D02*
D03*
X118201Y78335D02*
D03*
Y57665D02*
D03*
D65*
X270000Y12905D02*
D03*
Y26094D02*
D03*
X275000Y12905D02*
D03*
Y26094D02*
D03*
X280000Y12905D02*
D03*
Y26094D02*
D03*
X285000Y12905D02*
D03*
Y26094D02*
D03*
X290000Y12905D02*
D03*
Y26094D02*
D03*
D66*
X76992Y75055D02*
D03*
Y66000D02*
D03*
Y56945D02*
D03*
D67*
X101008Y66000D02*
D03*
D68*
X193382Y5760D02*
D03*
Y9500D02*
D03*
Y13240D02*
D03*
X203618D02*
D03*
Y9500D02*
D03*
Y5760D02*
D03*
D69*
X65000Y63595D02*
D03*
Y75406D02*
D03*
D70*
X26354Y120354D02*
D03*
X15646D02*
D03*
X26354Y106354D02*
D03*
X15646D02*
D03*
X26354Y92354D02*
D03*
X15646D02*
D03*
X86854Y86500D02*
D03*
X76146D02*
D03*
D71*
X65000Y51854D02*
D03*
Y41146D02*
D03*
D72*
X210283Y69610D02*
D03*
Y76500D02*
D03*
Y83390D02*
D03*
X195717Y69610D02*
D03*
Y76500D02*
D03*
Y83390D02*
D03*
D73*
X46240Y89500D02*
D03*
X38760D02*
D03*
X34260Y28000D02*
D03*
X41740D02*
D03*
D133*
X209000Y66000D02*
Y69315D01*
X67992Y41146D02*
X68988Y40150D01*
X65000Y41146D02*
X67992D01*
X209000Y69315D02*
X209295Y69610D01*
X210283D01*
X209795Y83390D02*
X210283D01*
X209500Y83685D02*
X209795Y83390D01*
X209500Y83685D02*
Y88000D01*
X196705Y83390D02*
X197000Y83685D01*
X195717Y83390D02*
X196705D01*
X197000Y83685D02*
Y88000D01*
X185500Y68500D02*
Y86500D01*
X169000D02*
X185500D01*
X169000Y86500D02*
X169000Y86500D01*
X152500Y86500D02*
X169000D01*
X152500Y68500D02*
Y86500D01*
X46240Y89500D02*
X50760D01*
D138*
X232775Y58500D02*
X234275Y57000D01*
X232500Y58500D02*
X232775D01*
X234275Y57000D02*
X286000D01*
X296000Y67000D01*
X47000Y97500D02*
X48500Y96000D01*
X97000D01*
X279000Y116427D02*
X279268Y116695D01*
X279000Y96000D02*
Y116427D01*
X280000Y81500D02*
Y95000D01*
X279000Y96000D02*
X280000Y95000D01*
X202642Y31142D02*
X206000Y34500D01*
X185591Y31142D02*
X202642D01*
X274308Y33500D02*
X275000Y32808D01*
X266000Y33500D02*
X274308D01*
X275000Y26094D02*
Y32808D01*
X263000Y35500D02*
X278000D01*
X280000Y26094D02*
Y33500D01*
X278000Y35500D02*
X280000Y33500D01*
X259500Y37500D02*
X279000D01*
X283000Y33500D01*
X294500D01*
X280000Y39500D02*
X284000Y35500D01*
X258500Y39500D02*
X280000D01*
X284000Y35500D02*
X305000D01*
X257500Y41500D02*
X281000D01*
X284500Y38000D02*
X350000D01*
X281000Y41500D02*
X284500Y38000D01*
X256500Y43500D02*
X282000D01*
X285500Y40000D02*
X349000D01*
X282000Y43500D02*
X285500Y40000D01*
X255500Y45500D02*
X283000D01*
X286500Y42000D02*
X348000D01*
X283000Y45500D02*
X286500Y42000D01*
X143884Y52791D02*
X143939Y52736D01*
X140413Y52791D02*
X143074D01*
X143074Y52791D02*
X143884D01*
X143939Y52736D02*
X157264D01*
X140409Y52795D02*
X140413Y52791D01*
X143074D02*
X143074Y52791D01*
X157264Y52736D02*
X163000Y47000D01*
X169692Y77076D02*
X171557D01*
X169000Y69500D02*
Y76385D01*
X169692Y77076D01*
X169000Y69500D02*
X169890Y68610D01*
X348500Y101000D02*
X357382Y109882D01*
X348500Y80000D02*
Y101000D01*
X346500Y78000D02*
X348500Y80000D01*
X146000Y57500D02*
X149500D01*
X141744Y61756D02*
Y69000D01*
Y61756D02*
X146000Y57500D01*
X355000Y92500D02*
X357618Y95118D01*
X355000Y43000D02*
Y92500D01*
X350000Y38000D02*
X355000Y43000D01*
X349000Y40000D02*
X352919Y43919D01*
Y95919D02*
X357000Y100000D01*
X352919Y43919D02*
Y95919D01*
X103000Y33000D02*
X117500Y18500D01*
X89500Y31000D02*
X91500Y33000D01*
X103000D01*
X123500Y85000D02*
Y89000D01*
X108441Y104059D02*
Y115583D01*
Y104059D02*
X123500Y89000D01*
X194390Y46890D02*
X194764Y47264D01*
X202914Y46000D02*
X203500D01*
X194764Y47264D02*
X201650D01*
X202914Y46000D01*
X185591Y46890D02*
Y46890D01*
X194390D01*
X96500Y25150D02*
X106850D01*
X115500Y16500D01*
X103500Y15108D02*
X104192Y15800D01*
X112700D02*
X115500Y13000D01*
X103500Y12453D02*
Y15108D01*
X104192Y15800D02*
X112700D01*
X153000Y21914D02*
Y22500D01*
X152173Y21087D02*
X153000Y21914D01*
X152173Y17410D02*
Y21087D01*
X169894Y10906D02*
Y14745D01*
X170480Y7020D02*
Y10320D01*
X169894Y10906D02*
X170480Y10320D01*
X169890Y17410D02*
X169894Y17405D01*
Y14745D02*
X169894Y14745D01*
X169894Y14745D02*
Y17405D01*
X187900Y54764D02*
X190447Y57311D01*
X191055D02*
X192000Y58256D01*
X185591Y54764D02*
X187900D01*
X190447Y57311D02*
X191055D01*
X209000Y28500D02*
X231500D01*
X233000Y27000D01*
X205736Y25236D02*
X209000Y28500D01*
X233000Y27000D02*
X269311D01*
X234000Y29000D02*
X261500D01*
X232500Y30500D02*
X234000Y29000D01*
X208000Y30500D02*
X232500D01*
X233500Y32500D02*
X235000Y31000D01*
X270000Y26094D02*
Y26311D01*
X235000Y31000D02*
X253000D01*
X261500Y29000D02*
X266000Y33500D01*
X253000Y31000D02*
X259500Y37500D01*
X269311Y27000D02*
X270000Y26311D01*
X236764Y61236D02*
X286736D01*
X296500Y71000D02*
X317500D01*
X286736Y61236D02*
X296500Y71000D01*
X236500Y61500D02*
X236764Y61236D01*
X286500Y64500D02*
X303150Y81150D01*
X307000D01*
X240500Y64500D02*
X286500D01*
X237648Y38264D02*
X254264D01*
X257500Y41500D01*
X237648Y38264D02*
X237648Y38264D01*
X231264Y38264D02*
X237648D01*
X227500Y34500D02*
X231264Y38264D01*
X227691Y40181D02*
X253181D01*
X256500Y43500D01*
X225000Y38000D02*
X225510D01*
X227691Y40181D01*
X223500Y42000D02*
X252000D01*
X255500Y45500D01*
X218500Y37000D02*
X223500Y42000D01*
X217500Y39000D02*
X223736Y45236D01*
X245736D01*
X246000Y45500D01*
X216500Y41000D02*
X224000Y48500D01*
X242000D01*
X206000Y34500D02*
X227500D01*
X207000Y32500D02*
X233500D01*
X203673Y29173D02*
X207000Y32500D01*
X204705Y27205D02*
X208000Y30500D01*
X181000Y24192D02*
Y38000D01*
X182016Y39016D02*
X185591D01*
X181000Y38000D02*
X182016Y39016D01*
X190547Y42953D02*
X192264Y41236D01*
X185591Y42953D02*
X190547D01*
X192264Y41236D02*
X195736D01*
X191500Y39000D02*
X198500D01*
X189516Y40984D02*
X191500Y39000D01*
X185591Y40984D02*
X189516D01*
X198500Y39000D02*
X202236Y42736D01*
X207044D01*
X208000Y43692D01*
Y52850D01*
X193236Y49236D02*
X201044D01*
X185591Y48858D02*
X192858D01*
X193236Y49236D01*
X201044D02*
X202000Y50192D01*
Y52850D01*
X163984Y58516D02*
Y62590D01*
Y58516D02*
X165736Y56764D01*
X169236D01*
X158079Y59079D02*
Y62590D01*
X157500Y38500D02*
X161000Y42000D01*
Y45000D01*
X155173Y50827D02*
X161000Y45000D01*
X163000Y38835D02*
Y47000D01*
X157665Y33500D02*
X163000Y38835D01*
X154142Y9142D02*
Y17410D01*
X149148Y7236D02*
X152236D01*
X154142Y9142D01*
X150205Y10795D02*
Y17410D01*
X146084Y10300D02*
X149148Y7236D01*
X150205Y10795D02*
X150500Y10500D01*
X128934Y10300D02*
X146084D01*
X89500Y25150D02*
Y31000D01*
X117500Y18500D02*
X135500D01*
X169236Y56764D02*
X172500Y53500D01*
X162016Y58107D02*
X166623Y53500D01*
X167000D01*
X162016Y58107D02*
Y62590D01*
X76000Y99500D02*
X84500D01*
X73134Y102366D02*
X76000Y99500D01*
X177586Y48086D02*
X178000Y48500D01*
X174736Y45852D02*
X176970Y48086D01*
X164500Y24616D02*
X172731D01*
X162016Y20068D02*
Y22131D01*
X164500Y24616D01*
X162016Y17410D02*
Y20068D01*
X162016Y20068D02*
X162016Y20068D01*
X174736Y36264D02*
Y45852D01*
X176970Y48086D02*
X177586D01*
X172731Y24616D02*
X174764Y26648D01*
X174736Y36264D02*
X174764Y36236D01*
Y26648D02*
Y36236D01*
X179809Y21691D02*
X180000Y21500D01*
X180000D01*
X176602Y21691D02*
X179809D01*
X180000Y21500D02*
X182000Y19500D01*
X188000D01*
X175795Y17410D02*
Y20884D01*
X176602Y21691D01*
X165500Y22500D02*
X174418D01*
X178000Y26082D02*
Y43500D01*
X174418Y22500D02*
X178000Y26082D01*
X181000Y24192D02*
X181924Y23268D01*
X208768D01*
X209000Y23500D01*
X185591Y25236D02*
X205736D01*
X260000Y32500D02*
X263000Y35500D01*
X299650Y31500D02*
X308500D01*
X309000Y31000D02*
X310000D01*
X308500Y31500D02*
X309000Y31000D01*
X299000Y32150D02*
X299650Y31500D01*
X312000Y34500D02*
X352000D01*
Y31000D02*
X361000Y40000D01*
X310000Y15000D02*
Y31000D01*
X352000D01*
Y34500D02*
X358500Y41000D01*
X296000Y67000D02*
X317500D01*
X328500Y78000D02*
X346500D01*
X317500Y67000D02*
X328500Y78000D01*
X357382Y109882D02*
X364008D01*
X345500Y124150D02*
Y129850D01*
X343000Y124000D02*
X345350D01*
X345500Y124150D01*
X341500Y122500D02*
X343000Y124000D01*
X341500Y107500D02*
Y122500D01*
X340000Y106000D02*
X341500Y107500D01*
X340000Y89866D02*
Y106000D01*
X319150Y81000D02*
X322500D01*
X329500Y88000D02*
Y100000D01*
X322500Y81000D02*
X329500Y88000D01*
X330500Y84000D02*
X337701D01*
X317500Y71000D02*
X330500Y84000D01*
X307000Y81150D02*
X312701D01*
X312850Y81000D01*
X348000Y42000D02*
X351000Y45000D01*
Y99000D01*
X357000Y105000D01*
X363968D01*
X357618Y95118D02*
X364008D01*
X357000Y100000D02*
X363968D01*
X337674Y87540D02*
X338425Y88291D01*
X339311D02*
X340000Y88980D01*
X337674Y84027D02*
Y87540D01*
X340000Y88980D02*
Y89866D01*
X338425Y88291D02*
X339311D01*
X337674Y84027D02*
X337701Y84000D01*
X329500Y100000D02*
X338000Y108500D01*
X363968Y105000D02*
X364008Y104961D01*
X363968Y100000D02*
X364008Y100039D01*
X178500Y53500D02*
X181173Y50827D01*
X185591D01*
X52537Y110687D02*
X57900D01*
X52500Y110650D02*
X52537Y110687D01*
X57900D02*
X57937Y110724D01*
X49000Y135650D02*
Y139850D01*
X145308Y29173D02*
X146000Y28481D01*
X140409Y29173D02*
X145308D01*
X170480Y7020D02*
X170500Y7000D01*
X131000Y6500D02*
Y7000D01*
X133500Y4000D02*
X162500D01*
X131000Y6500D02*
X133500Y4000D01*
X124650Y6016D02*
X128934Y10300D01*
X124650Y6000D02*
Y6016D01*
X150500Y27500D02*
Y35500D01*
X115500Y16500D02*
X136500D01*
X140872Y20872D01*
X135500Y18500D02*
X140000Y23000D01*
X152500Y27000D02*
Y36500D01*
X149984Y39016D02*
X152500Y36500D01*
X140409Y39016D02*
X149984D01*
X165981Y9832D02*
X166650Y10500D01*
X162500Y4000D02*
X165981Y7481D01*
Y9832D01*
X165953Y10803D02*
Y17410D01*
X132386Y33850D02*
X135094Y31142D01*
X131500Y33850D02*
X132386D01*
X135094Y31142D02*
X140409D01*
X138096Y24096D02*
Y25236D01*
X132872Y22372D02*
X136372D01*
X138096Y24096D01*
Y25236D02*
X140409D01*
X133000Y27756D02*
X133551Y27205D01*
X140409D01*
X90500Y45500D02*
Y53500D01*
X94000Y57000D01*
X76500Y56453D02*
X76992Y56945D01*
X76500Y45500D02*
Y56453D01*
X83500Y34500D02*
Y40150D01*
X334500Y139500D02*
X338000Y136000D01*
Y108500D02*
Y136000D01*
X59596Y146160D02*
X59756Y146000D01*
X58808Y150488D02*
X59596Y149701D01*
X55756Y150488D02*
X58808D01*
X59596Y146160D02*
Y149701D01*
X55559Y150685D02*
X55756Y150488D01*
X55559Y150685D02*
Y152260D01*
X53197Y148943D02*
X53388Y148752D01*
Y146856D02*
X54244Y146000D01*
X53197Y148943D02*
Y152063D01*
X53388Y146856D02*
Y148752D01*
X53000Y152260D02*
X53197Y152063D01*
X49394Y146150D02*
X50441Y147197D01*
Y152260D01*
X49000Y146150D02*
X49394D01*
X57937Y110724D02*
Y115925D01*
X58331Y110724D02*
X61555Y107500D01*
X73134D01*
X57937Y110724D02*
X58331D01*
X73134Y102366D02*
Y107500D01*
X345575Y136075D02*
X349925D01*
X345500Y136150D02*
X345575Y136075D01*
X349925D02*
X350000Y136000D01*
X58000Y122287D02*
Y126000D01*
X57937Y122224D02*
X58000Y122287D01*
X47000Y97500D02*
Y116500D01*
X52308Y135650D02*
X53000Y134958D01*
Y122500D02*
Y134958D01*
X49000Y135650D02*
X52308D01*
X47000Y116500D02*
X53000Y122500D01*
X49000Y126000D02*
Y129350D01*
X52500Y101000D02*
Y104362D01*
X52437Y104425D02*
X52500Y104362D01*
X58000Y100500D02*
Y104362D01*
X57937Y104425D02*
X58000Y104362D01*
X64976Y111390D02*
X69390D01*
X64866Y111279D02*
X64976Y111390D01*
X69390D02*
X69500Y111500D01*
X64976Y103610D02*
X69390D01*
X64866Y103720D02*
X64976Y103610D01*
X69390D02*
X69500Y103500D01*
X171557Y77076D02*
X173231Y78750D01*
X334500Y139500D02*
Y151701D01*
X334441Y151760D02*
X334500Y151701D01*
X118500Y85000D02*
Y89500D01*
X105882Y102118D02*
Y115583D01*
Y102118D02*
X118500Y89500D01*
X171500Y28000D02*
Y33000D01*
X172500Y34000D02*
Y48500D01*
X171500Y33000D02*
X172500Y34000D01*
X163984Y20984D02*
X165500Y22500D01*
X131500Y40150D02*
X132737Y38913D01*
X135308D02*
X136000Y38221D01*
X132737Y38913D02*
X135308D01*
X136000Y35771D02*
Y38221D01*
Y35771D02*
X136692Y35079D01*
X140409D01*
X290094Y26000D02*
X293500D01*
X290000Y26094D02*
X290094Y26000D01*
X254000Y35000D02*
X258500Y39500D01*
X239000Y35000D02*
X254000D01*
X163984Y17410D02*
Y20984D01*
X276604Y90104D02*
Y116590D01*
X276709Y116695D01*
X276500Y90000D02*
X276604Y90104D01*
X332000Y113000D02*
Y123500D01*
X331815D02*
X332000D01*
Y128815D01*
X331815Y129000D02*
X332000Y128815D01*
X331815Y129000D02*
Y133815D01*
X332000Y134000D01*
X304000Y57500D02*
X310323D01*
X297500Y51000D02*
X304000Y57500D01*
X297000Y51000D02*
X297500D01*
X304000Y52500D02*
X310323D01*
X297000Y45500D02*
X304000Y52500D01*
X203500Y41000D02*
X216500D01*
X199547Y37047D02*
X203500Y41000D01*
X99000Y46500D02*
X103350D01*
X361000Y40000D02*
Y52347D01*
X361692Y53039D02*
X366657D01*
X361000Y52347D02*
X361692Y53039D01*
X358500Y54500D02*
X361961Y57961D01*
X358500Y41000D02*
Y54500D01*
X295850Y32150D02*
X299000D01*
X294500Y33500D02*
X295850Y32150D01*
X331677Y47500D02*
X332002Y47175D01*
X338675D02*
X339000Y46850D01*
X332002Y47175D02*
X338675D01*
X332002Y52825D02*
X338675D01*
X331677Y52500D02*
X332002Y52825D01*
X338675D02*
X339000Y53150D01*
X339075Y53075D02*
X343925D01*
X339000Y53150D02*
X339075Y53075D01*
X343925D02*
X344000Y53000D01*
X339735Y47586D02*
X343586D01*
X339000Y46850D02*
X339735Y47586D01*
X343586D02*
X344000Y48000D01*
X55559Y165921D02*
X56346Y166709D01*
X55559Y159240D02*
Y165921D01*
X56346Y166709D02*
X57146D01*
X49654D02*
X50441Y165921D01*
X48854Y166709D02*
X49654D01*
X50441Y159240D02*
Y165921D01*
X159500Y56586D02*
X160047Y57133D01*
Y62590D01*
X159500Y56000D02*
Y56586D01*
X361961Y57961D02*
X366657D01*
X158079Y17410D02*
Y26079D01*
X167000Y35000D01*
Y43500D01*
X160047Y17410D02*
Y24547D01*
X170500Y35000D02*
Y45000D01*
X160047Y24547D02*
X170500Y35000D01*
X167000Y48500D02*
X170500Y45000D01*
X333653Y166709D02*
X334441Y165921D01*
Y159240D02*
Y165921D01*
X332854Y166709D02*
X333653D01*
X339559Y159240D02*
Y165921D01*
X340347Y166709D01*
X341146D01*
X157500Y33500D02*
X157665D01*
X140409Y50827D02*
X155173D01*
X152142Y48858D02*
X157500Y43500D01*
X140409Y48858D02*
X152142D01*
X140409Y46890D02*
X149110D01*
X152500Y43500D01*
X145493Y44921D02*
X146914Y43500D01*
X140409Y44921D02*
X145493D01*
X146914Y43500D02*
X147500D01*
X195736Y41236D02*
X198500Y44000D01*
X185591Y37047D02*
X199547D01*
X185591Y35079D02*
X200579D01*
X204500Y39000D01*
X217500D01*
X205500Y37000D02*
X218500D01*
X201610Y33110D02*
X205500Y37000D01*
X185591Y33110D02*
X201610D01*
X185591Y29173D02*
X203673D01*
X185591Y27205D02*
X204705D01*
X124650Y13000D02*
X147544D01*
X148236Y13692D01*
Y17410D01*
X177764Y16000D02*
Y17410D01*
Y16000D02*
X194650D01*
X197756Y19106D02*
Y19500D01*
X194650Y16000D02*
X197756Y19106D01*
X201000Y60134D02*
Y72398D01*
X201984Y59150D02*
X202000D01*
X201000Y60134D02*
X201984Y59150D01*
X195717Y76500D02*
X196898D01*
X201000Y72398D01*
X206622Y60134D02*
X207606Y59150D01*
X205000Y62150D02*
X206622Y60528D01*
X205000Y62150D02*
Y72398D01*
X207606Y59150D02*
X208000D01*
X206622Y60134D02*
Y60528D01*
X205000Y72398D02*
X209102Y76500D01*
X210283D01*
X191949Y52795D02*
X192000Y52744D01*
X185591Y52795D02*
X191949D01*
X149500Y57500D02*
X150205Y58205D01*
Y62590D01*
X140409Y37047D02*
X148953D01*
X150500Y35500D01*
X113500Y7000D02*
X114500Y6000D01*
X112808Y12453D02*
X113500Y11761D01*
Y7000D02*
Y11761D01*
X114500Y6000D02*
X118350D01*
X110500Y12453D02*
X112808D01*
X146890Y33110D02*
X147000Y33000D01*
X140409Y33110D02*
X146890D01*
X147256Y68606D02*
X148236Y67626D01*
X147256Y68606D02*
Y69000D01*
X148236Y62590D02*
Y67626D01*
X169890Y62591D02*
Y68610D01*
X166735Y68265D02*
X167921Y67079D01*
X166735Y68265D02*
Y70777D01*
X167921Y62591D02*
Y67079D01*
Y62591D02*
X167921Y62590D01*
X164569Y72450D02*
X165061D01*
X166735Y70777D01*
X169890Y62591D02*
X169890D01*
X203618Y9500D02*
X208500D01*
X115500Y13000D02*
X118350D01*
X89500Y12453D02*
Y18850D01*
X96500Y12453D02*
Y18850D01*
D139*
X300079Y111498D02*
X301117Y112535D01*
X301173D02*
X301350Y112713D01*
X300079Y107000D02*
Y111498D01*
X301117Y112535D02*
X301173D01*
X301350Y112713D02*
Y113500D01*
X301500Y113650D02*
Y116000D01*
X301350Y113500D02*
X301500Y113650D01*
X302327Y119539D02*
X302366Y119579D01*
X302071Y119283D02*
X302327Y119539D01*
X302071Y116571D02*
Y119283D01*
X301500Y116000D02*
X302071Y116571D01*
X297539Y119539D02*
X302327D01*
X297500Y119500D02*
X297539Y119539D01*
X295465Y121962D02*
Y124673D01*
X297500Y119500D02*
Y119926D01*
X294500Y124850D02*
X295287D01*
X295465Y124673D01*
Y121962D02*
X297500Y119926D01*
X284386Y114776D02*
X286000Y113161D01*
X284386Y114776D02*
Y116695D01*
X286000Y111000D02*
Y113161D01*
X113559Y114000D02*
Y115583D01*
Y114000D02*
X116811D01*
X282520Y140226D02*
X282793Y140500D01*
X281827Y134112D02*
X281827D01*
X281827Y137610D02*
X282520Y138303D01*
Y140226D01*
X281827Y134112D02*
Y137610D01*
X281827Y103173D02*
Y116695D01*
Y103173D02*
X282500Y102500D01*
Y99000D02*
Y102500D01*
X111000Y107000D02*
X117000Y101000D01*
X117000D01*
X111000Y107000D02*
Y115583D01*
X89098Y138962D02*
X90136Y140000D01*
X105173D02*
X105350Y139823D01*
X89098Y136118D02*
Y138962D01*
X90136Y140000D02*
X105173D01*
X105350Y139500D02*
Y139823D01*
X265990Y5010D02*
X266000Y5000D01*
X261510Y5010D02*
X265990D01*
X261500Y5020D02*
X261510Y5010D01*
X307650Y113500D02*
X311500D01*
X289500Y131000D02*
X289575Y131075D01*
X294425D02*
X294500Y131150D01*
X289575Y131075D02*
X294425D01*
X240461Y99000D02*
X252500D01*
X234961Y93500D02*
X240461Y99000D01*
X233189Y93500D02*
X234961D01*
X222555Y96945D02*
X229744D01*
X222500Y97000D02*
X222555Y96945D01*
X229744D02*
X233189Y93500D01*
X319216Y129421D02*
X321185Y127453D01*
X310634Y129421D02*
X319216D01*
X321185Y123500D02*
Y127453D01*
X291102Y140500D02*
X294500Y137102D01*
X282793Y140500D02*
X291102D01*
X294500Y136020D02*
Y137102D01*
X307650Y113500D02*
Y114287D01*
Y107091D02*
Y113500D01*
X307559Y107000D02*
X307650Y107091D01*
X306500Y115437D02*
Y119579D01*
Y115437D02*
X307650Y114287D01*
X306500Y119579D02*
Y129421D01*
Y136020D01*
X302366Y129421D02*
Y133634D01*
X300500Y135500D02*
X302366Y133634D01*
X300500Y135500D02*
Y138701D01*
X294500Y131150D02*
Y136020D01*
X300510Y144990D02*
X306490D01*
X306500Y144980D01*
X300500Y145000D02*
X300510Y144990D01*
X294510D02*
X300490D01*
X294500Y144980D02*
X294510Y144990D01*
X300490D02*
X300500Y145000D01*
X276220Y140581D02*
Y143853D01*
X275500Y144574D02*
Y145000D01*
X276220Y140581D02*
X276398Y140403D01*
X275500Y144574D02*
X276220Y143853D01*
X276500Y137500D02*
Y140301D01*
X276398Y140403D02*
X276500Y140301D01*
Y137500D02*
X276709Y137291D01*
Y134112D02*
Y137291D01*
X89559Y107000D02*
X90150Y107591D01*
Y113500D01*
X94500D01*
X96098Y132764D02*
Y135760D01*
X96000Y135858D02*
X96098Y135760D01*
X99240D02*
X99500Y135500D01*
X96000Y135858D02*
Y136020D01*
X96098Y135760D02*
X99240D01*
X111650Y139500D02*
X114500D01*
X89295Y116205D02*
X90000Y115500D01*
X89000Y119579D02*
X89295Y119283D01*
Y116205D02*
Y119283D01*
X90000Y113650D02*
Y115500D01*
Y113650D02*
X90150Y113500D01*
X89000Y119579D02*
Y129421D01*
Y136020D01*
X89098Y136118D01*
X105500Y137000D02*
X105882Y136618D01*
Y133000D02*
Y136618D01*
X105500Y137000D02*
Y139350D01*
X105350Y139500D02*
X105500Y139350D01*
X105350Y139500D02*
Y143150D01*
X103500Y145000D02*
X105350Y143150D01*
X111827Y137681D02*
Y139323D01*
X111650Y139500D02*
X111827Y139323D01*
Y137681D02*
X111858Y137650D01*
X111000Y136791D02*
X111858Y137650D01*
X111000Y133000D02*
Y136791D01*
X98500Y120500D02*
Y124850D01*
X75815Y121547D02*
Y129500D01*
X77784Y119579D02*
X84866D01*
X75815Y121547D02*
X77784Y119579D01*
X93134Y128142D02*
X96248Y125028D01*
X98323D02*
X98500Y124850D01*
X93134Y128142D02*
Y129421D01*
X96248Y125028D02*
X98323D01*
X96098Y132764D02*
X97713Y131150D01*
X98500D01*
X89000Y144980D02*
X96000D01*
X87000Y145000D02*
X88980D01*
X89000Y144980D01*
X85827Y143827D02*
X87000Y145000D01*
X83000Y143650D02*
X83177Y143827D01*
X85827D01*
X83000Y134500D02*
Y137350D01*
Y134500D02*
X85000Y132500D01*
Y129555D02*
Y132500D01*
X84866Y129421D02*
X85000Y129555D01*
X84866Y119579D02*
X85000Y119445D01*
Y115437D02*
Y119445D01*
X83850Y114287D02*
X85000Y115437D01*
X83850Y113500D02*
Y114287D01*
X82079Y111498D02*
X83117Y112535D01*
X83673D02*
X83850Y112713D01*
X82079Y107000D02*
Y111498D01*
X83117Y112535D02*
X83673D01*
X83850Y112713D02*
Y113500D01*
X347000Y68500D02*
Y73000D01*
X342000Y68500D02*
Y73000D01*
X228500Y71000D02*
Y74850D01*
X244488Y71933D02*
X249433D01*
X244421Y71866D02*
X244488Y71933D01*
X249433D02*
X249500Y72000D01*
X228500Y81150D02*
Y85000D01*
X244421Y76000D02*
X251020D01*
X234579D02*
X244421D01*
X234283Y80429D02*
X234579Y80134D01*
X230008Y80429D02*
X234283D01*
X229287Y81150D02*
X230008Y80429D01*
X228500Y81150D02*
X229287D01*
X230142Y75705D02*
X234283D01*
X228500Y74850D02*
X229287D01*
X234283Y75705D02*
X234579Y76000D01*
X229287Y74850D02*
X230142Y75705D01*
D140*
X43000Y73500D02*
X45098Y75598D01*
Y79244D01*
X181000Y68500D02*
Y72350D01*
X180850Y72500D02*
X181000Y72350D01*
X173231Y72450D02*
X173280Y72500D01*
X180850D01*
X173231Y78750D02*
X173480Y78500D01*
X180850D02*
X181000Y78650D01*
X173480Y78500D02*
X180850D01*
X157000Y78650D02*
Y82500D01*
Y78650D02*
X157150Y78500D01*
X164320D02*
X164569Y78750D01*
X157150Y78500D02*
X164320D01*
X164520Y72500D02*
X164569Y72450D01*
X157150Y72500D02*
X164520D01*
X157000Y72350D02*
X157150Y72500D01*
X279366Y139839D02*
X280000Y140473D01*
X279366Y134211D02*
Y139839D01*
X279268Y134112D02*
X279366Y134211D01*
X280000Y140473D02*
Y145000D01*
X257000Y14000D02*
X257010Y13990D01*
X261490D01*
X261500Y13980D01*
X272500Y74500D02*
Y78350D01*
X108441Y133000D02*
Y144941D01*
X108500Y145000D01*
X345390Y113390D02*
X345500Y113500D01*
X339559Y150185D02*
X341815D01*
X343000Y145756D02*
Y149000D01*
Y145756D02*
X343256Y145500D01*
X339559Y150185D02*
Y151760D01*
X341815Y150185D02*
X343000Y149000D01*
X337000Y146244D02*
X337744Y145500D01*
X337000Y146244D02*
Y151760D01*
X229882Y16532D02*
Y20577D01*
X226500Y21500D02*
X228959D01*
X229882Y20577D01*
X241300Y21161D02*
X242661D01*
X240118Y19979D02*
X241300Y21161D01*
X242661D02*
X243000Y21500D01*
X240118Y16532D02*
Y19979D01*
D141*
X266500Y13000D02*
X270000D01*
Y12905D02*
Y13000D01*
X144900Y79987D02*
X146854Y78033D01*
X144900Y79987D02*
Y80200D01*
X146854Y74795D02*
Y78033D01*
Y74795D02*
X147203Y74447D01*
Y69053D02*
X147256Y69000D01*
X147203Y69053D02*
Y74447D01*
X157500Y10500D02*
X160350D01*
X112000Y31000D02*
Y40150D01*
X132872Y27628D02*
X133000Y27756D01*
X128628Y27628D02*
X132872D01*
X128500Y27500D02*
X128628Y27628D01*
X364106Y90098D02*
X369902D01*
X364008Y90197D02*
X364106Y90098D01*
X369902D02*
X370000Y90000D01*
X358418Y114705D02*
X363909D01*
X358000Y114500D02*
X358213D01*
X363909Y114705D02*
X364008Y114803D01*
X358213Y114500D02*
X358418Y114705D01*
X123500Y22500D02*
Y26496D01*
X83500Y40150D02*
X112000D01*
X68988D02*
X83500D01*
X112000D02*
X131500D01*
X343128Y141128D02*
Y145372D01*
X343256Y145500D01*
X343000Y141000D02*
X343128Y141128D01*
X337872Y141128D02*
Y145372D01*
X337744Y145500D02*
X337872Y145372D01*
Y141128D02*
X338000Y141000D01*
X358000Y114500D02*
X358079Y114421D01*
X109650Y46500D02*
X113500D01*
X299000Y21500D02*
Y25850D01*
X305000Y24000D02*
Y28350D01*
X325744Y58999D02*
X327243Y57500D01*
X325744Y58999D02*
Y68500D01*
X327243Y57500D02*
X331677D01*
X331256Y62500D02*
Y68500D01*
Y62500D02*
X331677D01*
X293006Y56994D02*
X297494D01*
X297500Y56988D01*
X293000Y57000D02*
X293006Y56994D01*
X297500Y62500D02*
X304000D01*
X345500Y113500D02*
Y117850D01*
X358500Y71039D02*
Y80000D01*
X364492Y62882D02*
X366657D01*
X364394Y62980D02*
X364492Y62882D01*
X364394Y62980D02*
Y65146D01*
X358500Y71039D02*
X364394Y65146D01*
X337500Y62500D02*
X342000D01*
X345988Y57500D02*
X347000Y58512D01*
X337500Y57500D02*
X345988D01*
X347000Y58512D02*
Y62500D01*
X331677Y57500D02*
X337500D01*
X331677Y62500D02*
X337500D01*
X304000D02*
X310323D01*
X304500Y47500D02*
X310323D01*
X137500Y69000D02*
X141744D01*
X188000Y19500D02*
X192244D01*
X197756D02*
X202000D01*
X196378Y52622D02*
X196500Y52500D01*
X192000Y52744D02*
X192122Y52622D01*
X196378D01*
X366657Y48118D02*
X366717Y48059D01*
X372941D01*
X373000Y48000D01*
D142*
X175443Y8586D02*
X184907D01*
X173757Y12857D02*
X176200Y10414D01*
X171929Y12100D02*
X175443Y8586D01*
X171929Y12100D02*
Y17339D01*
X176200Y10414D02*
X184907D01*
X173757Y12857D02*
Y17339D01*
X212994Y9494D02*
X213001D01*
X211687Y8187D02*
X212994Y9494D01*
X211687Y8180D02*
Y8187D01*
X216793Y13285D02*
Y19207D01*
X211392Y11322D02*
X212244D01*
X214965Y14042D01*
Y19965D01*
X213001Y9494D02*
X216793Y13285D01*
X209267Y5760D02*
X211687Y8180D01*
X209474Y13240D02*
X211392Y11322D01*
X203618Y5760D02*
X209267D01*
X221515Y26515D02*
X229985D01*
X214965Y19965D02*
X221515Y26515D01*
X203618Y13240D02*
X209474D01*
X216793Y19207D02*
X222272Y24687D01*
X229228D02*
X232806Y21109D01*
X222272Y24687D02*
X229228D01*
X234634Y19964D02*
Y21866D01*
X229985Y26515D02*
X234634Y21866D01*
X232806Y19964D02*
Y21109D01*
X232714Y19871D02*
X232806Y19964D01*
X232441Y16532D02*
X232714Y16805D01*
X234634Y19964D02*
X234727Y19871D01*
Y16805D02*
Y19871D01*
X232714Y16805D02*
Y19871D01*
X234727Y16805D02*
X235000Y16532D01*
X187187Y12687D02*
X187740Y13240D01*
X187180Y12687D02*
X187187D01*
X184907Y10414D02*
X187180Y12687D01*
X187740Y13240D02*
X193382D01*
X187187Y6313D02*
X187740Y5760D01*
X193382D01*
X187180Y6313D02*
X187187D01*
X184907Y8586D02*
X187180Y6313D01*
X173757Y17339D02*
X173827Y17410D01*
X171858D02*
X171929Y17339D01*
D143*
X192000Y61700D02*
X195600Y65300D01*
X192000Y58256D02*
Y61700D01*
X195600Y65300D02*
Y69494D01*
X195717Y69610D01*
X311925Y34575D02*
X312000Y34500D01*
X305075Y34575D02*
X311925D01*
X305000Y34650D02*
X305075Y34575D01*
X344000Y84000D02*
Y93500D01*
X123850Y33500D02*
X131150D01*
X123500Y33150D02*
X123850Y33500D01*
X131150D02*
X131500Y33850D01*
X128628Y22372D02*
X132872D01*
X128500Y22500D02*
X128628Y22372D01*
X59756Y146000D02*
X64000D01*
X54372Y141628D02*
Y145872D01*
X54244Y146000D02*
X54372Y145872D01*
Y141628D02*
X54500Y141500D01*
X343890Y93610D02*
Y98024D01*
X343779Y98134D02*
X343890Y98024D01*
Y93610D02*
X344000Y93500D01*
X336110Y93610D02*
Y98024D01*
X336221Y98134D01*
X336000Y93500D02*
X336110Y93610D01*
X307079Y74772D02*
X310856D01*
X311127Y74500D01*
X311500D01*
X307000Y74850D02*
X307079Y74772D01*
X274996Y4504D02*
Y12901D01*
X274991Y4500D02*
X274996Y4504D01*
Y12901D02*
X275000Y12905D01*
X280000Y4500D02*
Y12905D01*
X290000D02*
Y13205D01*
Y4500D02*
Y12905D01*
X38799Y89799D02*
X39000Y90000D01*
X38799Y79244D02*
Y89799D01*
X290000Y13205D02*
X290295Y13500D01*
X41949Y28051D02*
Y40465D01*
Y28051D02*
X41965Y28035D01*
X35000Y35354D02*
Y35727D01*
X35650Y36377D01*
Y40465D01*
D144*
X118000Y72500D02*
X118053Y72553D01*
Y78187D01*
X118201Y78335D01*
X134447Y52553D02*
Y52935D01*
Y52553D02*
X134500Y52500D01*
X130799Y56583D02*
Y57665D01*
Y56583D02*
X134447Y52935D01*
X131000Y57866D02*
Y69000D01*
X130799Y57665D02*
X131000Y57866D01*
Y69000D02*
X136067Y74067D01*
X130634Y57500D02*
X130799Y57665D01*
X136067Y74067D02*
X140811D01*
X140850Y74106D02*
Y74500D01*
X140811Y74067D02*
X140850Y74106D01*
X118201Y57665D02*
X118447Y57912D01*
Y63447D01*
X118500Y63500D01*
X126500Y57500D02*
X130634D01*
X123756Y48500D02*
Y54756D01*
X126500Y57500D01*
X118201Y57665D02*
X118244Y57622D01*
Y48500D02*
Y57622D01*
D145*
X175500Y51500D02*
Y57000D01*
D146*
X82000Y6500D02*
X89453D01*
X89500Y6547D01*
X103500D02*
X110500D01*
X96500D02*
X103500D01*
X89500D02*
X96500D01*
D147*
X246311Y93016D02*
X257984D01*
X258000Y93000D01*
X245866Y93461D02*
X246311Y93016D01*
X250000Y82000D02*
X252350D01*
X244602Y80315D02*
X248315D01*
X244421Y80134D02*
X244602Y80315D01*
X248315D02*
X250000Y82000D01*
X252350D02*
Y87000D01*
X266500Y92984D02*
X266516Y93000D01*
X266500Y84980D02*
Y92984D01*
X266516Y93000D02*
X266961D01*
X258634D02*
X258650Y92984D01*
X258000Y93000D02*
X258634D01*
X258650Y87000D02*
Y92984D01*
X266500Y84665D02*
Y84980D01*
X266516Y84650D02*
X272500D01*
X266500Y84665D02*
X266516Y84650D01*
X188500Y9500D02*
X193382D01*
X245866Y93461D02*
Y93500D01*
X259984Y76000D02*
X266484D01*
X259980D02*
X259984D01*
X266484D02*
X266500Y76016D01*
Y76020D01*
X259984Y76000D02*
X260000Y76016D01*
Y78000D01*
X258650Y82000D02*
X258713Y81937D01*
Y79287D02*
Y81937D01*
Y79287D02*
X260000Y78000D01*
X41965Y28035D02*
X42000Y28000D01*
D148*
X310000Y205000D02*
D03*
X80000Y15000D02*
D03*
X310000D02*
D03*
X80000Y205000D02*
D03*
D149*
X315000D02*
D03*
X320000D02*
D03*
X325000D02*
D03*
X330000D02*
D03*
X335000D02*
D03*
X340000D02*
D03*
X345000D02*
D03*
X350000D02*
D03*
X355000D02*
D03*
X35000Y15000D02*
D03*
X40000D02*
D03*
X45000D02*
D03*
X50000D02*
D03*
X55000D02*
D03*
X60000D02*
D03*
X65000D02*
D03*
X70000D02*
D03*
X75000D02*
D03*
X315000D02*
D03*
X320000D02*
D03*
X325000D02*
D03*
X330000D02*
D03*
X335000D02*
D03*
X340000D02*
D03*
X345000D02*
D03*
X350000D02*
D03*
X355000D02*
D03*
X35000Y205000D02*
D03*
X40000D02*
D03*
X45000D02*
D03*
X50000D02*
D03*
X55000D02*
D03*
X60000D02*
D03*
X65000D02*
D03*
X70000D02*
D03*
X75000D02*
D03*
D150*
X366000Y153000D02*
D03*
X374000D02*
D03*
X382000D02*
D03*
X358000D02*
D03*
Y145000D02*
D03*
X366000D02*
D03*
X374000D02*
D03*
X382000D02*
D03*
Y137000D02*
D03*
X374000D02*
D03*
X366000D02*
D03*
X358000D02*
D03*
X7500D02*
D03*
X15500D02*
D03*
X23500D02*
D03*
X31500D02*
D03*
Y145000D02*
D03*
X23500D02*
D03*
X15500D02*
D03*
X7500D02*
D03*
Y153000D02*
D03*
X31500D02*
D03*
X23500D02*
D03*
X15500D02*
D03*
X8000Y169500D02*
D03*
X16000D02*
D03*
X24000D02*
D03*
X32000D02*
D03*
Y177500D02*
D03*
X24000D02*
D03*
X16000D02*
D03*
X8000D02*
D03*
Y185500D02*
D03*
X32000D02*
D03*
X24000D02*
D03*
X16000D02*
D03*
X366000D02*
D03*
X374000D02*
D03*
X382000D02*
D03*
X358000D02*
D03*
Y177500D02*
D03*
X366000D02*
D03*
X374000D02*
D03*
X382000D02*
D03*
Y169500D02*
D03*
X374000D02*
D03*
X366000D02*
D03*
X358000D02*
D03*
X116811Y114000D02*
D03*
X43000Y73500D02*
D03*
X266500Y13000D02*
D03*
X98500Y29500D02*
D03*
X153000Y22500D02*
D03*
X195600Y65300D02*
D03*
X144900Y80200D02*
D03*
X286000Y111000D02*
D03*
X240500Y64500D02*
D03*
X246000Y45500D02*
D03*
X242000Y48500D02*
D03*
X150500Y10500D02*
D03*
X157500D02*
D03*
X112000Y31000D02*
D03*
X128500Y27500D02*
D03*
X159500Y56000D02*
D03*
X154500D02*
D03*
X118000Y72500D02*
D03*
X84500Y99500D02*
D03*
X97000Y96000D02*
D03*
X117000Y101000D02*
D03*
X280000Y145000D02*
D03*
X209000Y23500D02*
D03*
X260000Y32500D02*
D03*
X312000Y34500D02*
D03*
X377000Y87000D02*
D03*
Y80000D02*
D03*
Y123661D02*
D03*
X370000Y90000D02*
D03*
Y95000D02*
D03*
X343000Y141000D02*
D03*
X358000Y114500D02*
D03*
X236500Y61500D02*
D03*
X232500Y58500D02*
D03*
X178500Y53500D02*
D03*
X172500D02*
D03*
X209000Y66000D02*
D03*
X170500Y7000D02*
D03*
X131000D02*
D03*
X117500Y24000D02*
D03*
X142000Y16500D02*
D03*
X82000Y6500D02*
D03*
X123500Y22500D02*
D03*
X92000Y84000D02*
D03*
Y88500D02*
D03*
X344000Y93500D02*
D03*
X336000D02*
D03*
X350000Y136000D02*
D03*
X311500Y74500D02*
D03*
X107500Y61500D02*
D03*
Y57000D02*
D03*
X103000D02*
D03*
X98500D02*
D03*
X94000D02*
D03*
Y61500D02*
D03*
Y70500D02*
D03*
Y75000D02*
D03*
X98500D02*
D03*
X103000D02*
D03*
X107500D02*
D03*
Y70500D02*
D03*
Y66000D02*
D03*
X7500Y80000D02*
D03*
Y75000D02*
D03*
Y70000D02*
D03*
X40000Y62500D02*
D03*
X35000D02*
D03*
X30000D02*
D03*
X25000D02*
D03*
Y57500D02*
D03*
X30000D02*
D03*
X35000D02*
D03*
X40000D02*
D03*
X46000Y35500D02*
D03*
X51500D02*
D03*
X57000D02*
D03*
X18500Y35000D02*
D03*
X13000D02*
D03*
X7500D02*
D03*
Y40500D02*
D03*
Y46000D02*
D03*
X58000Y126000D02*
D03*
X69500Y103500D02*
D03*
X64000Y146000D02*
D03*
X69500Y111500D02*
D03*
X58000Y100500D02*
D03*
X52500Y101000D02*
D03*
X49000Y126000D02*
D03*
X54500Y141500D02*
D03*
X71000Y89000D02*
D03*
X62500Y35500D02*
D03*
X68000D02*
D03*
X167000Y53500D02*
D03*
X171500Y28000D02*
D03*
X280000Y81500D02*
D03*
X293500Y26000D02*
D03*
X239000Y35000D02*
D03*
X257000Y14000D02*
D03*
X266000Y5000D02*
D03*
X272500Y74500D02*
D03*
X311500Y113500D02*
D03*
X289500Y131000D02*
D03*
X252500Y99000D02*
D03*
X282500D02*
D03*
X276500Y90000D02*
D03*
X280547Y125403D02*
D03*
X321185Y123500D02*
D03*
X297500Y119500D02*
D03*
X275500Y145000D02*
D03*
X222500Y97000D02*
D03*
X99500Y135500D02*
D03*
X114500Y139500D02*
D03*
X109721Y124291D02*
D03*
X142000Y140000D02*
D03*
X103500Y145000D02*
D03*
X94500Y113500D02*
D03*
X108500Y145000D02*
D03*
X76315Y129500D02*
D03*
X98500Y120500D02*
D03*
X65500Y135000D02*
D03*
Y140000D02*
D03*
Y119000D02*
D03*
Y124000D02*
D03*
Y129500D02*
D03*
X332000Y123500D02*
D03*
Y118000D02*
D03*
Y113000D02*
D03*
Y134000D02*
D03*
Y129000D02*
D03*
X150000Y140000D02*
D03*
X203500Y46000D02*
D03*
X338000Y141000D02*
D03*
X113500Y46500D02*
D03*
X99000D02*
D03*
X305000Y24000D02*
D03*
X299000Y21500D02*
D03*
X344000Y48000D02*
D03*
Y53000D02*
D03*
X293000Y57000D02*
D03*
X345500Y113500D02*
D03*
X178000Y43500D02*
D03*
Y48500D02*
D03*
X141024Y167697D02*
D03*
X231024D02*
D03*
X141024Y115197D02*
D03*
X231024D02*
D03*
X358500Y80000D02*
D03*
X118500Y85000D02*
D03*
X167000Y43500D02*
D03*
X347000Y73000D02*
D03*
X342000D02*
D03*
X228500Y71000D02*
D03*
X249500Y72000D02*
D03*
X228500Y85000D02*
D03*
X273000Y205071D02*
D03*
X287000D02*
D03*
X273000Y193071D02*
D03*
X287000D02*
D03*
X273000Y199071D02*
D03*
X287000D02*
D03*
X103000Y172000D02*
D03*
Y166000D02*
D03*
Y160000D02*
D03*
X117000D02*
D03*
Y166000D02*
D03*
Y172000D02*
D03*
Y205071D02*
D03*
Y199071D02*
D03*
Y193071D02*
D03*
X103000Y205071D02*
D03*
Y199071D02*
D03*
Y193071D02*
D03*
X159000Y174000D02*
D03*
X254000D02*
D03*
X244000D02*
D03*
X249000D02*
D03*
X254000Y161000D02*
D03*
X249000D02*
D03*
X254000Y167500D02*
D03*
X244000D02*
D03*
X154000D02*
D03*
X164000D02*
D03*
X159000Y161000D02*
D03*
X154000D02*
D03*
Y174000D02*
D03*
X164000D02*
D03*
X57000Y179000D02*
D03*
Y172500D02*
D03*
X48709Y179000D02*
D03*
Y172500D02*
D03*
X332709Y179000D02*
D03*
Y172500D02*
D03*
X341000D02*
D03*
Y179000D02*
D03*
X305000Y180000D02*
D03*
X311000D02*
D03*
X317500D02*
D03*
X323500D02*
D03*
X84000D02*
D03*
X78000D02*
D03*
X71500D02*
D03*
X65500D02*
D03*
X240000Y192500D02*
D03*
X248000D02*
D03*
Y184500D02*
D03*
X240000D02*
D03*
X232000D02*
D03*
Y192500D02*
D03*
Y200500D02*
D03*
X240000D02*
D03*
X248000D02*
D03*
X150000Y192500D02*
D03*
X158000D02*
D03*
Y184500D02*
D03*
X150000D02*
D03*
X142000D02*
D03*
Y192500D02*
D03*
Y200500D02*
D03*
X150000D02*
D03*
X158000D02*
D03*
X217047Y150000D02*
D03*
X214094Y156000D02*
D03*
X220094D02*
D03*
X214094Y144000D02*
D03*
X220094D02*
D03*
X176000D02*
D03*
X170000D02*
D03*
X176000Y156000D02*
D03*
X170000D02*
D03*
X172953Y150000D02*
D03*
X240000Y140000D02*
D03*
X248000D02*
D03*
Y132000D02*
D03*
X240000D02*
D03*
X232000D02*
D03*
Y140000D02*
D03*
Y148000D02*
D03*
X240000D02*
D03*
X248000D02*
D03*
X158000D02*
D03*
X150000D02*
D03*
X142000D02*
D03*
Y132000D02*
D03*
X150000D02*
D03*
X158000D02*
D03*
Y140000D02*
D03*
X123500Y85000D02*
D03*
X172500Y48500D02*
D03*
X167000D02*
D03*
X323500Y159000D02*
D03*
X318000D02*
D03*
X311000D02*
D03*
X305500D02*
D03*
X84000D02*
D03*
X78000D02*
D03*
X71500D02*
D03*
X65500D02*
D03*
X134500Y52500D02*
D03*
X304000Y62500D02*
D03*
X297000Y45500D02*
D03*
X337500Y62500D02*
D03*
X297000Y51000D02*
D03*
X304500Y47500D02*
D03*
X337500Y57500D02*
D03*
X137500Y69000D02*
D03*
X157500Y38500D02*
D03*
Y33500D02*
D03*
X147500Y43500D02*
D03*
X157500D02*
D03*
X152500D02*
D03*
X225000Y38000D02*
D03*
X198500Y44000D02*
D03*
X188000Y19500D02*
D03*
X202000D02*
D03*
X209500Y88000D02*
D03*
X197000D02*
D03*
X196500Y52500D02*
D03*
X118500Y63500D02*
D03*
X56500Y57000D02*
D03*
Y63500D02*
D03*
X71000Y84000D02*
D03*
X67500Y81500D02*
D03*
X62500D02*
D03*
X67500Y57000D02*
D03*
X62000D02*
D03*
X379650Y71740D02*
D03*
Y39260D02*
D03*
X373000Y48000D02*
D03*
X147000Y33000D02*
D03*
X287000Y172000D02*
D03*
X273000D02*
D03*
X287000Y160000D02*
D03*
X273000D02*
D03*
X287000Y166000D02*
D03*
X273000D02*
D03*
X244000Y115000D02*
D03*
X254000D02*
D03*
X249000Y108500D02*
D03*
Y121500D02*
D03*
X244000Y108500D02*
D03*
Y121500D02*
D03*
X254000D02*
D03*
Y108500D02*
D03*
X164000D02*
D03*
Y121500D02*
D03*
X154000D02*
D03*
Y108500D02*
D03*
X159000Y121500D02*
D03*
Y108500D02*
D03*
X164000Y115000D02*
D03*
X154000D02*
D03*
X290000Y4500D02*
D03*
X280000D02*
D03*
X274991D02*
D03*
X185500Y77500D02*
D03*
X152500Y77500D02*
D03*
X185500Y68500D02*
D03*
X152500D02*
D03*
X185500Y86500D02*
D03*
X152500Y86500D02*
D03*
X169000Y86500D02*
D03*
X157000Y82500D02*
D03*
X181000Y68500D02*
D03*
X243000Y21500D02*
D03*
X226500D02*
D03*
X188500Y9500D02*
D03*
X208500D02*
D03*
X128500Y22500D02*
D03*
X32000Y120354D02*
D03*
X10000Y110000D02*
D03*
Y102000D02*
D03*
Y88000D02*
D03*
Y92000D02*
D03*
Y96000D02*
D03*
Y106000D02*
D03*
Y117000D02*
D03*
Y121000D02*
D03*
Y125000D02*
D03*
X50760Y89500D02*
D03*
X35000Y35354D02*
D03*
X32000Y110354D02*
D03*
Y106354D02*
D03*
Y102354D02*
D03*
Y96354D02*
D03*
Y88354D02*
D03*
Y124354D02*
D03*
Y116354D02*
D03*
Y92354D02*
D03*
D151*
X15000Y15000D02*
D03*
X375000D02*
D03*
X15000Y205000D02*
D03*
X375000D02*
D03*
M02*
