G04*
G04 #@! TF.GenerationSoftware,Altium Limited,Altium Designer,21.0.8 (223)*
G04*
G04 Layer_Color=255*
%FSLAX25Y25*%
%MOIN*%
G70*
G04*
G04 #@! TF.SameCoordinates,7C19FEE0-9405-418D-A0C6-2703AC14626A*
G04*
G04*
G04 #@! TF.FilePolarity,Positive*
G04*
G01*
G75*
%ADD14R,0.12205X0.08661*%
%ADD15R,0.05906X0.05984*%
%ADD16R,0.07874X0.04331*%
%ADD17R,0.03150X0.04331*%
%ADD18R,0.01575X0.05315*%
%ADD19R,0.06299X0.05512*%
%ADD20R,0.09055X0.05118*%
%ADD21R,0.07087X0.07480*%
%ADD22R,0.10709X0.04961*%
%ADD23R,0.05886X0.11614*%
%ADD24R,0.05886X0.02756*%
G04:AMPARAMS|DCode=25|XSize=314.96mil|YSize=236.22mil|CornerRadius=11.81mil|HoleSize=0mil|Usage=FLASHONLY|Rotation=0.000|XOffset=0mil|YOffset=0mil|HoleType=Round|Shape=RoundedRectangle|*
%AMROUNDEDRECTD25*
21,1,0.31496,0.21260,0,0,0.0*
21,1,0.29134,0.23622,0,0,0.0*
1,1,0.02362,0.14567,-0.10630*
1,1,0.02362,-0.14567,-0.10630*
1,1,0.02362,-0.14567,0.10630*
1,1,0.02362,0.14567,0.10630*
%
%ADD25ROUNDEDRECTD25*%
%ADD26R,0.02126X0.03701*%
%ADD27R,0.02362X0.04921*%
%ADD28R,0.01968X0.04134*%
%ADD29R,0.03701X0.02126*%
%ADD30R,0.04134X0.01968*%
%ADD31R,0.04921X0.13189*%
%ADD32R,0.13976X0.19291*%
%ADD33R,0.06004X0.02559*%
%ADD34R,0.03937X0.03150*%
%ADD35R,0.03071X0.03858*%
%ADD36R,0.03150X0.03937*%
%ADD37R,0.04724X0.08661*%
%ADD38R,0.22835X0.25197*%
%ADD39R,0.05807X0.01181*%
%ADD40R,0.01181X0.05807*%
%ADD41R,0.07087X0.02756*%
%ADD42R,0.08661X0.06299*%
%ADD43R,0.08465X0.16929*%
%ADD44R,0.01575X0.04724*%
%ADD45R,0.01772X0.05610*%
%ADD46R,0.07402X0.06614*%
%ADD47R,0.04921X0.02362*%
%ADD48R,0.05787X0.04016*%
%ADD49R,0.06496X0.06496*%
%ADD50R,0.01968X0.03740*%
%ADD51R,0.03740X0.01968*%
%ADD52R,0.19685X0.09252*%
%ADD53R,0.04409X0.04134*%
%ADD54R,0.03937X0.12992*%
%ADD55R,0.03858X0.03071*%
%ADD56R,0.03937X0.06102*%
%ADD57R,0.05512X0.04528*%
%ADD58R,0.02559X0.11221*%
%ADD59R,0.07480X0.03543*%
%ADD60R,0.07480X0.12598*%
%ADD61R,0.04528X0.02362*%
%ADD62R,0.07008X0.04016*%
%ADD63R,0.08858X0.06890*%
%ADD64R,0.05118X0.11102*%
%ADD65R,0.11102X0.05118*%
%ADD66R,0.03150X0.03150*%
%ADD67R,0.06299X0.03937*%
%ADD68R,0.04134X0.05512*%
%ADD139O,0.04331X0.05906*%
%ADD140R,0.04331X0.05906*%
%ADD141C,0.03347*%
%ADD142C,0.23622*%
D14*
X237689Y92500D02*
D03*
D15*
X250366D02*
D03*
D16*
X102059Y101000D02*
D03*
X287059Y101500D02*
D03*
D17*
X94579Y101000D02*
D03*
X279579Y101500D02*
D03*
D18*
X240118Y16532D02*
D03*
X229882D02*
D03*
X232441D02*
D03*
X235000D02*
D03*
X237559D02*
D03*
D19*
X222402Y15646D02*
D03*
X247598D02*
D03*
D20*
X220236Y6000D02*
D03*
X249764D02*
D03*
D21*
X230472D02*
D03*
X239528D02*
D03*
D22*
X308500Y161764D02*
D03*
Y172236D02*
D03*
X321500D02*
D03*
Y161764D02*
D03*
X68500Y174736D02*
D03*
Y164264D02*
D03*
X81000Y174736D02*
D03*
Y164264D02*
D03*
D23*
X341146Y175862D02*
D03*
X332854D02*
D03*
X57146D02*
D03*
X48854D02*
D03*
D24*
X341146Y166709D02*
D03*
X332854D02*
D03*
X57146D02*
D03*
X48854D02*
D03*
D25*
X370000Y145000D02*
D03*
X19500D02*
D03*
X20000Y177500D02*
D03*
X370000D02*
D03*
D26*
X96850Y108500D02*
D03*
X103150D02*
D03*
X102850Y152500D02*
D03*
X109150D02*
D03*
X266150Y146000D02*
D03*
X259850D02*
D03*
X128150Y146500D02*
D03*
X121850D02*
D03*
X252850Y78500D02*
D03*
X259150D02*
D03*
X251850Y83500D02*
D03*
X258150D02*
D03*
X280850Y108500D02*
D03*
X287150D02*
D03*
X285150Y152500D02*
D03*
X278850D02*
D03*
D27*
X97866Y114579D02*
D03*
X102000D02*
D03*
X106134D02*
D03*
Y124421D02*
D03*
X102000D02*
D03*
X97866D02*
D03*
X281866Y114579D02*
D03*
X286000D02*
D03*
X290134D02*
D03*
Y124421D02*
D03*
X286000D02*
D03*
X281866D02*
D03*
D28*
X102000Y139980D02*
D03*
Y131020D02*
D03*
X267000Y72520D02*
D03*
Y81480D02*
D03*
X286000Y139980D02*
D03*
Y131020D02*
D03*
D29*
X96000Y138650D02*
D03*
Y132350D02*
D03*
X229000Y71350D02*
D03*
Y77650D02*
D03*
X273000Y80150D02*
D03*
Y73850D02*
D03*
X280000Y138650D02*
D03*
Y132350D02*
D03*
D30*
X110480Y146500D02*
D03*
X101520D02*
D03*
X251520Y72500D02*
D03*
X260480D02*
D03*
X266980Y89500D02*
D03*
X258020D02*
D03*
X277520Y146500D02*
D03*
X286480D02*
D03*
D31*
X63689Y137500D02*
D03*
X87311D02*
D03*
X63689Y122000D02*
D03*
X87311D02*
D03*
X325811Y137500D02*
D03*
X302189D02*
D03*
X325811Y122000D02*
D03*
X302189D02*
D03*
D32*
X217047Y150000D02*
D03*
X172953D02*
D03*
D33*
X331677Y62500D02*
D03*
Y57500D02*
D03*
Y52500D02*
D03*
Y47500D02*
D03*
X310323D02*
D03*
Y52500D02*
D03*
Y57500D02*
D03*
Y62500D02*
D03*
D34*
X341500Y126150D02*
D03*
Y119850D02*
D03*
X56000Y138650D02*
D03*
Y132350D02*
D03*
X341500Y114650D02*
D03*
Y108350D02*
D03*
X56000Y127150D02*
D03*
Y120850D02*
D03*
X208000Y59150D02*
D03*
Y52850D02*
D03*
X202000D02*
D03*
Y59150D02*
D03*
X89500Y25150D02*
D03*
Y18850D02*
D03*
X96500D02*
D03*
Y25150D02*
D03*
D35*
X197756Y19500D02*
D03*
X192244D02*
D03*
X141744Y69000D02*
D03*
X147256D02*
D03*
X118244Y48500D02*
D03*
X123756D02*
D03*
D36*
X147150Y74500D02*
D03*
X140850D02*
D03*
X124650Y13000D02*
D03*
X118350D02*
D03*
Y6000D02*
D03*
X124650D02*
D03*
D37*
X158976Y167697D02*
D03*
X141024D02*
D03*
X248976D02*
D03*
X231024D02*
D03*
X158976Y115197D02*
D03*
X141024D02*
D03*
X248976D02*
D03*
X231024D02*
D03*
D38*
X150000Y192500D02*
D03*
X240000D02*
D03*
X150000Y140000D02*
D03*
X240000D02*
D03*
D39*
X185591Y54764D02*
D03*
Y52795D02*
D03*
Y50827D02*
D03*
Y48858D02*
D03*
X185591Y46890D02*
D03*
X185591Y44921D02*
D03*
Y42953D02*
D03*
Y40984D02*
D03*
Y39016D02*
D03*
Y37047D02*
D03*
Y35079D02*
D03*
X185591Y33110D02*
D03*
X185591Y31142D02*
D03*
Y29173D02*
D03*
Y27205D02*
D03*
Y25236D02*
D03*
X140409D02*
D03*
Y27205D02*
D03*
Y29173D02*
D03*
Y31142D02*
D03*
X140409Y33110D02*
D03*
X140409Y35079D02*
D03*
Y37047D02*
D03*
Y39016D02*
D03*
Y40984D02*
D03*
Y42953D02*
D03*
Y44921D02*
D03*
X140409Y46890D02*
D03*
X140409Y48858D02*
D03*
Y50827D02*
D03*
Y52795D02*
D03*
Y54764D02*
D03*
D40*
X177764Y17410D02*
D03*
X175795D02*
D03*
X173827D02*
D03*
X171858D02*
D03*
X169890Y17409D02*
D03*
X167921Y17410D02*
D03*
X165953D02*
D03*
X163984D02*
D03*
X162016D02*
D03*
X160047D02*
D03*
X158079D02*
D03*
X156110Y17409D02*
D03*
X154142Y17410D02*
D03*
X152173D02*
D03*
X150205D02*
D03*
X148236D02*
D03*
Y62590D02*
D03*
X150205D02*
D03*
X152173D02*
D03*
X154142D02*
D03*
X156110Y62591D02*
D03*
X158079Y62590D02*
D03*
X160047D02*
D03*
X162016D02*
D03*
X163984D02*
D03*
X165953D02*
D03*
X167921D02*
D03*
X169890Y62591D02*
D03*
X171858Y62590D02*
D03*
X173827D02*
D03*
X175795D02*
D03*
X177764D02*
D03*
D41*
X363976Y94657D02*
D03*
Y99579D02*
D03*
Y104500D02*
D03*
Y109421D02*
D03*
Y114342D02*
D03*
X366657Y48118D02*
D03*
Y53039D02*
D03*
Y57961D02*
D03*
Y62882D02*
D03*
D42*
X376969Y123201D02*
D03*
Y85799D02*
D03*
X379650Y71740D02*
D03*
Y39260D02*
D03*
D43*
X280000Y199035D02*
D03*
Y165965D02*
D03*
X110000Y199035D02*
D03*
Y165965D02*
D03*
D44*
X50441Y159240D02*
D03*
X55559D02*
D03*
Y151760D02*
D03*
X53000D02*
D03*
X50441D02*
D03*
X334441Y159240D02*
D03*
X339559D02*
D03*
Y151760D02*
D03*
X337000D02*
D03*
X334441D02*
D03*
D45*
X260161Y122291D02*
D03*
X262720D02*
D03*
X265280D02*
D03*
X267839D02*
D03*
Y139709D02*
D03*
X265280D02*
D03*
X262720D02*
D03*
X260161D02*
D03*
X122382Y122583D02*
D03*
X124941D02*
D03*
X127500D02*
D03*
X130059D02*
D03*
Y140000D02*
D03*
X127500D02*
D03*
X124941D02*
D03*
X122382D02*
D03*
D46*
X264000Y131000D02*
D03*
X126221Y131291D02*
D03*
D47*
X235079Y76634D02*
D03*
Y72500D02*
D03*
Y68366D02*
D03*
X244921D02*
D03*
Y72500D02*
D03*
Y76634D02*
D03*
D48*
X123000Y35350D02*
D03*
Y41650D02*
D03*
D49*
X14488Y41843D02*
D03*
X50512D02*
D03*
Y77866D02*
D03*
X14488D02*
D03*
D50*
X19902Y40465D02*
D03*
X23051D02*
D03*
X26201D02*
D03*
X29350D02*
D03*
X32500D02*
D03*
X35650D02*
D03*
X38799D02*
D03*
X41949D02*
D03*
X45098D02*
D03*
Y79244D02*
D03*
X41949D02*
D03*
X38799D02*
D03*
X35650D02*
D03*
X32500D02*
D03*
X29350D02*
D03*
X26201D02*
D03*
X23051D02*
D03*
X19902D02*
D03*
D51*
X51890Y47256D02*
D03*
Y50406D02*
D03*
Y53555D02*
D03*
Y56705D02*
D03*
Y59854D02*
D03*
Y63004D02*
D03*
Y66154D02*
D03*
Y69303D02*
D03*
Y72453D02*
D03*
X13110D02*
D03*
Y69303D02*
D03*
Y66154D02*
D03*
Y63004D02*
D03*
Y59854D02*
D03*
Y56705D02*
D03*
Y53555D02*
D03*
Y50406D02*
D03*
Y47256D02*
D03*
D52*
X32500Y59854D02*
D03*
D53*
X27827Y73929D02*
D03*
D54*
X46673Y59854D02*
D03*
D55*
X192000Y58256D02*
D03*
Y52744D02*
D03*
X133000Y28756D02*
D03*
Y23244D02*
D03*
X181000Y72744D02*
D03*
Y78256D02*
D03*
X157000D02*
D03*
Y72744D02*
D03*
D56*
X130799Y78335D02*
D03*
Y57665D02*
D03*
X118201Y78335D02*
D03*
Y57665D02*
D03*
D57*
X173231Y78750D02*
D03*
X164569D02*
D03*
Y72450D02*
D03*
X173231D02*
D03*
D58*
X270000Y12905D02*
D03*
Y26094D02*
D03*
X275000Y12905D02*
D03*
Y26094D02*
D03*
X280000Y12905D02*
D03*
Y26094D02*
D03*
X285000Y12905D02*
D03*
Y26094D02*
D03*
X290000Y12905D02*
D03*
Y26094D02*
D03*
D59*
X76992Y75055D02*
D03*
Y66000D02*
D03*
Y56945D02*
D03*
D60*
X101008Y66000D02*
D03*
D61*
X193382Y5760D02*
D03*
Y9500D02*
D03*
Y13240D02*
D03*
X203618D02*
D03*
Y9500D02*
D03*
Y5760D02*
D03*
D62*
X131000Y34996D02*
D03*
Y42004D02*
D03*
D63*
X65000Y63595D02*
D03*
Y75406D02*
D03*
D64*
X26354Y120354D02*
D03*
X15646D02*
D03*
X26354Y106354D02*
D03*
X15646D02*
D03*
X26354Y92354D02*
D03*
X15646D02*
D03*
X86854Y86500D02*
D03*
X76146D02*
D03*
D65*
X65000Y51854D02*
D03*
Y41146D02*
D03*
D66*
X89500Y6547D02*
D03*
Y12453D02*
D03*
X96500Y6547D02*
D03*
Y12453D02*
D03*
X103500Y6547D02*
D03*
Y12453D02*
D03*
X110500Y6547D02*
D03*
Y12453D02*
D03*
D67*
X210283Y69610D02*
D03*
Y76500D02*
D03*
Y83390D02*
D03*
X195717Y69610D02*
D03*
Y76500D02*
D03*
Y83390D02*
D03*
D68*
X46480Y90000D02*
D03*
X39000D02*
D03*
X34260Y28000D02*
D03*
X41740D02*
D03*
D139*
X355000Y205000D02*
D03*
X350000D02*
D03*
X345000D02*
D03*
X340000D02*
D03*
X335000D02*
D03*
X330000D02*
D03*
X325000D02*
D03*
X320000D02*
D03*
X315000D02*
D03*
X75000Y15000D02*
D03*
X70000D02*
D03*
X65000D02*
D03*
X60000D02*
D03*
X55000D02*
D03*
X50000D02*
D03*
X45000D02*
D03*
X40000D02*
D03*
X35000D02*
D03*
X355000D02*
D03*
X350000D02*
D03*
X345000D02*
D03*
X340000D02*
D03*
X335000D02*
D03*
X330000D02*
D03*
X325000D02*
D03*
X320000D02*
D03*
X315000D02*
D03*
X75000Y205000D02*
D03*
X70000D02*
D03*
X65000D02*
D03*
X60000D02*
D03*
X55000D02*
D03*
X50000D02*
D03*
X45000D02*
D03*
X40000D02*
D03*
X35000D02*
D03*
D140*
X310000D02*
D03*
X80000Y15000D02*
D03*
X310000D02*
D03*
X80000Y205000D02*
D03*
D141*
X366000Y153000D02*
D03*
X374000D02*
D03*
X382000D02*
D03*
X358000D02*
D03*
Y145000D02*
D03*
X366000D02*
D03*
X374000D02*
D03*
X382000D02*
D03*
Y137000D02*
D03*
X374000D02*
D03*
X366000D02*
D03*
X358000D02*
D03*
X7500D02*
D03*
X15500D02*
D03*
X23500D02*
D03*
X31500D02*
D03*
Y145000D02*
D03*
X23500D02*
D03*
X15500D02*
D03*
X7500D02*
D03*
Y153000D02*
D03*
X31500D02*
D03*
X23500D02*
D03*
X15500D02*
D03*
X8000Y169500D02*
D03*
X16000D02*
D03*
X24000D02*
D03*
X32000D02*
D03*
Y177500D02*
D03*
X24000D02*
D03*
X16000D02*
D03*
X8000D02*
D03*
Y185500D02*
D03*
X32000D02*
D03*
X24000D02*
D03*
X16000D02*
D03*
X366000D02*
D03*
X374000D02*
D03*
X382000D02*
D03*
X358000D02*
D03*
Y177500D02*
D03*
X366000D02*
D03*
X374000D02*
D03*
X382000D02*
D03*
Y169500D02*
D03*
X374000D02*
D03*
X366000D02*
D03*
X358000D02*
D03*
D142*
X15000Y15000D02*
D03*
X375000D02*
D03*
X15000Y205000D02*
D03*
X375000D02*
D03*
M02*
