G04*
G04 #@! TF.GenerationSoftware,Altium Limited,Altium Designer,20.1.8 (145)*
G04*
G04 Layer_Color=32768*
%FSLAX25Y25*%
%MOIN*%
G70*
G04*
G04 #@! TF.SameCoordinates,B2F8307C-7DD5-46F7-85BE-D442A9776901*
G04*
G04*
G04 #@! TF.FilePolarity,Positive*
G04*
G01*
G75*
%ADD12C,0.00394*%
%ADD89C,0.00197*%
%ADD90C,0.00500*%
D12*
X105000Y116000D02*
Y147000D01*
X81000Y116000D02*
X105000D01*
X81000D02*
Y147000D01*
X105000D01*
X130000Y116000D02*
Y147000D01*
X106000Y116000D02*
X130000D01*
X106000D02*
Y147000D01*
X130000D01*
X105000Y148953D02*
Y179953D01*
X81000Y148953D02*
X105000D01*
X81000D02*
Y179953D01*
X105000D01*
X7303Y33673D02*
Y85051D01*
Y33673D02*
X57697D01*
Y85051D01*
X7303D02*
X57697D01*
X119000Y3000D02*
Y27000D01*
Y3000D02*
X153000D01*
Y27000D01*
X119000D02*
X153000D01*
X130000Y148000D02*
Y179000D01*
X106000Y148000D02*
X130000D01*
X106000D02*
Y179000D01*
X130000D01*
X139000Y34000D02*
X145000D01*
Y46000D01*
X139000D02*
X145000D01*
X139000Y34000D02*
Y46000D01*
X125000Y34000D02*
X131000D01*
Y46000D01*
X125000D02*
X131000D01*
X125000Y34000D02*
Y46000D01*
X132000Y34000D02*
X138000D01*
Y46000D01*
X132000D02*
X138000D01*
X132000Y34000D02*
Y46000D01*
X146000Y34000D02*
X152000D01*
Y46000D01*
X146000D02*
X152000D01*
X146000Y34000D02*
Y46000D01*
X153000Y3000D02*
Y29000D01*
X179000D01*
Y3000D02*
Y29000D01*
X153000Y3000D02*
X179000D01*
X259500Y469D02*
Y23968D01*
Y469D02*
X304500D01*
Y23968D01*
X259500D02*
X304500D01*
D89*
X154252Y44496D02*
X165748D01*
X154252D02*
Y51504D01*
X165748D01*
Y44496D02*
Y51504D01*
X83484Y199094D02*
Y210906D01*
X31516D02*
X83484D01*
X31516Y199094D02*
Y210906D01*
Y199094D02*
X83484D01*
X306516D02*
Y210906D01*
Y199094D02*
X358484D01*
Y210906D01*
X306516D02*
X358484D01*
X306516Y9094D02*
Y20906D01*
Y9094D02*
X358484D01*
Y20906D01*
X306516D02*
X358484D01*
X83484Y9094D02*
Y20906D01*
X31516D02*
X83484D01*
X31516Y9094D02*
Y20906D01*
Y9094D02*
X83484D01*
X89000Y2811D02*
X119000D01*
X89000D02*
Y29189D01*
X119000D01*
Y2811D02*
Y29189D01*
X50335Y136173D02*
Y157827D01*
Y136173D02*
X79665D01*
Y157827D01*
X50335D02*
X79665D01*
X77268Y72528D02*
X110732D01*
Y44181D02*
Y72528D01*
X77268Y44181D02*
X110732D01*
X77268D02*
Y72528D01*
X95858Y72213D02*
Y84496D01*
X78850D02*
X95858D01*
X78850Y72213D02*
Y84496D01*
Y72213D02*
X95858D01*
X221000Y104443D02*
X258443Y67000D01*
X221000Y29557D02*
X258443Y67000D01*
X183557D02*
X221000Y29557D01*
X183557Y67000D02*
X221000Y104443D01*
X131335Y136173D02*
Y157827D01*
Y136173D02*
X160665D01*
Y157827D01*
X131335D02*
X160665D01*
X272012Y58634D02*
X285988D01*
Y75366D01*
X272012D02*
X285988D01*
X272012Y58634D02*
Y75366D01*
X216110Y27528D02*
X229890D01*
Y18472D02*
Y27528D01*
X216110Y18472D02*
X229890D01*
X216110D02*
Y27528D01*
X59110Y53020D02*
Y73689D01*
X72890D01*
Y53020D02*
Y73689D01*
X59110Y53020D02*
X72890D01*
X29504Y114213D02*
Y126496D01*
X12496D02*
X29504D01*
X12496Y114213D02*
Y126496D01*
Y114213D02*
X29504D01*
Y100213D02*
Y112496D01*
X12496D02*
X29504D01*
X12496Y100213D02*
Y112496D01*
Y100213D02*
X29504D01*
Y86213D02*
Y98496D01*
X12496D02*
X29504D01*
X12496Y86213D02*
Y98496D01*
Y86213D02*
X29504D01*
X64858Y38504D02*
X77142D01*
X64858Y21496D02*
Y38504D01*
Y21496D02*
X77142D01*
Y38504D01*
X245595Y11260D02*
Y18740D01*
X232405D02*
X245595D01*
X232405Y11260D02*
Y18740D01*
Y11260D02*
X245595D01*
X232405Y3260D02*
Y10740D01*
Y3260D02*
X245595D01*
Y10740D01*
X232405D02*
X245595D01*
X139047Y47291D02*
X144953D01*
Y58709D01*
X139047D02*
X144953D01*
X139047Y47291D02*
Y58709D01*
X125047Y47291D02*
X130953D01*
Y58709D01*
X125047D02*
X130953D01*
X125047Y47291D02*
Y58709D01*
X132047Y47291D02*
X137953D01*
Y58709D01*
X132047D02*
X137953D01*
X132047Y47291D02*
Y58709D01*
X146047Y47291D02*
X151953D01*
Y58709D01*
X146047D02*
X151953D01*
X146047Y47291D02*
Y58709D01*
X182748Y77496D02*
Y84504D01*
X171252D02*
X182748D01*
X171252Y77496D02*
Y84504D01*
Y77496D02*
X182748D01*
X171252Y98496D02*
Y105504D01*
Y98496D02*
X182748D01*
Y105504D01*
X171252D02*
X182748D01*
X228748Y11496D02*
Y18504D01*
X217252D02*
X228748D01*
X217252Y11496D02*
Y18504D01*
Y11496D02*
X228748D01*
X169898Y31496D02*
Y38504D01*
X158402D02*
X169898D01*
X158402Y31496D02*
Y38504D01*
Y31496D02*
X169898D01*
X155252Y53496D02*
Y60504D01*
Y53496D02*
X166748D01*
Y60504D01*
X155252D02*
X166748D01*
X244748Y19496D02*
Y26504D01*
X233252D02*
X244748D01*
X233252Y19496D02*
Y26504D01*
Y19496D02*
X244748D01*
X151748Y63496D02*
Y70504D01*
X140252D02*
X151748D01*
X140252Y63496D02*
Y70504D01*
Y63496D02*
X151748D01*
X35949Y86260D02*
Y93740D01*
Y86260D02*
X49531D01*
Y93740D01*
X35949D02*
X49531D01*
X44791Y24260D02*
Y31740D01*
X31209D02*
X44791D01*
X31209Y24260D02*
Y31740D01*
Y24260D02*
X44791D01*
D90*
X183000Y99000D02*
X186000D01*
Y85000D02*
Y99000D01*
X168000Y85000D02*
X186000D01*
X168000D02*
Y99000D01*
X183000D01*
M02*
