G04*
G04 #@! TF.GenerationSoftware,Altium Limited,Altium Designer,21.0.8 (223)*
G04*
G04 Layer_Color=8388736*
%FSLAX25Y25*%
%MOIN*%
G70*
G04*
G04 #@! TF.SameCoordinates,7C19FEE0-9405-418D-A0C6-2703AC14626A*
G04*
G04*
G04 #@! TF.FilePolarity,Negative*
G04*
G01*
G75*
%ADD61R,0.04528X0.02362*%
%ADD69C,0.03543*%
%ADD70R,0.12598X0.09055*%
%ADD71R,0.06299X0.06378*%
%ADD72R,0.08268X0.04724*%
%ADD73R,0.03543X0.04724*%
%ADD74R,0.01968X0.05709*%
%ADD75R,0.06693X0.05906*%
%ADD76R,0.09449X0.05512*%
%ADD77R,0.07480X0.07874*%
%ADD78R,0.11102X0.05354*%
%ADD79R,0.06280X0.12008*%
%ADD80R,0.06280X0.03150*%
G04:AMPARAMS|DCode=81|XSize=318.9mil|YSize=240.16mil|CornerRadius=13.78mil|HoleSize=0mil|Usage=FLASHONLY|Rotation=0.000|XOffset=0mil|YOffset=0mil|HoleType=Round|Shape=RoundedRectangle|*
%AMROUNDEDRECTD81*
21,1,0.31890,0.21260,0,0,0.0*
21,1,0.29134,0.24016,0,0,0.0*
1,1,0.02756,0.14567,-0.10630*
1,1,0.02756,-0.14567,-0.10630*
1,1,0.02756,-0.14567,0.10630*
1,1,0.02756,0.14567,0.10630*
%
%ADD81ROUNDEDRECTD81*%
%ADD82R,0.02520X0.04095*%
%ADD83R,0.02756X0.05315*%
%ADD84R,0.02362X0.04528*%
%ADD85R,0.04095X0.02520*%
%ADD86R,0.05315X0.13583*%
%ADD87R,0.14370X0.19685*%
%ADD88R,0.06398X0.02953*%
%ADD89R,0.04331X0.03543*%
%ADD90R,0.03465X0.04252*%
%ADD91R,0.03543X0.04331*%
%ADD92R,0.05118X0.09055*%
%ADD93R,0.23228X0.25591*%
%ADD94R,0.06201X0.01575*%
%ADD95R,0.01575X0.06201*%
%ADD96R,0.07480X0.03150*%
%ADD97R,0.09055X0.06693*%
%ADD98R,0.08858X0.17323*%
%ADD99R,0.01968X0.05118*%
%ADD100R,0.02165X0.06004*%
%ADD101R,0.07795X0.07008*%
%ADD102R,0.05315X0.02756*%
%ADD103R,0.06181X0.04409*%
%ADD104R,0.06890X0.06890*%
%ADD105R,0.02362X0.04134*%
%ADD106R,0.04134X0.02362*%
%ADD107R,0.20079X0.09646*%
%ADD108R,0.04803X0.04528*%
%ADD109R,0.04331X0.13386*%
%ADD110R,0.04252X0.03465*%
%ADD111R,0.04331X0.06496*%
%ADD112R,0.05906X0.04921*%
%ADD113R,0.02953X0.11614*%
%ADD114R,0.07874X0.03937*%
%ADD115R,0.07874X0.12992*%
%ADD116R,0.04921X0.02756*%
%ADD117R,0.07402X0.04409*%
%ADD118R,0.09252X0.07284*%
%ADD119R,0.05512X0.11496*%
%ADD120R,0.11496X0.05512*%
%ADD121R,0.03543X0.03543*%
%ADD122R,0.06693X0.04331*%
%ADD123R,0.04528X0.05906*%
%ADD124C,0.03347*%
%ADD125O,0.04724X0.06299*%
%ADD126R,0.04724X0.06299*%
%ADD127C,0.03740*%
%ADD128C,0.24016*%
D61*
X110480Y146500D02*
D03*
X101520D02*
D03*
X251520Y72500D02*
D03*
X260480D02*
D03*
X266980Y89500D02*
D03*
X258020D02*
D03*
X277520Y146500D02*
D03*
X286480D02*
D03*
D69*
X310000Y205000D02*
X355000D01*
X35000Y15000D02*
X80000D01*
X310000D02*
X355000D01*
X35000Y205000D02*
X80000D01*
D70*
X237689Y92500D02*
D03*
D71*
X250366D02*
D03*
D72*
X102059Y101000D02*
D03*
X287059Y101500D02*
D03*
D73*
X94579Y101000D02*
D03*
X279579Y101500D02*
D03*
D74*
X240118Y16532D02*
D03*
X229882D02*
D03*
X232441D02*
D03*
X235000D02*
D03*
X237559D02*
D03*
D75*
X222402Y15646D02*
D03*
X247598D02*
D03*
D76*
X220236Y6000D02*
D03*
X249764D02*
D03*
D77*
X230472D02*
D03*
X239528D02*
D03*
D78*
X308500Y161764D02*
D03*
Y172236D02*
D03*
X321500D02*
D03*
Y161764D02*
D03*
X68500Y174736D02*
D03*
Y164264D02*
D03*
X81000Y174736D02*
D03*
Y164264D02*
D03*
D79*
X341146Y175862D02*
D03*
X332854D02*
D03*
X57146D02*
D03*
X48854D02*
D03*
D80*
X341146Y166709D02*
D03*
X332854D02*
D03*
X57146D02*
D03*
X48854D02*
D03*
D81*
X370000Y145000D02*
D03*
X19500D02*
D03*
X20000Y177500D02*
D03*
X370000D02*
D03*
D82*
X96850Y108500D02*
D03*
X103150D02*
D03*
X102850Y152500D02*
D03*
X109150D02*
D03*
X266150Y146000D02*
D03*
X259850D02*
D03*
X128150Y146500D02*
D03*
X121850D02*
D03*
X252850Y78500D02*
D03*
X259150D02*
D03*
X251850Y83500D02*
D03*
X258150D02*
D03*
X280850Y108500D02*
D03*
X287150D02*
D03*
X285150Y152500D02*
D03*
X278850D02*
D03*
D83*
X97866Y114579D02*
D03*
X102000D02*
D03*
X106134D02*
D03*
Y124421D02*
D03*
X102000D02*
D03*
X97866D02*
D03*
X281866Y114579D02*
D03*
X286000D02*
D03*
X290134D02*
D03*
Y124421D02*
D03*
X286000D02*
D03*
X281866D02*
D03*
D84*
X102000Y139980D02*
D03*
Y131020D02*
D03*
X267000Y72520D02*
D03*
Y81480D02*
D03*
X286000Y139980D02*
D03*
Y131020D02*
D03*
D85*
X96000Y138650D02*
D03*
Y132350D02*
D03*
X229000Y71350D02*
D03*
Y77650D02*
D03*
X273000Y80150D02*
D03*
Y73850D02*
D03*
X280000Y138650D02*
D03*
Y132350D02*
D03*
D86*
X63689Y137500D02*
D03*
X87311D02*
D03*
X63689Y122000D02*
D03*
X87311D02*
D03*
X325811Y137500D02*
D03*
X302189D02*
D03*
X325811Y122000D02*
D03*
X302189D02*
D03*
D87*
X217047Y150000D02*
D03*
X172953D02*
D03*
D88*
X331677Y62500D02*
D03*
Y57500D02*
D03*
Y52500D02*
D03*
Y47500D02*
D03*
X310323D02*
D03*
Y52500D02*
D03*
Y57500D02*
D03*
Y62500D02*
D03*
D89*
X341500Y126150D02*
D03*
Y119850D02*
D03*
X56000Y138650D02*
D03*
Y132350D02*
D03*
X341500Y114650D02*
D03*
Y108350D02*
D03*
X56000Y127150D02*
D03*
Y120850D02*
D03*
X208000Y59150D02*
D03*
Y52850D02*
D03*
X202000D02*
D03*
Y59150D02*
D03*
X89500Y25150D02*
D03*
Y18850D02*
D03*
X96500D02*
D03*
Y25150D02*
D03*
D90*
X197756Y19500D02*
D03*
X192244D02*
D03*
X141744Y69000D02*
D03*
X147256D02*
D03*
X118244Y48500D02*
D03*
X123756D02*
D03*
D91*
X147150Y74500D02*
D03*
X140850D02*
D03*
X124650Y13000D02*
D03*
X118350D02*
D03*
Y6000D02*
D03*
X124650D02*
D03*
D92*
X158976Y167697D02*
D03*
X141024D02*
D03*
X248976D02*
D03*
X231024D02*
D03*
X158976Y115197D02*
D03*
X141024D02*
D03*
X248976D02*
D03*
X231024D02*
D03*
D93*
X150000Y192500D02*
D03*
X240000D02*
D03*
X150000Y140000D02*
D03*
X240000D02*
D03*
D94*
X185591Y54764D02*
D03*
Y52795D02*
D03*
Y50827D02*
D03*
Y48858D02*
D03*
X185591Y46890D02*
D03*
X185591Y44921D02*
D03*
Y42953D02*
D03*
Y40984D02*
D03*
Y39016D02*
D03*
Y37047D02*
D03*
Y35079D02*
D03*
X185591Y33110D02*
D03*
X185591Y31142D02*
D03*
Y29173D02*
D03*
Y27205D02*
D03*
Y25236D02*
D03*
X140409D02*
D03*
Y27205D02*
D03*
Y29173D02*
D03*
Y31142D02*
D03*
X140409Y33110D02*
D03*
X140409Y35079D02*
D03*
Y37047D02*
D03*
Y39016D02*
D03*
Y40984D02*
D03*
Y42953D02*
D03*
Y44921D02*
D03*
X140409Y46890D02*
D03*
X140409Y48858D02*
D03*
Y50827D02*
D03*
Y52795D02*
D03*
Y54764D02*
D03*
D95*
X177764Y17410D02*
D03*
X175795D02*
D03*
X173827D02*
D03*
X171858D02*
D03*
X169890Y17409D02*
D03*
X167921Y17410D02*
D03*
X165953D02*
D03*
X163984D02*
D03*
X162016D02*
D03*
X160047D02*
D03*
X158079D02*
D03*
X156110Y17409D02*
D03*
X154142Y17410D02*
D03*
X152173D02*
D03*
X150205D02*
D03*
X148236D02*
D03*
Y62590D02*
D03*
X150205D02*
D03*
X152173D02*
D03*
X154142D02*
D03*
X156110Y62591D02*
D03*
X158079Y62590D02*
D03*
X160047D02*
D03*
X162016D02*
D03*
X163984D02*
D03*
X165953D02*
D03*
X167921D02*
D03*
X169890Y62591D02*
D03*
X171858Y62590D02*
D03*
X173827D02*
D03*
X175795D02*
D03*
X177764D02*
D03*
D96*
X363976Y94657D02*
D03*
Y99579D02*
D03*
Y104500D02*
D03*
Y109421D02*
D03*
Y114342D02*
D03*
X366657Y48118D02*
D03*
Y53039D02*
D03*
Y57961D02*
D03*
Y62882D02*
D03*
D97*
X376969Y123201D02*
D03*
Y85799D02*
D03*
X379650Y71740D02*
D03*
Y39260D02*
D03*
D98*
X280000Y199035D02*
D03*
Y165965D02*
D03*
X110000Y199035D02*
D03*
Y165965D02*
D03*
D99*
X50441Y159240D02*
D03*
X55559D02*
D03*
Y151760D02*
D03*
X53000D02*
D03*
X50441D02*
D03*
X334441Y159240D02*
D03*
X339559D02*
D03*
Y151760D02*
D03*
X337000D02*
D03*
X334441D02*
D03*
D100*
X260161Y122291D02*
D03*
X262720D02*
D03*
X265280D02*
D03*
X267839D02*
D03*
Y139709D02*
D03*
X265280D02*
D03*
X262720D02*
D03*
X260161D02*
D03*
X122382Y122583D02*
D03*
X124941D02*
D03*
X127500D02*
D03*
X130059D02*
D03*
Y140000D02*
D03*
X127500D02*
D03*
X124941D02*
D03*
X122382D02*
D03*
D101*
X264000Y131000D02*
D03*
X126221Y131291D02*
D03*
D102*
X235079Y76634D02*
D03*
Y72500D02*
D03*
Y68366D02*
D03*
X244921D02*
D03*
Y72500D02*
D03*
Y76634D02*
D03*
D103*
X123000Y35350D02*
D03*
Y41650D02*
D03*
D104*
X14488Y41843D02*
D03*
X50512D02*
D03*
Y77866D02*
D03*
X14488D02*
D03*
D105*
X19902Y40465D02*
D03*
X23051D02*
D03*
X26201D02*
D03*
X29350D02*
D03*
X32500D02*
D03*
X35650D02*
D03*
X38799D02*
D03*
X41949D02*
D03*
X45098D02*
D03*
Y79244D02*
D03*
X41949D02*
D03*
X38799D02*
D03*
X35650D02*
D03*
X32500D02*
D03*
X29350D02*
D03*
X26201D02*
D03*
X23051D02*
D03*
X19902D02*
D03*
D106*
X51890Y47256D02*
D03*
Y50406D02*
D03*
Y53555D02*
D03*
Y56705D02*
D03*
Y59854D02*
D03*
Y63004D02*
D03*
Y66154D02*
D03*
Y69303D02*
D03*
Y72453D02*
D03*
X13110D02*
D03*
Y69303D02*
D03*
Y66154D02*
D03*
Y63004D02*
D03*
Y59854D02*
D03*
Y56705D02*
D03*
Y53555D02*
D03*
Y50406D02*
D03*
Y47256D02*
D03*
D107*
X32500Y59854D02*
D03*
D108*
X27827Y73929D02*
D03*
D109*
X46673Y59854D02*
D03*
D110*
X192000Y58256D02*
D03*
Y52744D02*
D03*
X133000Y28756D02*
D03*
Y23244D02*
D03*
X181000Y72744D02*
D03*
Y78256D02*
D03*
X157000D02*
D03*
Y72744D02*
D03*
D111*
X130799Y78335D02*
D03*
Y57665D02*
D03*
X118201Y78335D02*
D03*
Y57665D02*
D03*
D112*
X173231Y78750D02*
D03*
X164569D02*
D03*
Y72450D02*
D03*
X173231D02*
D03*
D113*
X270000Y12905D02*
D03*
Y26094D02*
D03*
X275000Y12905D02*
D03*
Y26094D02*
D03*
X280000Y12905D02*
D03*
Y26094D02*
D03*
X285000Y12905D02*
D03*
Y26094D02*
D03*
X290000Y12905D02*
D03*
Y26094D02*
D03*
D114*
X76992Y75055D02*
D03*
Y66000D02*
D03*
Y56945D02*
D03*
D115*
X101008Y66000D02*
D03*
D116*
X193382Y5760D02*
D03*
Y9500D02*
D03*
Y13240D02*
D03*
X203618D02*
D03*
Y9500D02*
D03*
Y5760D02*
D03*
D117*
X131000Y34996D02*
D03*
Y42004D02*
D03*
D118*
X65000Y63595D02*
D03*
Y75406D02*
D03*
D119*
X26354Y120354D02*
D03*
X15646D02*
D03*
X26354Y106354D02*
D03*
X15646D02*
D03*
X26354Y92354D02*
D03*
X15646D02*
D03*
X86854Y86500D02*
D03*
X76146D02*
D03*
D120*
X65000Y51854D02*
D03*
Y41146D02*
D03*
D121*
X89500Y6547D02*
D03*
Y12453D02*
D03*
X96500Y6547D02*
D03*
Y12453D02*
D03*
X103500Y6547D02*
D03*
Y12453D02*
D03*
X110500Y6547D02*
D03*
Y12453D02*
D03*
D122*
X210283Y69610D02*
D03*
Y76500D02*
D03*
Y83390D02*
D03*
X195717Y69610D02*
D03*
Y76500D02*
D03*
Y83390D02*
D03*
D123*
X46480Y90000D02*
D03*
X39000D02*
D03*
X34260Y28000D02*
D03*
X41740D02*
D03*
D124*
X185500Y68500D02*
Y86500D01*
X169000D02*
X185500D01*
X169000Y86500D02*
X169000Y86500D01*
X152500Y86500D02*
X169000D01*
X152500Y68500D02*
Y86500D01*
D125*
X355000Y205000D02*
D03*
X350000D02*
D03*
X345000D02*
D03*
X340000D02*
D03*
X335000D02*
D03*
X330000D02*
D03*
X325000D02*
D03*
X320000D02*
D03*
X315000D02*
D03*
X75000Y15000D02*
D03*
X70000D02*
D03*
X65000D02*
D03*
X60000D02*
D03*
X55000D02*
D03*
X50000D02*
D03*
X45000D02*
D03*
X40000D02*
D03*
X35000D02*
D03*
X355000D02*
D03*
X350000D02*
D03*
X345000D02*
D03*
X340000D02*
D03*
X335000D02*
D03*
X330000D02*
D03*
X325000D02*
D03*
X320000D02*
D03*
X315000D02*
D03*
X75000Y205000D02*
D03*
X70000D02*
D03*
X65000D02*
D03*
X60000D02*
D03*
X55000D02*
D03*
X50000D02*
D03*
X45000D02*
D03*
X40000D02*
D03*
X35000D02*
D03*
D126*
X310000D02*
D03*
X80000Y15000D02*
D03*
X310000D02*
D03*
X80000Y205000D02*
D03*
D127*
X366000Y153000D02*
D03*
X374000D02*
D03*
X382000D02*
D03*
X358000D02*
D03*
Y145000D02*
D03*
X366000D02*
D03*
X374000D02*
D03*
X382000D02*
D03*
Y137000D02*
D03*
X374000D02*
D03*
X366000D02*
D03*
X358000D02*
D03*
X7500D02*
D03*
X15500D02*
D03*
X23500D02*
D03*
X31500D02*
D03*
Y145000D02*
D03*
X23500D02*
D03*
X15500D02*
D03*
X7500D02*
D03*
Y153000D02*
D03*
X31500D02*
D03*
X23500D02*
D03*
X15500D02*
D03*
X8000Y169500D02*
D03*
X16000D02*
D03*
X24000D02*
D03*
X32000D02*
D03*
Y177500D02*
D03*
X24000D02*
D03*
X16000D02*
D03*
X8000D02*
D03*
Y185500D02*
D03*
X32000D02*
D03*
X24000D02*
D03*
X16000D02*
D03*
X366000D02*
D03*
X374000D02*
D03*
X382000D02*
D03*
X358000D02*
D03*
Y177500D02*
D03*
X366000D02*
D03*
X374000D02*
D03*
X382000D02*
D03*
Y169500D02*
D03*
X374000D02*
D03*
X366000D02*
D03*
X358000D02*
D03*
D128*
X15000Y15000D02*
D03*
X375000D02*
D03*
X15000Y205000D02*
D03*
X375000D02*
D03*
M02*
