M48
;Layer_Color=9474304
;FILE_FORMAT=2:5
INCH,TZ
;TYPE=PLATED
T1F00S00C0.01772
T2F00S00C0.03150
T3F00S00C0.13386
%
T01
X8500Y35854
Y41854
X14500Y35854
X20500
X26500
X35000Y35354
X48000Y31000
Y27000
X52000
Y31000
X62000Y35000
Y41000
X68000
X74000
X80000
Y35000
Y25000
X62000
X63000Y50354
X69000
X98000Y48354
Y54354
X105000Y48354
X98000Y61354
Y68354
X105000
X99000Y75354
Y80354
X76000Y81354
Y75354
X69000Y76354
X63000
X44000Y73354
X40000Y62354
Y57354
X35000
X30000
Y62354
X25000
Y57354
X35000Y62354
X32000Y88354
Y92354
Y96354
Y102354
Y106354
Y110354
Y116354
Y120354
Y124354
X10000
Y120354
Y116354
Y110354
Y106354
Y102354
Y96354
Y92354
Y88354
X53000Y90000
T02
X35000Y15000
X40000
X45000
X50000
X55000
X60000
X65000
X70000
X75000
X80000
X310000
X315000
X320000
X325000
X330000
X335000
X340000
X345000
X350000
X355000
Y205000
X350000
X345000
X340000
X335000
X330000
X325000
X320000
X315000
X310000
X80000
X75000
X70000
X65000
X60000
X55000
X50000
X45000
X40000
X35000
T03
X15000Y15000
X375000
Y205000
X15000
M30
