G04*
G04 #@! TF.GenerationSoftware,Altium Limited,Altium Designer,21.0.8 (223)*
G04*
G04 Layer_Color=16711935*
%FSLAX25Y25*%
%MOIN*%
G70*
G04*
G04 #@! TF.SameCoordinates,7C19FEE0-9405-418D-A0C6-2703AC14626A*
G04*
G04*
G04 #@! TF.FilePolarity,Positive*
G04*
G01*
G75*
%ADD10C,0.00787*%
%ADD12C,0.00394*%
D10*
X233634Y97618D02*
X250366D01*
Y87382D02*
Y97618D01*
X233634Y87382D02*
X250366D01*
X233634D02*
Y97618D01*
X95563Y98244D02*
Y103756D01*
X103437D01*
Y98244D02*
Y103756D01*
X95563Y98244D02*
X103437D01*
X280563Y98744D02*
X288437D01*
Y104256D01*
X280563D02*
X288437D01*
X280563Y98744D02*
Y104256D01*
X366657Y39457D02*
X386343D01*
X366657D02*
Y71543D01*
X386343D01*
Y39457D02*
Y71543D01*
X363976Y85996D02*
X383661D01*
X363976D02*
Y118083D01*
X383661D01*
Y85996D02*
Y118083D01*
X220236Y17221D02*
X249764D01*
Y-2465D02*
Y17221D01*
X220236Y-2465D02*
X249764D01*
X220236D02*
Y17221D01*
X212500Y0D02*
X257500D01*
X222795Y-4827D02*
Y-2465D01*
Y-4827D02*
X247205D01*
Y-2465D01*
X219252Y-4827D02*
X220236Y-2465D01*
X219252Y-4827D02*
X220236D01*
X221220Y-2465D01*
X249764D02*
X250748Y-4827D01*
X249764D02*
X250748D01*
X248780Y-2465D02*
X249764Y-4827D01*
X330898Y181000D02*
X343102D01*
X330898Y166000D02*
Y181000D01*
Y166000D02*
X343102D01*
Y181000D01*
X46898D02*
X59102D01*
X46898Y166000D02*
Y181000D01*
Y166000D02*
X59102D01*
Y181000D01*
X137205Y174705D02*
Y199193D01*
Y174705D02*
X162795D01*
Y199193D01*
X137205D02*
X162795D01*
X386024Y83043D02*
Y125957D01*
X366339Y83043D02*
X386024D01*
X366339D02*
Y125957D01*
X386024D01*
X386343Y39457D02*
Y71543D01*
X366657Y39457D02*
X386343D01*
X366657D02*
Y71543D01*
X386343D01*
X227205Y174705D02*
Y199193D01*
Y174705D02*
X252795D01*
Y199193D01*
X227205D02*
X252795D01*
X137205Y122205D02*
Y146693D01*
Y122205D02*
X162795D01*
Y146693D01*
X137205D02*
X162795D01*
X227205Y122205D02*
Y146693D01*
Y122205D02*
X252795D01*
Y146693D01*
X227205D02*
X252795D01*
X12815Y79539D02*
X52185D01*
Y40169D02*
Y79539D01*
X12815Y40169D02*
X52185D01*
X12815D02*
Y79539D01*
X133358Y59142D02*
Y76858D01*
X115642Y59142D02*
X133358D01*
X115642D02*
Y76858D01*
X133358D01*
X162601Y80521D02*
X175199D01*
X162601Y70679D02*
Y80521D01*
Y70679D02*
X175199D01*
Y80521D01*
X91075Y6350D02*
Y12650D01*
X87925D02*
X91075D01*
X87925Y6350D02*
Y12650D01*
Y6350D02*
X91075D01*
X98075D02*
Y12650D01*
X94925D02*
X98075D01*
X94925Y6350D02*
Y12650D01*
Y6350D02*
X98075D01*
X105075D02*
Y12650D01*
X101925D02*
X105075D01*
X101925Y6350D02*
Y12650D01*
Y6350D02*
X105075D01*
X112075D02*
Y12650D01*
X108925D02*
X112075D01*
X108925Y6350D02*
Y12650D01*
Y6350D02*
X112075D01*
X210677Y65870D02*
Y87130D01*
X195323D02*
X210677D01*
X195323Y65870D02*
Y87130D01*
Y65870D02*
X210677D01*
D12*
X307500Y209921D02*
X357500D01*
Y200079D02*
Y209921D01*
X307500Y200079D02*
X357500D01*
X307500D02*
Y209921D01*
X82500Y10079D02*
Y19921D01*
X32500D02*
X82500D01*
X32500Y10079D02*
Y19921D01*
Y10079D02*
X82500D01*
X307500Y19921D02*
X357500D01*
Y10079D02*
Y19921D01*
X307500Y10079D02*
X357500D01*
X307500D02*
Y19921D01*
X82500Y200079D02*
Y209921D01*
X32500D02*
X82500D01*
X32500Y200079D02*
Y209921D01*
Y200079D02*
X82500D01*
X303579Y173299D02*
X313421D01*
X303579Y160701D02*
Y173299D01*
Y160701D02*
X313421D01*
Y173299D01*
X103150Y106925D02*
Y110075D01*
X96850D02*
X103150D01*
X96850Y106925D02*
Y110075D01*
Y106925D02*
X103150D01*
X96095Y116547D02*
Y122453D01*
X107905D01*
Y116547D02*
Y122453D01*
X96095Y116547D02*
X107905D01*
X96095Y120681D02*
X100228Y116547D01*
X104559Y132055D02*
Y138945D01*
X99441Y132055D02*
X104559D01*
X99441D02*
Y138945D01*
X104559D01*
X102492D02*
X104559Y136878D01*
X94425Y132350D02*
X97575D01*
Y138650D01*
X94425D02*
X97575D01*
X94425Y132350D02*
Y138650D01*
X109150Y150925D02*
Y154075D01*
X102850D02*
X109150D01*
X102850Y150925D02*
Y154075D01*
Y150925D02*
X109150D01*
X102555Y143941D02*
X109445D01*
X102555D02*
Y149059D01*
X109445D01*
Y143941D02*
Y149059D01*
X107378Y143941D02*
X109445Y146008D01*
X87902Y131299D02*
Y143701D01*
X63098D02*
X87902D01*
X63098Y131299D02*
Y143701D01*
Y131299D02*
X87902D01*
Y115799D02*
Y128201D01*
X63098D02*
X87902D01*
X63098Y115799D02*
Y128201D01*
Y115799D02*
X87902D01*
X169016Y124606D02*
Y175394D01*
Y124606D02*
X220984D01*
Y175394D01*
X169016D02*
X220984D01*
X326421Y160701D02*
Y173299D01*
X316579Y160701D02*
X326421D01*
X316579D02*
Y173299D01*
X326421D01*
X73421Y163201D02*
Y175799D01*
X63579Y163201D02*
X73421D01*
X63579D02*
Y175799D01*
X73421D01*
X85921Y163201D02*
Y175799D01*
X76079Y163201D02*
X85921D01*
X76079D02*
Y175799D01*
X85921D01*
X313323Y59646D02*
X318323Y64646D01*
X313323Y45354D02*
Y64646D01*
Y45354D02*
X328677D01*
Y64646D01*
X313323D02*
X328677D01*
X343173Y119949D02*
Y126051D01*
X339827Y119949D02*
X343173D01*
X339827D02*
Y126051D01*
X343173D01*
X57673Y132449D02*
Y138551D01*
X54327Y132449D02*
X57673D01*
X54327D02*
Y138551D01*
X57673D01*
X343173Y108449D02*
Y114551D01*
X339827Y108449D02*
X343173D01*
X339827D02*
Y114551D01*
X343173D01*
X57673Y120949D02*
Y127051D01*
X54327Y120949D02*
X57673D01*
X54327D02*
Y127051D01*
X57673D01*
X191850Y17925D02*
X198150D01*
X191850D02*
Y21075D01*
X198150D01*
Y17925D02*
Y21075D01*
X140949Y72827D02*
X147051D01*
X140949D02*
Y76173D01*
X147051D01*
Y72827D02*
Y76173D01*
X180717Y59685D02*
X182685Y57717D01*
X143315Y59685D02*
X182685D01*
X143315Y20315D02*
Y59685D01*
Y20315D02*
X182685D01*
Y59685D01*
X300276Y162224D02*
Y192638D01*
X290138Y202776D02*
X300276Y192638D01*
X269862Y202776D02*
X290138D01*
X259724Y192638D02*
X269862Y202776D01*
X259724Y162224D02*
Y192638D01*
Y162224D02*
X300276D01*
X130276D02*
Y192638D01*
X120138Y202776D02*
X130276Y192638D01*
X99862Y202776D02*
X120138D01*
X89724Y192638D02*
X99862Y202776D01*
X89724Y162224D02*
Y192638D01*
Y162224D02*
X130276D01*
X49063Y155598D02*
X51622Y153039D01*
X49063D02*
X56937D01*
Y157961D01*
X49063D02*
X56937D01*
X49063Y153039D02*
Y157961D01*
X333063Y155598D02*
X335622Y153039D01*
X333063D02*
X340937D01*
Y157961D01*
X333063D02*
X340937D01*
X333063Y153039D02*
Y157961D01*
X280095Y116547D02*
Y122453D01*
X291905D01*
Y116547D02*
Y122453D01*
X280095Y116547D02*
X291905D01*
X280095Y120681D02*
X284228Y116547D01*
X258095Y125094D02*
Y136906D01*
X269905D01*
Y125094D02*
Y136906D01*
X258095Y125094D02*
X269905D01*
X258095Y127654D02*
X260653Y125094D01*
X120315Y125386D02*
Y137197D01*
X132126D01*
Y125386D02*
Y137197D01*
X120315Y125386D02*
X132126D01*
X120315Y127945D02*
X122874Y125386D01*
X259850Y144425D02*
X266150D01*
X259850D02*
Y147575D01*
X266150D01*
Y144425D02*
Y147575D01*
X121850Y144925D02*
X128150D01*
X121850D02*
Y148075D01*
X128150D01*
Y144925D02*
Y148075D01*
X252850Y80075D02*
X259150D01*
Y76925D02*
Y80075D01*
X252850Y76925D02*
X259150D01*
X252850D02*
Y80075D01*
X251850Y85075D02*
X258150D01*
Y81925D02*
Y85075D01*
X251850Y81925D02*
X258150D01*
X251850D02*
Y85075D01*
X227425Y71350D02*
Y77650D01*
X230575D01*
Y71350D02*
Y77650D01*
X227425Y71350D02*
X230575D01*
X274575Y73850D02*
Y80150D01*
X271425Y73850D02*
X274575D01*
X271425D02*
Y80150D01*
X274575D01*
X257378Y69941D02*
X259445Y72008D01*
Y69941D02*
Y75059D01*
X252555D02*
X259445D01*
X252555Y69941D02*
Y75059D01*
Y69941D02*
X259445D01*
X267492Y80445D02*
X269559Y78378D01*
X264441Y80445D02*
X269559D01*
X264441Y73555D02*
Y80445D01*
Y73555D02*
X269559D01*
Y80445D01*
X259055Y89992D02*
X261122Y92059D01*
X259055Y86941D02*
Y92059D01*
Y86941D02*
X265945D01*
Y92059D01*
X259055D02*
X265945D01*
X237047Y78405D02*
X242953D01*
Y66594D02*
Y78405D01*
X237047Y66594D02*
X242953D01*
X237047D02*
Y78405D01*
Y74272D02*
X241181Y78405D01*
X120539Y34563D02*
Y42437D01*
X125461D01*
Y34563D02*
Y42437D01*
X120539Y34563D02*
X125461D01*
X193575Y52350D02*
Y58650D01*
X190425Y52350D02*
X193575D01*
X190425D02*
Y58650D01*
X193575D01*
X267500Y26193D02*
X292500D01*
X267500Y12807D02*
X292500D01*
X267500D02*
Y26193D01*
X82110Y78795D02*
X91165D01*
X82110Y69740D02*
Y78795D01*
X95890D01*
Y53205D02*
Y78795D01*
X82110Y53205D02*
X95890D01*
X82110D02*
Y78795D01*
X201697Y3744D02*
Y15256D01*
X195303D02*
X201697D01*
X195303Y3744D02*
Y15256D01*
Y3744D02*
X201697D01*
X127988Y42614D02*
X134012D01*
X127988Y34386D02*
Y42614D01*
Y34386D02*
X134012D01*
Y42614D01*
X59488Y62610D02*
Y76390D01*
X70512D01*
Y62610D02*
Y76390D01*
X59488Y62610D02*
X70512D01*
X14701Y115433D02*
X27299D01*
X14701D02*
Y125276D01*
X27299D01*
Y115433D02*
Y125276D01*
X14701Y101433D02*
X27299D01*
X14701D02*
Y111276D01*
X27299D01*
Y101433D02*
Y111276D01*
X14701Y87433D02*
X27299D01*
X14701D02*
Y97276D01*
X27299D01*
Y87433D02*
Y97276D01*
X75201Y81579D02*
X87799D01*
X75201D02*
Y91421D01*
X87799D01*
Y81579D02*
Y91421D01*
X69921Y40201D02*
Y52799D01*
X60079Y40201D02*
X69921D01*
X60079D02*
Y52799D01*
X69921D01*
X288559Y132055D02*
Y138945D01*
X283441Y132055D02*
X288559D01*
X283441D02*
Y138945D01*
X288559D01*
X286492D02*
X288559Y136878D01*
X278555Y149059D02*
X285445D01*
Y143941D02*
Y149059D01*
X278555Y143941D02*
X285445D01*
X278555D02*
Y149059D01*
Y146992D02*
X280622Y149059D01*
X301598Y131299D02*
Y143701D01*
Y131299D02*
X326402D01*
Y143701D01*
X301598D02*
X326402D01*
X301598Y115799D02*
Y128201D01*
Y115799D02*
X326402D01*
Y128201D01*
X301598D02*
X326402D01*
X209673Y52949D02*
Y59051D01*
X206327Y52949D02*
X209673D01*
X206327D02*
Y59051D01*
X209673D01*
X200327D02*
X203673D01*
X200327Y52949D02*
Y59051D01*
Y52949D02*
X203673D01*
Y59051D01*
X91173Y18949D02*
Y25051D01*
X87827Y18949D02*
X91173D01*
X87827D02*
Y25051D01*
X91173D01*
X94827D02*
X98173D01*
X94827Y18949D02*
Y25051D01*
Y18949D02*
X98173D01*
Y25051D01*
X118449Y11327D02*
X124551D01*
X118449D02*
Y14673D01*
X124551D01*
Y11327D02*
Y14673D01*
Y4327D02*
Y7673D01*
X118449D02*
X124551D01*
X118449Y4327D02*
Y7673D01*
Y4327D02*
X124551D01*
X131425Y22850D02*
X134575D01*
Y29150D01*
X131425D02*
X134575D01*
X131425Y22850D02*
Y29150D01*
X147650Y67425D02*
Y70575D01*
X141350D02*
X147650D01*
X141350Y67425D02*
Y70575D01*
Y67425D02*
X147650D01*
X124150Y46925D02*
Y50075D01*
X117850D02*
X124150D01*
X117850Y46925D02*
Y50075D01*
Y46925D02*
X124150D01*
X278425Y132350D02*
X281575D01*
Y138650D01*
X278425D02*
X281575D01*
X278425Y132350D02*
Y138650D01*
X287150Y106925D02*
Y110075D01*
X280850D02*
X287150D01*
X280850Y106925D02*
Y110075D01*
Y106925D02*
X287150D01*
X278850Y150925D02*
Y154075D01*
Y150925D02*
X285150D01*
Y154075D01*
X278850D02*
X285150D01*
X179425Y72350D02*
Y78650D01*
X182575D01*
Y72350D02*
Y78650D01*
X179425Y72350D02*
X182575D01*
X158575D02*
Y78650D01*
X155425Y72350D02*
X158575D01*
X155425D02*
Y78650D01*
X158575D01*
X38803Y87539D02*
Y92461D01*
Y87539D02*
X46677D01*
Y92461D01*
X38803D02*
X46677D01*
X41937Y25539D02*
Y30461D01*
X34063D02*
X41937D01*
X34063Y25539D02*
Y30461D01*
Y25539D02*
X41937D01*
M02*
