G04*
G04 #@! TF.GenerationSoftware,Altium Limited,Altium Designer,21.0.8 (223)*
G04*
G04 Layer_Physical_Order=4*
G04 Layer_Color=16711680*
%FSLAX25Y25*%
%MOIN*%
G70*
G04*
G04 #@! TF.SameCoordinates,7C19FEE0-9405-418D-A0C6-2703AC14626A*
G04*
G04*
G04 #@! TF.FilePolarity,Positive*
G04*
G01*
G75*
G04:AMPARAMS|DCode=25|XSize=314.96mil|YSize=236.22mil|CornerRadius=11.81mil|HoleSize=0mil|Usage=FLASHONLY|Rotation=0.000|XOffset=0mil|YOffset=0mil|HoleType=Round|Shape=RoundedRectangle|*
%AMROUNDEDRECTD25*
21,1,0.31496,0.21260,0,0,0.0*
21,1,0.29134,0.23622,0,0,0.0*
1,1,0.02362,0.14567,-0.10630*
1,1,0.02362,-0.14567,-0.10630*
1,1,0.02362,-0.14567,0.10630*
1,1,0.02362,0.14567,0.10630*
%
%ADD25ROUNDEDRECTD25*%
%ADD41R,0.07087X0.02756*%
%ADD42R,0.08661X0.06299*%
%ADD129C,0.01772*%
%ADD131C,0.01181*%
%ADD133C,0.02559*%
%ADD137C,0.01968*%
%ADD139O,0.04331X0.05906*%
%ADD140R,0.04331X0.05906*%
%ADD141C,0.03347*%
%ADD142C,0.23622*%
%ADD143C,0.07874*%
G36*
X138583Y205098D02*
X161417D01*
Y179902D01*
X132402Y179902D01*
X129931Y177431D01*
X102431Y177431D01*
X94504Y169504D01*
X54000Y169500D01*
Y197500D01*
X85000D01*
X95000Y207500D01*
X136181D01*
X138583Y205098D01*
D02*
G37*
G36*
X305000Y197500D02*
X336000Y197500D01*
X336000Y169500D01*
X295500Y169500D01*
X287569Y177431D01*
X260069Y177431D01*
X257598Y179902D01*
X228583D01*
Y205098D01*
X251417D01*
X253819Y207500D01*
X295000D01*
X305000Y197500D01*
D02*
G37*
G36*
X377129Y218440D02*
X379205Y217942D01*
X381178Y217125D01*
X382998Y216009D01*
X384622Y214622D01*
X386009Y212998D01*
X387124Y211178D01*
X387942Y209205D01*
X388440Y207129D01*
X388602Y205069D01*
X388589Y205000D01*
Y165000D01*
X354000D01*
Y169500D01*
X345500D01*
X338000Y169500D01*
X338000Y199000D01*
X327500D01*
Y203548D01*
X327588Y204213D01*
Y205787D01*
X327500Y206452D01*
Y218589D01*
X375000D01*
X375069Y218602D01*
X377129Y218440D01*
D02*
G37*
G36*
X15000Y218589D02*
X62500D01*
Y206452D01*
X62413Y205787D01*
Y204213D01*
X62500Y203548D01*
Y199000D01*
X52000D01*
Y169500D01*
X44500D01*
X44500Y94500D01*
X35000Y94500D01*
X35000Y82500D01*
X22000Y82500D01*
X22000Y131000D01*
X38000Y131000D01*
X38000Y165500D01*
X1411Y165500D01*
Y204500D01*
X1411Y205000D01*
X1431Y205492D01*
X1560Y207129D01*
X2058Y209205D01*
X2875Y211178D01*
X3991Y212998D01*
X5378Y214622D01*
X7002Y216009D01*
X8822Y217125D01*
X10795Y217942D01*
X12871Y218440D01*
X14931Y218602D01*
X15000Y218589D01*
D02*
G37*
G36*
X192500Y170000D02*
X192500Y131500D01*
X186000Y125000D01*
X140500D01*
X134000Y131500D01*
Y176500D01*
X186000D01*
X192500Y170000D01*
D02*
G37*
G36*
X256000Y176500D02*
Y131500D01*
X249500Y125000D01*
Y125000D01*
X204000Y125000D01*
X197500Y131500D01*
Y170000D01*
X204000Y176500D01*
X256000Y176500D01*
D02*
G37*
G36*
X57500Y92756D02*
X57500Y66001D01*
X57000Y65616D01*
X56500Y65716D01*
X55652Y65547D01*
X54933Y65067D01*
X54453Y64348D01*
X54284Y63500D01*
X54453Y62652D01*
X54933Y61933D01*
X55652Y61453D01*
X56500Y61284D01*
X57000Y61384D01*
X57500Y60999D01*
Y59501D01*
X57072Y59131D01*
X57000Y59116D01*
X56500Y59216D01*
X55652Y59047D01*
X54933Y58567D01*
X54453Y57848D01*
X54284Y57000D01*
X54453Y56152D01*
X54933Y55433D01*
X55652Y54953D01*
X56500Y54784D01*
X57000Y54884D01*
X57500Y54499D01*
X57500Y20561D01*
X57439Y20500D01*
X52500D01*
Y16452D01*
X52412Y15787D01*
Y14213D01*
X52500Y13548D01*
Y1411D01*
X15529D01*
X15030Y1411D01*
X15029Y1411D01*
X14536Y1430D01*
X12884Y1560D01*
X10805Y2059D01*
X8830Y2877D01*
X7008Y3994D01*
X5382Y5382D01*
X3994Y7008D01*
X2877Y8830D01*
X2059Y10805D01*
X1560Y12884D01*
X1432Y14510D01*
X1411Y15001D01*
X1411Y15030D01*
X1411Y15494D01*
Y48240D01*
X44705D01*
Y71279D01*
X44848Y71307D01*
X45567Y71788D01*
X46047Y72506D01*
X46216Y73354D01*
X46047Y74202D01*
X45567Y74921D01*
X44848Y75402D01*
X44705Y75430D01*
Y84000D01*
X36933Y84000D01*
X36933Y92756D01*
X57500Y92756D01*
D02*
G37*
G36*
X35500Y133000D02*
X20000D01*
X20000Y81114D01*
X42500Y81114D01*
Y74966D01*
X42433Y74921D01*
X41953Y74202D01*
X41784Y73354D01*
X41953Y72506D01*
X42433Y71788D01*
X42500Y71743D01*
X42500Y49421D01*
X1411Y49421D01*
Y157000D01*
X35500D01*
X35500Y133000D01*
D02*
G37*
%LPC*%
G36*
X375000Y217249D02*
X373084Y217098D01*
X371215Y216649D01*
X369439Y215914D01*
X367800Y214910D01*
X366339Y213661D01*
X365090Y212200D01*
X364086Y210561D01*
X363351Y208785D01*
X362902Y206916D01*
X362751Y205000D01*
X362902Y203084D01*
X363351Y201215D01*
X364086Y199439D01*
X365090Y197800D01*
X366339Y196339D01*
X367800Y195090D01*
X369439Y194086D01*
X371215Y193351D01*
X373084Y192902D01*
X375000Y192751D01*
X376916Y192902D01*
X378785Y193351D01*
X380561Y194086D01*
X382200Y195090D01*
X383661Y196339D01*
X384910Y197800D01*
X385914Y199439D01*
X386649Y201215D01*
X387098Y203084D01*
X387249Y205000D01*
X387098Y206916D01*
X386649Y208785D01*
X385914Y210561D01*
X384910Y212200D01*
X383661Y213661D01*
X382200Y214910D01*
X380561Y215914D01*
X378785Y216649D01*
X376916Y217098D01*
X375000Y217249D01*
D02*
G37*
G36*
X15000D02*
X13084Y217098D01*
X11215Y216649D01*
X9439Y215914D01*
X7800Y214910D01*
X6339Y213661D01*
X5091Y212200D01*
X4086Y210561D01*
X3351Y208785D01*
X2902Y206916D01*
X2751Y205000D01*
X2902Y203084D01*
X3351Y201215D01*
X4086Y199439D01*
X5091Y197800D01*
X6339Y196339D01*
X7800Y195090D01*
X9439Y194086D01*
X11215Y193351D01*
X13084Y192902D01*
X15000Y192751D01*
X16916Y192902D01*
X18785Y193351D01*
X20561Y194086D01*
X22200Y195090D01*
X23661Y196339D01*
X24909Y197800D01*
X25914Y199439D01*
X26649Y201215D01*
X27098Y203084D01*
X27249Y205000D01*
X27098Y206916D01*
X26649Y208785D01*
X25914Y210561D01*
X24909Y212200D01*
X23661Y213661D01*
X22200Y214910D01*
X20561Y215914D01*
X18785Y216649D01*
X16916Y217098D01*
X15000Y217249D01*
D02*
G37*
G36*
X35000Y37570D02*
X34152Y37402D01*
X33433Y36921D01*
X32953Y36202D01*
X32784Y35354D01*
X32953Y34506D01*
X33433Y33788D01*
X34152Y33307D01*
X35000Y33139D01*
X35848Y33307D01*
X36567Y33788D01*
X37047Y34506D01*
X37216Y35354D01*
X37047Y36202D01*
X36567Y36921D01*
X35848Y37402D01*
X35000Y37570D01*
D02*
G37*
G36*
X40000Y18375D02*
X39330Y18287D01*
X38706Y18028D01*
X38170Y17617D01*
X37774Y17100D01*
X37648Y17081D01*
X37352D01*
X37226Y17100D01*
X36830Y17617D01*
X36294Y18028D01*
X35670Y18287D01*
X35000Y18375D01*
X34330Y18287D01*
X33706Y18028D01*
X33170Y17617D01*
X32759Y17081D01*
X32501Y16457D01*
X32412Y15787D01*
Y14213D01*
X32501Y13543D01*
X32759Y12919D01*
X33170Y12383D01*
X33706Y11972D01*
X34330Y11713D01*
X35000Y11625D01*
X35670Y11713D01*
X36294Y11972D01*
X36830Y12383D01*
X37226Y12900D01*
X37352Y12919D01*
X37648D01*
X37774Y12900D01*
X38170Y12383D01*
X38706Y11972D01*
X39330Y11713D01*
X40000Y11625D01*
X40670Y11713D01*
X41294Y11972D01*
X41830Y12383D01*
X42241Y12919D01*
X42499Y13543D01*
X42588Y14213D01*
Y15787D01*
X42499Y16457D01*
X42241Y17081D01*
X41830Y17617D01*
X41294Y18028D01*
X40670Y18287D01*
X40000Y18375D01*
D02*
G37*
G36*
X15000Y27249D02*
X13084Y27098D01*
X11215Y26649D01*
X9439Y25914D01*
X7800Y24909D01*
X6339Y23661D01*
X5091Y22200D01*
X4086Y20561D01*
X3351Y18785D01*
X2902Y16916D01*
X2751Y15000D01*
X2902Y13084D01*
X3351Y11215D01*
X4086Y9439D01*
X5091Y7800D01*
X6339Y6339D01*
X7800Y5091D01*
X9439Y4086D01*
X11215Y3351D01*
X13084Y2902D01*
X15000Y2751D01*
X16916Y2902D01*
X18785Y3351D01*
X20561Y4086D01*
X22200Y5091D01*
X23661Y6339D01*
X24909Y7800D01*
X25914Y9439D01*
X26649Y11215D01*
X27098Y13084D01*
X27249Y15000D01*
X27098Y16916D01*
X26649Y18785D01*
X25914Y20561D01*
X24909Y22200D01*
X23661Y23661D01*
X22200Y24909D01*
X20561Y25914D01*
X18785Y26649D01*
X16916Y27098D01*
X15000Y27249D01*
D02*
G37*
%LPD*%
D25*
X370000Y145000D02*
D03*
X19500D02*
D03*
X20000Y177500D02*
D03*
X370000D02*
D03*
D41*
X366657Y48118D02*
D03*
Y53039D02*
D03*
Y57961D02*
D03*
Y62882D02*
D03*
X363976Y94657D02*
D03*
Y99579D02*
D03*
Y104500D02*
D03*
Y109421D02*
D03*
D42*
X379650Y71740D02*
D03*
Y39260D02*
D03*
X376969Y118280D02*
D03*
Y85799D02*
D03*
D129*
X116500Y110500D02*
Y146500D01*
Y110500D02*
X126000Y101000D01*
X220500D01*
X299263Y119500D02*
X301763Y122000D01*
X302189D01*
X276500Y119500D02*
X299263D01*
X99500Y122000D02*
X108000Y130500D01*
X87311Y122000D02*
X99500D01*
X279500Y131000D02*
X292500D01*
X259500Y151000D02*
X279500Y131000D01*
X116500Y146500D02*
Y154462D01*
X117538Y155500D02*
X127462D01*
X116500Y154462D02*
X117538Y155500D01*
X127462D02*
X128500Y154462D01*
Y151000D02*
Y154462D01*
X123500Y140000D02*
X150000D01*
X121500Y142000D02*
Y151000D01*
Y142000D02*
X123500Y140000D01*
D131*
X50000Y109000D02*
Y125500D01*
X51500Y127000D01*
X48000Y108000D02*
X57500Y98500D01*
X48000Y108000D02*
Y146500D01*
X50000Y109000D02*
X58500Y100500D01*
X222000Y53500D02*
X262500Y94000D01*
Y112000D01*
X220909Y55500D02*
X259000Y93591D01*
Y116000D01*
X58500Y100500D02*
X118500D01*
X130000Y89000D01*
X123500Y68000D02*
Y85000D01*
Y68000D02*
X133500Y58000D01*
X185000Y55500D02*
X220909D01*
X203000Y53500D02*
X222000D01*
X172500Y41000D02*
Y48500D01*
X165000Y38500D02*
X170000D01*
X172500Y41000D01*
X162500D02*
X165000Y38500D01*
X159000Y48500D02*
X162500Y45000D01*
Y41000D02*
Y45000D01*
X151000Y48500D02*
X159000D01*
X147000Y52500D02*
X151000Y48500D01*
X134500Y52500D02*
X147000D01*
X160000Y50500D02*
X167000Y43500D01*
X146500Y56000D02*
X152000Y50500D01*
X160000D01*
X147500Y58000D02*
X153000Y52500D01*
X163000D02*
X167000Y48500D01*
X153000Y52500D02*
X163000D01*
X178000Y43500D02*
X183500Y49000D01*
X198500D01*
X178000Y48500D02*
X185000Y55500D01*
X172500Y53500D02*
Y54000D01*
X177500Y59000D01*
X175500Y62000D02*
X217500D01*
X167000Y53500D02*
X175500Y62000D01*
X177500Y59000D02*
X214500D01*
X217500Y62000D02*
X220500Y59000D01*
X198500Y49000D02*
X203000Y53500D01*
X133500Y58000D02*
X147500D01*
X57500Y98500D02*
X117500D01*
X191568Y28000D02*
X250000D01*
X174068Y10500D02*
X191568Y28000D01*
X250000D02*
X267500Y45500D01*
X249000Y30000D02*
X270000Y51000D01*
X199000Y30000D02*
X249000D01*
X194000Y35000D02*
X199000Y30000D01*
X290000Y54500D02*
X304000Y68500D01*
X251000Y45000D02*
X260500Y54500D01*
X290000D01*
X289000Y56500D02*
X303000Y70500D01*
X251000Y48000D02*
X259500Y56500D01*
X289000D01*
X128000Y70500D02*
X136500Y62000D01*
X117500Y98500D02*
X128000Y88000D01*
Y70500D02*
Y88000D01*
X130000Y71500D02*
X137500Y64000D01*
X130000Y71500D02*
Y89000D01*
X136500Y62000D02*
X148500D01*
X137500Y64000D02*
X152000D01*
X148500Y62000D02*
X154500Y56000D01*
X152000Y64000D02*
X160000Y56000D01*
X118500Y85000D02*
X121500Y82000D01*
Y67000D02*
Y82000D01*
Y67000D02*
X132500Y56000D01*
X146500D01*
X348000Y68500D02*
X354500Y75000D01*
X303000Y70500D02*
X347000D01*
X352500Y76000D01*
X304000Y68500D02*
X348000D01*
X151000Y10500D02*
X174068D01*
X126500Y6000D02*
X160000D01*
X56500Y10000D02*
X122500D01*
X126500Y6000D01*
X55000Y11500D02*
Y15000D01*
Y11500D02*
X56500Y10000D01*
X90000Y38500D02*
X152500D01*
X157500Y43500D01*
X93000Y36500D02*
X155500D01*
X157500Y38500D01*
X138943Y29500D02*
X153500D01*
X133943Y34500D02*
X138943Y29500D01*
X153500D02*
X157500Y33500D01*
X75000Y18500D02*
X93000Y36500D01*
X80000Y18500D02*
X96000Y34500D01*
X80000Y15000D02*
Y18500D01*
X96000Y34500D02*
X133943D01*
X87000Y40500D02*
X149500D01*
X65172Y18672D02*
X87000Y40500D01*
X149500D02*
X152500Y43500D01*
X70000Y18500D02*
X90000Y38500D01*
X83500Y42500D02*
X145914D01*
X60000Y19000D02*
X83500Y42500D01*
X146914Y43500D02*
X147500D01*
X145914Y42500D02*
X146914Y43500D01*
X75000Y15000D02*
Y18500D01*
X70000Y15000D02*
Y18500D01*
X65172Y15172D02*
Y18672D01*
X65000Y15000D02*
X65172Y15172D01*
X60000Y15000D02*
Y19000D01*
X270000Y51000D02*
X297000D01*
X242000Y48000D02*
X251000D01*
X352500Y76000D02*
Y98000D01*
X246000Y45000D02*
X251000D01*
X354500Y75000D02*
Y97000D01*
X357079Y99579D01*
X352500Y98000D02*
X359000Y104500D01*
X363976D01*
X357079Y99579D02*
X363976D01*
X267500Y45500D02*
X297000D01*
X225000Y47000D02*
X239000Y33000D01*
X202000Y47000D02*
X225000D01*
Y38000D02*
Y38000D01*
X219000Y44000D02*
X225000Y38000D01*
X198500Y44000D02*
X219000D01*
X208500Y23500D02*
X211000Y26000D01*
X253500D01*
X194000Y35000D02*
Y44000D01*
X253500Y26000D02*
X259000Y31500D01*
X343500Y47500D02*
X343809Y47809D01*
X343770Y52770D02*
X366388D01*
X343809Y47809D02*
X366348D01*
X366657Y48118D01*
X343500Y52500D02*
X343770Y52770D01*
X366388D02*
X366657Y53039D01*
D133*
X363878Y109520D02*
X363976Y109421D01*
X358151Y110920D02*
X359551Y109520D01*
X358151Y110920D02*
Y114349D01*
X359551Y109520D02*
X363878D01*
X358000Y114500D02*
X358151Y114349D01*
X358079Y94579D02*
X363898D01*
X363976Y94657D01*
X358000Y94500D02*
X358079Y94579D01*
X366677Y57980D02*
X372980D01*
X366657Y57961D02*
X366677Y57980D01*
X372980D02*
X373000Y58000D01*
X366717Y62941D02*
X372941D01*
X366657Y62882D02*
X366717Y62941D01*
X372941D02*
X373000Y63000D01*
D137*
X366638Y57980D02*
X366657Y57961D01*
D139*
X355000Y205000D02*
D03*
X350000D02*
D03*
X345000D02*
D03*
X340000D02*
D03*
X335000D02*
D03*
X330000D02*
D03*
X325000D02*
D03*
X320000D02*
D03*
X315000D02*
D03*
X75000Y15000D02*
D03*
X70000D02*
D03*
X65000D02*
D03*
X60000D02*
D03*
X55000D02*
D03*
X50000D02*
D03*
X45000D02*
D03*
X40000D02*
D03*
X35000D02*
D03*
X355000D02*
D03*
X350000D02*
D03*
X345000D02*
D03*
X340000D02*
D03*
X335000D02*
D03*
X330000D02*
D03*
X325000D02*
D03*
X320000D02*
D03*
X315000D02*
D03*
X75000Y205000D02*
D03*
X70000D02*
D03*
X65000D02*
D03*
X60000D02*
D03*
X55000D02*
D03*
X50000D02*
D03*
X45000D02*
D03*
X40000D02*
D03*
X35000D02*
D03*
D140*
X310000D02*
D03*
X80000Y15000D02*
D03*
X310000D02*
D03*
X80000Y205000D02*
D03*
D141*
X366000Y153000D02*
D03*
X374000D02*
D03*
X382000D02*
D03*
X358000D02*
D03*
Y145000D02*
D03*
X366000D02*
D03*
X374000D02*
D03*
X382000D02*
D03*
Y137000D02*
D03*
X374000D02*
D03*
X366000D02*
D03*
X358000D02*
D03*
X7500D02*
D03*
X15500D02*
D03*
X23500D02*
D03*
X31500D02*
D03*
Y145000D02*
D03*
X23500D02*
D03*
X15500D02*
D03*
X7500D02*
D03*
Y153000D02*
D03*
X31500D02*
D03*
X23500D02*
D03*
X15500D02*
D03*
X8000Y169500D02*
D03*
X16000D02*
D03*
X24000D02*
D03*
X32000D02*
D03*
Y177500D02*
D03*
X24000D02*
D03*
X16000D02*
D03*
X8000D02*
D03*
Y185500D02*
D03*
X32000D02*
D03*
X24000D02*
D03*
X16000D02*
D03*
X366000D02*
D03*
X374000D02*
D03*
X382000D02*
D03*
X358000D02*
D03*
Y177500D02*
D03*
X366000D02*
D03*
X374000D02*
D03*
X382000D02*
D03*
Y169500D02*
D03*
X374000D02*
D03*
X366000D02*
D03*
X358000D02*
D03*
X220500Y101000D02*
D03*
X229000Y67500D02*
D03*
X250000Y68500D02*
D03*
X229000Y81500D02*
D03*
X273000Y70000D02*
D03*
X302189Y122000D02*
D03*
X276500Y119500D02*
D03*
X108000Y130500D02*
D03*
X87311Y122000D02*
D03*
X376969Y118280D02*
D03*
X51500Y127000D02*
D03*
X56000Y116500D02*
D03*
X376969Y123201D02*
D03*
Y85799D02*
D03*
X273000Y205071D02*
D03*
X287000D02*
D03*
X273000Y193071D02*
D03*
X287000D02*
D03*
X273000Y199071D02*
D03*
X287000D02*
D03*
X103000Y172000D02*
D03*
Y166000D02*
D03*
Y160000D02*
D03*
X117000D02*
D03*
Y166000D02*
D03*
Y172000D02*
D03*
Y205071D02*
D03*
Y199071D02*
D03*
Y193071D02*
D03*
X103000Y205071D02*
D03*
Y199071D02*
D03*
Y193071D02*
D03*
X159000Y174000D02*
D03*
X254000D02*
D03*
X244000D02*
D03*
X249000D02*
D03*
X254000Y161000D02*
D03*
X249000D02*
D03*
X254000Y167500D02*
D03*
X244000D02*
D03*
X154000D02*
D03*
X164000D02*
D03*
X159000Y161000D02*
D03*
X154000D02*
D03*
Y174000D02*
D03*
X164000D02*
D03*
X57000Y179000D02*
D03*
Y172500D02*
D03*
X48709Y179000D02*
D03*
Y172500D02*
D03*
X332709Y179000D02*
D03*
Y172500D02*
D03*
X341000D02*
D03*
Y179000D02*
D03*
X305500Y177500D02*
D03*
X311500D02*
D03*
X318000D02*
D03*
X324000D02*
D03*
X84000Y180000D02*
D03*
X78000D02*
D03*
X71500D02*
D03*
X65500D02*
D03*
X240000Y192500D02*
D03*
X248000D02*
D03*
Y184500D02*
D03*
X240000D02*
D03*
X232000D02*
D03*
Y192500D02*
D03*
Y200500D02*
D03*
X240000D02*
D03*
X248000D02*
D03*
X150000Y192500D02*
D03*
X158000D02*
D03*
Y184500D02*
D03*
X150000D02*
D03*
X142000D02*
D03*
Y192500D02*
D03*
Y200500D02*
D03*
X150000D02*
D03*
X158000D02*
D03*
X217047Y150000D02*
D03*
X214094Y156000D02*
D03*
X220094D02*
D03*
X214094Y144000D02*
D03*
X220094D02*
D03*
X176000D02*
D03*
X170000D02*
D03*
X176000Y156000D02*
D03*
X170000D02*
D03*
X172953Y150000D02*
D03*
X240000Y140000D02*
D03*
X248000D02*
D03*
Y132000D02*
D03*
X240000D02*
D03*
X232000D02*
D03*
Y140000D02*
D03*
Y148000D02*
D03*
X240000D02*
D03*
X248000D02*
D03*
X158000D02*
D03*
X150000D02*
D03*
X142000D02*
D03*
Y140000D02*
D03*
Y132000D02*
D03*
X150000D02*
D03*
X158000D02*
D03*
Y140000D02*
D03*
X262500Y112000D02*
D03*
X266500Y116000D02*
D03*
X326000Y118000D02*
D03*
Y126000D02*
D03*
Y133500D02*
D03*
Y141500D02*
D03*
X292500Y131000D02*
D03*
X259500Y151000D02*
D03*
X63500Y118000D02*
D03*
Y126000D02*
D03*
Y133500D02*
D03*
Y141500D02*
D03*
X116500Y146500D02*
D03*
X150000Y140000D02*
D03*
X128500Y151000D02*
D03*
X121500D02*
D03*
X128500Y116000D02*
D03*
X123500Y85000D02*
D03*
X126221Y131291D02*
D03*
X264000Y131000D02*
D03*
X178000Y43500D02*
D03*
Y48500D02*
D03*
X172500Y53500D02*
D03*
Y48500D02*
D03*
X341500Y104000D02*
D03*
X220500Y59000D02*
D03*
X167000Y53500D02*
D03*
X214500Y59000D02*
D03*
X259000Y116000D02*
D03*
X167000Y48500D02*
D03*
X118500Y85000D02*
D03*
X167000Y43500D02*
D03*
X48000Y146500D02*
D03*
X342000D02*
D03*
X337000D02*
D03*
X58000D02*
D03*
X53000D02*
D03*
X14488Y77866D02*
D03*
X38000Y60000D02*
D03*
X27000D02*
D03*
X32500Y59854D02*
D03*
X324000Y156500D02*
D03*
X318500D02*
D03*
X311500D02*
D03*
X306000D02*
D03*
X84000Y159000D02*
D03*
X78000D02*
D03*
X71500D02*
D03*
X65500D02*
D03*
X134500Y52500D02*
D03*
X304000Y62500D02*
D03*
X297000Y45500D02*
D03*
X343500Y47500D02*
D03*
X337500Y62500D02*
D03*
X297000Y51000D02*
D03*
X304500Y47500D02*
D03*
X337500Y57500D02*
D03*
X343500Y52500D02*
D03*
X154500Y56000D02*
D03*
X160000D02*
D03*
X147000Y79000D02*
D03*
X137500Y69000D02*
D03*
X151000Y10500D02*
D03*
X160000Y6000D02*
D03*
X157500Y38500D02*
D03*
Y33500D02*
D03*
X147500Y43500D02*
D03*
X157500D02*
D03*
X152500D02*
D03*
X242000Y48000D02*
D03*
X246000Y45000D02*
D03*
X202000Y47000D02*
D03*
X225000Y38000D02*
D03*
X198500Y44000D02*
D03*
X194000D02*
D03*
X239000Y33000D02*
D03*
X208500Y23500D02*
D03*
X259000Y31500D02*
D03*
X188000Y19500D02*
D03*
X202000D02*
D03*
X209500Y88000D02*
D03*
X197000D02*
D03*
X196500Y52500D02*
D03*
X209000Y65000D02*
D03*
X197000D02*
D03*
X118500Y72500D02*
D03*
Y63500D02*
D03*
X56500Y57000D02*
D03*
Y63500D02*
D03*
X92000Y84000D02*
D03*
Y89500D02*
D03*
X71000Y86500D02*
D03*
X67500Y81500D02*
D03*
X62500D02*
D03*
X67500Y57000D02*
D03*
X62000D02*
D03*
X379650Y71740D02*
D03*
Y39260D02*
D03*
X358000Y94500D02*
D03*
Y114500D02*
D03*
X360752Y62980D02*
D03*
X373000Y63000D02*
D03*
Y58000D02*
D03*
Y48000D02*
D03*
X147000Y33000D02*
D03*
X287000Y172000D02*
D03*
X273000D02*
D03*
X287000Y160000D02*
D03*
X273000D02*
D03*
X287000Y166000D02*
D03*
X273000D02*
D03*
X244000Y115000D02*
D03*
X254000D02*
D03*
X249000Y108500D02*
D03*
Y121500D02*
D03*
X244000Y108500D02*
D03*
Y121500D02*
D03*
X254000D02*
D03*
Y108500D02*
D03*
X164000D02*
D03*
Y121500D02*
D03*
X154000D02*
D03*
Y108500D02*
D03*
X159000Y121500D02*
D03*
Y108500D02*
D03*
X164000Y115000D02*
D03*
X154000D02*
D03*
X270000Y4500D02*
D03*
X290000D02*
D03*
X280000D02*
D03*
X274991D02*
D03*
X185500Y77500D02*
D03*
X152500Y77500D02*
D03*
X185500Y68500D02*
D03*
X152500D02*
D03*
X185500Y86500D02*
D03*
X152500Y86500D02*
D03*
X169000Y86500D02*
D03*
X157000Y82500D02*
D03*
X181000Y68500D02*
D03*
X243000Y21500D02*
D03*
X226500D02*
D03*
X188500Y9500D02*
D03*
X208500D02*
D03*
X85000Y6500D02*
D03*
X128500Y23500D02*
D03*
Y29000D02*
D03*
X131000Y48000D02*
D03*
X109000Y56000D02*
D03*
Y76000D02*
D03*
Y66000D02*
D03*
X93500Y56000D02*
D03*
Y76000D02*
D03*
X101008Y56000D02*
D03*
X93500Y66000D02*
D03*
X101008Y76000D02*
D03*
X32000Y120354D02*
D03*
X10000Y110000D02*
D03*
Y102000D02*
D03*
Y88000D02*
D03*
Y92000D02*
D03*
Y96000D02*
D03*
Y106000D02*
D03*
Y117000D02*
D03*
Y121000D02*
D03*
Y125000D02*
D03*
X51000Y90000D02*
D03*
X44000Y73354D02*
D03*
X35000Y35354D02*
D03*
X32000Y110354D02*
D03*
Y106354D02*
D03*
Y102354D02*
D03*
Y96354D02*
D03*
Y88354D02*
D03*
X50500Y33500D02*
D03*
X32000Y116354D02*
D03*
Y92354D02*
D03*
D142*
X15000Y15000D02*
D03*
X375000D02*
D03*
X15000Y205000D02*
D03*
X375000D02*
D03*
D143*
X32000Y124354D02*
D03*
M02*
