G04*
G04 #@! TF.GenerationSoftware,Altium Limited,Altium Designer,21.0.8 (223)*
G04*
G04 Layer_Physical_Order=1*
G04 Layer_Color=255*
%FSLAX25Y25*%
%MOIN*%
G70*
G04*
G04 #@! TF.SameCoordinates,7C19FEE0-9405-418D-A0C6-2703AC14626A*
G04*
G04*
G04 #@! TF.FilePolarity,Positive*
G04*
G01*
G75*
%ADD14R,0.12205X0.08661*%
%ADD15R,0.05906X0.05984*%
%ADD16R,0.07874X0.04331*%
%ADD17R,0.03150X0.04331*%
%ADD18R,0.01575X0.05315*%
%ADD19R,0.06299X0.05512*%
%ADD20R,0.09055X0.05118*%
%ADD21R,0.07087X0.07480*%
%ADD22R,0.10709X0.04961*%
%ADD23R,0.05886X0.11614*%
%ADD24R,0.05886X0.02756*%
G04:AMPARAMS|DCode=25|XSize=314.96mil|YSize=236.22mil|CornerRadius=11.81mil|HoleSize=0mil|Usage=FLASHONLY|Rotation=0.000|XOffset=0mil|YOffset=0mil|HoleType=Round|Shape=RoundedRectangle|*
%AMROUNDEDRECTD25*
21,1,0.31496,0.21260,0,0,0.0*
21,1,0.29134,0.23622,0,0,0.0*
1,1,0.02362,0.14567,-0.10630*
1,1,0.02362,-0.14567,-0.10630*
1,1,0.02362,-0.14567,0.10630*
1,1,0.02362,0.14567,0.10630*
%
%ADD25ROUNDEDRECTD25*%
%ADD26R,0.02126X0.03701*%
%ADD27R,0.02362X0.04921*%
%ADD28R,0.01968X0.04134*%
%ADD29R,0.03701X0.02126*%
%ADD30R,0.04134X0.01968*%
%ADD31R,0.04921X0.13189*%
%ADD32R,0.13976X0.19291*%
%ADD33R,0.06004X0.02559*%
%ADD34R,0.03937X0.03150*%
%ADD35R,0.03071X0.03858*%
%ADD36R,0.03150X0.03937*%
%ADD37R,0.04724X0.08661*%
%ADD38R,0.22835X0.25197*%
%ADD39R,0.05807X0.01181*%
%ADD40R,0.01181X0.05807*%
%ADD41R,0.07087X0.02756*%
%ADD42R,0.08661X0.06299*%
%ADD43R,0.08465X0.16929*%
%ADD44R,0.01575X0.04724*%
%ADD45R,0.01772X0.05610*%
%ADD46R,0.07402X0.06614*%
%ADD47R,0.04921X0.02362*%
%ADD48R,0.05787X0.04016*%
%ADD49R,0.06496X0.06496*%
%ADD50R,0.01968X0.03740*%
%ADD51R,0.03740X0.01968*%
%ADD52R,0.19685X0.09252*%
%ADD53R,0.04409X0.04134*%
%ADD54R,0.03937X0.12992*%
%ADD55R,0.03858X0.03071*%
%ADD56R,0.03937X0.06102*%
%ADD57R,0.05512X0.04528*%
%ADD58R,0.02559X0.11221*%
%ADD59R,0.07480X0.03543*%
%ADD60R,0.07480X0.12598*%
%ADD61R,0.04528X0.02362*%
%ADD62R,0.07008X0.04016*%
%ADD63R,0.08858X0.06890*%
%ADD64R,0.05118X0.11102*%
%ADD65R,0.11102X0.05118*%
%ADD66R,0.03150X0.03150*%
%ADD67R,0.06299X0.03937*%
%ADD68R,0.04134X0.05512*%
%ADD124C,0.03347*%
%ADD129C,0.01772*%
%ADD130C,0.02000*%
%ADD131C,0.01181*%
%ADD132C,0.01575*%
%ADD133C,0.02559*%
%ADD134C,0.03071*%
%ADD135C,0.00972*%
%ADD136C,0.03937*%
%ADD137C,0.01968*%
%ADD138C,0.03150*%
%ADD139O,0.04331X0.05906*%
%ADD140R,0.04331X0.05906*%
%ADD141C,0.03347*%
%ADD142C,0.23622*%
%ADD143C,0.07874*%
G36*
X138583Y205098D02*
X161417D01*
Y179902D01*
X132402D01*
X129931Y177431D01*
X102431Y177431D01*
X94500Y169500D01*
X67500Y169500D01*
X54000D01*
Y197500D01*
X85000D01*
X95000Y207500D01*
X136181D01*
X138583Y205098D01*
D02*
G37*
G36*
X305000Y197500D02*
X336000D01*
Y169500D01*
X322000D01*
X295500Y169500D01*
X287569Y177431D01*
X260069Y177431D01*
X257598Y179902D01*
X228583D01*
Y205098D01*
X251417D01*
X253819Y207500D01*
X295000D01*
X305000Y197500D01*
D02*
G37*
G36*
X377129Y218440D02*
X379205Y217942D01*
X381178Y217125D01*
X382998Y216009D01*
X384622Y214622D01*
X386009Y212998D01*
X387124Y211178D01*
X387942Y209205D01*
X388440Y207129D01*
X388602Y205069D01*
X388589Y205000D01*
Y165000D01*
X354000Y165000D01*
Y169500D01*
X338000D01*
Y199000D01*
X327500D01*
Y203548D01*
X327588Y204213D01*
Y205787D01*
X327500Y206452D01*
Y218589D01*
X375000D01*
X375069Y218602D01*
X377129Y218440D01*
D02*
G37*
G36*
X256000Y131500D02*
X249500Y125000D01*
X204000D01*
X197500Y131500D01*
Y170000D01*
X204000Y176500D01*
X229813D01*
Y172428D01*
X228261D01*
Y162966D01*
X233786D01*
Y172428D01*
X232234D01*
Y176500D01*
X256000D01*
Y131500D01*
D02*
G37*
G36*
X192500Y170000D02*
X192500Y131500D01*
X186000Y125000D01*
X140500D01*
X134000Y131500D01*
X134000Y170788D01*
X136002Y172789D01*
X136214D01*
X138261Y172428D01*
Y162966D01*
X143786D01*
Y172428D01*
X142551D01*
X142234Y173011D01*
Y173077D01*
X142142Y173541D01*
X141880Y173934D01*
X141880Y173934D01*
X141559Y174254D01*
X141519Y174328D01*
X142286Y176483D01*
X142300Y176500D01*
X186000Y176500D01*
X192500Y170000D01*
D02*
G37*
G36*
X86500Y157000D02*
X62500D01*
Y167000D01*
X86500D01*
Y157000D01*
D02*
G37*
G36*
X289216Y173784D02*
X289216Y156500D01*
X270784D01*
X270784Y175500D01*
X287500Y175500D01*
X289216Y173784D01*
D02*
G37*
G36*
X119216Y175500D02*
X119216Y156500D01*
X100784D01*
X100784Y173784D01*
X102500Y175500D01*
X119216Y175500D01*
D02*
G37*
G36*
X327000Y154500D02*
X303000D01*
Y164500D01*
X327000D01*
Y154500D01*
D02*
G37*
G36*
X35500Y157000D02*
X35500Y133000D01*
X20000Y133000D01*
X20000Y125117D01*
X20000Y81114D01*
X24035Y81114D01*
Y70354D01*
X53760Y70354D01*
X54854D01*
X55000Y70500D01*
Y78850D01*
Y91768D01*
X73187D01*
Y86700D01*
X76146D01*
X79105D01*
Y91768D01*
X80732D01*
Y71000D01*
X72000D01*
Y68319D01*
X53760D01*
X42342Y68319D01*
X42342Y49421D01*
X15380Y49421D01*
Y51671D01*
X15380Y51790D01*
Y52171D01*
X15380Y52290D01*
Y54821D01*
X15380Y54939D01*
Y55321D01*
X15380Y55439D01*
Y57970D01*
X15380Y58089D01*
Y58470D01*
X15380Y58589D01*
Y61120D01*
X15380Y61239D01*
Y61620D01*
X15380Y61739D01*
Y64269D01*
X15380Y64388D01*
Y64769D01*
X15380Y64888D01*
Y67538D01*
X10840D01*
Y64888D01*
X10840Y64769D01*
Y64388D01*
X10840Y64269D01*
Y61739D01*
X10840Y61620D01*
Y61239D01*
X10840Y61120D01*
Y58589D01*
X10840Y58470D01*
Y58089D01*
X10840Y57970D01*
Y55439D01*
X10840Y55321D01*
Y54939D01*
X10840Y54821D01*
Y52290D01*
X10840Y52171D01*
Y51790D01*
X10840Y51671D01*
Y49421D01*
X1411D01*
Y157000D01*
X35500Y157000D01*
D02*
G37*
G36*
X304650Y115405D02*
X299728D01*
Y144095D01*
X304650D01*
Y115405D01*
D02*
G37*
G36*
X89772D02*
X84850D01*
Y144095D01*
X89772D01*
Y115405D01*
D02*
G37*
G36*
X256500Y106000D02*
X241500D01*
Y123500D01*
X256500D01*
Y106000D01*
D02*
G37*
G36*
X166500D02*
X151500D01*
Y123500D01*
X166500D01*
Y106000D01*
D02*
G37*
G36*
X113000Y49500D02*
X83000D01*
Y62500D01*
X73252D01*
Y69500D01*
X83000D01*
Y92000D01*
X83895D01*
Y86700D01*
X86854D01*
X89813D01*
Y92000D01*
X113000D01*
Y49500D01*
D02*
G37*
G36*
X15000Y218589D02*
X62500D01*
Y206452D01*
X62413Y205787D01*
Y204213D01*
X62500Y203548D01*
Y199000D01*
X62500Y199000D01*
X52000D01*
Y169500D01*
X44500D01*
Y94500D01*
X35000D01*
X35000Y82500D01*
X33484D01*
Y71469D01*
X25216D01*
Y82500D01*
X22000D01*
X22000Y131000D01*
X38000Y131000D01*
X38000Y165500D01*
X1411Y165500D01*
Y204500D01*
X1411Y205000D01*
X1431Y205492D01*
X1560Y207129D01*
X2058Y209205D01*
X2875Y211178D01*
X3991Y212998D01*
X5378Y214622D01*
X7002Y216009D01*
X8822Y217125D01*
X10795Y217942D01*
X12871Y218440D01*
X14931Y218602D01*
X15000Y218589D01*
D02*
G37*
G36*
X60171Y67138D02*
Y63794D01*
X65000D01*
X69829D01*
Y67138D01*
X72000D01*
X72000Y61000D01*
X80732D01*
Y49421D01*
X70951D01*
Y51654D01*
X59049D01*
Y49421D01*
X44705D01*
X44705Y67138D01*
X53760D01*
X60171D01*
D02*
G37*
G36*
X10840Y48240D02*
Y45872D01*
X15380D01*
Y48240D01*
X53760Y48240D01*
Y48000D01*
X114000D01*
X116500Y45500D01*
X127035Y45500D01*
X127035Y36622D01*
X126630Y36277D01*
X126294Y36399D01*
Y37758D01*
X119706D01*
Y32943D01*
X126294D01*
Y33986D01*
X127035D01*
X127035Y30939D01*
X126591Y30500D01*
X110965Y30500D01*
X57500Y30500D01*
Y20500D01*
X52500D01*
Y16452D01*
X52412Y15787D01*
Y14213D01*
X52500Y13548D01*
Y1411D01*
X15529D01*
X15030Y1411D01*
X15029Y1411D01*
X14536Y1430D01*
X12884Y1560D01*
X10805Y2059D01*
X8830Y2877D01*
X7008Y3994D01*
X5382Y5382D01*
X3994Y7008D01*
X2877Y8830D01*
X2059Y10805D01*
X1560Y12884D01*
X1432Y14510D01*
X1411Y15001D01*
X1411Y15030D01*
X1411Y15494D01*
Y48240D01*
X10840D01*
D02*
G37*
%LPC*%
G36*
X375000Y217249D02*
X373084Y217098D01*
X371215Y216649D01*
X369439Y215914D01*
X367800Y214910D01*
X366339Y213661D01*
X365090Y212200D01*
X364086Y210561D01*
X363351Y208785D01*
X362902Y206916D01*
X362751Y205000D01*
X362902Y203084D01*
X363351Y201215D01*
X364086Y199439D01*
X365090Y197800D01*
X366339Y196339D01*
X367800Y195090D01*
X369439Y194086D01*
X371215Y193351D01*
X373084Y192902D01*
X375000Y192751D01*
X376916Y192902D01*
X378785Y193351D01*
X380561Y194086D01*
X382200Y195090D01*
X383661Y196339D01*
X384910Y197800D01*
X385914Y199439D01*
X386649Y201215D01*
X387098Y203084D01*
X387249Y205000D01*
X387098Y206916D01*
X386649Y208785D01*
X385914Y210561D01*
X384910Y212200D01*
X383661Y213661D01*
X382200Y214910D01*
X380561Y215914D01*
X378785Y216649D01*
X376916Y217098D01*
X375000Y217249D01*
D02*
G37*
G36*
X18605Y126306D02*
X15846D01*
Y120554D01*
X18605D01*
Y126306D01*
D02*
G37*
G36*
X15446D02*
X12687D01*
Y120554D01*
X15446D01*
Y126306D01*
D02*
G37*
G36*
X18605Y120154D02*
X15846D01*
Y114403D01*
X18605D01*
Y120154D01*
D02*
G37*
G36*
X15446D02*
X12687D01*
Y114403D01*
X15446D01*
Y120154D01*
D02*
G37*
G36*
X18605Y112306D02*
X15846D01*
Y106554D01*
X18605D01*
Y112306D01*
D02*
G37*
G36*
X15446D02*
X12687D01*
Y106554D01*
X15446D01*
Y112306D01*
D02*
G37*
G36*
X18605Y106154D02*
X15846D01*
Y100403D01*
X18605D01*
Y106154D01*
D02*
G37*
G36*
X15446D02*
X12687D01*
Y100403D01*
X15446D01*
Y106154D01*
D02*
G37*
G36*
X18605Y98306D02*
X15846D01*
Y92554D01*
X18605D01*
Y98306D01*
D02*
G37*
G36*
X15446D02*
X12687D01*
Y92554D01*
X15446D01*
Y98306D01*
D02*
G37*
G36*
X18605Y92154D02*
X15846D01*
Y86403D01*
X18605D01*
Y92154D01*
D02*
G37*
G36*
X15446D02*
X12687D01*
Y86403D01*
X15446D01*
Y92154D01*
D02*
G37*
G36*
X79105Y86300D02*
X76346D01*
Y80549D01*
X79105D01*
Y86300D01*
D02*
G37*
G36*
X75946D02*
X73187D01*
Y80549D01*
X75946D01*
Y86300D01*
D02*
G37*
G36*
X69829Y79250D02*
X65200D01*
Y75605D01*
X69829D01*
Y79250D01*
D02*
G37*
G36*
X64800D02*
X60171D01*
Y75605D01*
X64800D01*
Y79250D01*
D02*
G37*
G36*
X69829Y75205D02*
X65200D01*
Y71561D01*
X69829D01*
Y75205D01*
D02*
G37*
G36*
X64800D02*
X60171D01*
Y71561D01*
X64800D01*
Y75205D01*
D02*
G37*
G36*
X89813Y86300D02*
X87054D01*
Y80549D01*
X89813D01*
Y86300D01*
D02*
G37*
G36*
X86654D02*
X83895D01*
Y80549D01*
X86654D01*
Y86300D01*
D02*
G37*
G36*
X15000Y217249D02*
X13084Y217098D01*
X11215Y216649D01*
X9439Y215914D01*
X7800Y214910D01*
X6339Y213661D01*
X5091Y212200D01*
X4086Y210561D01*
X3351Y208785D01*
X2902Y206916D01*
X2751Y205000D01*
X2902Y203084D01*
X3351Y201215D01*
X4086Y199439D01*
X5091Y197800D01*
X6339Y196339D01*
X7800Y195090D01*
X9439Y194086D01*
X11215Y193351D01*
X13084Y192902D01*
X15000Y192751D01*
X16916Y192902D01*
X18785Y193351D01*
X20561Y194086D01*
X22200Y195090D01*
X23661Y196339D01*
X24909Y197800D01*
X25914Y199439D01*
X26649Y201215D01*
X27098Y203084D01*
X27249Y205000D01*
X27098Y206916D01*
X26649Y208785D01*
X25914Y210561D01*
X24909Y212200D01*
X23661Y213661D01*
X22200Y214910D01*
X20561Y215914D01*
X18785Y216649D01*
X16916Y217098D01*
X15000Y217249D01*
D02*
G37*
G36*
X29313Y126306D02*
X26554D01*
Y120554D01*
X29313D01*
Y126306D01*
D02*
G37*
G36*
X26154D02*
X23395D01*
Y120554D01*
X26154D01*
Y126306D01*
D02*
G37*
G36*
X29313Y120154D02*
X26554D01*
Y114403D01*
X29313D01*
Y120154D01*
D02*
G37*
G36*
X26154D02*
X23395D01*
Y114403D01*
X26154D01*
Y120154D01*
D02*
G37*
G36*
X29313Y112306D02*
X26554D01*
Y106554D01*
X29313D01*
Y112306D01*
D02*
G37*
G36*
X26154D02*
X23395D01*
Y106554D01*
X26154D01*
Y112306D01*
D02*
G37*
G36*
X29313Y106154D02*
X26554D01*
Y100403D01*
X29313D01*
Y106154D01*
D02*
G37*
G36*
X26154D02*
X23395D01*
Y100403D01*
X26154D01*
Y106154D01*
D02*
G37*
G36*
X29313Y98306D02*
X26554D01*
Y92554D01*
X29313D01*
Y98306D01*
D02*
G37*
G36*
X26154D02*
X23395D01*
Y92554D01*
X26154D01*
Y98306D01*
D02*
G37*
G36*
X29313Y92154D02*
X26554D01*
Y86403D01*
X29313D01*
Y92154D01*
D02*
G37*
G36*
X26154D02*
X23395D01*
Y86403D01*
X26154D01*
Y92154D01*
D02*
G37*
G36*
X69829Y63394D02*
X65200D01*
Y59750D01*
X69829D01*
Y63394D01*
D02*
G37*
G36*
X64800D02*
X60171D01*
Y59750D01*
X64800D01*
Y63394D01*
D02*
G37*
G36*
X70951Y54813D02*
X65200D01*
Y52054D01*
X70951D01*
Y54813D01*
D02*
G37*
G36*
X64800D02*
X59049D01*
Y52054D01*
X64800D01*
Y54813D01*
D02*
G37*
G36*
X126294Y44058D02*
X123200D01*
Y41850D01*
X126294D01*
Y44058D01*
D02*
G37*
G36*
X122800D02*
X119706D01*
Y41850D01*
X122800D01*
Y44058D01*
D02*
G37*
G36*
X70951Y44105D02*
X65200D01*
Y41346D01*
X70951D01*
Y44105D01*
D02*
G37*
G36*
X64800D02*
X59049D01*
Y41346D01*
X64800D01*
Y44105D01*
D02*
G37*
G36*
X126294Y41450D02*
X123200D01*
Y39242D01*
X126294D01*
Y41450D01*
D02*
G37*
G36*
X122800D02*
X119706D01*
Y39242D01*
X122800D01*
Y41450D01*
D02*
G37*
G36*
X70951Y40946D02*
X65200D01*
Y38187D01*
X70951D01*
Y40946D01*
D02*
G37*
G36*
X64800D02*
X59049D01*
Y38187D01*
X64800D01*
Y40946D01*
D02*
G37*
G36*
X34265Y42735D02*
X33884D01*
X33765Y42735D01*
X31116D01*
Y38195D01*
X33806Y38195D01*
X34174Y37815D01*
X34164Y37635D01*
X34130Y37387D01*
X33433Y36921D01*
X32953Y36202D01*
X32784Y35354D01*
X32953Y34506D01*
X33433Y33788D01*
X34152Y33307D01*
X35000Y33139D01*
X35848Y33307D01*
X36567Y33788D01*
X37047Y34506D01*
X37216Y35354D01*
X37047Y36202D01*
X37031Y36226D01*
X37061Y36377D01*
Y40465D01*
X37034Y40601D01*
Y42735D01*
X34384D01*
X34265Y42735D01*
D02*
G37*
G36*
X36727Y31156D02*
X34460D01*
Y28200D01*
X36727D01*
Y31156D01*
D02*
G37*
G36*
X34060D02*
X31793D01*
Y28200D01*
X34060D01*
Y31156D01*
D02*
G37*
G36*
X43714Y42735D02*
X43333D01*
X43214Y42735D01*
X40565D01*
Y40601D01*
X40538Y40465D01*
Y31156D01*
X39273D01*
Y24844D01*
X44207D01*
Y31156D01*
X43360D01*
Y37842D01*
X43714Y38195D01*
X43860Y38195D01*
X46483D01*
Y42735D01*
X43833D01*
X43714Y42735D01*
D02*
G37*
G36*
X36727Y27800D02*
X34460D01*
Y24844D01*
X36727D01*
Y27800D01*
D02*
G37*
G36*
X34060D02*
X31793D01*
Y24844D01*
X34060D01*
Y27800D01*
D02*
G37*
G36*
X40000Y18375D02*
X39330Y18287D01*
X38706Y18028D01*
X38170Y17617D01*
X37774Y17100D01*
X37648Y17081D01*
X37352D01*
X37226Y17100D01*
X36830Y17617D01*
X36294Y18028D01*
X35670Y18287D01*
X35000Y18375D01*
X34330Y18287D01*
X33706Y18028D01*
X33170Y17617D01*
X32759Y17081D01*
X32501Y16457D01*
X32412Y15787D01*
Y14213D01*
X32501Y13543D01*
X32759Y12919D01*
X33170Y12383D01*
X33706Y11972D01*
X34330Y11713D01*
X35000Y11625D01*
X35670Y11713D01*
X36294Y11972D01*
X36830Y12383D01*
X37226Y12900D01*
X37352Y12919D01*
X37648D01*
X37774Y12900D01*
X38170Y12383D01*
X38706Y11972D01*
X39330Y11713D01*
X40000Y11625D01*
X40670Y11713D01*
X41294Y11972D01*
X41830Y12383D01*
X42241Y12919D01*
X42499Y13543D01*
X42588Y14213D01*
Y15787D01*
X42499Y16457D01*
X42241Y17081D01*
X41830Y17617D01*
X41294Y18028D01*
X40670Y18287D01*
X40000Y18375D01*
D02*
G37*
G36*
X15000Y27249D02*
X13084Y27098D01*
X11215Y26649D01*
X9439Y25914D01*
X7800Y24909D01*
X6339Y23661D01*
X5091Y22200D01*
X4086Y20561D01*
X3351Y18785D01*
X2902Y16916D01*
X2751Y15000D01*
X2902Y13084D01*
X3351Y11215D01*
X4086Y9439D01*
X5091Y7800D01*
X6339Y6339D01*
X7800Y5091D01*
X9439Y4086D01*
X11215Y3351D01*
X13084Y2902D01*
X15000Y2751D01*
X16916Y2902D01*
X18785Y3351D01*
X20561Y4086D01*
X22200Y5091D01*
X23661Y6339D01*
X24909Y7800D01*
X25914Y9439D01*
X26649Y11215D01*
X27098Y13084D01*
X27249Y15000D01*
X27098Y16916D01*
X26649Y18785D01*
X25914Y20561D01*
X24909Y22200D01*
X23661Y23661D01*
X22200Y24909D01*
X20561Y25914D01*
X18785Y26649D01*
X16916Y27098D01*
X15000Y27249D01*
D02*
G37*
%LPD*%
D14*
X237689Y92500D02*
D03*
D15*
X250366D02*
D03*
D16*
X102059Y101000D02*
D03*
X287059Y101500D02*
D03*
D17*
X94579Y101000D02*
D03*
X279579Y101500D02*
D03*
D18*
X240118Y16532D02*
D03*
X229882D02*
D03*
X232441D02*
D03*
X235000D02*
D03*
X237559D02*
D03*
D19*
X222402Y15646D02*
D03*
X247598D02*
D03*
D20*
X220236Y6000D02*
D03*
X249764D02*
D03*
D21*
X230472D02*
D03*
X239528D02*
D03*
D22*
X308500Y161764D02*
D03*
Y172236D02*
D03*
X321500D02*
D03*
Y161764D02*
D03*
X68500Y174736D02*
D03*
Y164264D02*
D03*
X81000Y174736D02*
D03*
Y164264D02*
D03*
D23*
X341146Y175862D02*
D03*
X332854D02*
D03*
X57146D02*
D03*
X48854D02*
D03*
D24*
X341146Y166709D02*
D03*
X332854D02*
D03*
X57146D02*
D03*
X48854D02*
D03*
D25*
X370000Y145000D02*
D03*
X19500D02*
D03*
X20000Y177500D02*
D03*
X370000D02*
D03*
D26*
X96850Y108500D02*
D03*
X103150D02*
D03*
X102850Y152500D02*
D03*
X109150D02*
D03*
X266150Y146000D02*
D03*
X259850D02*
D03*
X128150Y146500D02*
D03*
X121850D02*
D03*
X252850Y78500D02*
D03*
X259150D02*
D03*
X251850Y83500D02*
D03*
X258150D02*
D03*
X280850Y108500D02*
D03*
X287150D02*
D03*
X285150Y152500D02*
D03*
X278850D02*
D03*
D27*
X97866Y114579D02*
D03*
X102000D02*
D03*
X106134D02*
D03*
Y124421D02*
D03*
X102000D02*
D03*
X97866D02*
D03*
X281866Y114579D02*
D03*
X286000D02*
D03*
X290134D02*
D03*
Y124421D02*
D03*
X286000D02*
D03*
X281866D02*
D03*
D28*
X102000Y139980D02*
D03*
Y131020D02*
D03*
X267000Y72520D02*
D03*
Y81480D02*
D03*
X286000Y139980D02*
D03*
Y131020D02*
D03*
D29*
X96000Y138650D02*
D03*
Y132350D02*
D03*
X229000Y71350D02*
D03*
Y77650D02*
D03*
X273000Y80150D02*
D03*
Y73850D02*
D03*
X280000Y138650D02*
D03*
Y132350D02*
D03*
D30*
X110480Y146500D02*
D03*
X101520D02*
D03*
X251520Y72500D02*
D03*
X260480D02*
D03*
X266980Y89500D02*
D03*
X258020D02*
D03*
X277520Y146500D02*
D03*
X286480D02*
D03*
D31*
X63689Y137500D02*
D03*
X87311D02*
D03*
X63689Y122000D02*
D03*
X87311D02*
D03*
X325811Y137500D02*
D03*
X302189D02*
D03*
X325811Y122000D02*
D03*
X302189D02*
D03*
D32*
X217047Y150000D02*
D03*
X172953D02*
D03*
D33*
X331677Y62500D02*
D03*
Y57500D02*
D03*
Y52500D02*
D03*
Y47500D02*
D03*
X310323D02*
D03*
Y52500D02*
D03*
Y57500D02*
D03*
Y62500D02*
D03*
D34*
X341500Y126150D02*
D03*
Y119850D02*
D03*
X56000Y138650D02*
D03*
Y132350D02*
D03*
X341500Y114650D02*
D03*
Y108350D02*
D03*
X56000Y127150D02*
D03*
Y120850D02*
D03*
X208000Y59150D02*
D03*
Y52850D02*
D03*
X202000D02*
D03*
Y59150D02*
D03*
X89500Y25150D02*
D03*
Y18850D02*
D03*
X96500D02*
D03*
Y25150D02*
D03*
D35*
X197756Y19500D02*
D03*
X192244D02*
D03*
X141744Y69000D02*
D03*
X147256D02*
D03*
X118244Y48500D02*
D03*
X123756D02*
D03*
D36*
X147150Y74500D02*
D03*
X140850D02*
D03*
X124650Y13000D02*
D03*
X118350D02*
D03*
Y6000D02*
D03*
X124650D02*
D03*
D37*
X158976Y167697D02*
D03*
X141024D02*
D03*
X248976D02*
D03*
X231024D02*
D03*
X158976Y115197D02*
D03*
X141024D02*
D03*
X248976D02*
D03*
X231024D02*
D03*
D38*
X150000Y192500D02*
D03*
X240000D02*
D03*
X150000Y140000D02*
D03*
X240000D02*
D03*
D39*
X185591Y54764D02*
D03*
Y52795D02*
D03*
Y50827D02*
D03*
Y48858D02*
D03*
X185591Y46890D02*
D03*
X185591Y44921D02*
D03*
Y42953D02*
D03*
Y40984D02*
D03*
Y39016D02*
D03*
Y37047D02*
D03*
Y35079D02*
D03*
X185591Y33110D02*
D03*
X185591Y31142D02*
D03*
Y29173D02*
D03*
Y27205D02*
D03*
Y25236D02*
D03*
X140409D02*
D03*
Y27205D02*
D03*
Y29173D02*
D03*
Y31142D02*
D03*
X140409Y33110D02*
D03*
X140409Y35079D02*
D03*
Y37047D02*
D03*
Y39016D02*
D03*
Y40984D02*
D03*
Y42953D02*
D03*
Y44921D02*
D03*
X140409Y46890D02*
D03*
X140409Y48858D02*
D03*
Y50827D02*
D03*
Y52795D02*
D03*
Y54764D02*
D03*
D40*
X177764Y17410D02*
D03*
X175795D02*
D03*
X173827D02*
D03*
X171858D02*
D03*
X169890Y17409D02*
D03*
X167921Y17410D02*
D03*
X165953D02*
D03*
X163984D02*
D03*
X162016D02*
D03*
X160047D02*
D03*
X158079D02*
D03*
X156110Y17409D02*
D03*
X154142Y17410D02*
D03*
X152173D02*
D03*
X150205D02*
D03*
X148236D02*
D03*
Y62590D02*
D03*
X150205D02*
D03*
X152173D02*
D03*
X154142D02*
D03*
X156110Y62591D02*
D03*
X158079Y62590D02*
D03*
X160047D02*
D03*
X162016D02*
D03*
X163984D02*
D03*
X165953D02*
D03*
X167921D02*
D03*
X169890Y62591D02*
D03*
X171858Y62590D02*
D03*
X173827D02*
D03*
X175795D02*
D03*
X177764D02*
D03*
D41*
X363976Y94657D02*
D03*
Y99579D02*
D03*
Y104500D02*
D03*
Y109421D02*
D03*
Y114342D02*
D03*
X366657Y48118D02*
D03*
Y53039D02*
D03*
Y57961D02*
D03*
Y62882D02*
D03*
D42*
X376969Y123201D02*
D03*
Y85799D02*
D03*
X379650Y71740D02*
D03*
Y39260D02*
D03*
D43*
X280000Y199035D02*
D03*
Y165965D02*
D03*
X110000Y199035D02*
D03*
Y165965D02*
D03*
D44*
X50441Y159240D02*
D03*
X55559D02*
D03*
Y151760D02*
D03*
X53000D02*
D03*
X50441D02*
D03*
X334441Y159240D02*
D03*
X339559D02*
D03*
Y151760D02*
D03*
X337000D02*
D03*
X334441D02*
D03*
D45*
X260161Y122291D02*
D03*
X262720D02*
D03*
X265280D02*
D03*
X267839D02*
D03*
Y139709D02*
D03*
X265280D02*
D03*
X262720D02*
D03*
X260161D02*
D03*
X122382Y122583D02*
D03*
X124941D02*
D03*
X127500D02*
D03*
X130059D02*
D03*
Y140000D02*
D03*
X127500D02*
D03*
X124941D02*
D03*
X122382D02*
D03*
D46*
X264000Y131000D02*
D03*
X126221Y131291D02*
D03*
D47*
X235079Y76634D02*
D03*
Y72500D02*
D03*
Y68366D02*
D03*
X244921D02*
D03*
Y72500D02*
D03*
Y76634D02*
D03*
D48*
X123000Y35350D02*
D03*
Y41650D02*
D03*
D49*
X14488Y41843D02*
D03*
X50512D02*
D03*
Y77866D02*
D03*
X14488D02*
D03*
D50*
X19902Y40465D02*
D03*
X23051D02*
D03*
X26201D02*
D03*
X29350D02*
D03*
X32500D02*
D03*
X35650D02*
D03*
X38799D02*
D03*
X41949D02*
D03*
X45098D02*
D03*
Y79244D02*
D03*
X41949D02*
D03*
X38799D02*
D03*
X35650D02*
D03*
X32500D02*
D03*
X29350D02*
D03*
X26201D02*
D03*
X23051D02*
D03*
X19902D02*
D03*
D51*
X51890Y47256D02*
D03*
Y50406D02*
D03*
Y53555D02*
D03*
Y56705D02*
D03*
Y59854D02*
D03*
Y63004D02*
D03*
Y66154D02*
D03*
Y69303D02*
D03*
Y72453D02*
D03*
X13110D02*
D03*
Y69303D02*
D03*
Y66154D02*
D03*
Y63004D02*
D03*
Y59854D02*
D03*
Y56705D02*
D03*
Y53555D02*
D03*
Y50406D02*
D03*
Y47256D02*
D03*
D52*
X32500Y59854D02*
D03*
D53*
X27827Y73929D02*
D03*
D54*
X46673Y59854D02*
D03*
D55*
X192000Y58256D02*
D03*
Y52744D02*
D03*
X133000Y28756D02*
D03*
Y23244D02*
D03*
X181000Y72744D02*
D03*
Y78256D02*
D03*
X157000D02*
D03*
Y72744D02*
D03*
D56*
X130799Y78335D02*
D03*
Y57665D02*
D03*
X118201Y78335D02*
D03*
Y57665D02*
D03*
D57*
X173231Y78750D02*
D03*
X164569D02*
D03*
Y72450D02*
D03*
X173231D02*
D03*
D58*
X270000Y12905D02*
D03*
Y26094D02*
D03*
X275000Y12905D02*
D03*
Y26094D02*
D03*
X280000Y12905D02*
D03*
Y26094D02*
D03*
X285000Y12905D02*
D03*
Y26094D02*
D03*
X290000Y12905D02*
D03*
Y26094D02*
D03*
D59*
X76992Y75055D02*
D03*
Y66000D02*
D03*
Y56945D02*
D03*
D60*
X101008Y66000D02*
D03*
D61*
X193382Y5760D02*
D03*
Y9500D02*
D03*
Y13240D02*
D03*
X203618D02*
D03*
Y9500D02*
D03*
Y5760D02*
D03*
D62*
X131000Y34996D02*
D03*
Y42004D02*
D03*
D63*
X65000Y63595D02*
D03*
Y75406D02*
D03*
D64*
X26354Y120354D02*
D03*
X15646D02*
D03*
X26354Y106354D02*
D03*
X15646D02*
D03*
X26354Y92354D02*
D03*
X15646D02*
D03*
X86854Y86500D02*
D03*
X76146D02*
D03*
D65*
X65000Y51854D02*
D03*
Y41146D02*
D03*
D66*
X89500Y6547D02*
D03*
Y12453D02*
D03*
X96500Y6547D02*
D03*
Y12453D02*
D03*
X103500Y6547D02*
D03*
Y12453D02*
D03*
X110500Y6547D02*
D03*
Y12453D02*
D03*
D67*
X210283Y69610D02*
D03*
Y76500D02*
D03*
Y83390D02*
D03*
X195717Y69610D02*
D03*
Y76500D02*
D03*
Y83390D02*
D03*
D68*
X46480Y90000D02*
D03*
X39000D02*
D03*
X34260Y28000D02*
D03*
X41740D02*
D03*
D124*
X196705Y69610D02*
X197000Y69315D01*
Y65000D02*
Y69315D01*
X195717Y69610D02*
X196705D01*
X209000Y69315D02*
X209295Y69610D01*
X210283D01*
X209000Y65000D02*
Y69315D01*
X209795Y83390D02*
X210283D01*
X209500Y83685D02*
X209795Y83390D01*
X209500Y83685D02*
Y88000D01*
X196705Y83390D02*
X197000Y83685D01*
X195717Y83390D02*
X196705D01*
X197000Y83685D02*
Y88000D01*
X185500Y68500D02*
Y86500D01*
X169000D02*
X185500D01*
X169000Y86500D02*
X169000Y86500D01*
X152500Y86500D02*
X169000D01*
X152500Y68500D02*
Y86500D01*
X131000Y42004D02*
Y48000D01*
X46480Y90000D02*
X51000D01*
D129*
X227417Y101000D02*
X235917Y92500D01*
X237689D01*
X220500Y101000D02*
X227417D01*
X128000Y145563D02*
Y146500D01*
X269500Y98500D02*
X273000Y102000D01*
X237689Y92500D02*
X239461D01*
X245461Y98500D01*
X269500D01*
X273000Y138339D02*
X277520Y142858D01*
X273000Y102000D02*
Y138339D01*
X277520Y142858D02*
Y146500D01*
X229000Y67500D02*
Y71350D01*
X244988Y68433D02*
X249933D01*
X244921Y68366D02*
X244988Y68433D01*
X249933D02*
X250000Y68500D01*
X273000Y70000D02*
Y73850D01*
X229000Y77650D02*
Y81500D01*
X251772Y76634D02*
X252850Y77713D01*
X244921Y76634D02*
X251772D01*
X244921Y72500D02*
X251520D01*
X235079D02*
X244921D01*
X234784Y76929D02*
X235079Y76634D01*
X230508Y76929D02*
X234784D01*
X229787Y77650D02*
X230508Y76929D01*
X229000Y77650D02*
X229787D01*
X230642Y72205D02*
X234784D01*
X229000Y71350D02*
X229787D01*
X234784Y72205D02*
X235079Y72500D01*
X229787Y71350D02*
X230642Y72205D01*
X302189Y137500D02*
Y141634D01*
X285150Y152500D02*
X291323D01*
X302189Y141634D01*
X278526Y119199D02*
X281866Y115858D01*
X276500Y119500D02*
X276801Y119199D01*
X281866Y114579D02*
Y115858D01*
X276801Y119199D02*
X278526D01*
X300614Y124421D02*
X302189Y122846D01*
X290134Y124421D02*
X300614D01*
X302189Y122000D02*
Y122846D01*
X279579Y106441D02*
X280850Y107713D01*
X279579Y101500D02*
Y106441D01*
X280850Y107713D02*
Y108500D01*
X281571Y110008D02*
Y114284D01*
X280850Y109287D02*
X281571Y110008D01*
Y114284D02*
X281866Y114579D01*
X280850Y108500D02*
Y109287D01*
X106134Y128634D02*
X108000Y130500D01*
X106134Y124421D02*
Y128634D01*
X94579Y101000D02*
Y105441D01*
X96850Y107713D01*
Y108500D01*
Y109287D02*
X97571Y110008D01*
X96850Y108500D02*
Y109287D01*
X97571Y114284D02*
X97866Y114579D01*
X97571Y110008D02*
Y114284D01*
X87311Y117866D02*
X88886Y116291D01*
X92429D02*
X94142Y114579D01*
X87311Y117866D02*
Y122000D01*
X88886Y116291D02*
X92429D01*
X94142Y114579D02*
X97866D01*
X87311Y137500D02*
X87500Y137689D01*
Y146500D01*
X93500Y152500D01*
X102850D01*
X286972Y108677D02*
Y112327D01*
X286000Y113299D02*
X286972Y112327D01*
X286000Y113299D02*
Y114579D01*
X237000Y103500D02*
X268962D01*
X270000Y104538D01*
X267839Y120372D02*
X268962D01*
X270000Y104538D02*
Y119334D01*
X268962Y120372D02*
X270000Y119334D01*
X266500Y116000D02*
Y116426D01*
X265280Y117647D02*
Y122291D01*
Y117647D02*
X266500Y116426D01*
X267839Y120372D02*
Y122291D01*
X103000Y101941D02*
Y108350D01*
X103150Y108500D01*
X102059Y101000D02*
X103000Y101941D01*
X287150Y101591D02*
Y108500D01*
X287059Y101500D02*
X287150Y101591D01*
X240000Y140000D02*
X240291Y139709D01*
X260161D01*
X279000Y149000D02*
Y152350D01*
X278850Y152500D02*
X279000Y152350D01*
X277520Y146500D02*
X278602D01*
X278701Y146598D01*
Y148701D01*
X279000Y149000D01*
X273000Y146500D02*
X277520D01*
X266150Y146000D02*
X272500D01*
X273000Y146500D01*
X266000Y145850D02*
X266150Y146000D01*
X266000Y143500D02*
Y145850D01*
X265280Y142780D02*
X266000Y143500D01*
X265280Y139709D02*
Y142780D01*
X286010Y131010D02*
X292490D01*
X286000Y131020D02*
X286010Y131010D01*
X292490D02*
X292500Y131000D01*
X259500Y151000D02*
X259675Y150825D01*
Y146175D02*
X259850Y146000D01*
X259675Y146175D02*
Y150825D01*
X286000Y139980D02*
Y146402D01*
X286098Y146500D01*
X286480D01*
X284000Y140000D02*
X285980D01*
X286000Y139980D01*
X280000Y138650D02*
X280177Y138827D01*
X282827D01*
X284000Y140000D01*
X280787Y132350D02*
X281866Y131272D01*
X280000Y132350D02*
X280787D01*
X281866Y124421D02*
Y131272D01*
X286000Y124421D02*
Y131020D01*
Y114579D02*
Y124421D01*
X286972Y108677D02*
X287150Y108500D01*
X102000Y132102D02*
X109898Y140000D01*
X102000Y131020D02*
Y132102D01*
X109898Y140000D02*
X122382D01*
X102000Y114579D02*
Y124421D01*
Y110437D02*
Y114579D01*
X103150Y108500D02*
Y109287D01*
X102000Y110437D02*
X103150Y109287D01*
X102000Y124421D02*
Y131020D01*
X96000Y127567D02*
X97866Y125701D01*
X96000Y127567D02*
Y132350D01*
X97866Y124421D02*
Y125701D01*
X102000Y140402D02*
Y146402D01*
Y139980D02*
Y140402D01*
X101902Y140500D02*
X102000Y140402D01*
X98638Y140500D02*
X101902D01*
X96787Y138650D02*
X98638Y140500D01*
X96000Y138650D02*
X96787D01*
X101520Y146500D02*
X101902D01*
X102000Y146402D01*
X109150Y151713D02*
X110480Y150382D01*
X109150Y151713D02*
Y152500D01*
X110480Y146500D02*
Y150382D01*
X110500Y146500D02*
X116500D01*
X128325Y150825D02*
X128500Y151000D01*
X128150Y146500D02*
X128325Y146675D01*
Y150825D01*
X122000Y145563D02*
Y146500D01*
X121675Y146675D02*
Y150825D01*
Y146675D02*
X121850Y146500D01*
X121500Y151000D02*
X121675Y150825D01*
X260028Y143473D02*
Y145823D01*
X260161Y139709D02*
Y143339D01*
X260028Y143473D02*
X260161Y143339D01*
X259850Y146000D02*
X260028Y145823D01*
X127500Y145063D02*
X128000Y145563D01*
X127500Y140000D02*
Y145063D01*
X122000Y145563D02*
X122382Y145181D01*
Y140000D02*
Y145181D01*
X127500Y117426D02*
X128500Y116426D01*
Y116000D02*
Y116426D01*
X127500Y117426D02*
Y122583D01*
X135722Y115000D02*
X141000D01*
X130059Y120663D02*
X135722Y115000D01*
X130059Y120663D02*
Y122583D01*
X231000Y109500D02*
Y115173D01*
X231024Y115197D01*
X231000Y109500D02*
X237000Y103500D01*
D130*
X253327Y89500D02*
X258020D01*
X250366Y92461D02*
X253327Y89500D01*
X250366Y92461D02*
Y92500D01*
X252850Y78500D02*
Y80350D01*
Y77713D02*
Y78500D01*
X251913Y81287D02*
X252850Y80350D01*
X251850Y83500D02*
X251913Y83437D01*
Y81287D02*
Y83437D01*
X258134Y89500D02*
X258150Y89484D01*
Y83500D02*
Y89484D01*
X266980Y89500D02*
X266984D01*
X267000Y81480D02*
Y89484D01*
X266984Y89500D02*
X267000Y89484D01*
Y81016D02*
X267016Y81000D01*
X267000Y81016D02*
Y81480D01*
X267016Y81000D02*
X269500D01*
X269503Y80997D02*
X270287Y80213D01*
X269500Y81000D02*
X269503Y80997D01*
X270287Y80213D02*
X272937D01*
X273000Y80150D01*
X260484Y72500D02*
X266984D01*
X260480D02*
X260484D01*
X266984D02*
X267000Y72516D01*
Y72520D01*
X260484Y72500D02*
X260500Y72516D01*
Y74500D01*
X259150Y78500D02*
X259213Y78437D01*
Y75787D02*
Y78437D01*
Y75787D02*
X260500Y74500D01*
X188500Y9500D02*
X193382D01*
X41965Y28035D02*
X42000Y28000D01*
D131*
X173524Y72744D02*
X181000D01*
X173231Y72450D02*
X173524Y72744D01*
X157000Y78256D02*
X164076D01*
X164569Y78750D01*
X32000Y169500D02*
X38808D01*
X41500Y166808D01*
Y140000D02*
Y166808D01*
Y140000D02*
X42850Y138650D01*
X56000D01*
X51500Y127000D02*
X51575Y127075D01*
X55925D02*
X56000Y127150D01*
X51575Y127075D02*
X55925D01*
X56000Y116500D02*
Y120850D01*
Y127150D02*
Y132350D01*
X259000Y116000D02*
Y116553D01*
X260161Y117715D02*
Y122291D01*
X259000Y116553D02*
X260161Y117715D01*
X262610Y112110D02*
Y122181D01*
X262720Y122291D01*
X262500Y112000D02*
X262610Y112110D01*
X122500Y116500D02*
Y123000D01*
X118500Y112500D02*
X122500Y116500D01*
X118500Y85000D02*
Y112500D01*
X125000Y116000D02*
Y122500D01*
X123500Y114500D02*
X125000Y116000D01*
X123500Y85000D02*
Y114500D01*
X165953Y59664D02*
Y62590D01*
Y59664D02*
X167117Y58500D01*
X174000D02*
X177000Y55500D01*
X167117Y58500D02*
X174000D01*
X177000Y53000D02*
Y55500D01*
X172500Y48500D02*
X177000Y53000D01*
X160047Y17410D02*
Y24547D01*
X170500Y35000D02*
Y45000D01*
X160047Y24547D02*
X170500Y35000D01*
X173500Y34500D02*
Y44000D01*
X162016Y17410D02*
Y23016D01*
X173500Y34500D01*
Y44000D02*
X178000Y48500D01*
X163878Y20174D02*
X163984Y20068D01*
Y17410D02*
Y20068D01*
X176000Y41500D02*
X178000Y43500D01*
X163878Y20174D02*
Y21153D01*
X176000Y33275D01*
Y41500D01*
X169264Y56736D02*
X172500Y53500D01*
X166513Y56736D02*
X169264D01*
X163984Y59265D02*
Y62590D01*
Y59265D02*
X166513Y56736D01*
X332000Y147744D02*
X334441Y150185D01*
X293000Y62000D02*
X332000Y101000D01*
Y147744D01*
X335000Y113000D02*
X336650Y114650D01*
X294243Y59000D02*
X335000Y99757D01*
Y113000D01*
X334441Y150185D02*
Y151760D01*
X341500Y104000D02*
Y108350D01*
X336650Y114650D02*
X341500D01*
Y119850D01*
Y126150D02*
Y132500D01*
X349000Y140000D01*
Y160500D01*
X358000Y169500D01*
X220500Y59000D02*
X294243D01*
X162016Y58484D02*
Y62590D01*
Y58484D02*
X167000Y53500D01*
X217500Y62000D02*
X293000D01*
X214500Y59000D02*
X217500Y62000D01*
X347500Y42000D02*
X350500Y45000D01*
Y102000D01*
X357921Y109421D01*
X354500Y97000D02*
X357079Y99579D01*
X348308Y40000D02*
X352500Y44192D01*
X357079Y99579D02*
X363976D01*
X352500Y44192D02*
Y98000D01*
X359000Y104500D01*
X354500Y42500D02*
Y97000D01*
X167000Y48500D02*
X170500Y45000D01*
X167000Y35000D02*
Y43500D01*
X158079Y26079D02*
X167000Y35000D01*
X158079Y17410D02*
Y26079D01*
X48414Y146914D02*
Y148158D01*
X50441Y150185D02*
Y151760D01*
X48414Y148158D02*
X50441Y150185D01*
X48000Y146500D02*
X48414Y146914D01*
X339559Y150185D02*
X341586Y148158D01*
Y146914D02*
X342000Y146500D01*
X339559Y150185D02*
Y151760D01*
X341586Y146914D02*
Y148158D01*
X337000Y146500D02*
Y151760D01*
X57586Y146914D02*
Y148158D01*
X55559Y150185D02*
Y151760D01*
Y150185D02*
X57586Y148158D01*
Y146914D02*
X58000Y146500D01*
X53000D02*
Y151760D01*
X333653Y166709D02*
X334441Y165921D01*
Y159240D02*
Y165921D01*
X332854Y166709D02*
X333653D01*
X339559Y159240D02*
Y165921D01*
X340347Y166709D01*
X341146D01*
X55559Y159240D02*
Y165921D01*
X56346Y166709D01*
X57146D01*
X49654D02*
X50441Y165921D01*
X48854Y166709D02*
X49654D01*
X50441Y159240D02*
Y165921D01*
X297000Y51000D02*
X303500Y57500D01*
X304000Y52500D02*
X310323D01*
X331677D02*
X343500D01*
X303500Y57500D02*
X310323D01*
X297000Y45500D02*
X304000Y52500D01*
X331677Y47500D02*
X343500D01*
X158079Y59579D02*
Y62590D01*
X154500Y56000D02*
X158079Y59579D01*
X160047Y56047D02*
Y62590D01*
X160000Y56000D02*
X160047Y56047D01*
X156205Y52795D02*
X162500Y46500D01*
Y38335D02*
Y46500D01*
X140409Y52795D02*
X156205D01*
X124650Y6000D02*
X151500D01*
X154142Y8642D02*
Y17410D01*
X151500Y6000D02*
X154142Y8642D01*
X150205Y11881D02*
Y17410D01*
X151000Y10500D02*
Y11086D01*
X150205Y11881D02*
X151000Y11086D01*
X160000Y6000D02*
X165953Y11953D01*
Y17410D01*
X160500Y41500D02*
Y45500D01*
X157500Y38500D02*
X160500Y41500D01*
X155173Y50827D02*
X160500Y45500D01*
X157665Y33500D02*
X162500Y38335D01*
X157500Y33500D02*
X157665D01*
X140409Y50827D02*
X155173D01*
X152142Y48858D02*
X157500Y43500D01*
X140409Y48858D02*
X152142D01*
X140409Y46890D02*
X149110D01*
X152500Y43500D01*
X145493Y44921D02*
X146914Y43500D01*
X140409Y44921D02*
X145493D01*
X146914Y43500D02*
X147500D01*
X115000Y20000D02*
X141500D01*
X146000Y24500D02*
Y28481D01*
X141500Y20000D02*
X146000Y24500D01*
X239000Y33000D02*
X252000D01*
X258500Y39500D02*
X277000D01*
X252000Y33000D02*
X258500Y39500D01*
X282000Y38000D02*
X350000D01*
X278500Y41500D02*
X282000Y38000D01*
X257500Y41500D02*
X278500D01*
X256500Y43500D02*
X279500D01*
X283000Y40000D02*
X348308D01*
X279500Y43500D02*
X283000Y40000D01*
X284000Y42000D02*
X347500D01*
X255500Y45500D02*
X280500D01*
X284000Y42000D01*
X350000Y38000D02*
X354500Y42500D01*
X195736Y41236D02*
X198500Y44000D01*
X190047Y42953D02*
X191764Y41236D01*
X195736D01*
X191000Y39000D02*
X198500D01*
X189016Y40984D02*
X191000Y39000D01*
X198500D02*
X208000Y48500D01*
X199547Y37047D02*
X203500Y41000D01*
X185591Y37047D02*
X199547D01*
X203500Y41000D02*
X216500D01*
X223500Y48000D02*
X242000D01*
X216500Y41000D02*
X223500Y48000D01*
X185591Y35079D02*
X200579D01*
X204500Y39000D01*
X217500D01*
X207500Y33000D02*
X233000D01*
X206500Y35000D02*
X233500D01*
X205500Y37000D02*
X218500D01*
X205736Y25236D02*
X209500Y29000D01*
X203673Y29173D02*
X207500Y33000D01*
X201610Y33110D02*
X205500Y37000D01*
X209500Y29000D02*
X231000D01*
X185591Y33110D02*
X201610D01*
X208500Y31000D02*
X232000D01*
X202642Y31142D02*
X206500Y35000D01*
X233000Y33000D02*
X236000Y30000D01*
X204705Y27205D02*
X208500Y31000D01*
X218500Y37000D02*
X223500Y42000D01*
X232000Y31000D02*
X235000Y28000D01*
X231000Y29000D02*
X233906Y26094D01*
X223500Y45000D02*
X246000D01*
X217500Y39000D02*
X223500Y45000D01*
Y42000D02*
X252000D01*
X208000Y48500D02*
Y52850D01*
X185591Y46890D02*
X201890D01*
X202000Y47000D01*
X185591Y48858D02*
X198858D01*
X200622Y50622D01*
Y51866D02*
X201606Y52850D01*
X200622Y50622D02*
Y51866D01*
X252000Y42000D02*
X255500Y45500D01*
X251000Y38000D02*
X256500Y43500D01*
X252000Y36000D02*
X257500Y41500D01*
X225000Y38000D02*
X251000D01*
X185591Y42953D02*
X190047D01*
X185591Y31142D02*
X202642D01*
X185591Y29173D02*
X203673D01*
X185591Y27205D02*
X204705D01*
X185591Y25236D02*
X205736D01*
X181692Y23500D02*
X208500D01*
X185591Y40984D02*
X189016D01*
X185591Y44921D02*
X192493D01*
X193414Y44000D01*
X194000D01*
X124650Y13000D02*
X147544D01*
X148236Y13692D01*
Y17410D01*
X234500Y36000D02*
X252000D01*
X233500Y35000D02*
X234500Y36000D01*
X201606Y52850D02*
X202000D01*
X357921Y109421D02*
X363976D01*
X359000Y104500D02*
X363976D01*
X281000Y35500D02*
X353500D01*
X277000Y39500D02*
X281000Y35500D01*
X259500Y37500D02*
X276000D01*
X280000Y33500D02*
X354500D01*
X276000Y37500D02*
X280000Y33500D01*
X252000Y30000D02*
X259500Y37500D01*
X354500Y33500D02*
X361500Y40500D01*
X353500Y35500D02*
X359500Y41500D01*
X364492Y57961D02*
X366657D01*
X359500Y52969D02*
X364492Y57961D01*
X359500Y41500D02*
Y52969D01*
X361500Y50047D02*
X364492Y53039D01*
X361500Y40500D02*
Y50047D01*
X364492Y53039D02*
X366657D01*
X235000Y28000D02*
X260500D01*
X236000Y30000D02*
X252000D01*
X263000Y35500D02*
X274925D01*
X259000Y31500D02*
X263000Y35500D01*
X274925D02*
X280000Y30425D01*
X182664Y39016D02*
X185591D01*
X181000Y37352D02*
X182664Y39016D01*
X181000Y24192D02*
Y37352D01*
Y24192D02*
X181692Y23500D01*
X176959Y21500D02*
X186000D01*
X175795Y20336D02*
X176959Y21500D01*
X186000D02*
X188000Y19500D01*
X260500Y28000D02*
X266000Y33500D01*
X271925D01*
X275000Y30425D01*
X280000Y26094D02*
Y30425D01*
X275000Y26094D02*
Y30425D01*
X233906Y26094D02*
X270000D01*
X177764Y16000D02*
Y17410D01*
Y16000D02*
X194650D01*
X197756Y19106D02*
Y19500D01*
X194650Y16000D02*
X197756Y19106D01*
X175795Y17410D02*
Y20336D01*
X201000Y60134D02*
Y72398D01*
X201984Y59150D02*
X202000D01*
X201000Y60134D02*
X201984Y59150D01*
X195717Y76500D02*
X196898D01*
X201000Y72398D01*
X206622Y60134D02*
X207606Y59150D01*
X205000Y62150D02*
X206622Y60528D01*
X205000Y62150D02*
Y72398D01*
X207606Y59150D02*
X208000D01*
X206622Y60134D02*
Y60528D01*
X205000Y72398D02*
X209102Y76500D01*
X210283D01*
X185591Y54764D02*
X188114D01*
X191606Y58256D02*
X192000D01*
X188114Y54764D02*
X191606Y58256D01*
X191949Y52795D02*
X192000Y52744D01*
X185591Y52795D02*
X191949D01*
X147000Y57500D02*
X149500D01*
X150205Y58205D01*
X141744Y62756D02*
X147000Y57500D01*
X150205Y58205D02*
Y62590D01*
X141744Y62756D02*
Y69000D01*
X140409Y37047D02*
X148953D01*
X150500Y35500D01*
Y26000D02*
Y35500D01*
X113500Y7000D02*
X114500Y6000D01*
X112808Y12453D02*
X113500Y11761D01*
Y7000D02*
Y11761D01*
X114500Y6000D02*
X118350D01*
X110500Y12453D02*
X112808D01*
X96850Y25500D02*
X103500D01*
X96500Y25150D02*
X96850Y25500D01*
X103500D02*
X111000Y18000D01*
X142500D01*
X106000Y29000D02*
X115000Y20000D01*
X104192Y15500D02*
X113000D01*
X103500Y12453D02*
Y14808D01*
X113000Y15500D02*
X115500Y13000D01*
X103500Y14808D02*
X104192Y15500D01*
X142500Y18000D02*
X150500Y26000D01*
X89500Y25150D02*
Y27709D01*
X90791Y29000D01*
X106000D01*
X145308Y29173D02*
X146000Y28481D01*
X140409Y29173D02*
X145308D01*
X146890Y33110D02*
X147000Y33000D01*
X140409Y33110D02*
X146890D01*
X147256Y68606D02*
X148236Y67626D01*
X147256Y68606D02*
Y69000D01*
X148236Y62590D02*
Y67626D01*
X169097Y69403D02*
Y75597D01*
Y69403D02*
X169890Y68610D01*
X169097Y75597D02*
X170576Y77076D01*
X169890Y62591D02*
Y68610D01*
X166735Y68265D02*
X167921Y67079D01*
X166735Y68265D02*
Y70777D01*
X167921Y62591D02*
Y67079D01*
Y62591D02*
X167921Y62590D01*
X164569Y72450D02*
X165061D01*
X166735Y70777D01*
X170576Y77076D02*
X171557D01*
X173231Y78750D02*
X173724Y78256D01*
X171557Y77076D02*
X173231Y78750D01*
X173724Y78256D02*
X181000D01*
X169890Y62591D02*
X169890D01*
X164276Y72744D02*
X164569Y72450D01*
X157000Y72744D02*
X164276D01*
X203618Y9500D02*
X208500D01*
X136736Y25236D02*
X140409D01*
X135689Y24189D02*
X136736Y25236D01*
X133945Y24189D02*
X135689D01*
X133000Y23244D02*
X133945Y24189D01*
X136295Y27205D02*
X140409D01*
X135689Y27811D02*
X136295Y27205D01*
X133945Y27811D02*
X135689D01*
X133000Y28756D02*
X133945Y27811D01*
X123886Y41650D02*
X127035Y38500D01*
X123000Y41650D02*
X123886D01*
X127035Y38500D02*
X135000D01*
X136128Y35886D02*
Y37372D01*
X135000Y38500D02*
X136128Y37372D01*
X136935Y35079D02*
X140409D01*
X136128Y35886D02*
X136935Y35079D01*
X123000Y35350D02*
X123354Y34996D01*
X131000D01*
X133913Y33256D02*
X136028Y31142D01*
X133913Y33256D02*
Y33579D01*
X132496Y34996D02*
X133913Y33579D01*
X136028Y31142D02*
X140409D01*
X131000Y34996D02*
X132496D01*
X115500Y13000D02*
X118350D01*
X89500Y12453D02*
Y18850D01*
X96500Y12453D02*
Y18850D01*
D132*
X231946Y178500D02*
X256500D01*
X262720Y172280D01*
X231024Y167697D02*
Y177577D01*
X231946Y178500D01*
X262720Y139709D02*
Y172280D01*
X124941Y163441D02*
X135500Y174000D01*
X124941Y140000D02*
Y163441D01*
X140101Y174000D02*
X141024Y173077D01*
X135500Y174000D02*
X140101D01*
X141024Y167697D02*
Y173077D01*
X157000Y78256D02*
Y82500D01*
X181000Y68500D02*
Y72744D01*
X241300Y21161D02*
X242661D01*
X240118Y19979D02*
X241300Y21161D01*
X242661D02*
X243000Y21500D01*
X240118Y16532D02*
Y19979D01*
X226500Y21500D02*
X228959D01*
X229882Y20577D01*
Y16532D02*
Y20577D01*
D133*
X192000Y62500D02*
X194349Y64849D01*
X196849D02*
X197000Y65000D01*
X194349Y64849D02*
X196849D01*
X192000Y58256D02*
Y62500D01*
X331677Y57500D02*
X337500D01*
X331677Y62500D02*
X337500D01*
X304000D02*
X310323D01*
X304500Y47500D02*
X310323D01*
X137500Y69000D02*
X141744D01*
X147075Y74575D02*
Y78925D01*
Y74575D02*
X147150Y74500D01*
X147000Y79000D02*
X147075Y78925D01*
X358079Y94579D02*
X363898D01*
X358000Y94500D02*
X358079Y94579D01*
X363898D02*
X363976Y94657D01*
X358079Y114421D02*
X363898D01*
X363976Y114342D01*
X358000Y114500D02*
X358079Y114421D01*
X188000Y19500D02*
X192244D01*
X197756D02*
X202000D01*
X196378Y52622D02*
X196500Y52500D01*
X192000Y52744D02*
X192122Y52622D01*
X196378D01*
X147203Y69053D02*
Y74447D01*
Y69053D02*
X147256Y69000D01*
X147150Y74500D02*
X147203Y74447D01*
X360801Y62931D02*
X366608D01*
X366657Y62882D01*
X360752Y62980D02*
X360801Y62931D01*
X366657Y48118D02*
X366717Y48059D01*
X372941D01*
X373000Y48000D01*
D134*
X134447Y52553D02*
Y52935D01*
Y52553D02*
X134500Y52500D01*
X130799Y56583D02*
Y57665D01*
Y56583D02*
X134447Y52935D01*
X131000Y57866D02*
Y69000D01*
X130799Y57665D02*
X131000Y57866D01*
Y69000D02*
X136067Y74067D01*
X130634Y57500D02*
X130799Y57665D01*
X136067Y74067D02*
X140811D01*
X140850Y74106D02*
Y74500D01*
X140811Y74067D02*
X140850Y74106D01*
X118201Y57665D02*
X118447Y57912D01*
Y63447D01*
X118500Y63500D01*
X118447Y72553D02*
Y78088D01*
X118201Y78335D02*
X118447Y78088D01*
Y72553D02*
X118500Y72500D01*
X126500Y57500D02*
X130634D01*
X123756Y48500D02*
Y54756D01*
X126500Y57500D01*
X118201Y57665D02*
X118244Y57622D01*
Y48500D02*
Y57622D01*
D135*
X173722Y13979D02*
Y17305D01*
X173827Y17410D01*
X173679Y12822D02*
Y13935D01*
X173722Y13979D01*
X173679Y12822D02*
X176389Y10111D01*
X184984D01*
X185553Y10721D02*
X188073Y13240D01*
X193382D01*
X185553Y10680D02*
Y10721D01*
X184984Y10111D02*
X185553Y10680D01*
X172006Y12129D02*
Y13935D01*
X171963Y13979D02*
X172006Y13935D01*
X171963Y13979D02*
Y17305D01*
X171858Y17410D02*
X171963Y17305D01*
X172006Y12129D02*
X175697Y8439D01*
X185394D01*
X188073Y5760D01*
X193382D01*
X234699Y16833D02*
X235000Y16532D01*
X229500Y25500D02*
X233034Y21966D01*
Y20073D02*
Y21966D01*
X232742Y19781D02*
X233034Y20073D01*
X232742Y16833D02*
Y19781D01*
X232441Y16532D02*
X232742Y16833D01*
X234406Y20073D02*
Y22534D01*
Y20073D02*
X234699Y19781D01*
Y16833D02*
Y19781D01*
X220932Y26872D02*
X230068D01*
X234406Y22534D01*
X216372Y20372D02*
X221500Y25500D01*
X215000Y20940D02*
X220932Y26872D01*
X221500Y25500D02*
X229500D01*
X215000Y12000D02*
Y20940D01*
X216372Y11432D02*
Y20372D01*
X213186Y10186D02*
X215000Y12000D01*
X213754Y8814D02*
X216372Y11432D01*
X211575Y10186D02*
X213186D01*
X208521Y13240D02*
X211575Y10186D01*
Y8814D02*
X213754D01*
X208521Y5760D02*
X211575Y8814D01*
X203618Y5760D02*
X208521D01*
X203618Y13240D02*
X208521D01*
D136*
X122961Y41610D02*
X123000Y41650D01*
X65000Y41146D02*
X65465Y41610D01*
D137*
X270000Y4500D02*
Y12905D01*
X274996Y4504D02*
Y12901D01*
X274991Y4500D02*
X274996Y4504D01*
Y12901D02*
X275000Y12905D01*
X280000Y4500D02*
Y12905D01*
X290000D02*
Y13205D01*
Y4500D02*
Y12905D01*
X128500Y23500D02*
X128628Y23372D01*
X132872D02*
X133000Y23244D01*
X128628Y23372D02*
X132872D01*
X128500Y29000D02*
X128622Y28878D01*
X132878D02*
X133000Y28756D01*
X128622Y28878D02*
X132878D01*
X38799Y89799D02*
X39000Y90000D01*
X38799Y79244D02*
Y89799D01*
X290000Y13205D02*
X290295Y13500D01*
X269705D02*
X270000Y13205D01*
X41949Y28051D02*
Y40465D01*
Y28051D02*
X41965Y28035D01*
X44000Y73354D02*
Y73727D01*
X45098Y74826D01*
X35000Y35354D02*
Y35727D01*
X45098Y74826D02*
Y79244D01*
X35000Y35727D02*
X35650Y36377D01*
Y40465D01*
D138*
X85038Y6538D02*
X89490D01*
X89500Y6547D01*
X85000Y6500D02*
X85038Y6538D01*
X103500Y6547D02*
X110500D01*
X96500D02*
X103500D01*
X89500D02*
X96500D01*
D139*
X355000Y205000D02*
D03*
X350000D02*
D03*
X345000D02*
D03*
X340000D02*
D03*
X335000D02*
D03*
X330000D02*
D03*
X325000D02*
D03*
X320000D02*
D03*
X315000D02*
D03*
X75000Y15000D02*
D03*
X70000D02*
D03*
X65000D02*
D03*
X60000D02*
D03*
X55000D02*
D03*
X50000D02*
D03*
X45000D02*
D03*
X40000D02*
D03*
X35000D02*
D03*
X355000D02*
D03*
X350000D02*
D03*
X345000D02*
D03*
X340000D02*
D03*
X335000D02*
D03*
X330000D02*
D03*
X325000D02*
D03*
X320000D02*
D03*
X315000D02*
D03*
X75000Y205000D02*
D03*
X70000D02*
D03*
X65000D02*
D03*
X60000D02*
D03*
X55000D02*
D03*
X50000D02*
D03*
X45000D02*
D03*
X40000D02*
D03*
X35000D02*
D03*
D140*
X310000D02*
D03*
X80000Y15000D02*
D03*
X310000D02*
D03*
X80000Y205000D02*
D03*
D141*
X366000Y153000D02*
D03*
X374000D02*
D03*
X382000D02*
D03*
X358000D02*
D03*
Y145000D02*
D03*
X366000D02*
D03*
X374000D02*
D03*
X382000D02*
D03*
Y137000D02*
D03*
X374000D02*
D03*
X366000D02*
D03*
X358000D02*
D03*
X7500D02*
D03*
X15500D02*
D03*
X23500D02*
D03*
X31500D02*
D03*
Y145000D02*
D03*
X23500D02*
D03*
X15500D02*
D03*
X7500D02*
D03*
Y153000D02*
D03*
X31500D02*
D03*
X23500D02*
D03*
X15500D02*
D03*
X8000Y169500D02*
D03*
X16000D02*
D03*
X24000D02*
D03*
X32000D02*
D03*
Y177500D02*
D03*
X24000D02*
D03*
X16000D02*
D03*
X8000D02*
D03*
Y185500D02*
D03*
X32000D02*
D03*
X24000D02*
D03*
X16000D02*
D03*
X366000D02*
D03*
X374000D02*
D03*
X382000D02*
D03*
X358000D02*
D03*
Y177500D02*
D03*
X366000D02*
D03*
X374000D02*
D03*
X382000D02*
D03*
Y169500D02*
D03*
X374000D02*
D03*
X366000D02*
D03*
X358000D02*
D03*
X220500Y101000D02*
D03*
X229000Y67500D02*
D03*
X250000Y68500D02*
D03*
X229000Y81500D02*
D03*
X273000Y70000D02*
D03*
X302189Y122000D02*
D03*
X276500Y119500D02*
D03*
X108000Y130500D02*
D03*
X87311Y122000D02*
D03*
X376969Y118280D02*
D03*
X51500Y127000D02*
D03*
X56000Y116500D02*
D03*
X376969Y123201D02*
D03*
Y85799D02*
D03*
X273000Y205071D02*
D03*
X287000D02*
D03*
X273000Y193071D02*
D03*
X287000D02*
D03*
X273000Y199071D02*
D03*
X287000D02*
D03*
X103000Y172000D02*
D03*
Y166000D02*
D03*
Y160000D02*
D03*
X117000D02*
D03*
Y166000D02*
D03*
Y172000D02*
D03*
Y205071D02*
D03*
Y199071D02*
D03*
Y193071D02*
D03*
X103000Y205071D02*
D03*
Y199071D02*
D03*
Y193071D02*
D03*
X159000Y174000D02*
D03*
X254000D02*
D03*
X244000D02*
D03*
X249000D02*
D03*
X254000Y161000D02*
D03*
X249000D02*
D03*
X254000Y167500D02*
D03*
X244000D02*
D03*
X154000D02*
D03*
X164000D02*
D03*
X159000Y161000D02*
D03*
X154000D02*
D03*
Y174000D02*
D03*
X164000D02*
D03*
X57000Y179000D02*
D03*
Y172500D02*
D03*
X48709Y179000D02*
D03*
Y172500D02*
D03*
X332709Y179000D02*
D03*
Y172500D02*
D03*
X341000D02*
D03*
Y179000D02*
D03*
X305500Y177500D02*
D03*
X311500D02*
D03*
X318000D02*
D03*
X324000D02*
D03*
X84000Y180000D02*
D03*
X78000D02*
D03*
X71500D02*
D03*
X65500D02*
D03*
X240000Y192500D02*
D03*
X248000D02*
D03*
Y184500D02*
D03*
X240000D02*
D03*
X232000D02*
D03*
Y192500D02*
D03*
Y200500D02*
D03*
X240000D02*
D03*
X248000D02*
D03*
X150000Y192500D02*
D03*
X158000D02*
D03*
Y184500D02*
D03*
X150000D02*
D03*
X142000D02*
D03*
Y192500D02*
D03*
Y200500D02*
D03*
X150000D02*
D03*
X158000D02*
D03*
X217047Y150000D02*
D03*
X214094Y156000D02*
D03*
X220094D02*
D03*
X214094Y144000D02*
D03*
X220094D02*
D03*
X176000D02*
D03*
X170000D02*
D03*
X176000Y156000D02*
D03*
X170000D02*
D03*
X172953Y150000D02*
D03*
X240000Y140000D02*
D03*
X248000D02*
D03*
Y132000D02*
D03*
X240000D02*
D03*
X232000D02*
D03*
Y140000D02*
D03*
Y148000D02*
D03*
X240000D02*
D03*
X248000D02*
D03*
X158000D02*
D03*
X150000D02*
D03*
X142000D02*
D03*
Y140000D02*
D03*
Y132000D02*
D03*
X150000D02*
D03*
X158000D02*
D03*
Y140000D02*
D03*
X262500Y112000D02*
D03*
X266500Y116000D02*
D03*
X326000Y118000D02*
D03*
Y126000D02*
D03*
Y133500D02*
D03*
Y141500D02*
D03*
X292500Y131000D02*
D03*
X259500Y151000D02*
D03*
X63500Y118000D02*
D03*
Y126000D02*
D03*
Y133500D02*
D03*
Y141500D02*
D03*
X116500Y146500D02*
D03*
X150000Y140000D02*
D03*
X128500Y151000D02*
D03*
X121500D02*
D03*
X128500Y116000D02*
D03*
X123500Y85000D02*
D03*
X126221Y131291D02*
D03*
X264000Y131000D02*
D03*
X178000Y43500D02*
D03*
Y48500D02*
D03*
X172500Y53500D02*
D03*
Y48500D02*
D03*
X341500Y104000D02*
D03*
X220500Y59000D02*
D03*
X167000Y53500D02*
D03*
X214500Y59000D02*
D03*
X259000Y116000D02*
D03*
X167000Y48500D02*
D03*
X118500Y85000D02*
D03*
X167000Y43500D02*
D03*
X48000Y146500D02*
D03*
X342000D02*
D03*
X337000D02*
D03*
X58000D02*
D03*
X53000D02*
D03*
X14488Y77866D02*
D03*
X38000Y60000D02*
D03*
X27000D02*
D03*
X32500Y59854D02*
D03*
X324000Y156500D02*
D03*
X318500D02*
D03*
X311500D02*
D03*
X306000D02*
D03*
X84000Y159000D02*
D03*
X78000D02*
D03*
X71500D02*
D03*
X65500D02*
D03*
X134500Y52500D02*
D03*
X304000Y62500D02*
D03*
X297000Y45500D02*
D03*
X343500Y47500D02*
D03*
X337500Y62500D02*
D03*
X297000Y51000D02*
D03*
X304500Y47500D02*
D03*
X337500Y57500D02*
D03*
X343500Y52500D02*
D03*
X154500Y56000D02*
D03*
X160000D02*
D03*
X147000Y79000D02*
D03*
X137500Y69000D02*
D03*
X151000Y10500D02*
D03*
X160000Y6000D02*
D03*
X157500Y38500D02*
D03*
Y33500D02*
D03*
X147500Y43500D02*
D03*
X157500D02*
D03*
X152500D02*
D03*
X242000Y48000D02*
D03*
X246000Y45000D02*
D03*
X202000Y47000D02*
D03*
X225000Y38000D02*
D03*
X198500Y44000D02*
D03*
X194000D02*
D03*
X239000Y33000D02*
D03*
X208500Y23500D02*
D03*
X259000Y31500D02*
D03*
X188000Y19500D02*
D03*
X202000D02*
D03*
X209500Y88000D02*
D03*
X197000D02*
D03*
X196500Y52500D02*
D03*
X209000Y65000D02*
D03*
X197000D02*
D03*
X118500Y72500D02*
D03*
Y63500D02*
D03*
X56500Y57000D02*
D03*
Y63500D02*
D03*
X92000Y84000D02*
D03*
Y89500D02*
D03*
X71000Y86500D02*
D03*
X67500Y81500D02*
D03*
X62500D02*
D03*
X67500Y57000D02*
D03*
X62000D02*
D03*
X379650Y71740D02*
D03*
Y39260D02*
D03*
X358000Y94500D02*
D03*
Y114500D02*
D03*
X360752Y62980D02*
D03*
X373000Y63000D02*
D03*
Y58000D02*
D03*
Y48000D02*
D03*
X147000Y33000D02*
D03*
X287000Y172000D02*
D03*
X273000D02*
D03*
X287000Y160000D02*
D03*
X273000D02*
D03*
X287000Y166000D02*
D03*
X273000D02*
D03*
X244000Y115000D02*
D03*
X254000D02*
D03*
X249000Y108500D02*
D03*
Y121500D02*
D03*
X244000Y108500D02*
D03*
Y121500D02*
D03*
X254000D02*
D03*
Y108500D02*
D03*
X164000D02*
D03*
Y121500D02*
D03*
X154000D02*
D03*
Y108500D02*
D03*
X159000Y121500D02*
D03*
Y108500D02*
D03*
X164000Y115000D02*
D03*
X154000D02*
D03*
X270000Y4500D02*
D03*
X290000D02*
D03*
X280000D02*
D03*
X274991D02*
D03*
X185500Y77500D02*
D03*
X152500Y77500D02*
D03*
X185500Y68500D02*
D03*
X152500D02*
D03*
X185500Y86500D02*
D03*
X152500Y86500D02*
D03*
X169000Y86500D02*
D03*
X157000Y82500D02*
D03*
X181000Y68500D02*
D03*
X243000Y21500D02*
D03*
X226500D02*
D03*
X188500Y9500D02*
D03*
X208500D02*
D03*
X85000Y6500D02*
D03*
X128500Y23500D02*
D03*
Y29000D02*
D03*
X131000Y48000D02*
D03*
X109000Y56000D02*
D03*
Y76000D02*
D03*
Y66000D02*
D03*
X93500Y56000D02*
D03*
Y76000D02*
D03*
X101008Y56000D02*
D03*
X93500Y66000D02*
D03*
X101008Y76000D02*
D03*
X32000Y120354D02*
D03*
X10000Y110000D02*
D03*
Y102000D02*
D03*
Y88000D02*
D03*
Y92000D02*
D03*
Y96000D02*
D03*
Y106000D02*
D03*
Y117000D02*
D03*
Y121000D02*
D03*
Y125000D02*
D03*
X51000Y90000D02*
D03*
X44000Y73354D02*
D03*
X35000Y35354D02*
D03*
X32000Y110354D02*
D03*
Y106354D02*
D03*
Y102354D02*
D03*
Y96354D02*
D03*
Y88354D02*
D03*
X50500Y33500D02*
D03*
X32000Y116354D02*
D03*
Y92354D02*
D03*
D142*
X15000Y15000D02*
D03*
X375000D02*
D03*
X15000Y205000D02*
D03*
X375000D02*
D03*
D143*
X32000Y124354D02*
D03*
M02*
