G04*
G04 #@! TF.GenerationSoftware,Altium Limited,Altium Designer,21.0.8 (223)*
G04*
G04 Layer_Color=16711935*
%FSLAX25Y25*%
%MOIN*%
G70*
G04*
G04 #@! TF.SameCoordinates,F73AF2F2-5EA1-4A86-BE9F-7F0372A2F074*
G04*
G04*
G04 #@! TF.FilePolarity,Positive*
G04*
G01*
G75*
%ADD11C,0.00787*%
%ADD14C,0.00394*%
D11*
X87925Y6350D02*
X91075D01*
X87925D02*
Y12650D01*
X91075D01*
Y6350D02*
Y12650D01*
X98075Y6350D02*
Y12650D01*
X94925D02*
X98075D01*
X94925Y6350D02*
Y12650D01*
Y6350D02*
X98075D01*
X101925D02*
X105075D01*
X101925D02*
Y12650D01*
X105075D01*
Y6350D02*
Y12650D01*
X112075Y6350D02*
Y12650D01*
X108925D02*
X112075D01*
X108925Y6350D02*
Y12650D01*
Y6350D02*
X112075D01*
X366657Y71543D02*
X386343D01*
X366657Y39457D02*
Y71543D01*
Y39457D02*
X386343D01*
Y71543D01*
Y39457D02*
Y71543D01*
X366657D02*
X386343D01*
X366657Y39457D02*
Y71543D01*
Y39457D02*
X386343D01*
X363976Y85996D02*
X383661D01*
X363976D02*
Y118083D01*
X383661D01*
Y85996D02*
Y118083D01*
X89957Y4157D02*
X122043D01*
Y23843D01*
X89957D02*
X122043D01*
X89957Y4157D02*
Y23843D01*
X386842Y81535D02*
Y123465D01*
X367158Y81535D02*
X386842D01*
X367158D02*
Y123465D01*
X386842D01*
X162601Y70679D02*
X175199D01*
X162601D02*
Y80521D01*
X175199D01*
Y70679D02*
Y80521D01*
X229134Y98618D02*
X245866D01*
Y88382D02*
Y98618D01*
X229134Y88382D02*
X245866D01*
X229134D02*
Y98618D01*
X83063Y104244D02*
Y109756D01*
X90937D01*
Y104244D02*
Y109756D01*
X83063Y104244D02*
X90937D01*
X301063D02*
X308937D01*
Y109756D01*
X301063D02*
X308937D01*
X301063Y104244D02*
Y109756D01*
X220236Y17221D02*
X249764D01*
Y-2465D02*
Y17221D01*
X220236Y-2465D02*
X249764D01*
X220236D02*
Y17221D01*
X212500Y0D02*
X257500D01*
X222795Y-4827D02*
Y-2465D01*
Y-4827D02*
X247205D01*
Y-2465D01*
X219252Y-4827D02*
X220236Y-2465D01*
X219252Y-4827D02*
X220236D01*
X221220Y-2465D01*
X249764D02*
X250748Y-4827D01*
X249764D02*
X250748D01*
X248780Y-2465D02*
X249764Y-4827D01*
X330898Y181000D02*
X343102D01*
X330898Y166000D02*
Y181000D01*
Y166000D02*
X343102D01*
Y181000D01*
X46898D02*
X59102D01*
X46898Y166000D02*
Y181000D01*
Y166000D02*
X59102D01*
Y181000D01*
X137205Y174705D02*
Y199193D01*
Y174705D02*
X162795D01*
Y199193D01*
X137205D02*
X162795D01*
X227205Y174705D02*
Y199193D01*
Y174705D02*
X252795D01*
Y199193D01*
X227205D02*
X252795D01*
X137205Y122205D02*
Y146693D01*
Y122205D02*
X162795D01*
Y146693D01*
X137205D02*
X162795D01*
X227205Y122205D02*
Y146693D01*
Y122205D02*
X252795D01*
Y146693D01*
X227205D02*
X252795D01*
X12815Y79539D02*
X52185D01*
Y40169D02*
Y79539D01*
X12815Y40169D02*
X52185D01*
X12815D02*
Y79539D01*
X133358Y59142D02*
Y76858D01*
X115642Y59142D02*
X133358D01*
X115642D02*
Y76858D01*
X133358D01*
X210677Y65870D02*
Y87130D01*
X195323D02*
X210677D01*
X195323Y65870D02*
Y87130D01*
Y65870D02*
X210677D01*
D14*
X89492Y143945D02*
X91559Y141878D01*
X86441Y143945D02*
X91559D01*
X86441Y137055D02*
Y143945D01*
Y137055D02*
X91559D01*
Y143945D01*
X307500Y200079D02*
Y209921D01*
Y200079D02*
X357500D01*
Y209921D01*
X307500D02*
X357500D01*
X32500Y10079D02*
X82500D01*
X32500D02*
Y19921D01*
X82500D01*
Y10079D02*
Y19921D01*
X307500Y10079D02*
Y19921D01*
Y10079D02*
X357500D01*
Y19921D01*
X307500D02*
X357500D01*
X32500Y200079D02*
X82500D01*
X32500D02*
Y209921D01*
X82500D01*
Y200079D02*
Y209921D01*
X182685Y20315D02*
Y59685D01*
X143315Y20315D02*
X182685D01*
X143315D02*
Y59685D01*
X182685D01*
X180717D02*
X182685Y57717D01*
X121925Y26850D02*
Y33150D01*
X125075D01*
Y26850D02*
Y33150D01*
X121925Y26850D02*
X125075D01*
X312949Y82673D02*
X319051D01*
Y79327D02*
Y82673D01*
X312949Y79327D02*
X319051D01*
X312949D02*
Y82673D01*
X47327Y139949D02*
Y146051D01*
X50673D01*
Y139949D02*
Y146051D01*
X47327Y139949D02*
X50673D01*
X337701Y82425D02*
X344000D01*
X337701D02*
Y85575D01*
X344000D01*
Y82425D02*
Y85575D01*
X50925Y104350D02*
Y110650D01*
X54075D01*
Y104350D02*
Y110650D01*
X50925Y104350D02*
X54075D01*
X158575Y72350D02*
Y78650D01*
X155425Y72350D02*
X158575D01*
X155425D02*
Y78650D01*
X158575D01*
X179425Y72350D02*
Y78650D01*
X182575D01*
Y72350D02*
Y78650D01*
X179425Y72350D02*
X182575D01*
X258941Y8122D02*
X261008Y6055D01*
X258941D02*
X264059D01*
Y12945D01*
X258941D02*
X264059D01*
X258941Y6055D02*
Y12945D01*
X320201Y111098D02*
X332799D01*
X320201D02*
Y135902D01*
X332799D01*
Y111098D02*
Y135902D01*
X64701Y141902D02*
X77299D01*
Y117098D02*
Y141902D01*
X64701Y117098D02*
X77299D01*
X64701D02*
Y141902D01*
X66441Y113209D02*
X71559D01*
Y101791D02*
Y113209D01*
X66441Y101791D02*
X71559D01*
X66441D02*
Y113209D01*
Y109429D02*
X70221Y113209D01*
X345709Y91441D02*
Y96559D01*
X334291Y91441D02*
X345709D01*
X334291D02*
Y96559D01*
X345709D01*
X341929D02*
X345709Y92779D01*
X305425Y74850D02*
Y81150D01*
X308575D01*
Y74850D02*
Y81150D01*
X305425Y74850D02*
X308575D01*
X47425Y129350D02*
Y135650D01*
X50575D01*
Y129350D02*
Y135650D01*
X47425Y129350D02*
X50575D01*
X103449Y44827D02*
X109551D01*
X103449D02*
Y48173D01*
X109551D01*
Y44827D02*
Y48173D01*
X160449Y12173D02*
X166551D01*
Y8827D02*
Y12173D01*
X160449Y8827D02*
X166551D01*
X160449D02*
Y12173D01*
X303327Y28449D02*
Y34551D01*
X306673D01*
Y28449D02*
Y34551D01*
X303327Y28449D02*
X306673D01*
X297327Y25949D02*
Y32051D01*
X300673D01*
Y25949D02*
Y32051D01*
X297327Y25949D02*
X300673D01*
X337327Y46949D02*
Y53051D01*
X340673D01*
Y46949D02*
Y53051D01*
X337327Y46949D02*
X340673D01*
X325350Y66925D02*
Y70075D01*
Y66925D02*
X331650D01*
Y70075D01*
X325350D02*
X331650D01*
X295925Y62894D02*
X299075D01*
X295925Y56595D02*
Y62894D01*
Y56595D02*
X299075D01*
Y62894D01*
X60150Y144425D02*
Y147575D01*
X53850D02*
X60150D01*
X53850Y144425D02*
Y147575D01*
Y144425D02*
X60150D01*
X343650Y143925D02*
Y147075D01*
X337350D02*
X343650D01*
X337350Y143925D02*
Y147075D01*
Y143925D02*
X343650D01*
X56264Y116024D02*
Y122126D01*
X59610D01*
Y116024D02*
Y122126D01*
X56264Y116024D02*
X59610D01*
X303079Y175799D02*
X312921D01*
X303079Y163201D02*
Y175799D01*
Y163201D02*
X312921D01*
Y175799D01*
X90150Y111925D02*
Y115075D01*
X83850D02*
X90150D01*
X83850Y111925D02*
Y115075D01*
Y111925D02*
X90150D01*
X83095Y121547D02*
Y127453D01*
X94906D01*
Y121547D02*
Y127453D01*
X83095Y121547D02*
X94906D01*
X83095Y125681D02*
X87228Y121547D01*
X81425Y137350D02*
X84575D01*
Y143650D01*
X81425D02*
X84575D01*
X81425Y137350D02*
Y143650D01*
X93441Y137055D02*
Y143945D01*
X98559D01*
Y137055D02*
Y143945D01*
X93441Y137055D02*
X98559D01*
X93441Y139122D02*
X95508Y137055D01*
X169016Y124606D02*
Y175394D01*
Y124606D02*
X220984D01*
Y175394D01*
X169016D02*
X220984D01*
X325921Y163201D02*
Y175799D01*
X316079Y163201D02*
X325921D01*
X316079D02*
Y175799D01*
X325921D01*
X73421Y163201D02*
Y175799D01*
X63579Y163201D02*
X73421D01*
X63579D02*
Y175799D01*
X73421D01*
X85921Y163201D02*
Y175799D01*
X76079Y163201D02*
X85921D01*
X76079D02*
Y175799D01*
X85921D01*
X313323Y59646D02*
X318323Y64646D01*
X313323Y45354D02*
Y64646D01*
Y45354D02*
X328677D01*
Y64646D01*
X313323D02*
X328677D01*
X56264Y104524D02*
Y110626D01*
X59610D01*
Y104524D02*
Y110626D01*
X56264Y104524D02*
X59610D01*
X343827Y129949D02*
Y136051D01*
X347173D01*
Y129949D02*
Y136051D01*
X343827Y129949D02*
X347173D01*
X343827Y117949D02*
Y124051D01*
X347173D01*
Y117949D02*
Y124051D01*
X343827Y117949D02*
X347173D01*
X191850Y17925D02*
X198150D01*
X191850D02*
Y21075D01*
X198150D01*
Y17925D02*
Y21075D01*
X140949Y72827D02*
X147051D01*
X140949D02*
Y76173D01*
X147051D01*
Y72827D02*
Y76173D01*
X300276Y162224D02*
Y192638D01*
X290138Y202776D02*
X300276Y192638D01*
X269862Y202776D02*
X290138D01*
X259724Y192638D02*
X269862Y202776D01*
X259724Y162224D02*
Y192638D01*
Y162224D02*
X300276D01*
X130276D02*
Y192638D01*
X120138Y202776D02*
X130276Y192638D01*
X99862Y202776D02*
X120138D01*
X89724Y192638D02*
X99862Y202776D01*
X89724Y162224D02*
Y192638D01*
Y162224D02*
X130276D01*
X49063Y156098D02*
X51622Y153539D01*
X49063D02*
X56937D01*
Y158461D01*
X49063D02*
X56937D01*
X49063Y153539D02*
Y158461D01*
X333063Y155598D02*
X335622Y153039D01*
X333063D02*
X340937D01*
Y157961D01*
X333063D02*
X340937D01*
X333063Y153039D02*
Y157961D01*
X300594Y121547D02*
Y127453D01*
X312405D01*
Y121547D02*
Y127453D01*
X300594Y121547D02*
X312405D01*
X300594Y125681D02*
X304728Y121547D01*
X274642Y119498D02*
Y131309D01*
X286453D01*
Y119498D02*
Y131309D01*
X274642Y119498D02*
X286453D01*
X274642Y122057D02*
X277201Y119498D01*
X103815Y118386D02*
Y130197D01*
X115626D01*
Y118386D02*
Y130197D01*
X103815Y118386D02*
X115626D01*
X103815Y120945D02*
X106374Y118386D01*
X276398Y138829D02*
X282697D01*
X276398D02*
Y141978D01*
X282697D01*
Y138829D02*
Y141978D01*
X105350Y137925D02*
X111650D01*
X105350D02*
Y141075D01*
X111650D01*
Y137925D02*
Y141075D01*
X252350Y83575D02*
X258650D01*
Y80425D02*
Y83575D01*
X252350Y80425D02*
X258650D01*
X252350D02*
Y83575D01*
X226925Y74850D02*
Y81150D01*
X230075D01*
Y74850D02*
Y81150D01*
X226925Y74850D02*
X230075D01*
X274075Y78350D02*
Y84650D01*
X270925Y78350D02*
X274075D01*
X270925D02*
Y84650D01*
X274075D01*
X256878Y73441D02*
X258945Y75508D01*
Y73441D02*
Y78559D01*
X252055D02*
X258945D01*
X252055Y73441D02*
Y78559D01*
Y73441D02*
X258945D01*
X266992Y83945D02*
X269059Y81878D01*
X263941Y83945D02*
X269059D01*
X263941Y77055D02*
Y83945D01*
Y77055D02*
X269059D01*
Y83945D01*
X236547Y81906D02*
X242453D01*
Y70095D02*
Y81906D01*
X236547Y70095D02*
X242453D01*
X236547D02*
Y81906D01*
Y77772D02*
X240681Y81906D01*
X129039Y33063D02*
Y40937D01*
X133961D01*
Y33063D02*
Y40937D01*
X129039Y33063D02*
X133961D01*
X193575Y52350D02*
Y58650D01*
X190425Y52350D02*
X193575D01*
X190425D02*
Y58650D01*
X193575D01*
X267500Y26193D02*
X292500D01*
X267500Y12807D02*
X292500D01*
X267500D02*
Y26193D01*
X82110Y78795D02*
X91165D01*
X82110Y69740D02*
Y78795D01*
X95890D01*
Y53205D02*
Y78795D01*
X82110Y53205D02*
X95890D01*
X82110D02*
Y78795D01*
X201697Y3744D02*
Y15256D01*
X195303D02*
X201697D01*
X195303Y3744D02*
Y15256D01*
Y3744D02*
X201697D01*
X59488Y62610D02*
Y76390D01*
X70512D01*
Y62610D02*
Y76390D01*
X59488Y62610D02*
X70512D01*
X14701Y115433D02*
X27299D01*
X14701D02*
Y125276D01*
X27299D01*
Y115433D02*
Y125276D01*
X14701Y101433D02*
X27299D01*
X14701D02*
Y111276D01*
X27299D01*
Y101433D02*
Y111276D01*
X14701Y87433D02*
X27299D01*
X14701D02*
Y97276D01*
X27299D01*
Y87433D02*
Y97276D01*
X75201Y81579D02*
X87799D01*
X75201D02*
Y91421D01*
X87799D01*
Y81579D02*
Y91421D01*
X69921Y40201D02*
Y52799D01*
X60079Y40201D02*
X69921D01*
X60079D02*
Y52799D01*
X69921D01*
X309059Y137055D02*
Y143945D01*
X303941Y137055D02*
X309059D01*
X303941D02*
Y143945D01*
X309059D01*
X306992D02*
X309059Y141878D01*
X291941Y137055D02*
Y143945D01*
X297059D01*
Y137055D02*
Y143945D01*
X291941Y137055D02*
X297059D01*
X291941Y139122D02*
X294008Y137055D01*
X209673Y52949D02*
Y59051D01*
X206327Y52949D02*
X209673D01*
X206327D02*
Y59051D01*
X209673D01*
X200327D02*
X203673D01*
X200327Y52949D02*
Y59051D01*
Y52949D02*
X203673D01*
Y59051D01*
X91173Y18949D02*
Y25051D01*
X87827Y18949D02*
X91173D01*
X87827D02*
Y25051D01*
X91173D01*
X94827D02*
X98173D01*
X94827Y18949D02*
Y25051D01*
Y18949D02*
X98173D01*
Y25051D01*
X118449Y11327D02*
X124551D01*
X118449D02*
Y14673D01*
X124551D01*
Y11327D02*
Y14673D01*
Y4327D02*
Y7673D01*
X118449D02*
X124551D01*
X118449Y4327D02*
Y7673D01*
Y4327D02*
X124551D01*
X131425Y21850D02*
X134575D01*
Y28150D01*
X131425D02*
X134575D01*
X131425Y21850D02*
Y28150D01*
X147650Y67425D02*
Y70575D01*
X141350D02*
X147650D01*
X141350Y67425D02*
Y70575D01*
Y67425D02*
X147650D01*
X124150Y46925D02*
Y50075D01*
X117850D02*
X124150D01*
X117850Y46925D02*
Y50075D01*
Y46925D02*
X124150D01*
X298925Y138701D02*
X302075D01*
Y145000D01*
X298925D02*
X302075D01*
X298925Y138701D02*
Y145000D01*
X307650Y111925D02*
Y115075D01*
X301350D02*
X307650D01*
X301350Y111925D02*
Y115075D01*
Y111925D02*
X307650D01*
X38563Y87039D02*
Y91961D01*
Y87039D02*
X46437D01*
Y91961D01*
X38563D02*
X46437D01*
X41937Y25539D02*
Y30461D01*
X34063D02*
X41937D01*
X34063Y25539D02*
Y30461D01*
Y25539D02*
X41937D01*
M02*
