G04*
G04 #@! TF.GenerationSoftware,Altium Limited,Altium Designer,21.0.8 (223)*
G04*
G04 Layer_Physical_Order=3*
G04 Layer_Color=16440176*
%FSLAX25Y25*%
%MOIN*%
G70*
G04*
G04 #@! TF.SameCoordinates,7920E5AB-F19E-47E3-9C16-B8E2F772CBAB*
G04*
G04*
G04 #@! TF.FilePolarity,Positive*
G04*
G01*
G75*
%ADD138C,0.01181*%
%ADD139C,0.01772*%
%ADD140C,0.01575*%
%ADD149O,0.04331X0.06299*%
%ADD150C,0.03347*%
G36*
X386000Y165500D02*
X354000D01*
Y189500D01*
X386000D01*
Y165500D01*
D02*
G37*
G36*
X36000D02*
X4000D01*
Y189500D01*
X36000D01*
Y165500D01*
D02*
G37*
G36*
X232702Y167572D02*
X232721Y167461D01*
X232752Y167348D01*
X232796Y167233D01*
X232854Y167116D01*
X232924Y166997D01*
X233007Y166876D01*
X233103Y166753D01*
X233212Y166627D01*
X233334Y166500D01*
X232221Y165386D01*
X232093Y165508D01*
X231844Y165714D01*
X231723Y165797D01*
X231604Y165867D01*
X231487Y165924D01*
X231372Y165969D01*
X231260Y166000D01*
X231149Y166018D01*
X231040Y166024D01*
X232697Y167680D01*
X232702Y167572D01*
D02*
G37*
G36*
X141007Y166024D02*
X140898Y166018D01*
X140788Y166000D01*
X140675Y165969D01*
X140560Y165924D01*
X140443Y165867D01*
X140324Y165797D01*
X140203Y165714D01*
X140079Y165618D01*
X139954Y165508D01*
X139827Y165386D01*
X138713Y166500D01*
X138835Y166627D01*
X139040Y166876D01*
X139124Y166997D01*
X139194Y167116D01*
X139251Y167233D01*
X139295Y167348D01*
X139327Y167461D01*
X139345Y167572D01*
X139350Y167680D01*
X141007Y166024D01*
D02*
G37*
G36*
X249258Y149117D02*
X249334Y149068D01*
X249423Y149026D01*
X249526Y148989D01*
X249642Y148957D01*
X249771Y148932D01*
X249914Y148911D01*
X250240Y148889D01*
X250424Y148886D01*
Y147114D01*
X250240Y147111D01*
X249914Y147089D01*
X249771Y147069D01*
X249642Y147043D01*
X249526Y147011D01*
X249423Y146974D01*
X249334Y146932D01*
X249258Y146883D01*
X249195Y146829D01*
Y149171D01*
X249258Y149117D01*
D02*
G37*
G36*
X280761Y147307D02*
X280793Y146843D01*
X280813Y146721D01*
X280837Y146616D01*
X280865Y146527D01*
X280897Y146455D01*
X280934Y146399D01*
X280975Y146360D01*
X278979Y146326D01*
X279018Y146365D01*
X279053Y146422D01*
X279083Y146494D01*
X279110Y146584D01*
X279133Y146689D01*
X279151Y146811D01*
X279176Y147105D01*
X279184Y147465D01*
X280759Y147495D01*
X280761Y147307D01*
D02*
G37*
G36*
X274305Y143829D02*
X274242Y143883D01*
X274166Y143931D01*
X274077Y143974D01*
X273974Y144011D01*
X273858Y144043D01*
X273728Y144069D01*
X273586Y144088D01*
X273260Y144111D01*
X273077Y144114D01*
Y145886D01*
X273260Y145889D01*
X273586Y145912D01*
X273728Y145931D01*
X273858Y145957D01*
X273974Y145989D01*
X274077Y146026D01*
X274166Y146069D01*
X274242Y146117D01*
X274305Y146171D01*
Y143829D01*
D02*
G37*
G36*
X109775Y146098D02*
X109867Y146033D01*
X109969Y145975D01*
X110081Y145926D01*
X110204Y145883D01*
X110338Y145849D01*
X110483Y145822D01*
X110638Y145803D01*
X110804Y145791D01*
X110980Y145787D01*
Y144213D01*
X110804Y144209D01*
X110483Y144178D01*
X110338Y144151D01*
X110204Y144117D01*
X110081Y144074D01*
X109969Y144025D01*
X109867Y143967D01*
X109775Y143902D01*
X109695Y143829D01*
Y146171D01*
X109775Y146098D01*
D02*
G37*
G36*
X104617Y143742D02*
X104569Y143666D01*
X104526Y143577D01*
X104489Y143474D01*
X104457Y143358D01*
X104431Y143228D01*
X104411Y143086D01*
X104389Y142760D01*
X104386Y142577D01*
X102614D01*
X102611Y142760D01*
X102588Y143086D01*
X102568Y143228D01*
X102543Y143358D01*
X102511Y143474D01*
X102474Y143577D01*
X102431Y143666D01*
X102383Y143742D01*
X102329Y143805D01*
X104671D01*
X104617Y143742D01*
D02*
G37*
G36*
X141983Y138327D02*
X141901Y138321D01*
X141813Y138302D01*
X141719Y138268D01*
X141620Y138222D01*
X141516Y138162D01*
X141406Y138089D01*
X141291Y138002D01*
X141044Y137787D01*
X140913Y137660D01*
X139660Y138913D01*
X139787Y139044D01*
X140002Y139291D01*
X140089Y139406D01*
X140162Y139516D01*
X140222Y139620D01*
X140269Y139719D01*
X140302Y139813D01*
X140321Y139901D01*
X140327Y139983D01*
X141983Y138327D01*
D02*
G37*
G36*
X350596Y138411D02*
X350614Y138257D01*
X350643Y138108D01*
X350683Y137963D01*
X350736Y137823D01*
X350800Y137688D01*
X350875Y137558D01*
X350962Y137432D01*
X351061Y137311D01*
X351171Y137195D01*
X348829D01*
X348939Y137311D01*
X349038Y137432D01*
X349125Y137558D01*
X349200Y137688D01*
X349264Y137823D01*
X349317Y137963D01*
X349357Y138108D01*
X349386Y138257D01*
X349404Y138411D01*
X349410Y138569D01*
X350590D01*
X350596Y138411D01*
D02*
G37*
G36*
X249258Y133117D02*
X249334Y133069D01*
X249423Y133026D01*
X249526Y132989D01*
X249642Y132957D01*
X249771Y132931D01*
X249914Y132912D01*
X250240Y132889D01*
X250424Y132886D01*
Y131114D01*
X250240Y131111D01*
X249914Y131088D01*
X249771Y131069D01*
X249642Y131043D01*
X249526Y131011D01*
X249423Y130974D01*
X249334Y130931D01*
X249258Y130883D01*
X249195Y130829D01*
Y133171D01*
X249258Y133117D01*
D02*
G37*
G36*
X140805Y130829D02*
X140742Y130883D01*
X140666Y130931D01*
X140577Y130974D01*
X140474Y131011D01*
X140358Y131043D01*
X140228Y131069D01*
X140086Y131088D01*
X139760Y131111D01*
X139576Y131114D01*
Y132886D01*
X139760Y132889D01*
X140086Y132912D01*
X140228Y132931D01*
X140358Y132957D01*
X140474Y132989D01*
X140577Y133026D01*
X140666Y133069D01*
X140742Y133117D01*
X140805Y133171D01*
Y130829D01*
D02*
G37*
G36*
X56717Y128126D02*
X56838Y128030D01*
X56964Y127945D01*
X57095Y127871D01*
X57231Y127809D01*
X57372Y127759D01*
X57517Y127720D01*
X57668Y127693D01*
X57823Y127677D01*
X57983Y127673D01*
X56327Y126017D01*
X56323Y126177D01*
X56307Y126332D01*
X56280Y126483D01*
X56241Y126628D01*
X56191Y126769D01*
X56129Y126905D01*
X56055Y127036D01*
X55970Y127162D01*
X55874Y127283D01*
X55765Y127399D01*
X56601Y128235D01*
X56717Y128126D01*
D02*
G37*
G36*
X139829Y114026D02*
X139766Y114080D01*
X139690Y114128D01*
X139601Y114171D01*
X139498Y114208D01*
X139382Y114240D01*
X139252Y114265D01*
X139109Y114285D01*
X138783Y114308D01*
X138600Y114311D01*
Y116083D01*
X138783Y116086D01*
X139109Y116108D01*
X139252Y116128D01*
X139382Y116154D01*
X139498Y116185D01*
X139601Y116223D01*
X139690Y116265D01*
X139766Y116314D01*
X139829Y116368D01*
Y114026D01*
D02*
G37*
G36*
X118069Y115117D02*
X118145Y115068D01*
X118234Y115026D01*
X118337Y114989D01*
X118453Y114957D01*
X118582Y114931D01*
X118725Y114911D01*
X119051Y114889D01*
X119235Y114886D01*
Y113114D01*
X119051Y113111D01*
X118725Y113089D01*
X118582Y113068D01*
X118453Y113043D01*
X118337Y113011D01*
X118234Y112974D01*
X118145Y112932D01*
X118069Y112883D01*
X118006Y112829D01*
Y115171D01*
X118069Y115117D01*
D02*
G37*
G36*
X232178Y113986D02*
X232122Y113923D01*
X232073Y113847D01*
X232029Y113758D01*
X231991Y113656D01*
X231959Y113540D01*
X231933Y113410D01*
X231912Y113268D01*
X231889Y112942D01*
X231886Y112759D01*
X230114Y112788D01*
X230111Y112972D01*
X230089Y113298D01*
X230070Y113441D01*
X230045Y113571D01*
X230014Y113687D01*
X229978Y113790D01*
X229936Y113880D01*
X229889Y113956D01*
X229836Y114019D01*
X232178Y113986D01*
D02*
G37*
G36*
X310305Y112329D02*
X310242Y112383D01*
X310166Y112432D01*
X310077Y112474D01*
X309974Y112511D01*
X309858Y112543D01*
X309729Y112568D01*
X309586Y112589D01*
X309260Y112611D01*
X309076Y112614D01*
Y114386D01*
X309260Y114389D01*
X309586Y114411D01*
X309729Y114432D01*
X309858Y114457D01*
X309974Y114489D01*
X310077Y114526D01*
X310166Y114568D01*
X310242Y114617D01*
X310305Y114671D01*
Y112329D01*
D02*
G37*
G36*
X95758Y114617D02*
X95834Y114568D01*
X95923Y114526D01*
X96026Y114489D01*
X96142Y114457D01*
X96272Y114432D01*
X96414Y114411D01*
X96740Y114389D01*
X96924Y114386D01*
Y112614D01*
X96740Y112611D01*
X96414Y112589D01*
X96272Y112568D01*
X96142Y112543D01*
X96026Y112511D01*
X95923Y112474D01*
X95834Y112432D01*
X95758Y112383D01*
X95695Y112329D01*
Y114671D01*
X95758Y114617D01*
D02*
G37*
G36*
X285983Y109327D02*
X285901Y109321D01*
X285813Y109301D01*
X285719Y109268D01*
X285620Y109222D01*
X285516Y109162D01*
X285406Y109089D01*
X285291Y109002D01*
X285044Y108787D01*
X284913Y108660D01*
X283660Y109913D01*
X283787Y110044D01*
X284002Y110291D01*
X284089Y110406D01*
X284162Y110516D01*
X284222Y110620D01*
X284268Y110719D01*
X284301Y110813D01*
X284321Y110901D01*
X284327Y110983D01*
X285983Y109327D01*
D02*
G37*
G36*
X388394Y15000D02*
Y14122D01*
X388165Y12381D01*
X387711Y10685D01*
X387039Y9063D01*
X386161Y7542D01*
X385092Y6149D01*
X383851Y4908D01*
X382457Y3839D01*
X380937Y2961D01*
X379315Y2289D01*
X377619Y1835D01*
X375878Y1606D01*
X14122D01*
X12381Y1835D01*
X10685Y2289D01*
X9063Y2961D01*
X7542Y3839D01*
X6149Y4908D01*
X4908Y6149D01*
X3839Y7542D01*
X2961Y9063D01*
X2289Y10685D01*
X1835Y12381D01*
X1606Y14122D01*
Y15000D01*
Y102000D01*
X7827D01*
Y101568D01*
X8158Y100769D01*
X8769Y100158D01*
X9568Y99827D01*
X10432D01*
X11231Y100158D01*
X11842Y100769D01*
X12173Y101568D01*
Y102000D01*
X29827D01*
Y101922D01*
X30158Y101123D01*
X30769Y100512D01*
X31568Y100181D01*
X32432D01*
X33231Y100512D01*
X33842Y101123D01*
X34173Y101922D01*
Y102000D01*
X50112D01*
X50390Y101584D01*
X50327Y101432D01*
Y100568D01*
X50658Y99769D01*
X51269Y99158D01*
X52068Y98827D01*
X52932D01*
X53731Y99158D01*
X54342Y99769D01*
X54673Y100568D01*
Y101432D01*
X54610Y101584D01*
X54888Y102000D01*
X55773D01*
X56062Y101500D01*
X55827Y100932D01*
Y100068D01*
X56158Y99269D01*
X56769Y98658D01*
X57568Y98327D01*
X58432D01*
X59231Y98658D01*
X59842Y99269D01*
X60173Y100068D01*
Y100932D01*
X59938Y101500D01*
X60227Y102000D01*
X67927D01*
X68269Y101658D01*
X69068Y101327D01*
X69932D01*
X70731Y101658D01*
X71073Y102000D01*
X83550D01*
X83649Y101500D01*
X83269Y101342D01*
X82658Y100731D01*
X82327Y99932D01*
Y99068D01*
X82658Y98269D01*
X83269Y97658D01*
X84068Y97327D01*
X84932D01*
X85731Y97658D01*
X86342Y98269D01*
X86673Y99068D01*
Y99932D01*
X86342Y100731D01*
X85731Y101342D01*
X85351Y101500D01*
X85450Y102000D01*
X286000D01*
Y68500D01*
X225000D01*
Y94000D01*
X98781D01*
X98573Y94500D01*
X98842Y94769D01*
X99173Y95568D01*
Y96432D01*
X98842Y97231D01*
X98231Y97842D01*
X97432Y98173D01*
X96568D01*
X95769Y97842D01*
X95158Y97231D01*
X94827Y96432D01*
Y95568D01*
X95158Y94769D01*
X95427Y94500D01*
X95219Y94000D01*
X86500D01*
X86500Y6500D01*
X128855D01*
X129158Y5769D01*
X129769Y5158D01*
X130568Y4827D01*
X131432D01*
X132231Y5158D01*
X132842Y5769D01*
X133145Y6500D01*
X168355Y6500D01*
X168658Y5769D01*
X169269Y5158D01*
X170068Y4827D01*
X170932D01*
X171731Y5158D01*
X172342Y5769D01*
X172645Y6500D01*
X212500D01*
X212500Y23500D01*
X212500Y23500D01*
X224720D01*
X224927Y23000D01*
X224658Y22731D01*
X224327Y21932D01*
Y21068D01*
X224658Y20269D01*
X225269Y19658D01*
X226068Y19327D01*
X226932D01*
X227731Y19658D01*
X228342Y20269D01*
X228673Y21068D01*
Y21932D01*
X228342Y22731D01*
X228073Y23000D01*
X228280Y23500D01*
X241219Y23500D01*
X241427Y23000D01*
X241158Y22731D01*
X240827Y21932D01*
Y21068D01*
X241158Y20269D01*
X241769Y19658D01*
X242568Y19327D01*
X243432D01*
X244231Y19658D01*
X244842Y20269D01*
X245173Y21068D01*
Y21932D01*
X244842Y22731D01*
X244573Y23000D01*
X244780Y23500D01*
X257500D01*
X257500Y16218D01*
X257432Y16173D01*
X256568D01*
X255769Y15842D01*
X255158Y15231D01*
X254827Y14432D01*
Y13568D01*
X255158Y12769D01*
X255769Y12158D01*
X256568Y11827D01*
X257000D01*
X257435Y11480D01*
X257500Y11355D01*
Y9500D01*
X334000Y9500D01*
X334000Y76000D01*
X365000Y76000D01*
X365000Y117000D01*
X388394Y117000D01*
Y15000D01*
D02*
G37*
G36*
X363500Y77500D02*
X350000Y77500D01*
X332500Y77500D01*
X332500Y16649D01*
X332413Y15984D01*
Y14016D01*
X332500Y13351D01*
Y11000D01*
X315577Y11000D01*
X315545Y11500D01*
X315670Y11516D01*
X316294Y11775D01*
X316830Y12186D01*
X317241Y12722D01*
X317499Y13346D01*
X317587Y14016D01*
Y15984D01*
X317499Y16654D01*
X317241Y17278D01*
X316830Y17814D01*
X316294Y18225D01*
X315670Y18484D01*
X315000Y18572D01*
X314330Y18484D01*
X313706Y18225D01*
X313170Y17814D01*
X313065Y17677D01*
X312565Y17847D01*
Y18550D01*
X307435D01*
Y11500D01*
X307315Y11000D01*
X259000Y11000D01*
X259000Y13081D01*
X259047Y13152D01*
X259216Y14000D01*
X259047Y14848D01*
X259000Y14919D01*
X259000Y25000D01*
X211000D01*
X211000Y25000D01*
X210536Y25087D01*
X209848Y25547D01*
X209000Y25716D01*
X208152Y25547D01*
X207433Y25067D01*
X206953Y24348D01*
X206784Y23500D01*
X206953Y22652D01*
X207433Y21933D01*
X208152Y21453D01*
X209000Y21284D01*
X209848Y21453D01*
X210500Y21889D01*
X211000Y21750D01*
X211000Y10502D01*
X210790Y10430D01*
X210500Y10419D01*
X210067Y11067D01*
X209348Y11547D01*
X208500Y11716D01*
X207652Y11547D01*
X206933Y11067D01*
X206453Y10348D01*
X206284Y9500D01*
X206453Y8652D01*
X206594Y8441D01*
X206358Y8000D01*
X195180D01*
X172446D01*
X172067Y8567D01*
X171348Y9047D01*
X170500Y9216D01*
X169652Y9047D01*
X168933Y8567D01*
X168554Y8000D01*
X151502D01*
X151430Y8210D01*
X151418Y8500D01*
X152067Y8933D01*
X152547Y9652D01*
X152716Y10500D01*
X152547Y11348D01*
X152067Y12067D01*
X151348Y12547D01*
X150500Y12716D01*
X149652Y12547D01*
X148933Y12067D01*
X148453Y11348D01*
X148284Y10500D01*
X148453Y9652D01*
X148933Y8933D01*
X149582Y8500D01*
X149570Y8210D01*
X149498Y8000D01*
X140812D01*
X132946D01*
X132567Y8567D01*
X131848Y9047D01*
X131000Y9216D01*
X130152Y9047D01*
X129433Y8567D01*
X129054Y8000D01*
X88000D01*
X88000Y92000D01*
X223000D01*
Y66500D01*
X238750D01*
X238889Y66000D01*
X238453Y65348D01*
X238284Y64500D01*
X238453Y63652D01*
X238933Y62933D01*
X239652Y62453D01*
X240500Y62284D01*
X241348Y62453D01*
X242067Y62933D01*
X242547Y63652D01*
X242716Y64500D01*
X242547Y65348D01*
X242111Y66000D01*
X242250Y66500D01*
X288000D01*
Y102000D01*
X350000D01*
Y117000D01*
X363500D01*
X363500Y77500D01*
D02*
G37*
%LPC*%
G36*
X252932Y101173D02*
X252068D01*
X251269Y100842D01*
X250658Y100231D01*
X250327Y99432D01*
Y98568D01*
X250658Y97769D01*
X251269Y97158D01*
X252068Y96827D01*
X252932D01*
X253731Y97158D01*
X254342Y97769D01*
X254673Y98568D01*
Y99432D01*
X254342Y100231D01*
X253731Y100842D01*
X252932Y101173D01*
D02*
G37*
G36*
X222932Y99173D02*
X222068D01*
X221269Y98842D01*
X220658Y98231D01*
X220327Y97432D01*
Y96568D01*
X220658Y95769D01*
X221269Y95158D01*
X222068Y94827D01*
X222932D01*
X223731Y95158D01*
X224342Y95769D01*
X224673Y96568D01*
Y97432D01*
X224342Y98231D01*
X223731Y98842D01*
X222932Y99173D01*
D02*
G37*
G36*
X370432Y97173D02*
X369568D01*
X368769Y96842D01*
X368158Y96231D01*
X367827Y95432D01*
Y94568D01*
X368158Y93769D01*
X368769Y93158D01*
X369568Y92827D01*
X370432D01*
X371231Y93158D01*
X371842Y93769D01*
X372173Y94568D01*
Y95432D01*
X371842Y96231D01*
X371231Y96842D01*
X370432Y97173D01*
D02*
G37*
G36*
Y92173D02*
X369568D01*
X368769Y91842D01*
X368158Y91231D01*
X367827Y90432D01*
Y89568D01*
X368158Y88769D01*
X368769Y88158D01*
X369568Y87827D01*
X370432D01*
X371231Y88158D01*
X371842Y88769D01*
X372173Y89568D01*
Y90432D01*
X371842Y91231D01*
X371231Y91842D01*
X370432Y92173D01*
D02*
G37*
G36*
X276932D02*
X276068D01*
X275269Y91842D01*
X274658Y91231D01*
X274327Y90432D01*
Y89568D01*
X274658Y88769D01*
X275269Y88158D01*
X276068Y87827D01*
X276932D01*
X277731Y88158D01*
X278342Y88769D01*
X278673Y89568D01*
Y90432D01*
X278342Y91231D01*
X277731Y91842D01*
X276932Y92173D01*
D02*
G37*
G36*
X51192Y91673D02*
X50328D01*
X49529Y91342D01*
X48917Y90731D01*
X48587Y89932D01*
Y89068D01*
X48917Y88269D01*
X49529Y87658D01*
X50328Y87327D01*
X51192D01*
X51991Y87658D01*
X52602Y88269D01*
X52933Y89068D01*
Y89932D01*
X52602Y90731D01*
X51991Y91342D01*
X51192Y91673D01*
D02*
G37*
G36*
X71432Y91173D02*
X70568D01*
X69769Y90842D01*
X69158Y90231D01*
X68827Y89432D01*
Y88568D01*
X69158Y87769D01*
X69769Y87158D01*
X70568Y86827D01*
X71432D01*
X72231Y87158D01*
X72842Y87769D01*
X73173Y88568D01*
Y89432D01*
X72842Y90231D01*
X72231Y90842D01*
X71432Y91173D01*
D02*
G37*
G36*
X32432Y98528D02*
X31568D01*
X30769Y98197D01*
X30158Y97585D01*
X29827Y96787D01*
Y95922D01*
X30158Y95123D01*
X30609Y94672D01*
X30716Y94354D01*
X30609Y94037D01*
X30158Y93585D01*
X29827Y92787D01*
Y91922D01*
X30158Y91123D01*
X30609Y90672D01*
X30716Y90354D01*
X30609Y90037D01*
X30158Y89585D01*
X29827Y88787D01*
Y87922D01*
X30158Y87123D01*
X30769Y86512D01*
X31568Y86181D01*
X32432D01*
X33231Y86512D01*
X33842Y87123D01*
X34173Y87922D01*
Y88787D01*
X33842Y89585D01*
X33391Y90037D01*
X33284Y90354D01*
X33391Y90672D01*
X33842Y91123D01*
X34173Y91922D01*
Y92787D01*
X33842Y93585D01*
X33391Y94037D01*
X33284Y94354D01*
X33391Y94672D01*
X33842Y95123D01*
X34173Y95922D01*
Y96787D01*
X33842Y97585D01*
X33231Y98197D01*
X32432Y98528D01*
D02*
G37*
G36*
X10432Y98173D02*
X9568D01*
X8769Y97842D01*
X8158Y97231D01*
X7827Y96432D01*
Y95568D01*
X8158Y94769D01*
X8609Y94317D01*
X8716Y94000D01*
X8609Y93683D01*
X8158Y93231D01*
X7827Y92432D01*
Y91568D01*
X8158Y90769D01*
X8609Y90317D01*
X8716Y90000D01*
X8609Y89683D01*
X8158Y89231D01*
X7827Y88432D01*
Y87568D01*
X8158Y86769D01*
X8769Y86158D01*
X9568Y85827D01*
X10432D01*
X11231Y86158D01*
X11842Y86769D01*
X12173Y87568D01*
Y88432D01*
X11842Y89231D01*
X11391Y89683D01*
X11284Y90000D01*
X11391Y90317D01*
X11842Y90769D01*
X12173Y91568D01*
Y92432D01*
X11842Y93231D01*
X11391Y93683D01*
X11284Y94000D01*
X11391Y94317D01*
X11842Y94769D01*
X12173Y95568D01*
Y96432D01*
X11842Y97231D01*
X11231Y97842D01*
X10432Y98173D01*
D02*
G37*
G36*
X377432Y89173D02*
X376568D01*
X375769Y88842D01*
X375158Y88231D01*
X374827Y87432D01*
Y86568D01*
X375158Y85769D01*
X375769Y85158D01*
X376568Y84827D01*
X377432D01*
X378231Y85158D01*
X378842Y85769D01*
X379173Y86568D01*
Y87432D01*
X378842Y88231D01*
X378231Y88842D01*
X377432Y89173D01*
D02*
G37*
G36*
X71432Y86173D02*
X70568D01*
X69769Y85842D01*
X69158Y85231D01*
X68827Y84432D01*
Y83844D01*
X68356Y83498D01*
X67932Y83673D01*
X67068D01*
X66269Y83342D01*
X65658Y82731D01*
X65327Y81932D01*
Y81068D01*
X65658Y80269D01*
X66269Y79658D01*
X67068Y79327D01*
X67932D01*
X68731Y79658D01*
X69342Y80269D01*
X69673Y81068D01*
Y81656D01*
X70144Y82002D01*
X70568Y81827D01*
X71432D01*
X72231Y82158D01*
X72842Y82769D01*
X73173Y83568D01*
Y84432D01*
X72842Y85231D01*
X72231Y85842D01*
X71432Y86173D01*
D02*
G37*
G36*
X228932Y87173D02*
X228068D01*
X227269Y86842D01*
X226658Y86231D01*
X226327Y85432D01*
Y84568D01*
X226658Y83769D01*
X227269Y83158D01*
X228068Y82827D01*
X228932D01*
X229731Y83158D01*
X230342Y83769D01*
X230673Y84568D01*
Y85432D01*
X230342Y86231D01*
X229731Y86842D01*
X228932Y87173D01*
D02*
G37*
G36*
X280432Y83673D02*
X279568D01*
X278769Y83342D01*
X278158Y82731D01*
X277827Y81932D01*
Y81068D01*
X278158Y80269D01*
X278769Y79658D01*
X279568Y79327D01*
X280432D01*
X281231Y79658D01*
X281842Y80269D01*
X282173Y81068D01*
Y81932D01*
X281842Y82731D01*
X281231Y83342D01*
X280432Y83673D01*
D02*
G37*
G36*
X62932D02*
X62068D01*
X61269Y83342D01*
X60658Y82731D01*
X60327Y81932D01*
Y81068D01*
X60658Y80269D01*
X61269Y79658D01*
X62068Y79327D01*
X62932D01*
X63731Y79658D01*
X64342Y80269D01*
X64673Y81068D01*
Y81932D01*
X64342Y82731D01*
X63731Y83342D01*
X62932Y83673D01*
D02*
G37*
G36*
X377432Y82173D02*
X376568D01*
X375769Y81842D01*
X375158Y81231D01*
X374827Y80432D01*
Y79568D01*
X375158Y78769D01*
X375769Y78158D01*
X376568Y77827D01*
X377432D01*
X378231Y78158D01*
X378842Y78769D01*
X379173Y79568D01*
Y80432D01*
X378842Y81231D01*
X378231Y81842D01*
X377432Y82173D01*
D02*
G37*
G36*
X7932D02*
X7068D01*
X6269Y81842D01*
X5658Y81231D01*
X5327Y80432D01*
Y79568D01*
X5658Y78769D01*
X6269Y78158D01*
X7068Y77827D01*
X7932D01*
X8731Y78158D01*
X9342Y78769D01*
X9673Y79568D01*
Y80432D01*
X9342Y81231D01*
X8731Y81842D01*
X7932Y82173D01*
D02*
G37*
G36*
Y77173D02*
X7068D01*
X6269Y76842D01*
X5658Y76231D01*
X5327Y75432D01*
Y74568D01*
X5658Y73769D01*
X6269Y73158D01*
X7068Y72827D01*
X7932D01*
X8731Y73158D01*
X9342Y73769D01*
X9673Y74568D01*
Y75432D01*
X9342Y76231D01*
X8731Y76842D01*
X7932Y77173D01*
D02*
G37*
G36*
X272932Y76673D02*
X272068D01*
X271269Y76342D01*
X270658Y75731D01*
X270327Y74932D01*
Y74068D01*
X270658Y73269D01*
X271269Y72658D01*
X272068Y72327D01*
X272932D01*
X273731Y72658D01*
X274342Y73269D01*
X274673Y74068D01*
Y74932D01*
X274342Y75731D01*
X273731Y76342D01*
X272932Y76673D01*
D02*
G37*
G36*
X347432Y75173D02*
X346568D01*
X345769Y74842D01*
X345158Y74231D01*
X344827Y73432D01*
Y72568D01*
X345158Y71769D01*
X345769Y71158D01*
X346568Y70827D01*
X347432D01*
X348231Y71158D01*
X348842Y71769D01*
X349173Y72568D01*
Y73432D01*
X348842Y74231D01*
X348231Y74842D01*
X347432Y75173D01*
D02*
G37*
G36*
X249932Y74173D02*
X249068D01*
X248269Y73842D01*
X247658Y73231D01*
X247327Y72432D01*
Y71568D01*
X247658Y70769D01*
X248269Y70158D01*
X249068Y69827D01*
X249932D01*
X250731Y70158D01*
X251342Y70769D01*
X251673Y71568D01*
Y72432D01*
X251342Y73231D01*
X250731Y73842D01*
X249932Y74173D01*
D02*
G37*
G36*
X380082Y73913D02*
X379217D01*
X378419Y73583D01*
X377807Y72971D01*
X377476Y72172D01*
Y71308D01*
X377807Y70509D01*
X378419Y69898D01*
X379217Y69567D01*
X380082D01*
X380881Y69898D01*
X381492Y70509D01*
X381823Y71308D01*
Y72172D01*
X381492Y72971D01*
X380881Y73583D01*
X380082Y73913D01*
D02*
G37*
G36*
X7932Y72173D02*
X7068D01*
X6269Y71842D01*
X5658Y71231D01*
X5327Y70432D01*
Y69568D01*
X5658Y68769D01*
X6269Y68158D01*
X7068Y67827D01*
X7932D01*
X8731Y68158D01*
X9342Y68769D01*
X9673Y69568D01*
Y70432D01*
X9342Y71231D01*
X8731Y71842D01*
X7932Y72173D01*
D02*
G37*
G36*
X337932Y64673D02*
X337068D01*
X336269Y64342D01*
X335658Y63731D01*
X335327Y62932D01*
Y62068D01*
X335658Y61269D01*
X336269Y60658D01*
X337068Y60327D01*
X337932D01*
X338731Y60658D01*
X339342Y61269D01*
X339673Y62068D01*
Y62932D01*
X339342Y63731D01*
X338731Y64342D01*
X337932Y64673D01*
D02*
G37*
G36*
X40432D02*
X39568D01*
X38769Y64342D01*
X38158Y63731D01*
X37827Y62932D01*
Y62068D01*
X38158Y61269D01*
X38769Y60658D01*
X39568Y60327D01*
X40432D01*
X41231Y60658D01*
X41842Y61269D01*
X42173Y62068D01*
Y62932D01*
X41842Y63731D01*
X41231Y64342D01*
X40432Y64673D01*
D02*
G37*
G36*
X35432D02*
X34568D01*
X33769Y64342D01*
X33158Y63731D01*
X32827Y62932D01*
Y62068D01*
X33158Y61269D01*
X33769Y60658D01*
X34568Y60327D01*
X35432D01*
X36231Y60658D01*
X36842Y61269D01*
X37173Y62068D01*
Y62932D01*
X36842Y63731D01*
X36231Y64342D01*
X35432Y64673D01*
D02*
G37*
G36*
X30432D02*
X29568D01*
X28769Y64342D01*
X28158Y63731D01*
X27827Y62932D01*
Y62068D01*
X28158Y61269D01*
X28769Y60658D01*
X29568Y60327D01*
X30432D01*
X31231Y60658D01*
X31842Y61269D01*
X32173Y62068D01*
Y62932D01*
X31842Y63731D01*
X31231Y64342D01*
X30432Y64673D01*
D02*
G37*
G36*
X25432D02*
X24568D01*
X23769Y64342D01*
X23158Y63731D01*
X22827Y62932D01*
Y62068D01*
X23158Y61269D01*
X23769Y60658D01*
X24568Y60327D01*
X25432D01*
X26231Y60658D01*
X26842Y61269D01*
X27173Y62068D01*
Y62932D01*
X26842Y63731D01*
X26231Y64342D01*
X25432Y64673D01*
D02*
G37*
G36*
X337932Y59673D02*
X337068D01*
X336269Y59342D01*
X335658Y58731D01*
X335327Y57932D01*
Y57068D01*
X335658Y56269D01*
X336269Y55658D01*
X337068Y55327D01*
X337932D01*
X338731Y55658D01*
X339342Y56269D01*
X339673Y57068D01*
Y57932D01*
X339342Y58731D01*
X338731Y59342D01*
X337932Y59673D01*
D02*
G37*
G36*
X40432D02*
X39568D01*
X38769Y59342D01*
X38158Y58731D01*
X37827Y57932D01*
Y57068D01*
X38158Y56269D01*
X38769Y55658D01*
X39568Y55327D01*
X40432D01*
X41231Y55658D01*
X41842Y56269D01*
X42173Y57068D01*
Y57932D01*
X41842Y58731D01*
X41231Y59342D01*
X40432Y59673D01*
D02*
G37*
G36*
X35432D02*
X34568D01*
X33769Y59342D01*
X33158Y58731D01*
X32827Y57932D01*
Y57068D01*
X33158Y56269D01*
X33769Y55658D01*
X34568Y55327D01*
X35432D01*
X36231Y55658D01*
X36842Y56269D01*
X37173Y57068D01*
Y57932D01*
X36842Y58731D01*
X36231Y59342D01*
X35432Y59673D01*
D02*
G37*
G36*
X30432D02*
X29568D01*
X28769Y59342D01*
X28158Y58731D01*
X27827Y57932D01*
Y57068D01*
X28158Y56269D01*
X28769Y55658D01*
X29568Y55327D01*
X30432D01*
X31231Y55658D01*
X31842Y56269D01*
X32173Y57068D01*
Y57932D01*
X31842Y58731D01*
X31231Y59342D01*
X30432Y59673D01*
D02*
G37*
G36*
X25432D02*
X24568D01*
X23769Y59342D01*
X23158Y58731D01*
X22827Y57932D01*
Y57068D01*
X23158Y56269D01*
X23769Y55658D01*
X24568Y55327D01*
X25432D01*
X26231Y55658D01*
X26842Y56269D01*
X27173Y57068D01*
Y57932D01*
X26842Y58731D01*
X26231Y59342D01*
X25432Y59673D01*
D02*
G37*
G36*
X344432Y55173D02*
X343568D01*
X342769Y54842D01*
X342158Y54231D01*
X341827Y53432D01*
Y52568D01*
X342158Y51769D01*
X342769Y51158D01*
X343568Y50827D01*
X344432D01*
X345231Y51158D01*
X345842Y51769D01*
X346173Y52568D01*
Y53432D01*
X345842Y54231D01*
X345231Y54842D01*
X344432Y55173D01*
D02*
G37*
G36*
X373432Y50173D02*
X372568D01*
X371769Y49842D01*
X371158Y49231D01*
X370827Y48432D01*
Y47568D01*
X371158Y46769D01*
X371769Y46158D01*
X372568Y45827D01*
X373432D01*
X374231Y46158D01*
X374842Y46769D01*
X375173Y47568D01*
Y48432D01*
X374842Y49231D01*
X374231Y49842D01*
X373432Y50173D01*
D02*
G37*
G36*
X344432D02*
X343568D01*
X342769Y49842D01*
X342158Y49231D01*
X341827Y48432D01*
Y47568D01*
X342158Y46769D01*
X342769Y46158D01*
X343568Y45827D01*
X344432D01*
X345231Y46158D01*
X345842Y46769D01*
X346173Y47568D01*
Y48432D01*
X345842Y49231D01*
X345231Y49842D01*
X344432Y50173D01*
D02*
G37*
G36*
X7932Y48173D02*
X7068D01*
X6269Y47842D01*
X5658Y47231D01*
X5327Y46432D01*
Y45568D01*
X5658Y44769D01*
X6269Y44158D01*
X7068Y43827D01*
X7932D01*
X8731Y44158D01*
X9342Y44769D01*
X9673Y45568D01*
Y46432D01*
X9342Y47231D01*
X8731Y47842D01*
X7932Y48173D01*
D02*
G37*
G36*
Y42673D02*
X7068D01*
X6269Y42342D01*
X5658Y41731D01*
X5327Y40932D01*
Y40068D01*
X5658Y39269D01*
X6269Y38658D01*
X7068Y38327D01*
X7932D01*
X8731Y38658D01*
X9342Y39269D01*
X9673Y40068D01*
Y40932D01*
X9342Y41731D01*
X8731Y42342D01*
X7932Y42673D01*
D02*
G37*
G36*
X380082Y41433D02*
X379217D01*
X378419Y41102D01*
X377807Y40491D01*
X377476Y39692D01*
Y38828D01*
X377807Y38029D01*
X378419Y37418D01*
X379217Y37087D01*
X380082D01*
X380881Y37418D01*
X381492Y38029D01*
X381823Y38828D01*
Y39692D01*
X381492Y40491D01*
X380881Y41102D01*
X380082Y41433D01*
D02*
G37*
G36*
X68432Y37673D02*
X67568D01*
X66769Y37342D01*
X66158Y36731D01*
X65827Y35932D01*
Y35068D01*
X66158Y34269D01*
X66769Y33658D01*
X67568Y33327D01*
X68432D01*
X69231Y33658D01*
X69842Y34269D01*
X70173Y35068D01*
Y35932D01*
X69842Y36731D01*
X69231Y37342D01*
X68432Y37673D01*
D02*
G37*
G36*
X62932D02*
X62068D01*
X61269Y37342D01*
X60658Y36731D01*
X60327Y35932D01*
Y35068D01*
X60658Y34269D01*
X61269Y33658D01*
X62068Y33327D01*
X62932D01*
X63731Y33658D01*
X64342Y34269D01*
X64673Y35068D01*
Y35932D01*
X64342Y36731D01*
X63731Y37342D01*
X62932Y37673D01*
D02*
G37*
G36*
X57432D02*
X56568D01*
X55769Y37342D01*
X55158Y36731D01*
X54827Y35932D01*
Y35068D01*
X55158Y34269D01*
X55769Y33658D01*
X56568Y33327D01*
X57432D01*
X58231Y33658D01*
X58842Y34269D01*
X59173Y35068D01*
Y35932D01*
X58842Y36731D01*
X58231Y37342D01*
X57432Y37673D01*
D02*
G37*
G36*
X51932D02*
X51068D01*
X50269Y37342D01*
X49658Y36731D01*
X49327Y35932D01*
Y35068D01*
X49658Y34269D01*
X50269Y33658D01*
X51068Y33327D01*
X51932D01*
X52731Y33658D01*
X53342Y34269D01*
X53673Y35068D01*
Y35932D01*
X53342Y36731D01*
X52731Y37342D01*
X51932Y37673D01*
D02*
G37*
G36*
X46432D02*
X45568D01*
X44769Y37342D01*
X44158Y36731D01*
X43827Y35932D01*
Y35068D01*
X44158Y34269D01*
X44769Y33658D01*
X45568Y33327D01*
X46432D01*
X47231Y33658D01*
X47842Y34269D01*
X48173Y35068D01*
Y35932D01*
X47842Y36731D01*
X47231Y37342D01*
X46432Y37673D01*
D02*
G37*
G36*
X18932Y37173D02*
X18068D01*
X17269Y36842D01*
X16658Y36231D01*
X16327Y35432D01*
Y34568D01*
X16658Y33769D01*
X17269Y33158D01*
X18068Y32827D01*
X18932D01*
X19731Y33158D01*
X20342Y33769D01*
X20673Y34568D01*
Y35432D01*
X20342Y36231D01*
X19731Y36842D01*
X18932Y37173D01*
D02*
G37*
G36*
X13432D02*
X12568D01*
X11769Y36842D01*
X11158Y36231D01*
X10827Y35432D01*
Y34568D01*
X11158Y33769D01*
X11769Y33158D01*
X12568Y32827D01*
X13432D01*
X14231Y33158D01*
X14842Y33769D01*
X15173Y34568D01*
Y35432D01*
X14842Y36231D01*
X14231Y36842D01*
X13432Y37173D01*
D02*
G37*
G36*
X7932D02*
X7068D01*
X6269Y36842D01*
X5658Y36231D01*
X5327Y35432D01*
Y34568D01*
X5658Y33769D01*
X6269Y33158D01*
X7068Y32827D01*
X7932D01*
X8731Y33158D01*
X9342Y33769D01*
X9673Y34568D01*
Y35432D01*
X9342Y36231D01*
X8731Y36842D01*
X7932Y37173D01*
D02*
G37*
G36*
X75000Y18572D02*
X74330Y18484D01*
X73706Y18225D01*
X73170Y17814D01*
X72774Y17297D01*
X72648Y17278D01*
X72352D01*
X72226Y17297D01*
X71830Y17814D01*
X71294Y18225D01*
X70670Y18484D01*
X70000Y18572D01*
X69330Y18484D01*
X68706Y18225D01*
X68170Y17814D01*
X67774Y17297D01*
X67648Y17278D01*
X67352D01*
X67226Y17297D01*
X66830Y17814D01*
X66294Y18225D01*
X65670Y18484D01*
X65000Y18572D01*
X64330Y18484D01*
X63706Y18225D01*
X63170Y17814D01*
X62774Y17297D01*
X62648Y17278D01*
X62352D01*
X62226Y17297D01*
X61830Y17814D01*
X61294Y18225D01*
X60670Y18484D01*
X60000Y18572D01*
X59330Y18484D01*
X58706Y18225D01*
X58170Y17814D01*
X57774Y17297D01*
X57648Y17278D01*
X57352D01*
X57226Y17297D01*
X56830Y17814D01*
X56294Y18225D01*
X55670Y18484D01*
X55000Y18572D01*
X54330Y18484D01*
X53706Y18225D01*
X53170Y17814D01*
X52774Y17297D01*
X52648Y17278D01*
X52352D01*
X52226Y17297D01*
X51830Y17814D01*
X51294Y18225D01*
X50670Y18484D01*
X50000Y18572D01*
X49330Y18484D01*
X48706Y18225D01*
X48170Y17814D01*
X47774Y17297D01*
X47648Y17278D01*
X47352D01*
X47226Y17297D01*
X46830Y17814D01*
X46294Y18225D01*
X45670Y18484D01*
X45000Y18572D01*
X44330Y18484D01*
X43706Y18225D01*
X43170Y17814D01*
X42774Y17297D01*
X42648Y17278D01*
X42352D01*
X42226Y17297D01*
X41830Y17814D01*
X41294Y18225D01*
X40670Y18484D01*
X40000Y18572D01*
X39330Y18484D01*
X38706Y18225D01*
X38170Y17814D01*
X37774Y17297D01*
X37648Y17278D01*
X37352D01*
X37226Y17297D01*
X36830Y17814D01*
X36294Y18225D01*
X35670Y18484D01*
X35000Y18572D01*
X34330Y18484D01*
X33706Y18225D01*
X33170Y17814D01*
X32759Y17278D01*
X32501Y16654D01*
X32412Y15984D01*
Y14016D01*
X32501Y13346D01*
X32759Y12722D01*
X33170Y12186D01*
X33706Y11775D01*
X34330Y11516D01*
X35000Y11428D01*
X35670Y11516D01*
X36294Y11775D01*
X36830Y12186D01*
X37226Y12703D01*
X37352Y12722D01*
X37648D01*
X37774Y12703D01*
X38170Y12186D01*
X38706Y11775D01*
X39330Y11516D01*
X40000Y11428D01*
X40670Y11516D01*
X41294Y11775D01*
X41830Y12186D01*
X42226Y12703D01*
X42352Y12722D01*
X42648D01*
X42774Y12703D01*
X43170Y12186D01*
X43706Y11775D01*
X44330Y11516D01*
X45000Y11428D01*
X45670Y11516D01*
X46294Y11775D01*
X46830Y12186D01*
X47226Y12703D01*
X47352Y12722D01*
X47648D01*
X47774Y12703D01*
X48170Y12186D01*
X48706Y11775D01*
X49330Y11516D01*
X50000Y11428D01*
X50670Y11516D01*
X51294Y11775D01*
X51830Y12186D01*
X52226Y12703D01*
X52352Y12722D01*
X52648D01*
X52774Y12703D01*
X53170Y12186D01*
X53706Y11775D01*
X54330Y11516D01*
X55000Y11428D01*
X55670Y11516D01*
X56294Y11775D01*
X56830Y12186D01*
X57226Y12703D01*
X57352Y12722D01*
X57648D01*
X57774Y12703D01*
X58170Y12186D01*
X58706Y11775D01*
X59330Y11516D01*
X60000Y11428D01*
X60670Y11516D01*
X61294Y11775D01*
X61830Y12186D01*
X62226Y12703D01*
X62352Y12722D01*
X62648D01*
X62774Y12703D01*
X63170Y12186D01*
X63706Y11775D01*
X64330Y11516D01*
X65000Y11428D01*
X65670Y11516D01*
X66294Y11775D01*
X66830Y12186D01*
X67226Y12703D01*
X67352Y12722D01*
X67648D01*
X67774Y12703D01*
X68170Y12186D01*
X68706Y11775D01*
X69330Y11516D01*
X70000Y11428D01*
X70670Y11516D01*
X71294Y11775D01*
X71830Y12186D01*
X72226Y12703D01*
X72352Y12722D01*
X72648D01*
X72774Y12703D01*
X73170Y12186D01*
X73706Y11775D01*
X74330Y11516D01*
X75000Y11428D01*
X75670Y11516D01*
X76294Y11775D01*
X76830Y12186D01*
X76935Y12323D01*
X77435Y12153D01*
Y11450D01*
X82565D01*
Y18550D01*
X77435D01*
Y17847D01*
X76935Y17677D01*
X76830Y17814D01*
X76294Y18225D01*
X75670Y18484D01*
X75000Y18572D01*
D02*
G37*
G36*
X82432Y8673D02*
X81568D01*
X80769Y8342D01*
X80158Y7731D01*
X79827Y6932D01*
Y6068D01*
X80158Y5269D01*
X80769Y4658D01*
X81568Y4327D01*
X82432D01*
X83231Y4658D01*
X83842Y5269D01*
X84173Y6068D01*
Y6932D01*
X83842Y7731D01*
X83231Y8342D01*
X82432Y8673D01*
D02*
G37*
G36*
X375961Y27211D02*
X374039D01*
X372141Y26910D01*
X370313Y26316D01*
X368600Y25444D01*
X367045Y24314D01*
X365686Y22955D01*
X364556Y21400D01*
X363684Y19687D01*
X363090Y17859D01*
X362789Y15961D01*
Y14039D01*
X363090Y12141D01*
X363684Y10313D01*
X364556Y8600D01*
X365686Y7045D01*
X367045Y5686D01*
X368600Y4556D01*
X370313Y3684D01*
X372141Y3090D01*
X374039Y2789D01*
X375961D01*
X377859Y3090D01*
X379687Y3684D01*
X381400Y4556D01*
X382955Y5686D01*
X384314Y7045D01*
X385444Y8600D01*
X386316Y10313D01*
X386910Y12141D01*
X387211Y14039D01*
Y15961D01*
X386910Y17859D01*
X386316Y19687D01*
X385444Y21400D01*
X384314Y22955D01*
X382955Y24314D01*
X381400Y25444D01*
X379687Y26316D01*
X377859Y26910D01*
X375961Y27211D01*
D02*
G37*
G36*
X15961D02*
X14039D01*
X12141Y26910D01*
X10313Y26316D01*
X8600Y25444D01*
X7045Y24314D01*
X5686Y22955D01*
X4556Y21400D01*
X3684Y19687D01*
X3090Y17859D01*
X2789Y15961D01*
Y14039D01*
X3090Y12141D01*
X3684Y10313D01*
X4556Y8600D01*
X5686Y7045D01*
X7045Y5686D01*
X8600Y4556D01*
X10313Y3684D01*
X12141Y3090D01*
X14039Y2789D01*
X15961D01*
X17859Y3090D01*
X19687Y3684D01*
X21400Y4556D01*
X22955Y5686D01*
X24314Y7045D01*
X25444Y8600D01*
X26316Y10313D01*
X26910Y12141D01*
X27211Y14039D01*
Y15961D01*
X26910Y17859D01*
X26316Y19687D01*
X25444Y21400D01*
X24314Y22955D01*
X22955Y24314D01*
X21400Y25444D01*
X19687Y26316D01*
X17859Y26910D01*
X15961Y27211D01*
D02*
G37*
G36*
X290432Y6673D02*
X289568D01*
X288769Y6342D01*
X288158Y5731D01*
X287827Y4932D01*
Y4068D01*
X288158Y3269D01*
X288769Y2658D01*
X289568Y2327D01*
X290432D01*
X291231Y2658D01*
X291842Y3269D01*
X292173Y4068D01*
Y4932D01*
X291842Y5731D01*
X291231Y6342D01*
X290432Y6673D01*
D02*
G37*
G36*
X280432D02*
X279568D01*
X278769Y6342D01*
X278158Y5731D01*
X277827Y4932D01*
Y4068D01*
X278158Y3269D01*
X278769Y2658D01*
X279568Y2327D01*
X280432D01*
X281231Y2658D01*
X281842Y3269D01*
X282173Y4068D01*
Y4932D01*
X281842Y5731D01*
X281231Y6342D01*
X280432Y6673D01*
D02*
G37*
G36*
X275423D02*
X274559D01*
X273760Y6342D01*
X273149Y5731D01*
X272818Y4932D01*
Y4068D01*
X273149Y3269D01*
X273760Y2658D01*
X274559Y2327D01*
X275423D01*
X276222Y2658D01*
X276834Y3269D01*
X277164Y4068D01*
Y4932D01*
X276834Y5731D01*
X276222Y6342D01*
X275423Y6673D01*
D02*
G37*
G36*
X344000Y95716D02*
X343152Y95547D01*
X342433Y95067D01*
X341953Y94348D01*
X341784Y93500D01*
X341953Y92652D01*
X342433Y91933D01*
X343152Y91453D01*
X344000Y91284D01*
X344848Y91453D01*
X345567Y91933D01*
X346047Y92652D01*
X346216Y93500D01*
X346047Y94348D01*
X345567Y95067D01*
X344848Y95547D01*
X344000Y95716D01*
D02*
G37*
G36*
X209500Y90216D02*
X208652Y90047D01*
X207933Y89567D01*
X207453Y88848D01*
X207284Y88000D01*
X207453Y87152D01*
X207933Y86433D01*
X208652Y85953D01*
X209500Y85784D01*
X210348Y85953D01*
X211067Y86433D01*
X211547Y87152D01*
X211716Y88000D01*
X211547Y88848D01*
X211067Y89567D01*
X210348Y90047D01*
X209500Y90216D01*
D02*
G37*
G36*
X197000D02*
X196152Y90047D01*
X195433Y89567D01*
X194953Y88848D01*
X194784Y88000D01*
X194953Y87152D01*
X195433Y86433D01*
X196152Y85953D01*
X197000Y85784D01*
X197848Y85953D01*
X198567Y86433D01*
X199047Y87152D01*
X199216Y88000D01*
X199047Y88848D01*
X198567Y89567D01*
X197848Y90047D01*
X197000Y90216D01*
D02*
G37*
G36*
X152500Y88716D02*
X151652Y88547D01*
X150933Y88067D01*
X150453Y87348D01*
X150284Y86500D01*
X150453Y85652D01*
X150933Y84933D01*
X151652Y84453D01*
X152500Y84284D01*
X153348Y84453D01*
X154067Y84933D01*
X154547Y85652D01*
X154716Y86500D01*
X154547Y87348D01*
X154067Y88067D01*
X153348Y88547D01*
X152500Y88716D01*
D02*
G37*
G36*
X185500Y88716D02*
X184652Y88547D01*
X183933Y88067D01*
X183453Y87348D01*
X183284Y86500D01*
X183453Y85652D01*
X183933Y84933D01*
X184652Y84453D01*
X185500Y84284D01*
X186348Y84453D01*
X187067Y84933D01*
X187547Y85652D01*
X187716Y86500D01*
X187547Y87348D01*
X187067Y88067D01*
X186348Y88547D01*
X185500Y88716D01*
D02*
G37*
G36*
X169000D02*
X168152Y88547D01*
X167433Y88067D01*
X166953Y87348D01*
X166784Y86500D01*
X166953Y85652D01*
X167433Y84933D01*
X168152Y84453D01*
X169000Y84284D01*
X169848Y84453D01*
X170567Y84933D01*
X171047Y85652D01*
X171216Y86500D01*
X171047Y87348D01*
X170567Y88067D01*
X169848Y88547D01*
X169000Y88716D01*
D02*
G37*
G36*
X123500Y87216D02*
X122652Y87047D01*
X121933Y86567D01*
X121453Y85848D01*
X121284Y85000D01*
X121453Y84152D01*
X121933Y83433D01*
X122652Y82953D01*
X123500Y82784D01*
X124348Y82953D01*
X125067Y83433D01*
X125547Y84152D01*
X125716Y85000D01*
X125547Y85848D01*
X125067Y86567D01*
X124348Y87047D01*
X123500Y87216D01*
D02*
G37*
G36*
X118500D02*
X117652Y87047D01*
X116933Y86567D01*
X116453Y85848D01*
X116284Y85000D01*
X116453Y84152D01*
X116933Y83433D01*
X117652Y82953D01*
X118500Y82784D01*
X119348Y82953D01*
X120067Y83433D01*
X120547Y84152D01*
X120716Y85000D01*
X120547Y85848D01*
X120067Y86567D01*
X119348Y87047D01*
X118500Y87216D01*
D02*
G37*
G36*
X157000Y84716D02*
X156152Y84547D01*
X155433Y84067D01*
X154953Y83348D01*
X154784Y82500D01*
X154953Y81652D01*
X155433Y80933D01*
X156152Y80453D01*
X157000Y80284D01*
X157848Y80453D01*
X158567Y80933D01*
X159047Y81652D01*
X159216Y82500D01*
X159047Y83348D01*
X158567Y84067D01*
X157848Y84547D01*
X157000Y84716D01*
D02*
G37*
G36*
X152500Y79716D02*
X151652Y79547D01*
X150933Y79067D01*
X150453Y78348D01*
X150284Y77500D01*
X150453Y76652D01*
X150933Y75933D01*
X151652Y75453D01*
X152500Y75284D01*
X153348Y75453D01*
X154067Y75933D01*
X154547Y76652D01*
X154716Y77500D01*
X154547Y78348D01*
X154067Y79067D01*
X153348Y79547D01*
X152500Y79716D01*
D02*
G37*
G36*
X185500Y79716D02*
X184652Y79547D01*
X183933Y79067D01*
X183453Y78348D01*
X183284Y77500D01*
X183453Y76652D01*
X183933Y75933D01*
X184652Y75453D01*
X185500Y75284D01*
X186348Y75453D01*
X187067Y75933D01*
X187547Y76652D01*
X187716Y77500D01*
X187547Y78348D01*
X187067Y79067D01*
X186348Y79547D01*
X185500Y79716D01*
D02*
G37*
G36*
X311500Y76716D02*
X310652Y76547D01*
X309933Y76067D01*
X309453Y75348D01*
X309284Y74500D01*
X309453Y73652D01*
X309933Y72933D01*
X310652Y72453D01*
X311500Y72284D01*
X312348Y72453D01*
X313067Y72933D01*
X313547Y73652D01*
X313716Y74500D01*
X313547Y75348D01*
X313067Y76067D01*
X312348Y76547D01*
X311500Y76716D01*
D02*
G37*
G36*
X118000Y74716D02*
X117152Y74547D01*
X116433Y74067D01*
X115953Y73348D01*
X115784Y72500D01*
X115953Y71652D01*
X116433Y70933D01*
X117152Y70453D01*
X118000Y70284D01*
X118848Y70453D01*
X119567Y70933D01*
X120047Y71652D01*
X120216Y72500D01*
X120047Y73348D01*
X119567Y74067D01*
X118848Y74547D01*
X118000Y74716D01*
D02*
G37*
G36*
X185500Y70716D02*
X184652Y70547D01*
X183933Y70067D01*
X183528Y69460D01*
X183370Y69423D01*
X183130D01*
X182972Y69460D01*
X182567Y70067D01*
X181848Y70547D01*
X181000Y70716D01*
X180152Y70547D01*
X179433Y70067D01*
X178953Y69348D01*
X178784Y68500D01*
X178953Y67652D01*
X179433Y66933D01*
X180152Y66453D01*
X181000Y66284D01*
X181848Y66453D01*
X182567Y66933D01*
X182972Y67540D01*
X183130Y67577D01*
X183370D01*
X183528Y67540D01*
X183933Y66933D01*
X184652Y66453D01*
X185500Y66284D01*
X186348Y66453D01*
X187067Y66933D01*
X187547Y67652D01*
X187716Y68500D01*
X187547Y69348D01*
X187067Y70067D01*
X186348Y70547D01*
X185500Y70716D01*
D02*
G37*
G36*
X137500Y71216D02*
X136652Y71047D01*
X135933Y70567D01*
X135453Y69848D01*
X135284Y69000D01*
X135453Y68152D01*
X135933Y67433D01*
X136652Y66953D01*
X137500Y66784D01*
X138348Y66953D01*
X139067Y67433D01*
X139547Y68152D01*
X139716Y69000D01*
X139547Y69848D01*
X139067Y70567D01*
X138348Y71047D01*
X137500Y71216D01*
D02*
G37*
G36*
X152500Y70716D02*
X151652Y70547D01*
X150933Y70067D01*
X150453Y69348D01*
X150284Y68500D01*
X150453Y67652D01*
X150933Y66933D01*
X151652Y66453D01*
X152500Y66284D01*
X153348Y66453D01*
X154067Y66933D01*
X154547Y67652D01*
X154716Y68500D01*
X154547Y69348D01*
X154067Y70067D01*
X153348Y70547D01*
X152500Y70716D01*
D02*
G37*
G36*
X118500Y65716D02*
X117652Y65547D01*
X116933Y65067D01*
X116453Y64348D01*
X116284Y63500D01*
X116453Y62652D01*
X116933Y61933D01*
X117652Y61453D01*
X118500Y61284D01*
X119348Y61453D01*
X120067Y61933D01*
X120547Y62652D01*
X120716Y63500D01*
X120547Y64348D01*
X120067Y65067D01*
X119348Y65547D01*
X118500Y65716D01*
D02*
G37*
G36*
X236500Y63716D02*
X235652Y63547D01*
X234933Y63067D01*
X234453Y62348D01*
X234284Y61500D01*
X234453Y60652D01*
X234933Y59933D01*
X235652Y59453D01*
X236500Y59284D01*
X237348Y59453D01*
X238067Y59933D01*
X238547Y60652D01*
X238716Y61500D01*
X238547Y62348D01*
X238067Y63067D01*
X237348Y63547D01*
X236500Y63716D01*
D02*
G37*
G36*
X232500Y60716D02*
X231652Y60547D01*
X230933Y60067D01*
X230453Y59348D01*
X230284Y58500D01*
X230453Y57652D01*
X230933Y56933D01*
X231652Y56453D01*
X232500Y56284D01*
X233348Y56453D01*
X234067Y56933D01*
X234547Y57652D01*
X234716Y58500D01*
X234547Y59348D01*
X234067Y60067D01*
X233348Y60547D01*
X232500Y60716D01*
D02*
G37*
G36*
X293000Y59216D02*
X292152Y59047D01*
X291433Y58567D01*
X290953Y57848D01*
X290784Y57000D01*
X290953Y56152D01*
X291433Y55433D01*
X292152Y54953D01*
X293000Y54784D01*
X293848Y54953D01*
X294567Y55433D01*
X295047Y56152D01*
X295216Y57000D01*
X295047Y57848D01*
X294567Y58567D01*
X293848Y59047D01*
X293000Y59216D01*
D02*
G37*
G36*
X159500Y58216D02*
X158652Y58047D01*
X157933Y57567D01*
X157453Y56848D01*
X157284Y56000D01*
X157453Y55152D01*
X157933Y54433D01*
X158652Y53953D01*
X159500Y53784D01*
X160348Y53953D01*
X161067Y54433D01*
X161547Y55152D01*
X161716Y56000D01*
X161547Y56848D01*
X161067Y57567D01*
X160348Y58047D01*
X159500Y58216D01*
D02*
G37*
G36*
X154500D02*
X153652Y58047D01*
X152933Y57567D01*
X152453Y56848D01*
X152284Y56000D01*
X152453Y55152D01*
X152933Y54433D01*
X153652Y53953D01*
X154500Y53784D01*
X155348Y53953D01*
X156067Y54433D01*
X156547Y55152D01*
X156716Y56000D01*
X156547Y56848D01*
X156067Y57567D01*
X155348Y58047D01*
X154500Y58216D01*
D02*
G37*
G36*
X178500Y55716D02*
X177652Y55547D01*
X176933Y55067D01*
X176453Y54348D01*
X176284Y53500D01*
X176453Y52652D01*
X176933Y51933D01*
X177652Y51453D01*
X178500Y51284D01*
X179348Y51453D01*
X180067Y51933D01*
X180547Y52652D01*
X180716Y53500D01*
X180547Y54348D01*
X180067Y55067D01*
X179348Y55547D01*
X178500Y55716D01*
D02*
G37*
G36*
X172500D02*
X171652Y55547D01*
X170933Y55067D01*
X170453Y54348D01*
X170284Y53500D01*
X170453Y52652D01*
X170933Y51933D01*
X171652Y51453D01*
X172500Y51284D01*
X173348Y51453D01*
X174067Y51933D01*
X174547Y52652D01*
X174716Y53500D01*
X174547Y54348D01*
X174067Y55067D01*
X173348Y55547D01*
X172500Y55716D01*
D02*
G37*
G36*
X167000D02*
X166152Y55547D01*
X165433Y55067D01*
X164953Y54348D01*
X164784Y53500D01*
X164953Y52652D01*
X165433Y51933D01*
X166152Y51453D01*
X167000Y51284D01*
X167848Y51453D01*
X168567Y51933D01*
X169047Y52652D01*
X169216Y53500D01*
X169047Y54348D01*
X168567Y55067D01*
X167848Y55547D01*
X167000Y55716D01*
D02*
G37*
G36*
X196500Y54716D02*
X195652Y54547D01*
X194933Y54067D01*
X194453Y53348D01*
X194284Y52500D01*
X194453Y51652D01*
X194933Y50933D01*
X195652Y50453D01*
X196500Y50284D01*
X197348Y50453D01*
X198067Y50933D01*
X198547Y51652D01*
X198716Y52500D01*
X198547Y53348D01*
X198067Y54067D01*
X197348Y54547D01*
X196500Y54716D01*
D02*
G37*
G36*
X134500D02*
X133652Y54547D01*
X132933Y54067D01*
X132453Y53348D01*
X132284Y52500D01*
X132453Y51652D01*
X132933Y50933D01*
X133652Y50453D01*
X134500Y50284D01*
X135348Y50453D01*
X136067Y50933D01*
X136547Y51652D01*
X136716Y52500D01*
X136547Y53348D01*
X136067Y54067D01*
X135348Y54547D01*
X134500Y54716D01*
D02*
G37*
G36*
X297000Y53216D02*
X296152Y53047D01*
X295433Y52567D01*
X294953Y51848D01*
X294784Y51000D01*
X294953Y50152D01*
X295433Y49433D01*
X296152Y48953D01*
X297000Y48784D01*
X297848Y48953D01*
X298567Y49433D01*
X299047Y50152D01*
X299216Y51000D01*
X299047Y51848D01*
X298567Y52567D01*
X297848Y53047D01*
X297000Y53216D01*
D02*
G37*
G36*
X242000Y50716D02*
X241152Y50547D01*
X240433Y50067D01*
X239953Y49348D01*
X239784Y48500D01*
X239953Y47652D01*
X240433Y46933D01*
X241152Y46453D01*
X242000Y46284D01*
X242848Y46453D01*
X243567Y46933D01*
X244047Y47652D01*
X244216Y48500D01*
X244047Y49348D01*
X243567Y50067D01*
X242848Y50547D01*
X242000Y50716D01*
D02*
G37*
G36*
X178000D02*
X177152Y50547D01*
X176433Y50067D01*
X175953Y49348D01*
X175784Y48500D01*
X175953Y47652D01*
X176433Y46933D01*
X177152Y46453D01*
X178000Y46284D01*
X178848Y46453D01*
X179567Y46933D01*
X180047Y47652D01*
X180216Y48500D01*
X180047Y49348D01*
X179567Y50067D01*
X178848Y50547D01*
X178000Y50716D01*
D02*
G37*
G36*
X172500D02*
X171652Y50547D01*
X170933Y50067D01*
X170453Y49348D01*
X170284Y48500D01*
X170453Y47652D01*
X170933Y46933D01*
X171652Y46453D01*
X172500Y46284D01*
X173348Y46453D01*
X174067Y46933D01*
X174547Y47652D01*
X174716Y48500D01*
X174547Y49348D01*
X174067Y50067D01*
X173348Y50547D01*
X172500Y50716D01*
D02*
G37*
G36*
X167000D02*
X166152Y50547D01*
X165433Y50067D01*
X164953Y49348D01*
X164784Y48500D01*
X164953Y47652D01*
X165433Y46933D01*
X166152Y46453D01*
X167000Y46284D01*
X167848Y46453D01*
X168567Y46933D01*
X169047Y47652D01*
X169216Y48500D01*
X169047Y49348D01*
X168567Y50067D01*
X167848Y50547D01*
X167000Y50716D01*
D02*
G37*
G36*
X304500Y49716D02*
X303652Y49547D01*
X302933Y49067D01*
X302453Y48348D01*
X302284Y47500D01*
X302453Y46652D01*
X302933Y45933D01*
X303652Y45453D01*
X304500Y45284D01*
X305348Y45453D01*
X306067Y45933D01*
X306547Y46652D01*
X306716Y47500D01*
X306547Y48348D01*
X306067Y49067D01*
X305348Y49547D01*
X304500Y49716D01*
D02*
G37*
G36*
X99000Y48716D02*
X98152Y48547D01*
X97433Y48067D01*
X96953Y47348D01*
X96784Y46500D01*
X96953Y45652D01*
X97433Y44933D01*
X98152Y44453D01*
X99000Y44284D01*
X99848Y44453D01*
X100567Y44933D01*
X101047Y45652D01*
X101216Y46500D01*
X101047Y47348D01*
X100567Y48067D01*
X99848Y48547D01*
X99000Y48716D01*
D02*
G37*
G36*
X203500Y48216D02*
X202652Y48047D01*
X201933Y47567D01*
X201453Y46848D01*
X201284Y46000D01*
X201453Y45152D01*
X201933Y44433D01*
X202652Y43953D01*
X203500Y43784D01*
X204348Y43953D01*
X205067Y44433D01*
X205547Y45152D01*
X205716Y46000D01*
X205547Y46848D01*
X205067Y47567D01*
X204348Y48047D01*
X203500Y48216D01*
D02*
G37*
G36*
X297000Y47716D02*
X296152Y47547D01*
X295433Y47067D01*
X294953Y46348D01*
X294784Y45500D01*
X294953Y44652D01*
X295433Y43933D01*
X296152Y43453D01*
X297000Y43284D01*
X297848Y43453D01*
X298567Y43933D01*
X299047Y44652D01*
X299216Y45500D01*
X299047Y46348D01*
X298567Y47067D01*
X297848Y47547D01*
X297000Y47716D01*
D02*
G37*
G36*
X246000D02*
X245152Y47547D01*
X244433Y47067D01*
X243953Y46348D01*
X243784Y45500D01*
X243953Y44652D01*
X244433Y43933D01*
X245152Y43453D01*
X246000Y43284D01*
X246848Y43453D01*
X247567Y43933D01*
X248047Y44652D01*
X248216Y45500D01*
X248047Y46348D01*
X247567Y47067D01*
X246848Y47547D01*
X246000Y47716D01*
D02*
G37*
G36*
X198500Y46216D02*
X197652Y46047D01*
X196933Y45567D01*
X196453Y44848D01*
X196284Y44000D01*
X196453Y43152D01*
X196933Y42433D01*
X197652Y41953D01*
X198500Y41784D01*
X199348Y41953D01*
X200067Y42433D01*
X200547Y43152D01*
X200716Y44000D01*
X200547Y44848D01*
X200067Y45567D01*
X199348Y46047D01*
X198500Y46216D01*
D02*
G37*
G36*
X178000Y45716D02*
X177152Y45547D01*
X176433Y45067D01*
X175953Y44348D01*
X175784Y43500D01*
X175953Y42652D01*
X176433Y41933D01*
X177152Y41453D01*
X178000Y41284D01*
X178848Y41453D01*
X179567Y41933D01*
X180047Y42652D01*
X180216Y43500D01*
X180047Y44348D01*
X179567Y45067D01*
X178848Y45547D01*
X178000Y45716D01*
D02*
G37*
G36*
X167000D02*
X166152Y45547D01*
X165433Y45067D01*
X164953Y44348D01*
X164784Y43500D01*
X164953Y42652D01*
X165433Y41933D01*
X166152Y41453D01*
X167000Y41284D01*
X167848Y41453D01*
X168567Y41933D01*
X169047Y42652D01*
X169216Y43500D01*
X169047Y44348D01*
X168567Y45067D01*
X167848Y45547D01*
X167000Y45716D01*
D02*
G37*
G36*
X157500D02*
X156652Y45547D01*
X155933Y45067D01*
X155453Y44348D01*
X155284Y43500D01*
X155453Y42652D01*
X155933Y41933D01*
X156652Y41453D01*
X157500Y41284D01*
X158348Y41453D01*
X159067Y41933D01*
X159547Y42652D01*
X159716Y43500D01*
X159547Y44348D01*
X159067Y45067D01*
X158348Y45547D01*
X157500Y45716D01*
D02*
G37*
G36*
X152500D02*
X151652Y45547D01*
X150933Y45067D01*
X150453Y44348D01*
X150284Y43500D01*
X150453Y42652D01*
X150933Y41933D01*
X151652Y41453D01*
X152500Y41284D01*
X153348Y41453D01*
X154067Y41933D01*
X154547Y42652D01*
X154716Y43500D01*
X154547Y44348D01*
X154067Y45067D01*
X153348Y45547D01*
X152500Y45716D01*
D02*
G37*
G36*
X147500D02*
X146652Y45547D01*
X145933Y45067D01*
X145453Y44348D01*
X145284Y43500D01*
X145453Y42652D01*
X145933Y41933D01*
X146652Y41453D01*
X147500Y41284D01*
X148348Y41453D01*
X149067Y41933D01*
X149547Y42652D01*
X149716Y43500D01*
X149547Y44348D01*
X149067Y45067D01*
X148348Y45547D01*
X147500Y45716D01*
D02*
G37*
G36*
X157500Y40716D02*
X156652Y40547D01*
X155933Y40067D01*
X155453Y39348D01*
X155284Y38500D01*
X155453Y37652D01*
X155933Y36933D01*
X156652Y36453D01*
X157500Y36284D01*
X158348Y36453D01*
X159067Y36933D01*
X159547Y37652D01*
X159716Y38500D01*
X159547Y39348D01*
X159067Y40067D01*
X158348Y40547D01*
X157500Y40716D01*
D02*
G37*
G36*
X225000Y40216D02*
X224152Y40047D01*
X223433Y39567D01*
X222953Y38848D01*
X222784Y38000D01*
X222953Y37152D01*
X223433Y36433D01*
X224152Y35953D01*
X225000Y35784D01*
X225848Y35953D01*
X226567Y36433D01*
X227047Y37152D01*
X227216Y38000D01*
X227047Y38848D01*
X226567Y39567D01*
X225848Y40047D01*
X225000Y40216D01*
D02*
G37*
G36*
X239000Y37216D02*
X238152Y37047D01*
X237433Y36567D01*
X236953Y35848D01*
X236784Y35000D01*
X236953Y34152D01*
X237433Y33433D01*
X238152Y32953D01*
X239000Y32784D01*
X239848Y32953D01*
X240567Y33433D01*
X241047Y34152D01*
X241216Y35000D01*
X241047Y35848D01*
X240567Y36567D01*
X239848Y37047D01*
X239000Y37216D01*
D02*
G37*
G36*
X312000Y36716D02*
X311152Y36547D01*
X310433Y36067D01*
X309953Y35348D01*
X309784Y34500D01*
X309953Y33652D01*
X310433Y32933D01*
X311152Y32453D01*
X312000Y32284D01*
X312848Y32453D01*
X313567Y32933D01*
X314047Y33652D01*
X314216Y34500D01*
X314047Y35348D01*
X313567Y36067D01*
X312848Y36547D01*
X312000Y36716D01*
D02*
G37*
G36*
X157500Y35716D02*
X156652Y35547D01*
X155933Y35067D01*
X155453Y34348D01*
X155284Y33500D01*
X155453Y32652D01*
X155933Y31933D01*
X156652Y31453D01*
X157500Y31284D01*
X158348Y31453D01*
X159067Y31933D01*
X159547Y32652D01*
X159716Y33500D01*
X159547Y34348D01*
X159067Y35067D01*
X158348Y35547D01*
X157500Y35716D01*
D02*
G37*
G36*
X260000Y34716D02*
X259152Y34547D01*
X258433Y34067D01*
X257953Y33348D01*
X257784Y32500D01*
X257953Y31652D01*
X258433Y30933D01*
X259152Y30453D01*
X260000Y30284D01*
X260848Y30453D01*
X261567Y30933D01*
X262047Y31652D01*
X262216Y32500D01*
X262047Y33348D01*
X261567Y34067D01*
X260848Y34547D01*
X260000Y34716D01*
D02*
G37*
G36*
X112000Y33216D02*
X111152Y33047D01*
X110433Y32567D01*
X109953Y31848D01*
X109784Y31000D01*
X109953Y30152D01*
X110433Y29433D01*
X111152Y28953D01*
X112000Y28784D01*
X112848Y28953D01*
X113567Y29433D01*
X114047Y30152D01*
X114216Y31000D01*
X114047Y31848D01*
X113567Y32567D01*
X112848Y33047D01*
X112000Y33216D01*
D02*
G37*
G36*
X171500Y30216D02*
X170652Y30047D01*
X169933Y29567D01*
X169453Y28848D01*
X169284Y28000D01*
X169453Y27152D01*
X169933Y26433D01*
X170652Y25953D01*
X171500Y25784D01*
X172348Y25953D01*
X173067Y26433D01*
X173547Y27152D01*
X173716Y28000D01*
X173547Y28848D01*
X173067Y29567D01*
X172348Y30047D01*
X171500Y30216D01*
D02*
G37*
G36*
X128500Y29716D02*
X127652Y29547D01*
X126933Y29067D01*
X126453Y28348D01*
X126284Y27500D01*
X126453Y26652D01*
X126933Y25933D01*
X127652Y25453D01*
X128500Y25284D01*
X129348Y25453D01*
X130067Y25933D01*
X130547Y26652D01*
X130716Y27500D01*
X130547Y28348D01*
X130067Y29067D01*
X129348Y29547D01*
X128500Y29716D01*
D02*
G37*
G36*
X293500Y28216D02*
X292652Y28047D01*
X291933Y27567D01*
X291453Y26848D01*
X291284Y26000D01*
X291453Y25152D01*
X291933Y24433D01*
X292652Y23953D01*
X293500Y23784D01*
X294348Y23953D01*
X295067Y24433D01*
X295547Y25152D01*
X295716Y26000D01*
X295547Y26848D01*
X295067Y27567D01*
X294348Y28047D01*
X293500Y28216D01*
D02*
G37*
G36*
X117500Y26216D02*
X116652Y26047D01*
X115933Y25567D01*
X115453Y24848D01*
X115284Y24000D01*
X115453Y23152D01*
X115933Y22433D01*
X116652Y21953D01*
X117500Y21784D01*
X118348Y21953D01*
X119067Y22433D01*
X119547Y23152D01*
X119716Y24000D01*
X119547Y24848D01*
X119067Y25567D01*
X118348Y26047D01*
X117500Y26216D01*
D02*
G37*
G36*
X153000Y24716D02*
X152152Y24547D01*
X151433Y24067D01*
X150953Y23348D01*
X150784Y22500D01*
X150953Y21652D01*
X151433Y20933D01*
X152152Y20453D01*
X153000Y20284D01*
X153848Y20453D01*
X154567Y20933D01*
X155047Y21652D01*
X155216Y22500D01*
X155047Y23348D01*
X154567Y24067D01*
X153848Y24547D01*
X153000Y24716D01*
D02*
G37*
G36*
X188000Y21716D02*
X187152Y21547D01*
X186433Y21067D01*
X185953Y20348D01*
X185784Y19500D01*
X185953Y18652D01*
X186433Y17933D01*
X187152Y17453D01*
X188000Y17284D01*
X188848Y17453D01*
X189567Y17933D01*
X190047Y18652D01*
X190216Y19500D01*
X190047Y20348D01*
X189567Y21067D01*
X188848Y21547D01*
X188000Y21716D01*
D02*
G37*
G36*
X142000Y18716D02*
X141152Y18547D01*
X140433Y18067D01*
X139953Y17348D01*
X139784Y16500D01*
X139953Y15652D01*
X140433Y14933D01*
X141152Y14453D01*
X142000Y14284D01*
X142848Y14453D01*
X143567Y14933D01*
X144047Y15652D01*
X144216Y16500D01*
X144047Y17348D01*
X143567Y18067D01*
X142848Y18547D01*
X142000Y18716D01*
D02*
G37*
%LPD*%
D138*
X39500Y177500D02*
X41500Y175500D01*
X32000Y177500D02*
X39500D01*
X41500Y167000D02*
Y175500D01*
X352000Y177500D02*
X358000D01*
X350000Y175500D02*
X352000Y177500D01*
X41500Y142500D02*
X58000Y126000D01*
X41500Y142500D02*
Y167000D01*
X366000Y177000D02*
Y177500D01*
X350000Y136000D02*
Y175500D01*
D139*
X235000Y104500D02*
X279500D01*
X286000Y111000D01*
X116811Y114000D02*
X132500D01*
X133697Y115197D02*
X141024D01*
X132500Y114000D02*
X133697Y115197D01*
X103500Y141500D02*
X109500Y135500D01*
X137500D02*
X142000Y140000D01*
X109500Y135500D02*
X137500D01*
X103500Y141500D02*
Y145000D01*
X298000Y113500D02*
X311500D01*
X279500Y132000D02*
X298000Y113500D01*
X248000Y132000D02*
X279500D01*
X231000Y108500D02*
Y115173D01*
X231024Y115197D01*
X231000Y108500D02*
X235000Y104500D01*
X248000Y148000D02*
X255500D01*
X258500Y145000D02*
X275500D01*
X255500Y148000D02*
X258500Y145000D01*
X94500Y113500D02*
X108000D01*
X126500Y132000D02*
X142000D01*
X108000Y113500D02*
X126500Y132000D01*
D140*
X231024Y167697D02*
X245220Y153500D01*
X274000D02*
X279971Y147529D01*
X245220Y153500D02*
X274000D01*
X279971Y145029D02*
Y147529D01*
Y145029D02*
X280000Y145000D01*
X118327D02*
X141024Y167697D01*
X108500Y145000D02*
X118327D01*
D149*
X320000Y15000D02*
D03*
X325000D02*
D03*
X330000D02*
D03*
X335000D02*
D03*
X340000D02*
D03*
X345000D02*
D03*
X350000D02*
D03*
X355000D02*
D03*
D150*
X8000Y169500D02*
D03*
X16000D02*
D03*
X24000D02*
D03*
X32000D02*
D03*
Y177500D02*
D03*
X24000D02*
D03*
X16000D02*
D03*
X8000D02*
D03*
Y185500D02*
D03*
X32000D02*
D03*
X24000D02*
D03*
X16000D02*
D03*
X366000D02*
D03*
X374000D02*
D03*
X382000D02*
D03*
X358000D02*
D03*
Y177500D02*
D03*
X366000D02*
D03*
X374000D02*
D03*
X382000D02*
D03*
Y169500D02*
D03*
X374000D02*
D03*
X366000D02*
D03*
X358000D02*
D03*
X116811Y114000D02*
D03*
X43000Y73500D02*
D03*
X266500Y13000D02*
D03*
X98500Y29500D02*
D03*
X195600Y65300D02*
D03*
X144900Y80200D02*
D03*
X286000Y111000D02*
D03*
X157500Y10500D02*
D03*
X117000Y101000D02*
D03*
X280000Y145000D02*
D03*
X358000Y114500D02*
D03*
X209000Y66000D02*
D03*
X123500Y22500D02*
D03*
X92000Y84000D02*
D03*
Y88500D02*
D03*
X336000Y93500D02*
D03*
X350000Y136000D02*
D03*
X107500Y61500D02*
D03*
Y57000D02*
D03*
X103000D02*
D03*
X98500D02*
D03*
X94000D02*
D03*
Y61500D02*
D03*
Y70500D02*
D03*
Y75000D02*
D03*
X98500D02*
D03*
X103000D02*
D03*
X107500D02*
D03*
Y70500D02*
D03*
Y66000D02*
D03*
X58000Y126000D02*
D03*
X266000Y5000D02*
D03*
X311500Y113500D02*
D03*
X282500Y99000D02*
D03*
X275500Y145000D02*
D03*
X142000Y140000D02*
D03*
X103500Y145000D02*
D03*
X94500Y113500D02*
D03*
X108500Y145000D02*
D03*
X113500Y46500D02*
D03*
X305000Y24000D02*
D03*
X299000Y21500D02*
D03*
X141024Y167697D02*
D03*
X231024D02*
D03*
X141024Y115197D02*
D03*
X231024D02*
D03*
X358500Y80000D02*
D03*
X342000Y73000D02*
D03*
X228500Y71000D02*
D03*
X248000Y132000D02*
D03*
Y148000D02*
D03*
X142000Y132000D02*
D03*
X304000Y62500D02*
D03*
X202000Y19500D02*
D03*
X56500Y57000D02*
D03*
Y63500D02*
D03*
X67500Y57000D02*
D03*
X62000D02*
D03*
X147000Y33000D02*
D03*
X188500Y9500D02*
D03*
X128500Y22500D02*
D03*
X35000Y35354D02*
D03*
M02*
