G04*
G04 #@! TF.GenerationSoftware,Altium Limited,Altium Designer,21.0.8 (223)*
G04*
G04 Layer_Color=32896*
%FSLAX25Y25*%
%MOIN*%
G70*
G04*
G04 #@! TF.SameCoordinates,F73AF2F2-5EA1-4A86-BE9F-7F0372A2F074*
G04*
G04*
G04 #@! TF.FilePolarity,Positive*
G04*
G01*
G75*
%ADD11C,0.00787*%
%ADD12C,0.00591*%
%ADD14C,0.00394*%
%ADD139C,0.01181*%
G36*
X196722Y214463D02*
Y214419D01*
Y214375D01*
Y214331D01*
Y214286D01*
Y214242D01*
Y214198D01*
Y214153D01*
Y214109D01*
Y214065D01*
Y214020D01*
Y213976D01*
Y213932D01*
Y213888D01*
Y213843D01*
Y213799D01*
Y213755D01*
Y213710D01*
Y213666D01*
Y213622D01*
Y213578D01*
Y213533D01*
Y213489D01*
Y213445D01*
Y213400D01*
Y213356D01*
Y213312D01*
Y213268D01*
Y213223D01*
Y213179D01*
Y213135D01*
Y213090D01*
Y213046D01*
Y213002D01*
Y212958D01*
Y212913D01*
Y212869D01*
Y212825D01*
Y212780D01*
Y212736D01*
Y212692D01*
Y212648D01*
Y212603D01*
Y212559D01*
Y212515D01*
Y212470D01*
Y212426D01*
Y212382D01*
Y212337D01*
Y212293D01*
Y212249D01*
Y212205D01*
X195570D01*
Y212160D01*
Y212116D01*
Y212072D01*
Y212028D01*
Y211983D01*
Y211939D01*
Y211895D01*
Y211850D01*
Y211806D01*
Y211762D01*
Y211718D01*
Y211673D01*
Y211629D01*
Y211585D01*
Y211540D01*
Y211496D01*
Y211452D01*
Y211407D01*
Y211363D01*
Y211319D01*
Y211275D01*
Y211230D01*
Y211186D01*
Y211142D01*
Y211097D01*
Y211053D01*
X196722D01*
Y211009D01*
Y210964D01*
Y210920D01*
Y210876D01*
Y210832D01*
Y210787D01*
Y210743D01*
Y210699D01*
Y210654D01*
Y210610D01*
Y210566D01*
Y210522D01*
Y210477D01*
Y210433D01*
Y210389D01*
Y210345D01*
Y210300D01*
Y210256D01*
Y210212D01*
Y210167D01*
Y210123D01*
Y210079D01*
Y210034D01*
Y209990D01*
Y209946D01*
Y209902D01*
Y209857D01*
Y209813D01*
Y209769D01*
Y209724D01*
Y209680D01*
Y209636D01*
Y209592D01*
Y209547D01*
Y209503D01*
Y209459D01*
Y209414D01*
Y209370D01*
Y209326D01*
Y209282D01*
Y209237D01*
Y209193D01*
Y209149D01*
Y209104D01*
Y209060D01*
Y209016D01*
Y208972D01*
Y208927D01*
Y208883D01*
Y208839D01*
Y208794D01*
Y208750D01*
X195570D01*
Y208794D01*
Y208839D01*
Y208883D01*
Y208927D01*
Y208972D01*
Y209016D01*
Y209060D01*
Y209104D01*
Y209149D01*
Y209193D01*
Y209237D01*
Y209282D01*
Y209326D01*
Y209370D01*
Y209414D01*
Y209459D01*
Y209503D01*
Y209547D01*
Y209592D01*
Y209636D01*
Y209680D01*
Y209724D01*
Y209769D01*
Y209813D01*
Y209857D01*
Y209902D01*
X194419D01*
Y209946D01*
Y209990D01*
Y210034D01*
Y210079D01*
Y210123D01*
Y210167D01*
Y210212D01*
Y210256D01*
Y210300D01*
Y210345D01*
Y210389D01*
Y210433D01*
Y210477D01*
Y210522D01*
Y210566D01*
Y210610D01*
Y210654D01*
Y210699D01*
Y210743D01*
Y210787D01*
Y210832D01*
Y210876D01*
Y210920D01*
Y210964D01*
Y211009D01*
Y211053D01*
X193267D01*
Y211009D01*
Y210964D01*
Y210920D01*
Y210876D01*
Y210832D01*
Y210787D01*
Y210743D01*
Y210699D01*
Y210654D01*
Y210610D01*
Y210566D01*
Y210522D01*
Y210477D01*
Y210433D01*
Y210389D01*
Y210345D01*
Y210300D01*
Y210256D01*
Y210212D01*
Y210167D01*
Y210123D01*
Y210079D01*
Y210034D01*
Y209990D01*
Y209946D01*
Y209902D01*
X194419D01*
Y209857D01*
Y209813D01*
Y209769D01*
Y209724D01*
Y209680D01*
Y209636D01*
Y209592D01*
Y209547D01*
Y209503D01*
Y209459D01*
Y209414D01*
Y209370D01*
Y209326D01*
Y209282D01*
Y209237D01*
Y209193D01*
Y209149D01*
Y209104D01*
Y209060D01*
Y209016D01*
Y208972D01*
Y208927D01*
Y208883D01*
Y208839D01*
Y208794D01*
Y208750D01*
X195570D01*
Y208706D01*
Y208662D01*
Y208617D01*
Y208573D01*
Y208529D01*
Y208484D01*
Y208440D01*
Y208396D01*
Y208351D01*
Y208307D01*
Y208263D01*
Y208219D01*
Y208174D01*
Y208130D01*
Y208086D01*
Y208042D01*
Y207997D01*
Y207953D01*
Y207909D01*
Y207864D01*
Y207820D01*
Y207776D01*
Y207731D01*
Y207687D01*
Y207643D01*
Y207599D01*
Y207554D01*
Y207510D01*
Y207466D01*
Y207421D01*
Y207377D01*
Y207333D01*
Y207289D01*
Y207244D01*
Y207200D01*
Y207156D01*
Y207111D01*
Y207067D01*
Y207023D01*
Y206979D01*
Y206934D01*
Y206890D01*
Y206846D01*
Y206801D01*
Y206757D01*
Y206713D01*
Y206668D01*
Y206624D01*
Y206580D01*
Y206536D01*
Y206491D01*
Y206447D01*
Y206403D01*
Y206359D01*
Y206314D01*
Y206270D01*
Y206226D01*
Y206181D01*
Y206137D01*
Y206093D01*
Y206048D01*
Y206004D01*
Y205960D01*
Y205916D01*
Y205871D01*
Y205827D01*
Y205783D01*
Y205738D01*
Y205694D01*
Y205650D01*
Y205606D01*
Y205561D01*
Y205517D01*
Y205473D01*
Y205428D01*
Y205384D01*
Y205340D01*
Y205295D01*
X199025D01*
Y205251D01*
Y205207D01*
Y205163D01*
Y205118D01*
Y205074D01*
Y205030D01*
Y204985D01*
Y204941D01*
Y204897D01*
Y204853D01*
Y204808D01*
Y204764D01*
Y204720D01*
Y204676D01*
Y204631D01*
Y204587D01*
Y204543D01*
Y204498D01*
Y204454D01*
Y204410D01*
Y204365D01*
Y204321D01*
Y204277D01*
Y204233D01*
Y204188D01*
Y204144D01*
X201328D01*
Y204100D01*
Y204055D01*
Y204011D01*
Y203967D01*
Y203923D01*
Y203878D01*
Y203834D01*
Y203790D01*
Y203745D01*
Y203701D01*
Y203657D01*
Y203613D01*
Y203568D01*
Y203524D01*
Y203480D01*
Y203435D01*
Y203391D01*
Y203347D01*
Y203303D01*
Y203258D01*
Y203214D01*
Y203170D01*
Y203125D01*
Y203081D01*
Y203037D01*
Y202993D01*
X202479D01*
Y202948D01*
Y202904D01*
Y202860D01*
Y202815D01*
Y202771D01*
Y202727D01*
Y202682D01*
Y202638D01*
Y202594D01*
Y202550D01*
Y202505D01*
Y202461D01*
Y202417D01*
Y202373D01*
Y202328D01*
Y202284D01*
Y202240D01*
Y202195D01*
Y202151D01*
Y202107D01*
Y202062D01*
Y202018D01*
Y201974D01*
Y201930D01*
Y201885D01*
Y201841D01*
X204782D01*
Y201885D01*
Y201930D01*
Y201974D01*
Y202018D01*
Y202062D01*
Y202107D01*
Y202151D01*
Y202195D01*
Y202240D01*
Y202284D01*
Y202328D01*
Y202373D01*
Y202417D01*
Y202461D01*
Y202505D01*
Y202550D01*
Y202594D01*
Y202638D01*
Y202682D01*
Y202727D01*
Y202771D01*
Y202815D01*
Y202860D01*
Y202904D01*
Y202948D01*
Y202993D01*
Y203037D01*
Y203081D01*
Y203125D01*
Y203170D01*
Y203214D01*
Y203258D01*
Y203303D01*
Y203347D01*
Y203391D01*
Y203435D01*
Y203480D01*
Y203524D01*
Y203568D01*
Y203613D01*
Y203657D01*
Y203701D01*
Y203745D01*
Y203790D01*
Y203834D01*
Y203878D01*
Y203923D01*
Y203967D01*
Y204011D01*
Y204055D01*
Y204100D01*
Y204144D01*
X205934D01*
Y204188D01*
Y204233D01*
Y204277D01*
Y204321D01*
Y204365D01*
Y204410D01*
Y204454D01*
Y204498D01*
Y204543D01*
Y204587D01*
Y204631D01*
Y204676D01*
Y204720D01*
Y204764D01*
Y204808D01*
Y204853D01*
Y204897D01*
Y204941D01*
Y204985D01*
Y205030D01*
Y205074D01*
Y205118D01*
Y205163D01*
Y205207D01*
Y205251D01*
Y205295D01*
X207085D01*
Y205251D01*
Y205207D01*
Y205163D01*
Y205118D01*
Y205074D01*
Y205030D01*
Y204985D01*
Y204941D01*
Y204897D01*
Y204853D01*
Y204808D01*
Y204764D01*
Y204720D01*
Y204676D01*
Y204631D01*
Y204587D01*
Y204543D01*
Y204498D01*
Y204454D01*
Y204410D01*
Y204365D01*
Y204321D01*
Y204277D01*
Y204233D01*
Y204188D01*
Y204144D01*
Y204100D01*
Y204055D01*
Y204011D01*
Y203967D01*
Y203923D01*
Y203878D01*
Y203834D01*
Y203790D01*
Y203745D01*
Y203701D01*
Y203657D01*
Y203613D01*
Y203568D01*
Y203524D01*
Y203480D01*
Y203435D01*
Y203391D01*
Y203347D01*
Y203303D01*
Y203258D01*
Y203214D01*
Y203170D01*
Y203125D01*
Y203081D01*
Y203037D01*
Y202993D01*
Y202948D01*
Y202904D01*
Y202860D01*
Y202815D01*
Y202771D01*
Y202727D01*
Y202682D01*
Y202638D01*
Y202594D01*
Y202550D01*
Y202505D01*
Y202461D01*
Y202417D01*
Y202373D01*
Y202328D01*
Y202284D01*
Y202240D01*
Y202195D01*
Y202151D01*
Y202107D01*
Y202062D01*
Y202018D01*
Y201974D01*
Y201930D01*
Y201885D01*
Y201841D01*
X208237D01*
Y201797D01*
Y201752D01*
Y201708D01*
Y201664D01*
Y201620D01*
Y201575D01*
Y201531D01*
Y201487D01*
Y201442D01*
Y201398D01*
Y201354D01*
Y201309D01*
Y201265D01*
Y201221D01*
Y201177D01*
Y201132D01*
Y201088D01*
Y201044D01*
Y200999D01*
Y200955D01*
Y200911D01*
Y200867D01*
Y200822D01*
Y200778D01*
Y200734D01*
Y200690D01*
X207085D01*
Y200734D01*
Y200778D01*
Y200822D01*
Y200867D01*
Y200911D01*
Y200955D01*
Y200999D01*
Y201044D01*
Y201088D01*
Y201132D01*
Y201177D01*
Y201221D01*
Y201265D01*
Y201309D01*
Y201354D01*
Y201398D01*
Y201442D01*
Y201487D01*
Y201531D01*
Y201575D01*
Y201620D01*
Y201664D01*
Y201708D01*
Y201752D01*
Y201797D01*
Y201841D01*
X205934D01*
Y201797D01*
Y201752D01*
Y201708D01*
Y201664D01*
Y201620D01*
Y201575D01*
Y201531D01*
Y201487D01*
Y201442D01*
Y201398D01*
Y201354D01*
Y201309D01*
Y201265D01*
Y201221D01*
Y201177D01*
Y201132D01*
Y201088D01*
Y201044D01*
Y200999D01*
Y200955D01*
Y200911D01*
Y200867D01*
Y200822D01*
Y200778D01*
Y200734D01*
Y200690D01*
Y200645D01*
Y200601D01*
Y200557D01*
Y200512D01*
Y200468D01*
Y200424D01*
Y200379D01*
Y200335D01*
Y200291D01*
Y200247D01*
Y200202D01*
Y200158D01*
Y200114D01*
Y200069D01*
Y200025D01*
Y199981D01*
Y199937D01*
Y199892D01*
Y199848D01*
Y199804D01*
Y199759D01*
Y199715D01*
Y199671D01*
Y199627D01*
Y199582D01*
Y199538D01*
X210540D01*
Y199582D01*
Y199627D01*
Y199671D01*
Y199715D01*
Y199759D01*
Y199804D01*
Y199848D01*
Y199892D01*
Y199937D01*
Y199981D01*
Y200025D01*
Y200069D01*
Y200114D01*
Y200158D01*
Y200202D01*
Y200247D01*
Y200291D01*
Y200335D01*
Y200379D01*
Y200424D01*
Y200468D01*
Y200512D01*
Y200557D01*
Y200601D01*
Y200645D01*
Y200690D01*
Y200734D01*
Y200778D01*
Y200822D01*
Y200867D01*
Y200911D01*
Y200955D01*
Y200999D01*
Y201044D01*
Y201088D01*
Y201132D01*
Y201177D01*
Y201221D01*
Y201265D01*
Y201309D01*
Y201354D01*
Y201398D01*
Y201442D01*
Y201487D01*
Y201531D01*
Y201575D01*
Y201620D01*
Y201664D01*
Y201708D01*
Y201752D01*
Y201797D01*
Y201841D01*
X211691D01*
Y201797D01*
Y201752D01*
Y201708D01*
Y201664D01*
Y201620D01*
Y201575D01*
Y201531D01*
Y201487D01*
Y201442D01*
Y201398D01*
Y201354D01*
Y201309D01*
Y201265D01*
Y201221D01*
Y201177D01*
Y201132D01*
Y201088D01*
Y201044D01*
Y200999D01*
Y200955D01*
Y200911D01*
Y200867D01*
Y200822D01*
Y200778D01*
Y200734D01*
Y200690D01*
Y200645D01*
Y200601D01*
Y200557D01*
Y200512D01*
Y200468D01*
Y200424D01*
Y200379D01*
Y200335D01*
Y200291D01*
Y200247D01*
Y200202D01*
Y200158D01*
Y200114D01*
Y200069D01*
Y200025D01*
Y199981D01*
Y199937D01*
Y199892D01*
Y199848D01*
Y199804D01*
Y199759D01*
Y199715D01*
Y199671D01*
Y199627D01*
Y199582D01*
Y199538D01*
Y199494D01*
Y199449D01*
Y199405D01*
Y199361D01*
Y199317D01*
Y199272D01*
Y199228D01*
Y199184D01*
Y199139D01*
Y199095D01*
Y199051D01*
Y199006D01*
Y198962D01*
Y198918D01*
Y198874D01*
Y198829D01*
Y198785D01*
Y198741D01*
Y198696D01*
Y198652D01*
Y198608D01*
Y198564D01*
Y198519D01*
Y198475D01*
Y198431D01*
Y198386D01*
Y198342D01*
Y198298D01*
Y198254D01*
Y198209D01*
Y198165D01*
Y198121D01*
Y198076D01*
Y198032D01*
Y197988D01*
Y197944D01*
Y197899D01*
Y197855D01*
Y197811D01*
Y197766D01*
Y197722D01*
Y197678D01*
Y197634D01*
Y197589D01*
Y197545D01*
Y197501D01*
Y197456D01*
Y197412D01*
Y197368D01*
Y197324D01*
Y197279D01*
Y197235D01*
Y197191D01*
Y197146D01*
Y197102D01*
Y197058D01*
Y197013D01*
Y196969D01*
Y196925D01*
Y196881D01*
Y196836D01*
Y196792D01*
Y196748D01*
Y196704D01*
Y196659D01*
Y196615D01*
Y196571D01*
Y196526D01*
Y196482D01*
Y196438D01*
Y196393D01*
Y196349D01*
Y196305D01*
Y196261D01*
Y196216D01*
Y196172D01*
Y196128D01*
Y196083D01*
X210540D01*
Y196128D01*
Y196172D01*
Y196216D01*
Y196261D01*
Y196305D01*
Y196349D01*
Y196393D01*
Y196438D01*
Y196482D01*
Y196526D01*
Y196571D01*
Y196615D01*
Y196659D01*
Y196704D01*
Y196748D01*
Y196792D01*
Y196836D01*
Y196881D01*
Y196925D01*
Y196969D01*
Y197013D01*
Y197058D01*
Y197102D01*
Y197146D01*
Y197191D01*
Y197235D01*
Y197279D01*
Y197324D01*
Y197368D01*
Y197412D01*
Y197456D01*
Y197501D01*
Y197545D01*
Y197589D01*
Y197634D01*
Y197678D01*
Y197722D01*
Y197766D01*
Y197811D01*
Y197855D01*
Y197899D01*
Y197944D01*
Y197988D01*
Y198032D01*
Y198076D01*
Y198121D01*
Y198165D01*
Y198209D01*
Y198254D01*
Y198298D01*
Y198342D01*
Y198386D01*
X209388D01*
Y198342D01*
Y198298D01*
Y198254D01*
Y198209D01*
Y198165D01*
Y198121D01*
Y198076D01*
Y198032D01*
Y197988D01*
Y197944D01*
Y197899D01*
Y197855D01*
Y197811D01*
Y197766D01*
Y197722D01*
Y197678D01*
Y197634D01*
Y197589D01*
Y197545D01*
Y197501D01*
Y197456D01*
Y197412D01*
Y197368D01*
Y197324D01*
Y197279D01*
Y197235D01*
Y197191D01*
Y197146D01*
Y197102D01*
Y197058D01*
Y197013D01*
Y196969D01*
Y196925D01*
Y196881D01*
Y196836D01*
Y196792D01*
Y196748D01*
Y196704D01*
Y196659D01*
Y196615D01*
Y196571D01*
Y196526D01*
Y196482D01*
Y196438D01*
Y196393D01*
Y196349D01*
Y196305D01*
Y196261D01*
Y196216D01*
Y196172D01*
Y196128D01*
Y196083D01*
X208237D01*
Y196128D01*
Y196172D01*
Y196216D01*
Y196261D01*
Y196305D01*
Y196349D01*
Y196393D01*
Y196438D01*
Y196482D01*
Y196526D01*
Y196571D01*
Y196615D01*
Y196659D01*
Y196704D01*
Y196748D01*
Y196792D01*
Y196836D01*
Y196881D01*
Y196925D01*
Y196969D01*
Y197013D01*
Y197058D01*
Y197102D01*
Y197146D01*
Y197191D01*
Y197235D01*
Y197279D01*
Y197324D01*
Y197368D01*
Y197412D01*
Y197456D01*
Y197501D01*
Y197545D01*
Y197589D01*
Y197634D01*
Y197678D01*
Y197722D01*
Y197766D01*
Y197811D01*
Y197855D01*
Y197899D01*
Y197944D01*
Y197988D01*
Y198032D01*
Y198076D01*
Y198121D01*
Y198165D01*
Y198209D01*
Y198254D01*
Y198298D01*
Y198342D01*
Y198386D01*
X207085D01*
Y198342D01*
Y198298D01*
Y198254D01*
Y198209D01*
Y198165D01*
Y198121D01*
Y198076D01*
Y198032D01*
Y197988D01*
Y197944D01*
Y197899D01*
Y197855D01*
Y197811D01*
Y197766D01*
Y197722D01*
Y197678D01*
Y197634D01*
Y197589D01*
Y197545D01*
Y197501D01*
Y197456D01*
Y197412D01*
Y197368D01*
Y197324D01*
Y197279D01*
Y197235D01*
Y197191D01*
Y197146D01*
Y197102D01*
Y197058D01*
Y197013D01*
Y196969D01*
Y196925D01*
Y196881D01*
Y196836D01*
Y196792D01*
Y196748D01*
Y196704D01*
Y196659D01*
Y196615D01*
Y196571D01*
Y196526D01*
Y196482D01*
Y196438D01*
Y196393D01*
Y196349D01*
Y196305D01*
Y196261D01*
Y196216D01*
Y196172D01*
Y196128D01*
Y196083D01*
X208237D01*
Y196039D01*
Y195995D01*
Y195950D01*
Y195906D01*
Y195862D01*
Y195818D01*
Y195773D01*
Y195729D01*
Y195685D01*
Y195641D01*
Y195596D01*
Y195552D01*
Y195508D01*
Y195463D01*
Y195419D01*
Y195375D01*
Y195331D01*
Y195286D01*
Y195242D01*
Y195198D01*
Y195153D01*
Y195109D01*
Y195065D01*
Y195020D01*
Y194976D01*
Y194932D01*
X210540D01*
Y194888D01*
Y194843D01*
Y194799D01*
Y194755D01*
Y194711D01*
Y194666D01*
Y194622D01*
Y194578D01*
Y194533D01*
Y194489D01*
Y194445D01*
Y194400D01*
Y194356D01*
Y194312D01*
Y194268D01*
Y194223D01*
Y194179D01*
Y194135D01*
Y194090D01*
Y194046D01*
Y194002D01*
Y193957D01*
Y193913D01*
Y193869D01*
Y193825D01*
Y193780D01*
X211691D01*
Y193736D01*
Y193692D01*
Y193648D01*
Y193603D01*
Y193559D01*
Y193515D01*
Y193470D01*
Y193426D01*
Y193382D01*
Y193338D01*
Y193293D01*
Y193249D01*
Y193205D01*
Y193160D01*
Y193116D01*
Y193072D01*
Y193027D01*
Y192983D01*
Y192939D01*
Y192895D01*
Y192850D01*
Y192806D01*
Y192762D01*
Y192718D01*
Y192673D01*
Y192629D01*
X210540D01*
Y192673D01*
Y192718D01*
Y192762D01*
Y192806D01*
Y192850D01*
Y192895D01*
Y192939D01*
Y192983D01*
Y193027D01*
Y193072D01*
Y193116D01*
Y193160D01*
Y193205D01*
Y193249D01*
Y193293D01*
Y193338D01*
Y193382D01*
Y193426D01*
Y193470D01*
Y193515D01*
Y193559D01*
Y193603D01*
Y193648D01*
Y193692D01*
Y193736D01*
Y193780D01*
X208237D01*
Y193825D01*
Y193869D01*
Y193913D01*
Y193957D01*
Y194002D01*
Y194046D01*
Y194090D01*
Y194135D01*
Y194179D01*
Y194223D01*
Y194268D01*
Y194312D01*
Y194356D01*
Y194400D01*
Y194445D01*
Y194489D01*
Y194533D01*
Y194578D01*
Y194622D01*
Y194666D01*
Y194711D01*
Y194755D01*
Y194799D01*
Y194843D01*
Y194888D01*
Y194932D01*
X207085D01*
Y194976D01*
Y195020D01*
Y195065D01*
Y195109D01*
Y195153D01*
Y195198D01*
Y195242D01*
Y195286D01*
Y195331D01*
Y195375D01*
Y195419D01*
Y195463D01*
Y195508D01*
Y195552D01*
Y195596D01*
Y195641D01*
Y195685D01*
Y195729D01*
Y195773D01*
Y195818D01*
Y195862D01*
Y195906D01*
Y195950D01*
Y195995D01*
Y196039D01*
Y196083D01*
X204782D01*
Y196128D01*
Y196172D01*
Y196216D01*
Y196261D01*
Y196305D01*
Y196349D01*
Y196393D01*
Y196438D01*
Y196482D01*
Y196526D01*
Y196571D01*
Y196615D01*
Y196659D01*
Y196704D01*
Y196748D01*
Y196792D01*
Y196836D01*
Y196881D01*
Y196925D01*
Y196969D01*
Y197013D01*
Y197058D01*
Y197102D01*
Y197146D01*
Y197191D01*
Y197235D01*
X201328D01*
Y197191D01*
Y197146D01*
Y197102D01*
Y197058D01*
Y197013D01*
Y196969D01*
Y196925D01*
Y196881D01*
Y196836D01*
Y196792D01*
Y196748D01*
Y196704D01*
Y196659D01*
Y196615D01*
Y196571D01*
Y196526D01*
Y196482D01*
Y196438D01*
Y196393D01*
Y196349D01*
Y196305D01*
Y196261D01*
Y196216D01*
Y196172D01*
Y196128D01*
Y196083D01*
X203631D01*
Y196039D01*
Y195995D01*
Y195950D01*
Y195906D01*
Y195862D01*
Y195818D01*
Y195773D01*
Y195729D01*
Y195685D01*
Y195641D01*
Y195596D01*
Y195552D01*
Y195508D01*
Y195463D01*
Y195419D01*
Y195375D01*
Y195331D01*
Y195286D01*
Y195242D01*
Y195198D01*
Y195153D01*
Y195109D01*
Y195065D01*
Y195020D01*
Y194976D01*
Y194932D01*
X201328D01*
Y194888D01*
Y194843D01*
Y194799D01*
Y194755D01*
Y194711D01*
Y194666D01*
Y194622D01*
Y194578D01*
Y194533D01*
Y194489D01*
Y194445D01*
Y194400D01*
Y194356D01*
Y194312D01*
Y194268D01*
Y194223D01*
Y194179D01*
Y194135D01*
Y194090D01*
Y194046D01*
Y194002D01*
Y193957D01*
Y193913D01*
Y193869D01*
Y193825D01*
Y193780D01*
Y193736D01*
Y193692D01*
Y193648D01*
Y193603D01*
Y193559D01*
Y193515D01*
Y193470D01*
Y193426D01*
Y193382D01*
Y193338D01*
Y193293D01*
Y193249D01*
Y193205D01*
Y193160D01*
Y193116D01*
Y193072D01*
Y193027D01*
Y192983D01*
Y192939D01*
Y192895D01*
Y192850D01*
Y192806D01*
Y192762D01*
Y192718D01*
Y192673D01*
Y192629D01*
Y192585D01*
Y192540D01*
Y192496D01*
Y192452D01*
Y192407D01*
Y192363D01*
Y192319D01*
Y192275D01*
Y192230D01*
Y192186D01*
Y192142D01*
Y192097D01*
Y192053D01*
Y192009D01*
Y191964D01*
Y191920D01*
Y191876D01*
Y191832D01*
Y191787D01*
Y191743D01*
Y191699D01*
Y191655D01*
Y191610D01*
Y191566D01*
Y191522D01*
Y191477D01*
X203631D01*
Y191522D01*
Y191566D01*
Y191610D01*
Y191655D01*
Y191699D01*
Y191743D01*
Y191787D01*
Y191832D01*
Y191876D01*
Y191920D01*
Y191964D01*
Y192009D01*
Y192053D01*
Y192097D01*
Y192142D01*
Y192186D01*
Y192230D01*
Y192275D01*
Y192319D01*
Y192363D01*
Y192407D01*
Y192452D01*
Y192496D01*
Y192540D01*
Y192585D01*
Y192629D01*
X204782D01*
Y192585D01*
Y192540D01*
Y192496D01*
Y192452D01*
Y192407D01*
Y192363D01*
Y192319D01*
Y192275D01*
Y192230D01*
Y192186D01*
Y192142D01*
Y192097D01*
Y192053D01*
Y192009D01*
Y191964D01*
Y191920D01*
Y191876D01*
Y191832D01*
Y191787D01*
Y191743D01*
Y191699D01*
Y191655D01*
Y191610D01*
Y191566D01*
Y191522D01*
Y191477D01*
X207085D01*
Y191522D01*
Y191566D01*
Y191610D01*
Y191655D01*
Y191699D01*
Y191743D01*
Y191787D01*
Y191832D01*
Y191876D01*
Y191920D01*
Y191964D01*
Y192009D01*
Y192053D01*
Y192097D01*
Y192142D01*
Y192186D01*
Y192230D01*
Y192275D01*
Y192319D01*
Y192363D01*
Y192407D01*
Y192452D01*
Y192496D01*
Y192540D01*
Y192585D01*
Y192629D01*
X205934D01*
Y192673D01*
Y192718D01*
Y192762D01*
Y192806D01*
Y192850D01*
Y192895D01*
Y192939D01*
Y192983D01*
Y193027D01*
Y193072D01*
Y193116D01*
Y193160D01*
Y193205D01*
Y193249D01*
Y193293D01*
Y193338D01*
Y193382D01*
Y193426D01*
Y193470D01*
Y193515D01*
Y193559D01*
Y193603D01*
Y193648D01*
Y193692D01*
Y193736D01*
Y193780D01*
Y193825D01*
Y193869D01*
Y193913D01*
Y193957D01*
Y194002D01*
Y194046D01*
Y194090D01*
Y194135D01*
Y194179D01*
Y194223D01*
Y194268D01*
Y194312D01*
Y194356D01*
Y194400D01*
Y194445D01*
Y194489D01*
Y194533D01*
Y194578D01*
Y194622D01*
Y194666D01*
Y194711D01*
Y194755D01*
Y194799D01*
Y194843D01*
Y194888D01*
Y194932D01*
X207085D01*
Y194888D01*
Y194843D01*
Y194799D01*
Y194755D01*
Y194711D01*
Y194666D01*
Y194622D01*
Y194578D01*
Y194533D01*
Y194489D01*
Y194445D01*
Y194400D01*
Y194356D01*
Y194312D01*
Y194268D01*
Y194223D01*
Y194179D01*
Y194135D01*
Y194090D01*
Y194046D01*
Y194002D01*
Y193957D01*
Y193913D01*
Y193869D01*
Y193825D01*
Y193780D01*
X208237D01*
Y193736D01*
Y193692D01*
Y193648D01*
Y193603D01*
Y193559D01*
Y193515D01*
Y193470D01*
Y193426D01*
Y193382D01*
Y193338D01*
Y193293D01*
Y193249D01*
Y193205D01*
Y193160D01*
Y193116D01*
Y193072D01*
Y193027D01*
Y192983D01*
Y192939D01*
Y192895D01*
Y192850D01*
Y192806D01*
Y192762D01*
Y192718D01*
Y192673D01*
Y192629D01*
X209388D01*
Y192585D01*
Y192540D01*
Y192496D01*
Y192452D01*
Y192407D01*
Y192363D01*
Y192319D01*
Y192275D01*
Y192230D01*
Y192186D01*
Y192142D01*
Y192097D01*
Y192053D01*
Y192009D01*
Y191964D01*
Y191920D01*
Y191876D01*
Y191832D01*
Y191787D01*
Y191743D01*
Y191699D01*
Y191655D01*
Y191610D01*
Y191566D01*
Y191522D01*
Y191477D01*
X210540D01*
Y191433D01*
Y191389D01*
Y191344D01*
Y191300D01*
Y191256D01*
Y191212D01*
Y191167D01*
Y191123D01*
Y191079D01*
Y191034D01*
Y190990D01*
Y190946D01*
Y190902D01*
Y190857D01*
Y190813D01*
Y190769D01*
Y190724D01*
Y190680D01*
Y190636D01*
Y190592D01*
Y190547D01*
Y190503D01*
Y190459D01*
Y190414D01*
Y190370D01*
Y190326D01*
X208237D01*
Y190281D01*
Y190237D01*
Y190193D01*
Y190149D01*
Y190104D01*
Y190060D01*
Y190016D01*
Y189971D01*
Y189927D01*
Y189883D01*
Y189839D01*
Y189794D01*
Y189750D01*
Y189706D01*
Y189662D01*
Y189617D01*
Y189573D01*
Y189529D01*
Y189484D01*
Y189440D01*
Y189396D01*
Y189351D01*
Y189307D01*
Y189263D01*
Y189219D01*
Y189174D01*
Y189130D01*
Y189086D01*
Y189041D01*
Y188997D01*
Y188953D01*
Y188909D01*
Y188864D01*
Y188820D01*
Y188776D01*
Y188731D01*
Y188687D01*
Y188643D01*
Y188599D01*
Y188554D01*
Y188510D01*
Y188466D01*
Y188421D01*
Y188377D01*
Y188333D01*
Y188289D01*
Y188244D01*
Y188200D01*
Y188156D01*
Y188111D01*
Y188067D01*
Y188023D01*
X207085D01*
Y187978D01*
Y187934D01*
Y187890D01*
Y187846D01*
Y187801D01*
Y187757D01*
Y187713D01*
Y187669D01*
Y187624D01*
Y187580D01*
Y187536D01*
Y187491D01*
Y187447D01*
Y187403D01*
Y187358D01*
Y187314D01*
Y187270D01*
Y187226D01*
Y187181D01*
Y187137D01*
Y187093D01*
Y187048D01*
Y187004D01*
Y186960D01*
Y186916D01*
Y186871D01*
X208237D01*
Y186827D01*
Y186783D01*
Y186738D01*
Y186694D01*
Y186650D01*
Y186606D01*
Y186561D01*
Y186517D01*
Y186473D01*
Y186428D01*
Y186384D01*
Y186340D01*
Y186295D01*
Y186251D01*
Y186207D01*
Y186163D01*
Y186118D01*
Y186074D01*
Y186030D01*
Y185986D01*
Y185941D01*
Y185897D01*
Y185853D01*
Y185808D01*
Y185764D01*
Y185720D01*
X203631D01*
Y185676D01*
Y185631D01*
Y185587D01*
Y185543D01*
Y185498D01*
Y185454D01*
Y185410D01*
Y185365D01*
Y185321D01*
Y185277D01*
Y185233D01*
Y185188D01*
Y185144D01*
Y185100D01*
Y185055D01*
Y185011D01*
Y184967D01*
Y184923D01*
Y184878D01*
Y184834D01*
Y184790D01*
Y184745D01*
Y184701D01*
Y184657D01*
Y184613D01*
Y184568D01*
Y184524D01*
Y184480D01*
Y184435D01*
Y184391D01*
Y184347D01*
Y184302D01*
Y184258D01*
Y184214D01*
Y184170D01*
Y184125D01*
Y184081D01*
Y184037D01*
Y183993D01*
Y183948D01*
Y183904D01*
Y183860D01*
Y183815D01*
Y183771D01*
Y183727D01*
Y183683D01*
Y183638D01*
Y183594D01*
Y183550D01*
Y183505D01*
Y183461D01*
Y183417D01*
X204782D01*
Y183461D01*
Y183505D01*
Y183550D01*
Y183594D01*
Y183638D01*
Y183683D01*
Y183727D01*
Y183771D01*
Y183815D01*
Y183860D01*
Y183904D01*
Y183948D01*
Y183993D01*
Y184037D01*
Y184081D01*
Y184125D01*
Y184170D01*
Y184214D01*
Y184258D01*
Y184302D01*
Y184347D01*
Y184391D01*
Y184435D01*
Y184480D01*
Y184524D01*
Y184568D01*
X207085D01*
Y184524D01*
Y184480D01*
Y184435D01*
Y184391D01*
Y184347D01*
Y184302D01*
Y184258D01*
Y184214D01*
Y184170D01*
Y184125D01*
Y184081D01*
Y184037D01*
Y183993D01*
Y183948D01*
Y183904D01*
Y183860D01*
Y183815D01*
Y183771D01*
Y183727D01*
Y183683D01*
Y183638D01*
Y183594D01*
Y183550D01*
Y183505D01*
Y183461D01*
Y183417D01*
X208237D01*
Y183461D01*
Y183505D01*
Y183550D01*
Y183594D01*
Y183638D01*
Y183683D01*
Y183727D01*
Y183771D01*
Y183815D01*
Y183860D01*
Y183904D01*
Y183948D01*
Y183993D01*
Y184037D01*
Y184081D01*
Y184125D01*
Y184170D01*
Y184214D01*
Y184258D01*
Y184302D01*
Y184347D01*
Y184391D01*
Y184435D01*
Y184480D01*
Y184524D01*
Y184568D01*
X210540D01*
Y184613D01*
Y184657D01*
Y184701D01*
Y184745D01*
Y184790D01*
Y184834D01*
Y184878D01*
Y184923D01*
Y184967D01*
Y185011D01*
Y185055D01*
Y185100D01*
Y185144D01*
Y185188D01*
Y185233D01*
Y185277D01*
Y185321D01*
Y185365D01*
Y185410D01*
Y185454D01*
Y185498D01*
Y185543D01*
Y185587D01*
Y185631D01*
Y185676D01*
Y185720D01*
X209388D01*
Y185764D01*
Y185808D01*
Y185853D01*
Y185897D01*
Y185941D01*
Y185986D01*
Y186030D01*
Y186074D01*
Y186118D01*
Y186163D01*
Y186207D01*
Y186251D01*
Y186295D01*
Y186340D01*
Y186384D01*
Y186428D01*
Y186473D01*
Y186517D01*
Y186561D01*
Y186606D01*
Y186650D01*
Y186694D01*
Y186738D01*
Y186783D01*
Y186827D01*
Y186871D01*
Y186916D01*
Y186960D01*
Y187004D01*
Y187048D01*
Y187093D01*
Y187137D01*
Y187181D01*
Y187226D01*
Y187270D01*
Y187314D01*
Y187358D01*
Y187403D01*
Y187447D01*
Y187491D01*
Y187536D01*
Y187580D01*
Y187624D01*
Y187669D01*
Y187713D01*
Y187757D01*
Y187801D01*
Y187846D01*
Y187890D01*
Y187934D01*
Y187978D01*
Y188023D01*
X211691D01*
Y187978D01*
Y187934D01*
Y187890D01*
Y187846D01*
Y187801D01*
Y187757D01*
Y187713D01*
Y187669D01*
Y187624D01*
Y187580D01*
Y187536D01*
Y187491D01*
Y187447D01*
Y187403D01*
Y187358D01*
Y187314D01*
Y187270D01*
Y187226D01*
Y187181D01*
Y187137D01*
Y187093D01*
Y187048D01*
Y187004D01*
Y186960D01*
Y186916D01*
Y186871D01*
Y186827D01*
Y186783D01*
Y186738D01*
Y186694D01*
Y186650D01*
Y186606D01*
Y186561D01*
Y186517D01*
Y186473D01*
Y186428D01*
Y186384D01*
Y186340D01*
Y186295D01*
Y186251D01*
Y186207D01*
Y186163D01*
Y186118D01*
Y186074D01*
Y186030D01*
Y185986D01*
Y185941D01*
Y185897D01*
Y185853D01*
Y185808D01*
Y185764D01*
Y185720D01*
Y185676D01*
Y185631D01*
Y185587D01*
Y185543D01*
Y185498D01*
Y185454D01*
Y185410D01*
Y185365D01*
Y185321D01*
Y185277D01*
Y185233D01*
Y185188D01*
Y185144D01*
Y185100D01*
Y185055D01*
Y185011D01*
Y184967D01*
Y184923D01*
Y184878D01*
Y184834D01*
Y184790D01*
Y184745D01*
Y184701D01*
Y184657D01*
Y184613D01*
Y184568D01*
Y184524D01*
Y184480D01*
Y184435D01*
Y184391D01*
Y184347D01*
Y184302D01*
Y184258D01*
Y184214D01*
Y184170D01*
Y184125D01*
Y184081D01*
Y184037D01*
Y183993D01*
Y183948D01*
Y183904D01*
Y183860D01*
Y183815D01*
Y183771D01*
Y183727D01*
Y183683D01*
Y183638D01*
Y183594D01*
Y183550D01*
Y183505D01*
Y183461D01*
Y183417D01*
Y183372D01*
Y183328D01*
Y183284D01*
Y183240D01*
Y183195D01*
Y183151D01*
Y183107D01*
Y183062D01*
Y183018D01*
Y182974D01*
Y182930D01*
Y182885D01*
Y182841D01*
Y182797D01*
Y182752D01*
Y182708D01*
Y182664D01*
Y182620D01*
Y182575D01*
Y182531D01*
Y182487D01*
Y182442D01*
Y182398D01*
Y182354D01*
Y182309D01*
Y182265D01*
X210540D01*
Y182309D01*
Y182354D01*
Y182398D01*
Y182442D01*
Y182487D01*
Y182531D01*
Y182575D01*
Y182620D01*
Y182664D01*
Y182708D01*
Y182752D01*
Y182797D01*
Y182841D01*
Y182885D01*
Y182930D01*
Y182974D01*
Y183018D01*
Y183062D01*
Y183107D01*
Y183151D01*
Y183195D01*
Y183240D01*
Y183284D01*
Y183328D01*
Y183372D01*
Y183417D01*
X209388D01*
Y183372D01*
Y183328D01*
Y183284D01*
Y183240D01*
Y183195D01*
Y183151D01*
Y183107D01*
Y183062D01*
Y183018D01*
Y182974D01*
Y182930D01*
Y182885D01*
Y182841D01*
Y182797D01*
Y182752D01*
Y182708D01*
Y182664D01*
Y182620D01*
Y182575D01*
Y182531D01*
Y182487D01*
Y182442D01*
Y182398D01*
Y182354D01*
Y182309D01*
Y182265D01*
X207085D01*
Y182309D01*
Y182354D01*
Y182398D01*
Y182442D01*
Y182487D01*
Y182531D01*
Y182575D01*
Y182620D01*
Y182664D01*
Y182708D01*
Y182752D01*
Y182797D01*
Y182841D01*
Y182885D01*
Y182930D01*
Y182974D01*
Y183018D01*
Y183062D01*
Y183107D01*
Y183151D01*
Y183195D01*
Y183240D01*
Y183284D01*
Y183328D01*
Y183372D01*
Y183417D01*
X205934D01*
Y183372D01*
Y183328D01*
Y183284D01*
Y183240D01*
Y183195D01*
Y183151D01*
Y183107D01*
Y183062D01*
Y183018D01*
Y182974D01*
Y182930D01*
Y182885D01*
Y182841D01*
Y182797D01*
Y182752D01*
Y182708D01*
Y182664D01*
Y182620D01*
Y182575D01*
Y182531D01*
Y182487D01*
Y182442D01*
Y182398D01*
Y182354D01*
Y182309D01*
Y182265D01*
X207085D01*
Y182221D01*
Y182177D01*
Y182132D01*
Y182088D01*
Y182044D01*
Y182000D01*
Y181955D01*
Y181911D01*
Y181867D01*
Y181822D01*
Y181778D01*
Y181734D01*
Y181690D01*
Y181645D01*
Y181601D01*
Y181557D01*
Y181512D01*
Y181468D01*
Y181424D01*
Y181379D01*
Y181335D01*
Y181291D01*
Y181247D01*
Y181202D01*
Y181158D01*
Y181114D01*
X205934D01*
Y181158D01*
Y181202D01*
Y181247D01*
Y181291D01*
Y181335D01*
Y181379D01*
Y181424D01*
Y181468D01*
Y181512D01*
Y181557D01*
Y181601D01*
Y181645D01*
Y181690D01*
Y181734D01*
Y181778D01*
Y181822D01*
Y181867D01*
Y181911D01*
Y181955D01*
Y182000D01*
Y182044D01*
Y182088D01*
Y182132D01*
Y182177D01*
Y182221D01*
Y182265D01*
X204782D01*
Y182221D01*
Y182177D01*
Y182132D01*
Y182088D01*
Y182044D01*
Y182000D01*
Y181955D01*
Y181911D01*
Y181867D01*
Y181822D01*
Y181778D01*
Y181734D01*
Y181690D01*
Y181645D01*
Y181601D01*
Y181557D01*
Y181512D01*
Y181468D01*
Y181424D01*
Y181379D01*
Y181335D01*
Y181291D01*
Y181247D01*
Y181202D01*
Y181158D01*
Y181114D01*
X203631D01*
Y181158D01*
Y181202D01*
Y181247D01*
Y181291D01*
Y181335D01*
Y181379D01*
Y181424D01*
Y181468D01*
Y181512D01*
Y181557D01*
Y181601D01*
Y181645D01*
Y181690D01*
Y181734D01*
Y181778D01*
Y181822D01*
Y181867D01*
Y181911D01*
Y181955D01*
Y182000D01*
Y182044D01*
Y182088D01*
Y182132D01*
Y182177D01*
Y182221D01*
Y182265D01*
Y182309D01*
Y182354D01*
Y182398D01*
Y182442D01*
Y182487D01*
Y182531D01*
Y182575D01*
Y182620D01*
Y182664D01*
Y182708D01*
Y182752D01*
Y182797D01*
Y182841D01*
Y182885D01*
Y182930D01*
Y182974D01*
Y183018D01*
Y183062D01*
Y183107D01*
Y183151D01*
Y183195D01*
Y183240D01*
Y183284D01*
Y183328D01*
Y183372D01*
Y183417D01*
X201328D01*
Y183461D01*
Y183505D01*
Y183550D01*
Y183594D01*
Y183638D01*
Y183683D01*
Y183727D01*
Y183771D01*
Y183815D01*
Y183860D01*
Y183904D01*
Y183948D01*
Y183993D01*
Y184037D01*
Y184081D01*
Y184125D01*
Y184170D01*
Y184214D01*
Y184258D01*
Y184302D01*
Y184347D01*
Y184391D01*
Y184435D01*
Y184480D01*
Y184524D01*
Y184568D01*
X202479D01*
Y184613D01*
Y184657D01*
Y184701D01*
Y184745D01*
Y184790D01*
Y184834D01*
Y184878D01*
Y184923D01*
Y184967D01*
Y185011D01*
Y185055D01*
Y185100D01*
Y185144D01*
Y185188D01*
Y185233D01*
Y185277D01*
Y185321D01*
Y185365D01*
Y185410D01*
Y185454D01*
Y185498D01*
Y185543D01*
Y185587D01*
Y185631D01*
Y185676D01*
Y185720D01*
X200176D01*
Y185764D01*
Y185808D01*
Y185853D01*
Y185897D01*
Y185941D01*
Y185986D01*
Y186030D01*
Y186074D01*
Y186118D01*
Y186163D01*
Y186207D01*
Y186251D01*
Y186295D01*
Y186340D01*
Y186384D01*
Y186428D01*
Y186473D01*
Y186517D01*
Y186561D01*
Y186606D01*
Y186650D01*
Y186694D01*
Y186738D01*
Y186783D01*
Y186827D01*
Y186871D01*
X196722D01*
Y186916D01*
Y186960D01*
Y187004D01*
Y187048D01*
Y187093D01*
Y187137D01*
Y187181D01*
Y187226D01*
Y187270D01*
Y187314D01*
Y187358D01*
Y187403D01*
Y187447D01*
Y187491D01*
Y187536D01*
Y187580D01*
Y187624D01*
Y187669D01*
Y187713D01*
Y187757D01*
Y187801D01*
Y187846D01*
Y187890D01*
Y187934D01*
Y187978D01*
Y188023D01*
X195570D01*
Y188067D01*
Y188111D01*
Y188156D01*
Y188200D01*
Y188244D01*
Y188289D01*
Y188333D01*
Y188377D01*
Y188421D01*
Y188466D01*
Y188510D01*
Y188554D01*
Y188599D01*
Y188643D01*
Y188687D01*
Y188731D01*
Y188776D01*
Y188820D01*
Y188864D01*
Y188909D01*
Y188953D01*
Y188997D01*
Y189041D01*
Y189086D01*
Y189130D01*
Y189174D01*
X196722D01*
Y189130D01*
Y189086D01*
Y189041D01*
Y188997D01*
Y188953D01*
Y188909D01*
Y188864D01*
Y188820D01*
Y188776D01*
Y188731D01*
Y188687D01*
Y188643D01*
Y188599D01*
Y188554D01*
Y188510D01*
Y188466D01*
Y188421D01*
Y188377D01*
Y188333D01*
Y188289D01*
Y188244D01*
Y188200D01*
Y188156D01*
Y188111D01*
Y188067D01*
Y188023D01*
X199025D01*
Y188067D01*
Y188111D01*
Y188156D01*
Y188200D01*
Y188244D01*
Y188289D01*
Y188333D01*
Y188377D01*
Y188421D01*
Y188466D01*
Y188510D01*
Y188554D01*
Y188599D01*
Y188643D01*
Y188687D01*
Y188731D01*
Y188776D01*
Y188820D01*
Y188864D01*
Y188909D01*
Y188953D01*
Y188997D01*
Y189041D01*
Y189086D01*
Y189130D01*
Y189174D01*
X201328D01*
Y189219D01*
Y189263D01*
Y189307D01*
Y189351D01*
Y189396D01*
Y189440D01*
Y189484D01*
Y189529D01*
Y189573D01*
Y189617D01*
Y189662D01*
Y189706D01*
Y189750D01*
Y189794D01*
Y189839D01*
Y189883D01*
Y189927D01*
Y189971D01*
Y190016D01*
Y190060D01*
Y190104D01*
Y190149D01*
Y190193D01*
Y190237D01*
Y190281D01*
Y190326D01*
Y190370D01*
Y190414D01*
Y190459D01*
Y190503D01*
Y190547D01*
Y190592D01*
Y190636D01*
Y190680D01*
Y190724D01*
Y190769D01*
Y190813D01*
Y190857D01*
Y190902D01*
Y190946D01*
Y190990D01*
Y191034D01*
Y191079D01*
Y191123D01*
Y191167D01*
Y191212D01*
Y191256D01*
Y191300D01*
Y191344D01*
Y191389D01*
Y191433D01*
Y191477D01*
X200176D01*
Y191522D01*
Y191566D01*
Y191610D01*
Y191655D01*
Y191699D01*
Y191743D01*
Y191787D01*
Y191832D01*
Y191876D01*
Y191920D01*
Y191964D01*
Y192009D01*
Y192053D01*
Y192097D01*
Y192142D01*
Y192186D01*
Y192230D01*
Y192275D01*
Y192319D01*
Y192363D01*
Y192407D01*
Y192452D01*
Y192496D01*
Y192540D01*
Y192585D01*
Y192629D01*
Y192673D01*
Y192718D01*
Y192762D01*
Y192806D01*
Y192850D01*
Y192895D01*
Y192939D01*
Y192983D01*
Y193027D01*
Y193072D01*
Y193116D01*
Y193160D01*
Y193205D01*
Y193249D01*
Y193293D01*
Y193338D01*
Y193382D01*
Y193426D01*
Y193470D01*
Y193515D01*
Y193559D01*
Y193603D01*
Y193648D01*
Y193692D01*
Y193736D01*
Y193780D01*
X199025D01*
Y193825D01*
Y193869D01*
Y193913D01*
Y193957D01*
Y194002D01*
Y194046D01*
Y194090D01*
Y194135D01*
Y194179D01*
Y194223D01*
Y194268D01*
Y194312D01*
Y194356D01*
Y194400D01*
Y194445D01*
Y194489D01*
Y194533D01*
Y194578D01*
Y194622D01*
Y194666D01*
Y194711D01*
Y194755D01*
Y194799D01*
Y194843D01*
Y194888D01*
Y194932D01*
Y194976D01*
Y195020D01*
Y195065D01*
Y195109D01*
Y195153D01*
Y195198D01*
Y195242D01*
Y195286D01*
Y195331D01*
Y195375D01*
Y195419D01*
Y195463D01*
Y195508D01*
Y195552D01*
Y195596D01*
Y195641D01*
Y195685D01*
Y195729D01*
Y195773D01*
Y195818D01*
Y195862D01*
Y195906D01*
Y195950D01*
Y195995D01*
Y196039D01*
Y196083D01*
Y196128D01*
Y196172D01*
Y196216D01*
Y196261D01*
Y196305D01*
Y196349D01*
Y196393D01*
Y196438D01*
Y196482D01*
Y196526D01*
Y196571D01*
Y196615D01*
Y196659D01*
Y196704D01*
Y196748D01*
Y196792D01*
Y196836D01*
Y196881D01*
Y196925D01*
Y196969D01*
Y197013D01*
Y197058D01*
Y197102D01*
Y197146D01*
Y197191D01*
Y197235D01*
X200176D01*
Y197279D01*
Y197324D01*
Y197368D01*
Y197412D01*
Y197456D01*
Y197501D01*
Y197545D01*
Y197589D01*
Y197634D01*
Y197678D01*
Y197722D01*
Y197766D01*
Y197811D01*
Y197855D01*
Y197899D01*
Y197944D01*
Y197988D01*
Y198032D01*
Y198076D01*
Y198121D01*
Y198165D01*
Y198209D01*
Y198254D01*
Y198298D01*
Y198342D01*
Y198386D01*
Y198431D01*
Y198475D01*
Y198519D01*
Y198564D01*
Y198608D01*
Y198652D01*
Y198696D01*
Y198741D01*
Y198785D01*
Y198829D01*
Y198874D01*
Y198918D01*
Y198962D01*
Y199006D01*
Y199051D01*
Y199095D01*
Y199139D01*
Y199184D01*
Y199228D01*
Y199272D01*
Y199317D01*
Y199361D01*
Y199405D01*
Y199449D01*
Y199494D01*
Y199538D01*
Y199582D01*
Y199627D01*
Y199671D01*
Y199715D01*
Y199759D01*
Y199804D01*
Y199848D01*
Y199892D01*
Y199937D01*
Y199981D01*
Y200025D01*
Y200069D01*
Y200114D01*
Y200158D01*
Y200202D01*
Y200247D01*
Y200291D01*
Y200335D01*
Y200379D01*
Y200424D01*
Y200468D01*
Y200512D01*
Y200557D01*
Y200601D01*
Y200645D01*
Y200690D01*
X197873D01*
Y200734D01*
Y200778D01*
Y200822D01*
Y200867D01*
Y200911D01*
Y200955D01*
Y200999D01*
Y201044D01*
Y201088D01*
Y201132D01*
Y201177D01*
Y201221D01*
Y201265D01*
Y201309D01*
Y201354D01*
Y201398D01*
Y201442D01*
Y201487D01*
Y201531D01*
Y201575D01*
Y201620D01*
Y201664D01*
Y201708D01*
Y201752D01*
Y201797D01*
Y201841D01*
X200176D01*
Y201797D01*
Y201752D01*
Y201708D01*
Y201664D01*
Y201620D01*
Y201575D01*
Y201531D01*
Y201487D01*
Y201442D01*
Y201398D01*
Y201354D01*
Y201309D01*
Y201265D01*
Y201221D01*
Y201177D01*
Y201132D01*
Y201088D01*
Y201044D01*
Y200999D01*
Y200955D01*
Y200911D01*
Y200867D01*
Y200822D01*
Y200778D01*
Y200734D01*
Y200690D01*
X201328D01*
Y200645D01*
Y200601D01*
Y200557D01*
Y200512D01*
Y200468D01*
Y200424D01*
Y200379D01*
Y200335D01*
Y200291D01*
Y200247D01*
Y200202D01*
Y200158D01*
Y200114D01*
Y200069D01*
Y200025D01*
Y199981D01*
Y199937D01*
Y199892D01*
Y199848D01*
Y199804D01*
Y199759D01*
Y199715D01*
Y199671D01*
Y199627D01*
Y199582D01*
Y199538D01*
Y199494D01*
Y199449D01*
Y199405D01*
Y199361D01*
Y199317D01*
Y199272D01*
Y199228D01*
Y199184D01*
Y199139D01*
Y199095D01*
Y199051D01*
Y199006D01*
Y198962D01*
Y198918D01*
Y198874D01*
Y198829D01*
Y198785D01*
Y198741D01*
Y198696D01*
Y198652D01*
Y198608D01*
Y198564D01*
Y198519D01*
Y198475D01*
Y198431D01*
Y198386D01*
X203631D01*
Y198431D01*
Y198475D01*
Y198519D01*
Y198564D01*
Y198608D01*
Y198652D01*
Y198696D01*
Y198741D01*
Y198785D01*
Y198829D01*
Y198874D01*
Y198918D01*
Y198962D01*
Y199006D01*
Y199051D01*
Y199095D01*
Y199139D01*
Y199184D01*
Y199228D01*
Y199272D01*
Y199317D01*
Y199361D01*
Y199405D01*
Y199449D01*
Y199494D01*
Y199538D01*
Y199582D01*
Y199627D01*
Y199671D01*
Y199715D01*
Y199759D01*
Y199804D01*
Y199848D01*
Y199892D01*
Y199937D01*
Y199981D01*
Y200025D01*
Y200069D01*
Y200114D01*
Y200158D01*
Y200202D01*
Y200247D01*
Y200291D01*
Y200335D01*
Y200379D01*
Y200424D01*
Y200468D01*
Y200512D01*
Y200557D01*
Y200601D01*
Y200645D01*
Y200690D01*
X201328D01*
Y200734D01*
Y200778D01*
Y200822D01*
Y200867D01*
Y200911D01*
Y200955D01*
Y200999D01*
Y201044D01*
Y201088D01*
Y201132D01*
Y201177D01*
Y201221D01*
Y201265D01*
Y201309D01*
Y201354D01*
Y201398D01*
Y201442D01*
Y201487D01*
Y201531D01*
Y201575D01*
Y201620D01*
Y201664D01*
Y201708D01*
Y201752D01*
Y201797D01*
Y201841D01*
Y201885D01*
Y201930D01*
Y201974D01*
Y202018D01*
Y202062D01*
Y202107D01*
Y202151D01*
Y202195D01*
Y202240D01*
Y202284D01*
Y202328D01*
Y202373D01*
Y202417D01*
Y202461D01*
Y202505D01*
Y202550D01*
Y202594D01*
Y202638D01*
Y202682D01*
Y202727D01*
Y202771D01*
Y202815D01*
Y202860D01*
Y202904D01*
Y202948D01*
Y202993D01*
X197873D01*
Y203037D01*
Y203081D01*
Y203125D01*
Y203170D01*
Y203214D01*
Y203258D01*
Y203303D01*
Y203347D01*
Y203391D01*
Y203435D01*
Y203480D01*
Y203524D01*
Y203568D01*
Y203613D01*
Y203657D01*
Y203701D01*
Y203745D01*
Y203790D01*
Y203834D01*
Y203878D01*
Y203923D01*
Y203967D01*
Y204011D01*
Y204055D01*
Y204100D01*
Y204144D01*
X195570D01*
Y204100D01*
Y204055D01*
Y204011D01*
Y203967D01*
Y203923D01*
Y203878D01*
Y203834D01*
Y203790D01*
Y203745D01*
Y203701D01*
Y203657D01*
Y203613D01*
Y203568D01*
Y203524D01*
Y203480D01*
Y203435D01*
Y203391D01*
Y203347D01*
Y203303D01*
Y203258D01*
Y203214D01*
Y203170D01*
Y203125D01*
Y203081D01*
Y203037D01*
Y202993D01*
Y202948D01*
Y202904D01*
Y202860D01*
Y202815D01*
Y202771D01*
Y202727D01*
Y202682D01*
Y202638D01*
Y202594D01*
Y202550D01*
Y202505D01*
Y202461D01*
Y202417D01*
Y202373D01*
Y202328D01*
Y202284D01*
Y202240D01*
Y202195D01*
Y202151D01*
Y202107D01*
Y202062D01*
Y202018D01*
Y201974D01*
Y201930D01*
Y201885D01*
Y201841D01*
X196722D01*
Y201797D01*
Y201752D01*
Y201708D01*
Y201664D01*
Y201620D01*
Y201575D01*
Y201531D01*
Y201487D01*
Y201442D01*
Y201398D01*
Y201354D01*
Y201309D01*
Y201265D01*
Y201221D01*
Y201177D01*
Y201132D01*
Y201088D01*
Y201044D01*
Y200999D01*
Y200955D01*
Y200911D01*
Y200867D01*
Y200822D01*
Y200778D01*
Y200734D01*
Y200690D01*
X197873D01*
Y200645D01*
Y200601D01*
Y200557D01*
Y200512D01*
Y200468D01*
Y200424D01*
Y200379D01*
Y200335D01*
Y200291D01*
Y200247D01*
Y200202D01*
Y200158D01*
Y200114D01*
Y200069D01*
Y200025D01*
Y199981D01*
Y199937D01*
Y199892D01*
Y199848D01*
Y199804D01*
Y199759D01*
Y199715D01*
Y199671D01*
Y199627D01*
Y199582D01*
Y199538D01*
X196722D01*
Y199582D01*
Y199627D01*
Y199671D01*
Y199715D01*
Y199759D01*
Y199804D01*
Y199848D01*
Y199892D01*
Y199937D01*
Y199981D01*
Y200025D01*
Y200069D01*
Y200114D01*
Y200158D01*
Y200202D01*
Y200247D01*
Y200291D01*
Y200335D01*
Y200379D01*
Y200424D01*
Y200468D01*
Y200512D01*
Y200557D01*
Y200601D01*
Y200645D01*
Y200690D01*
X195570D01*
Y200645D01*
Y200601D01*
Y200557D01*
Y200512D01*
Y200468D01*
Y200424D01*
Y200379D01*
Y200335D01*
Y200291D01*
Y200247D01*
Y200202D01*
Y200158D01*
Y200114D01*
Y200069D01*
Y200025D01*
Y199981D01*
Y199937D01*
Y199892D01*
Y199848D01*
Y199804D01*
Y199759D01*
Y199715D01*
Y199671D01*
Y199627D01*
Y199582D01*
Y199538D01*
X192116D01*
Y199494D01*
Y199449D01*
Y199405D01*
Y199361D01*
Y199317D01*
Y199272D01*
Y199228D01*
Y199184D01*
Y199139D01*
Y199095D01*
Y199051D01*
Y199006D01*
Y198962D01*
Y198918D01*
Y198874D01*
Y198829D01*
Y198785D01*
Y198741D01*
Y198696D01*
Y198652D01*
Y198608D01*
Y198564D01*
Y198519D01*
Y198475D01*
Y198431D01*
Y198386D01*
X193267D01*
Y198342D01*
Y198298D01*
Y198254D01*
Y198209D01*
Y198165D01*
Y198121D01*
Y198076D01*
Y198032D01*
Y197988D01*
Y197944D01*
Y197899D01*
Y197855D01*
Y197811D01*
Y197766D01*
Y197722D01*
Y197678D01*
Y197634D01*
Y197589D01*
Y197545D01*
Y197501D01*
Y197456D01*
Y197412D01*
Y197368D01*
Y197324D01*
Y197279D01*
Y197235D01*
X194419D01*
Y197279D01*
Y197324D01*
Y197368D01*
Y197412D01*
Y197456D01*
Y197501D01*
Y197545D01*
Y197589D01*
Y197634D01*
Y197678D01*
Y197722D01*
Y197766D01*
Y197811D01*
Y197855D01*
Y197899D01*
Y197944D01*
Y197988D01*
Y198032D01*
Y198076D01*
Y198121D01*
Y198165D01*
Y198209D01*
Y198254D01*
Y198298D01*
Y198342D01*
Y198386D01*
X197873D01*
Y198342D01*
Y198298D01*
Y198254D01*
Y198209D01*
Y198165D01*
Y198121D01*
Y198076D01*
Y198032D01*
Y197988D01*
Y197944D01*
Y197899D01*
Y197855D01*
Y197811D01*
Y197766D01*
Y197722D01*
Y197678D01*
Y197634D01*
Y197589D01*
Y197545D01*
Y197501D01*
Y197456D01*
Y197412D01*
Y197368D01*
Y197324D01*
Y197279D01*
Y197235D01*
X195570D01*
Y197191D01*
Y197146D01*
Y197102D01*
Y197058D01*
Y197013D01*
Y196969D01*
Y196925D01*
Y196881D01*
Y196836D01*
Y196792D01*
Y196748D01*
Y196704D01*
Y196659D01*
Y196615D01*
Y196571D01*
Y196526D01*
Y196482D01*
Y196438D01*
Y196393D01*
Y196349D01*
Y196305D01*
Y196261D01*
Y196216D01*
Y196172D01*
Y196128D01*
Y196083D01*
X197873D01*
Y196039D01*
Y195995D01*
Y195950D01*
Y195906D01*
Y195862D01*
Y195818D01*
Y195773D01*
Y195729D01*
Y195685D01*
Y195641D01*
Y195596D01*
Y195552D01*
Y195508D01*
Y195463D01*
Y195419D01*
Y195375D01*
Y195331D01*
Y195286D01*
Y195242D01*
Y195198D01*
Y195153D01*
Y195109D01*
Y195065D01*
Y195020D01*
Y194976D01*
Y194932D01*
X195570D01*
Y194976D01*
Y195020D01*
Y195065D01*
Y195109D01*
Y195153D01*
Y195198D01*
Y195242D01*
Y195286D01*
Y195331D01*
Y195375D01*
Y195419D01*
Y195463D01*
Y195508D01*
Y195552D01*
Y195596D01*
Y195641D01*
Y195685D01*
Y195729D01*
Y195773D01*
Y195818D01*
Y195862D01*
Y195906D01*
Y195950D01*
Y195995D01*
Y196039D01*
Y196083D01*
X193267D01*
Y196039D01*
Y195995D01*
Y195950D01*
Y195906D01*
Y195862D01*
Y195818D01*
Y195773D01*
Y195729D01*
Y195685D01*
Y195641D01*
Y195596D01*
Y195552D01*
Y195508D01*
Y195463D01*
Y195419D01*
Y195375D01*
Y195331D01*
Y195286D01*
Y195242D01*
Y195198D01*
Y195153D01*
Y195109D01*
Y195065D01*
Y195020D01*
Y194976D01*
Y194932D01*
Y194888D01*
Y194843D01*
Y194799D01*
Y194755D01*
Y194711D01*
Y194666D01*
Y194622D01*
Y194578D01*
Y194533D01*
Y194489D01*
Y194445D01*
Y194400D01*
Y194356D01*
Y194312D01*
Y194268D01*
Y194223D01*
Y194179D01*
Y194135D01*
Y194090D01*
Y194046D01*
Y194002D01*
Y193957D01*
Y193913D01*
Y193869D01*
Y193825D01*
Y193780D01*
X197873D01*
Y193736D01*
Y193692D01*
Y193648D01*
Y193603D01*
Y193559D01*
Y193515D01*
Y193470D01*
Y193426D01*
Y193382D01*
Y193338D01*
Y193293D01*
Y193249D01*
Y193205D01*
Y193160D01*
Y193116D01*
Y193072D01*
Y193027D01*
Y192983D01*
Y192939D01*
Y192895D01*
Y192850D01*
Y192806D01*
Y192762D01*
Y192718D01*
Y192673D01*
Y192629D01*
X194419D01*
Y192585D01*
Y192540D01*
Y192496D01*
Y192452D01*
Y192407D01*
Y192363D01*
Y192319D01*
Y192275D01*
Y192230D01*
Y192186D01*
Y192142D01*
Y192097D01*
Y192053D01*
Y192009D01*
Y191964D01*
Y191920D01*
Y191876D01*
Y191832D01*
Y191787D01*
Y191743D01*
Y191699D01*
Y191655D01*
Y191610D01*
Y191566D01*
Y191522D01*
Y191477D01*
Y191433D01*
Y191389D01*
Y191344D01*
Y191300D01*
Y191256D01*
Y191212D01*
Y191167D01*
Y191123D01*
Y191079D01*
Y191034D01*
Y190990D01*
Y190946D01*
Y190902D01*
Y190857D01*
Y190813D01*
Y190769D01*
Y190724D01*
Y190680D01*
Y190636D01*
Y190592D01*
Y190547D01*
Y190503D01*
Y190459D01*
Y190414D01*
Y190370D01*
Y190326D01*
Y190281D01*
Y190237D01*
Y190193D01*
Y190149D01*
Y190104D01*
Y190060D01*
Y190016D01*
Y189971D01*
Y189927D01*
Y189883D01*
Y189839D01*
Y189794D01*
Y189750D01*
Y189706D01*
Y189662D01*
Y189617D01*
Y189573D01*
Y189529D01*
Y189484D01*
Y189440D01*
Y189396D01*
Y189351D01*
Y189307D01*
Y189263D01*
Y189219D01*
Y189174D01*
Y189130D01*
Y189086D01*
Y189041D01*
Y188997D01*
Y188953D01*
Y188909D01*
Y188864D01*
Y188820D01*
Y188776D01*
Y188731D01*
Y188687D01*
Y188643D01*
Y188599D01*
Y188554D01*
Y188510D01*
Y188466D01*
Y188421D01*
Y188377D01*
Y188333D01*
Y188289D01*
Y188244D01*
Y188200D01*
Y188156D01*
Y188111D01*
Y188067D01*
Y188023D01*
Y187978D01*
Y187934D01*
Y187890D01*
Y187846D01*
Y187801D01*
Y187757D01*
Y187713D01*
Y187669D01*
Y187624D01*
Y187580D01*
Y187536D01*
Y187491D01*
Y187447D01*
Y187403D01*
Y187358D01*
Y187314D01*
Y187270D01*
Y187226D01*
Y187181D01*
Y187137D01*
Y187093D01*
Y187048D01*
Y187004D01*
Y186960D01*
Y186916D01*
Y186871D01*
Y186827D01*
Y186783D01*
Y186738D01*
Y186694D01*
Y186650D01*
Y186606D01*
Y186561D01*
Y186517D01*
Y186473D01*
Y186428D01*
Y186384D01*
Y186340D01*
Y186295D01*
Y186251D01*
Y186207D01*
Y186163D01*
Y186118D01*
Y186074D01*
Y186030D01*
Y185986D01*
Y185941D01*
Y185897D01*
Y185853D01*
Y185808D01*
Y185764D01*
Y185720D01*
X195570D01*
Y185676D01*
Y185631D01*
Y185587D01*
Y185543D01*
Y185498D01*
Y185454D01*
Y185410D01*
Y185365D01*
Y185321D01*
Y185277D01*
Y185233D01*
Y185188D01*
Y185144D01*
Y185100D01*
Y185055D01*
Y185011D01*
Y184967D01*
Y184923D01*
Y184878D01*
Y184834D01*
Y184790D01*
Y184745D01*
Y184701D01*
Y184657D01*
Y184613D01*
Y184568D01*
X196722D01*
Y184524D01*
Y184480D01*
Y184435D01*
Y184391D01*
Y184347D01*
Y184302D01*
Y184258D01*
Y184214D01*
Y184170D01*
Y184125D01*
Y184081D01*
Y184037D01*
Y183993D01*
Y183948D01*
Y183904D01*
Y183860D01*
Y183815D01*
Y183771D01*
Y183727D01*
Y183683D01*
Y183638D01*
Y183594D01*
Y183550D01*
Y183505D01*
Y183461D01*
Y183417D01*
X195570D01*
Y183461D01*
Y183505D01*
Y183550D01*
Y183594D01*
Y183638D01*
Y183683D01*
Y183727D01*
Y183771D01*
Y183815D01*
Y183860D01*
Y183904D01*
Y183948D01*
Y183993D01*
Y184037D01*
Y184081D01*
Y184125D01*
Y184170D01*
Y184214D01*
Y184258D01*
Y184302D01*
Y184347D01*
Y184391D01*
Y184435D01*
Y184480D01*
Y184524D01*
Y184568D01*
X194419D01*
Y184613D01*
Y184657D01*
Y184701D01*
Y184745D01*
Y184790D01*
Y184834D01*
Y184878D01*
Y184923D01*
Y184967D01*
Y185011D01*
Y185055D01*
Y185100D01*
Y185144D01*
Y185188D01*
Y185233D01*
Y185277D01*
Y185321D01*
Y185365D01*
Y185410D01*
Y185454D01*
Y185498D01*
Y185543D01*
Y185587D01*
Y185631D01*
Y185676D01*
Y185720D01*
X193267D01*
Y185764D01*
Y185808D01*
Y185853D01*
Y185897D01*
Y185941D01*
Y185986D01*
Y186030D01*
Y186074D01*
Y186118D01*
Y186163D01*
Y186207D01*
Y186251D01*
Y186295D01*
Y186340D01*
Y186384D01*
Y186428D01*
Y186473D01*
Y186517D01*
Y186561D01*
Y186606D01*
Y186650D01*
Y186694D01*
Y186738D01*
Y186783D01*
Y186827D01*
Y186871D01*
X192116D01*
Y186916D01*
Y186960D01*
Y187004D01*
Y187048D01*
Y187093D01*
Y187137D01*
Y187181D01*
Y187226D01*
Y187270D01*
Y187314D01*
Y187358D01*
Y187403D01*
Y187447D01*
Y187491D01*
Y187536D01*
Y187580D01*
Y187624D01*
Y187669D01*
Y187713D01*
Y187757D01*
Y187801D01*
Y187846D01*
Y187890D01*
Y187934D01*
Y187978D01*
Y188023D01*
X193267D01*
Y188067D01*
Y188111D01*
Y188156D01*
Y188200D01*
Y188244D01*
Y188289D01*
Y188333D01*
Y188377D01*
Y188421D01*
Y188466D01*
Y188510D01*
Y188554D01*
Y188599D01*
Y188643D01*
Y188687D01*
Y188731D01*
Y188776D01*
Y188820D01*
Y188864D01*
Y188909D01*
Y188953D01*
Y188997D01*
Y189041D01*
Y189086D01*
Y189130D01*
Y189174D01*
X192116D01*
Y189219D01*
Y189263D01*
Y189307D01*
Y189351D01*
Y189396D01*
Y189440D01*
Y189484D01*
Y189529D01*
Y189573D01*
Y189617D01*
Y189662D01*
Y189706D01*
Y189750D01*
Y189794D01*
Y189839D01*
Y189883D01*
Y189927D01*
Y189971D01*
Y190016D01*
Y190060D01*
Y190104D01*
Y190149D01*
Y190193D01*
Y190237D01*
Y190281D01*
Y190326D01*
X189813D01*
Y190370D01*
Y190414D01*
Y190459D01*
Y190503D01*
Y190547D01*
Y190592D01*
Y190636D01*
Y190680D01*
Y190724D01*
Y190769D01*
Y190813D01*
Y190857D01*
Y190902D01*
Y190946D01*
Y190990D01*
Y191034D01*
Y191079D01*
Y191123D01*
Y191167D01*
Y191212D01*
Y191256D01*
Y191300D01*
Y191344D01*
Y191389D01*
Y191433D01*
Y191477D01*
X187510D01*
Y191522D01*
Y191566D01*
Y191610D01*
Y191655D01*
Y191699D01*
Y191743D01*
Y191787D01*
Y191832D01*
Y191876D01*
Y191920D01*
Y191964D01*
Y192009D01*
Y192053D01*
Y192097D01*
Y192142D01*
Y192186D01*
Y192230D01*
Y192275D01*
Y192319D01*
Y192363D01*
Y192407D01*
Y192452D01*
Y192496D01*
Y192540D01*
Y192585D01*
Y192629D01*
Y192673D01*
Y192718D01*
Y192762D01*
Y192806D01*
Y192850D01*
Y192895D01*
Y192939D01*
Y192983D01*
Y193027D01*
Y193072D01*
Y193116D01*
Y193160D01*
Y193205D01*
Y193249D01*
Y193293D01*
Y193338D01*
Y193382D01*
Y193426D01*
Y193470D01*
Y193515D01*
Y193559D01*
Y193603D01*
Y193648D01*
Y193692D01*
Y193736D01*
Y193780D01*
X186358D01*
Y193825D01*
Y193869D01*
Y193913D01*
Y193957D01*
Y194002D01*
Y194046D01*
Y194090D01*
Y194135D01*
Y194179D01*
Y194223D01*
Y194268D01*
Y194312D01*
Y194356D01*
Y194400D01*
Y194445D01*
Y194489D01*
Y194533D01*
Y194578D01*
Y194622D01*
Y194666D01*
Y194711D01*
Y194755D01*
Y194799D01*
Y194843D01*
Y194888D01*
Y194932D01*
X185207D01*
Y194976D01*
Y195020D01*
Y195065D01*
Y195109D01*
Y195153D01*
Y195198D01*
Y195242D01*
Y195286D01*
Y195331D01*
Y195375D01*
Y195419D01*
Y195463D01*
Y195508D01*
Y195552D01*
Y195596D01*
Y195641D01*
Y195685D01*
Y195729D01*
Y195773D01*
Y195818D01*
Y195862D01*
Y195906D01*
Y195950D01*
Y195995D01*
Y196039D01*
Y196083D01*
X184055D01*
Y196039D01*
Y195995D01*
Y195950D01*
Y195906D01*
Y195862D01*
Y195818D01*
Y195773D01*
Y195729D01*
Y195685D01*
Y195641D01*
Y195596D01*
Y195552D01*
Y195508D01*
Y195463D01*
Y195419D01*
Y195375D01*
Y195331D01*
Y195286D01*
Y195242D01*
Y195198D01*
Y195153D01*
Y195109D01*
Y195065D01*
Y195020D01*
Y194976D01*
Y194932D01*
Y194888D01*
Y194843D01*
Y194799D01*
Y194755D01*
Y194711D01*
Y194666D01*
Y194622D01*
Y194578D01*
Y194533D01*
Y194489D01*
Y194445D01*
Y194400D01*
Y194356D01*
Y194312D01*
Y194268D01*
Y194223D01*
Y194179D01*
Y194135D01*
Y194090D01*
Y194046D01*
Y194002D01*
Y193957D01*
Y193913D01*
Y193869D01*
Y193825D01*
Y193780D01*
X186358D01*
Y193736D01*
Y193692D01*
Y193648D01*
Y193603D01*
Y193559D01*
Y193515D01*
Y193470D01*
Y193426D01*
Y193382D01*
Y193338D01*
Y193293D01*
Y193249D01*
Y193205D01*
Y193160D01*
Y193116D01*
Y193072D01*
Y193027D01*
Y192983D01*
Y192939D01*
Y192895D01*
Y192850D01*
Y192806D01*
Y192762D01*
Y192718D01*
Y192673D01*
Y192629D01*
X185207D01*
Y192585D01*
Y192540D01*
Y192496D01*
Y192452D01*
Y192407D01*
Y192363D01*
Y192319D01*
Y192275D01*
Y192230D01*
Y192186D01*
Y192142D01*
Y192097D01*
Y192053D01*
Y192009D01*
Y191964D01*
Y191920D01*
Y191876D01*
Y191832D01*
Y191787D01*
Y191743D01*
Y191699D01*
Y191655D01*
Y191610D01*
Y191566D01*
Y191522D01*
Y191477D01*
X186358D01*
Y191433D01*
Y191389D01*
Y191344D01*
Y191300D01*
Y191256D01*
Y191212D01*
Y191167D01*
Y191123D01*
Y191079D01*
Y191034D01*
Y190990D01*
Y190946D01*
Y190902D01*
Y190857D01*
Y190813D01*
Y190769D01*
Y190724D01*
Y190680D01*
Y190636D01*
Y190592D01*
Y190547D01*
Y190503D01*
Y190459D01*
Y190414D01*
Y190370D01*
Y190326D01*
X185207D01*
Y190370D01*
Y190414D01*
Y190459D01*
Y190503D01*
Y190547D01*
Y190592D01*
Y190636D01*
Y190680D01*
Y190724D01*
Y190769D01*
Y190813D01*
Y190857D01*
Y190902D01*
Y190946D01*
Y190990D01*
Y191034D01*
Y191079D01*
Y191123D01*
Y191167D01*
Y191212D01*
Y191256D01*
Y191300D01*
Y191344D01*
Y191389D01*
Y191433D01*
Y191477D01*
X184055D01*
Y191522D01*
Y191566D01*
Y191610D01*
Y191655D01*
Y191699D01*
Y191743D01*
Y191787D01*
Y191832D01*
Y191876D01*
Y191920D01*
Y191964D01*
Y192009D01*
Y192053D01*
Y192097D01*
Y192142D01*
Y192186D01*
Y192230D01*
Y192275D01*
Y192319D01*
Y192363D01*
Y192407D01*
Y192452D01*
Y192496D01*
Y192540D01*
Y192585D01*
Y192629D01*
Y192673D01*
Y192718D01*
Y192762D01*
Y192806D01*
Y192850D01*
Y192895D01*
Y192939D01*
Y192983D01*
Y193027D01*
Y193072D01*
Y193116D01*
Y193160D01*
Y193205D01*
Y193249D01*
Y193293D01*
Y193338D01*
Y193382D01*
Y193426D01*
Y193470D01*
Y193515D01*
Y193559D01*
Y193603D01*
Y193648D01*
Y193692D01*
Y193736D01*
Y193780D01*
X182904D01*
Y193825D01*
Y193869D01*
Y193913D01*
Y193957D01*
Y194002D01*
Y194046D01*
Y194090D01*
Y194135D01*
Y194179D01*
Y194223D01*
Y194268D01*
Y194312D01*
Y194356D01*
Y194400D01*
Y194445D01*
Y194489D01*
Y194533D01*
Y194578D01*
Y194622D01*
Y194666D01*
Y194711D01*
Y194755D01*
Y194799D01*
Y194843D01*
Y194888D01*
Y194932D01*
Y194976D01*
Y195020D01*
Y195065D01*
Y195109D01*
Y195153D01*
Y195198D01*
Y195242D01*
Y195286D01*
Y195331D01*
Y195375D01*
Y195419D01*
Y195463D01*
Y195508D01*
Y195552D01*
Y195596D01*
Y195641D01*
Y195685D01*
Y195729D01*
Y195773D01*
Y195818D01*
Y195862D01*
Y195906D01*
Y195950D01*
Y195995D01*
Y196039D01*
Y196083D01*
X181752D01*
Y196128D01*
Y196172D01*
Y196216D01*
Y196261D01*
Y196305D01*
Y196349D01*
Y196393D01*
Y196438D01*
Y196482D01*
Y196526D01*
Y196571D01*
Y196615D01*
Y196659D01*
Y196704D01*
Y196748D01*
Y196792D01*
Y196836D01*
Y196881D01*
Y196925D01*
Y196969D01*
Y197013D01*
Y197058D01*
Y197102D01*
Y197146D01*
Y197191D01*
Y197235D01*
Y197279D01*
Y197324D01*
Y197368D01*
Y197412D01*
Y197456D01*
Y197501D01*
Y197545D01*
Y197589D01*
Y197634D01*
Y197678D01*
Y197722D01*
Y197766D01*
Y197811D01*
Y197855D01*
Y197899D01*
Y197944D01*
Y197988D01*
Y198032D01*
Y198076D01*
Y198121D01*
Y198165D01*
Y198209D01*
Y198254D01*
Y198298D01*
Y198342D01*
Y198386D01*
X180601D01*
Y198431D01*
Y198475D01*
Y198519D01*
Y198564D01*
Y198608D01*
Y198652D01*
Y198696D01*
Y198741D01*
Y198785D01*
Y198829D01*
Y198874D01*
Y198918D01*
Y198962D01*
Y199006D01*
Y199051D01*
Y199095D01*
Y199139D01*
Y199184D01*
Y199228D01*
Y199272D01*
Y199317D01*
Y199361D01*
Y199405D01*
Y199449D01*
Y199494D01*
Y199538D01*
X178297D01*
Y199582D01*
Y199627D01*
Y199671D01*
Y199715D01*
Y199759D01*
Y199804D01*
Y199848D01*
Y199892D01*
Y199937D01*
Y199981D01*
Y200025D01*
Y200069D01*
Y200114D01*
Y200158D01*
Y200202D01*
Y200247D01*
Y200291D01*
Y200335D01*
Y200379D01*
Y200424D01*
Y200468D01*
Y200512D01*
Y200557D01*
Y200601D01*
Y200645D01*
Y200690D01*
Y200734D01*
Y200778D01*
Y200822D01*
Y200867D01*
Y200911D01*
Y200955D01*
Y200999D01*
Y201044D01*
Y201088D01*
Y201132D01*
Y201177D01*
Y201221D01*
Y201265D01*
Y201309D01*
Y201354D01*
Y201398D01*
Y201442D01*
Y201487D01*
Y201531D01*
Y201575D01*
Y201620D01*
Y201664D01*
Y201708D01*
Y201752D01*
Y201797D01*
Y201841D01*
X179449D01*
Y201885D01*
Y201930D01*
Y201974D01*
Y202018D01*
Y202062D01*
Y202107D01*
Y202151D01*
Y202195D01*
Y202240D01*
Y202284D01*
Y202328D01*
Y202373D01*
Y202417D01*
Y202461D01*
Y202505D01*
Y202550D01*
Y202594D01*
Y202638D01*
Y202682D01*
Y202727D01*
Y202771D01*
Y202815D01*
Y202860D01*
Y202904D01*
Y202948D01*
Y202993D01*
Y203037D01*
Y203081D01*
Y203125D01*
Y203170D01*
Y203214D01*
Y203258D01*
Y203303D01*
Y203347D01*
Y203391D01*
Y203435D01*
Y203480D01*
Y203524D01*
Y203568D01*
Y203613D01*
Y203657D01*
Y203701D01*
Y203745D01*
Y203790D01*
Y203834D01*
Y203878D01*
Y203923D01*
Y203967D01*
Y204011D01*
Y204055D01*
Y204100D01*
Y204144D01*
X178297D01*
Y204188D01*
Y204233D01*
Y204277D01*
Y204321D01*
Y204365D01*
Y204410D01*
Y204454D01*
Y204498D01*
Y204543D01*
Y204587D01*
Y204631D01*
Y204676D01*
Y204720D01*
Y204764D01*
Y204808D01*
Y204853D01*
Y204897D01*
Y204941D01*
Y204985D01*
Y205030D01*
Y205074D01*
Y205118D01*
Y205163D01*
Y205207D01*
Y205251D01*
Y205295D01*
X179449D01*
Y205251D01*
Y205207D01*
Y205163D01*
Y205118D01*
Y205074D01*
Y205030D01*
Y204985D01*
Y204941D01*
Y204897D01*
Y204853D01*
Y204808D01*
Y204764D01*
Y204720D01*
Y204676D01*
Y204631D01*
Y204587D01*
Y204543D01*
Y204498D01*
Y204454D01*
Y204410D01*
Y204365D01*
Y204321D01*
Y204277D01*
Y204233D01*
Y204188D01*
Y204144D01*
X180601D01*
Y204100D01*
Y204055D01*
Y204011D01*
Y203967D01*
Y203923D01*
Y203878D01*
Y203834D01*
Y203790D01*
Y203745D01*
Y203701D01*
Y203657D01*
Y203613D01*
Y203568D01*
Y203524D01*
Y203480D01*
Y203435D01*
Y203391D01*
Y203347D01*
Y203303D01*
Y203258D01*
Y203214D01*
Y203170D01*
Y203125D01*
Y203081D01*
Y203037D01*
Y202993D01*
X181752D01*
Y203037D01*
Y203081D01*
Y203125D01*
Y203170D01*
Y203214D01*
Y203258D01*
Y203303D01*
Y203347D01*
Y203391D01*
Y203435D01*
Y203480D01*
Y203524D01*
Y203568D01*
Y203613D01*
Y203657D01*
Y203701D01*
Y203745D01*
Y203790D01*
Y203834D01*
Y203878D01*
Y203923D01*
Y203967D01*
Y204011D01*
Y204055D01*
Y204100D01*
Y204144D01*
Y204188D01*
Y204233D01*
Y204277D01*
Y204321D01*
Y204365D01*
Y204410D01*
Y204454D01*
Y204498D01*
Y204543D01*
Y204587D01*
Y204631D01*
Y204676D01*
Y204720D01*
Y204764D01*
Y204808D01*
Y204853D01*
Y204897D01*
Y204941D01*
Y204985D01*
Y205030D01*
Y205074D01*
Y205118D01*
Y205163D01*
Y205207D01*
Y205251D01*
Y205295D01*
X188661D01*
Y205340D01*
Y205384D01*
Y205428D01*
Y205473D01*
Y205517D01*
Y205561D01*
Y205606D01*
Y205650D01*
Y205694D01*
Y205738D01*
Y205783D01*
Y205827D01*
Y205871D01*
Y205916D01*
Y205960D01*
Y206004D01*
Y206048D01*
Y206093D01*
Y206137D01*
Y206181D01*
Y206226D01*
Y206270D01*
Y206314D01*
Y206359D01*
Y206403D01*
Y206447D01*
X187510D01*
Y206491D01*
Y206536D01*
Y206580D01*
Y206624D01*
Y206668D01*
Y206713D01*
Y206757D01*
Y206801D01*
Y206846D01*
Y206890D01*
Y206934D01*
Y206979D01*
Y207023D01*
Y207067D01*
Y207111D01*
Y207156D01*
Y207200D01*
Y207244D01*
Y207289D01*
Y207333D01*
Y207377D01*
Y207421D01*
Y207466D01*
Y207510D01*
Y207554D01*
Y207599D01*
X188661D01*
Y207554D01*
Y207510D01*
Y207466D01*
Y207421D01*
Y207377D01*
Y207333D01*
Y207289D01*
Y207244D01*
Y207200D01*
Y207156D01*
Y207111D01*
Y207067D01*
Y207023D01*
Y206979D01*
Y206934D01*
Y206890D01*
Y206846D01*
Y206801D01*
Y206757D01*
Y206713D01*
Y206668D01*
Y206624D01*
Y206580D01*
Y206536D01*
Y206491D01*
Y206447D01*
X189813D01*
Y206491D01*
Y206536D01*
Y206580D01*
Y206624D01*
Y206668D01*
Y206713D01*
Y206757D01*
Y206801D01*
Y206846D01*
Y206890D01*
Y206934D01*
Y206979D01*
Y207023D01*
Y207067D01*
Y207111D01*
Y207156D01*
Y207200D01*
Y207244D01*
Y207289D01*
Y207333D01*
Y207377D01*
Y207421D01*
Y207466D01*
Y207510D01*
Y207554D01*
Y207599D01*
Y207643D01*
Y207687D01*
Y207731D01*
Y207776D01*
Y207820D01*
Y207864D01*
Y207909D01*
Y207953D01*
Y207997D01*
Y208042D01*
Y208086D01*
Y208130D01*
Y208174D01*
Y208219D01*
Y208263D01*
Y208307D01*
Y208351D01*
Y208396D01*
Y208440D01*
Y208484D01*
Y208529D01*
Y208573D01*
Y208617D01*
Y208662D01*
Y208706D01*
Y208750D01*
X190964D01*
Y208706D01*
Y208662D01*
Y208617D01*
Y208573D01*
Y208529D01*
Y208484D01*
Y208440D01*
Y208396D01*
Y208351D01*
Y208307D01*
Y208263D01*
Y208219D01*
Y208174D01*
Y208130D01*
Y208086D01*
Y208042D01*
Y207997D01*
Y207953D01*
Y207909D01*
Y207864D01*
Y207820D01*
Y207776D01*
Y207731D01*
Y207687D01*
Y207643D01*
Y207599D01*
Y207554D01*
Y207510D01*
Y207466D01*
Y207421D01*
Y207377D01*
Y207333D01*
Y207289D01*
Y207244D01*
Y207200D01*
Y207156D01*
Y207111D01*
Y207067D01*
Y207023D01*
Y206979D01*
Y206934D01*
Y206890D01*
Y206846D01*
Y206801D01*
Y206757D01*
Y206713D01*
Y206668D01*
Y206624D01*
Y206580D01*
Y206536D01*
Y206491D01*
Y206447D01*
X192116D01*
Y206403D01*
Y206359D01*
Y206314D01*
Y206270D01*
Y206226D01*
Y206181D01*
Y206137D01*
Y206093D01*
Y206048D01*
Y206004D01*
Y205960D01*
Y205916D01*
Y205871D01*
Y205827D01*
Y205783D01*
Y205738D01*
Y205694D01*
Y205650D01*
Y205606D01*
Y205561D01*
Y205517D01*
Y205473D01*
Y205428D01*
Y205384D01*
Y205340D01*
Y205295D01*
X194419D01*
Y205340D01*
Y205384D01*
Y205428D01*
Y205473D01*
Y205517D01*
Y205561D01*
Y205606D01*
Y205650D01*
Y205694D01*
Y205738D01*
Y205783D01*
Y205827D01*
Y205871D01*
Y205916D01*
Y205960D01*
Y206004D01*
Y206048D01*
Y206093D01*
Y206137D01*
Y206181D01*
Y206226D01*
Y206270D01*
Y206314D01*
Y206359D01*
Y206403D01*
Y206447D01*
Y206491D01*
Y206536D01*
Y206580D01*
Y206624D01*
Y206668D01*
Y206713D01*
Y206757D01*
Y206801D01*
Y206846D01*
Y206890D01*
Y206934D01*
Y206979D01*
Y207023D01*
Y207067D01*
Y207111D01*
Y207156D01*
Y207200D01*
Y207244D01*
Y207289D01*
Y207333D01*
Y207377D01*
Y207421D01*
Y207466D01*
Y207510D01*
Y207554D01*
Y207599D01*
X193267D01*
Y207554D01*
Y207510D01*
Y207466D01*
Y207421D01*
Y207377D01*
Y207333D01*
Y207289D01*
Y207244D01*
Y207200D01*
Y207156D01*
Y207111D01*
Y207067D01*
Y207023D01*
Y206979D01*
Y206934D01*
Y206890D01*
Y206846D01*
Y206801D01*
Y206757D01*
Y206713D01*
Y206668D01*
Y206624D01*
Y206580D01*
Y206536D01*
Y206491D01*
Y206447D01*
X192116D01*
Y206491D01*
Y206536D01*
Y206580D01*
Y206624D01*
Y206668D01*
Y206713D01*
Y206757D01*
Y206801D01*
Y206846D01*
Y206890D01*
Y206934D01*
Y206979D01*
Y207023D01*
Y207067D01*
Y207111D01*
Y207156D01*
Y207200D01*
Y207244D01*
Y207289D01*
Y207333D01*
Y207377D01*
Y207421D01*
Y207466D01*
Y207510D01*
Y207554D01*
Y207599D01*
Y207643D01*
Y207687D01*
Y207731D01*
Y207776D01*
Y207820D01*
Y207864D01*
Y207909D01*
Y207953D01*
Y207997D01*
Y208042D01*
Y208086D01*
Y208130D01*
Y208174D01*
Y208219D01*
Y208263D01*
Y208307D01*
Y208351D01*
Y208396D01*
Y208440D01*
Y208484D01*
Y208529D01*
Y208573D01*
Y208617D01*
Y208662D01*
Y208706D01*
Y208750D01*
Y208794D01*
Y208839D01*
Y208883D01*
Y208927D01*
Y208972D01*
Y209016D01*
Y209060D01*
Y209104D01*
Y209149D01*
Y209193D01*
Y209237D01*
Y209282D01*
Y209326D01*
Y209370D01*
Y209414D01*
Y209459D01*
Y209503D01*
Y209547D01*
Y209592D01*
Y209636D01*
Y209680D01*
Y209724D01*
Y209769D01*
Y209813D01*
Y209857D01*
Y209902D01*
Y209946D01*
Y209990D01*
Y210034D01*
Y210079D01*
Y210123D01*
Y210167D01*
Y210212D01*
Y210256D01*
Y210300D01*
Y210345D01*
Y210389D01*
Y210433D01*
Y210477D01*
Y210522D01*
Y210566D01*
Y210610D01*
Y210654D01*
Y210699D01*
Y210743D01*
Y210787D01*
Y210832D01*
Y210876D01*
Y210920D01*
Y210964D01*
Y211009D01*
Y211053D01*
Y211097D01*
Y211142D01*
Y211186D01*
Y211230D01*
Y211275D01*
Y211319D01*
Y211363D01*
Y211407D01*
Y211452D01*
Y211496D01*
Y211540D01*
Y211585D01*
Y211629D01*
Y211673D01*
Y211718D01*
Y211762D01*
Y211806D01*
Y211850D01*
Y211895D01*
Y211939D01*
Y211983D01*
Y212028D01*
Y212072D01*
Y212116D01*
Y212160D01*
Y212205D01*
X189813D01*
Y212249D01*
Y212293D01*
Y212337D01*
Y212382D01*
Y212426D01*
Y212470D01*
Y212515D01*
Y212559D01*
Y212603D01*
Y212648D01*
Y212692D01*
Y212736D01*
Y212780D01*
Y212825D01*
Y212869D01*
Y212913D01*
Y212958D01*
Y213002D01*
Y213046D01*
Y213090D01*
Y213135D01*
Y213179D01*
Y213223D01*
Y213268D01*
Y213312D01*
Y213356D01*
X188661D01*
Y213312D01*
Y213268D01*
Y213223D01*
Y213179D01*
Y213135D01*
Y213090D01*
Y213046D01*
Y213002D01*
Y212958D01*
Y212913D01*
Y212869D01*
Y212825D01*
Y212780D01*
Y212736D01*
Y212692D01*
Y212648D01*
Y212603D01*
Y212559D01*
Y212515D01*
Y212470D01*
Y212426D01*
Y212382D01*
Y212337D01*
Y212293D01*
Y212249D01*
Y212205D01*
Y212160D01*
Y212116D01*
Y212072D01*
Y212028D01*
Y211983D01*
Y211939D01*
Y211895D01*
Y211850D01*
Y211806D01*
Y211762D01*
Y211718D01*
Y211673D01*
Y211629D01*
Y211585D01*
Y211540D01*
Y211496D01*
Y211452D01*
Y211407D01*
Y211363D01*
Y211319D01*
Y211275D01*
Y211230D01*
Y211186D01*
Y211142D01*
Y211097D01*
Y211053D01*
X190964D01*
Y211009D01*
Y210964D01*
Y210920D01*
Y210876D01*
Y210832D01*
Y210787D01*
Y210743D01*
Y210699D01*
Y210654D01*
Y210610D01*
Y210566D01*
Y210522D01*
Y210477D01*
Y210433D01*
Y210389D01*
Y210345D01*
Y210300D01*
Y210256D01*
Y210212D01*
Y210167D01*
Y210123D01*
Y210079D01*
Y210034D01*
Y209990D01*
Y209946D01*
Y209902D01*
X188661D01*
Y209946D01*
Y209990D01*
Y210034D01*
Y210079D01*
Y210123D01*
Y210167D01*
Y210212D01*
Y210256D01*
Y210300D01*
Y210345D01*
Y210389D01*
Y210433D01*
Y210477D01*
Y210522D01*
Y210566D01*
Y210610D01*
Y210654D01*
Y210699D01*
Y210743D01*
Y210787D01*
Y210832D01*
Y210876D01*
Y210920D01*
Y210964D01*
Y211009D01*
Y211053D01*
X187510D01*
Y211097D01*
Y211142D01*
Y211186D01*
Y211230D01*
Y211275D01*
Y211319D01*
Y211363D01*
Y211407D01*
Y211452D01*
Y211496D01*
Y211540D01*
Y211585D01*
Y211629D01*
Y211673D01*
Y211718D01*
Y211762D01*
Y211806D01*
Y211850D01*
Y211895D01*
Y211939D01*
Y211983D01*
Y212028D01*
Y212072D01*
Y212116D01*
Y212160D01*
Y212205D01*
Y212249D01*
Y212293D01*
Y212337D01*
Y212382D01*
Y212426D01*
Y212470D01*
Y212515D01*
Y212559D01*
Y212603D01*
Y212648D01*
Y212692D01*
Y212736D01*
Y212780D01*
Y212825D01*
Y212869D01*
Y212913D01*
Y212958D01*
Y213002D01*
Y213046D01*
Y213090D01*
Y213135D01*
Y213179D01*
Y213223D01*
Y213268D01*
Y213312D01*
Y213356D01*
Y213400D01*
Y213445D01*
Y213489D01*
Y213533D01*
Y213578D01*
Y213622D01*
Y213666D01*
Y213710D01*
Y213755D01*
Y213799D01*
Y213843D01*
Y213888D01*
Y213932D01*
Y213976D01*
Y214020D01*
Y214065D01*
Y214109D01*
Y214153D01*
Y214198D01*
Y214242D01*
Y214286D01*
Y214331D01*
Y214375D01*
Y214419D01*
Y214463D01*
Y214508D01*
X192116D01*
Y214463D01*
Y214419D01*
Y214375D01*
Y214331D01*
Y214286D01*
Y214242D01*
Y214198D01*
Y214153D01*
Y214109D01*
Y214065D01*
Y214020D01*
Y213976D01*
Y213932D01*
Y213888D01*
Y213843D01*
Y213799D01*
Y213755D01*
Y213710D01*
Y213666D01*
Y213622D01*
Y213578D01*
Y213533D01*
Y213489D01*
Y213445D01*
Y213400D01*
Y213356D01*
Y213312D01*
Y213268D01*
Y213223D01*
Y213179D01*
Y213135D01*
Y213090D01*
Y213046D01*
Y213002D01*
Y212958D01*
Y212913D01*
Y212869D01*
Y212825D01*
Y212780D01*
Y212736D01*
Y212692D01*
Y212648D01*
Y212603D01*
Y212559D01*
Y212515D01*
Y212470D01*
Y212426D01*
Y212382D01*
Y212337D01*
Y212293D01*
Y212249D01*
Y212205D01*
X193267D01*
Y212249D01*
Y212293D01*
Y212337D01*
Y212382D01*
Y212426D01*
Y212470D01*
Y212515D01*
Y212559D01*
Y212603D01*
Y212648D01*
Y212692D01*
Y212736D01*
Y212780D01*
Y212825D01*
Y212869D01*
Y212913D01*
Y212958D01*
Y213002D01*
Y213046D01*
Y213090D01*
Y213135D01*
Y213179D01*
Y213223D01*
Y213268D01*
Y213312D01*
Y213356D01*
Y213400D01*
Y213445D01*
Y213489D01*
Y213533D01*
Y213578D01*
Y213622D01*
Y213666D01*
Y213710D01*
Y213755D01*
Y213799D01*
Y213843D01*
Y213888D01*
Y213932D01*
Y213976D01*
Y214020D01*
Y214065D01*
Y214109D01*
Y214153D01*
Y214198D01*
Y214242D01*
Y214286D01*
Y214331D01*
Y214375D01*
Y214419D01*
Y214463D01*
Y214508D01*
X196722D01*
Y214463D01*
D02*
G37*
G36*
X201328D02*
Y214419D01*
Y214375D01*
Y214331D01*
Y214286D01*
Y214242D01*
Y214198D01*
Y214153D01*
Y214109D01*
Y214065D01*
Y214020D01*
Y213976D01*
Y213932D01*
Y213888D01*
Y213843D01*
Y213799D01*
Y213755D01*
Y213710D01*
Y213666D01*
Y213622D01*
Y213578D01*
Y213533D01*
Y213489D01*
Y213445D01*
Y213400D01*
Y213356D01*
Y213312D01*
Y213268D01*
Y213223D01*
Y213179D01*
Y213135D01*
Y213090D01*
Y213046D01*
Y213002D01*
Y212958D01*
Y212913D01*
Y212869D01*
Y212825D01*
Y212780D01*
Y212736D01*
Y212692D01*
Y212648D01*
Y212603D01*
Y212559D01*
Y212515D01*
Y212470D01*
Y212426D01*
Y212382D01*
Y212337D01*
Y212293D01*
Y212249D01*
Y212205D01*
X202479D01*
Y212160D01*
Y212116D01*
Y212072D01*
Y212028D01*
Y211983D01*
Y211939D01*
Y211895D01*
Y211850D01*
Y211806D01*
Y211762D01*
Y211718D01*
Y211673D01*
Y211629D01*
Y211585D01*
Y211540D01*
Y211496D01*
Y211452D01*
Y211407D01*
Y211363D01*
Y211319D01*
Y211275D01*
Y211230D01*
Y211186D01*
Y211142D01*
Y211097D01*
Y211053D01*
Y211009D01*
Y210964D01*
Y210920D01*
Y210876D01*
Y210832D01*
Y210787D01*
Y210743D01*
Y210699D01*
Y210654D01*
Y210610D01*
Y210566D01*
Y210522D01*
Y210477D01*
Y210433D01*
Y210389D01*
Y210345D01*
Y210300D01*
Y210256D01*
Y210212D01*
Y210167D01*
Y210123D01*
Y210079D01*
Y210034D01*
Y209990D01*
Y209946D01*
Y209902D01*
X201328D01*
Y209857D01*
Y209813D01*
Y209769D01*
Y209724D01*
Y209680D01*
Y209636D01*
Y209592D01*
Y209547D01*
Y209503D01*
Y209459D01*
Y209414D01*
Y209370D01*
Y209326D01*
Y209282D01*
Y209237D01*
Y209193D01*
Y209149D01*
Y209104D01*
Y209060D01*
Y209016D01*
Y208972D01*
Y208927D01*
Y208883D01*
Y208839D01*
Y208794D01*
Y208750D01*
X200176D01*
Y208706D01*
Y208662D01*
Y208617D01*
Y208573D01*
Y208529D01*
Y208484D01*
Y208440D01*
Y208396D01*
Y208351D01*
Y208307D01*
Y208263D01*
Y208219D01*
Y208174D01*
Y208130D01*
Y208086D01*
Y208042D01*
Y207997D01*
Y207953D01*
Y207909D01*
Y207864D01*
Y207820D01*
Y207776D01*
Y207731D01*
Y207687D01*
Y207643D01*
Y207599D01*
Y207554D01*
Y207510D01*
Y207466D01*
Y207421D01*
Y207377D01*
Y207333D01*
Y207289D01*
Y207244D01*
Y207200D01*
Y207156D01*
Y207111D01*
Y207067D01*
Y207023D01*
Y206979D01*
Y206934D01*
Y206890D01*
Y206846D01*
Y206801D01*
Y206757D01*
Y206713D01*
Y206668D01*
Y206624D01*
Y206580D01*
Y206536D01*
Y206491D01*
Y206447D01*
X201328D01*
Y206491D01*
Y206536D01*
Y206580D01*
Y206624D01*
Y206668D01*
Y206713D01*
Y206757D01*
Y206801D01*
Y206846D01*
Y206890D01*
Y206934D01*
Y206979D01*
Y207023D01*
Y207067D01*
Y207111D01*
Y207156D01*
Y207200D01*
Y207244D01*
Y207289D01*
Y207333D01*
Y207377D01*
Y207421D01*
Y207466D01*
Y207510D01*
Y207554D01*
Y207599D01*
X202479D01*
Y207554D01*
Y207510D01*
Y207466D01*
Y207421D01*
Y207377D01*
Y207333D01*
Y207289D01*
Y207244D01*
Y207200D01*
Y207156D01*
Y207111D01*
Y207067D01*
Y207023D01*
Y206979D01*
Y206934D01*
Y206890D01*
Y206846D01*
Y206801D01*
Y206757D01*
Y206713D01*
Y206668D01*
Y206624D01*
Y206580D01*
Y206536D01*
Y206491D01*
Y206447D01*
Y206403D01*
Y206359D01*
Y206314D01*
Y206270D01*
Y206226D01*
Y206181D01*
Y206137D01*
Y206093D01*
Y206048D01*
Y206004D01*
Y205960D01*
Y205916D01*
Y205871D01*
Y205827D01*
Y205783D01*
Y205738D01*
Y205694D01*
Y205650D01*
Y205606D01*
Y205561D01*
Y205517D01*
Y205473D01*
Y205428D01*
Y205384D01*
Y205340D01*
Y205295D01*
X203631D01*
Y205251D01*
Y205207D01*
Y205163D01*
Y205118D01*
Y205074D01*
Y205030D01*
Y204985D01*
Y204941D01*
Y204897D01*
Y204853D01*
Y204808D01*
Y204764D01*
Y204720D01*
Y204676D01*
Y204631D01*
Y204587D01*
Y204543D01*
Y204498D01*
Y204454D01*
Y204410D01*
Y204365D01*
Y204321D01*
Y204277D01*
Y204233D01*
Y204188D01*
Y204144D01*
Y204100D01*
Y204055D01*
Y204011D01*
Y203967D01*
Y203923D01*
Y203878D01*
Y203834D01*
Y203790D01*
Y203745D01*
Y203701D01*
Y203657D01*
Y203613D01*
Y203568D01*
Y203524D01*
Y203480D01*
Y203435D01*
Y203391D01*
Y203347D01*
Y203303D01*
Y203258D01*
Y203214D01*
Y203170D01*
Y203125D01*
Y203081D01*
Y203037D01*
Y202993D01*
X202479D01*
Y203037D01*
Y203081D01*
Y203125D01*
Y203170D01*
Y203214D01*
Y203258D01*
Y203303D01*
Y203347D01*
Y203391D01*
Y203435D01*
Y203480D01*
Y203524D01*
Y203568D01*
Y203613D01*
Y203657D01*
Y203701D01*
Y203745D01*
Y203790D01*
Y203834D01*
Y203878D01*
Y203923D01*
Y203967D01*
Y204011D01*
Y204055D01*
Y204100D01*
Y204144D01*
Y204188D01*
Y204233D01*
Y204277D01*
Y204321D01*
Y204365D01*
Y204410D01*
Y204454D01*
Y204498D01*
Y204543D01*
Y204587D01*
Y204631D01*
Y204676D01*
Y204720D01*
Y204764D01*
Y204808D01*
Y204853D01*
Y204897D01*
Y204941D01*
Y204985D01*
Y205030D01*
Y205074D01*
Y205118D01*
Y205163D01*
Y205207D01*
Y205251D01*
Y205295D01*
X200176D01*
Y205340D01*
Y205384D01*
Y205428D01*
Y205473D01*
Y205517D01*
Y205561D01*
Y205606D01*
Y205650D01*
Y205694D01*
Y205738D01*
Y205783D01*
Y205827D01*
Y205871D01*
Y205916D01*
Y205960D01*
Y206004D01*
Y206048D01*
Y206093D01*
Y206137D01*
Y206181D01*
Y206226D01*
Y206270D01*
Y206314D01*
Y206359D01*
Y206403D01*
Y206447D01*
X199025D01*
Y206491D01*
Y206536D01*
Y206580D01*
Y206624D01*
Y206668D01*
Y206713D01*
Y206757D01*
Y206801D01*
Y206846D01*
Y206890D01*
Y206934D01*
Y206979D01*
Y207023D01*
Y207067D01*
Y207111D01*
Y207156D01*
Y207200D01*
Y207244D01*
Y207289D01*
Y207333D01*
Y207377D01*
Y207421D01*
Y207466D01*
Y207510D01*
Y207554D01*
Y207599D01*
X197873D01*
Y207643D01*
Y207687D01*
Y207731D01*
Y207776D01*
Y207820D01*
Y207864D01*
Y207909D01*
Y207953D01*
Y207997D01*
Y208042D01*
Y208086D01*
Y208130D01*
Y208174D01*
Y208219D01*
Y208263D01*
Y208307D01*
Y208351D01*
Y208396D01*
Y208440D01*
Y208484D01*
Y208529D01*
Y208573D01*
Y208617D01*
Y208662D01*
Y208706D01*
Y208750D01*
X199025D01*
Y208794D01*
Y208839D01*
Y208883D01*
Y208927D01*
Y208972D01*
Y209016D01*
Y209060D01*
Y209104D01*
Y209149D01*
Y209193D01*
Y209237D01*
Y209282D01*
Y209326D01*
Y209370D01*
Y209414D01*
Y209459D01*
Y209503D01*
Y209547D01*
Y209592D01*
Y209636D01*
Y209680D01*
Y209724D01*
Y209769D01*
Y209813D01*
Y209857D01*
Y209902D01*
X197873D01*
Y209946D01*
Y209990D01*
Y210034D01*
Y210079D01*
Y210123D01*
Y210167D01*
Y210212D01*
Y210256D01*
Y210300D01*
Y210345D01*
Y210389D01*
Y210433D01*
Y210477D01*
Y210522D01*
Y210566D01*
Y210610D01*
Y210654D01*
Y210699D01*
Y210743D01*
Y210787D01*
Y210832D01*
Y210876D01*
Y210920D01*
Y210964D01*
Y211009D01*
Y211053D01*
X199025D01*
Y211009D01*
Y210964D01*
Y210920D01*
Y210876D01*
Y210832D01*
Y210787D01*
Y210743D01*
Y210699D01*
Y210654D01*
Y210610D01*
Y210566D01*
Y210522D01*
Y210477D01*
Y210433D01*
Y210389D01*
Y210345D01*
Y210300D01*
Y210256D01*
Y210212D01*
Y210167D01*
Y210123D01*
Y210079D01*
Y210034D01*
Y209990D01*
Y209946D01*
Y209902D01*
X200176D01*
Y209946D01*
Y209990D01*
Y210034D01*
Y210079D01*
Y210123D01*
Y210167D01*
Y210212D01*
Y210256D01*
Y210300D01*
Y210345D01*
Y210389D01*
Y210433D01*
Y210477D01*
Y210522D01*
Y210566D01*
Y210610D01*
Y210654D01*
Y210699D01*
Y210743D01*
Y210787D01*
Y210832D01*
Y210876D01*
Y210920D01*
Y210964D01*
Y211009D01*
Y211053D01*
X201328D01*
Y211097D01*
Y211142D01*
Y211186D01*
Y211230D01*
Y211275D01*
Y211319D01*
Y211363D01*
Y211407D01*
Y211452D01*
Y211496D01*
Y211540D01*
Y211585D01*
Y211629D01*
Y211673D01*
Y211718D01*
Y211762D01*
Y211806D01*
Y211850D01*
Y211895D01*
Y211939D01*
Y211983D01*
Y212028D01*
Y212072D01*
Y212116D01*
Y212160D01*
Y212205D01*
X200176D01*
Y212249D01*
Y212293D01*
Y212337D01*
Y212382D01*
Y212426D01*
Y212470D01*
Y212515D01*
Y212559D01*
Y212603D01*
Y212648D01*
Y212692D01*
Y212736D01*
Y212780D01*
Y212825D01*
Y212869D01*
Y212913D01*
Y212958D01*
Y213002D01*
Y213046D01*
Y213090D01*
Y213135D01*
Y213179D01*
Y213223D01*
Y213268D01*
Y213312D01*
Y213356D01*
X199025D01*
Y213400D01*
Y213445D01*
Y213489D01*
Y213533D01*
Y213578D01*
Y213622D01*
Y213666D01*
Y213710D01*
Y213755D01*
Y213799D01*
Y213843D01*
Y213888D01*
Y213932D01*
Y213976D01*
Y214020D01*
Y214065D01*
Y214109D01*
Y214153D01*
Y214198D01*
Y214242D01*
Y214286D01*
Y214331D01*
Y214375D01*
Y214419D01*
Y214463D01*
Y214508D01*
X201328D01*
Y214463D01*
D02*
G37*
G36*
X188661Y209857D02*
Y209813D01*
Y209769D01*
Y209724D01*
Y209680D01*
Y209636D01*
Y209592D01*
Y209547D01*
Y209503D01*
Y209459D01*
Y209414D01*
Y209370D01*
Y209326D01*
Y209282D01*
Y209237D01*
Y209193D01*
Y209149D01*
Y209104D01*
Y209060D01*
Y209016D01*
Y208972D01*
Y208927D01*
Y208883D01*
Y208839D01*
Y208794D01*
Y208750D01*
X187510D01*
Y208794D01*
Y208839D01*
Y208883D01*
Y208927D01*
Y208972D01*
Y209016D01*
Y209060D01*
Y209104D01*
Y209149D01*
Y209193D01*
Y209237D01*
Y209282D01*
Y209326D01*
Y209370D01*
Y209414D01*
Y209459D01*
Y209503D01*
Y209547D01*
Y209592D01*
Y209636D01*
Y209680D01*
Y209724D01*
Y209769D01*
Y209813D01*
Y209857D01*
Y209902D01*
X188661D01*
Y209857D01*
D02*
G37*
G36*
X211691Y214463D02*
Y214419D01*
Y214375D01*
Y214331D01*
Y214286D01*
Y214242D01*
Y214198D01*
Y214153D01*
Y214109D01*
Y214065D01*
Y214020D01*
Y213976D01*
Y213932D01*
Y213888D01*
Y213843D01*
Y213799D01*
Y213755D01*
Y213710D01*
Y213666D01*
Y213622D01*
Y213578D01*
Y213533D01*
Y213489D01*
Y213445D01*
Y213400D01*
Y213356D01*
Y213312D01*
Y213268D01*
Y213223D01*
Y213179D01*
Y213135D01*
Y213090D01*
Y213046D01*
Y213002D01*
Y212958D01*
Y212913D01*
Y212869D01*
Y212825D01*
Y212780D01*
Y212736D01*
Y212692D01*
Y212648D01*
Y212603D01*
Y212559D01*
Y212515D01*
Y212470D01*
Y212426D01*
Y212382D01*
Y212337D01*
Y212293D01*
Y212249D01*
Y212205D01*
Y212160D01*
Y212116D01*
Y212072D01*
Y212028D01*
Y211983D01*
Y211939D01*
Y211895D01*
Y211850D01*
Y211806D01*
Y211762D01*
Y211718D01*
Y211673D01*
Y211629D01*
Y211585D01*
Y211540D01*
Y211496D01*
Y211452D01*
Y211407D01*
Y211363D01*
Y211319D01*
Y211275D01*
Y211230D01*
Y211186D01*
Y211142D01*
Y211097D01*
Y211053D01*
Y211009D01*
Y210964D01*
Y210920D01*
Y210876D01*
Y210832D01*
Y210787D01*
Y210743D01*
Y210699D01*
Y210654D01*
Y210610D01*
Y210566D01*
Y210522D01*
Y210477D01*
Y210433D01*
Y210389D01*
Y210345D01*
Y210300D01*
Y210256D01*
Y210212D01*
Y210167D01*
Y210123D01*
Y210079D01*
Y210034D01*
Y209990D01*
Y209946D01*
Y209902D01*
Y209857D01*
Y209813D01*
Y209769D01*
Y209724D01*
Y209680D01*
Y209636D01*
Y209592D01*
Y209547D01*
Y209503D01*
Y209459D01*
Y209414D01*
Y209370D01*
Y209326D01*
Y209282D01*
Y209237D01*
Y209193D01*
Y209149D01*
Y209104D01*
Y209060D01*
Y209016D01*
Y208972D01*
Y208927D01*
Y208883D01*
Y208839D01*
Y208794D01*
Y208750D01*
Y208706D01*
Y208662D01*
Y208617D01*
Y208573D01*
Y208529D01*
Y208484D01*
Y208440D01*
Y208396D01*
Y208351D01*
Y208307D01*
Y208263D01*
Y208219D01*
Y208174D01*
Y208130D01*
Y208086D01*
Y208042D01*
Y207997D01*
Y207953D01*
Y207909D01*
Y207864D01*
Y207820D01*
Y207776D01*
Y207731D01*
Y207687D01*
Y207643D01*
Y207599D01*
Y207554D01*
Y207510D01*
Y207466D01*
Y207421D01*
Y207377D01*
Y207333D01*
Y207289D01*
Y207244D01*
Y207200D01*
Y207156D01*
Y207111D01*
Y207067D01*
Y207023D01*
Y206979D01*
Y206934D01*
Y206890D01*
Y206846D01*
Y206801D01*
Y206757D01*
Y206713D01*
Y206668D01*
Y206624D01*
Y206580D01*
Y206536D01*
Y206491D01*
Y206447D01*
X203631D01*
Y206491D01*
Y206536D01*
Y206580D01*
Y206624D01*
Y206668D01*
Y206713D01*
Y206757D01*
Y206801D01*
Y206846D01*
Y206890D01*
Y206934D01*
Y206979D01*
Y207023D01*
Y207067D01*
Y207111D01*
Y207156D01*
Y207200D01*
Y207244D01*
Y207289D01*
Y207333D01*
Y207377D01*
Y207421D01*
Y207466D01*
Y207510D01*
Y207554D01*
Y207599D01*
Y207643D01*
Y207687D01*
Y207731D01*
Y207776D01*
Y207820D01*
Y207864D01*
Y207909D01*
Y207953D01*
Y207997D01*
Y208042D01*
Y208086D01*
Y208130D01*
Y208174D01*
Y208219D01*
Y208263D01*
Y208307D01*
Y208351D01*
Y208396D01*
Y208440D01*
Y208484D01*
Y208529D01*
Y208573D01*
Y208617D01*
Y208662D01*
Y208706D01*
Y208750D01*
Y208794D01*
Y208839D01*
Y208883D01*
Y208927D01*
Y208972D01*
Y209016D01*
Y209060D01*
Y209104D01*
Y209149D01*
Y209193D01*
Y209237D01*
Y209282D01*
Y209326D01*
Y209370D01*
Y209414D01*
Y209459D01*
Y209503D01*
Y209547D01*
Y209592D01*
Y209636D01*
Y209680D01*
Y209724D01*
Y209769D01*
Y209813D01*
Y209857D01*
Y209902D01*
Y209946D01*
Y209990D01*
Y210034D01*
Y210079D01*
Y210123D01*
Y210167D01*
Y210212D01*
Y210256D01*
Y210300D01*
Y210345D01*
Y210389D01*
Y210433D01*
Y210477D01*
Y210522D01*
Y210566D01*
Y210610D01*
Y210654D01*
Y210699D01*
Y210743D01*
Y210787D01*
Y210832D01*
Y210876D01*
Y210920D01*
Y210964D01*
Y211009D01*
Y211053D01*
Y211097D01*
Y211142D01*
Y211186D01*
Y211230D01*
Y211275D01*
Y211319D01*
Y211363D01*
Y211407D01*
Y211452D01*
Y211496D01*
Y211540D01*
Y211585D01*
Y211629D01*
Y211673D01*
Y211718D01*
Y211762D01*
Y211806D01*
Y211850D01*
Y211895D01*
Y211939D01*
Y211983D01*
Y212028D01*
Y212072D01*
Y212116D01*
Y212160D01*
Y212205D01*
Y212249D01*
Y212293D01*
Y212337D01*
Y212382D01*
Y212426D01*
Y212470D01*
Y212515D01*
Y212559D01*
Y212603D01*
Y212648D01*
Y212692D01*
Y212736D01*
Y212780D01*
Y212825D01*
Y212869D01*
Y212913D01*
Y212958D01*
Y213002D01*
Y213046D01*
Y213090D01*
Y213135D01*
Y213179D01*
Y213223D01*
Y213268D01*
Y213312D01*
Y213356D01*
Y213400D01*
Y213445D01*
Y213489D01*
Y213533D01*
Y213578D01*
Y213622D01*
Y213666D01*
Y213710D01*
Y213755D01*
Y213799D01*
Y213843D01*
Y213888D01*
Y213932D01*
Y213976D01*
Y214020D01*
Y214065D01*
Y214109D01*
Y214153D01*
Y214198D01*
Y214242D01*
Y214286D01*
Y214331D01*
Y214375D01*
Y214419D01*
Y214463D01*
Y214508D01*
X211691D01*
Y214463D01*
D02*
G37*
G36*
X197873Y207554D02*
Y207510D01*
Y207466D01*
Y207421D01*
Y207377D01*
Y207333D01*
Y207289D01*
Y207244D01*
Y207200D01*
Y207156D01*
Y207111D01*
Y207067D01*
Y207023D01*
Y206979D01*
Y206934D01*
Y206890D01*
Y206846D01*
Y206801D01*
Y206757D01*
Y206713D01*
Y206668D01*
Y206624D01*
Y206580D01*
Y206536D01*
Y206491D01*
Y206447D01*
X196722D01*
Y206491D01*
Y206536D01*
Y206580D01*
Y206624D01*
Y206668D01*
Y206713D01*
Y206757D01*
Y206801D01*
Y206846D01*
Y206890D01*
Y206934D01*
Y206979D01*
Y207023D01*
Y207067D01*
Y207111D01*
Y207156D01*
Y207200D01*
Y207244D01*
Y207289D01*
Y207333D01*
Y207377D01*
Y207421D01*
Y207466D01*
Y207510D01*
Y207554D01*
Y207599D01*
X197873D01*
Y207554D01*
D02*
G37*
G36*
X186358Y214463D02*
Y214419D01*
Y214375D01*
Y214331D01*
Y214286D01*
Y214242D01*
Y214198D01*
Y214153D01*
Y214109D01*
Y214065D01*
Y214020D01*
Y213976D01*
Y213932D01*
Y213888D01*
Y213843D01*
Y213799D01*
Y213755D01*
Y213710D01*
Y213666D01*
Y213622D01*
Y213578D01*
Y213533D01*
Y213489D01*
Y213445D01*
Y213400D01*
Y213356D01*
Y213312D01*
Y213268D01*
Y213223D01*
Y213179D01*
Y213135D01*
Y213090D01*
Y213046D01*
Y213002D01*
Y212958D01*
Y212913D01*
Y212869D01*
Y212825D01*
Y212780D01*
Y212736D01*
Y212692D01*
Y212648D01*
Y212603D01*
Y212559D01*
Y212515D01*
Y212470D01*
Y212426D01*
Y212382D01*
Y212337D01*
Y212293D01*
Y212249D01*
Y212205D01*
Y212160D01*
Y212116D01*
Y212072D01*
Y212028D01*
Y211983D01*
Y211939D01*
Y211895D01*
Y211850D01*
Y211806D01*
Y211762D01*
Y211718D01*
Y211673D01*
Y211629D01*
Y211585D01*
Y211540D01*
Y211496D01*
Y211452D01*
Y211407D01*
Y211363D01*
Y211319D01*
Y211275D01*
Y211230D01*
Y211186D01*
Y211142D01*
Y211097D01*
Y211053D01*
Y211009D01*
Y210964D01*
Y210920D01*
Y210876D01*
Y210832D01*
Y210787D01*
Y210743D01*
Y210699D01*
Y210654D01*
Y210610D01*
Y210566D01*
Y210522D01*
Y210477D01*
Y210433D01*
Y210389D01*
Y210345D01*
Y210300D01*
Y210256D01*
Y210212D01*
Y210167D01*
Y210123D01*
Y210079D01*
Y210034D01*
Y209990D01*
Y209946D01*
Y209902D01*
Y209857D01*
Y209813D01*
Y209769D01*
Y209724D01*
Y209680D01*
Y209636D01*
Y209592D01*
Y209547D01*
Y209503D01*
Y209459D01*
Y209414D01*
Y209370D01*
Y209326D01*
Y209282D01*
Y209237D01*
Y209193D01*
Y209149D01*
Y209104D01*
Y209060D01*
Y209016D01*
Y208972D01*
Y208927D01*
Y208883D01*
Y208839D01*
Y208794D01*
Y208750D01*
Y208706D01*
Y208662D01*
Y208617D01*
Y208573D01*
Y208529D01*
Y208484D01*
Y208440D01*
Y208396D01*
Y208351D01*
Y208307D01*
Y208263D01*
Y208219D01*
Y208174D01*
Y208130D01*
Y208086D01*
Y208042D01*
Y207997D01*
Y207953D01*
Y207909D01*
Y207864D01*
Y207820D01*
Y207776D01*
Y207731D01*
Y207687D01*
Y207643D01*
Y207599D01*
Y207554D01*
Y207510D01*
Y207466D01*
Y207421D01*
Y207377D01*
Y207333D01*
Y207289D01*
Y207244D01*
Y207200D01*
Y207156D01*
Y207111D01*
Y207067D01*
Y207023D01*
Y206979D01*
Y206934D01*
Y206890D01*
Y206846D01*
Y206801D01*
Y206757D01*
Y206713D01*
Y206668D01*
Y206624D01*
Y206580D01*
Y206536D01*
Y206491D01*
Y206447D01*
X178297D01*
Y206491D01*
Y206536D01*
Y206580D01*
Y206624D01*
Y206668D01*
Y206713D01*
Y206757D01*
Y206801D01*
Y206846D01*
Y206890D01*
Y206934D01*
Y206979D01*
Y207023D01*
Y207067D01*
Y207111D01*
Y207156D01*
Y207200D01*
Y207244D01*
Y207289D01*
Y207333D01*
Y207377D01*
Y207421D01*
Y207466D01*
Y207510D01*
Y207554D01*
Y207599D01*
Y207643D01*
Y207687D01*
Y207731D01*
Y207776D01*
Y207820D01*
Y207864D01*
Y207909D01*
Y207953D01*
Y207997D01*
Y208042D01*
Y208086D01*
Y208130D01*
Y208174D01*
Y208219D01*
Y208263D01*
Y208307D01*
Y208351D01*
Y208396D01*
Y208440D01*
Y208484D01*
Y208529D01*
Y208573D01*
Y208617D01*
Y208662D01*
Y208706D01*
Y208750D01*
Y208794D01*
Y208839D01*
Y208883D01*
Y208927D01*
Y208972D01*
Y209016D01*
Y209060D01*
Y209104D01*
Y209149D01*
Y209193D01*
Y209237D01*
Y209282D01*
Y209326D01*
Y209370D01*
Y209414D01*
Y209459D01*
Y209503D01*
Y209547D01*
Y209592D01*
Y209636D01*
Y209680D01*
Y209724D01*
Y209769D01*
Y209813D01*
Y209857D01*
Y209902D01*
Y209946D01*
Y209990D01*
Y210034D01*
Y210079D01*
Y210123D01*
Y210167D01*
Y210212D01*
Y210256D01*
Y210300D01*
Y210345D01*
Y210389D01*
Y210433D01*
Y210477D01*
Y210522D01*
Y210566D01*
Y210610D01*
Y210654D01*
Y210699D01*
Y210743D01*
Y210787D01*
Y210832D01*
Y210876D01*
Y210920D01*
Y210964D01*
Y211009D01*
Y211053D01*
Y211097D01*
Y211142D01*
Y211186D01*
Y211230D01*
Y211275D01*
Y211319D01*
Y211363D01*
Y211407D01*
Y211452D01*
Y211496D01*
Y211540D01*
Y211585D01*
Y211629D01*
Y211673D01*
Y211718D01*
Y211762D01*
Y211806D01*
Y211850D01*
Y211895D01*
Y211939D01*
Y211983D01*
Y212028D01*
Y212072D01*
Y212116D01*
Y212160D01*
Y212205D01*
Y212249D01*
Y212293D01*
Y212337D01*
Y212382D01*
Y212426D01*
Y212470D01*
Y212515D01*
Y212559D01*
Y212603D01*
Y212648D01*
Y212692D01*
Y212736D01*
Y212780D01*
Y212825D01*
Y212869D01*
Y212913D01*
Y212958D01*
Y213002D01*
Y213046D01*
Y213090D01*
Y213135D01*
Y213179D01*
Y213223D01*
Y213268D01*
Y213312D01*
Y213356D01*
Y213400D01*
Y213445D01*
Y213489D01*
Y213533D01*
Y213578D01*
Y213622D01*
Y213666D01*
Y213710D01*
Y213755D01*
Y213799D01*
Y213843D01*
Y213888D01*
Y213932D01*
Y213976D01*
Y214020D01*
Y214065D01*
Y214109D01*
Y214153D01*
Y214198D01*
Y214242D01*
Y214286D01*
Y214331D01*
Y214375D01*
Y214419D01*
Y214463D01*
Y214508D01*
X186358D01*
Y214463D01*
D02*
G37*
G36*
X211691Y205251D02*
Y205207D01*
Y205163D01*
Y205118D01*
Y205074D01*
Y205030D01*
Y204985D01*
Y204941D01*
Y204897D01*
Y204853D01*
Y204808D01*
Y204764D01*
Y204720D01*
Y204676D01*
Y204631D01*
Y204587D01*
Y204543D01*
Y204498D01*
Y204454D01*
Y204410D01*
Y204365D01*
Y204321D01*
Y204277D01*
Y204233D01*
Y204188D01*
Y204144D01*
X210540D01*
Y204100D01*
Y204055D01*
Y204011D01*
Y203967D01*
Y203923D01*
Y203878D01*
Y203834D01*
Y203790D01*
Y203745D01*
Y203701D01*
Y203657D01*
Y203613D01*
Y203568D01*
Y203524D01*
Y203480D01*
Y203435D01*
Y203391D01*
Y203347D01*
Y203303D01*
Y203258D01*
Y203214D01*
Y203170D01*
Y203125D01*
Y203081D01*
Y203037D01*
Y202993D01*
X209388D01*
Y202948D01*
Y202904D01*
Y202860D01*
Y202815D01*
Y202771D01*
Y202727D01*
Y202682D01*
Y202638D01*
Y202594D01*
Y202550D01*
Y202505D01*
Y202461D01*
Y202417D01*
Y202373D01*
Y202328D01*
Y202284D01*
Y202240D01*
Y202195D01*
Y202151D01*
Y202107D01*
Y202062D01*
Y202018D01*
Y201974D01*
Y201930D01*
Y201885D01*
Y201841D01*
X208237D01*
Y201885D01*
Y201930D01*
Y201974D01*
Y202018D01*
Y202062D01*
Y202107D01*
Y202151D01*
Y202195D01*
Y202240D01*
Y202284D01*
Y202328D01*
Y202373D01*
Y202417D01*
Y202461D01*
Y202505D01*
Y202550D01*
Y202594D01*
Y202638D01*
Y202682D01*
Y202727D01*
Y202771D01*
Y202815D01*
Y202860D01*
Y202904D01*
Y202948D01*
Y202993D01*
Y203037D01*
Y203081D01*
Y203125D01*
Y203170D01*
Y203214D01*
Y203258D01*
Y203303D01*
Y203347D01*
Y203391D01*
Y203435D01*
Y203480D01*
Y203524D01*
Y203568D01*
Y203613D01*
Y203657D01*
Y203701D01*
Y203745D01*
Y203790D01*
Y203834D01*
Y203878D01*
Y203923D01*
Y203967D01*
Y204011D01*
Y204055D01*
Y204100D01*
Y204144D01*
Y204188D01*
Y204233D01*
Y204277D01*
Y204321D01*
Y204365D01*
Y204410D01*
Y204454D01*
Y204498D01*
Y204543D01*
Y204587D01*
Y204631D01*
Y204676D01*
Y204720D01*
Y204764D01*
Y204808D01*
Y204853D01*
Y204897D01*
Y204941D01*
Y204985D01*
Y205030D01*
Y205074D01*
Y205118D01*
Y205163D01*
Y205207D01*
Y205251D01*
Y205295D01*
X211691D01*
Y205251D01*
D02*
G37*
G36*
X196722Y191433D02*
Y191389D01*
Y191344D01*
Y191300D01*
Y191256D01*
Y191212D01*
Y191167D01*
Y191123D01*
Y191079D01*
Y191034D01*
Y190990D01*
Y190946D01*
Y190902D01*
Y190857D01*
Y190813D01*
Y190769D01*
Y190724D01*
Y190680D01*
Y190636D01*
Y190592D01*
Y190547D01*
Y190503D01*
Y190459D01*
Y190414D01*
Y190370D01*
Y190326D01*
X195570D01*
Y190370D01*
Y190414D01*
Y190459D01*
Y190503D01*
Y190547D01*
Y190592D01*
Y190636D01*
Y190680D01*
Y190724D01*
Y190769D01*
Y190813D01*
Y190857D01*
Y190902D01*
Y190946D01*
Y190990D01*
Y191034D01*
Y191079D01*
Y191123D01*
Y191167D01*
Y191212D01*
Y191256D01*
Y191300D01*
Y191344D01*
Y191389D01*
Y191433D01*
Y191477D01*
X196722D01*
Y191433D01*
D02*
G37*
G36*
X182904Y192585D02*
Y192540D01*
Y192496D01*
Y192452D01*
Y192407D01*
Y192363D01*
Y192319D01*
Y192275D01*
Y192230D01*
Y192186D01*
Y192142D01*
Y192097D01*
Y192053D01*
Y192009D01*
Y191964D01*
Y191920D01*
Y191876D01*
Y191832D01*
Y191787D01*
Y191743D01*
Y191699D01*
Y191655D01*
Y191610D01*
Y191566D01*
Y191522D01*
Y191477D01*
X184055D01*
Y191433D01*
Y191389D01*
Y191344D01*
Y191300D01*
Y191256D01*
Y191212D01*
Y191167D01*
Y191123D01*
Y191079D01*
Y191034D01*
Y190990D01*
Y190946D01*
Y190902D01*
Y190857D01*
Y190813D01*
Y190769D01*
Y190724D01*
Y190680D01*
Y190636D01*
Y190592D01*
Y190547D01*
Y190503D01*
Y190459D01*
Y190414D01*
Y190370D01*
Y190326D01*
X182904D01*
Y190370D01*
Y190414D01*
Y190459D01*
Y190503D01*
Y190547D01*
Y190592D01*
Y190636D01*
Y190680D01*
Y190724D01*
Y190769D01*
Y190813D01*
Y190857D01*
Y190902D01*
Y190946D01*
Y190990D01*
Y191034D01*
Y191079D01*
Y191123D01*
Y191167D01*
Y191212D01*
Y191256D01*
Y191300D01*
Y191344D01*
Y191389D01*
Y191433D01*
Y191477D01*
X181752D01*
Y191522D01*
Y191566D01*
Y191610D01*
Y191655D01*
Y191699D01*
Y191743D01*
Y191787D01*
Y191832D01*
Y191876D01*
Y191920D01*
Y191964D01*
Y192009D01*
Y192053D01*
Y192097D01*
Y192142D01*
Y192186D01*
Y192230D01*
Y192275D01*
Y192319D01*
Y192363D01*
Y192407D01*
Y192452D01*
Y192496D01*
Y192540D01*
Y192585D01*
Y192629D01*
X182904D01*
Y192585D01*
D02*
G37*
G36*
X180601Y198342D02*
Y198298D01*
Y198254D01*
Y198209D01*
Y198165D01*
Y198121D01*
Y198076D01*
Y198032D01*
Y197988D01*
Y197944D01*
Y197899D01*
Y197855D01*
Y197811D01*
Y197766D01*
Y197722D01*
Y197678D01*
Y197634D01*
Y197589D01*
Y197545D01*
Y197501D01*
Y197456D01*
Y197412D01*
Y197368D01*
Y197324D01*
Y197279D01*
Y197235D01*
Y197191D01*
Y197146D01*
Y197102D01*
Y197058D01*
Y197013D01*
Y196969D01*
Y196925D01*
Y196881D01*
Y196836D01*
Y196792D01*
Y196748D01*
Y196704D01*
Y196659D01*
Y196615D01*
Y196571D01*
Y196526D01*
Y196482D01*
Y196438D01*
Y196393D01*
Y196349D01*
Y196305D01*
Y196261D01*
Y196216D01*
Y196172D01*
Y196128D01*
Y196083D01*
X181752D01*
Y196039D01*
Y195995D01*
Y195950D01*
Y195906D01*
Y195862D01*
Y195818D01*
Y195773D01*
Y195729D01*
Y195685D01*
Y195641D01*
Y195596D01*
Y195552D01*
Y195508D01*
Y195463D01*
Y195419D01*
Y195375D01*
Y195331D01*
Y195286D01*
Y195242D01*
Y195198D01*
Y195153D01*
Y195109D01*
Y195065D01*
Y195020D01*
Y194976D01*
Y194932D01*
Y194888D01*
Y194843D01*
Y194799D01*
Y194755D01*
Y194711D01*
Y194666D01*
Y194622D01*
Y194578D01*
Y194533D01*
Y194489D01*
Y194445D01*
Y194400D01*
Y194356D01*
Y194312D01*
Y194268D01*
Y194223D01*
Y194179D01*
Y194135D01*
Y194090D01*
Y194046D01*
Y194002D01*
Y193957D01*
Y193913D01*
Y193869D01*
Y193825D01*
Y193780D01*
X180601D01*
Y193736D01*
Y193692D01*
Y193648D01*
Y193603D01*
Y193559D01*
Y193515D01*
Y193470D01*
Y193426D01*
Y193382D01*
Y193338D01*
Y193293D01*
Y193249D01*
Y193205D01*
Y193160D01*
Y193116D01*
Y193072D01*
Y193027D01*
Y192983D01*
Y192939D01*
Y192895D01*
Y192850D01*
Y192806D01*
Y192762D01*
Y192718D01*
Y192673D01*
Y192629D01*
Y192585D01*
Y192540D01*
Y192496D01*
Y192452D01*
Y192407D01*
Y192363D01*
Y192319D01*
Y192275D01*
Y192230D01*
Y192186D01*
Y192142D01*
Y192097D01*
Y192053D01*
Y192009D01*
Y191964D01*
Y191920D01*
Y191876D01*
Y191832D01*
Y191787D01*
Y191743D01*
Y191699D01*
Y191655D01*
Y191610D01*
Y191566D01*
Y191522D01*
Y191477D01*
X181752D01*
Y191433D01*
Y191389D01*
Y191344D01*
Y191300D01*
Y191256D01*
Y191212D01*
Y191167D01*
Y191123D01*
Y191079D01*
Y191034D01*
Y190990D01*
Y190946D01*
Y190902D01*
Y190857D01*
Y190813D01*
Y190769D01*
Y190724D01*
Y190680D01*
Y190636D01*
Y190592D01*
Y190547D01*
Y190503D01*
Y190459D01*
Y190414D01*
Y190370D01*
Y190326D01*
X178297D01*
Y190370D01*
Y190414D01*
Y190459D01*
Y190503D01*
Y190547D01*
Y190592D01*
Y190636D01*
Y190680D01*
Y190724D01*
Y190769D01*
Y190813D01*
Y190857D01*
Y190902D01*
Y190946D01*
Y190990D01*
Y191034D01*
Y191079D01*
Y191123D01*
Y191167D01*
Y191212D01*
Y191256D01*
Y191300D01*
Y191344D01*
Y191389D01*
Y191433D01*
Y191477D01*
Y191522D01*
Y191566D01*
Y191610D01*
Y191655D01*
Y191699D01*
Y191743D01*
Y191787D01*
Y191832D01*
Y191876D01*
Y191920D01*
Y191964D01*
Y192009D01*
Y192053D01*
Y192097D01*
Y192142D01*
Y192186D01*
Y192230D01*
Y192275D01*
Y192319D01*
Y192363D01*
Y192407D01*
Y192452D01*
Y192496D01*
Y192540D01*
Y192585D01*
Y192629D01*
Y192673D01*
Y192718D01*
Y192762D01*
Y192806D01*
Y192850D01*
Y192895D01*
Y192939D01*
Y192983D01*
Y193027D01*
Y193072D01*
Y193116D01*
Y193160D01*
Y193205D01*
Y193249D01*
Y193293D01*
Y193338D01*
Y193382D01*
Y193426D01*
Y193470D01*
Y193515D01*
Y193559D01*
Y193603D01*
Y193648D01*
Y193692D01*
Y193736D01*
Y193780D01*
Y193825D01*
Y193869D01*
Y193913D01*
Y193957D01*
Y194002D01*
Y194046D01*
Y194090D01*
Y194135D01*
Y194179D01*
Y194223D01*
Y194268D01*
Y194312D01*
Y194356D01*
Y194400D01*
Y194445D01*
Y194489D01*
Y194533D01*
Y194578D01*
Y194622D01*
Y194666D01*
Y194711D01*
Y194755D01*
Y194799D01*
Y194843D01*
Y194888D01*
Y194932D01*
X180601D01*
Y194976D01*
Y195020D01*
Y195065D01*
Y195109D01*
Y195153D01*
Y195198D01*
Y195242D01*
Y195286D01*
Y195331D01*
Y195375D01*
Y195419D01*
Y195463D01*
Y195508D01*
Y195552D01*
Y195596D01*
Y195641D01*
Y195685D01*
Y195729D01*
Y195773D01*
Y195818D01*
Y195862D01*
Y195906D01*
Y195950D01*
Y195995D01*
Y196039D01*
Y196083D01*
X179449D01*
Y196128D01*
Y196172D01*
Y196216D01*
Y196261D01*
Y196305D01*
Y196349D01*
Y196393D01*
Y196438D01*
Y196482D01*
Y196526D01*
Y196571D01*
Y196615D01*
Y196659D01*
Y196704D01*
Y196748D01*
Y196792D01*
Y196836D01*
Y196881D01*
Y196925D01*
Y196969D01*
Y197013D01*
Y197058D01*
Y197102D01*
Y197146D01*
Y197191D01*
Y197235D01*
X178297D01*
Y197279D01*
Y197324D01*
Y197368D01*
Y197412D01*
Y197456D01*
Y197501D01*
Y197545D01*
Y197589D01*
Y197634D01*
Y197678D01*
Y197722D01*
Y197766D01*
Y197811D01*
Y197855D01*
Y197899D01*
Y197944D01*
Y197988D01*
Y198032D01*
Y198076D01*
Y198121D01*
Y198165D01*
Y198209D01*
Y198254D01*
Y198298D01*
Y198342D01*
Y198386D01*
X180601D01*
Y198342D01*
D02*
G37*
G36*
X190964Y187978D02*
Y187934D01*
Y187890D01*
Y187846D01*
Y187801D01*
Y187757D01*
Y187713D01*
Y187669D01*
Y187624D01*
Y187580D01*
Y187536D01*
Y187491D01*
Y187447D01*
Y187403D01*
Y187358D01*
Y187314D01*
Y187270D01*
Y187226D01*
Y187181D01*
Y187137D01*
Y187093D01*
Y187048D01*
Y187004D01*
Y186960D01*
Y186916D01*
Y186871D01*
X189813D01*
Y186916D01*
Y186960D01*
Y187004D01*
Y187048D01*
Y187093D01*
Y187137D01*
Y187181D01*
Y187226D01*
Y187270D01*
Y187314D01*
Y187358D01*
Y187403D01*
Y187447D01*
Y187491D01*
Y187536D01*
Y187580D01*
Y187624D01*
Y187669D01*
Y187713D01*
Y187757D01*
Y187801D01*
Y187846D01*
Y187890D01*
Y187934D01*
Y187978D01*
Y188023D01*
X190964D01*
Y187978D01*
D02*
G37*
G36*
X196722Y186827D02*
Y186783D01*
Y186738D01*
Y186694D01*
Y186650D01*
Y186606D01*
Y186561D01*
Y186517D01*
Y186473D01*
Y186428D01*
Y186384D01*
Y186340D01*
Y186295D01*
Y186251D01*
Y186207D01*
Y186163D01*
Y186118D01*
Y186074D01*
Y186030D01*
Y185986D01*
Y185941D01*
Y185897D01*
Y185853D01*
Y185808D01*
Y185764D01*
Y185720D01*
X197873D01*
Y185676D01*
Y185631D01*
Y185587D01*
Y185543D01*
Y185498D01*
Y185454D01*
Y185410D01*
Y185365D01*
Y185321D01*
Y185277D01*
Y185233D01*
Y185188D01*
Y185144D01*
Y185100D01*
Y185055D01*
Y185011D01*
Y184967D01*
Y184923D01*
Y184878D01*
Y184834D01*
Y184790D01*
Y184745D01*
Y184701D01*
Y184657D01*
Y184613D01*
Y184568D01*
X199025D01*
Y184613D01*
Y184657D01*
Y184701D01*
Y184745D01*
Y184790D01*
Y184834D01*
Y184878D01*
Y184923D01*
Y184967D01*
Y185011D01*
Y185055D01*
Y185100D01*
Y185144D01*
Y185188D01*
Y185233D01*
Y185277D01*
Y185321D01*
Y185365D01*
Y185410D01*
Y185454D01*
Y185498D01*
Y185543D01*
Y185587D01*
Y185631D01*
Y185676D01*
Y185720D01*
X200176D01*
Y185676D01*
Y185631D01*
Y185587D01*
Y185543D01*
Y185498D01*
Y185454D01*
Y185410D01*
Y185365D01*
Y185321D01*
Y185277D01*
Y185233D01*
Y185188D01*
Y185144D01*
Y185100D01*
Y185055D01*
Y185011D01*
Y184967D01*
Y184923D01*
Y184878D01*
Y184834D01*
Y184790D01*
Y184745D01*
Y184701D01*
Y184657D01*
Y184613D01*
Y184568D01*
Y184524D01*
Y184480D01*
Y184435D01*
Y184391D01*
Y184347D01*
Y184302D01*
Y184258D01*
Y184214D01*
Y184170D01*
Y184125D01*
Y184081D01*
Y184037D01*
Y183993D01*
Y183948D01*
Y183904D01*
Y183860D01*
Y183815D01*
Y183771D01*
Y183727D01*
Y183683D01*
Y183638D01*
Y183594D01*
Y183550D01*
Y183505D01*
Y183461D01*
Y183417D01*
X197873D01*
Y183461D01*
Y183505D01*
Y183550D01*
Y183594D01*
Y183638D01*
Y183683D01*
Y183727D01*
Y183771D01*
Y183815D01*
Y183860D01*
Y183904D01*
Y183948D01*
Y183993D01*
Y184037D01*
Y184081D01*
Y184125D01*
Y184170D01*
Y184214D01*
Y184258D01*
Y184302D01*
Y184347D01*
Y184391D01*
Y184435D01*
Y184480D01*
Y184524D01*
Y184568D01*
X196722D01*
Y184613D01*
Y184657D01*
Y184701D01*
Y184745D01*
Y184790D01*
Y184834D01*
Y184878D01*
Y184923D01*
Y184967D01*
Y185011D01*
Y185055D01*
Y185100D01*
Y185144D01*
Y185188D01*
Y185233D01*
Y185277D01*
Y185321D01*
Y185365D01*
Y185410D01*
Y185454D01*
Y185498D01*
Y185543D01*
Y185587D01*
Y185631D01*
Y185676D01*
Y185720D01*
X195570D01*
Y185764D01*
Y185808D01*
Y185853D01*
Y185897D01*
Y185941D01*
Y185986D01*
Y186030D01*
Y186074D01*
Y186118D01*
Y186163D01*
Y186207D01*
Y186251D01*
Y186295D01*
Y186340D01*
Y186384D01*
Y186428D01*
Y186473D01*
Y186517D01*
Y186561D01*
Y186606D01*
Y186650D01*
Y186694D01*
Y186738D01*
Y186783D01*
Y186827D01*
Y186871D01*
X196722D01*
Y186827D01*
D02*
G37*
G36*
X202479Y182221D02*
Y182177D01*
Y182132D01*
Y182088D01*
Y182044D01*
Y182000D01*
Y181955D01*
Y181911D01*
Y181867D01*
Y181822D01*
Y181778D01*
Y181734D01*
Y181690D01*
Y181645D01*
Y181601D01*
Y181557D01*
Y181512D01*
Y181468D01*
Y181424D01*
Y181379D01*
Y181335D01*
Y181291D01*
Y181247D01*
Y181202D01*
Y181158D01*
Y181114D01*
X200176D01*
Y181158D01*
Y181202D01*
Y181247D01*
Y181291D01*
Y181335D01*
Y181379D01*
Y181424D01*
Y181468D01*
Y181512D01*
Y181557D01*
Y181601D01*
Y181645D01*
Y181690D01*
Y181734D01*
Y181778D01*
Y181822D01*
Y181867D01*
Y181911D01*
Y181955D01*
Y182000D01*
Y182044D01*
Y182088D01*
Y182132D01*
Y182177D01*
Y182221D01*
Y182265D01*
X202479D01*
Y182221D01*
D02*
G37*
G36*
X199025D02*
Y182177D01*
Y182132D01*
Y182088D01*
Y182044D01*
Y182000D01*
Y181955D01*
Y181911D01*
Y181867D01*
Y181822D01*
Y181778D01*
Y181734D01*
Y181690D01*
Y181645D01*
Y181601D01*
Y181557D01*
Y181512D01*
Y181468D01*
Y181424D01*
Y181379D01*
Y181335D01*
Y181291D01*
Y181247D01*
Y181202D01*
Y181158D01*
Y181114D01*
X197873D01*
Y181158D01*
Y181202D01*
Y181247D01*
Y181291D01*
Y181335D01*
Y181379D01*
Y181424D01*
Y181468D01*
Y181512D01*
Y181557D01*
Y181601D01*
Y181645D01*
Y181690D01*
Y181734D01*
Y181778D01*
Y181822D01*
Y181867D01*
Y181911D01*
Y181955D01*
Y182000D01*
Y182044D01*
Y182088D01*
Y182132D01*
Y182177D01*
Y182221D01*
Y182265D01*
X199025D01*
Y182221D01*
D02*
G37*
G36*
X189813Y190281D02*
Y190237D01*
Y190193D01*
Y190149D01*
Y190104D01*
Y190060D01*
Y190016D01*
Y189971D01*
Y189927D01*
Y189883D01*
Y189839D01*
Y189794D01*
Y189750D01*
Y189706D01*
Y189662D01*
Y189617D01*
Y189573D01*
Y189529D01*
Y189484D01*
Y189440D01*
Y189396D01*
Y189351D01*
Y189307D01*
Y189263D01*
Y189219D01*
Y189174D01*
X188661D01*
Y189130D01*
Y189086D01*
Y189041D01*
Y188997D01*
Y188953D01*
Y188909D01*
Y188864D01*
Y188820D01*
Y188776D01*
Y188731D01*
Y188687D01*
Y188643D01*
Y188599D01*
Y188554D01*
Y188510D01*
Y188466D01*
Y188421D01*
Y188377D01*
Y188333D01*
Y188289D01*
Y188244D01*
Y188200D01*
Y188156D01*
Y188111D01*
Y188067D01*
Y188023D01*
Y187978D01*
Y187934D01*
Y187890D01*
Y187846D01*
Y187801D01*
Y187757D01*
Y187713D01*
Y187669D01*
Y187624D01*
Y187580D01*
Y187536D01*
Y187491D01*
Y187447D01*
Y187403D01*
Y187358D01*
Y187314D01*
Y187270D01*
Y187226D01*
Y187181D01*
Y187137D01*
Y187093D01*
Y187048D01*
Y187004D01*
Y186960D01*
Y186916D01*
Y186871D01*
X189813D01*
Y186827D01*
Y186783D01*
Y186738D01*
Y186694D01*
Y186650D01*
Y186606D01*
Y186561D01*
Y186517D01*
Y186473D01*
Y186428D01*
Y186384D01*
Y186340D01*
Y186295D01*
Y186251D01*
Y186207D01*
Y186163D01*
Y186118D01*
Y186074D01*
Y186030D01*
Y185986D01*
Y185941D01*
Y185897D01*
Y185853D01*
Y185808D01*
Y185764D01*
Y185720D01*
X190964D01*
Y185676D01*
Y185631D01*
Y185587D01*
Y185543D01*
Y185498D01*
Y185454D01*
Y185410D01*
Y185365D01*
Y185321D01*
Y185277D01*
Y185233D01*
Y185188D01*
Y185144D01*
Y185100D01*
Y185055D01*
Y185011D01*
Y184967D01*
Y184923D01*
Y184878D01*
Y184834D01*
Y184790D01*
Y184745D01*
Y184701D01*
Y184657D01*
Y184613D01*
Y184568D01*
X192116D01*
Y184524D01*
Y184480D01*
Y184435D01*
Y184391D01*
Y184347D01*
Y184302D01*
Y184258D01*
Y184214D01*
Y184170D01*
Y184125D01*
Y184081D01*
Y184037D01*
Y183993D01*
Y183948D01*
Y183904D01*
Y183860D01*
Y183815D01*
Y183771D01*
Y183727D01*
Y183683D01*
Y183638D01*
Y183594D01*
Y183550D01*
Y183505D01*
Y183461D01*
Y183417D01*
X193267D01*
Y183461D01*
Y183505D01*
Y183550D01*
Y183594D01*
Y183638D01*
Y183683D01*
Y183727D01*
Y183771D01*
Y183815D01*
Y183860D01*
Y183904D01*
Y183948D01*
Y183993D01*
Y184037D01*
Y184081D01*
Y184125D01*
Y184170D01*
Y184214D01*
Y184258D01*
Y184302D01*
Y184347D01*
Y184391D01*
Y184435D01*
Y184480D01*
Y184524D01*
Y184568D01*
X192116D01*
Y184613D01*
Y184657D01*
Y184701D01*
Y184745D01*
Y184790D01*
Y184834D01*
Y184878D01*
Y184923D01*
Y184967D01*
Y185011D01*
Y185055D01*
Y185100D01*
Y185144D01*
Y185188D01*
Y185233D01*
Y185277D01*
Y185321D01*
Y185365D01*
Y185410D01*
Y185454D01*
Y185498D01*
Y185543D01*
Y185587D01*
Y185631D01*
Y185676D01*
Y185720D01*
X193267D01*
Y185676D01*
Y185631D01*
Y185587D01*
Y185543D01*
Y185498D01*
Y185454D01*
Y185410D01*
Y185365D01*
Y185321D01*
Y185277D01*
Y185233D01*
Y185188D01*
Y185144D01*
Y185100D01*
Y185055D01*
Y185011D01*
Y184967D01*
Y184923D01*
Y184878D01*
Y184834D01*
Y184790D01*
Y184745D01*
Y184701D01*
Y184657D01*
Y184613D01*
Y184568D01*
X194419D01*
Y184524D01*
Y184480D01*
Y184435D01*
Y184391D01*
Y184347D01*
Y184302D01*
Y184258D01*
Y184214D01*
Y184170D01*
Y184125D01*
Y184081D01*
Y184037D01*
Y183993D01*
Y183948D01*
Y183904D01*
Y183860D01*
Y183815D01*
Y183771D01*
Y183727D01*
Y183683D01*
Y183638D01*
Y183594D01*
Y183550D01*
Y183505D01*
Y183461D01*
Y183417D01*
Y183372D01*
Y183328D01*
Y183284D01*
Y183240D01*
Y183195D01*
Y183151D01*
Y183107D01*
Y183062D01*
Y183018D01*
Y182974D01*
Y182930D01*
Y182885D01*
Y182841D01*
Y182797D01*
Y182752D01*
Y182708D01*
Y182664D01*
Y182620D01*
Y182575D01*
Y182531D01*
Y182487D01*
Y182442D01*
Y182398D01*
Y182354D01*
Y182309D01*
Y182265D01*
X193267D01*
Y182221D01*
Y182177D01*
Y182132D01*
Y182088D01*
Y182044D01*
Y182000D01*
Y181955D01*
Y181911D01*
Y181867D01*
Y181822D01*
Y181778D01*
Y181734D01*
Y181690D01*
Y181645D01*
Y181601D01*
Y181557D01*
Y181512D01*
Y181468D01*
Y181424D01*
Y181379D01*
Y181335D01*
Y181291D01*
Y181247D01*
Y181202D01*
Y181158D01*
Y181114D01*
X192116D01*
Y181158D01*
Y181202D01*
Y181247D01*
Y181291D01*
Y181335D01*
Y181379D01*
Y181424D01*
Y181468D01*
Y181512D01*
Y181557D01*
Y181601D01*
Y181645D01*
Y181690D01*
Y181734D01*
Y181778D01*
Y181822D01*
Y181867D01*
Y181911D01*
Y181955D01*
Y182000D01*
Y182044D01*
Y182088D01*
Y182132D01*
Y182177D01*
Y182221D01*
Y182265D01*
Y182309D01*
Y182354D01*
Y182398D01*
Y182442D01*
Y182487D01*
Y182531D01*
Y182575D01*
Y182620D01*
Y182664D01*
Y182708D01*
Y182752D01*
Y182797D01*
Y182841D01*
Y182885D01*
Y182930D01*
Y182974D01*
Y183018D01*
Y183062D01*
Y183107D01*
Y183151D01*
Y183195D01*
Y183240D01*
Y183284D01*
Y183328D01*
Y183372D01*
Y183417D01*
X190964D01*
Y183461D01*
Y183505D01*
Y183550D01*
Y183594D01*
Y183638D01*
Y183683D01*
Y183727D01*
Y183771D01*
Y183815D01*
Y183860D01*
Y183904D01*
Y183948D01*
Y183993D01*
Y184037D01*
Y184081D01*
Y184125D01*
Y184170D01*
Y184214D01*
Y184258D01*
Y184302D01*
Y184347D01*
Y184391D01*
Y184435D01*
Y184480D01*
Y184524D01*
Y184568D01*
X189813D01*
Y184613D01*
Y184657D01*
Y184701D01*
Y184745D01*
Y184790D01*
Y184834D01*
Y184878D01*
Y184923D01*
Y184967D01*
Y185011D01*
Y185055D01*
Y185100D01*
Y185144D01*
Y185188D01*
Y185233D01*
Y185277D01*
Y185321D01*
Y185365D01*
Y185410D01*
Y185454D01*
Y185498D01*
Y185543D01*
Y185587D01*
Y185631D01*
Y185676D01*
Y185720D01*
X188661D01*
Y185676D01*
Y185631D01*
Y185587D01*
Y185543D01*
Y185498D01*
Y185454D01*
Y185410D01*
Y185365D01*
Y185321D01*
Y185277D01*
Y185233D01*
Y185188D01*
Y185144D01*
Y185100D01*
Y185055D01*
Y185011D01*
Y184967D01*
Y184923D01*
Y184878D01*
Y184834D01*
Y184790D01*
Y184745D01*
Y184701D01*
Y184657D01*
Y184613D01*
Y184568D01*
X189813D01*
Y184524D01*
Y184480D01*
Y184435D01*
Y184391D01*
Y184347D01*
Y184302D01*
Y184258D01*
Y184214D01*
Y184170D01*
Y184125D01*
Y184081D01*
Y184037D01*
Y183993D01*
Y183948D01*
Y183904D01*
Y183860D01*
Y183815D01*
Y183771D01*
Y183727D01*
Y183683D01*
Y183638D01*
Y183594D01*
Y183550D01*
Y183505D01*
Y183461D01*
Y183417D01*
X190964D01*
Y183372D01*
Y183328D01*
Y183284D01*
Y183240D01*
Y183195D01*
Y183151D01*
Y183107D01*
Y183062D01*
Y183018D01*
Y182974D01*
Y182930D01*
Y182885D01*
Y182841D01*
Y182797D01*
Y182752D01*
Y182708D01*
Y182664D01*
Y182620D01*
Y182575D01*
Y182531D01*
Y182487D01*
Y182442D01*
Y182398D01*
Y182354D01*
Y182309D01*
Y182265D01*
Y182221D01*
Y182177D01*
Y182132D01*
Y182088D01*
Y182044D01*
Y182000D01*
Y181955D01*
Y181911D01*
Y181867D01*
Y181822D01*
Y181778D01*
Y181734D01*
Y181690D01*
Y181645D01*
Y181601D01*
Y181557D01*
Y181512D01*
Y181468D01*
Y181424D01*
Y181379D01*
Y181335D01*
Y181291D01*
Y181247D01*
Y181202D01*
Y181158D01*
Y181114D01*
X187510D01*
Y181158D01*
Y181202D01*
Y181247D01*
Y181291D01*
Y181335D01*
Y181379D01*
Y181424D01*
Y181468D01*
Y181512D01*
Y181557D01*
Y181601D01*
Y181645D01*
Y181690D01*
Y181734D01*
Y181778D01*
Y181822D01*
Y181867D01*
Y181911D01*
Y181955D01*
Y182000D01*
Y182044D01*
Y182088D01*
Y182132D01*
Y182177D01*
Y182221D01*
Y182265D01*
X189813D01*
Y182309D01*
Y182354D01*
Y182398D01*
Y182442D01*
Y182487D01*
Y182531D01*
Y182575D01*
Y182620D01*
Y182664D01*
Y182708D01*
Y182752D01*
Y182797D01*
Y182841D01*
Y182885D01*
Y182930D01*
Y182974D01*
Y183018D01*
Y183062D01*
Y183107D01*
Y183151D01*
Y183195D01*
Y183240D01*
Y183284D01*
Y183328D01*
Y183372D01*
Y183417D01*
X188661D01*
Y183461D01*
Y183505D01*
Y183550D01*
Y183594D01*
Y183638D01*
Y183683D01*
Y183727D01*
Y183771D01*
Y183815D01*
Y183860D01*
Y183904D01*
Y183948D01*
Y183993D01*
Y184037D01*
Y184081D01*
Y184125D01*
Y184170D01*
Y184214D01*
Y184258D01*
Y184302D01*
Y184347D01*
Y184391D01*
Y184435D01*
Y184480D01*
Y184524D01*
Y184568D01*
X187510D01*
Y184613D01*
Y184657D01*
Y184701D01*
Y184745D01*
Y184790D01*
Y184834D01*
Y184878D01*
Y184923D01*
Y184967D01*
Y185011D01*
Y185055D01*
Y185100D01*
Y185144D01*
Y185188D01*
Y185233D01*
Y185277D01*
Y185321D01*
Y185365D01*
Y185410D01*
Y185454D01*
Y185498D01*
Y185543D01*
Y185587D01*
Y185631D01*
Y185676D01*
Y185720D01*
Y185764D01*
Y185808D01*
Y185853D01*
Y185897D01*
Y185941D01*
Y185986D01*
Y186030D01*
Y186074D01*
Y186118D01*
Y186163D01*
Y186207D01*
Y186251D01*
Y186295D01*
Y186340D01*
Y186384D01*
Y186428D01*
Y186473D01*
Y186517D01*
Y186561D01*
Y186606D01*
Y186650D01*
Y186694D01*
Y186738D01*
Y186783D01*
Y186827D01*
Y186871D01*
Y186916D01*
Y186960D01*
Y187004D01*
Y187048D01*
Y187093D01*
Y187137D01*
Y187181D01*
Y187226D01*
Y187270D01*
Y187314D01*
Y187358D01*
Y187403D01*
Y187447D01*
Y187491D01*
Y187536D01*
Y187580D01*
Y187624D01*
Y187669D01*
Y187713D01*
Y187757D01*
Y187801D01*
Y187846D01*
Y187890D01*
Y187934D01*
Y187978D01*
Y188023D01*
Y188067D01*
Y188111D01*
Y188156D01*
Y188200D01*
Y188244D01*
Y188289D01*
Y188333D01*
Y188377D01*
Y188421D01*
Y188466D01*
Y188510D01*
Y188554D01*
Y188599D01*
Y188643D01*
Y188687D01*
Y188731D01*
Y188776D01*
Y188820D01*
Y188864D01*
Y188909D01*
Y188953D01*
Y188997D01*
Y189041D01*
Y189086D01*
Y189130D01*
Y189174D01*
Y189219D01*
Y189263D01*
Y189307D01*
Y189351D01*
Y189396D01*
Y189440D01*
Y189484D01*
Y189529D01*
Y189573D01*
Y189617D01*
Y189662D01*
Y189706D01*
Y189750D01*
Y189794D01*
Y189839D01*
Y189883D01*
Y189927D01*
Y189971D01*
Y190016D01*
Y190060D01*
Y190104D01*
Y190149D01*
Y190193D01*
Y190237D01*
Y190281D01*
Y190326D01*
X189813D01*
Y190281D01*
D02*
G37*
G36*
X186358Y189130D02*
Y189086D01*
Y189041D01*
Y188997D01*
Y188953D01*
Y188909D01*
Y188864D01*
Y188820D01*
Y188776D01*
Y188731D01*
Y188687D01*
Y188643D01*
Y188599D01*
Y188554D01*
Y188510D01*
Y188466D01*
Y188421D01*
Y188377D01*
Y188333D01*
Y188289D01*
Y188244D01*
Y188200D01*
Y188156D01*
Y188111D01*
Y188067D01*
Y188023D01*
Y187978D01*
Y187934D01*
Y187890D01*
Y187846D01*
Y187801D01*
Y187757D01*
Y187713D01*
Y187669D01*
Y187624D01*
Y187580D01*
Y187536D01*
Y187491D01*
Y187447D01*
Y187403D01*
Y187358D01*
Y187314D01*
Y187270D01*
Y187226D01*
Y187181D01*
Y187137D01*
Y187093D01*
Y187048D01*
Y187004D01*
Y186960D01*
Y186916D01*
Y186871D01*
Y186827D01*
Y186783D01*
Y186738D01*
Y186694D01*
Y186650D01*
Y186606D01*
Y186561D01*
Y186517D01*
Y186473D01*
Y186428D01*
Y186384D01*
Y186340D01*
Y186295D01*
Y186251D01*
Y186207D01*
Y186163D01*
Y186118D01*
Y186074D01*
Y186030D01*
Y185986D01*
Y185941D01*
Y185897D01*
Y185853D01*
Y185808D01*
Y185764D01*
Y185720D01*
Y185676D01*
Y185631D01*
Y185587D01*
Y185543D01*
Y185498D01*
Y185454D01*
Y185410D01*
Y185365D01*
Y185321D01*
Y185277D01*
Y185233D01*
Y185188D01*
Y185144D01*
Y185100D01*
Y185055D01*
Y185011D01*
Y184967D01*
Y184923D01*
Y184878D01*
Y184834D01*
Y184790D01*
Y184745D01*
Y184701D01*
Y184657D01*
Y184613D01*
Y184568D01*
Y184524D01*
Y184480D01*
Y184435D01*
Y184391D01*
Y184347D01*
Y184302D01*
Y184258D01*
Y184214D01*
Y184170D01*
Y184125D01*
Y184081D01*
Y184037D01*
Y183993D01*
Y183948D01*
Y183904D01*
Y183860D01*
Y183815D01*
Y183771D01*
Y183727D01*
Y183683D01*
Y183638D01*
Y183594D01*
Y183550D01*
Y183505D01*
Y183461D01*
Y183417D01*
Y183372D01*
Y183328D01*
Y183284D01*
Y183240D01*
Y183195D01*
Y183151D01*
Y183107D01*
Y183062D01*
Y183018D01*
Y182974D01*
Y182930D01*
Y182885D01*
Y182841D01*
Y182797D01*
Y182752D01*
Y182708D01*
Y182664D01*
Y182620D01*
Y182575D01*
Y182531D01*
Y182487D01*
Y182442D01*
Y182398D01*
Y182354D01*
Y182309D01*
Y182265D01*
Y182221D01*
Y182177D01*
Y182132D01*
Y182088D01*
Y182044D01*
Y182000D01*
Y181955D01*
Y181911D01*
Y181867D01*
Y181822D01*
Y181778D01*
Y181734D01*
Y181690D01*
Y181645D01*
Y181601D01*
Y181557D01*
Y181512D01*
Y181468D01*
Y181424D01*
Y181379D01*
Y181335D01*
Y181291D01*
Y181247D01*
Y181202D01*
Y181158D01*
Y181114D01*
X178297D01*
Y181158D01*
Y181202D01*
Y181247D01*
Y181291D01*
Y181335D01*
Y181379D01*
Y181424D01*
Y181468D01*
Y181512D01*
Y181557D01*
Y181601D01*
Y181645D01*
Y181690D01*
Y181734D01*
Y181778D01*
Y181822D01*
Y181867D01*
Y181911D01*
Y181955D01*
Y182000D01*
Y182044D01*
Y182088D01*
Y182132D01*
Y182177D01*
Y182221D01*
Y182265D01*
Y182309D01*
Y182354D01*
Y182398D01*
Y182442D01*
Y182487D01*
Y182531D01*
Y182575D01*
Y182620D01*
Y182664D01*
Y182708D01*
Y182752D01*
Y182797D01*
Y182841D01*
Y182885D01*
Y182930D01*
Y182974D01*
Y183018D01*
Y183062D01*
Y183107D01*
Y183151D01*
Y183195D01*
Y183240D01*
Y183284D01*
Y183328D01*
Y183372D01*
Y183417D01*
Y183461D01*
Y183505D01*
Y183550D01*
Y183594D01*
Y183638D01*
Y183683D01*
Y183727D01*
Y183771D01*
Y183815D01*
Y183860D01*
Y183904D01*
Y183948D01*
Y183993D01*
Y184037D01*
Y184081D01*
Y184125D01*
Y184170D01*
Y184214D01*
Y184258D01*
Y184302D01*
Y184347D01*
Y184391D01*
Y184435D01*
Y184480D01*
Y184524D01*
Y184568D01*
Y184613D01*
Y184657D01*
Y184701D01*
Y184745D01*
Y184790D01*
Y184834D01*
Y184878D01*
Y184923D01*
Y184967D01*
Y185011D01*
Y185055D01*
Y185100D01*
Y185144D01*
Y185188D01*
Y185233D01*
Y185277D01*
Y185321D01*
Y185365D01*
Y185410D01*
Y185454D01*
Y185498D01*
Y185543D01*
Y185587D01*
Y185631D01*
Y185676D01*
Y185720D01*
Y185764D01*
Y185808D01*
Y185853D01*
Y185897D01*
Y185941D01*
Y185986D01*
Y186030D01*
Y186074D01*
Y186118D01*
Y186163D01*
Y186207D01*
Y186251D01*
Y186295D01*
Y186340D01*
Y186384D01*
Y186428D01*
Y186473D01*
Y186517D01*
Y186561D01*
Y186606D01*
Y186650D01*
Y186694D01*
Y186738D01*
Y186783D01*
Y186827D01*
Y186871D01*
Y186916D01*
Y186960D01*
Y187004D01*
Y187048D01*
Y187093D01*
Y187137D01*
Y187181D01*
Y187226D01*
Y187270D01*
Y187314D01*
Y187358D01*
Y187403D01*
Y187447D01*
Y187491D01*
Y187536D01*
Y187580D01*
Y187624D01*
Y187669D01*
Y187713D01*
Y187757D01*
Y187801D01*
Y187846D01*
Y187890D01*
Y187934D01*
Y187978D01*
Y188023D01*
Y188067D01*
Y188111D01*
Y188156D01*
Y188200D01*
Y188244D01*
Y188289D01*
Y188333D01*
Y188377D01*
Y188421D01*
Y188466D01*
Y188510D01*
Y188554D01*
Y188599D01*
Y188643D01*
Y188687D01*
Y188731D01*
Y188776D01*
Y188820D01*
Y188864D01*
Y188909D01*
Y188953D01*
Y188997D01*
Y189041D01*
Y189086D01*
Y189130D01*
Y189174D01*
X186358D01*
Y189130D01*
D02*
G37*
%LPC*%
G36*
X187510Y204144D02*
X184055D01*
Y204100D01*
Y204055D01*
Y204011D01*
Y203967D01*
Y203923D01*
Y203878D01*
Y203834D01*
Y203790D01*
Y203745D01*
Y203701D01*
Y203657D01*
Y203613D01*
Y203568D01*
Y203524D01*
Y203480D01*
Y203435D01*
Y203391D01*
Y203347D01*
Y203303D01*
Y203258D01*
Y203214D01*
Y203170D01*
Y203125D01*
Y203081D01*
Y203037D01*
Y202993D01*
X182904D01*
Y202948D01*
Y202904D01*
Y202860D01*
Y202815D01*
Y202771D01*
Y202727D01*
Y202682D01*
Y202638D01*
Y202594D01*
Y202550D01*
Y202505D01*
Y202461D01*
Y202417D01*
Y202373D01*
Y202328D01*
Y202284D01*
Y202240D01*
Y202195D01*
Y202151D01*
Y202107D01*
Y202062D01*
Y202018D01*
Y201974D01*
Y201930D01*
Y201885D01*
Y201841D01*
Y201797D01*
Y201752D01*
Y201708D01*
Y201664D01*
Y201620D01*
Y201575D01*
Y201531D01*
Y201487D01*
Y201442D01*
Y201398D01*
Y201354D01*
Y201309D01*
Y201265D01*
Y201221D01*
Y201177D01*
Y201132D01*
Y201088D01*
Y201044D01*
Y200999D01*
Y200955D01*
Y200911D01*
Y200867D01*
Y200822D01*
Y200778D01*
Y200734D01*
Y200690D01*
X186358D01*
Y200734D01*
Y200778D01*
Y200822D01*
Y200867D01*
Y200911D01*
Y200955D01*
Y200999D01*
Y201044D01*
Y201088D01*
Y201132D01*
Y201177D01*
Y201221D01*
Y201265D01*
Y201309D01*
Y201354D01*
Y201398D01*
Y201442D01*
Y201487D01*
Y201531D01*
Y201575D01*
Y201620D01*
Y201664D01*
Y201708D01*
Y201752D01*
Y201797D01*
Y201841D01*
X185207D01*
Y201885D01*
Y201930D01*
Y201974D01*
Y202018D01*
Y202062D01*
Y202107D01*
Y202151D01*
Y202195D01*
Y202240D01*
Y202284D01*
Y202328D01*
Y202373D01*
Y202417D01*
Y202461D01*
Y202505D01*
Y202550D01*
Y202594D01*
Y202638D01*
Y202682D01*
Y202727D01*
Y202771D01*
Y202815D01*
Y202860D01*
Y202904D01*
Y202948D01*
Y202993D01*
X186358D01*
Y202948D01*
Y202904D01*
Y202860D01*
Y202815D01*
Y202771D01*
Y202727D01*
Y202682D01*
Y202638D01*
Y202594D01*
Y202550D01*
Y202505D01*
Y202461D01*
Y202417D01*
Y202373D01*
Y202328D01*
Y202284D01*
Y202240D01*
Y202195D01*
Y202151D01*
Y202107D01*
Y202062D01*
Y202018D01*
Y201974D01*
Y201930D01*
Y201885D01*
Y201841D01*
X187510D01*
Y201885D01*
Y201930D01*
Y201974D01*
Y202018D01*
Y202062D01*
Y202107D01*
Y202151D01*
Y202195D01*
Y202240D01*
Y202284D01*
Y202328D01*
Y202373D01*
Y202417D01*
Y202461D01*
Y202505D01*
Y202550D01*
Y202594D01*
Y202638D01*
Y202682D01*
Y202727D01*
Y202771D01*
Y202815D01*
Y202860D01*
Y202904D01*
Y202948D01*
Y202993D01*
Y203037D01*
Y203081D01*
Y203125D01*
Y203170D01*
Y203214D01*
Y203258D01*
Y203303D01*
Y203347D01*
Y203391D01*
Y203435D01*
Y203480D01*
Y203524D01*
Y203568D01*
Y203613D01*
Y203657D01*
Y203701D01*
Y203745D01*
Y203790D01*
Y203834D01*
Y203878D01*
Y203923D01*
Y203967D01*
Y204011D01*
Y204055D01*
Y204100D01*
Y204144D01*
D02*
G37*
G36*
X194419D02*
X190964D01*
Y204100D01*
Y204055D01*
Y204011D01*
Y203967D01*
Y203923D01*
Y203878D01*
Y203834D01*
Y203790D01*
Y203745D01*
Y203701D01*
Y203657D01*
Y203613D01*
Y203568D01*
Y203524D01*
Y203480D01*
Y203435D01*
Y203391D01*
Y203347D01*
Y203303D01*
Y203258D01*
Y203214D01*
Y203170D01*
Y203125D01*
Y203081D01*
Y203037D01*
Y202993D01*
X189813D01*
Y202948D01*
Y202904D01*
Y202860D01*
Y202815D01*
Y202771D01*
Y202727D01*
Y202682D01*
Y202638D01*
Y202594D01*
Y202550D01*
Y202505D01*
Y202461D01*
Y202417D01*
Y202373D01*
Y202328D01*
Y202284D01*
Y202240D01*
Y202195D01*
Y202151D01*
Y202107D01*
Y202062D01*
Y202018D01*
Y201974D01*
Y201930D01*
Y201885D01*
Y201841D01*
X188661D01*
Y201797D01*
Y201752D01*
Y201708D01*
Y201664D01*
Y201620D01*
Y201575D01*
Y201531D01*
Y201487D01*
Y201442D01*
Y201398D01*
Y201354D01*
Y201309D01*
Y201265D01*
Y201221D01*
Y201177D01*
Y201132D01*
Y201088D01*
Y201044D01*
Y200999D01*
Y200955D01*
Y200911D01*
Y200867D01*
Y200822D01*
Y200778D01*
Y200734D01*
Y200690D01*
X189813D01*
Y200645D01*
Y200601D01*
Y200557D01*
Y200512D01*
Y200468D01*
Y200424D01*
Y200379D01*
Y200335D01*
Y200291D01*
Y200247D01*
Y200202D01*
Y200158D01*
Y200114D01*
Y200069D01*
Y200025D01*
Y199981D01*
Y199937D01*
Y199892D01*
Y199848D01*
Y199804D01*
Y199759D01*
Y199715D01*
Y199671D01*
Y199627D01*
Y199582D01*
Y199538D01*
X190964D01*
Y199582D01*
Y199627D01*
Y199671D01*
Y199715D01*
Y199759D01*
Y199804D01*
Y199848D01*
Y199892D01*
Y199937D01*
Y199981D01*
Y200025D01*
Y200069D01*
Y200114D01*
Y200158D01*
Y200202D01*
Y200247D01*
Y200291D01*
Y200335D01*
Y200379D01*
Y200424D01*
Y200468D01*
Y200512D01*
Y200557D01*
Y200601D01*
Y200645D01*
Y200690D01*
X192116D01*
Y200734D01*
Y200778D01*
Y200822D01*
Y200867D01*
Y200911D01*
Y200955D01*
Y200999D01*
Y201044D01*
Y201088D01*
Y201132D01*
Y201177D01*
Y201221D01*
Y201265D01*
Y201309D01*
Y201354D01*
Y201398D01*
Y201442D01*
Y201487D01*
Y201531D01*
Y201575D01*
Y201620D01*
Y201664D01*
Y201708D01*
Y201752D01*
Y201797D01*
Y201841D01*
X193267D01*
Y201797D01*
Y201752D01*
Y201708D01*
Y201664D01*
Y201620D01*
Y201575D01*
Y201531D01*
Y201487D01*
Y201442D01*
Y201398D01*
Y201354D01*
Y201309D01*
Y201265D01*
Y201221D01*
Y201177D01*
Y201132D01*
Y201088D01*
Y201044D01*
Y200999D01*
Y200955D01*
Y200911D01*
Y200867D01*
Y200822D01*
Y200778D01*
Y200734D01*
Y200690D01*
X194419D01*
Y200734D01*
Y200778D01*
Y200822D01*
Y200867D01*
Y200911D01*
Y200955D01*
Y200999D01*
Y201044D01*
Y201088D01*
Y201132D01*
Y201177D01*
Y201221D01*
Y201265D01*
Y201309D01*
Y201354D01*
Y201398D01*
Y201442D01*
Y201487D01*
Y201531D01*
Y201575D01*
Y201620D01*
Y201664D01*
Y201708D01*
Y201752D01*
Y201797D01*
Y201841D01*
Y201885D01*
Y201930D01*
Y201974D01*
Y202018D01*
Y202062D01*
Y202107D01*
Y202151D01*
Y202195D01*
Y202240D01*
Y202284D01*
Y202328D01*
Y202373D01*
Y202417D01*
Y202461D01*
Y202505D01*
Y202550D01*
Y202594D01*
Y202638D01*
Y202682D01*
Y202727D01*
Y202771D01*
Y202815D01*
Y202860D01*
Y202904D01*
Y202948D01*
Y202993D01*
Y203037D01*
Y203081D01*
Y203125D01*
Y203170D01*
Y203214D01*
Y203258D01*
Y203303D01*
Y203347D01*
Y203391D01*
Y203435D01*
Y203480D01*
Y203524D01*
Y203568D01*
Y203613D01*
Y203657D01*
Y203701D01*
Y203745D01*
Y203790D01*
Y203834D01*
Y203878D01*
Y203923D01*
Y203967D01*
Y204011D01*
Y204055D01*
Y204100D01*
Y204144D01*
D02*
G37*
G36*
X205934Y198386D02*
X204782D01*
Y198342D01*
Y198298D01*
Y198254D01*
Y198209D01*
Y198165D01*
Y198121D01*
Y198076D01*
Y198032D01*
Y197988D01*
Y197944D01*
Y197899D01*
Y197855D01*
Y197811D01*
Y197766D01*
Y197722D01*
Y197678D01*
Y197634D01*
Y197589D01*
Y197545D01*
Y197501D01*
Y197456D01*
Y197412D01*
Y197368D01*
Y197324D01*
Y197279D01*
Y197235D01*
X205934D01*
Y197279D01*
Y197324D01*
Y197368D01*
Y197412D01*
Y197456D01*
Y197501D01*
Y197545D01*
Y197589D01*
Y197634D01*
Y197678D01*
Y197722D01*
Y197766D01*
Y197811D01*
Y197855D01*
Y197899D01*
Y197944D01*
Y197988D01*
Y198032D01*
Y198076D01*
Y198121D01*
Y198165D01*
Y198209D01*
Y198254D01*
Y198298D01*
Y198342D01*
Y198386D01*
D02*
G37*
G36*
X192116D02*
X190964D01*
Y198342D01*
Y198298D01*
Y198254D01*
Y198209D01*
Y198165D01*
Y198121D01*
Y198076D01*
Y198032D01*
Y197988D01*
Y197944D01*
Y197899D01*
Y197855D01*
Y197811D01*
Y197766D01*
Y197722D01*
Y197678D01*
Y197634D01*
Y197589D01*
Y197545D01*
Y197501D01*
Y197456D01*
Y197412D01*
Y197368D01*
Y197324D01*
Y197279D01*
Y197235D01*
X192116D01*
Y197279D01*
Y197324D01*
Y197368D01*
Y197412D01*
Y197456D01*
Y197501D01*
Y197545D01*
Y197589D01*
Y197634D01*
Y197678D01*
Y197722D01*
Y197766D01*
Y197811D01*
Y197855D01*
Y197899D01*
Y197944D01*
Y197988D01*
Y198032D01*
Y198076D01*
Y198121D01*
Y198165D01*
Y198209D01*
Y198254D01*
Y198298D01*
Y198342D01*
Y198386D01*
D02*
G37*
G36*
Y196083D02*
X190964D01*
Y196039D01*
Y195995D01*
Y195950D01*
Y195906D01*
Y195862D01*
Y195818D01*
Y195773D01*
Y195729D01*
Y195685D01*
Y195641D01*
Y195596D01*
Y195552D01*
Y195508D01*
Y195463D01*
Y195419D01*
Y195375D01*
Y195331D01*
Y195286D01*
Y195242D01*
Y195198D01*
Y195153D01*
Y195109D01*
Y195065D01*
Y195020D01*
Y194976D01*
Y194932D01*
X192116D01*
Y194976D01*
Y195020D01*
Y195065D01*
Y195109D01*
Y195153D01*
Y195198D01*
Y195242D01*
Y195286D01*
Y195331D01*
Y195375D01*
Y195419D01*
Y195463D01*
Y195508D01*
Y195552D01*
Y195596D01*
Y195641D01*
Y195685D01*
Y195729D01*
Y195773D01*
Y195818D01*
Y195862D01*
Y195906D01*
Y195950D01*
Y195995D01*
Y196039D01*
Y196083D01*
D02*
G37*
G36*
X181752Y200690D02*
X180601D01*
Y200645D01*
Y200601D01*
Y200557D01*
Y200512D01*
Y200468D01*
Y200424D01*
Y200379D01*
Y200335D01*
Y200291D01*
Y200247D01*
Y200202D01*
Y200158D01*
Y200114D01*
Y200069D01*
Y200025D01*
Y199981D01*
Y199937D01*
Y199892D01*
Y199848D01*
Y199804D01*
Y199759D01*
Y199715D01*
Y199671D01*
Y199627D01*
Y199582D01*
Y199538D01*
X181752D01*
Y199494D01*
Y199449D01*
Y199405D01*
Y199361D01*
Y199317D01*
Y199272D01*
Y199228D01*
Y199184D01*
Y199139D01*
Y199095D01*
Y199051D01*
Y199006D01*
Y198962D01*
Y198918D01*
Y198874D01*
Y198829D01*
Y198785D01*
Y198741D01*
Y198696D01*
Y198652D01*
Y198608D01*
Y198564D01*
Y198519D01*
Y198475D01*
Y198431D01*
Y198386D01*
X182904D01*
Y198342D01*
Y198298D01*
Y198254D01*
Y198209D01*
Y198165D01*
Y198121D01*
Y198076D01*
Y198032D01*
Y197988D01*
Y197944D01*
Y197899D01*
Y197855D01*
Y197811D01*
Y197766D01*
Y197722D01*
Y197678D01*
Y197634D01*
Y197589D01*
Y197545D01*
Y197501D01*
Y197456D01*
Y197412D01*
Y197368D01*
Y197324D01*
Y197279D01*
Y197235D01*
X185207D01*
Y197191D01*
Y197146D01*
Y197102D01*
Y197058D01*
Y197013D01*
Y196969D01*
Y196925D01*
Y196881D01*
Y196836D01*
Y196792D01*
Y196748D01*
Y196704D01*
Y196659D01*
Y196615D01*
Y196571D01*
Y196526D01*
Y196482D01*
Y196438D01*
Y196393D01*
Y196349D01*
Y196305D01*
Y196261D01*
Y196216D01*
Y196172D01*
Y196128D01*
Y196083D01*
X186358D01*
Y196039D01*
Y195995D01*
Y195950D01*
Y195906D01*
Y195862D01*
Y195818D01*
Y195773D01*
Y195729D01*
Y195685D01*
Y195641D01*
Y195596D01*
Y195552D01*
Y195508D01*
Y195463D01*
Y195419D01*
Y195375D01*
Y195331D01*
Y195286D01*
Y195242D01*
Y195198D01*
Y195153D01*
Y195109D01*
Y195065D01*
Y195020D01*
Y194976D01*
Y194932D01*
X187510D01*
Y194976D01*
Y195020D01*
Y195065D01*
Y195109D01*
Y195153D01*
Y195198D01*
Y195242D01*
Y195286D01*
Y195331D01*
Y195375D01*
Y195419D01*
Y195463D01*
Y195508D01*
Y195552D01*
Y195596D01*
Y195641D01*
Y195685D01*
Y195729D01*
Y195773D01*
Y195818D01*
Y195862D01*
Y195906D01*
Y195950D01*
Y195995D01*
Y196039D01*
Y196083D01*
Y196128D01*
Y196172D01*
Y196216D01*
Y196261D01*
Y196305D01*
Y196349D01*
Y196393D01*
Y196438D01*
Y196482D01*
Y196526D01*
Y196571D01*
Y196615D01*
Y196659D01*
Y196704D01*
Y196748D01*
Y196792D01*
Y196836D01*
Y196881D01*
Y196925D01*
Y196969D01*
Y197013D01*
Y197058D01*
Y197102D01*
Y197146D01*
Y197191D01*
Y197235D01*
X185207D01*
Y197279D01*
Y197324D01*
Y197368D01*
Y197412D01*
Y197456D01*
Y197501D01*
Y197545D01*
Y197589D01*
Y197634D01*
Y197678D01*
Y197722D01*
Y197766D01*
Y197811D01*
Y197855D01*
Y197899D01*
Y197944D01*
Y197988D01*
Y198032D01*
Y198076D01*
Y198121D01*
Y198165D01*
Y198209D01*
Y198254D01*
Y198298D01*
Y198342D01*
Y198386D01*
X184055D01*
Y198431D01*
Y198475D01*
Y198519D01*
Y198564D01*
Y198608D01*
Y198652D01*
Y198696D01*
Y198741D01*
Y198785D01*
Y198829D01*
Y198874D01*
Y198918D01*
Y198962D01*
Y199006D01*
Y199051D01*
Y199095D01*
Y199139D01*
Y199184D01*
Y199228D01*
Y199272D01*
Y199317D01*
Y199361D01*
Y199405D01*
Y199449D01*
Y199494D01*
Y199538D01*
X181752D01*
Y199582D01*
Y199627D01*
Y199671D01*
Y199715D01*
Y199759D01*
Y199804D01*
Y199848D01*
Y199892D01*
Y199937D01*
Y199981D01*
Y200025D01*
Y200069D01*
Y200114D01*
Y200158D01*
Y200202D01*
Y200247D01*
Y200291D01*
Y200335D01*
Y200379D01*
Y200424D01*
Y200468D01*
Y200512D01*
Y200557D01*
Y200601D01*
Y200645D01*
Y200690D01*
D02*
G37*
G36*
X188661Y199538D02*
X185207D01*
Y199494D01*
Y199449D01*
Y199405D01*
Y199361D01*
Y199317D01*
Y199272D01*
Y199228D01*
Y199184D01*
Y199139D01*
Y199095D01*
Y199051D01*
Y199006D01*
Y198962D01*
Y198918D01*
Y198874D01*
Y198829D01*
Y198785D01*
Y198741D01*
Y198696D01*
Y198652D01*
Y198608D01*
Y198564D01*
Y198519D01*
Y198475D01*
Y198431D01*
Y198386D01*
X187510D01*
Y198342D01*
Y198298D01*
Y198254D01*
Y198209D01*
Y198165D01*
Y198121D01*
Y198076D01*
Y198032D01*
Y197988D01*
Y197944D01*
Y197899D01*
Y197855D01*
Y197811D01*
Y197766D01*
Y197722D01*
Y197678D01*
Y197634D01*
Y197589D01*
Y197545D01*
Y197501D01*
Y197456D01*
Y197412D01*
Y197368D01*
Y197324D01*
Y197279D01*
Y197235D01*
X188661D01*
Y197191D01*
Y197146D01*
Y197102D01*
Y197058D01*
Y197013D01*
Y196969D01*
Y196925D01*
Y196881D01*
Y196836D01*
Y196792D01*
Y196748D01*
Y196704D01*
Y196659D01*
Y196615D01*
Y196571D01*
Y196526D01*
Y196482D01*
Y196438D01*
Y196393D01*
Y196349D01*
Y196305D01*
Y196261D01*
Y196216D01*
Y196172D01*
Y196128D01*
Y196083D01*
Y196039D01*
Y195995D01*
Y195950D01*
Y195906D01*
Y195862D01*
Y195818D01*
Y195773D01*
Y195729D01*
Y195685D01*
Y195641D01*
Y195596D01*
Y195552D01*
Y195508D01*
Y195463D01*
Y195419D01*
Y195375D01*
Y195331D01*
Y195286D01*
Y195242D01*
Y195198D01*
Y195153D01*
Y195109D01*
Y195065D01*
Y195020D01*
Y194976D01*
Y194932D01*
X189813D01*
Y194888D01*
Y194843D01*
Y194799D01*
Y194755D01*
Y194711D01*
Y194666D01*
Y194622D01*
Y194578D01*
Y194533D01*
Y194489D01*
Y194445D01*
Y194400D01*
Y194356D01*
Y194312D01*
Y194268D01*
Y194223D01*
Y194179D01*
Y194135D01*
Y194090D01*
Y194046D01*
Y194002D01*
Y193957D01*
Y193913D01*
Y193869D01*
Y193825D01*
Y193780D01*
Y193736D01*
Y193692D01*
Y193648D01*
Y193603D01*
Y193559D01*
Y193515D01*
Y193470D01*
Y193426D01*
Y193382D01*
Y193338D01*
Y193293D01*
Y193249D01*
Y193205D01*
Y193160D01*
Y193116D01*
Y193072D01*
Y193027D01*
Y192983D01*
Y192939D01*
Y192895D01*
Y192850D01*
Y192806D01*
Y192762D01*
Y192718D01*
Y192673D01*
Y192629D01*
Y192585D01*
Y192540D01*
Y192496D01*
Y192452D01*
Y192407D01*
Y192363D01*
Y192319D01*
Y192275D01*
Y192230D01*
Y192186D01*
Y192142D01*
Y192097D01*
Y192053D01*
Y192009D01*
Y191964D01*
Y191920D01*
Y191876D01*
Y191832D01*
Y191787D01*
Y191743D01*
Y191699D01*
Y191655D01*
Y191610D01*
Y191566D01*
Y191522D01*
Y191477D01*
X190964D01*
Y191522D01*
Y191566D01*
Y191610D01*
Y191655D01*
Y191699D01*
Y191743D01*
Y191787D01*
Y191832D01*
Y191876D01*
Y191920D01*
Y191964D01*
Y192009D01*
Y192053D01*
Y192097D01*
Y192142D01*
Y192186D01*
Y192230D01*
Y192275D01*
Y192319D01*
Y192363D01*
Y192407D01*
Y192452D01*
Y192496D01*
Y192540D01*
Y192585D01*
Y192629D01*
Y192673D01*
Y192718D01*
Y192762D01*
Y192806D01*
Y192850D01*
Y192895D01*
Y192939D01*
Y192983D01*
Y193027D01*
Y193072D01*
Y193116D01*
Y193160D01*
Y193205D01*
Y193249D01*
Y193293D01*
Y193338D01*
Y193382D01*
Y193426D01*
Y193470D01*
Y193515D01*
Y193559D01*
Y193603D01*
Y193648D01*
Y193692D01*
Y193736D01*
Y193780D01*
Y193825D01*
Y193869D01*
Y193913D01*
Y193957D01*
Y194002D01*
Y194046D01*
Y194090D01*
Y194135D01*
Y194179D01*
Y194223D01*
Y194268D01*
Y194312D01*
Y194356D01*
Y194400D01*
Y194445D01*
Y194489D01*
Y194533D01*
Y194578D01*
Y194622D01*
Y194666D01*
Y194711D01*
Y194755D01*
Y194799D01*
Y194843D01*
Y194888D01*
Y194932D01*
X189813D01*
Y194976D01*
Y195020D01*
Y195065D01*
Y195109D01*
Y195153D01*
Y195198D01*
Y195242D01*
Y195286D01*
Y195331D01*
Y195375D01*
Y195419D01*
Y195463D01*
Y195508D01*
Y195552D01*
Y195596D01*
Y195641D01*
Y195685D01*
Y195729D01*
Y195773D01*
Y195818D01*
Y195862D01*
Y195906D01*
Y195950D01*
Y195995D01*
Y196039D01*
Y196083D01*
Y196128D01*
Y196172D01*
Y196216D01*
Y196261D01*
Y196305D01*
Y196349D01*
Y196393D01*
Y196438D01*
Y196482D01*
Y196526D01*
Y196571D01*
Y196615D01*
Y196659D01*
Y196704D01*
Y196748D01*
Y196792D01*
Y196836D01*
Y196881D01*
Y196925D01*
Y196969D01*
Y197013D01*
Y197058D01*
Y197102D01*
Y197146D01*
Y197191D01*
Y197235D01*
X188661D01*
Y197279D01*
Y197324D01*
Y197368D01*
Y197412D01*
Y197456D01*
Y197501D01*
Y197545D01*
Y197589D01*
Y197634D01*
Y197678D01*
Y197722D01*
Y197766D01*
Y197811D01*
Y197855D01*
Y197899D01*
Y197944D01*
Y197988D01*
Y198032D01*
Y198076D01*
Y198121D01*
Y198165D01*
Y198209D01*
Y198254D01*
Y198298D01*
Y198342D01*
Y198386D01*
Y198431D01*
Y198475D01*
Y198519D01*
Y198564D01*
Y198608D01*
Y198652D01*
Y198696D01*
Y198741D01*
Y198785D01*
Y198829D01*
Y198874D01*
Y198918D01*
Y198962D01*
Y199006D01*
Y199051D01*
Y199095D01*
Y199139D01*
Y199184D01*
Y199228D01*
Y199272D01*
Y199317D01*
Y199361D01*
Y199405D01*
Y199449D01*
Y199494D01*
Y199538D01*
D02*
G37*
G36*
X193267Y193780D02*
X192116D01*
Y193736D01*
Y193692D01*
Y193648D01*
Y193603D01*
Y193559D01*
Y193515D01*
Y193470D01*
Y193426D01*
Y193382D01*
Y193338D01*
Y193293D01*
Y193249D01*
Y193205D01*
Y193160D01*
Y193116D01*
Y193072D01*
Y193027D01*
Y192983D01*
Y192939D01*
Y192895D01*
Y192850D01*
Y192806D01*
Y192762D01*
Y192718D01*
Y192673D01*
Y192629D01*
Y192585D01*
Y192540D01*
Y192496D01*
Y192452D01*
Y192407D01*
Y192363D01*
Y192319D01*
Y192275D01*
Y192230D01*
Y192186D01*
Y192142D01*
Y192097D01*
Y192053D01*
Y192009D01*
Y191964D01*
Y191920D01*
Y191876D01*
Y191832D01*
Y191787D01*
Y191743D01*
Y191699D01*
Y191655D01*
Y191610D01*
Y191566D01*
Y191522D01*
Y191477D01*
Y191433D01*
Y191389D01*
Y191344D01*
Y191300D01*
Y191256D01*
Y191212D01*
Y191167D01*
Y191123D01*
Y191079D01*
Y191034D01*
Y190990D01*
Y190946D01*
Y190902D01*
Y190857D01*
Y190813D01*
Y190769D01*
Y190724D01*
Y190680D01*
Y190636D01*
Y190592D01*
Y190547D01*
Y190503D01*
Y190459D01*
Y190414D01*
Y190370D01*
Y190326D01*
X193267D01*
Y190370D01*
Y190414D01*
Y190459D01*
Y190503D01*
Y190547D01*
Y190592D01*
Y190636D01*
Y190680D01*
Y190724D01*
Y190769D01*
Y190813D01*
Y190857D01*
Y190902D01*
Y190946D01*
Y190990D01*
Y191034D01*
Y191079D01*
Y191123D01*
Y191167D01*
Y191212D01*
Y191256D01*
Y191300D01*
Y191344D01*
Y191389D01*
Y191433D01*
Y191477D01*
Y191522D01*
Y191566D01*
Y191610D01*
Y191655D01*
Y191699D01*
Y191743D01*
Y191787D01*
Y191832D01*
Y191876D01*
Y191920D01*
Y191964D01*
Y192009D01*
Y192053D01*
Y192097D01*
Y192142D01*
Y192186D01*
Y192230D01*
Y192275D01*
Y192319D01*
Y192363D01*
Y192407D01*
Y192452D01*
Y192496D01*
Y192540D01*
Y192585D01*
Y192629D01*
Y192673D01*
Y192718D01*
Y192762D01*
Y192806D01*
Y192850D01*
Y192895D01*
Y192939D01*
Y192983D01*
Y193027D01*
Y193072D01*
Y193116D01*
Y193160D01*
Y193205D01*
Y193249D01*
Y193293D01*
Y193338D01*
Y193382D01*
Y193426D01*
Y193470D01*
Y193515D01*
Y193559D01*
Y193603D01*
Y193648D01*
Y193692D01*
Y193736D01*
Y193780D01*
D02*
G37*
G36*
X205934Y190326D02*
X202479D01*
Y190281D01*
Y190237D01*
Y190193D01*
Y190149D01*
Y190104D01*
Y190060D01*
Y190016D01*
Y189971D01*
Y189927D01*
Y189883D01*
Y189839D01*
Y189794D01*
Y189750D01*
Y189706D01*
Y189662D01*
Y189617D01*
Y189573D01*
Y189529D01*
Y189484D01*
Y189440D01*
Y189396D01*
Y189351D01*
Y189307D01*
Y189263D01*
Y189219D01*
Y189174D01*
Y189130D01*
Y189086D01*
Y189041D01*
Y188997D01*
Y188953D01*
Y188909D01*
Y188864D01*
Y188820D01*
Y188776D01*
Y188731D01*
Y188687D01*
Y188643D01*
Y188599D01*
Y188554D01*
Y188510D01*
Y188466D01*
Y188421D01*
Y188377D01*
Y188333D01*
Y188289D01*
Y188244D01*
Y188200D01*
Y188156D01*
Y188111D01*
Y188067D01*
Y188023D01*
Y187978D01*
Y187934D01*
Y187890D01*
Y187846D01*
Y187801D01*
Y187757D01*
Y187713D01*
Y187669D01*
Y187624D01*
Y187580D01*
Y187536D01*
Y187491D01*
Y187447D01*
Y187403D01*
Y187358D01*
Y187314D01*
Y187270D01*
Y187226D01*
Y187181D01*
Y187137D01*
Y187093D01*
Y187048D01*
Y187004D01*
Y186960D01*
Y186916D01*
Y186871D01*
X205934D01*
Y186916D01*
Y186960D01*
Y187004D01*
Y187048D01*
Y187093D01*
Y187137D01*
Y187181D01*
Y187226D01*
Y187270D01*
Y187314D01*
Y187358D01*
Y187403D01*
Y187447D01*
Y187491D01*
Y187536D01*
Y187580D01*
Y187624D01*
Y187669D01*
Y187713D01*
Y187757D01*
Y187801D01*
Y187846D01*
Y187890D01*
Y187934D01*
Y187978D01*
Y188023D01*
Y188067D01*
Y188111D01*
Y188156D01*
Y188200D01*
Y188244D01*
Y188289D01*
Y188333D01*
Y188377D01*
Y188421D01*
Y188466D01*
Y188510D01*
Y188554D01*
Y188599D01*
Y188643D01*
Y188687D01*
Y188731D01*
Y188776D01*
Y188820D01*
Y188864D01*
Y188909D01*
Y188953D01*
Y188997D01*
Y189041D01*
Y189086D01*
Y189130D01*
Y189174D01*
Y189219D01*
Y189263D01*
Y189307D01*
Y189351D01*
Y189396D01*
Y189440D01*
Y189484D01*
Y189529D01*
Y189573D01*
Y189617D01*
Y189662D01*
Y189706D01*
Y189750D01*
Y189794D01*
Y189839D01*
Y189883D01*
Y189927D01*
Y189971D01*
Y190016D01*
Y190060D01*
Y190104D01*
Y190149D01*
Y190193D01*
Y190237D01*
Y190281D01*
Y190326D01*
D02*
G37*
%LPD*%
G36*
X204782Y189130D02*
Y189086D01*
Y189041D01*
Y188997D01*
Y188953D01*
Y188909D01*
Y188864D01*
Y188820D01*
Y188776D01*
Y188731D01*
Y188687D01*
Y188643D01*
Y188599D01*
Y188554D01*
Y188510D01*
Y188466D01*
Y188421D01*
Y188377D01*
Y188333D01*
Y188289D01*
Y188244D01*
Y188200D01*
Y188156D01*
Y188111D01*
Y188067D01*
Y188023D01*
X203631D01*
Y188067D01*
Y188111D01*
Y188156D01*
Y188200D01*
Y188244D01*
Y188289D01*
Y188333D01*
Y188377D01*
Y188421D01*
Y188466D01*
Y188510D01*
Y188554D01*
Y188599D01*
Y188643D01*
Y188687D01*
Y188731D01*
Y188776D01*
Y188820D01*
Y188864D01*
Y188909D01*
Y188953D01*
Y188997D01*
Y189041D01*
Y189086D01*
Y189130D01*
Y189174D01*
X204782D01*
Y189130D01*
D02*
G37*
%LPC*%
G36*
X210451Y213312D02*
X204871D01*
Y213268D01*
X204827D01*
Y213223D01*
Y213179D01*
Y213135D01*
Y213090D01*
Y213046D01*
Y213002D01*
Y212958D01*
Y212913D01*
Y212869D01*
Y212825D01*
Y212780D01*
Y212736D01*
Y212692D01*
Y212648D01*
Y212603D01*
Y212559D01*
Y212515D01*
Y212470D01*
Y212426D01*
Y212382D01*
Y212337D01*
Y212293D01*
Y212249D01*
Y212205D01*
Y212160D01*
Y212116D01*
Y212072D01*
Y212028D01*
Y211983D01*
Y211939D01*
Y211895D01*
Y211850D01*
Y211806D01*
Y211762D01*
Y211718D01*
Y211673D01*
Y211629D01*
Y211585D01*
Y211540D01*
Y211496D01*
Y211452D01*
Y211407D01*
Y211363D01*
Y211319D01*
Y211275D01*
Y211230D01*
Y211186D01*
Y211142D01*
Y211097D01*
Y211053D01*
Y211009D01*
Y210964D01*
Y210920D01*
Y210876D01*
Y210832D01*
Y210787D01*
Y210743D01*
Y210699D01*
Y210654D01*
Y210610D01*
Y210566D01*
Y210522D01*
Y210477D01*
Y210433D01*
Y210389D01*
Y210345D01*
Y210300D01*
Y210256D01*
Y210212D01*
Y210167D01*
Y210123D01*
Y210079D01*
Y210034D01*
Y209990D01*
Y209946D01*
Y209902D01*
Y209857D01*
Y209813D01*
Y209769D01*
Y209724D01*
Y209680D01*
Y209636D01*
Y209592D01*
Y209547D01*
Y209503D01*
Y209459D01*
Y209414D01*
Y209370D01*
Y209326D01*
Y209282D01*
Y209237D01*
Y209193D01*
Y209149D01*
Y209104D01*
Y209060D01*
Y209016D01*
Y208972D01*
Y208927D01*
Y208883D01*
Y208839D01*
Y208794D01*
Y208750D01*
Y208706D01*
Y208662D01*
Y208617D01*
Y208573D01*
Y208529D01*
Y208484D01*
Y208440D01*
Y208396D01*
Y208351D01*
Y208307D01*
Y208263D01*
Y208219D01*
Y208174D01*
Y208130D01*
Y208086D01*
Y208042D01*
Y207997D01*
Y207953D01*
Y207909D01*
Y207864D01*
Y207820D01*
Y207776D01*
Y207731D01*
Y207687D01*
X204871D01*
Y207643D01*
X210496D01*
Y207687D01*
Y207731D01*
Y207776D01*
Y207820D01*
Y207864D01*
Y207909D01*
Y207953D01*
Y207997D01*
Y208042D01*
Y208086D01*
Y208130D01*
Y208174D01*
Y208219D01*
Y208263D01*
Y208307D01*
Y208351D01*
Y208396D01*
Y208440D01*
Y208484D01*
Y208529D01*
Y208573D01*
Y208617D01*
Y208662D01*
Y208706D01*
Y208750D01*
Y208794D01*
Y208839D01*
Y208883D01*
Y208927D01*
Y208972D01*
Y209016D01*
Y209060D01*
Y209104D01*
Y209149D01*
Y209193D01*
Y209237D01*
Y209282D01*
Y209326D01*
Y209370D01*
Y209414D01*
Y209459D01*
Y209503D01*
Y209547D01*
Y209592D01*
Y209636D01*
Y209680D01*
Y209724D01*
Y209769D01*
Y209813D01*
Y209857D01*
Y209902D01*
Y209946D01*
Y209990D01*
Y210034D01*
Y210079D01*
Y210123D01*
Y210167D01*
Y210212D01*
Y210256D01*
Y210300D01*
Y210345D01*
Y210389D01*
Y210433D01*
Y210477D01*
Y210522D01*
Y210566D01*
Y210610D01*
Y210654D01*
Y210699D01*
Y210743D01*
Y210787D01*
Y210832D01*
Y210876D01*
Y210920D01*
Y210964D01*
Y211009D01*
Y211053D01*
Y211097D01*
Y211142D01*
Y211186D01*
Y211230D01*
Y211275D01*
Y211319D01*
Y211363D01*
Y211407D01*
Y211452D01*
Y211496D01*
Y211540D01*
Y211585D01*
Y211629D01*
Y211673D01*
Y211718D01*
Y211762D01*
Y211806D01*
Y211850D01*
Y211895D01*
Y211939D01*
Y211983D01*
Y212028D01*
Y212072D01*
Y212116D01*
Y212160D01*
Y212205D01*
Y212249D01*
Y212293D01*
Y212337D01*
Y212382D01*
Y212426D01*
Y212470D01*
Y212515D01*
Y212559D01*
Y212603D01*
Y212648D01*
Y212692D01*
Y212736D01*
Y212780D01*
Y212825D01*
Y212869D01*
Y212913D01*
Y212958D01*
Y213002D01*
Y213046D01*
Y213090D01*
Y213135D01*
Y213179D01*
Y213223D01*
Y213268D01*
X210451D01*
Y213312D01*
D02*
G37*
%LPD*%
G36*
X209388Y212160D02*
Y212116D01*
Y212072D01*
Y212028D01*
Y211983D01*
Y211939D01*
Y211895D01*
Y211850D01*
Y211806D01*
Y211762D01*
Y211718D01*
Y211673D01*
Y211629D01*
Y211585D01*
Y211540D01*
Y211496D01*
Y211452D01*
Y211407D01*
Y211363D01*
Y211319D01*
Y211275D01*
Y211230D01*
Y211186D01*
Y211142D01*
Y211097D01*
Y211053D01*
Y211009D01*
Y210964D01*
Y210920D01*
Y210876D01*
Y210832D01*
Y210787D01*
Y210743D01*
Y210699D01*
Y210654D01*
Y210610D01*
Y210566D01*
Y210522D01*
Y210477D01*
Y210433D01*
Y210389D01*
Y210345D01*
Y210300D01*
Y210256D01*
Y210212D01*
Y210167D01*
Y210123D01*
Y210079D01*
Y210034D01*
Y209990D01*
Y209946D01*
Y209902D01*
Y209857D01*
Y209813D01*
Y209769D01*
Y209724D01*
Y209680D01*
Y209636D01*
Y209592D01*
Y209547D01*
Y209503D01*
Y209459D01*
Y209414D01*
Y209370D01*
Y209326D01*
Y209282D01*
Y209237D01*
Y209193D01*
Y209149D01*
Y209104D01*
Y209060D01*
Y209016D01*
Y208972D01*
Y208927D01*
Y208883D01*
Y208839D01*
Y208794D01*
Y208750D01*
X205934D01*
Y208794D01*
Y208839D01*
Y208883D01*
Y208927D01*
Y208972D01*
Y209016D01*
Y209060D01*
Y209104D01*
Y209149D01*
Y209193D01*
Y209237D01*
Y209282D01*
Y209326D01*
Y209370D01*
Y209414D01*
Y209459D01*
Y209503D01*
Y209547D01*
Y209592D01*
Y209636D01*
Y209680D01*
Y209724D01*
Y209769D01*
Y209813D01*
Y209857D01*
Y209902D01*
Y209946D01*
Y209990D01*
Y210034D01*
Y210079D01*
Y210123D01*
Y210167D01*
Y210212D01*
Y210256D01*
Y210300D01*
Y210345D01*
Y210389D01*
Y210433D01*
Y210477D01*
Y210522D01*
Y210566D01*
Y210610D01*
Y210654D01*
Y210699D01*
Y210743D01*
Y210787D01*
Y210832D01*
Y210876D01*
Y210920D01*
Y210964D01*
Y211009D01*
Y211053D01*
Y211097D01*
Y211142D01*
Y211186D01*
Y211230D01*
Y211275D01*
Y211319D01*
Y211363D01*
Y211407D01*
Y211452D01*
Y211496D01*
Y211540D01*
Y211585D01*
Y211629D01*
Y211673D01*
Y211718D01*
Y211762D01*
Y211806D01*
Y211850D01*
Y211895D01*
Y211939D01*
Y211983D01*
Y212028D01*
Y212072D01*
Y212116D01*
Y212160D01*
Y212205D01*
X209388D01*
Y212160D01*
D02*
G37*
%LPC*%
G36*
X185118Y213312D02*
X179538D01*
Y213268D01*
X179493D01*
Y213223D01*
Y213179D01*
Y213135D01*
Y213090D01*
Y213046D01*
Y213002D01*
Y212958D01*
Y212913D01*
Y212869D01*
Y212825D01*
Y212780D01*
Y212736D01*
Y212692D01*
Y212648D01*
Y212603D01*
Y212559D01*
Y212515D01*
Y212470D01*
Y212426D01*
Y212382D01*
Y212337D01*
Y212293D01*
Y212249D01*
Y212205D01*
Y212160D01*
Y212116D01*
Y212072D01*
Y212028D01*
Y211983D01*
Y211939D01*
Y211895D01*
Y211850D01*
Y211806D01*
Y211762D01*
Y211718D01*
Y211673D01*
Y211629D01*
Y211585D01*
Y211540D01*
Y211496D01*
Y211452D01*
Y211407D01*
Y211363D01*
Y211319D01*
Y211275D01*
Y211230D01*
Y211186D01*
Y211142D01*
Y211097D01*
Y211053D01*
Y211009D01*
Y210964D01*
Y210920D01*
Y210876D01*
Y210832D01*
Y210787D01*
Y210743D01*
Y210699D01*
Y210654D01*
Y210610D01*
Y210566D01*
Y210522D01*
Y210477D01*
Y210433D01*
Y210389D01*
Y210345D01*
Y210300D01*
Y210256D01*
Y210212D01*
Y210167D01*
Y210123D01*
Y210079D01*
Y210034D01*
Y209990D01*
Y209946D01*
Y209902D01*
Y209857D01*
Y209813D01*
Y209769D01*
Y209724D01*
Y209680D01*
Y209636D01*
Y209592D01*
Y209547D01*
Y209503D01*
Y209459D01*
Y209414D01*
Y209370D01*
Y209326D01*
Y209282D01*
Y209237D01*
Y209193D01*
Y209149D01*
Y209104D01*
Y209060D01*
Y209016D01*
Y208972D01*
Y208927D01*
Y208883D01*
Y208839D01*
Y208794D01*
Y208750D01*
Y208706D01*
Y208662D01*
Y208617D01*
Y208573D01*
Y208529D01*
Y208484D01*
Y208440D01*
Y208396D01*
Y208351D01*
Y208307D01*
Y208263D01*
Y208219D01*
Y208174D01*
Y208130D01*
Y208086D01*
Y208042D01*
Y207997D01*
Y207953D01*
Y207909D01*
Y207864D01*
Y207820D01*
Y207776D01*
Y207731D01*
Y207687D01*
X179538D01*
Y207643D01*
X185162D01*
Y207687D01*
Y207731D01*
Y207776D01*
Y207820D01*
Y207864D01*
Y207909D01*
Y207953D01*
Y207997D01*
Y208042D01*
Y208086D01*
Y208130D01*
Y208174D01*
Y208219D01*
Y208263D01*
Y208307D01*
Y208351D01*
Y208396D01*
Y208440D01*
Y208484D01*
Y208529D01*
Y208573D01*
Y208617D01*
Y208662D01*
Y208706D01*
Y208750D01*
Y208794D01*
Y208839D01*
Y208883D01*
Y208927D01*
Y208972D01*
Y209016D01*
Y209060D01*
Y209104D01*
Y209149D01*
Y209193D01*
Y209237D01*
Y209282D01*
Y209326D01*
Y209370D01*
Y209414D01*
Y209459D01*
Y209503D01*
Y209547D01*
Y209592D01*
Y209636D01*
Y209680D01*
Y209724D01*
Y209769D01*
Y209813D01*
Y209857D01*
Y209902D01*
Y209946D01*
Y209990D01*
Y210034D01*
Y210079D01*
Y210123D01*
Y210167D01*
Y210212D01*
Y210256D01*
Y210300D01*
Y210345D01*
Y210389D01*
Y210433D01*
Y210477D01*
Y210522D01*
Y210566D01*
Y210610D01*
Y210654D01*
Y210699D01*
Y210743D01*
Y210787D01*
Y210832D01*
Y210876D01*
Y210920D01*
Y210964D01*
Y211009D01*
Y211053D01*
Y211097D01*
Y211142D01*
Y211186D01*
Y211230D01*
Y211275D01*
Y211319D01*
Y211363D01*
Y211407D01*
Y211452D01*
Y211496D01*
Y211540D01*
Y211585D01*
Y211629D01*
Y211673D01*
Y211718D01*
Y211762D01*
Y211806D01*
Y211850D01*
Y211895D01*
Y211939D01*
Y211983D01*
Y212028D01*
Y212072D01*
Y212116D01*
Y212160D01*
Y212205D01*
Y212249D01*
Y212293D01*
Y212337D01*
Y212382D01*
Y212426D01*
Y212470D01*
Y212515D01*
Y212559D01*
Y212603D01*
Y212648D01*
Y212692D01*
Y212736D01*
Y212780D01*
Y212825D01*
Y212869D01*
Y212913D01*
Y212958D01*
Y213002D01*
Y213046D01*
Y213090D01*
Y213135D01*
Y213179D01*
Y213223D01*
Y213268D01*
X185118D01*
Y213312D01*
D02*
G37*
%LPD*%
G36*
X184055Y212160D02*
Y212116D01*
Y212072D01*
Y212028D01*
Y211983D01*
Y211939D01*
Y211895D01*
Y211850D01*
Y211806D01*
Y211762D01*
Y211718D01*
Y211673D01*
Y211629D01*
Y211585D01*
Y211540D01*
Y211496D01*
Y211452D01*
Y211407D01*
Y211363D01*
Y211319D01*
Y211275D01*
Y211230D01*
Y211186D01*
Y211142D01*
Y211097D01*
Y211053D01*
Y211009D01*
Y210964D01*
Y210920D01*
Y210876D01*
Y210832D01*
Y210787D01*
Y210743D01*
Y210699D01*
Y210654D01*
Y210610D01*
Y210566D01*
Y210522D01*
Y210477D01*
Y210433D01*
Y210389D01*
Y210345D01*
Y210300D01*
Y210256D01*
Y210212D01*
Y210167D01*
Y210123D01*
Y210079D01*
Y210034D01*
Y209990D01*
Y209946D01*
Y209902D01*
Y209857D01*
Y209813D01*
Y209769D01*
Y209724D01*
Y209680D01*
Y209636D01*
Y209592D01*
Y209547D01*
Y209503D01*
Y209459D01*
Y209414D01*
Y209370D01*
Y209326D01*
Y209282D01*
Y209237D01*
Y209193D01*
Y209149D01*
Y209104D01*
Y209060D01*
Y209016D01*
Y208972D01*
Y208927D01*
Y208883D01*
Y208839D01*
Y208794D01*
Y208750D01*
X180601D01*
Y208794D01*
Y208839D01*
Y208883D01*
Y208927D01*
Y208972D01*
Y209016D01*
Y209060D01*
Y209104D01*
Y209149D01*
Y209193D01*
Y209237D01*
Y209282D01*
Y209326D01*
Y209370D01*
Y209414D01*
Y209459D01*
Y209503D01*
Y209547D01*
Y209592D01*
Y209636D01*
Y209680D01*
Y209724D01*
Y209769D01*
Y209813D01*
Y209857D01*
Y209902D01*
Y209946D01*
Y209990D01*
Y210034D01*
Y210079D01*
Y210123D01*
Y210167D01*
Y210212D01*
Y210256D01*
Y210300D01*
Y210345D01*
Y210389D01*
Y210433D01*
Y210477D01*
Y210522D01*
Y210566D01*
Y210610D01*
Y210654D01*
Y210699D01*
Y210743D01*
Y210787D01*
Y210832D01*
Y210876D01*
Y210920D01*
Y210964D01*
Y211009D01*
Y211053D01*
Y211097D01*
Y211142D01*
Y211186D01*
Y211230D01*
Y211275D01*
Y211319D01*
Y211363D01*
Y211407D01*
Y211452D01*
Y211496D01*
Y211540D01*
Y211585D01*
Y211629D01*
Y211673D01*
Y211718D01*
Y211762D01*
Y211806D01*
Y211850D01*
Y211895D01*
Y211939D01*
Y211983D01*
Y212028D01*
Y212072D01*
Y212116D01*
Y212160D01*
Y212205D01*
X184055D01*
Y212160D01*
D02*
G37*
%LPC*%
G36*
X185118Y187978D02*
X179538D01*
Y187934D01*
X179493D01*
Y187890D01*
Y187846D01*
Y187801D01*
Y187757D01*
Y187713D01*
Y187669D01*
Y187624D01*
Y187580D01*
Y187536D01*
Y187491D01*
Y187447D01*
Y187403D01*
Y187358D01*
Y187314D01*
Y187270D01*
Y187226D01*
Y187181D01*
Y187137D01*
Y187093D01*
Y187048D01*
Y187004D01*
Y186960D01*
Y186916D01*
Y186871D01*
Y186827D01*
Y186783D01*
Y186738D01*
Y186694D01*
Y186650D01*
Y186606D01*
Y186561D01*
Y186517D01*
Y186473D01*
Y186428D01*
Y186384D01*
Y186340D01*
Y186295D01*
Y186251D01*
Y186207D01*
Y186163D01*
Y186118D01*
Y186074D01*
Y186030D01*
Y185986D01*
Y185941D01*
Y185897D01*
Y185853D01*
Y185808D01*
Y185764D01*
Y185720D01*
Y185676D01*
Y185631D01*
Y185587D01*
Y185543D01*
Y185498D01*
Y185454D01*
Y185410D01*
Y185365D01*
Y185321D01*
Y185277D01*
Y185233D01*
Y185188D01*
Y185144D01*
Y185100D01*
Y185055D01*
Y185011D01*
Y184967D01*
Y184923D01*
Y184878D01*
Y184834D01*
Y184790D01*
Y184745D01*
Y184701D01*
Y184657D01*
Y184613D01*
Y184568D01*
Y184524D01*
Y184480D01*
Y184435D01*
Y184391D01*
Y184347D01*
Y184302D01*
Y184258D01*
Y184214D01*
Y184170D01*
Y184125D01*
Y184081D01*
Y184037D01*
Y183993D01*
Y183948D01*
Y183904D01*
Y183860D01*
Y183815D01*
Y183771D01*
Y183727D01*
Y183683D01*
Y183638D01*
Y183594D01*
Y183550D01*
Y183505D01*
Y183461D01*
Y183417D01*
Y183372D01*
Y183328D01*
Y183284D01*
Y183240D01*
Y183195D01*
Y183151D01*
Y183107D01*
Y183062D01*
Y183018D01*
Y182974D01*
Y182930D01*
Y182885D01*
Y182841D01*
Y182797D01*
Y182752D01*
Y182708D01*
Y182664D01*
Y182620D01*
Y182575D01*
Y182531D01*
Y182487D01*
Y182442D01*
Y182398D01*
Y182354D01*
X179538D01*
Y182309D01*
X185162D01*
Y182354D01*
Y182398D01*
Y182442D01*
Y182487D01*
Y182531D01*
Y182575D01*
Y182620D01*
Y182664D01*
Y182708D01*
Y182752D01*
Y182797D01*
Y182841D01*
Y182885D01*
Y182930D01*
Y182974D01*
Y183018D01*
Y183062D01*
Y183107D01*
Y183151D01*
Y183195D01*
Y183240D01*
Y183284D01*
Y183328D01*
Y183372D01*
Y183417D01*
Y183461D01*
Y183505D01*
Y183550D01*
Y183594D01*
Y183638D01*
Y183683D01*
Y183727D01*
Y183771D01*
Y183815D01*
Y183860D01*
Y183904D01*
Y183948D01*
Y183993D01*
Y184037D01*
Y184081D01*
Y184125D01*
Y184170D01*
Y184214D01*
Y184258D01*
Y184302D01*
Y184347D01*
Y184391D01*
Y184435D01*
Y184480D01*
Y184524D01*
Y184568D01*
Y184613D01*
Y184657D01*
Y184701D01*
Y184745D01*
Y184790D01*
Y184834D01*
Y184878D01*
Y184923D01*
Y184967D01*
Y185011D01*
Y185055D01*
Y185100D01*
Y185144D01*
Y185188D01*
Y185233D01*
Y185277D01*
Y185321D01*
Y185365D01*
Y185410D01*
Y185454D01*
Y185498D01*
Y185543D01*
Y185587D01*
Y185631D01*
Y185676D01*
Y185720D01*
Y185764D01*
Y185808D01*
Y185853D01*
Y185897D01*
Y185941D01*
Y185986D01*
Y186030D01*
Y186074D01*
Y186118D01*
Y186163D01*
Y186207D01*
Y186251D01*
Y186295D01*
Y186340D01*
Y186384D01*
Y186428D01*
Y186473D01*
Y186517D01*
Y186561D01*
Y186606D01*
Y186650D01*
Y186694D01*
Y186738D01*
Y186783D01*
Y186827D01*
Y186871D01*
Y186916D01*
Y186960D01*
Y187004D01*
Y187048D01*
Y187093D01*
Y187137D01*
Y187181D01*
Y187226D01*
Y187270D01*
Y187314D01*
Y187358D01*
Y187403D01*
Y187447D01*
Y187491D01*
Y187536D01*
Y187580D01*
Y187624D01*
Y187669D01*
Y187713D01*
Y187757D01*
Y187801D01*
Y187846D01*
Y187890D01*
Y187934D01*
X185118D01*
Y187978D01*
D02*
G37*
%LPD*%
G36*
X184055Y186827D02*
Y186783D01*
Y186738D01*
Y186694D01*
Y186650D01*
Y186606D01*
Y186561D01*
Y186517D01*
Y186473D01*
Y186428D01*
Y186384D01*
Y186340D01*
Y186295D01*
Y186251D01*
Y186207D01*
Y186163D01*
Y186118D01*
Y186074D01*
Y186030D01*
Y185986D01*
Y185941D01*
Y185897D01*
Y185853D01*
Y185808D01*
Y185764D01*
Y185720D01*
Y185676D01*
Y185631D01*
Y185587D01*
Y185543D01*
Y185498D01*
Y185454D01*
Y185410D01*
Y185365D01*
Y185321D01*
Y185277D01*
Y185233D01*
Y185188D01*
Y185144D01*
Y185100D01*
Y185055D01*
Y185011D01*
Y184967D01*
Y184923D01*
Y184878D01*
Y184834D01*
Y184790D01*
Y184745D01*
Y184701D01*
Y184657D01*
Y184613D01*
Y184568D01*
Y184524D01*
Y184480D01*
Y184435D01*
Y184391D01*
Y184347D01*
Y184302D01*
Y184258D01*
Y184214D01*
Y184170D01*
Y184125D01*
Y184081D01*
Y184037D01*
Y183993D01*
Y183948D01*
Y183904D01*
Y183860D01*
Y183815D01*
Y183771D01*
Y183727D01*
Y183683D01*
Y183638D01*
Y183594D01*
Y183550D01*
Y183505D01*
Y183461D01*
Y183417D01*
X180601D01*
Y183461D01*
Y183505D01*
Y183550D01*
Y183594D01*
Y183638D01*
Y183683D01*
Y183727D01*
Y183771D01*
Y183815D01*
Y183860D01*
Y183904D01*
Y183948D01*
Y183993D01*
Y184037D01*
Y184081D01*
Y184125D01*
Y184170D01*
Y184214D01*
Y184258D01*
Y184302D01*
Y184347D01*
Y184391D01*
Y184435D01*
Y184480D01*
Y184524D01*
Y184568D01*
Y184613D01*
Y184657D01*
Y184701D01*
Y184745D01*
Y184790D01*
Y184834D01*
Y184878D01*
Y184923D01*
Y184967D01*
Y185011D01*
Y185055D01*
Y185100D01*
Y185144D01*
Y185188D01*
Y185233D01*
Y185277D01*
Y185321D01*
Y185365D01*
Y185410D01*
Y185454D01*
Y185498D01*
Y185543D01*
Y185587D01*
Y185631D01*
Y185676D01*
Y185720D01*
Y185764D01*
Y185808D01*
Y185853D01*
Y185897D01*
Y185941D01*
Y185986D01*
Y186030D01*
Y186074D01*
Y186118D01*
Y186163D01*
Y186207D01*
Y186251D01*
Y186295D01*
Y186340D01*
Y186384D01*
Y186428D01*
Y186473D01*
Y186517D01*
Y186561D01*
Y186606D01*
Y186650D01*
Y186694D01*
Y186738D01*
Y186783D01*
Y186827D01*
Y186871D01*
X184055D01*
Y186827D01*
D02*
G37*
D11*
X360752Y62980D02*
X361539D01*
X360752D01*
X358858Y109520D02*
X358071D01*
X358858D01*
X113480Y29748D02*
Y28961D01*
Y29748D01*
X306260Y205000D02*
Y209921D01*
X358740D01*
Y200079D02*
Y209921D01*
X310000Y200079D02*
X358740D01*
X31260Y19921D02*
X80000D01*
X31260Y10079D02*
Y19921D01*
Y10079D02*
X83740D01*
Y15000D01*
X306260D02*
Y19921D01*
X358740D01*
Y10079D02*
Y19921D01*
X310000Y10079D02*
X358740D01*
X31260Y209921D02*
X80000D01*
X31260Y200079D02*
Y209921D01*
Y200079D02*
X83740D01*
Y205000D01*
D12*
X333109Y142433D02*
Y138891D01*
Y140662D01*
X332519Y141252D01*
X331338D01*
X330748Y140662D01*
Y138891D01*
X327796D02*
X328977D01*
X329567Y139481D01*
Y140662D01*
X328977Y141252D01*
X327796D01*
X327206Y140662D01*
Y140071D01*
X329567D01*
X326025Y141252D02*
Y138891D01*
Y140071D01*
X325435Y140662D01*
X324844Y141252D01*
X324254D01*
X320712Y138891D02*
X321893D01*
X322483Y139481D01*
Y140662D01*
X321893Y141252D01*
X320712D01*
X320122Y140662D01*
Y140071D01*
X322483D01*
X333109Y153781D02*
X331929D01*
X332519D01*
Y150239D01*
X333109D01*
X331929D01*
X330158D02*
Y152601D01*
X328387D01*
X327796Y152010D01*
Y150239D01*
X326616D02*
X324844D01*
X324254Y150830D01*
X324844Y151420D01*
X326025D01*
X326616Y152010D01*
X326025Y152601D01*
X324254D01*
X321302Y150239D02*
X322483D01*
X323073Y150830D01*
Y152010D01*
X322483Y152601D01*
X321302D01*
X320712Y152010D01*
Y151420D01*
X323073D01*
X319531Y152601D02*
Y150239D01*
Y151420D01*
X318941Y152010D01*
X318351Y152601D01*
X317760D01*
X315399Y153191D02*
Y152601D01*
X315989D01*
X314808D01*
X315399D01*
Y150830D01*
X314808Y150239D01*
X333109Y144571D02*
Y148113D01*
X331929Y146933D01*
X330748Y148113D01*
Y144571D01*
X328977Y146933D02*
X327796D01*
X327206Y146342D01*
Y144571D01*
X328977D01*
X329567Y145162D01*
X328977Y145752D01*
X327206D01*
X324844Y143391D02*
X324254D01*
X323664Y143981D01*
Y146933D01*
X325435D01*
X326025Y146342D01*
Y145162D01*
X325435Y144571D01*
X323664D01*
X322483D02*
X321302D01*
X321893D01*
Y146933D01*
X322483D01*
X317170D02*
X318941D01*
X319531Y146342D01*
Y145162D01*
X318941Y144571D01*
X317170D01*
X310085Y147523D02*
X310676Y148113D01*
X311857D01*
X312447Y147523D01*
Y146933D01*
X311857Y146342D01*
X310676D01*
X310085Y145752D01*
Y145162D01*
X310676Y144571D01*
X311857D01*
X312447Y145162D01*
X308905Y144571D02*
Y146933D01*
X308314D01*
X307724Y146342D01*
Y144571D01*
Y146342D01*
X307134Y146933D01*
X306543Y146342D01*
Y144571D01*
X304772D02*
X303591D01*
X303001Y145162D01*
Y146342D01*
X303591Y146933D01*
X304772D01*
X305363Y146342D01*
Y145162D01*
X304772Y144571D01*
X301820D02*
Y148113D01*
Y145752D02*
X300049Y146933D01*
X301820Y145752D02*
X300049Y144571D01*
X296507D02*
X297688D01*
X298278Y145162D01*
Y146342D01*
X297688Y146933D01*
X296507D01*
X295917Y146342D01*
Y145752D01*
X298278D01*
X354229Y109090D02*
Y111452D01*
X353048Y110271D02*
X355410D01*
X37591Y177271D02*
X39952D01*
X38771Y178452D02*
Y176091D01*
X25910Y163133D02*
Y160771D01*
X24729Y159590D01*
X23548Y160771D01*
Y163133D01*
X20596D02*
X21777D01*
X22367Y162542D01*
Y160181D01*
X21777Y159590D01*
X20596D01*
X20006Y160181D01*
Y162542D01*
X20596Y163133D01*
X18825D02*
Y160181D01*
X18235Y159590D01*
X17054D01*
X16464Y160181D01*
Y163133D01*
X15283D02*
X12922D01*
X14102D01*
Y159590D01*
X374410Y162633D02*
Y160271D01*
X373229Y159090D01*
X372048Y160271D01*
Y162633D01*
X370867Y159090D02*
X369687D01*
X370277D01*
Y161452D01*
X370867D01*
X367916Y159090D02*
Y161452D01*
X366144D01*
X365554Y160862D01*
Y159090D01*
X349590Y177271D02*
X351952D01*
X350771Y178452D02*
Y176091D01*
X349590Y145090D02*
X351952D01*
X37591Y144590D02*
X39952D01*
X114910Y33410D02*
X112548D01*
X99910Y33229D02*
X97548D01*
X98729Y32048D02*
Y34409D01*
X115548Y39542D02*
X116138Y40133D01*
X117319D01*
X117910Y39542D01*
Y38952D01*
X117319Y38362D01*
X116138D01*
X115548Y37771D01*
Y37181D01*
X116138Y36590D01*
X117319D01*
X117910Y37181D01*
X114367Y40133D02*
Y36590D01*
X112596D01*
X112006Y37181D01*
Y37771D01*
X112596Y38362D01*
X114367D01*
X112596D01*
X112006Y38952D01*
Y39542D01*
X112596Y40133D01*
X114367D01*
X110825D02*
Y37181D01*
X110235Y36590D01*
X109054D01*
X108464Y37181D01*
Y40133D01*
X104921Y39542D02*
X105512Y40133D01*
X106693D01*
X107283Y39542D01*
Y38952D01*
X106693Y38362D01*
X105512D01*
X104921Y37771D01*
Y37181D01*
X105512Y36590D01*
X106693D01*
X107283Y37181D01*
X103741Y36590D02*
X101379Y38952D01*
X100199Y36590D02*
Y40133D01*
X98428D01*
X97837Y39542D01*
Y38362D01*
X98428Y37771D01*
X100199D01*
X99018D02*
X97837Y36590D01*
X94295Y39542D02*
X94885Y40133D01*
X96066D01*
X96657Y39542D01*
Y37181D01*
X96066Y36590D01*
X94885D01*
X94295Y37181D01*
X352367Y107410D02*
X355319D01*
X355909Y106819D01*
Y105638D01*
X355319Y105048D01*
X352367D01*
X355909Y103867D02*
X353548D01*
X352367Y102687D01*
X353548Y101506D01*
X355909D01*
X354138D01*
Y103867D01*
X355909Y100325D02*
X352367D01*
Y98554D01*
X352958Y97964D01*
X354138D01*
X354729Y98554D01*
Y100325D01*
Y99144D02*
X355909Y97964D01*
X352367Y96783D02*
Y94421D01*
Y95602D01*
X355909D01*
X355458Y52048D02*
X354867Y52638D01*
Y53819D01*
X355458Y54409D01*
X357819D01*
X358410Y53819D01*
Y52638D01*
X357819Y52048D01*
X358410Y50867D02*
X356048D01*
X354867Y49687D01*
X356048Y48506D01*
X358410D01*
X356638D01*
Y50867D01*
X358410Y47325D02*
X354867D01*
X358410Y44964D01*
X354867D01*
X356729Y61590D02*
Y63952D01*
X355548Y62771D02*
X357909D01*
X356591Y58909D02*
Y56548D01*
X354090Y93410D02*
Y91048D01*
D14*
X386343Y39457D02*
Y71543D01*
X383661Y85996D02*
Y118083D01*
X89957Y4157D02*
X122043D01*
D139*
X350500Y164500D02*
X353000D01*
Y162000D02*
Y164500D01*
X335000Y146500D02*
X353000Y164500D01*
X335000Y146000D02*
Y146500D01*
X294500Y137000D02*
X299500D01*
X335000D02*
Y146000D01*
X299200Y137000D02*
X335000D01*
M02*
