G04*
G04 #@! TF.GenerationSoftware,Altium Limited,Altium Designer,21.0.8 (223)*
G04*
G04 Layer_Physical_Order=4*
G04 Layer_Color=16711680*
%FSLAX25Y25*%
%MOIN*%
G70*
G04*
G04 #@! TF.SameCoordinates,7920E5AB-F19E-47E3-9C16-B8E2F772CBAB*
G04*
G04*
G04 #@! TF.FilePolarity,Positive*
G04*
G01*
G75*
%ADD18R,0.08661X0.06299*%
%ADD19R,0.07087X0.02756*%
G04:AMPARAMS|DCode=45|XSize=314.96mil|YSize=236.22mil|CornerRadius=11.81mil|HoleSize=0mil|Usage=FLASHONLY|Rotation=0.000|XOffset=0mil|YOffset=0mil|HoleType=Round|Shape=RoundedRectangle|*
%AMROUNDEDRECTD45*
21,1,0.31496,0.21260,0,0,0.0*
21,1,0.29134,0.23622,0,0,0.0*
1,1,0.02362,0.14567,-0.10630*
1,1,0.02362,-0.14567,-0.10630*
1,1,0.02362,-0.14567,0.10630*
1,1,0.02362,0.14567,0.10630*
%
%ADD45ROUNDEDRECTD45*%
%ADD138C,0.01181*%
%ADD139C,0.01772*%
%ADD140C,0.01575*%
%ADD141C,0.02559*%
%ADD143C,0.01968*%
%ADD148R,0.04331X0.06299*%
%ADD149O,0.04331X0.06299*%
%ADD150C,0.03347*%
%ADD151C,0.23622*%
%ADD152R,0.02756X0.07087*%
%ADD153R,0.06299X0.08661*%
G36*
X139279Y205500D02*
X162716D01*
Y179701D01*
X133701Y179701D01*
X132500Y178500D01*
X103500Y178500D01*
X94500Y169500D01*
X54500Y169500D01*
X54500Y197299D01*
X68799Y197299D01*
X86299D01*
X96500Y207500D01*
X137279D01*
X139279Y205500D01*
D02*
G37*
G36*
X305000Y197500D02*
X336000D01*
X336000Y169500D01*
X296500Y169500D01*
X287500Y178500D01*
X258000Y178500D01*
X256598Y179902D01*
X228583Y179902D01*
Y205098D01*
X251417D01*
X253819Y207500D01*
X295000D01*
X305000Y197500D01*
D02*
G37*
G36*
X377619Y218165D02*
X379315Y217711D01*
X380937Y217039D01*
X382457Y216161D01*
X383851Y215092D01*
X385092Y213850D01*
X386161Y212457D01*
X387039Y210937D01*
X387711Y209315D01*
X388165Y207619D01*
X388394Y205878D01*
Y205000D01*
Y165000D01*
X354500D01*
X350000Y169500D01*
X346000D01*
X338500Y169500D01*
X338500Y199000D01*
X328000D01*
Y218394D01*
X375878D01*
X377619Y218165D01*
D02*
G37*
G36*
X65240Y147136D02*
X65300Y147104D01*
X65377Y147076D01*
X65469Y147052D01*
X65577Y147031D01*
X65701Y147014D01*
X65997Y146992D01*
X66357Y146984D01*
Y145016D01*
X66169Y145014D01*
X65577Y144969D01*
X65469Y144948D01*
X65377Y144924D01*
X65300Y144896D01*
X65240Y144864D01*
X65195Y144829D01*
Y147171D01*
X65240Y147136D01*
D02*
G37*
G36*
X114483Y137827D02*
X114401Y137821D01*
X114313Y137802D01*
X114219Y137768D01*
X114120Y137722D01*
X114016Y137662D01*
X113906Y137589D01*
X113791Y137502D01*
X113544Y137287D01*
X113413Y137160D01*
X112160Y138413D01*
X112287Y138544D01*
X112502Y138791D01*
X112589Y138906D01*
X112662Y139016D01*
X112722Y139120D01*
X112768Y139219D01*
X112802Y139313D01*
X112821Y139401D01*
X112827Y139483D01*
X114483Y137827D01*
D02*
G37*
G36*
X100758Y136617D02*
X100834Y136568D01*
X100923Y136526D01*
X101026Y136489D01*
X101142Y136457D01*
X101271Y136432D01*
X101414Y136411D01*
X101740Y136389D01*
X101924Y136386D01*
Y134614D01*
X101740Y134611D01*
X101414Y134589D01*
X101271Y134569D01*
X101142Y134543D01*
X101026Y134511D01*
X100923Y134474D01*
X100834Y134432D01*
X100758Y134383D01*
X100695Y134329D01*
Y136671D01*
X100758Y136617D01*
D02*
G37*
G36*
X100617Y134242D02*
X100568Y134166D01*
X100526Y134077D01*
X100489Y133974D01*
X100457Y133858D01*
X100432Y133729D01*
X100411Y133586D01*
X100389Y133260D01*
X100386Y133077D01*
X98614D01*
X98611Y133260D01*
X98589Y133586D01*
X98568Y133729D01*
X98543Y133858D01*
X98511Y133974D01*
X98474Y134077D01*
X98431Y134166D01*
X98383Y134242D01*
X98329Y134305D01*
X100671D01*
X100617Y134242D01*
D02*
G37*
G36*
X62500Y206649D02*
X62413Y205984D01*
Y204016D01*
X62500Y203351D01*
Y199000D01*
X52000D01*
Y169500D01*
X45000Y169500D01*
X45000Y94500D01*
X35000Y94500D01*
X35000Y82500D01*
X22000Y82500D01*
X22000Y131000D01*
X38000Y131000D01*
X38000Y165500D01*
X1606Y165500D01*
Y205000D01*
Y205878D01*
X1835Y207619D01*
X2289Y209315D01*
X2961Y210937D01*
X3839Y212457D01*
X4908Y213850D01*
X6149Y215092D01*
X7542Y216161D01*
X9063Y217039D01*
X10685Y217711D01*
X12381Y218165D01*
X14122Y218394D01*
X62500D01*
X62500Y206649D01*
D02*
G37*
G36*
X290617Y129742D02*
X290568Y129666D01*
X290526Y129577D01*
X290489Y129474D01*
X290457Y129358D01*
X290431Y129228D01*
X290411Y129086D01*
X290389Y128760D01*
X290386Y128577D01*
X288614D01*
X288611Y128760D01*
X288589Y129086D01*
X288568Y129228D01*
X288543Y129358D01*
X288511Y129474D01*
X288474Y129577D01*
X288432Y129666D01*
X288383Y129742D01*
X288329Y129805D01*
X290671D01*
X290617Y129742D01*
D02*
G37*
G36*
X77573Y130617D02*
X77649Y130569D01*
X77738Y130526D01*
X77841Y130489D01*
X77957Y130457D01*
X78087Y130431D01*
X78229Y130412D01*
X78555Y130389D01*
X78738Y130386D01*
Y128614D01*
X78555Y128611D01*
X78229Y128588D01*
X78087Y128568D01*
X77957Y128543D01*
X77841Y128511D01*
X77738Y128474D01*
X77649Y128431D01*
X77573Y128383D01*
X77510Y128329D01*
Y130671D01*
X77573Y130617D01*
D02*
G37*
G36*
X192500Y170000D02*
X192500Y131500D01*
X186000Y125000D01*
X140500D01*
X134000Y131500D01*
Y176500D01*
X186000D01*
X192500Y170000D01*
D02*
G37*
G36*
X256000Y176500D02*
Y131500D01*
X249500Y125000D01*
Y125000D01*
X204000Y125000D01*
X197500Y131500D01*
Y170000D01*
X204000Y176500D01*
X256000Y176500D01*
D02*
G37*
G36*
X295500Y167500D02*
X347956Y167500D01*
X352000Y163456D01*
X358645Y156811D01*
X385748D01*
Y133189D01*
X354252Y133189D01*
X354252Y146248D01*
X344000Y156500D01*
X327000Y156500D01*
X305500Y156500D01*
X297000Y148000D01*
X273000D01*
Y118500D01*
X256500Y102000D01*
X166500Y102000D01*
X132500Y102000D01*
X117000Y117500D01*
X117000Y148000D01*
X92500Y148000D01*
X84000Y156500D01*
X62500Y156500D01*
X62500Y167500D01*
X95000Y167500D01*
X104000Y176500D01*
X132000D01*
X132000Y131000D01*
X139500Y123500D01*
X250000D01*
X258000Y131500D01*
X258000Y176500D01*
X286500D01*
X295500Y167500D01*
D02*
G37*
G36*
X321168Y121827D02*
X321086Y121821D01*
X320998Y121801D01*
X320904Y121768D01*
X320805Y121722D01*
X320701Y121662D01*
X320591Y121589D01*
X320476Y121502D01*
X320229Y121287D01*
X320098Y121160D01*
X318845Y122413D01*
X318972Y122544D01*
X319187Y122791D01*
X319274Y122906D01*
X319347Y123016D01*
X319407Y123120D01*
X319454Y123219D01*
X319486Y123313D01*
X319506Y123401D01*
X319512Y123483D01*
X321168Y121827D01*
D02*
G37*
G36*
X97544Y122713D02*
X97791Y122498D01*
X97906Y122411D01*
X98016Y122338D01*
X98120Y122278D01*
X98219Y122231D01*
X98312Y122198D01*
X98401Y122179D01*
X98483Y122173D01*
X96827Y120517D01*
X96821Y120599D01*
X96802Y120687D01*
X96768Y120781D01*
X96722Y120880D01*
X96662Y120984D01*
X96589Y121094D01*
X96502Y121209D01*
X96287Y121456D01*
X96160Y121587D01*
X97413Y122840D01*
X97544Y122713D01*
D02*
G37*
G36*
X298758Y120617D02*
X298834Y120569D01*
X298923Y120526D01*
X299026Y120489D01*
X299142Y120457D01*
X299271Y120431D01*
X299414Y120412D01*
X299740Y120389D01*
X299923Y120386D01*
Y118614D01*
X299740Y118611D01*
X299414Y118588D01*
X299271Y118569D01*
X299142Y118543D01*
X299026Y118511D01*
X298923Y118474D01*
X298834Y118431D01*
X298758Y118383D01*
X298695Y118329D01*
Y120671D01*
X298758Y120617D01*
D02*
G37*
G36*
X381299Y121429D02*
Y115130D01*
X372638D01*
X372638Y126500D01*
X381299D01*
Y121429D01*
D02*
G37*
G36*
X61000Y115500D02*
X75500Y115500D01*
X75500Y106000D01*
X61000Y106000D01*
Y83112D01*
X60933Y83067D01*
X60453Y82348D01*
X60284Y81500D01*
X60453Y80652D01*
X60933Y79933D01*
X61000Y79888D01*
X61000Y58946D01*
X60433Y58567D01*
X59953Y57848D01*
X59784Y57000D01*
X59953Y56152D01*
X60433Y55433D01*
X61000Y55054D01*
Y48000D01*
X71500D01*
Y34000D01*
X68000Y30500D01*
X57500D01*
X57500Y20561D01*
X57439Y20500D01*
X52500D01*
Y16649D01*
X52412Y15984D01*
Y14016D01*
X52500Y13351D01*
Y1606D01*
X14122D01*
X12381Y1835D01*
X10685Y2289D01*
X9063Y2961D01*
X7542Y3839D01*
X6149Y4908D01*
X4908Y6149D01*
X3839Y7542D01*
X2961Y9063D01*
X2289Y10685D01*
X1835Y12381D01*
X1606Y14122D01*
Y15000D01*
Y48240D01*
X44705D01*
Y72140D01*
X45047Y72652D01*
X45216Y73500D01*
X45047Y74348D01*
X44705Y74860D01*
Y84000D01*
X36933Y84000D01*
X36933Y92756D01*
X46000Y92756D01*
Y155000D01*
X61000D01*
X61000Y115500D01*
D02*
G37*
G36*
X360457Y103319D02*
X360445Y103431D01*
X360409Y103532D01*
X360350Y103620D01*
X360266Y103697D01*
X360159Y103762D01*
X360028Y103815D01*
X359872Y103856D01*
X359694Y103886D01*
X359491Y103903D01*
X359264Y103909D01*
Y105091D01*
X359491Y105096D01*
X359694Y105114D01*
X359872Y105144D01*
X360028Y105185D01*
X360159Y105238D01*
X360266Y105303D01*
X360350Y105380D01*
X360409Y105468D01*
X360445Y105569D01*
X360457Y105681D01*
Y103319D01*
D02*
G37*
G36*
X70740Y104636D02*
X70800Y104604D01*
X70876Y104576D01*
X70969Y104552D01*
X71077Y104531D01*
X71201Y104514D01*
X71497Y104492D01*
X71857Y104484D01*
Y102516D01*
X71669Y102514D01*
X71077Y102469D01*
X70969Y102448D01*
X70876Y102424D01*
X70800Y102396D01*
X70740Y102364D01*
X70695Y102329D01*
Y104671D01*
X70740Y104636D01*
D02*
G37*
G36*
X78484Y103500D02*
X76516Y100547D01*
X76496Y100921D01*
X76437Y101256D01*
X76339Y101551D01*
X76201Y101807D01*
X76024Y102024D01*
X75807Y102201D01*
X75551Y102339D01*
X75256Y102437D01*
X74921Y102496D01*
X74547Y102516D01*
Y104484D01*
X74921Y104504D01*
X75256Y104563D01*
X75551Y104661D01*
X75807Y104799D01*
X76024Y104976D01*
X76201Y105193D01*
X76339Y105449D01*
X76437Y105744D01*
X76496Y106079D01*
X76516Y106453D01*
X78484Y103500D01*
D02*
G37*
G36*
X360457Y98398D02*
X360445Y98510D01*
X360409Y98610D01*
X360350Y98699D01*
X360266Y98776D01*
X360159Y98840D01*
X360028Y98894D01*
X359872Y98935D01*
X359694Y98965D01*
X359491Y98982D01*
X359264Y98988D01*
Y100169D01*
X359491Y100175D01*
X359694Y100193D01*
X359872Y100222D01*
X360028Y100264D01*
X360159Y100317D01*
X360266Y100382D01*
X360350Y100459D01*
X360409Y100547D01*
X360445Y100648D01*
X360457Y100760D01*
Y98398D01*
D02*
G37*
G36*
X85811Y100561D02*
X85932Y100462D01*
X86058Y100375D01*
X86188Y100300D01*
X86323Y100236D01*
X86463Y100183D01*
X86607Y100143D01*
X86757Y100114D01*
X86911Y100096D01*
X87069Y100091D01*
Y98909D01*
X86911Y98904D01*
X86757Y98886D01*
X86607Y98857D01*
X86463Y98817D01*
X86323Y98764D01*
X86188Y98700D01*
X86058Y98625D01*
X85932Y98538D01*
X85811Y98439D01*
X85695Y98329D01*
Y100671D01*
X85811Y100561D01*
D02*
G37*
G36*
X253758Y100117D02*
X253834Y100068D01*
X253923Y100026D01*
X254026Y99989D01*
X254142Y99957D01*
X254272Y99932D01*
X254414Y99911D01*
X254740Y99889D01*
X254924Y99886D01*
Y98114D01*
X254740Y98111D01*
X254414Y98089D01*
X254272Y98068D01*
X254142Y98043D01*
X254026Y98011D01*
X253923Y97974D01*
X253834Y97931D01*
X253758Y97883D01*
X253695Y97829D01*
Y100171D01*
X253758Y100117D01*
D02*
G37*
G36*
X221305Y95829D02*
X221242Y95883D01*
X221166Y95932D01*
X221077Y95974D01*
X220974Y96011D01*
X220858Y96043D01*
X220728Y96069D01*
X220586Y96088D01*
X220260Y96111D01*
X220076Y96114D01*
Y97886D01*
X220260Y97889D01*
X220586Y97912D01*
X220728Y97931D01*
X220858Y97957D01*
X220974Y97989D01*
X221077Y98026D01*
X221166Y98068D01*
X221242Y98117D01*
X221305Y98171D01*
Y95829D01*
D02*
G37*
G36*
X98311Y97061D02*
X98432Y96962D01*
X98558Y96875D01*
X98688Y96800D01*
X98823Y96736D01*
X98963Y96684D01*
X99107Y96643D01*
X99257Y96614D01*
X99411Y96596D01*
X99569Y96591D01*
Y95410D01*
X99411Y95404D01*
X99257Y95386D01*
X99107Y95357D01*
X98963Y95316D01*
X98823Y95264D01*
X98688Y95200D01*
X98558Y95125D01*
X98432Y95038D01*
X98311Y94939D01*
X98195Y94829D01*
Y97171D01*
X98311Y97061D01*
D02*
G37*
G36*
X369543Y93476D02*
X369156Y93475D01*
X367691Y93386D01*
X367589Y93358D01*
X367528Y93327D01*
X367508Y93291D01*
Y96023D01*
X367528Y96026D01*
X367589Y96028D01*
X369543Y96035D01*
Y93476D01*
D02*
G37*
G36*
X277561Y88689D02*
X277462Y88568D01*
X277375Y88442D01*
X277300Y88312D01*
X277236Y88177D01*
X277184Y88037D01*
X277143Y87893D01*
X277114Y87743D01*
X277096Y87589D01*
X277091Y87431D01*
X275909D01*
X275904Y87589D01*
X275886Y87743D01*
X275857Y87893D01*
X275816Y88037D01*
X275764Y88177D01*
X275700Y88312D01*
X275625Y88442D01*
X275538Y88568D01*
X275439Y88689D01*
X275329Y88805D01*
X277671D01*
X277561Y88689D01*
D02*
G37*
G36*
X90720Y87422D02*
X90675Y87464D01*
X90615Y87501D01*
X90538Y87534D01*
X90446Y87563D01*
X90338Y87587D01*
X90214Y87607D01*
X89918Y87633D01*
X89560Y87642D01*
X89744Y89610D01*
X89933Y89612D01*
X90631Y89663D01*
X90722Y89683D01*
X90797Y89705D01*
X90855Y89730D01*
X90897Y89758D01*
X90720Y87422D01*
D02*
G37*
G36*
X93136Y87261D02*
X93104Y87200D01*
X93076Y87124D01*
X93052Y87031D01*
X93031Y86923D01*
X93014Y86799D01*
X92992Y86503D01*
X92986Y86212D01*
X92986Y86169D01*
X93031Y85577D01*
X93052Y85469D01*
X93076Y85377D01*
X93104Y85300D01*
X93136Y85239D01*
X93171Y85195D01*
X90829D01*
X90864Y85239D01*
X90896Y85300D01*
X90924Y85377D01*
X90948Y85469D01*
X90969Y85577D01*
X90986Y85701D01*
X91008Y85997D01*
X91014Y86288D01*
X91014Y86331D01*
X90969Y86923D01*
X90948Y87031D01*
X90924Y87124D01*
X90896Y87200D01*
X90864Y87261D01*
X90829Y87305D01*
X93171D01*
X93136Y87261D01*
D02*
G37*
G36*
X120177Y84823D02*
X120193Y84668D01*
X120220Y84517D01*
X120259Y84372D01*
X120309Y84231D01*
X120371Y84095D01*
X120445Y83964D01*
X120530Y83838D01*
X120626Y83717D01*
X120735Y83601D01*
X119899Y82766D01*
X119783Y82874D01*
X119662Y82970D01*
X119536Y83055D01*
X119405Y83129D01*
X119269Y83191D01*
X119128Y83241D01*
X118983Y83280D01*
X118832Y83307D01*
X118677Y83323D01*
X118517Y83327D01*
X120173Y84983D01*
X120177Y84823D01*
D02*
G37*
G36*
X124561Y83689D02*
X124462Y83568D01*
X124375Y83442D01*
X124300Y83312D01*
X124236Y83177D01*
X124183Y83037D01*
X124143Y82893D01*
X124114Y82743D01*
X124096Y82589D01*
X124091Y82430D01*
X122909D01*
X122904Y82589D01*
X122886Y82743D01*
X122857Y82893D01*
X122817Y83037D01*
X122764Y83177D01*
X122700Y83312D01*
X122625Y83442D01*
X122538Y83568D01*
X122439Y83689D01*
X122329Y83805D01*
X124671D01*
X124561Y83689D01*
D02*
G37*
G36*
X281061Y80189D02*
X280962Y80068D01*
X280875Y79942D01*
X280800Y79812D01*
X280736Y79677D01*
X280683Y79537D01*
X280643Y79392D01*
X280614Y79243D01*
X280596Y79089D01*
X280591Y78930D01*
X279410D01*
X279404Y79089D01*
X279386Y79243D01*
X279357Y79392D01*
X279316Y79537D01*
X279264Y79677D01*
X279200Y79812D01*
X279125Y79942D01*
X279038Y80068D01*
X278939Y80189D01*
X278829Y80305D01*
X281171D01*
X281061Y80189D01*
D02*
G37*
G36*
X363126Y61516D02*
X363101Y61532D01*
X363024Y61547D01*
X362896Y61560D01*
X362205Y61589D01*
X360567Y61602D01*
Y64161D01*
X363126Y64248D01*
Y61516D01*
D02*
G37*
G36*
X231805Y56978D02*
X231765Y56989D01*
X231720Y56989D01*
X231668Y56977D01*
X231611Y56955D01*
X231548Y56921D01*
X231479Y56876D01*
X231404Y56819D01*
X231236Y56673D01*
X231143Y56582D01*
X230308Y57418D01*
X230419Y57530D01*
X230738Y57899D01*
X230787Y57971D01*
X230823Y58034D01*
X230848Y58089D01*
X230859Y58136D01*
X230859Y58174D01*
X231805Y56978D01*
D02*
G37*
G36*
X153635Y58256D02*
X153752Y58157D01*
X153874Y58066D01*
X154001Y57982D01*
X154134Y57905D01*
X154271Y57836D01*
X154414Y57774D01*
X154561Y57719D01*
X154714Y57672D01*
X154872Y57631D01*
X152876Y56405D01*
X152906Y56552D01*
X152920Y56697D01*
X152918Y56839D01*
X152901Y56977D01*
X152868Y57112D01*
X152820Y57244D01*
X152757Y57373D01*
X152678Y57499D01*
X152583Y57622D01*
X152473Y57741D01*
X153523Y58362D01*
X153635Y58256D01*
D02*
G37*
G36*
X158217Y58126D02*
X158338Y58030D01*
X158464Y57945D01*
X158595Y57871D01*
X158731Y57809D01*
X158872Y57759D01*
X159017Y57720D01*
X159168Y57693D01*
X159323Y57677D01*
X159483Y57673D01*
X157827Y56017D01*
X157823Y56177D01*
X157807Y56332D01*
X157780Y56483D01*
X157741Y56628D01*
X157691Y56769D01*
X157629Y56905D01*
X157555Y57036D01*
X157470Y57162D01*
X157374Y57283D01*
X157265Y57399D01*
X158101Y58235D01*
X158217Y58126D01*
D02*
G37*
G36*
X180810Y54700D02*
X180703Y54586D01*
X180605Y54466D01*
X180517Y54341D01*
X180438Y54211D01*
X180369Y54076D01*
X180309Y53936D01*
X180259Y53790D01*
X180218Y53640D01*
X180186Y53484D01*
X180164Y53322D01*
X178711Y55160D01*
X178866Y55147D01*
X179018Y55147D01*
X179165Y55161D01*
X179308Y55189D01*
X179447Y55230D01*
X179582Y55285D01*
X179712Y55353D01*
X179839Y55435D01*
X179961Y55531D01*
X180079Y55640D01*
X180810Y54700D01*
D02*
G37*
G36*
X174734Y54899D02*
X174626Y54783D01*
X174530Y54662D01*
X174445Y54536D01*
X174371Y54405D01*
X174309Y54269D01*
X174259Y54128D01*
X174220Y53983D01*
X174193Y53832D01*
X174177Y53677D01*
X174173Y53517D01*
X172517Y55173D01*
X172677Y55177D01*
X172832Y55193D01*
X172983Y55220D01*
X173128Y55259D01*
X173269Y55309D01*
X173405Y55371D01*
X173536Y55445D01*
X173662Y55530D01*
X173783Y55626D01*
X173899Y55734D01*
X174734Y54899D01*
D02*
G37*
G36*
X169235D02*
X169126Y54783D01*
X169030Y54662D01*
X168945Y54536D01*
X168871Y54405D01*
X168809Y54269D01*
X168759Y54128D01*
X168720Y53983D01*
X168693Y53832D01*
X168677Y53677D01*
X168673Y53517D01*
X167017Y55173D01*
X167177Y55177D01*
X167332Y55193D01*
X167483Y55220D01*
X167628Y55259D01*
X167769Y55309D01*
X167905Y55371D01*
X168036Y55445D01*
X168162Y55530D01*
X168283Y55626D01*
X168399Y55734D01*
X169235Y54899D01*
D02*
G37*
G36*
X345299Y54076D02*
X345421Y53978D01*
X345548Y53892D01*
X345679Y53817D01*
X345815Y53754D01*
X345955Y53702D01*
X346100Y53662D01*
X346250Y53633D01*
X346403Y53616D01*
X346562Y53610D01*
X346577Y52429D01*
X346418Y52423D01*
X346264Y52406D01*
X346115Y52376D01*
X345971Y52335D01*
X345831Y52283D01*
X345697Y52218D01*
X345567Y52142D01*
X345443Y52054D01*
X345323Y51954D01*
X345209Y51843D01*
X345181Y54185D01*
X345299Y54076D01*
D02*
G37*
G36*
X363138Y51839D02*
X363126Y51951D01*
X363090Y52051D01*
X363031Y52140D01*
X362947Y52217D01*
X362840Y52281D01*
X362709Y52335D01*
X362554Y52376D01*
X362375Y52406D01*
X362172Y52423D01*
X361945Y52429D01*
Y53610D01*
X362172Y53616D01*
X362375Y53634D01*
X362554Y53663D01*
X362709Y53705D01*
X362840Y53758D01*
X362947Y53823D01*
X363031Y53900D01*
X363090Y53988D01*
X363126Y54089D01*
X363138Y54201D01*
Y51839D01*
D02*
G37*
G36*
X135811Y53561D02*
X135932Y53462D01*
X136058Y53375D01*
X136188Y53300D01*
X136323Y53236D01*
X136463Y53184D01*
X136608Y53143D01*
X136757Y53114D01*
X136911Y53096D01*
X137069Y53091D01*
Y51910D01*
X136911Y51904D01*
X136757Y51886D01*
X136608Y51857D01*
X136463Y51816D01*
X136323Y51764D01*
X136188Y51700D01*
X136058Y51625D01*
X135932Y51538D01*
X135811Y51439D01*
X135695Y51329D01*
Y53671D01*
X135811Y53561D01*
D02*
G37*
G36*
X180192Y49819D02*
X180076Y49698D01*
X179885Y49467D01*
X179810Y49358D01*
X179749Y49252D01*
X179701Y49150D01*
X179668Y49053D01*
X179648Y48959D01*
X179642Y48868D01*
X179649Y48782D01*
X178335Y50139D01*
X178421Y50129D01*
X178511Y50132D01*
X178604Y50149D01*
X178701Y50180D01*
X178801Y50225D01*
X178905Y50283D01*
X179013Y50355D01*
X179124Y50441D01*
X179239Y50541D01*
X179357Y50654D01*
X180192Y49819D01*
D02*
G37*
G36*
X295805Y49829D02*
X295689Y49939D01*
X295568Y50038D01*
X295442Y50125D01*
X295312Y50200D01*
X295177Y50264D01*
X295037Y50317D01*
X294893Y50357D01*
X294743Y50386D01*
X294589Y50404D01*
X294430Y50409D01*
Y51591D01*
X294589Y51596D01*
X294743Y51614D01*
X294893Y51643D01*
X295037Y51683D01*
X295177Y51736D01*
X295312Y51800D01*
X295442Y51875D01*
X295568Y51962D01*
X295689Y52061D01*
X295805Y52171D01*
Y49829D01*
D02*
G37*
G36*
X35500Y133000D02*
X20000D01*
X20000Y81114D01*
X42500Y81114D01*
Y75616D01*
X42152Y75547D01*
X41433Y75067D01*
X40953Y74348D01*
X40784Y73500D01*
X40953Y72652D01*
X41433Y71933D01*
X42152Y71453D01*
X42500Y71384D01*
X42500Y49421D01*
X1606Y49421D01*
Y157000D01*
X35500D01*
X35500Y133000D01*
D02*
G37*
G36*
X165717Y50626D02*
X165838Y50530D01*
X165964Y50445D01*
X166095Y50371D01*
X166231Y50309D01*
X166372Y50259D01*
X166517Y50220D01*
X166668Y50193D01*
X166823Y50177D01*
X166983Y50173D01*
X165327Y48517D01*
X165323Y48677D01*
X165307Y48832D01*
X165280Y48983D01*
X165241Y49128D01*
X165191Y49269D01*
X165129Y49405D01*
X165055Y49536D01*
X164970Y49662D01*
X164874Y49783D01*
X164766Y49899D01*
X165601Y50735D01*
X165717Y50626D01*
D02*
G37*
G36*
X243129Y49752D02*
X243265Y49668D01*
X243404Y49595D01*
X243545Y49531D01*
X243689Y49477D01*
X243835Y49433D01*
X243983Y49398D01*
X244134Y49374D01*
X244287Y49359D01*
X244443Y49354D01*
X244645Y48173D01*
X244484Y48167D01*
X244330Y48148D01*
X244183Y48116D01*
X244044Y48071D01*
X243912Y48013D01*
X243788Y47942D01*
X243671Y47859D01*
X243562Y47763D01*
X243459Y47654D01*
X243365Y47532D01*
X242995Y49845D01*
X243129Y49752D01*
D02*
G37*
G36*
X345311Y49061D02*
X345432Y48962D01*
X345558Y48875D01*
X345688Y48800D01*
X345823Y48736D01*
X345963Y48684D01*
X346108Y48643D01*
X346257Y48614D01*
X346411Y48596D01*
X346569Y48591D01*
Y47409D01*
X346411Y47404D01*
X346257Y47386D01*
X346108Y47357D01*
X345963Y47317D01*
X345823Y47264D01*
X345688Y47200D01*
X345558Y47125D01*
X345432Y47038D01*
X345311Y46939D01*
X345195Y46829D01*
Y49171D01*
X345311Y49061D01*
D02*
G37*
G36*
X363138Y46819D02*
X363126Y46931D01*
X363090Y47032D01*
X363031Y47120D01*
X362947Y47197D01*
X362840Y47262D01*
X362709Y47315D01*
X362554Y47356D01*
X362375Y47386D01*
X362172Y47403D01*
X361945Y47409D01*
Y48591D01*
X362172Y48597D01*
X362375Y48614D01*
X362554Y48644D01*
X362709Y48685D01*
X362840Y48738D01*
X362947Y48803D01*
X363031Y48880D01*
X363090Y48968D01*
X363126Y49069D01*
X363138Y49181D01*
Y46819D01*
D02*
G37*
G36*
X173561Y47189D02*
X173462Y47068D01*
X173375Y46942D01*
X173300Y46812D01*
X173236Y46677D01*
X173184Y46537D01*
X173143Y46393D01*
X173114Y46243D01*
X173096Y46089D01*
X173091Y45930D01*
X171909D01*
X171904Y46089D01*
X171886Y46243D01*
X171857Y46393D01*
X171817Y46537D01*
X171764Y46677D01*
X171700Y46812D01*
X171625Y46942D01*
X171538Y47068D01*
X171439Y47189D01*
X171329Y47305D01*
X173671D01*
X173561Y47189D01*
D02*
G37*
G36*
X204811Y47061D02*
X204932Y46962D01*
X205058Y46875D01*
X205188Y46800D01*
X205323Y46736D01*
X205463Y46683D01*
X205608Y46643D01*
X205757Y46614D01*
X205911Y46596D01*
X206069Y46591D01*
Y45409D01*
X205911Y45404D01*
X205757Y45386D01*
X205608Y45357D01*
X205463Y45316D01*
X205323Y45264D01*
X205188Y45200D01*
X205058Y45125D01*
X204932Y45038D01*
X204811Y44939D01*
X204695Y44829D01*
Y47171D01*
X204811Y47061D01*
D02*
G37*
G36*
X295805Y44329D02*
X295689Y44439D01*
X295568Y44538D01*
X295442Y44625D01*
X295312Y44700D01*
X295177Y44764D01*
X295037Y44816D01*
X294893Y44857D01*
X294743Y44886D01*
X294589Y44904D01*
X294430Y44909D01*
Y46091D01*
X294589Y46096D01*
X294743Y46114D01*
X294893Y46143D01*
X295037Y46183D01*
X295177Y46236D01*
X295312Y46300D01*
X295442Y46375D01*
X295568Y46462D01*
X295689Y46561D01*
X295805Y46671D01*
Y44329D01*
D02*
G37*
G36*
X247311Y46561D02*
X247432Y46462D01*
X247558Y46375D01*
X247688Y46300D01*
X247823Y46236D01*
X247963Y46183D01*
X248108Y46143D01*
X248257Y46114D01*
X248411Y46096D01*
X248569Y46091D01*
Y44909D01*
X248411Y44904D01*
X248257Y44886D01*
X248108Y44857D01*
X247963Y44816D01*
X247823Y44764D01*
X247688Y44700D01*
X247558Y44625D01*
X247432Y44538D01*
X247311Y44439D01*
X247195Y44329D01*
Y46671D01*
X247311Y46561D01*
D02*
G37*
G36*
X180235Y44899D02*
X180126Y44783D01*
X180030Y44662D01*
X179945Y44536D01*
X179871Y44405D01*
X179809Y44269D01*
X179759Y44128D01*
X179720Y43983D01*
X179693Y43832D01*
X179677Y43677D01*
X179673Y43517D01*
X178017Y45173D01*
X178177Y45177D01*
X178332Y45193D01*
X178483Y45220D01*
X178628Y45259D01*
X178769Y45309D01*
X178905Y45371D01*
X179036Y45445D01*
X179162Y45530D01*
X179283Y45626D01*
X179399Y45735D01*
X180235Y44899D01*
D02*
G37*
G36*
X165717Y45626D02*
X165838Y45530D01*
X165964Y45445D01*
X166095Y45371D01*
X166231Y45309D01*
X166372Y45259D01*
X166517Y45220D01*
X166668Y45193D01*
X166823Y45177D01*
X166983Y45173D01*
X165327Y43517D01*
X165323Y43677D01*
X165307Y43832D01*
X165280Y43983D01*
X165241Y44128D01*
X165191Y44269D01*
X165129Y44405D01*
X165055Y44536D01*
X164970Y44662D01*
X164874Y44783D01*
X164766Y44899D01*
X165601Y45735D01*
X165717Y45626D01*
D02*
G37*
G36*
X100061Y45189D02*
X99962Y45068D01*
X99875Y44942D01*
X99800Y44812D01*
X99736Y44677D01*
X99683Y44537D01*
X99643Y44392D01*
X99636Y44357D01*
X99638Y44346D01*
X99697Y44169D01*
X99779Y44016D01*
X99886Y43886D01*
X100016Y43780D01*
X100169Y43697D01*
X100347Y43638D01*
X100547Y43602D01*
X100772Y43591D01*
X99000Y42409D01*
X97228Y43591D01*
X97453Y43602D01*
X97654Y43638D01*
X97831Y43697D01*
X97984Y43780D01*
X98114Y43886D01*
X98220Y44016D01*
X98303Y44169D01*
X98362Y44346D01*
X98364Y44357D01*
X98357Y44392D01*
X98317Y44537D01*
X98264Y44677D01*
X98200Y44812D01*
X98125Y44942D01*
X98038Y45068D01*
X97939Y45189D01*
X97829Y45305D01*
X100171D01*
X100061Y45189D01*
D02*
G37*
G36*
X200177Y43823D02*
X200193Y43668D01*
X200220Y43517D01*
X200259Y43372D01*
X200309Y43231D01*
X200371Y43095D01*
X200445Y42964D01*
X200530Y42838D01*
X200626Y42717D01*
X200734Y42601D01*
X199899Y41765D01*
X199783Y41874D01*
X199662Y41970D01*
X199536Y42055D01*
X199405Y42129D01*
X199269Y42191D01*
X199128Y42241D01*
X198983Y42280D01*
X198832Y42307D01*
X198677Y42323D01*
X198517Y42327D01*
X200173Y43983D01*
X200177Y43823D01*
D02*
G37*
G36*
X157483Y41827D02*
X157323Y41823D01*
X157168Y41807D01*
X157017Y41780D01*
X156872Y41741D01*
X156731Y41691D01*
X156595Y41629D01*
X156464Y41555D01*
X156338Y41470D01*
X156217Y41374D01*
X156101Y41265D01*
X155265Y42101D01*
X155374Y42217D01*
X155470Y42338D01*
X155555Y42464D01*
X155629Y42595D01*
X155691Y42731D01*
X155741Y42872D01*
X155780Y43017D01*
X155807Y43168D01*
X155823Y43323D01*
X155827Y43483D01*
X157483Y41827D01*
D02*
G37*
G36*
X152483D02*
X152323Y41823D01*
X152168Y41807D01*
X152017Y41780D01*
X151872Y41741D01*
X151731Y41691D01*
X151595Y41629D01*
X151464Y41555D01*
X151338Y41470D01*
X151217Y41374D01*
X151101Y41265D01*
X150266Y42101D01*
X150374Y42217D01*
X150470Y42338D01*
X150555Y42464D01*
X150629Y42595D01*
X150691Y42731D01*
X150741Y42872D01*
X150780Y43017D01*
X150807Y43168D01*
X150823Y43323D01*
X150827Y43483D01*
X152483Y41827D01*
D02*
G37*
G36*
X223805Y36829D02*
X223689Y36939D01*
X223568Y37038D01*
X223442Y37125D01*
X223312Y37200D01*
X223177Y37264D01*
X223037Y37317D01*
X222892Y37357D01*
X222743Y37386D01*
X222589Y37404D01*
X222430Y37409D01*
Y38591D01*
X222589Y38596D01*
X222743Y38614D01*
X222892Y38643D01*
X223037Y38684D01*
X223177Y38736D01*
X223312Y38800D01*
X223442Y38875D01*
X223568Y38962D01*
X223689Y39061D01*
X223805Y39171D01*
Y36829D01*
D02*
G37*
G36*
X157483Y36827D02*
X157323Y36823D01*
X157168Y36807D01*
X157017Y36780D01*
X156872Y36741D01*
X156731Y36691D01*
X156595Y36629D01*
X156464Y36555D01*
X156338Y36470D01*
X156217Y36374D01*
X156101Y36266D01*
X155265Y37101D01*
X155374Y37217D01*
X155470Y37338D01*
X155555Y37464D01*
X155629Y37595D01*
X155691Y37731D01*
X155741Y37872D01*
X155780Y38017D01*
X155807Y38168D01*
X155823Y38323D01*
X155827Y38483D01*
X157483Y36827D01*
D02*
G37*
G36*
X237717Y37126D02*
X237838Y37030D01*
X237964Y36945D01*
X238095Y36871D01*
X238231Y36809D01*
X238372Y36759D01*
X238517Y36720D01*
X238668Y36693D01*
X238823Y36677D01*
X238983Y36673D01*
X237327Y35017D01*
X237323Y35177D01*
X237307Y35332D01*
X237280Y35483D01*
X237241Y35628D01*
X237191Y35769D01*
X237129Y35905D01*
X237055Y36036D01*
X236970Y36162D01*
X236874Y36283D01*
X236766Y36399D01*
X237601Y37235D01*
X237717Y37126D01*
D02*
G37*
G36*
X313677Y34323D02*
X313693Y34168D01*
X313720Y34017D01*
X313759Y33872D01*
X313809Y33731D01*
X313871Y33595D01*
X313945Y33464D01*
X314030Y33338D01*
X314126Y33217D01*
X314234Y33101D01*
X313399Y32265D01*
X313283Y32374D01*
X313162Y32470D01*
X313036Y32555D01*
X312905Y32629D01*
X312769Y32691D01*
X312628Y32741D01*
X312483Y32780D01*
X312332Y32807D01*
X312177Y32823D01*
X312017Y32827D01*
X313673Y34483D01*
X313677Y34323D01*
D02*
G37*
G36*
X157483Y31827D02*
X157323Y31823D01*
X157168Y31807D01*
X157017Y31780D01*
X156872Y31741D01*
X156731Y31691D01*
X156595Y31629D01*
X156464Y31555D01*
X156338Y31470D01*
X156217Y31374D01*
X156101Y31266D01*
X155265Y32101D01*
X155374Y32217D01*
X155470Y32338D01*
X155555Y32464D01*
X155629Y32595D01*
X155691Y32731D01*
X155741Y32872D01*
X155780Y33017D01*
X155807Y33168D01*
X155823Y33323D01*
X155827Y33483D01*
X157483Y31827D01*
D02*
G37*
G36*
X259983Y30827D02*
X259823Y30823D01*
X259668Y30807D01*
X259517Y30780D01*
X259372Y30741D01*
X259231Y30691D01*
X259095Y30629D01*
X258964Y30555D01*
X258838Y30470D01*
X258717Y30374D01*
X258601Y30266D01*
X257766Y31101D01*
X257874Y31217D01*
X257970Y31338D01*
X258055Y31464D01*
X258129Y31595D01*
X258191Y31731D01*
X258241Y31872D01*
X258280Y32017D01*
X258307Y32168D01*
X258323Y32323D01*
X258327Y32483D01*
X259983Y30827D01*
D02*
G37*
G36*
X99548Y28968D02*
X99594Y28343D01*
X99713Y28347D01*
X99681Y28304D01*
X99652Y28244D01*
X99626Y28168D01*
X99612Y28108D01*
X99614Y28082D01*
X99654Y27866D01*
X99702Y27689D01*
X99759Y27551D01*
X99825Y27453D01*
X99900Y27393D01*
X99984Y27374D01*
X99545D01*
X99543Y27188D01*
X97575Y27102D01*
X97573Y27289D01*
X97567Y27374D01*
X97252D01*
X97313Y27393D01*
X97368Y27453D01*
X97417Y27551D01*
X97459Y27689D01*
X97494Y27866D01*
X97507Y27963D01*
X97502Y27989D01*
X97475Y28082D01*
X97445Y28159D01*
X97410Y28220D01*
X97372Y28264D01*
X97536Y28270D01*
X97562Y28634D01*
X97575Y29342D01*
X99543D01*
X99548Y28968D01*
D02*
G37*
G36*
X173177Y27823D02*
X173193Y27668D01*
X173220Y27517D01*
X173259Y27372D01*
X173309Y27231D01*
X173371Y27095D01*
X173445Y26964D01*
X173530Y26838D01*
X173626Y26717D01*
X173734Y26601D01*
X172899Y25765D01*
X172783Y25874D01*
X172662Y25970D01*
X172536Y26055D01*
X172405Y26129D01*
X172269Y26191D01*
X172128Y26241D01*
X171983Y26280D01*
X171832Y26307D01*
X171677Y26323D01*
X171517Y26327D01*
X173173Y27983D01*
X173177Y27823D01*
D02*
G37*
G36*
X292305Y24829D02*
X292189Y24939D01*
X292068Y25038D01*
X291942Y25125D01*
X291812Y25200D01*
X291677Y25264D01*
X291537Y25317D01*
X291392Y25357D01*
X291243Y25386D01*
X291089Y25404D01*
X290931Y25409D01*
Y26591D01*
X291089Y26596D01*
X291243Y26614D01*
X291392Y26643D01*
X291537Y26684D01*
X291677Y26736D01*
X291812Y26800D01*
X291942Y26875D01*
X292068Y26962D01*
X292189Y27061D01*
X292305Y27171D01*
Y24829D01*
D02*
G37*
G36*
X211049Y25214D02*
X210939Y25094D01*
X210844Y24972D01*
X210764Y24846D01*
X210700Y24716D01*
X210650Y24584D01*
X210616Y24448D01*
X210597Y24308D01*
X210594Y24165D01*
X210605Y24019D01*
X210632Y23870D01*
X208663Y25139D01*
X208822Y25176D01*
X208975Y25221D01*
X209124Y25273D01*
X209267Y25333D01*
X209405Y25401D01*
X209538Y25476D01*
X209666Y25559D01*
X209789Y25650D01*
X209907Y25748D01*
X210019Y25854D01*
X211049Y25214D01*
D02*
G37*
G36*
X114756Y25782D02*
X114815Y25614D01*
X114914Y25466D01*
X115053Y25339D01*
X115231Y25230D01*
X115449Y25142D01*
X115706Y25073D01*
X115940Y25034D01*
X116031Y25052D01*
X116123Y25076D01*
X116200Y25104D01*
X116261Y25136D01*
X116305Y25171D01*
Y24997D01*
X116340Y24994D01*
X116716Y24984D01*
Y23016D01*
X116340Y23006D01*
X116305Y23003D01*
Y22829D01*
X116261Y22864D01*
X116200Y22896D01*
X116123Y22924D01*
X116031Y22948D01*
X115940Y22966D01*
X115706Y22927D01*
X115449Y22858D01*
X115231Y22770D01*
X115053Y22661D01*
X114914Y22534D01*
X114815Y22386D01*
X114756Y22219D01*
X114736Y22031D01*
Y25969D01*
X114756Y25782D01*
D02*
G37*
G36*
X154311Y23561D02*
X154432Y23462D01*
X154558Y23375D01*
X154688Y23300D01*
X154823Y23236D01*
X154963Y23183D01*
X155107Y23143D01*
X155257Y23114D01*
X155411Y23096D01*
X155570Y23090D01*
Y21910D01*
X155411Y21904D01*
X155257Y21886D01*
X155107Y21857D01*
X154963Y21816D01*
X154823Y21764D01*
X154688Y21700D01*
X154558Y21625D01*
X154432Y21538D01*
X154311Y21439D01*
X154195Y21329D01*
Y23671D01*
X154311Y23561D01*
D02*
G37*
G36*
X109749Y21891D02*
X109717Y21783D01*
X109718Y21658D01*
X109753Y21517D01*
X109821Y21358D01*
X109922Y21183D01*
X110057Y20990D01*
X110225Y20781D01*
X110662Y20311D01*
X109827Y19476D01*
X109583Y19711D01*
X109148Y20081D01*
X108955Y20216D01*
X108780Y20317D01*
X108621Y20385D01*
X108479Y20420D01*
X108355Y20421D01*
X108247Y20389D01*
X108156Y20323D01*
X109815Y21982D01*
X109749Y21891D01*
D02*
G37*
G36*
X104608Y20311D02*
X104508Y20276D01*
X104419Y20216D01*
X104342Y20132D01*
X104278Y20025D01*
X104224Y19894D01*
X104183Y19739D01*
X104154Y19560D01*
X104136Y19357D01*
X104130Y19130D01*
X102949D01*
X102943Y19357D01*
X102925Y19560D01*
X102896Y19739D01*
X102854Y19894D01*
X102801Y20025D01*
X102736Y20132D01*
X102659Y20216D01*
X102571Y20276D01*
X102471Y20311D01*
X102358Y20323D01*
X104720D01*
X104608Y20311D01*
D02*
G37*
G36*
X227598Y20224D02*
X227533Y20133D01*
X227476Y20031D01*
X227426Y19919D01*
X227383Y19796D01*
X227349Y19662D01*
X227322Y19517D01*
X227303Y19362D01*
X227291Y19196D01*
X227287Y19020D01*
X225713D01*
X225709Y19196D01*
X225678Y19517D01*
X225651Y19662D01*
X225617Y19796D01*
X225574Y19919D01*
X225524Y20031D01*
X225467Y20133D01*
X225402Y20224D01*
X225329Y20305D01*
X227671D01*
X227598Y20224D01*
D02*
G37*
G36*
X80825Y19020D02*
X80840Y18832D01*
X80865Y18666D01*
X80900Y18523D01*
X80945Y18402D01*
X81000Y18302D01*
X81065Y18225D01*
X81141Y18170D01*
X81226Y18137D01*
X81321Y18126D01*
X79138D01*
X79233Y18137D01*
X79318Y18170D01*
X79393Y18225D01*
X79458Y18302D01*
X79514Y18402D01*
X79559Y18523D01*
X79594Y18666D01*
X79619Y18832D01*
X79634Y19020D01*
X79639Y19229D01*
X80820D01*
X80825Y19020D01*
D02*
G37*
G36*
X75689Y18865D02*
X75718Y18477D01*
X75742Y18318D01*
X75775Y18184D01*
X75814Y18074D01*
X75860Y17987D01*
X75913Y17924D01*
X75974Y17886D01*
X76042Y17871D01*
X74148Y17949D01*
X74216Y17958D01*
X74277Y17990D01*
X74330Y18046D01*
X74376Y18125D01*
X74415Y18228D01*
X74447Y18355D01*
X74472Y18504D01*
X74490Y18678D01*
X74504Y19095D01*
X75686D01*
X75689Y18865D01*
D02*
G37*
G36*
X70689D02*
X70718Y18477D01*
X70742Y18318D01*
X70775Y18184D01*
X70814Y18074D01*
X70860Y17987D01*
X70913Y17924D01*
X70974Y17886D01*
X71042Y17871D01*
X69148Y17949D01*
X69216Y17958D01*
X69276Y17990D01*
X69330Y18046D01*
X69376Y18125D01*
X69415Y18228D01*
X69447Y18355D01*
X69472Y18504D01*
X69490Y18678D01*
X69504Y19095D01*
X70685D01*
X70689Y18865D01*
D02*
G37*
G36*
X315596Y18972D02*
X315643Y18502D01*
X315684Y18311D01*
X315736Y18150D01*
X315800Y18018D01*
X315876Y17915D01*
X315964Y17841D01*
X316063Y17797D01*
X316174Y17783D01*
X313826D01*
X313937Y17797D01*
X314036Y17841D01*
X314124Y17915D01*
X314199Y18018D01*
X314264Y18150D01*
X314316Y18311D01*
X314357Y18502D01*
X314386Y18723D01*
X314404Y18972D01*
X314409Y19252D01*
X315591D01*
X315596Y18972D01*
D02*
G37*
G36*
X60596D02*
X60643Y18502D01*
X60684Y18311D01*
X60736Y18150D01*
X60800Y18018D01*
X60876Y17915D01*
X60964Y17841D01*
X61063Y17797D01*
X61174Y17783D01*
X58826D01*
X58937Y17797D01*
X59036Y17841D01*
X59124Y17915D01*
X59200Y18018D01*
X59264Y18150D01*
X59316Y18311D01*
X59357Y18502D01*
X59386Y18723D01*
X59404Y18972D01*
X59409Y19252D01*
X60590D01*
X60596Y18972D01*
D02*
G37*
G36*
X65767Y18911D02*
X65803Y18469D01*
X65833Y18287D01*
X65873Y18133D01*
X65922Y18005D01*
X65979Y17903D01*
X66045Y17829D01*
X66120Y17781D01*
X66204Y17760D01*
X64138Y17945D01*
X64222Y17950D01*
X64298Y17981D01*
X64364Y18039D01*
X64422Y18122D01*
X64471Y18232D01*
X64511Y18368D01*
X64542Y18530D01*
X64564Y18718D01*
X64577Y18932D01*
X64582Y19172D01*
X65763D01*
X65767Y18911D01*
D02*
G37*
G36*
X140805Y15329D02*
X140689Y15439D01*
X140568Y15538D01*
X140442Y15625D01*
X140312Y15700D01*
X140177Y15764D01*
X140037Y15816D01*
X139892Y15857D01*
X139743Y15886D01*
X139589Y15904D01*
X139430Y15910D01*
Y17090D01*
X139589Y17096D01*
X139743Y17114D01*
X139892Y17143D01*
X140037Y17184D01*
X140177Y17236D01*
X140312Y17300D01*
X140442Y17375D01*
X140568Y17462D01*
X140689Y17561D01*
X140805Y17671D01*
Y15329D01*
D02*
G37*
G36*
X255805Y12829D02*
X255725Y12902D01*
X255633Y12967D01*
X255531Y13025D01*
X255419Y13074D01*
X255296Y13117D01*
X255162Y13151D01*
X255017Y13178D01*
X254862Y13197D01*
X254696Y13209D01*
X254520Y13213D01*
Y14787D01*
X254696Y14791D01*
X255017Y14822D01*
X255162Y14849D01*
X255296Y14883D01*
X255419Y14926D01*
X255531Y14976D01*
X255633Y15033D01*
X255725Y15098D01*
X255805Y15171D01*
Y12829D01*
D02*
G37*
G36*
X151094Y12832D02*
X151124Y12533D01*
X151150Y12402D01*
X151184Y12282D01*
X151225Y12175D01*
X151274Y12080D01*
X151330Y11997D01*
X151393Y11926D01*
X151465Y11867D01*
X149535D01*
X149607Y11926D01*
X149670Y11997D01*
X149726Y12080D01*
X149775Y12175D01*
X149816Y12282D01*
X149850Y12402D01*
X149876Y12533D01*
X149894Y12677D01*
X149906Y12832D01*
X149909Y13000D01*
X151091D01*
X151094Y12832D01*
D02*
G37*
G36*
X56063Y12203D02*
X55964Y12159D01*
X55876Y12085D01*
X55800Y11982D01*
X55736Y11850D01*
X55684Y11688D01*
X55643Y11498D01*
X55614Y11277D01*
X55596Y11028D01*
X55590Y10748D01*
X54409D01*
X54404Y11028D01*
X54357Y11498D01*
X54316Y11688D01*
X54264Y11850D01*
X54199Y11982D01*
X54124Y12085D01*
X54036Y12159D01*
X53937Y12203D01*
X53826Y12217D01*
X56174D01*
X56063Y12203D01*
D02*
G37*
G36*
X170483Y5327D02*
X170323Y5323D01*
X170168Y5307D01*
X170017Y5280D01*
X169872Y5241D01*
X169731Y5191D01*
X169595Y5129D01*
X169464Y5055D01*
X169338Y4970D01*
X169217Y4874D01*
X169101Y4766D01*
X168265Y5601D01*
X168374Y5717D01*
X168470Y5838D01*
X168555Y5964D01*
X168629Y6095D01*
X168691Y6231D01*
X168741Y6372D01*
X168780Y6517D01*
X168807Y6668D01*
X168823Y6823D01*
X168827Y6983D01*
X170483Y5327D01*
D02*
G37*
G36*
X131210Y5340D02*
X131049Y5315D01*
X130893Y5280D01*
X130743Y5237D01*
X130598Y5185D01*
X130457Y5123D01*
X130323Y5053D01*
X130193Y4973D01*
X130069Y4884D01*
X129949Y4787D01*
X129835Y4680D01*
X128878Y5393D01*
X128987Y5511D01*
X129083Y5633D01*
X129164Y5760D01*
X129232Y5890D01*
X129285Y6024D01*
X129325Y6163D01*
X129351Y6305D01*
X129363Y6452D01*
X129361Y6602D01*
X129345Y6757D01*
X131210Y5340D01*
D02*
G37*
%LPC*%
G36*
X375000Y217249D02*
X373084Y217098D01*
X371215Y216649D01*
X369439Y215914D01*
X367800Y214910D01*
X366339Y213661D01*
X365090Y212200D01*
X364086Y210561D01*
X363351Y208785D01*
X362902Y206916D01*
X362751Y205000D01*
X362902Y203084D01*
X363351Y201215D01*
X364086Y199439D01*
X365090Y197800D01*
X366339Y196339D01*
X367800Y195090D01*
X369439Y194086D01*
X371215Y193351D01*
X373084Y192902D01*
X375000Y192751D01*
X376916Y192902D01*
X378785Y193351D01*
X380561Y194086D01*
X382200Y195090D01*
X383661Y196339D01*
X384910Y197800D01*
X385914Y199439D01*
X386649Y201215D01*
X387098Y203084D01*
X387249Y205000D01*
X387098Y206916D01*
X386649Y208785D01*
X385914Y210561D01*
X384910Y212200D01*
X383661Y213661D01*
X382200Y214910D01*
X380561Y215914D01*
X378785Y216649D01*
X376916Y217098D01*
X375000Y217249D01*
D02*
G37*
G36*
X15000D02*
X13084Y217098D01*
X11215Y216649D01*
X9439Y215914D01*
X7800Y214910D01*
X6339Y213661D01*
X5091Y212200D01*
X4086Y210561D01*
X3351Y208785D01*
X2902Y206916D01*
X2751Y205000D01*
X2902Y203084D01*
X3351Y201215D01*
X4086Y199439D01*
X5091Y197800D01*
X6339Y196339D01*
X7800Y195090D01*
X9439Y194086D01*
X11215Y193351D01*
X13084Y192902D01*
X15000Y192751D01*
X16916Y192902D01*
X18785Y193351D01*
X20561Y194086D01*
X22200Y195090D01*
X23661Y196339D01*
X24909Y197800D01*
X25914Y199439D01*
X26649Y201215D01*
X27098Y203084D01*
X27249Y205000D01*
X27098Y206916D01*
X26649Y208785D01*
X25914Y210561D01*
X24909Y212200D01*
X23661Y213661D01*
X22200Y214910D01*
X20561Y215914D01*
X18785Y216649D01*
X16916Y217098D01*
X15000Y217249D01*
D02*
G37*
G36*
X141024Y169913D02*
X140176Y169744D01*
X139457Y169264D01*
X138977Y168545D01*
X138808Y167697D01*
X138977Y166849D01*
X139457Y166130D01*
X140176Y165650D01*
X141024Y165481D01*
X141872Y165650D01*
X142590Y166130D01*
X143071Y166849D01*
X143239Y167697D01*
X143071Y168545D01*
X142590Y169264D01*
X141872Y169744D01*
X141024Y169913D01*
D02*
G37*
G36*
X231024D02*
X230176Y169744D01*
X229457Y169264D01*
X228976Y168545D01*
X228808Y167697D01*
X228976Y166849D01*
X229457Y166130D01*
X230176Y165650D01*
X231024Y165481D01*
X231872Y165650D01*
X232590Y166130D01*
X233071Y166849D01*
X233239Y167697D01*
X233071Y168545D01*
X232590Y169264D01*
X231872Y169744D01*
X231024Y169913D01*
D02*
G37*
G36*
Y117413D02*
X230176Y117244D01*
X229457Y116764D01*
X228976Y116045D01*
X228808Y115197D01*
X228976Y114349D01*
X229457Y113630D01*
X230176Y113150D01*
X231024Y112981D01*
X231872Y113150D01*
X232590Y113630D01*
X233071Y114349D01*
X233239Y115197D01*
X233071Y116045D01*
X232590Y116764D01*
X231872Y117244D01*
X231024Y117413D01*
D02*
G37*
G36*
X141024D02*
X140176Y117244D01*
X139457Y116764D01*
X138977Y116045D01*
X138808Y115197D01*
X138977Y114349D01*
X139457Y113630D01*
X140176Y113150D01*
X141024Y112981D01*
X141872Y113150D01*
X142590Y113630D01*
X143071Y114349D01*
X143239Y115197D01*
X143071Y116045D01*
X142590Y116764D01*
X141872Y117244D01*
X141024Y117413D01*
D02*
G37*
G36*
X58000Y128216D02*
X57152Y128047D01*
X56433Y127567D01*
X55953Y126848D01*
X55784Y126000D01*
X55953Y125152D01*
X56433Y124433D01*
X57152Y123953D01*
X58000Y123784D01*
X58848Y123953D01*
X59567Y124433D01*
X60047Y125152D01*
X60216Y126000D01*
X60047Y126848D01*
X59567Y127567D01*
X58848Y128047D01*
X58000Y128216D01*
D02*
G37*
G36*
X56500Y65716D02*
X55652Y65547D01*
X54933Y65067D01*
X54453Y64348D01*
X54284Y63500D01*
X54453Y62652D01*
X54933Y61933D01*
X55652Y61453D01*
X56500Y61284D01*
X57348Y61453D01*
X58067Y61933D01*
X58547Y62652D01*
X58716Y63500D01*
X58547Y64348D01*
X58067Y65067D01*
X57348Y65547D01*
X56500Y65716D01*
D02*
G37*
G36*
Y59216D02*
X55652Y59047D01*
X54933Y58567D01*
X54453Y57848D01*
X54284Y57000D01*
X54453Y56152D01*
X54933Y55433D01*
X55652Y54953D01*
X56500Y54784D01*
X57348Y54953D01*
X58067Y55433D01*
X58547Y56152D01*
X58716Y57000D01*
X58547Y57848D01*
X58067Y58567D01*
X57348Y59047D01*
X56500Y59216D01*
D02*
G37*
G36*
X35000Y37570D02*
X34152Y37402D01*
X33433Y36921D01*
X32953Y36202D01*
X32784Y35354D01*
X32953Y34506D01*
X33433Y33788D01*
X34152Y33307D01*
X35000Y33139D01*
X35848Y33307D01*
X36567Y33788D01*
X37047Y34506D01*
X37216Y35354D01*
X37047Y36202D01*
X36567Y36921D01*
X35848Y37402D01*
X35000Y37570D01*
D02*
G37*
G36*
X40000Y18572D02*
X39330Y18484D01*
X38706Y18225D01*
X38170Y17814D01*
X37774Y17297D01*
X37648Y17278D01*
X37352D01*
X37226Y17297D01*
X36830Y17814D01*
X36294Y18225D01*
X35670Y18484D01*
X35000Y18572D01*
X34330Y18484D01*
X33706Y18225D01*
X33170Y17814D01*
X32759Y17278D01*
X32501Y16654D01*
X32412Y15984D01*
Y14016D01*
X32501Y13346D01*
X32759Y12722D01*
X33170Y12186D01*
X33706Y11775D01*
X34330Y11516D01*
X35000Y11428D01*
X35670Y11516D01*
X36294Y11775D01*
X36830Y12186D01*
X37226Y12703D01*
X37352Y12722D01*
X37648D01*
X37774Y12703D01*
X38170Y12186D01*
X38706Y11775D01*
X39330Y11516D01*
X40000Y11428D01*
X40670Y11516D01*
X41294Y11775D01*
X41830Y12186D01*
X42241Y12722D01*
X42499Y13346D01*
X42588Y14016D01*
Y15984D01*
X42499Y16654D01*
X42241Y17278D01*
X41830Y17814D01*
X41294Y18225D01*
X40670Y18484D01*
X40000Y18572D01*
D02*
G37*
G36*
X15000Y27249D02*
X13084Y27098D01*
X11215Y26649D01*
X9439Y25914D01*
X7800Y24909D01*
X6339Y23661D01*
X5091Y22200D01*
X4086Y20561D01*
X3351Y18785D01*
X2902Y16916D01*
X2751Y15000D01*
X2902Y13084D01*
X3351Y11215D01*
X4086Y9439D01*
X5091Y7800D01*
X6339Y6339D01*
X7800Y5091D01*
X9439Y4086D01*
X11215Y3351D01*
X13084Y2902D01*
X15000Y2751D01*
X16916Y2902D01*
X18785Y3351D01*
X20561Y4086D01*
X22200Y5091D01*
X23661Y6339D01*
X24909Y7800D01*
X25914Y9439D01*
X26649Y11215D01*
X27098Y13084D01*
X27249Y15000D01*
X27098Y16916D01*
X26649Y18785D01*
X25914Y20561D01*
X24909Y22200D01*
X23661Y23661D01*
X22200Y24909D01*
X20561Y25914D01*
X18785Y26649D01*
X16916Y27098D01*
X15000Y27249D01*
D02*
G37*
%LPD*%
D18*
X379650Y39260D02*
D03*
Y71740D02*
D03*
X376969Y118280D02*
D03*
Y85799D02*
D03*
D19*
X366657Y62882D02*
D03*
Y57961D02*
D03*
Y53039D02*
D03*
Y48118D02*
D03*
X363976Y94657D02*
D03*
Y99579D02*
D03*
Y104500D02*
D03*
Y109421D02*
D03*
D45*
X370000Y145000D02*
D03*
X19500D02*
D03*
X20000Y177500D02*
D03*
X370000D02*
D03*
D138*
X84500Y99500D02*
X108500D01*
X110500Y97500D01*
X103000Y95000D02*
X125000D01*
X102000Y96000D02*
X103000Y95000D01*
X125000D02*
X129500Y90500D01*
X97000Y96000D02*
X102000D01*
X125500Y97500D02*
X131500Y91500D01*
X110500Y97500D02*
X125500D01*
X197000Y29000D02*
X251000D01*
X267500Y45500D01*
X194736Y31264D02*
X197000Y29000D01*
X195500Y33500D02*
X197500Y31500D01*
X250500D02*
X270000Y51000D01*
X197500Y31500D02*
X250500D01*
X297500Y68000D02*
X331500D01*
X354500Y91000D01*
Y97000D01*
X257500Y25000D02*
X258500Y26000D01*
X293500D01*
X207500Y19500D02*
X217500D01*
X174500Y25000D02*
X202000D01*
X207500Y19500D01*
X198936Y68564D02*
X205500Y62000D01*
X227500D02*
X230500Y65000D01*
X205500Y62000D02*
X227500D01*
X204500Y60000D02*
X228500D01*
X202500Y62000D02*
X204500Y60000D01*
X228500D02*
X230500Y62000D01*
X150500Y10500D02*
Y13000D01*
X168764Y31264D02*
X194736D01*
X150500Y13000D02*
X168764Y31264D01*
X153000Y22500D02*
X157000D01*
X168000Y33500D01*
X195500D01*
X80229Y19229D02*
X95500Y34500D01*
X80229Y15229D02*
Y19229D01*
X80000Y15000D02*
X80229Y15229D01*
X95500Y34500D02*
X133943D01*
X75095Y15095D02*
Y19095D01*
X92500Y36500D01*
X155500D01*
X75000Y15000D02*
X75095Y15095D01*
X89500Y38500D02*
X152500D01*
X70095Y19095D02*
X89500Y38500D01*
X70000Y15000D02*
X70095Y15095D01*
Y19095D01*
X86500Y40500D02*
X145884D01*
X65172Y19172D02*
X86500Y40500D01*
X65172Y15172D02*
Y19172D01*
X145884Y40500D02*
X146148Y40236D01*
X149236D01*
X152500Y43500D01*
Y38500D02*
X157500Y43500D01*
X155500Y36500D02*
X157500Y38500D01*
X133943Y34500D02*
X138943Y29500D01*
X111338Y18800D02*
X129200D01*
X108461Y21677D02*
X111338Y18800D01*
X129200D02*
X131500Y16500D01*
X103539Y18692D02*
X105231Y17000D01*
X128000D02*
X140500Y4500D01*
X105231Y17000D02*
X128000D01*
X193564Y68564D02*
X198936D01*
X181000Y62000D02*
X202500D01*
X177500Y64000D02*
X189000D01*
X193564Y68564D01*
X167000Y53500D02*
X177500Y64000D01*
X201500Y60000D02*
X204500Y57000D01*
X200500Y58000D02*
X203500Y55000D01*
X185275Y60000D02*
X201500D01*
X178775Y53500D02*
X185275Y60000D01*
X187500Y58000D02*
X200500D01*
X181764Y52264D02*
X187500Y58000D01*
X172500Y53500D02*
X181000Y62000D01*
X199500Y56000D02*
X202500Y53000D01*
X190500Y56000D02*
X199500D01*
X178000Y43500D02*
X190500Y56000D01*
X202500Y53000D02*
X235500D01*
X238500Y56000D01*
X129500Y69049D02*
X136000Y62549D01*
X151000Y64500D02*
X159500Y56000D01*
X136000Y62549D02*
X148500D01*
X137000Y64500D02*
X151000D01*
X148500Y62549D02*
X154500Y56549D01*
X131500Y70000D02*
X137000Y64500D01*
X179852Y50236D02*
X181764Y52148D01*
Y52264D01*
X178000Y48500D02*
X178038D01*
X179775Y50236D02*
X179852D01*
X178038Y48500D02*
X179775Y50236D01*
X230500Y62000D02*
X234725D01*
X230500Y65000D02*
X238725D01*
X234811Y61914D02*
X236086D01*
X236500Y61500D01*
X234725Y62000D02*
X234811Y61914D01*
X238811Y64914D02*
X240086D01*
X240500Y64500D01*
X238725Y65000D02*
X238811Y64914D01*
X212000Y27000D02*
X254500D01*
X209000Y24000D02*
X212000Y27000D01*
X254500D02*
X260000Y32500D01*
X223000Y25000D02*
X257500D01*
X217500Y19500D02*
X223000Y25000D01*
X246000Y45500D02*
X259000D01*
X267500Y54000D01*
X258764Y48764D02*
X266500Y56500D01*
X242000Y48500D02*
X242264Y48764D01*
X258764D01*
X108461Y21677D02*
Y23843D01*
X127321Y3000D02*
X131000Y6679D01*
X58000Y3000D02*
X127321D01*
X55000Y6000D02*
X58000Y3000D01*
X138943Y29500D02*
X153500D01*
X157500Y33500D01*
X131500Y70000D02*
Y91500D01*
X121500Y67000D02*
X132500Y56000D01*
X121500Y67000D02*
Y82000D01*
X118500Y85000D02*
X121500Y82000D01*
X129500Y69049D02*
Y90500D01*
X209000Y23500D02*
Y24000D01*
X312000Y34500D02*
X312000D01*
X315000Y31500D01*
X296500Y70500D02*
X331000D01*
X352500Y92000D02*
Y100000D01*
X331000Y70500D02*
X352500Y92000D01*
X83500Y43000D02*
X99000D01*
X60000Y19500D02*
X83500Y43000D01*
X204500Y57000D02*
X230725D01*
X232225Y58500D02*
X232500D01*
X203500Y55000D02*
X234000D01*
X237000Y58000D01*
X230725Y57000D02*
X232225Y58500D01*
X178500Y53500D02*
X178775D01*
X237000Y58000D02*
X253500D01*
X261500Y66000D01*
X60000Y15000D02*
Y19500D01*
X168000Y4500D02*
X170500Y7000D01*
X140500Y4500D02*
X168000D01*
X131000Y6679D02*
Y7000D01*
X98559Y23902D02*
X98618Y23843D01*
X103539Y18692D02*
Y23843D01*
X131500Y16500D02*
X142000D01*
X55000Y6000D02*
Y15000D01*
X357000Y104500D02*
X363976D01*
X352500Y100000D02*
X357000Y104500D01*
X99000Y43000D02*
X145725D01*
X99000D02*
Y46500D01*
X147086Y43086D02*
X147500Y43500D01*
X145811Y43086D02*
X147086D01*
X145725Y43000D02*
X145811Y43086D01*
X171500Y28000D02*
Y28000D01*
Y28000D02*
X174500Y25000D01*
X280000Y69000D02*
Y81500D01*
X315000Y15000D02*
Y31500D01*
X170500Y39000D02*
X172500Y41000D01*
X164500Y39000D02*
X170500D01*
X162500Y41000D02*
X164500Y39000D01*
X203500Y46000D02*
X228000D01*
X239000Y35000D01*
X262500Y64000D02*
X275000D01*
X280000Y69000D01*
X276500Y69500D02*
Y90000D01*
X273000Y66000D02*
X276500Y69500D01*
X261500Y66000D02*
X273000D01*
X198500Y44000D02*
X204500Y38000D01*
X225000D01*
X266500Y56500D02*
X282500D01*
X270000Y51000D02*
X297000D01*
X267500Y45500D02*
X297000D01*
X283500Y54000D02*
X297500Y68000D01*
X267500Y54000D02*
X283500D01*
X282500Y56500D02*
X296500Y70500D01*
X366539Y48000D02*
X366657Y48118D01*
X344000Y48000D02*
X366539D01*
X366638Y53020D02*
X366657Y53039D01*
X344020Y53020D02*
X366638D01*
X344000Y53000D02*
X344020Y53020D01*
X154500Y56000D02*
Y56549D01*
X147500Y58000D02*
X153000Y52500D01*
X163000D01*
X133500Y58000D02*
X147500D01*
X238500Y56000D02*
X254500D01*
X262500Y64000D01*
X146500Y56000D02*
X152000Y50500D01*
X132500Y56000D02*
X146500D01*
X152000Y50500D02*
X160000D01*
X167000Y43500D01*
X123500Y68000D02*
Y85000D01*
Y68000D02*
X133500Y58000D01*
X172500Y41000D02*
Y48500D01*
X159000D02*
X162500Y45000D01*
Y41000D02*
Y45000D01*
X151000Y48500D02*
X159000D01*
X147000Y52500D02*
X151000Y48500D01*
X134500Y52500D02*
X147000D01*
X163000D02*
X167000Y48500D01*
X65000Y15000D02*
X65172Y15172D01*
X354500Y97000D02*
X357079Y99579D01*
X363976D01*
D139*
X289500Y121500D02*
Y131000D01*
X267000Y99000D02*
X289500Y121500D01*
X252500Y99000D02*
X267000D01*
X297500Y119500D02*
X317185D01*
X321185Y123500D01*
X132000Y97000D02*
X222500D01*
X99500Y129500D02*
Y135500D01*
X103500Y115500D02*
Y125500D01*
X99500Y129500D02*
X103500Y125500D01*
Y115500D02*
X112500Y106500D01*
X122500D01*
X132000Y97000D01*
X99500Y135500D02*
X110500D01*
X114500Y139500D01*
X75815Y129500D02*
X89500D01*
X98500Y120500D01*
D140*
X229500Y14000D02*
X257000D01*
X226500Y17000D02*
X229500Y14000D01*
X226500Y17000D02*
Y21500D01*
D141*
X132047Y31453D02*
X137000Y26500D01*
X121856Y31000D02*
X122309Y31453D01*
X132047D01*
X112000Y31000D02*
X121856D01*
X343894Y93607D02*
X345500Y95213D01*
X178500Y36000D02*
X191000Y48500D01*
X338000Y133000D02*
Y141000D01*
X295000Y74500D02*
X311500D01*
X257000Y53000D02*
X264500Y60500D01*
X191000Y48500D02*
X199500D01*
X237500Y50000D02*
X240500Y53000D01*
X345500Y95213D02*
Y113500D01*
X137000Y26500D02*
X156500D01*
X166000Y36000D01*
X264500Y60500D02*
X281000D01*
X345500Y114000D02*
Y125500D01*
X166000Y36000D02*
X178500D01*
X338000Y133000D02*
X345500Y125500D01*
X199500Y48500D02*
X201000Y50000D01*
X311500Y74500D02*
X325000D01*
X240500Y53000D02*
X257000D01*
X201000Y50000D02*
X237500D01*
X281000Y60500D02*
X295000Y74500D01*
X325000D02*
X344000Y93500D01*
X364075Y94756D02*
X369543D01*
X369787Y95000D02*
X370000D01*
X363976Y94657D02*
X364075Y94756D01*
X369543D02*
X369787Y95000D01*
X358000Y114500D02*
Y121500D01*
Y111019D02*
Y114500D01*
X343000Y136500D02*
X358000Y121500D01*
X343000Y136500D02*
Y141000D01*
X363878Y109520D02*
X363976Y109421D01*
X359499Y109520D02*
X363878D01*
X358000Y111019D02*
X359499Y109520D01*
X351500Y62500D02*
X351882Y62882D01*
X366657D01*
X366559Y57862D02*
X366657Y57961D01*
X337500Y57500D02*
X363085D01*
X363447Y57862D02*
X366559D01*
X363085Y57500D02*
X363447Y57862D01*
X337500Y62500D02*
X351500D01*
D143*
X98500Y29500D02*
X98559Y29441D01*
Y23902D02*
Y29441D01*
X113539Y24000D02*
X117500D01*
X113382Y23843D02*
X113539Y24000D01*
X92000Y84000D02*
Y88500D01*
X77500Y98500D02*
X87374Y88626D01*
X91874D01*
X92000Y88500D01*
X77500Y103500D02*
Y119500D01*
Y98500D02*
Y103500D01*
X69500D02*
X77500D01*
X71000Y126000D02*
X77500Y119500D01*
X71000Y126000D02*
Y144000D01*
X69000Y146000D02*
X71000Y144000D01*
X64000Y146000D02*
X69000D01*
D148*
X310000Y205000D02*
D03*
X80000Y15000D02*
D03*
X310000D02*
D03*
X80000Y205000D02*
D03*
D149*
X315000D02*
D03*
X320000D02*
D03*
X325000D02*
D03*
X330000D02*
D03*
X335000D02*
D03*
X340000D02*
D03*
X345000D02*
D03*
X350000D02*
D03*
X355000D02*
D03*
X35000Y15000D02*
D03*
X40000D02*
D03*
X45000D02*
D03*
X50000D02*
D03*
X55000D02*
D03*
X60000D02*
D03*
X65000D02*
D03*
X70000D02*
D03*
X75000D02*
D03*
X315000D02*
D03*
X320000D02*
D03*
X325000D02*
D03*
X330000D02*
D03*
X335000D02*
D03*
X340000D02*
D03*
X345000D02*
D03*
X350000D02*
D03*
X355000D02*
D03*
X35000Y205000D02*
D03*
X40000D02*
D03*
X45000D02*
D03*
X50000D02*
D03*
X55000D02*
D03*
X60000D02*
D03*
X65000D02*
D03*
X70000D02*
D03*
X75000D02*
D03*
D150*
X366000Y153000D02*
D03*
X374000D02*
D03*
X382000D02*
D03*
X358000D02*
D03*
Y145000D02*
D03*
X366000D02*
D03*
X374000D02*
D03*
X382000D02*
D03*
Y137000D02*
D03*
X374000D02*
D03*
X366000D02*
D03*
X358000D02*
D03*
X7500D02*
D03*
X15500D02*
D03*
X23500D02*
D03*
X31500D02*
D03*
Y145000D02*
D03*
X23500D02*
D03*
X15500D02*
D03*
X7500D02*
D03*
Y153000D02*
D03*
X31500D02*
D03*
X23500D02*
D03*
X15500D02*
D03*
X8000Y169500D02*
D03*
X16000D02*
D03*
X24000D02*
D03*
X32000D02*
D03*
Y177500D02*
D03*
X24000D02*
D03*
X16000D02*
D03*
X8000D02*
D03*
Y185500D02*
D03*
X32000D02*
D03*
X24000D02*
D03*
X16000D02*
D03*
X366000D02*
D03*
X374000D02*
D03*
X382000D02*
D03*
X358000D02*
D03*
Y177500D02*
D03*
X366000D02*
D03*
X374000D02*
D03*
X382000D02*
D03*
Y169500D02*
D03*
X374000D02*
D03*
X366000D02*
D03*
X358000D02*
D03*
X116811Y114000D02*
D03*
X43000Y73500D02*
D03*
X266500Y13000D02*
D03*
X98500Y29500D02*
D03*
X153000Y22500D02*
D03*
X195600Y65300D02*
D03*
X144900Y80200D02*
D03*
X286000Y111000D02*
D03*
X240500Y64500D02*
D03*
X246000Y45500D02*
D03*
X242000Y48500D02*
D03*
X150500Y10500D02*
D03*
X157500D02*
D03*
X112000Y31000D02*
D03*
X128500Y27500D02*
D03*
X159500Y56000D02*
D03*
X154500D02*
D03*
X118000Y72500D02*
D03*
X84500Y99500D02*
D03*
X97000Y96000D02*
D03*
X117000Y101000D02*
D03*
X280000Y145000D02*
D03*
X209000Y23500D02*
D03*
X260000Y32500D02*
D03*
X312000Y34500D02*
D03*
X377000Y87000D02*
D03*
Y80000D02*
D03*
Y123661D02*
D03*
X370000Y90000D02*
D03*
Y95000D02*
D03*
X343000Y141000D02*
D03*
X358000Y114500D02*
D03*
X236500Y61500D02*
D03*
X232500Y58500D02*
D03*
X178500Y53500D02*
D03*
X172500D02*
D03*
X209000Y66000D02*
D03*
X170500Y7000D02*
D03*
X131000D02*
D03*
X117500Y24000D02*
D03*
X142000Y16500D02*
D03*
X82000Y6500D02*
D03*
X123500Y22500D02*
D03*
X92000Y84000D02*
D03*
Y88500D02*
D03*
X344000Y93500D02*
D03*
X336000D02*
D03*
X350000Y136000D02*
D03*
X311500Y74500D02*
D03*
X107500Y61500D02*
D03*
Y57000D02*
D03*
X103000D02*
D03*
X98500D02*
D03*
X94000D02*
D03*
Y61500D02*
D03*
Y70500D02*
D03*
Y75000D02*
D03*
X98500D02*
D03*
X103000D02*
D03*
X107500D02*
D03*
Y70500D02*
D03*
Y66000D02*
D03*
X7500Y80000D02*
D03*
Y75000D02*
D03*
Y70000D02*
D03*
X40000Y62500D02*
D03*
X35000D02*
D03*
X30000D02*
D03*
X25000D02*
D03*
Y57500D02*
D03*
X30000D02*
D03*
X35000D02*
D03*
X40000D02*
D03*
X46000Y35500D02*
D03*
X51500D02*
D03*
X57000D02*
D03*
X18500Y35000D02*
D03*
X13000D02*
D03*
X7500D02*
D03*
Y40500D02*
D03*
Y46000D02*
D03*
X58000Y126000D02*
D03*
X69500Y103500D02*
D03*
X64000Y146000D02*
D03*
X69500Y111500D02*
D03*
X58000Y100500D02*
D03*
X52500Y101000D02*
D03*
X49000Y126000D02*
D03*
X54500Y141500D02*
D03*
X71000Y89000D02*
D03*
X62500Y35500D02*
D03*
X68000D02*
D03*
X167000Y53500D02*
D03*
X171500Y28000D02*
D03*
X280000Y81500D02*
D03*
X293500Y26000D02*
D03*
X239000Y35000D02*
D03*
X257000Y14000D02*
D03*
X266000Y5000D02*
D03*
X272500Y74500D02*
D03*
X311500Y113500D02*
D03*
X289500Y131000D02*
D03*
X252500Y99000D02*
D03*
X282500D02*
D03*
X276500Y90000D02*
D03*
X280547Y125403D02*
D03*
X321185Y123500D02*
D03*
X297500Y119500D02*
D03*
X275500Y145000D02*
D03*
X222500Y97000D02*
D03*
X99500Y135500D02*
D03*
X114500Y139500D02*
D03*
X109721Y124291D02*
D03*
X142000Y140000D02*
D03*
X103500Y145000D02*
D03*
X94500Y113500D02*
D03*
X108500Y145000D02*
D03*
X76315Y129500D02*
D03*
X98500Y120500D02*
D03*
X65500Y135000D02*
D03*
Y140000D02*
D03*
Y119000D02*
D03*
Y124000D02*
D03*
Y129500D02*
D03*
X332000Y123500D02*
D03*
Y118000D02*
D03*
Y113000D02*
D03*
Y134000D02*
D03*
Y129000D02*
D03*
X150000Y140000D02*
D03*
X203500Y46000D02*
D03*
X338000Y141000D02*
D03*
X113500Y46500D02*
D03*
X99000D02*
D03*
X305000Y24000D02*
D03*
X299000Y21500D02*
D03*
X344000Y48000D02*
D03*
Y53000D02*
D03*
X293000Y57000D02*
D03*
X345500Y113500D02*
D03*
X178000Y43500D02*
D03*
Y48500D02*
D03*
X141024Y167697D02*
D03*
X231024D02*
D03*
X141024Y115197D02*
D03*
X231024D02*
D03*
X358500Y80000D02*
D03*
X118500Y85000D02*
D03*
X167000Y43500D02*
D03*
X347000Y73000D02*
D03*
X342000D02*
D03*
X228500Y71000D02*
D03*
X249500Y72000D02*
D03*
X228500Y85000D02*
D03*
X273000Y205071D02*
D03*
X287000D02*
D03*
X273000Y193071D02*
D03*
X287000D02*
D03*
X273000Y199071D02*
D03*
X287000D02*
D03*
X103000Y172000D02*
D03*
Y166000D02*
D03*
Y160000D02*
D03*
X117000D02*
D03*
Y166000D02*
D03*
Y172000D02*
D03*
Y205071D02*
D03*
Y199071D02*
D03*
Y193071D02*
D03*
X103000Y205071D02*
D03*
Y199071D02*
D03*
Y193071D02*
D03*
X159000Y174000D02*
D03*
X254000D02*
D03*
X244000D02*
D03*
X249000D02*
D03*
X254000Y161000D02*
D03*
X249000D02*
D03*
X254000Y167500D02*
D03*
X244000D02*
D03*
X154000D02*
D03*
X164000D02*
D03*
X159000Y161000D02*
D03*
X154000D02*
D03*
Y174000D02*
D03*
X164000D02*
D03*
X57000Y179000D02*
D03*
Y172500D02*
D03*
X48709Y179000D02*
D03*
Y172500D02*
D03*
X332709Y179000D02*
D03*
Y172500D02*
D03*
X341000D02*
D03*
Y179000D02*
D03*
X305000Y180000D02*
D03*
X311000D02*
D03*
X317500D02*
D03*
X323500D02*
D03*
X84000D02*
D03*
X78000D02*
D03*
X71500D02*
D03*
X65500D02*
D03*
X240000Y192500D02*
D03*
X248000D02*
D03*
Y184500D02*
D03*
X240000D02*
D03*
X232000D02*
D03*
Y192500D02*
D03*
Y200500D02*
D03*
X240000D02*
D03*
X248000D02*
D03*
X150000Y192500D02*
D03*
X158000D02*
D03*
Y184500D02*
D03*
X150000D02*
D03*
X142000D02*
D03*
Y192500D02*
D03*
Y200500D02*
D03*
X150000D02*
D03*
X158000D02*
D03*
X217047Y150000D02*
D03*
X214094Y156000D02*
D03*
X220094D02*
D03*
X214094Y144000D02*
D03*
X220094D02*
D03*
X176000D02*
D03*
X170000D02*
D03*
X176000Y156000D02*
D03*
X170000D02*
D03*
X172953Y150000D02*
D03*
X240000Y140000D02*
D03*
X248000D02*
D03*
Y132000D02*
D03*
X240000D02*
D03*
X232000D02*
D03*
Y140000D02*
D03*
Y148000D02*
D03*
X240000D02*
D03*
X248000D02*
D03*
X158000D02*
D03*
X150000D02*
D03*
X142000D02*
D03*
Y132000D02*
D03*
X150000D02*
D03*
X158000D02*
D03*
Y140000D02*
D03*
X123500Y85000D02*
D03*
X172500Y48500D02*
D03*
X167000D02*
D03*
X323500Y159000D02*
D03*
X318000D02*
D03*
X311000D02*
D03*
X305500D02*
D03*
X84000D02*
D03*
X78000D02*
D03*
X71500D02*
D03*
X65500D02*
D03*
X134500Y52500D02*
D03*
X304000Y62500D02*
D03*
X297000Y45500D02*
D03*
X337500Y62500D02*
D03*
X297000Y51000D02*
D03*
X304500Y47500D02*
D03*
X337500Y57500D02*
D03*
X137500Y69000D02*
D03*
X157500Y38500D02*
D03*
Y33500D02*
D03*
X147500Y43500D02*
D03*
X157500D02*
D03*
X152500D02*
D03*
X225000Y38000D02*
D03*
X198500Y44000D02*
D03*
X188000Y19500D02*
D03*
X202000D02*
D03*
X209500Y88000D02*
D03*
X197000D02*
D03*
X196500Y52500D02*
D03*
X118500Y63500D02*
D03*
X56500Y57000D02*
D03*
Y63500D02*
D03*
X71000Y84000D02*
D03*
X67500Y81500D02*
D03*
X62500D02*
D03*
X67500Y57000D02*
D03*
X62000D02*
D03*
X379650Y71740D02*
D03*
Y39260D02*
D03*
X373000Y48000D02*
D03*
X147000Y33000D02*
D03*
X287000Y172000D02*
D03*
X273000D02*
D03*
X287000Y160000D02*
D03*
X273000D02*
D03*
X287000Y166000D02*
D03*
X273000D02*
D03*
X244000Y115000D02*
D03*
X254000D02*
D03*
X249000Y108500D02*
D03*
Y121500D02*
D03*
X244000Y108500D02*
D03*
Y121500D02*
D03*
X254000D02*
D03*
Y108500D02*
D03*
X164000D02*
D03*
Y121500D02*
D03*
X154000D02*
D03*
Y108500D02*
D03*
X159000Y121500D02*
D03*
Y108500D02*
D03*
X164000Y115000D02*
D03*
X154000D02*
D03*
X290000Y4500D02*
D03*
X280000D02*
D03*
X274991D02*
D03*
X185500Y77500D02*
D03*
X152500Y77500D02*
D03*
X185500Y68500D02*
D03*
X152500D02*
D03*
X185500Y86500D02*
D03*
X152500Y86500D02*
D03*
X169000Y86500D02*
D03*
X157000Y82500D02*
D03*
X181000Y68500D02*
D03*
X243000Y21500D02*
D03*
X226500D02*
D03*
X188500Y9500D02*
D03*
X208500D02*
D03*
X128500Y22500D02*
D03*
X32000Y120354D02*
D03*
X10000Y110000D02*
D03*
Y102000D02*
D03*
Y88000D02*
D03*
Y92000D02*
D03*
Y96000D02*
D03*
Y106000D02*
D03*
Y117000D02*
D03*
Y121000D02*
D03*
Y125000D02*
D03*
X50760Y89500D02*
D03*
X35000Y35354D02*
D03*
X32000Y110354D02*
D03*
Y106354D02*
D03*
Y102354D02*
D03*
Y96354D02*
D03*
Y88354D02*
D03*
Y124354D02*
D03*
Y116354D02*
D03*
Y92354D02*
D03*
D151*
X15000Y15000D02*
D03*
X375000D02*
D03*
X15000Y205000D02*
D03*
X375000D02*
D03*
D152*
X113382Y23843D02*
D03*
X108461D02*
D03*
X103539D02*
D03*
X98618D02*
D03*
D153*
X89760Y10850D02*
D03*
X122240D02*
D03*
M02*
