G04*
G04 #@! TF.GenerationSoftware,Altium Limited,Altium Designer,21.0.8 (223)*
G04*
G04 Layer_Physical_Order=2*
G04 Layer_Color=36540*
%FSLAX25Y25*%
%MOIN*%
G70*
G04*
G04 #@! TF.SameCoordinates,7920E5AB-F19E-47E3-9C16-B8E2F772CBAB*
G04*
G04*
G04 #@! TF.FilePolarity,Positive*
G04*
G01*
G75*
%ADD148R,0.04331X0.06299*%
%ADD149O,0.04331X0.06299*%
%ADD150C,0.03347*%
%ADD151C,0.23622*%
G36*
X377619Y218165D02*
X379315Y217711D01*
X380937Y217039D01*
X382457Y216161D01*
X383851Y215092D01*
X385092Y213850D01*
X386161Y212457D01*
X387039Y210937D01*
X387711Y209315D01*
X388165Y207619D01*
X388394Y205878D01*
Y205000D01*
Y119074D01*
X388000Y118663D01*
X349000D01*
X348746Y118612D01*
X348531Y118469D01*
X348388Y118254D01*
X348337Y118000D01*
Y103663D01*
X287000D01*
X286746Y103612D01*
X286531Y103469D01*
X286388Y103254D01*
X286337Y103000D01*
Y68163D01*
X224663D01*
Y88500D01*
Y93000D01*
X224612Y93254D01*
X224469Y93469D01*
X224254Y93612D01*
X224000Y93663D01*
X98314D01*
X98162Y94163D01*
X98567Y94433D01*
X99047Y95152D01*
X99216Y96000D01*
X99047Y96848D01*
X98567Y97567D01*
X97848Y98047D01*
X97000Y98216D01*
X96152Y98047D01*
X95433Y97567D01*
X94953Y96848D01*
X94784Y96000D01*
X94953Y95152D01*
X95433Y94433D01*
X95838Y94163D01*
X95686Y93663D01*
X44500D01*
X44246Y93612D01*
X44031Y93469D01*
X43888Y93254D01*
X43837Y93000D01*
X43888Y92746D01*
X44031Y92531D01*
X44246Y92388D01*
X44500Y92337D01*
X223337D01*
Y88500D01*
Y67500D01*
X223388Y67246D01*
X223531Y67031D01*
X223746Y66888D01*
X224000Y66837D01*
X239186D01*
X239338Y66337D01*
X238933Y66067D01*
X238453Y65348D01*
X238284Y64500D01*
X238453Y63652D01*
X238933Y62933D01*
X239652Y62453D01*
X240500Y62284D01*
X241348Y62453D01*
X242067Y62933D01*
X242547Y63652D01*
X242716Y64500D01*
X242547Y65348D01*
X242067Y66067D01*
X241662Y66337D01*
X241814Y66837D01*
X287000D01*
X287254Y66888D01*
X287469Y67031D01*
X287612Y67246D01*
X287663Y67500D01*
Y102337D01*
X349000D01*
X349254Y102388D01*
X349469Y102531D01*
X349612Y102746D01*
X349663Y103000D01*
Y117337D01*
X388000D01*
X388394Y116926D01*
Y15000D01*
Y14122D01*
X388165Y12381D01*
X387711Y10685D01*
X387039Y9063D01*
X386161Y7542D01*
X385092Y6149D01*
X383851Y4908D01*
X382457Y3839D01*
X380937Y2961D01*
X379315Y2289D01*
X377619Y1835D01*
X375878Y1606D01*
X14122D01*
X12381Y1835D01*
X10685Y2289D01*
X9063Y2961D01*
X7542Y3839D01*
X6149Y4908D01*
X4908Y6149D01*
X3839Y7542D01*
X2961Y9063D01*
X2289Y10685D01*
X1835Y12381D01*
X1606Y14122D01*
Y15000D01*
Y205000D01*
Y205878D01*
X1835Y207619D01*
X2289Y209315D01*
X2961Y210937D01*
X3839Y212457D01*
X4908Y213850D01*
X6149Y215092D01*
X7542Y216161D01*
X9063Y217039D01*
X10685Y217711D01*
X12381Y218165D01*
X14122Y218394D01*
X375878D01*
X377619Y218165D01*
D02*
G37*
%LPC*%
G36*
X355000Y208572D02*
X354330Y208484D01*
X353706Y208225D01*
X353170Y207814D01*
X352774Y207297D01*
X352648Y207278D01*
X352352D01*
X352226Y207297D01*
X351830Y207814D01*
X351294Y208225D01*
X350670Y208484D01*
X350000Y208572D01*
X349330Y208484D01*
X348706Y208225D01*
X348170Y207814D01*
X347774Y207297D01*
X347648Y207278D01*
X347352D01*
X347226Y207297D01*
X346830Y207814D01*
X346294Y208225D01*
X345670Y208484D01*
X345000Y208572D01*
X344330Y208484D01*
X343706Y208225D01*
X343170Y207814D01*
X342774Y207297D01*
X342648Y207278D01*
X342352D01*
X342226Y207297D01*
X341830Y207814D01*
X341294Y208225D01*
X340670Y208484D01*
X340000Y208572D01*
X339330Y208484D01*
X338706Y208225D01*
X338170Y207814D01*
X337774Y207297D01*
X337648Y207278D01*
X337352D01*
X337226Y207297D01*
X336830Y207814D01*
X336294Y208225D01*
X335670Y208484D01*
X335000Y208572D01*
X334330Y208484D01*
X333706Y208225D01*
X333170Y207814D01*
X332774Y207297D01*
X332648Y207278D01*
X332352D01*
X332226Y207297D01*
X331830Y207814D01*
X331294Y208225D01*
X330670Y208484D01*
X330000Y208572D01*
X329330Y208484D01*
X328706Y208225D01*
X328170Y207814D01*
X327759Y207278D01*
X327501Y206654D01*
X327413Y205984D01*
Y204016D01*
X327501Y203346D01*
X327759Y202722D01*
X328170Y202186D01*
X328706Y201775D01*
X329330Y201516D01*
X330000Y201428D01*
X330670Y201516D01*
X331294Y201775D01*
X331830Y202186D01*
X332226Y202703D01*
X332352Y202722D01*
X332648D01*
X332774Y202703D01*
X333170Y202186D01*
X333706Y201775D01*
X334330Y201516D01*
X335000Y201428D01*
X335670Y201516D01*
X336294Y201775D01*
X336830Y202186D01*
X337226Y202703D01*
X337352Y202722D01*
X337648D01*
X337774Y202703D01*
X338170Y202186D01*
X338706Y201775D01*
X339330Y201516D01*
X340000Y201428D01*
X340670Y201516D01*
X341294Y201775D01*
X341830Y202186D01*
X342226Y202703D01*
X342352Y202722D01*
X342648D01*
X342774Y202703D01*
X343170Y202186D01*
X343706Y201775D01*
X344330Y201516D01*
X345000Y201428D01*
X345670Y201516D01*
X346294Y201775D01*
X346830Y202186D01*
X347226Y202703D01*
X347352Y202722D01*
X347648D01*
X347774Y202703D01*
X348170Y202186D01*
X348706Y201775D01*
X349330Y201516D01*
X350000Y201428D01*
X350670Y201516D01*
X351294Y201775D01*
X351830Y202186D01*
X352226Y202703D01*
X352352Y202722D01*
X352648D01*
X352774Y202703D01*
X353170Y202186D01*
X353706Y201775D01*
X354330Y201516D01*
X355000Y201428D01*
X355670Y201516D01*
X356294Y201775D01*
X356830Y202186D01*
X357241Y202722D01*
X357499Y203346D01*
X357588Y204016D01*
Y205984D01*
X357499Y206654D01*
X357241Y207278D01*
X356830Y207814D01*
X356294Y208225D01*
X355670Y208484D01*
X355000Y208572D01*
D02*
G37*
G36*
X60000D02*
X59330Y208484D01*
X58706Y208225D01*
X58170Y207814D01*
X57774Y207297D01*
X57648Y207278D01*
X57352D01*
X57226Y207297D01*
X56830Y207814D01*
X56294Y208225D01*
X55670Y208484D01*
X55000Y208572D01*
X54330Y208484D01*
X53706Y208225D01*
X53170Y207814D01*
X52774Y207297D01*
X52648Y207278D01*
X52352D01*
X52226Y207297D01*
X51830Y207814D01*
X51294Y208225D01*
X50670Y208484D01*
X50000Y208572D01*
X49330Y208484D01*
X48706Y208225D01*
X48170Y207814D01*
X47774Y207297D01*
X47648Y207278D01*
X47352D01*
X47226Y207297D01*
X46830Y207814D01*
X46294Y208225D01*
X45670Y208484D01*
X45000Y208572D01*
X44330Y208484D01*
X43706Y208225D01*
X43170Y207814D01*
X42774Y207297D01*
X42648Y207278D01*
X42352D01*
X42226Y207297D01*
X41830Y207814D01*
X41294Y208225D01*
X40670Y208484D01*
X40000Y208572D01*
X39330Y208484D01*
X38706Y208225D01*
X38170Y207814D01*
X37774Y207297D01*
X37648Y207278D01*
X37352D01*
X37226Y207297D01*
X36830Y207814D01*
X36294Y208225D01*
X35670Y208484D01*
X35000Y208572D01*
X34330Y208484D01*
X33706Y208225D01*
X33170Y207814D01*
X32759Y207278D01*
X32501Y206654D01*
X32412Y205984D01*
Y204016D01*
X32501Y203346D01*
X32759Y202722D01*
X33170Y202186D01*
X33706Y201775D01*
X34330Y201516D01*
X35000Y201428D01*
X35670Y201516D01*
X36294Y201775D01*
X36830Y202186D01*
X37226Y202703D01*
X37352Y202722D01*
X37648D01*
X37774Y202703D01*
X38170Y202186D01*
X38706Y201775D01*
X39330Y201516D01*
X40000Y201428D01*
X40670Y201516D01*
X41294Y201775D01*
X41830Y202186D01*
X42226Y202703D01*
X42352Y202722D01*
X42648D01*
X42774Y202703D01*
X43170Y202186D01*
X43706Y201775D01*
X44330Y201516D01*
X45000Y201428D01*
X45670Y201516D01*
X46294Y201775D01*
X46830Y202186D01*
X47226Y202703D01*
X47352Y202722D01*
X47648D01*
X47774Y202703D01*
X48170Y202186D01*
X48706Y201775D01*
X49330Y201516D01*
X50000Y201428D01*
X50670Y201516D01*
X51294Y201775D01*
X51830Y202186D01*
X52226Y202703D01*
X52352Y202722D01*
X52648D01*
X52774Y202703D01*
X53170Y202186D01*
X53706Y201775D01*
X54330Y201516D01*
X55000Y201428D01*
X55670Y201516D01*
X56294Y201775D01*
X56830Y202186D01*
X57226Y202703D01*
X57352Y202722D01*
X57648D01*
X57774Y202703D01*
X58170Y202186D01*
X58706Y201775D01*
X59330Y201516D01*
X60000Y201428D01*
X60670Y201516D01*
X61294Y201775D01*
X61830Y202186D01*
X62241Y202722D01*
X62499Y203346D01*
X62587Y204016D01*
Y205984D01*
X62499Y206654D01*
X62241Y207278D01*
X61830Y207814D01*
X61294Y208225D01*
X60670Y208484D01*
X60000Y208572D01*
D02*
G37*
G36*
X287000Y207287D02*
X286152Y207118D01*
X285433Y206638D01*
X284953Y205919D01*
X284784Y205071D01*
X284953Y204223D01*
X285433Y203504D01*
X286152Y203024D01*
X287000Y202855D01*
X287848Y203024D01*
X288567Y203504D01*
X289047Y204223D01*
X289216Y205071D01*
X289047Y205919D01*
X288567Y206638D01*
X287848Y207118D01*
X287000Y207287D01*
D02*
G37*
G36*
X273000D02*
X272152Y207118D01*
X271433Y206638D01*
X270953Y205919D01*
X270784Y205071D01*
X270953Y204223D01*
X271433Y203504D01*
X272152Y203024D01*
X273000Y202855D01*
X273848Y203024D01*
X274567Y203504D01*
X275047Y204223D01*
X275216Y205071D01*
X275047Y205919D01*
X274567Y206638D01*
X273848Y207118D01*
X273000Y207287D01*
D02*
G37*
G36*
X117000D02*
X116152Y207118D01*
X115433Y206638D01*
X114953Y205919D01*
X114784Y205071D01*
X114953Y204223D01*
X115433Y203504D01*
X116152Y203024D01*
X117000Y202855D01*
X117848Y203024D01*
X118567Y203504D01*
X119047Y204223D01*
X119216Y205071D01*
X119047Y205919D01*
X118567Y206638D01*
X117848Y207118D01*
X117000Y207287D01*
D02*
G37*
G36*
X103000D02*
X102152Y207118D01*
X101433Y206638D01*
X100953Y205919D01*
X100784Y205071D01*
X100953Y204223D01*
X101433Y203504D01*
X102152Y203024D01*
X103000Y202855D01*
X103848Y203024D01*
X104567Y203504D01*
X105047Y204223D01*
X105216Y205071D01*
X105047Y205919D01*
X104567Y206638D01*
X103848Y207118D01*
X103000Y207287D01*
D02*
G37*
G36*
X248000Y202716D02*
X247152Y202547D01*
X246433Y202067D01*
X245953Y201348D01*
X245784Y200500D01*
X245953Y199652D01*
X246433Y198933D01*
X247152Y198453D01*
X248000Y198284D01*
X248848Y198453D01*
X249567Y198933D01*
X250047Y199652D01*
X250216Y200500D01*
X250047Y201348D01*
X249567Y202067D01*
X248848Y202547D01*
X248000Y202716D01*
D02*
G37*
G36*
X240000D02*
X239152Y202547D01*
X238433Y202067D01*
X237953Y201348D01*
X237784Y200500D01*
X237953Y199652D01*
X238433Y198933D01*
X239152Y198453D01*
X240000Y198284D01*
X240848Y198453D01*
X241567Y198933D01*
X242047Y199652D01*
X242216Y200500D01*
X242047Y201348D01*
X241567Y202067D01*
X240848Y202547D01*
X240000Y202716D01*
D02*
G37*
G36*
X232000D02*
X231152Y202547D01*
X230433Y202067D01*
X229953Y201348D01*
X229784Y200500D01*
X229953Y199652D01*
X230433Y198933D01*
X231152Y198453D01*
X232000Y198284D01*
X232848Y198453D01*
X233567Y198933D01*
X234047Y199652D01*
X234216Y200500D01*
X234047Y201348D01*
X233567Y202067D01*
X232848Y202547D01*
X232000Y202716D01*
D02*
G37*
G36*
X158000D02*
X157152Y202547D01*
X156433Y202067D01*
X155953Y201348D01*
X155784Y200500D01*
X155953Y199652D01*
X156433Y198933D01*
X157152Y198453D01*
X158000Y198284D01*
X158848Y198453D01*
X159567Y198933D01*
X160047Y199652D01*
X160216Y200500D01*
X160047Y201348D01*
X159567Y202067D01*
X158848Y202547D01*
X158000Y202716D01*
D02*
G37*
G36*
X150000D02*
X149152Y202547D01*
X148433Y202067D01*
X147953Y201348D01*
X147784Y200500D01*
X147953Y199652D01*
X148433Y198933D01*
X149152Y198453D01*
X150000Y198284D01*
X150848Y198453D01*
X151567Y198933D01*
X152047Y199652D01*
X152216Y200500D01*
X152047Y201348D01*
X151567Y202067D01*
X150848Y202547D01*
X150000Y202716D01*
D02*
G37*
G36*
X142000D02*
X141152Y202547D01*
X140433Y202067D01*
X139953Y201348D01*
X139784Y200500D01*
X139953Y199652D01*
X140433Y198933D01*
X141152Y198453D01*
X142000Y198284D01*
X142848Y198453D01*
X143567Y198933D01*
X144047Y199652D01*
X144216Y200500D01*
X144047Y201348D01*
X143567Y202067D01*
X142848Y202547D01*
X142000Y202716D01*
D02*
G37*
G36*
X287000Y201287D02*
X286152Y201118D01*
X285433Y200638D01*
X284953Y199919D01*
X284784Y199071D01*
X284953Y198223D01*
X285433Y197504D01*
X286152Y197024D01*
X287000Y196855D01*
X287848Y197024D01*
X288567Y197504D01*
X289047Y198223D01*
X289216Y199071D01*
X289047Y199919D01*
X288567Y200638D01*
X287848Y201118D01*
X287000Y201287D01*
D02*
G37*
G36*
X273000D02*
X272152Y201118D01*
X271433Y200638D01*
X270953Y199919D01*
X270784Y199071D01*
X270953Y198223D01*
X271433Y197504D01*
X272152Y197024D01*
X273000Y196855D01*
X273848Y197024D01*
X274567Y197504D01*
X275047Y198223D01*
X275216Y199071D01*
X275047Y199919D01*
X274567Y200638D01*
X273848Y201118D01*
X273000Y201287D01*
D02*
G37*
G36*
X117000D02*
X116152Y201118D01*
X115433Y200638D01*
X114953Y199919D01*
X114784Y199071D01*
X114953Y198223D01*
X115433Y197504D01*
X116152Y197024D01*
X117000Y196855D01*
X117848Y197024D01*
X118567Y197504D01*
X119047Y198223D01*
X119216Y199071D01*
X119047Y199919D01*
X118567Y200638D01*
X117848Y201118D01*
X117000Y201287D01*
D02*
G37*
G36*
X103000D02*
X102152Y201118D01*
X101433Y200638D01*
X100953Y199919D01*
X100784Y199071D01*
X100953Y198223D01*
X101433Y197504D01*
X102152Y197024D01*
X103000Y196855D01*
X103848Y197024D01*
X104567Y197504D01*
X105047Y198223D01*
X105216Y199071D01*
X105047Y199919D01*
X104567Y200638D01*
X103848Y201118D01*
X103000Y201287D01*
D02*
G37*
G36*
X287000Y195287D02*
X286152Y195118D01*
X285433Y194638D01*
X284953Y193919D01*
X284784Y193071D01*
X284953Y192223D01*
X285433Y191504D01*
X286152Y191024D01*
X287000Y190855D01*
X287848Y191024D01*
X288567Y191504D01*
X289047Y192223D01*
X289216Y193071D01*
X289047Y193919D01*
X288567Y194638D01*
X287848Y195118D01*
X287000Y195287D01*
D02*
G37*
G36*
X273000D02*
X272152Y195118D01*
X271433Y194638D01*
X270953Y193919D01*
X270784Y193071D01*
X270953Y192223D01*
X271433Y191504D01*
X272152Y191024D01*
X273000Y190855D01*
X273848Y191024D01*
X274567Y191504D01*
X275047Y192223D01*
X275216Y193071D01*
X275047Y193919D01*
X274567Y194638D01*
X273848Y195118D01*
X273000Y195287D01*
D02*
G37*
G36*
X117000D02*
X116152Y195118D01*
X115433Y194638D01*
X114953Y193919D01*
X114784Y193071D01*
X114953Y192223D01*
X115433Y191504D01*
X116152Y191024D01*
X117000Y190855D01*
X117848Y191024D01*
X118567Y191504D01*
X119047Y192223D01*
X119216Y193071D01*
X119047Y193919D01*
X118567Y194638D01*
X117848Y195118D01*
X117000Y195287D01*
D02*
G37*
G36*
X103000D02*
X102152Y195118D01*
X101433Y194638D01*
X100953Y193919D01*
X100784Y193071D01*
X100953Y192223D01*
X101433Y191504D01*
X102152Y191024D01*
X103000Y190855D01*
X103848Y191024D01*
X104567Y191504D01*
X105047Y192223D01*
X105216Y193071D01*
X105047Y193919D01*
X104567Y194638D01*
X103848Y195118D01*
X103000Y195287D01*
D02*
G37*
G36*
X248000Y194716D02*
X247152Y194547D01*
X246433Y194067D01*
X245953Y193348D01*
X245784Y192500D01*
X245953Y191652D01*
X246433Y190933D01*
X247152Y190453D01*
X248000Y190284D01*
X248848Y190453D01*
X249567Y190933D01*
X250047Y191652D01*
X250216Y192500D01*
X250047Y193348D01*
X249567Y194067D01*
X248848Y194547D01*
X248000Y194716D01*
D02*
G37*
G36*
X240000D02*
X239152Y194547D01*
X238433Y194067D01*
X237953Y193348D01*
X237784Y192500D01*
X237953Y191652D01*
X238433Y190933D01*
X239152Y190453D01*
X240000Y190284D01*
X240848Y190453D01*
X241567Y190933D01*
X242047Y191652D01*
X242216Y192500D01*
X242047Y193348D01*
X241567Y194067D01*
X240848Y194547D01*
X240000Y194716D01*
D02*
G37*
G36*
X232000D02*
X231152Y194547D01*
X230433Y194067D01*
X229953Y193348D01*
X229784Y192500D01*
X229953Y191652D01*
X230433Y190933D01*
X231152Y190453D01*
X232000Y190284D01*
X232848Y190453D01*
X233567Y190933D01*
X234047Y191652D01*
X234216Y192500D01*
X234047Y193348D01*
X233567Y194067D01*
X232848Y194547D01*
X232000Y194716D01*
D02*
G37*
G36*
X158000D02*
X157152Y194547D01*
X156433Y194067D01*
X155953Y193348D01*
X155784Y192500D01*
X155953Y191652D01*
X156433Y190933D01*
X157152Y190453D01*
X158000Y190284D01*
X158848Y190453D01*
X159567Y190933D01*
X160047Y191652D01*
X160216Y192500D01*
X160047Y193348D01*
X159567Y194067D01*
X158848Y194547D01*
X158000Y194716D01*
D02*
G37*
G36*
X150000D02*
X149152Y194547D01*
X148433Y194067D01*
X147953Y193348D01*
X147784Y192500D01*
X147953Y191652D01*
X148433Y190933D01*
X149152Y190453D01*
X150000Y190284D01*
X150848Y190453D01*
X151567Y190933D01*
X152047Y191652D01*
X152216Y192500D01*
X152047Y193348D01*
X151567Y194067D01*
X150848Y194547D01*
X150000Y194716D01*
D02*
G37*
G36*
X142000D02*
X141152Y194547D01*
X140433Y194067D01*
X139953Y193348D01*
X139784Y192500D01*
X139953Y191652D01*
X140433Y190933D01*
X141152Y190453D01*
X142000Y190284D01*
X142848Y190453D01*
X143567Y190933D01*
X144047Y191652D01*
X144216Y192500D01*
X144047Y193348D01*
X143567Y194067D01*
X142848Y194547D01*
X142000Y194716D01*
D02*
G37*
G36*
X382000Y187614D02*
X381191Y187453D01*
X380505Y186995D01*
X380047Y186309D01*
X379886Y185500D01*
X380047Y184691D01*
X380505Y184005D01*
X381191Y183547D01*
X382000Y183386D01*
X382809Y183547D01*
X383495Y184005D01*
X383953Y184691D01*
X384114Y185500D01*
X383953Y186309D01*
X383495Y186995D01*
X382809Y187453D01*
X382000Y187614D01*
D02*
G37*
G36*
X374000D02*
X373191Y187453D01*
X372505Y186995D01*
X372047Y186309D01*
X371886Y185500D01*
X372047Y184691D01*
X372505Y184005D01*
X373191Y183547D01*
X374000Y183386D01*
X374809Y183547D01*
X375495Y184005D01*
X375953Y184691D01*
X376114Y185500D01*
X375953Y186309D01*
X375495Y186995D01*
X374809Y187453D01*
X374000Y187614D01*
D02*
G37*
G36*
X366000D02*
X365191Y187453D01*
X364505Y186995D01*
X364047Y186309D01*
X363886Y185500D01*
X364047Y184691D01*
X364505Y184005D01*
X365191Y183547D01*
X366000Y183386D01*
X366809Y183547D01*
X367495Y184005D01*
X367953Y184691D01*
X368114Y185500D01*
X367953Y186309D01*
X367495Y186995D01*
X366809Y187453D01*
X366000Y187614D01*
D02*
G37*
G36*
X358000D02*
X357191Y187453D01*
X356505Y186995D01*
X356047Y186309D01*
X355886Y185500D01*
X356047Y184691D01*
X356505Y184005D01*
X357191Y183547D01*
X358000Y183386D01*
X358809Y183547D01*
X359495Y184005D01*
X359953Y184691D01*
X360114Y185500D01*
X359953Y186309D01*
X359495Y186995D01*
X358809Y187453D01*
X358000Y187614D01*
D02*
G37*
G36*
X32000D02*
X31191Y187453D01*
X30505Y186995D01*
X30047Y186309D01*
X29886Y185500D01*
X30047Y184691D01*
X30505Y184005D01*
X31191Y183547D01*
X32000Y183386D01*
X32809Y183547D01*
X33495Y184005D01*
X33953Y184691D01*
X34114Y185500D01*
X33953Y186309D01*
X33495Y186995D01*
X32809Y187453D01*
X32000Y187614D01*
D02*
G37*
G36*
X24000D02*
X23191Y187453D01*
X22505Y186995D01*
X22047Y186309D01*
X21886Y185500D01*
X22047Y184691D01*
X22505Y184005D01*
X23191Y183547D01*
X24000Y183386D01*
X24809Y183547D01*
X25495Y184005D01*
X25953Y184691D01*
X26114Y185500D01*
X25953Y186309D01*
X25495Y186995D01*
X24809Y187453D01*
X24000Y187614D01*
D02*
G37*
G36*
X16000D02*
X15191Y187453D01*
X14505Y186995D01*
X14047Y186309D01*
X13886Y185500D01*
X14047Y184691D01*
X14505Y184005D01*
X15191Y183547D01*
X16000Y183386D01*
X16809Y183547D01*
X17495Y184005D01*
X17953Y184691D01*
X18114Y185500D01*
X17953Y186309D01*
X17495Y186995D01*
X16809Y187453D01*
X16000Y187614D01*
D02*
G37*
G36*
X8000D02*
X7191Y187453D01*
X6505Y186995D01*
X6047Y186309D01*
X5886Y185500D01*
X6047Y184691D01*
X6505Y184005D01*
X7191Y183547D01*
X8000Y183386D01*
X8809Y183547D01*
X9495Y184005D01*
X9953Y184691D01*
X10114Y185500D01*
X9953Y186309D01*
X9495Y186995D01*
X8809Y187453D01*
X8000Y187614D01*
D02*
G37*
G36*
X248000Y186716D02*
X247152Y186547D01*
X246433Y186067D01*
X245953Y185348D01*
X245784Y184500D01*
X245953Y183652D01*
X246433Y182933D01*
X247152Y182453D01*
X248000Y182284D01*
X248848Y182453D01*
X249567Y182933D01*
X250047Y183652D01*
X250216Y184500D01*
X250047Y185348D01*
X249567Y186067D01*
X248848Y186547D01*
X248000Y186716D01*
D02*
G37*
G36*
X240000D02*
X239152Y186547D01*
X238433Y186067D01*
X237953Y185348D01*
X237784Y184500D01*
X237953Y183652D01*
X238433Y182933D01*
X239152Y182453D01*
X240000Y182284D01*
X240848Y182453D01*
X241567Y182933D01*
X242047Y183652D01*
X242216Y184500D01*
X242047Y185348D01*
X241567Y186067D01*
X240848Y186547D01*
X240000Y186716D01*
D02*
G37*
G36*
X232000D02*
X231152Y186547D01*
X230433Y186067D01*
X229953Y185348D01*
X229784Y184500D01*
X229953Y183652D01*
X230433Y182933D01*
X231152Y182453D01*
X232000Y182284D01*
X232848Y182453D01*
X233567Y182933D01*
X234047Y183652D01*
X234216Y184500D01*
X234047Y185348D01*
X233567Y186067D01*
X232848Y186547D01*
X232000Y186716D01*
D02*
G37*
G36*
X158000D02*
X157152Y186547D01*
X156433Y186067D01*
X155953Y185348D01*
X155784Y184500D01*
X155953Y183652D01*
X156433Y182933D01*
X157152Y182453D01*
X158000Y182284D01*
X158848Y182453D01*
X159567Y182933D01*
X160047Y183652D01*
X160216Y184500D01*
X160047Y185348D01*
X159567Y186067D01*
X158848Y186547D01*
X158000Y186716D01*
D02*
G37*
G36*
X150000D02*
X149152Y186547D01*
X148433Y186067D01*
X147953Y185348D01*
X147784Y184500D01*
X147953Y183652D01*
X148433Y182933D01*
X149152Y182453D01*
X150000Y182284D01*
X150848Y182453D01*
X151567Y182933D01*
X152047Y183652D01*
X152216Y184500D01*
X152047Y185348D01*
X151567Y186067D01*
X150848Y186547D01*
X150000Y186716D01*
D02*
G37*
G36*
X142000D02*
X141152Y186547D01*
X140433Y186067D01*
X139953Y185348D01*
X139784Y184500D01*
X139953Y183652D01*
X140433Y182933D01*
X141152Y182453D01*
X142000Y182284D01*
X142848Y182453D01*
X143567Y182933D01*
X144047Y183652D01*
X144216Y184500D01*
X144047Y185348D01*
X143567Y186067D01*
X142848Y186547D01*
X142000Y186716D01*
D02*
G37*
G36*
X323500Y182216D02*
X322652Y182047D01*
X321933Y181567D01*
X321453Y180848D01*
X321284Y180000D01*
X321453Y179152D01*
X321933Y178433D01*
X322652Y177953D01*
X323500Y177784D01*
X324348Y177953D01*
X325067Y178433D01*
X325547Y179152D01*
X325716Y180000D01*
X325547Y180848D01*
X325067Y181567D01*
X324348Y182047D01*
X323500Y182216D01*
D02*
G37*
G36*
X317500D02*
X316652Y182047D01*
X315933Y181567D01*
X315453Y180848D01*
X315284Y180000D01*
X315453Y179152D01*
X315933Y178433D01*
X316652Y177953D01*
X317500Y177784D01*
X318348Y177953D01*
X319067Y178433D01*
X319547Y179152D01*
X319716Y180000D01*
X319547Y180848D01*
X319067Y181567D01*
X318348Y182047D01*
X317500Y182216D01*
D02*
G37*
G36*
X311000D02*
X310152Y182047D01*
X309433Y181567D01*
X308953Y180848D01*
X308784Y180000D01*
X308953Y179152D01*
X309433Y178433D01*
X310152Y177953D01*
X311000Y177784D01*
X311848Y177953D01*
X312567Y178433D01*
X313047Y179152D01*
X313216Y180000D01*
X313047Y180848D01*
X312567Y181567D01*
X311848Y182047D01*
X311000Y182216D01*
D02*
G37*
G36*
X305000D02*
X304152Y182047D01*
X303433Y181567D01*
X302953Y180848D01*
X302784Y180000D01*
X302953Y179152D01*
X303433Y178433D01*
X304152Y177953D01*
X305000Y177784D01*
X305848Y177953D01*
X306567Y178433D01*
X307047Y179152D01*
X307216Y180000D01*
X307047Y180848D01*
X306567Y181567D01*
X305848Y182047D01*
X305000Y182216D01*
D02*
G37*
G36*
X84000D02*
X83152Y182047D01*
X82433Y181567D01*
X81953Y180848D01*
X81784Y180000D01*
X81953Y179152D01*
X82433Y178433D01*
X83152Y177953D01*
X84000Y177784D01*
X84848Y177953D01*
X85567Y178433D01*
X86047Y179152D01*
X86216Y180000D01*
X86047Y180848D01*
X85567Y181567D01*
X84848Y182047D01*
X84000Y182216D01*
D02*
G37*
G36*
X78000D02*
X77152Y182047D01*
X76433Y181567D01*
X75953Y180848D01*
X75784Y180000D01*
X75953Y179152D01*
X76433Y178433D01*
X77152Y177953D01*
X78000Y177784D01*
X78848Y177953D01*
X79567Y178433D01*
X80047Y179152D01*
X80216Y180000D01*
X80047Y180848D01*
X79567Y181567D01*
X78848Y182047D01*
X78000Y182216D01*
D02*
G37*
G36*
X71500D02*
X70652Y182047D01*
X69933Y181567D01*
X69453Y180848D01*
X69284Y180000D01*
X69453Y179152D01*
X69933Y178433D01*
X70652Y177953D01*
X71500Y177784D01*
X72348Y177953D01*
X73067Y178433D01*
X73547Y179152D01*
X73716Y180000D01*
X73547Y180848D01*
X73067Y181567D01*
X72348Y182047D01*
X71500Y182216D01*
D02*
G37*
G36*
X65500D02*
X64652Y182047D01*
X63933Y181567D01*
X63453Y180848D01*
X63284Y180000D01*
X63453Y179152D01*
X63933Y178433D01*
X64652Y177953D01*
X65500Y177784D01*
X66348Y177953D01*
X67067Y178433D01*
X67547Y179152D01*
X67716Y180000D01*
X67547Y180848D01*
X67067Y181567D01*
X66348Y182047D01*
X65500Y182216D01*
D02*
G37*
G36*
X341000Y181216D02*
X340152Y181047D01*
X339433Y180567D01*
X338953Y179848D01*
X338784Y179000D01*
X338953Y178152D01*
X339433Y177433D01*
X340152Y176953D01*
X341000Y176784D01*
X341848Y176953D01*
X342567Y177433D01*
X343047Y178152D01*
X343216Y179000D01*
X343047Y179848D01*
X342567Y180567D01*
X341848Y181047D01*
X341000Y181216D01*
D02*
G37*
G36*
X332709D02*
X331861Y181047D01*
X331142Y180567D01*
X330662Y179848D01*
X330493Y179000D01*
X330662Y178152D01*
X331142Y177433D01*
X331861Y176953D01*
X332709Y176784D01*
X333557Y176953D01*
X334276Y177433D01*
X334756Y178152D01*
X334925Y179000D01*
X334756Y179848D01*
X334276Y180567D01*
X333557Y181047D01*
X332709Y181216D01*
D02*
G37*
G36*
X57000D02*
X56152Y181047D01*
X55433Y180567D01*
X54953Y179848D01*
X54784Y179000D01*
X54953Y178152D01*
X55433Y177433D01*
X56152Y176953D01*
X57000Y176784D01*
X57848Y176953D01*
X58567Y177433D01*
X59047Y178152D01*
X59216Y179000D01*
X59047Y179848D01*
X58567Y180567D01*
X57848Y181047D01*
X57000Y181216D01*
D02*
G37*
G36*
X48709D02*
X47861Y181047D01*
X47142Y180567D01*
X46661Y179848D01*
X46493Y179000D01*
X46661Y178152D01*
X47142Y177433D01*
X47861Y176953D01*
X48709Y176784D01*
X49557Y176953D01*
X50275Y177433D01*
X50756Y178152D01*
X50924Y179000D01*
X50756Y179848D01*
X50275Y180567D01*
X49557Y181047D01*
X48709Y181216D01*
D02*
G37*
G36*
X382000Y179614D02*
X381191Y179453D01*
X380505Y178995D01*
X380047Y178309D01*
X379886Y177500D01*
X380047Y176691D01*
X380505Y176005D01*
X381191Y175547D01*
X382000Y175386D01*
X382809Y175547D01*
X383495Y176005D01*
X383953Y176691D01*
X384114Y177500D01*
X383953Y178309D01*
X383495Y178995D01*
X382809Y179453D01*
X382000Y179614D01*
D02*
G37*
G36*
X374000D02*
X373191Y179453D01*
X372505Y178995D01*
X372047Y178309D01*
X371886Y177500D01*
X372047Y176691D01*
X372505Y176005D01*
X373191Y175547D01*
X374000Y175386D01*
X374809Y175547D01*
X375495Y176005D01*
X375953Y176691D01*
X376114Y177500D01*
X375953Y178309D01*
X375495Y178995D01*
X374809Y179453D01*
X374000Y179614D01*
D02*
G37*
G36*
X366000D02*
X365191Y179453D01*
X364505Y178995D01*
X364047Y178309D01*
X363886Y177500D01*
X364047Y176691D01*
X364505Y176005D01*
X365191Y175547D01*
X366000Y175386D01*
X366809Y175547D01*
X367495Y176005D01*
X367953Y176691D01*
X368114Y177500D01*
X367953Y178309D01*
X367495Y178995D01*
X366809Y179453D01*
X366000Y179614D01*
D02*
G37*
G36*
X358000D02*
X357191Y179453D01*
X356505Y178995D01*
X356047Y178309D01*
X355886Y177500D01*
X356047Y176691D01*
X356505Y176005D01*
X357191Y175547D01*
X358000Y175386D01*
X358809Y175547D01*
X359495Y176005D01*
X359953Y176691D01*
X360114Y177500D01*
X359953Y178309D01*
X359495Y178995D01*
X358809Y179453D01*
X358000Y179614D01*
D02*
G37*
G36*
X32000D02*
X31191Y179453D01*
X30505Y178995D01*
X30047Y178309D01*
X29886Y177500D01*
X30047Y176691D01*
X30505Y176005D01*
X31191Y175547D01*
X32000Y175386D01*
X32809Y175547D01*
X33495Y176005D01*
X33953Y176691D01*
X34114Y177500D01*
X33953Y178309D01*
X33495Y178995D01*
X32809Y179453D01*
X32000Y179614D01*
D02*
G37*
G36*
X24000D02*
X23191Y179453D01*
X22505Y178995D01*
X22047Y178309D01*
X21886Y177500D01*
X22047Y176691D01*
X22505Y176005D01*
X23191Y175547D01*
X24000Y175386D01*
X24809Y175547D01*
X25495Y176005D01*
X25953Y176691D01*
X26114Y177500D01*
X25953Y178309D01*
X25495Y178995D01*
X24809Y179453D01*
X24000Y179614D01*
D02*
G37*
G36*
X16000D02*
X15191Y179453D01*
X14505Y178995D01*
X14047Y178309D01*
X13886Y177500D01*
X14047Y176691D01*
X14505Y176005D01*
X15191Y175547D01*
X16000Y175386D01*
X16809Y175547D01*
X17495Y176005D01*
X17953Y176691D01*
X18114Y177500D01*
X17953Y178309D01*
X17495Y178995D01*
X16809Y179453D01*
X16000Y179614D01*
D02*
G37*
G36*
X8000D02*
X7191Y179453D01*
X6505Y178995D01*
X6047Y178309D01*
X5886Y177500D01*
X6047Y176691D01*
X6505Y176005D01*
X7191Y175547D01*
X8000Y175386D01*
X8809Y175547D01*
X9495Y176005D01*
X9953Y176691D01*
X10114Y177500D01*
X9953Y178309D01*
X9495Y178995D01*
X8809Y179453D01*
X8000Y179614D01*
D02*
G37*
G36*
X254000Y176216D02*
X253152Y176047D01*
X252433Y175567D01*
X251953Y174848D01*
X251784Y174000D01*
X251953Y173152D01*
X252433Y172433D01*
X253152Y171953D01*
X254000Y171784D01*
X254848Y171953D01*
X255567Y172433D01*
X256047Y173152D01*
X256216Y174000D01*
X256047Y174848D01*
X255567Y175567D01*
X254848Y176047D01*
X254000Y176216D01*
D02*
G37*
G36*
X249000D02*
X248152Y176047D01*
X247433Y175567D01*
X246953Y174848D01*
X246784Y174000D01*
X246953Y173152D01*
X247433Y172433D01*
X248152Y171953D01*
X249000Y171784D01*
X249848Y171953D01*
X250567Y172433D01*
X251047Y173152D01*
X251216Y174000D01*
X251047Y174848D01*
X250567Y175567D01*
X249848Y176047D01*
X249000Y176216D01*
D02*
G37*
G36*
X244000D02*
X243152Y176047D01*
X242433Y175567D01*
X241953Y174848D01*
X241784Y174000D01*
X241953Y173152D01*
X242433Y172433D01*
X243152Y171953D01*
X244000Y171784D01*
X244848Y171953D01*
X245567Y172433D01*
X246047Y173152D01*
X246216Y174000D01*
X246047Y174848D01*
X245567Y175567D01*
X244848Y176047D01*
X244000Y176216D01*
D02*
G37*
G36*
X164000D02*
X163152Y176047D01*
X162433Y175567D01*
X161953Y174848D01*
X161784Y174000D01*
X161953Y173152D01*
X162433Y172433D01*
X163152Y171953D01*
X164000Y171784D01*
X164848Y171953D01*
X165567Y172433D01*
X166047Y173152D01*
X166216Y174000D01*
X166047Y174848D01*
X165567Y175567D01*
X164848Y176047D01*
X164000Y176216D01*
D02*
G37*
G36*
X159000D02*
X158152Y176047D01*
X157433Y175567D01*
X156953Y174848D01*
X156784Y174000D01*
X156953Y173152D01*
X157433Y172433D01*
X158152Y171953D01*
X159000Y171784D01*
X159848Y171953D01*
X160567Y172433D01*
X161047Y173152D01*
X161216Y174000D01*
X161047Y174848D01*
X160567Y175567D01*
X159848Y176047D01*
X159000Y176216D01*
D02*
G37*
G36*
X154000D02*
X153152Y176047D01*
X152433Y175567D01*
X151953Y174848D01*
X151784Y174000D01*
X151953Y173152D01*
X152433Y172433D01*
X153152Y171953D01*
X154000Y171784D01*
X154848Y171953D01*
X155567Y172433D01*
X156047Y173152D01*
X156216Y174000D01*
X156047Y174848D01*
X155567Y175567D01*
X154848Y176047D01*
X154000Y176216D01*
D02*
G37*
G36*
X341000Y174716D02*
X340152Y174547D01*
X339433Y174067D01*
X338953Y173348D01*
X338784Y172500D01*
X338953Y171652D01*
X339433Y170933D01*
X340152Y170453D01*
X341000Y170284D01*
X341848Y170453D01*
X342567Y170933D01*
X343047Y171652D01*
X343216Y172500D01*
X343047Y173348D01*
X342567Y174067D01*
X341848Y174547D01*
X341000Y174716D01*
D02*
G37*
G36*
X332709D02*
X331861Y174547D01*
X331142Y174067D01*
X330662Y173348D01*
X330493Y172500D01*
X330662Y171652D01*
X331142Y170933D01*
X331861Y170453D01*
X332709Y170284D01*
X333557Y170453D01*
X334276Y170933D01*
X334756Y171652D01*
X334925Y172500D01*
X334756Y173348D01*
X334276Y174067D01*
X333557Y174547D01*
X332709Y174716D01*
D02*
G37*
G36*
X57000D02*
X56152Y174547D01*
X55433Y174067D01*
X54953Y173348D01*
X54784Y172500D01*
X54953Y171652D01*
X55433Y170933D01*
X56152Y170453D01*
X57000Y170284D01*
X57848Y170453D01*
X58567Y170933D01*
X59047Y171652D01*
X59216Y172500D01*
X59047Y173348D01*
X58567Y174067D01*
X57848Y174547D01*
X57000Y174716D01*
D02*
G37*
G36*
X48709D02*
X47861Y174547D01*
X47142Y174067D01*
X46661Y173348D01*
X46493Y172500D01*
X46661Y171652D01*
X47142Y170933D01*
X47861Y170453D01*
X48709Y170284D01*
X49557Y170453D01*
X50275Y170933D01*
X50756Y171652D01*
X50924Y172500D01*
X50756Y173348D01*
X50275Y174067D01*
X49557Y174547D01*
X48709Y174716D01*
D02*
G37*
G36*
X382000Y171614D02*
X381191Y171453D01*
X380505Y170995D01*
X380047Y170309D01*
X379886Y169500D01*
X380047Y168691D01*
X380505Y168005D01*
X381191Y167547D01*
X382000Y167386D01*
X382809Y167547D01*
X383495Y168005D01*
X383953Y168691D01*
X384114Y169500D01*
X383953Y170309D01*
X383495Y170995D01*
X382809Y171453D01*
X382000Y171614D01*
D02*
G37*
G36*
X374000D02*
X373191Y171453D01*
X372505Y170995D01*
X372047Y170309D01*
X371886Y169500D01*
X372047Y168691D01*
X372505Y168005D01*
X373191Y167547D01*
X374000Y167386D01*
X374809Y167547D01*
X375495Y168005D01*
X375953Y168691D01*
X376114Y169500D01*
X375953Y170309D01*
X375495Y170995D01*
X374809Y171453D01*
X374000Y171614D01*
D02*
G37*
G36*
X366000D02*
X365191Y171453D01*
X364505Y170995D01*
X364047Y170309D01*
X363886Y169500D01*
X364047Y168691D01*
X364505Y168005D01*
X365191Y167547D01*
X366000Y167386D01*
X366809Y167547D01*
X367495Y168005D01*
X367953Y168691D01*
X368114Y169500D01*
X367953Y170309D01*
X367495Y170995D01*
X366809Y171453D01*
X366000Y171614D01*
D02*
G37*
G36*
X358000D02*
X357191Y171453D01*
X356505Y170995D01*
X356047Y170309D01*
X355886Y169500D01*
X356047Y168691D01*
X356505Y168005D01*
X357191Y167547D01*
X358000Y167386D01*
X358809Y167547D01*
X359495Y168005D01*
X359953Y168691D01*
X360114Y169500D01*
X359953Y170309D01*
X359495Y170995D01*
X358809Y171453D01*
X358000Y171614D01*
D02*
G37*
G36*
X32000D02*
X31191Y171453D01*
X30505Y170995D01*
X30047Y170309D01*
X29886Y169500D01*
X30047Y168691D01*
X30505Y168005D01*
X31191Y167547D01*
X32000Y167386D01*
X32809Y167547D01*
X33495Y168005D01*
X33953Y168691D01*
X34114Y169500D01*
X33953Y170309D01*
X33495Y170995D01*
X32809Y171453D01*
X32000Y171614D01*
D02*
G37*
G36*
X24000D02*
X23191Y171453D01*
X22505Y170995D01*
X22047Y170309D01*
X21886Y169500D01*
X22047Y168691D01*
X22505Y168005D01*
X23191Y167547D01*
X24000Y167386D01*
X24809Y167547D01*
X25495Y168005D01*
X25953Y168691D01*
X26114Y169500D01*
X25953Y170309D01*
X25495Y170995D01*
X24809Y171453D01*
X24000Y171614D01*
D02*
G37*
G36*
X16000D02*
X15191Y171453D01*
X14505Y170995D01*
X14047Y170309D01*
X13886Y169500D01*
X14047Y168691D01*
X14505Y168005D01*
X15191Y167547D01*
X16000Y167386D01*
X16809Y167547D01*
X17495Y168005D01*
X17953Y168691D01*
X18114Y169500D01*
X17953Y170309D01*
X17495Y170995D01*
X16809Y171453D01*
X16000Y171614D01*
D02*
G37*
G36*
X8000D02*
X7191Y171453D01*
X6505Y170995D01*
X6047Y170309D01*
X5886Y169500D01*
X6047Y168691D01*
X6505Y168005D01*
X7191Y167547D01*
X8000Y167386D01*
X8809Y167547D01*
X9495Y168005D01*
X9953Y168691D01*
X10114Y169500D01*
X9953Y170309D01*
X9495Y170995D01*
X8809Y171453D01*
X8000Y171614D01*
D02*
G37*
G36*
X231024Y169913D02*
X230176Y169744D01*
X229457Y169264D01*
X228976Y168545D01*
X228808Y167697D01*
X228976Y166849D01*
X229457Y166130D01*
X230176Y165650D01*
X231024Y165481D01*
X231872Y165650D01*
X232590Y166130D01*
X233071Y166849D01*
X233239Y167697D01*
X233071Y168545D01*
X232590Y169264D01*
X231872Y169744D01*
X231024Y169913D01*
D02*
G37*
G36*
X141024D02*
X140176Y169744D01*
X139457Y169264D01*
X138977Y168545D01*
X138808Y167697D01*
X138977Y166849D01*
X139457Y166130D01*
X140176Y165650D01*
X141024Y165481D01*
X141872Y165650D01*
X142590Y166130D01*
X143071Y166849D01*
X143239Y167697D01*
X143071Y168545D01*
X142590Y169264D01*
X141872Y169744D01*
X141024Y169913D01*
D02*
G37*
G36*
X254000Y169716D02*
X253152Y169547D01*
X252433Y169067D01*
X251953Y168348D01*
X251784Y167500D01*
X251953Y166652D01*
X252433Y165933D01*
X253152Y165453D01*
X254000Y165284D01*
X254848Y165453D01*
X255567Y165933D01*
X256047Y166652D01*
X256216Y167500D01*
X256047Y168348D01*
X255567Y169067D01*
X254848Y169547D01*
X254000Y169716D01*
D02*
G37*
G36*
X244000D02*
X243152Y169547D01*
X242433Y169067D01*
X241953Y168348D01*
X241784Y167500D01*
X241953Y166652D01*
X242433Y165933D01*
X243152Y165453D01*
X244000Y165284D01*
X244848Y165453D01*
X245567Y165933D01*
X246047Y166652D01*
X246216Y167500D01*
X246047Y168348D01*
X245567Y169067D01*
X244848Y169547D01*
X244000Y169716D01*
D02*
G37*
G36*
X164000D02*
X163152Y169547D01*
X162433Y169067D01*
X161953Y168348D01*
X161784Y167500D01*
X161953Y166652D01*
X162433Y165933D01*
X163152Y165453D01*
X164000Y165284D01*
X164848Y165453D01*
X165567Y165933D01*
X166047Y166652D01*
X166216Y167500D01*
X166047Y168348D01*
X165567Y169067D01*
X164848Y169547D01*
X164000Y169716D01*
D02*
G37*
G36*
X154000D02*
X153152Y169547D01*
X152433Y169067D01*
X151953Y168348D01*
X151784Y167500D01*
X151953Y166652D01*
X152433Y165933D01*
X153152Y165453D01*
X154000Y165284D01*
X154848Y165453D01*
X155567Y165933D01*
X156047Y166652D01*
X156216Y167500D01*
X156047Y168348D01*
X155567Y169067D01*
X154848Y169547D01*
X154000Y169716D01*
D02*
G37*
G36*
X254000Y163216D02*
X253152Y163047D01*
X252433Y162567D01*
X251953Y161848D01*
X251784Y161000D01*
X251953Y160152D01*
X252433Y159433D01*
X253152Y158953D01*
X254000Y158784D01*
X254848Y158953D01*
X255567Y159433D01*
X256047Y160152D01*
X256216Y161000D01*
X256047Y161848D01*
X255567Y162567D01*
X254848Y163047D01*
X254000Y163216D01*
D02*
G37*
G36*
X249000D02*
X248152Y163047D01*
X247433Y162567D01*
X246953Y161848D01*
X246784Y161000D01*
X246953Y160152D01*
X247433Y159433D01*
X248152Y158953D01*
X249000Y158784D01*
X249848Y158953D01*
X250567Y159433D01*
X251047Y160152D01*
X251216Y161000D01*
X251047Y161848D01*
X250567Y162567D01*
X249848Y163047D01*
X249000Y163216D01*
D02*
G37*
G36*
X159000D02*
X158152Y163047D01*
X157433Y162567D01*
X156953Y161848D01*
X156784Y161000D01*
X156953Y160152D01*
X157433Y159433D01*
X158152Y158953D01*
X159000Y158784D01*
X159848Y158953D01*
X160567Y159433D01*
X161047Y160152D01*
X161216Y161000D01*
X161047Y161848D01*
X160567Y162567D01*
X159848Y163047D01*
X159000Y163216D01*
D02*
G37*
G36*
X154000D02*
X153152Y163047D01*
X152433Y162567D01*
X151953Y161848D01*
X151784Y161000D01*
X151953Y160152D01*
X152433Y159433D01*
X153152Y158953D01*
X154000Y158784D01*
X154848Y158953D01*
X155567Y159433D01*
X156047Y160152D01*
X156216Y161000D01*
X156047Y161848D01*
X155567Y162567D01*
X154848Y163047D01*
X154000Y163216D01*
D02*
G37*
G36*
X220094Y158216D02*
X219247Y158047D01*
X218528Y157567D01*
X218047Y156848D01*
X217879Y156000D01*
X218047Y155152D01*
X218528Y154433D01*
X219247Y153953D01*
X220094Y153784D01*
X220942Y153953D01*
X221661Y154433D01*
X222142Y155152D01*
X222310Y156000D01*
X222142Y156848D01*
X221661Y157567D01*
X220942Y158047D01*
X220094Y158216D01*
D02*
G37*
G36*
X214094D02*
X213246Y158047D01*
X212528Y157567D01*
X212047Y156848D01*
X211879Y156000D01*
X212047Y155152D01*
X212528Y154433D01*
X213246Y153953D01*
X214094Y153784D01*
X214942Y153953D01*
X215661Y154433D01*
X216142Y155152D01*
X216310Y156000D01*
X216142Y156848D01*
X215661Y157567D01*
X214942Y158047D01*
X214094Y158216D01*
D02*
G37*
G36*
X176000D02*
X175152Y158047D01*
X174433Y157567D01*
X173953Y156848D01*
X173784Y156000D01*
X173953Y155152D01*
X174433Y154433D01*
X175152Y153953D01*
X176000Y153784D01*
X176848Y153953D01*
X177567Y154433D01*
X178047Y155152D01*
X178216Y156000D01*
X178047Y156848D01*
X177567Y157567D01*
X176848Y158047D01*
X176000Y158216D01*
D02*
G37*
G36*
X170000D02*
X169152Y158047D01*
X168433Y157567D01*
X167953Y156848D01*
X167784Y156000D01*
X167953Y155152D01*
X168433Y154433D01*
X169152Y153953D01*
X170000Y153784D01*
X170848Y153953D01*
X171567Y154433D01*
X172047Y155152D01*
X172216Y156000D01*
X172047Y156848D01*
X171567Y157567D01*
X170848Y158047D01*
X170000Y158216D01*
D02*
G37*
G36*
X217047Y152216D02*
X216199Y152047D01*
X215480Y151567D01*
X215000Y150848D01*
X214831Y150000D01*
X215000Y149152D01*
X215480Y148433D01*
X216199Y147953D01*
X217047Y147784D01*
X217895Y147953D01*
X218614Y148433D01*
X219094Y149152D01*
X219263Y150000D01*
X219094Y150848D01*
X218614Y151567D01*
X217895Y152047D01*
X217047Y152216D01*
D02*
G37*
G36*
X172953D02*
X172105Y152047D01*
X171386Y151567D01*
X170906Y150848D01*
X170737Y150000D01*
X170906Y149152D01*
X171386Y148433D01*
X172105Y147953D01*
X172953Y147784D01*
X173801Y147953D01*
X174520Y148433D01*
X175000Y149152D01*
X175169Y150000D01*
X175000Y150848D01*
X174520Y151567D01*
X173801Y152047D01*
X172953Y152216D01*
D02*
G37*
G36*
X280000Y147216D02*
X279152Y147047D01*
X278433Y146567D01*
X278028Y145960D01*
X277870Y145923D01*
X277630D01*
X277472Y145960D01*
X277067Y146567D01*
X276348Y147047D01*
X275500Y147216D01*
X274652Y147047D01*
X273933Y146567D01*
X273453Y145848D01*
X273284Y145000D01*
X273453Y144152D01*
X273933Y143433D01*
X274652Y142953D01*
X275500Y142784D01*
X276348Y142953D01*
X277067Y143433D01*
X277472Y144040D01*
X277630Y144077D01*
X277870D01*
X278028Y144040D01*
X278433Y143433D01*
X279152Y142953D01*
X280000Y142784D01*
X280848Y142953D01*
X281567Y143433D01*
X282047Y144152D01*
X282216Y145000D01*
X282047Y145848D01*
X281567Y146567D01*
X280848Y147047D01*
X280000Y147216D01*
D02*
G37*
G36*
X248000Y150216D02*
X247152Y150047D01*
X246433Y149567D01*
X245953Y148848D01*
X245784Y148000D01*
X245953Y147152D01*
X246433Y146433D01*
X247152Y145953D01*
X248000Y145784D01*
X248848Y145953D01*
X249567Y146433D01*
X250047Y147152D01*
X250216Y148000D01*
X250047Y148848D01*
X249567Y149567D01*
X248848Y150047D01*
X248000Y150216D01*
D02*
G37*
G36*
X240000D02*
X239152Y150047D01*
X238433Y149567D01*
X237953Y148848D01*
X237784Y148000D01*
X237953Y147152D01*
X238433Y146433D01*
X239152Y145953D01*
X240000Y145784D01*
X240848Y145953D01*
X241567Y146433D01*
X242047Y147152D01*
X242216Y148000D01*
X242047Y148848D01*
X241567Y149567D01*
X240848Y150047D01*
X240000Y150216D01*
D02*
G37*
G36*
X232000D02*
X231152Y150047D01*
X230433Y149567D01*
X229953Y148848D01*
X229784Y148000D01*
X229953Y147152D01*
X230433Y146433D01*
X231152Y145953D01*
X232000Y145784D01*
X232848Y145953D01*
X233567Y146433D01*
X234047Y147152D01*
X234216Y148000D01*
X234047Y148848D01*
X233567Y149567D01*
X232848Y150047D01*
X232000Y150216D01*
D02*
G37*
G36*
X158000D02*
X157152Y150047D01*
X156433Y149567D01*
X155953Y148848D01*
X155784Y148000D01*
X155953Y147152D01*
X156433Y146433D01*
X157152Y145953D01*
X158000Y145784D01*
X158848Y145953D01*
X159567Y146433D01*
X160047Y147152D01*
X160216Y148000D01*
X160047Y148848D01*
X159567Y149567D01*
X158848Y150047D01*
X158000Y150216D01*
D02*
G37*
G36*
X150000D02*
X149152Y150047D01*
X148433Y149567D01*
X147953Y148848D01*
X147784Y148000D01*
X147953Y147152D01*
X148433Y146433D01*
X149152Y145953D01*
X150000Y145784D01*
X150848Y145953D01*
X151567Y146433D01*
X152047Y147152D01*
X152216Y148000D01*
X152047Y148848D01*
X151567Y149567D01*
X150848Y150047D01*
X150000Y150216D01*
D02*
G37*
G36*
X142000D02*
X141152Y150047D01*
X140433Y149567D01*
X139953Y148848D01*
X139784Y148000D01*
X139953Y147152D01*
X140433Y146433D01*
X141152Y145953D01*
X142000Y145784D01*
X142848Y145953D01*
X143567Y146433D01*
X144047Y147152D01*
X144216Y148000D01*
X144047Y148848D01*
X143567Y149567D01*
X142848Y150047D01*
X142000Y150216D01*
D02*
G37*
G36*
X64000Y148216D02*
X63152Y148047D01*
X62433Y147567D01*
X61953Y146848D01*
X61784Y146000D01*
X61953Y145152D01*
X62433Y144433D01*
X63152Y143953D01*
X64000Y143784D01*
X64848Y143953D01*
X65567Y144433D01*
X66047Y145152D01*
X66216Y146000D01*
X66047Y146848D01*
X65567Y147567D01*
X64848Y148047D01*
X64000Y148216D01*
D02*
G37*
G36*
X108500Y147216D02*
X107652Y147047D01*
X106933Y146567D01*
X106453Y145848D01*
X106284Y145000D01*
X106453Y144152D01*
X106933Y143433D01*
X107652Y142953D01*
X108500Y142784D01*
X109348Y142953D01*
X110067Y143433D01*
X110547Y144152D01*
X110716Y145000D01*
X110547Y145848D01*
X110067Y146567D01*
X109348Y147047D01*
X108500Y147216D01*
D02*
G37*
G36*
X103500D02*
X102652Y147047D01*
X101933Y146567D01*
X101453Y145848D01*
X101284Y145000D01*
X101453Y144152D01*
X101933Y143433D01*
X102652Y142953D01*
X103500Y142784D01*
X104348Y142953D01*
X105067Y143433D01*
X105547Y144152D01*
X105716Y145000D01*
X105547Y145848D01*
X105067Y146567D01*
X104348Y147047D01*
X103500Y147216D01*
D02*
G37*
G36*
X220094Y146216D02*
X219247Y146047D01*
X218528Y145567D01*
X218047Y144848D01*
X217879Y144000D01*
X218047Y143152D01*
X218528Y142433D01*
X219247Y141953D01*
X220094Y141784D01*
X220942Y141953D01*
X221661Y142433D01*
X222142Y143152D01*
X222310Y144000D01*
X222142Y144848D01*
X221661Y145567D01*
X220942Y146047D01*
X220094Y146216D01*
D02*
G37*
G36*
X214094D02*
X213246Y146047D01*
X212528Y145567D01*
X212047Y144848D01*
X211879Y144000D01*
X212047Y143152D01*
X212528Y142433D01*
X213246Y141953D01*
X214094Y141784D01*
X214942Y141953D01*
X215661Y142433D01*
X216142Y143152D01*
X216310Y144000D01*
X216142Y144848D01*
X215661Y145567D01*
X214942Y146047D01*
X214094Y146216D01*
D02*
G37*
G36*
X176000D02*
X175152Y146047D01*
X174433Y145567D01*
X173953Y144848D01*
X173784Y144000D01*
X173953Y143152D01*
X174433Y142433D01*
X175152Y141953D01*
X176000Y141784D01*
X176848Y141953D01*
X177567Y142433D01*
X178047Y143152D01*
X178216Y144000D01*
X178047Y144848D01*
X177567Y145567D01*
X176848Y146047D01*
X176000Y146216D01*
D02*
G37*
G36*
X170000D02*
X169152Y146047D01*
X168433Y145567D01*
X167953Y144848D01*
X167784Y144000D01*
X167953Y143152D01*
X168433Y142433D01*
X169152Y141953D01*
X170000Y141784D01*
X170848Y141953D01*
X171567Y142433D01*
X172047Y143152D01*
X172216Y144000D01*
X172047Y144848D01*
X171567Y145567D01*
X170848Y146047D01*
X170000Y146216D01*
D02*
G37*
G36*
X54500Y143716D02*
X53652Y143547D01*
X52933Y143067D01*
X52453Y142348D01*
X52284Y141500D01*
X52453Y140652D01*
X52933Y139933D01*
X53652Y139453D01*
X54500Y139284D01*
X55348Y139453D01*
X56067Y139933D01*
X56547Y140652D01*
X56716Y141500D01*
X56547Y142348D01*
X56067Y143067D01*
X55348Y143547D01*
X54500Y143716D01*
D02*
G37*
G36*
X343000Y143216D02*
X342152Y143047D01*
X341433Y142567D01*
X340953Y141848D01*
X340784Y141000D01*
X340953Y140152D01*
X341433Y139433D01*
X342152Y138953D01*
X343000Y138784D01*
X343848Y138953D01*
X344567Y139433D01*
X345047Y140152D01*
X345216Y141000D01*
X345047Y141848D01*
X344567Y142567D01*
X343848Y143047D01*
X343000Y143216D01*
D02*
G37*
G36*
X338000D02*
X337152Y143047D01*
X336433Y142567D01*
X335953Y141848D01*
X335784Y141000D01*
X335953Y140152D01*
X336433Y139433D01*
X337152Y138953D01*
X338000Y138784D01*
X338848Y138953D01*
X339567Y139433D01*
X340047Y140152D01*
X340216Y141000D01*
X340047Y141848D01*
X339567Y142567D01*
X338848Y143047D01*
X338000Y143216D01*
D02*
G37*
G36*
X248000Y142216D02*
X247152Y142047D01*
X246433Y141567D01*
X245953Y140848D01*
X245784Y140000D01*
X245953Y139152D01*
X246433Y138433D01*
X247152Y137953D01*
X248000Y137784D01*
X248848Y137953D01*
X249567Y138433D01*
X250047Y139152D01*
X250216Y140000D01*
X250047Y140848D01*
X249567Y141567D01*
X248848Y142047D01*
X248000Y142216D01*
D02*
G37*
G36*
X240000D02*
X239152Y142047D01*
X238433Y141567D01*
X237953Y140848D01*
X237784Y140000D01*
X237953Y139152D01*
X238433Y138433D01*
X239152Y137953D01*
X240000Y137784D01*
X240848Y137953D01*
X241567Y138433D01*
X242047Y139152D01*
X242216Y140000D01*
X242047Y140848D01*
X241567Y141567D01*
X240848Y142047D01*
X240000Y142216D01*
D02*
G37*
G36*
X232000D02*
X231152Y142047D01*
X230433Y141567D01*
X229953Y140848D01*
X229784Y140000D01*
X229953Y139152D01*
X230433Y138433D01*
X231152Y137953D01*
X232000Y137784D01*
X232848Y137953D01*
X233567Y138433D01*
X234047Y139152D01*
X234216Y140000D01*
X234047Y140848D01*
X233567Y141567D01*
X232848Y142047D01*
X232000Y142216D01*
D02*
G37*
G36*
X158000D02*
X157152Y142047D01*
X156433Y141567D01*
X155953Y140848D01*
X155784Y140000D01*
X155953Y139152D01*
X156433Y138433D01*
X157152Y137953D01*
X158000Y137784D01*
X158848Y137953D01*
X159567Y138433D01*
X160047Y139152D01*
X160216Y140000D01*
X160047Y140848D01*
X159567Y141567D01*
X158848Y142047D01*
X158000Y142216D01*
D02*
G37*
G36*
X150000D02*
X149152Y142047D01*
X148433Y141567D01*
X147953Y140848D01*
X147784Y140000D01*
X147953Y139152D01*
X148433Y138433D01*
X149152Y137953D01*
X150000Y137784D01*
X150848Y137953D01*
X151567Y138433D01*
X152047Y139152D01*
X152216Y140000D01*
X152047Y140848D01*
X151567Y141567D01*
X150848Y142047D01*
X150000Y142216D01*
D02*
G37*
G36*
X142000D02*
X141152Y142047D01*
X140433Y141567D01*
X139953Y140848D01*
X139784Y140000D01*
X139953Y139152D01*
X140433Y138433D01*
X141152Y137953D01*
X142000Y137784D01*
X142848Y137953D01*
X143567Y138433D01*
X144047Y139152D01*
X144216Y140000D01*
X144047Y140848D01*
X143567Y141567D01*
X142848Y142047D01*
X142000Y142216D01*
D02*
G37*
G36*
X114500Y141716D02*
X113652Y141547D01*
X112933Y141067D01*
X112453Y140348D01*
X112284Y139500D01*
X112453Y138652D01*
X112933Y137933D01*
X113652Y137453D01*
X114500Y137284D01*
X115348Y137453D01*
X116067Y137933D01*
X116547Y138652D01*
X116716Y139500D01*
X116547Y140348D01*
X116067Y141067D01*
X115348Y141547D01*
X114500Y141716D01*
D02*
G37*
G36*
X350000Y138216D02*
X349152Y138047D01*
X348433Y137567D01*
X347953Y136848D01*
X347784Y136000D01*
X347953Y135152D01*
X348433Y134433D01*
X349152Y133953D01*
X350000Y133784D01*
X350848Y133953D01*
X351567Y134433D01*
X352047Y135152D01*
X352216Y136000D01*
X352047Y136848D01*
X351567Y137567D01*
X350848Y138047D01*
X350000Y138216D01*
D02*
G37*
G36*
X99500Y137716D02*
X98652Y137547D01*
X97933Y137067D01*
X97453Y136348D01*
X97284Y135500D01*
X97453Y134652D01*
X97933Y133933D01*
X98652Y133453D01*
X99500Y133284D01*
X100348Y133453D01*
X101067Y133933D01*
X101547Y134652D01*
X101716Y135500D01*
X101547Y136348D01*
X101067Y137067D01*
X100348Y137547D01*
X99500Y137716D01*
D02*
G37*
G36*
X248000Y134216D02*
X247152Y134047D01*
X246433Y133567D01*
X245953Y132848D01*
X245784Y132000D01*
X245953Y131152D01*
X246433Y130433D01*
X247152Y129953D01*
X248000Y129784D01*
X248848Y129953D01*
X249567Y130433D01*
X250047Y131152D01*
X250216Y132000D01*
X250047Y132848D01*
X249567Y133567D01*
X248848Y134047D01*
X248000Y134216D01*
D02*
G37*
G36*
X240000D02*
X239152Y134047D01*
X238433Y133567D01*
X237953Y132848D01*
X237784Y132000D01*
X237953Y131152D01*
X238433Y130433D01*
X239152Y129953D01*
X240000Y129784D01*
X240848Y129953D01*
X241567Y130433D01*
X242047Y131152D01*
X242216Y132000D01*
X242047Y132848D01*
X241567Y133567D01*
X240848Y134047D01*
X240000Y134216D01*
D02*
G37*
G36*
X232000D02*
X231152Y134047D01*
X230433Y133567D01*
X229953Y132848D01*
X229784Y132000D01*
X229953Y131152D01*
X230433Y130433D01*
X231152Y129953D01*
X232000Y129784D01*
X232848Y129953D01*
X233567Y130433D01*
X234047Y131152D01*
X234216Y132000D01*
X234047Y132848D01*
X233567Y133567D01*
X232848Y134047D01*
X232000Y134216D01*
D02*
G37*
G36*
X158000D02*
X157152Y134047D01*
X156433Y133567D01*
X155953Y132848D01*
X155784Y132000D01*
X155953Y131152D01*
X156433Y130433D01*
X157152Y129953D01*
X158000Y129784D01*
X158848Y129953D01*
X159567Y130433D01*
X160047Y131152D01*
X160216Y132000D01*
X160047Y132848D01*
X159567Y133567D01*
X158848Y134047D01*
X158000Y134216D01*
D02*
G37*
G36*
X150000D02*
X149152Y134047D01*
X148433Y133567D01*
X147953Y132848D01*
X147784Y132000D01*
X147953Y131152D01*
X148433Y130433D01*
X149152Y129953D01*
X150000Y129784D01*
X150848Y129953D01*
X151567Y130433D01*
X152047Y131152D01*
X152216Y132000D01*
X152047Y132848D01*
X151567Y133567D01*
X150848Y134047D01*
X150000Y134216D01*
D02*
G37*
G36*
X142000D02*
X141152Y134047D01*
X140433Y133567D01*
X139953Y132848D01*
X139784Y132000D01*
X139953Y131152D01*
X140433Y130433D01*
X141152Y129953D01*
X142000Y129784D01*
X142848Y129953D01*
X143567Y130433D01*
X144047Y131152D01*
X144216Y132000D01*
X144047Y132848D01*
X143567Y133567D01*
X142848Y134047D01*
X142000Y134216D01*
D02*
G37*
G36*
X289500Y133216D02*
X288652Y133047D01*
X287933Y132567D01*
X287453Y131848D01*
X287284Y131000D01*
X287453Y130152D01*
X287933Y129433D01*
X288652Y128953D01*
X289500Y128784D01*
X290348Y128953D01*
X291067Y129433D01*
X291547Y130152D01*
X291716Y131000D01*
X291547Y131848D01*
X291067Y132567D01*
X290348Y133047D01*
X289500Y133216D01*
D02*
G37*
G36*
X76315Y131716D02*
X75467Y131547D01*
X74748Y131067D01*
X74268Y130348D01*
X74099Y129500D01*
X74268Y128652D01*
X74748Y127933D01*
X75467Y127453D01*
X76315Y127284D01*
X77163Y127453D01*
X77882Y127933D01*
X78362Y128652D01*
X78531Y129500D01*
X78362Y130348D01*
X77882Y131067D01*
X77163Y131547D01*
X76315Y131716D01*
D02*
G37*
G36*
X58000Y128216D02*
X57152Y128047D01*
X56433Y127567D01*
X55953Y126848D01*
X55784Y126000D01*
X55953Y125152D01*
X56433Y124433D01*
X57152Y123953D01*
X58000Y123784D01*
X58848Y123953D01*
X59567Y124433D01*
X60047Y125152D01*
X60216Y126000D01*
X60047Y126848D01*
X59567Y127567D01*
X58848Y128047D01*
X58000Y128216D01*
D02*
G37*
G36*
X49000D02*
X48152Y128047D01*
X47433Y127567D01*
X46953Y126848D01*
X46784Y126000D01*
X46953Y125152D01*
X47433Y124433D01*
X48152Y123953D01*
X49000Y123784D01*
X49848Y123953D01*
X50567Y124433D01*
X51047Y125152D01*
X51216Y126000D01*
X51047Y126848D01*
X50567Y127567D01*
X49848Y128047D01*
X49000Y128216D01*
D02*
G37*
G36*
X321185Y125716D02*
X320337Y125547D01*
X319618Y125067D01*
X319138Y124348D01*
X318969Y123500D01*
X319138Y122652D01*
X319618Y121933D01*
X320337Y121453D01*
X321185Y121284D01*
X322033Y121453D01*
X322752Y121933D01*
X323232Y122652D01*
X323401Y123500D01*
X323232Y124348D01*
X322752Y125067D01*
X322033Y125547D01*
X321185Y125716D01*
D02*
G37*
G36*
X98500Y122716D02*
X97652Y122547D01*
X96933Y122067D01*
X96453Y121348D01*
X96284Y120500D01*
X96453Y119652D01*
X96933Y118933D01*
X97652Y118453D01*
X98500Y118284D01*
X99348Y118453D01*
X100067Y118933D01*
X100547Y119652D01*
X100716Y120500D01*
X100547Y121348D01*
X100067Y122067D01*
X99348Y122547D01*
X98500Y122716D01*
D02*
G37*
G36*
X297500Y121716D02*
X296652Y121547D01*
X295933Y121067D01*
X295453Y120348D01*
X295284Y119500D01*
X295453Y118652D01*
X295933Y117933D01*
X296652Y117453D01*
X297500Y117284D01*
X298348Y117453D01*
X299067Y117933D01*
X299547Y118652D01*
X299716Y119500D01*
X299547Y120348D01*
X299067Y121067D01*
X298348Y121547D01*
X297500Y121716D01*
D02*
G37*
G36*
X32000Y126570D02*
X31152Y126401D01*
X30433Y125921D01*
X29953Y125202D01*
X29784Y124354D01*
X29953Y123506D01*
X30433Y122788D01*
X30707Y122604D01*
Y122104D01*
X30433Y121921D01*
X29953Y121202D01*
X29784Y120354D01*
X29953Y119506D01*
X30433Y118788D01*
X30707Y118604D01*
Y118104D01*
X30433Y117921D01*
X29953Y117202D01*
X29784Y116354D01*
X29953Y115506D01*
X30433Y114788D01*
X31152Y114307D01*
X32000Y114139D01*
X32848Y114307D01*
X33567Y114788D01*
X34047Y115506D01*
X34216Y116354D01*
X34047Y117202D01*
X33567Y117921D01*
X33293Y118104D01*
Y118604D01*
X33567Y118788D01*
X34047Y119506D01*
X34216Y120354D01*
X34047Y121202D01*
X33567Y121921D01*
X33293Y122104D01*
Y122604D01*
X33567Y122788D01*
X34047Y123506D01*
X34216Y124354D01*
X34047Y125202D01*
X33567Y125921D01*
X32848Y126401D01*
X32000Y126570D01*
D02*
G37*
G36*
X231024Y117413D02*
X230176Y117244D01*
X229457Y116764D01*
X228976Y116045D01*
X228808Y115197D01*
X228976Y114349D01*
X229457Y113630D01*
X230176Y113150D01*
X231024Y112981D01*
X231872Y113150D01*
X232590Y113630D01*
X233071Y114349D01*
X233239Y115197D01*
X233071Y116045D01*
X232590Y116764D01*
X231872Y117244D01*
X231024Y117413D01*
D02*
G37*
G36*
X141024D02*
X140176Y117244D01*
X139457Y116764D01*
X138977Y116045D01*
X138808Y115197D01*
X138977Y114349D01*
X139457Y113630D01*
X140176Y113150D01*
X141024Y112981D01*
X141872Y113150D01*
X142590Y113630D01*
X143071Y114349D01*
X143239Y115197D01*
X143071Y116045D01*
X142590Y116764D01*
X141872Y117244D01*
X141024Y117413D01*
D02*
G37*
G36*
X358000Y116716D02*
X357152Y116547D01*
X356433Y116067D01*
X355953Y115348D01*
X355784Y114500D01*
X355953Y113652D01*
X356433Y112933D01*
X357152Y112453D01*
X358000Y112284D01*
X358848Y112453D01*
X359567Y112933D01*
X360047Y113652D01*
X360216Y114500D01*
X360047Y115348D01*
X359567Y116067D01*
X358848Y116547D01*
X358000Y116716D01*
D02*
G37*
G36*
X116811Y116216D02*
X115963Y116047D01*
X115244Y115567D01*
X114764Y114848D01*
X114595Y114000D01*
X114764Y113152D01*
X115244Y112433D01*
X115963Y111953D01*
X116811Y111784D01*
X117659Y111953D01*
X118378Y112433D01*
X118858Y113152D01*
X119027Y114000D01*
X118858Y114848D01*
X118378Y115567D01*
X117659Y116047D01*
X116811Y116216D01*
D02*
G37*
G36*
X345500Y115716D02*
X344652Y115547D01*
X343933Y115067D01*
X343453Y114348D01*
X343284Y113500D01*
X343453Y112652D01*
X343933Y111933D01*
X344652Y111453D01*
X345500Y111284D01*
X346348Y111453D01*
X347067Y111933D01*
X347547Y112652D01*
X347716Y113500D01*
X347547Y114348D01*
X347067Y115067D01*
X346348Y115547D01*
X345500Y115716D01*
D02*
G37*
G36*
X311500D02*
X310652Y115547D01*
X309933Y115067D01*
X309453Y114348D01*
X309284Y113500D01*
X309453Y112652D01*
X309933Y111933D01*
X310652Y111453D01*
X311500Y111284D01*
X312348Y111453D01*
X313067Y111933D01*
X313547Y112652D01*
X313716Y113500D01*
X313547Y114348D01*
X313067Y115067D01*
X312348Y115547D01*
X311500Y115716D01*
D02*
G37*
G36*
X94500D02*
X93652Y115547D01*
X92933Y115067D01*
X92453Y114348D01*
X92284Y113500D01*
X92453Y112652D01*
X92933Y111933D01*
X93652Y111453D01*
X94500Y111284D01*
X95348Y111453D01*
X96067Y111933D01*
X96547Y112652D01*
X96716Y113500D01*
X96547Y114348D01*
X96067Y115067D01*
X95348Y115547D01*
X94500Y115716D01*
D02*
G37*
G36*
X69500Y113716D02*
X68652Y113547D01*
X67933Y113067D01*
X67453Y112348D01*
X67284Y111500D01*
X67453Y110652D01*
X67933Y109933D01*
X68652Y109453D01*
X69500Y109284D01*
X70348Y109453D01*
X71067Y109933D01*
X71547Y110652D01*
X71716Y111500D01*
X71547Y112348D01*
X71067Y113067D01*
X70348Y113547D01*
X69500Y113716D01*
D02*
G37*
G36*
X286000Y113216D02*
X285152Y113047D01*
X284433Y112567D01*
X283953Y111848D01*
X283784Y111000D01*
X283953Y110152D01*
X284433Y109433D01*
X285152Y108953D01*
X286000Y108784D01*
X286848Y108953D01*
X287567Y109433D01*
X288047Y110152D01*
X288216Y111000D01*
X288047Y111848D01*
X287567Y112567D01*
X286848Y113047D01*
X286000Y113216D01*
D02*
G37*
G36*
X69500Y105716D02*
X68652Y105547D01*
X67933Y105067D01*
X67453Y104348D01*
X67284Y103500D01*
X67453Y102652D01*
X67933Y101933D01*
X68652Y101453D01*
X69500Y101284D01*
X70348Y101453D01*
X71067Y101933D01*
X71547Y102652D01*
X71716Y103500D01*
X71547Y104348D01*
X71067Y105067D01*
X70348Y105547D01*
X69500Y105716D01*
D02*
G37*
G36*
X32000Y112570D02*
X31152Y112401D01*
X30433Y111921D01*
X29953Y111202D01*
X29784Y110354D01*
X29953Y109506D01*
X30433Y108788D01*
X30707Y108604D01*
Y108104D01*
X30433Y107921D01*
X29953Y107202D01*
X29784Y106354D01*
X29953Y105506D01*
X30433Y104788D01*
X30707Y104604D01*
Y104104D01*
X30433Y103921D01*
X29953Y103202D01*
X29784Y102354D01*
X29953Y101506D01*
X30433Y100788D01*
X31152Y100307D01*
X32000Y100139D01*
X32848Y100307D01*
X33567Y100788D01*
X34047Y101506D01*
X34216Y102354D01*
X34047Y103202D01*
X33567Y103921D01*
X33293Y104104D01*
Y104604D01*
X33567Y104788D01*
X34047Y105506D01*
X34216Y106354D01*
X34047Y107202D01*
X33567Y107921D01*
X33293Y108104D01*
Y108604D01*
X33567Y108788D01*
X34047Y109506D01*
X34216Y110354D01*
X34047Y111202D01*
X33567Y111921D01*
X32848Y112401D01*
X32000Y112570D01*
D02*
G37*
G36*
X117000Y103216D02*
X116152Y103047D01*
X115433Y102567D01*
X114953Y101848D01*
X114784Y101000D01*
X114953Y100152D01*
X115433Y99433D01*
X116152Y98953D01*
X117000Y98784D01*
X117848Y98953D01*
X118567Y99433D01*
X119047Y100152D01*
X119216Y101000D01*
X119047Y101848D01*
X118567Y102567D01*
X117848Y103047D01*
X117000Y103216D01*
D02*
G37*
G36*
X52500D02*
X51652Y103047D01*
X50933Y102567D01*
X50453Y101848D01*
X50284Y101000D01*
X50453Y100152D01*
X50933Y99433D01*
X51652Y98953D01*
X52500Y98784D01*
X53348Y98953D01*
X54067Y99433D01*
X54547Y100152D01*
X54716Y101000D01*
X54547Y101848D01*
X54067Y102567D01*
X53348Y103047D01*
X52500Y103216D01*
D02*
G37*
G36*
X58000Y102716D02*
X57152Y102547D01*
X56433Y102067D01*
X55953Y101348D01*
X55784Y100500D01*
X55953Y99652D01*
X56433Y98933D01*
X57152Y98453D01*
X58000Y98284D01*
X58848Y98453D01*
X59567Y98933D01*
X60047Y99652D01*
X60216Y100500D01*
X60047Y101348D01*
X59567Y102067D01*
X58848Y102547D01*
X58000Y102716D01*
D02*
G37*
G36*
X84500Y101716D02*
X83652Y101547D01*
X82933Y101067D01*
X82453Y100348D01*
X82284Y99500D01*
X82453Y98652D01*
X82933Y97933D01*
X83652Y97453D01*
X84500Y97284D01*
X85348Y97453D01*
X86067Y97933D01*
X86547Y98652D01*
X86716Y99500D01*
X86547Y100348D01*
X86067Y101067D01*
X85348Y101547D01*
X84500Y101716D01*
D02*
G37*
G36*
X282500Y101216D02*
X281652Y101047D01*
X280933Y100567D01*
X280453Y99848D01*
X280284Y99000D01*
X280453Y98152D01*
X280933Y97433D01*
X281652Y96953D01*
X282500Y96784D01*
X283348Y96953D01*
X284067Y97433D01*
X284547Y98152D01*
X284716Y99000D01*
X284547Y99848D01*
X284067Y100567D01*
X283348Y101047D01*
X282500Y101216D01*
D02*
G37*
G36*
X252500D02*
X251652Y101047D01*
X250933Y100567D01*
X250453Y99848D01*
X250284Y99000D01*
X250453Y98152D01*
X250933Y97433D01*
X251652Y96953D01*
X252500Y96784D01*
X253348Y96953D01*
X254067Y97433D01*
X254547Y98152D01*
X254716Y99000D01*
X254547Y99848D01*
X254067Y100567D01*
X253348Y101047D01*
X252500Y101216D01*
D02*
G37*
G36*
X222500Y99216D02*
X221652Y99047D01*
X220933Y98567D01*
X220453Y97848D01*
X220284Y97000D01*
X220453Y96152D01*
X220933Y95433D01*
X221652Y94953D01*
X222500Y94784D01*
X223348Y94953D01*
X224067Y95433D01*
X224547Y96152D01*
X224716Y97000D01*
X224547Y97848D01*
X224067Y98567D01*
X223348Y99047D01*
X222500Y99216D01*
D02*
G37*
G36*
X344000Y95716D02*
X343152Y95547D01*
X342433Y95067D01*
X341953Y94348D01*
X341784Y93500D01*
X341953Y92652D01*
X342433Y91933D01*
X343152Y91453D01*
X344000Y91284D01*
X344848Y91453D01*
X345567Y91933D01*
X346047Y92652D01*
X346216Y93500D01*
X346047Y94348D01*
X345567Y95067D01*
X344848Y95547D01*
X344000Y95716D01*
D02*
G37*
G36*
X336000D02*
X335152Y95547D01*
X334433Y95067D01*
X333953Y94348D01*
X333784Y93500D01*
X333953Y92652D01*
X334433Y91933D01*
X335152Y91453D01*
X336000Y91284D01*
X336848Y91453D01*
X337567Y91933D01*
X338047Y92652D01*
X338216Y93500D01*
X338047Y94348D01*
X337567Y95067D01*
X336848Y95547D01*
X336000Y95716D01*
D02*
G37*
G36*
X276500Y92216D02*
X275652Y92047D01*
X274933Y91567D01*
X274453Y90848D01*
X274284Y90000D01*
X274453Y89152D01*
X274933Y88433D01*
X275652Y87953D01*
X276500Y87784D01*
X277348Y87953D01*
X278067Y88433D01*
X278547Y89152D01*
X278716Y90000D01*
X278547Y90848D01*
X278067Y91567D01*
X277348Y92047D01*
X276500Y92216D01*
D02*
G37*
G36*
X50760Y91716D02*
X49912Y91547D01*
X49193Y91067D01*
X48713Y90348D01*
X48544Y89500D01*
X48713Y88652D01*
X49193Y87933D01*
X49912Y87453D01*
X50760Y87284D01*
X51608Y87453D01*
X52327Y87933D01*
X52807Y88652D01*
X52976Y89500D01*
X52807Y90348D01*
X52327Y91067D01*
X51608Y91547D01*
X50760Y91716D01*
D02*
G37*
G36*
X32000Y98570D02*
X31152Y98401D01*
X30433Y97921D01*
X29953Y97202D01*
X29784Y96354D01*
X29953Y95506D01*
X30433Y94788D01*
X30707Y94604D01*
Y94104D01*
X30433Y93921D01*
X29953Y93202D01*
X29784Y92354D01*
X29953Y91506D01*
X30433Y90788D01*
X30707Y90604D01*
Y90104D01*
X30433Y89921D01*
X29953Y89202D01*
X29784Y88354D01*
X29953Y87506D01*
X30433Y86788D01*
X31152Y86307D01*
X32000Y86139D01*
X32848Y86307D01*
X33567Y86788D01*
X34047Y87506D01*
X34216Y88354D01*
X34047Y89202D01*
X33567Y89921D01*
X33293Y90104D01*
Y90604D01*
X33567Y90788D01*
X34047Y91506D01*
X34216Y92354D01*
X34047Y93202D01*
X33567Y93921D01*
X33293Y94104D01*
Y94604D01*
X33567Y94788D01*
X34047Y95506D01*
X34216Y96354D01*
X34047Y97202D01*
X33567Y97921D01*
X32848Y98401D01*
X32000Y98570D01*
D02*
G37*
G36*
X123500Y87216D02*
X122652Y87047D01*
X121933Y86567D01*
X121453Y85848D01*
X121284Y85000D01*
X121453Y84152D01*
X121933Y83433D01*
X122652Y82953D01*
X123500Y82784D01*
X124348Y82953D01*
X125067Y83433D01*
X125547Y84152D01*
X125716Y85000D01*
X125547Y85848D01*
X125067Y86567D01*
X124348Y87047D01*
X123500Y87216D01*
D02*
G37*
G36*
X118500D02*
X117652Y87047D01*
X116933Y86567D01*
X116453Y85848D01*
X116284Y85000D01*
X116453Y84152D01*
X116933Y83433D01*
X117652Y82953D01*
X118500Y82784D01*
X119348Y82953D01*
X120067Y83433D01*
X120547Y84152D01*
X120716Y85000D01*
X120547Y85848D01*
X120067Y86567D01*
X119348Y87047D01*
X118500Y87216D01*
D02*
G37*
G36*
X92000Y90716D02*
X91152Y90547D01*
X90433Y90067D01*
X89953Y89348D01*
X89784Y88500D01*
X89953Y87652D01*
X90433Y86933D01*
X91040Y86528D01*
X91077Y86370D01*
Y86130D01*
X91040Y85972D01*
X90433Y85567D01*
X89953Y84848D01*
X89784Y84000D01*
X89953Y83152D01*
X90433Y82433D01*
X91152Y81953D01*
X92000Y81784D01*
X92848Y81953D01*
X93567Y82433D01*
X94047Y83152D01*
X94216Y84000D01*
X94047Y84848D01*
X93567Y85567D01*
X92960Y85972D01*
X92923Y86130D01*
Y86370D01*
X92960Y86528D01*
X93567Y86933D01*
X94047Y87652D01*
X94216Y88500D01*
X94047Y89348D01*
X93567Y90067D01*
X92848Y90547D01*
X92000Y90716D01*
D02*
G37*
G36*
X280000Y83716D02*
X279152Y83547D01*
X278433Y83067D01*
X277953Y82348D01*
X277784Y81500D01*
X277953Y80652D01*
X278433Y79933D01*
X279152Y79453D01*
X280000Y79284D01*
X280848Y79453D01*
X281567Y79933D01*
X282047Y80652D01*
X282216Y81500D01*
X282047Y82348D01*
X281567Y83067D01*
X280848Y83547D01*
X280000Y83716D01*
D02*
G37*
G36*
X144900Y82416D02*
X144052Y82247D01*
X143333Y81767D01*
X142853Y81048D01*
X142684Y80200D01*
X142853Y79352D01*
X143333Y78633D01*
X144052Y78153D01*
X144900Y77984D01*
X145748Y78153D01*
X146467Y78633D01*
X146947Y79352D01*
X147116Y80200D01*
X146947Y81048D01*
X146467Y81767D01*
X145748Y82247D01*
X144900Y82416D01*
D02*
G37*
G36*
X358500Y82216D02*
X357652Y82047D01*
X356933Y81567D01*
X356453Y80848D01*
X356284Y80000D01*
X356453Y79152D01*
X356933Y78433D01*
X357652Y77953D01*
X358500Y77784D01*
X359348Y77953D01*
X360067Y78433D01*
X360547Y79152D01*
X360716Y80000D01*
X360547Y80848D01*
X360067Y81567D01*
X359348Y82047D01*
X358500Y82216D01*
D02*
G37*
G36*
X107500Y77216D02*
X106652Y77047D01*
X105933Y76567D01*
X105528Y75960D01*
X105370Y75923D01*
X105130D01*
X104972Y75960D01*
X104567Y76567D01*
X103848Y77047D01*
X103000Y77216D01*
X102152Y77047D01*
X101433Y76567D01*
X101028Y75960D01*
X100870Y75923D01*
X100630D01*
X100472Y75960D01*
X100067Y76567D01*
X99348Y77047D01*
X98500Y77216D01*
X97652Y77047D01*
X96933Y76567D01*
X96528Y75960D01*
X96370Y75923D01*
X96130D01*
X95972Y75960D01*
X95567Y76567D01*
X94848Y77047D01*
X94000Y77216D01*
X93152Y77047D01*
X92433Y76567D01*
X91953Y75848D01*
X91784Y75000D01*
X91953Y74152D01*
X92433Y73433D01*
X93040Y73028D01*
X93077Y72870D01*
Y72630D01*
X93040Y72472D01*
X92433Y72067D01*
X91953Y71348D01*
X91784Y70500D01*
X91953Y69652D01*
X92433Y68933D01*
X93152Y68453D01*
X94000Y68284D01*
X94848Y68453D01*
X95567Y68933D01*
X96047Y69652D01*
X96216Y70500D01*
X96047Y71348D01*
X95567Y72067D01*
X94960Y72472D01*
X94923Y72630D01*
Y72870D01*
X94960Y73028D01*
X95567Y73433D01*
X95972Y74040D01*
X96130Y74077D01*
X96370D01*
X96528Y74040D01*
X96933Y73433D01*
X97652Y72953D01*
X98500Y72784D01*
X99348Y72953D01*
X100067Y73433D01*
X100472Y74040D01*
X100630Y74077D01*
X100870D01*
X101028Y74040D01*
X101433Y73433D01*
X102152Y72953D01*
X103000Y72784D01*
X103848Y72953D01*
X104567Y73433D01*
X104972Y74040D01*
X105130Y74077D01*
X105370D01*
X105528Y74040D01*
X105933Y73433D01*
X106540Y73028D01*
X106577Y72870D01*
Y72630D01*
X106540Y72472D01*
X105933Y72067D01*
X105453Y71348D01*
X105284Y70500D01*
X105453Y69652D01*
X105933Y68933D01*
X106540Y68528D01*
X106577Y68370D01*
Y68130D01*
X106540Y67972D01*
X105933Y67567D01*
X105453Y66848D01*
X105284Y66000D01*
X105453Y65152D01*
X105933Y64433D01*
X106540Y64028D01*
X106577Y63870D01*
Y63630D01*
X106540Y63472D01*
X105933Y63067D01*
X105453Y62348D01*
X105284Y61500D01*
X105453Y60652D01*
X105933Y59933D01*
X106540Y59528D01*
X106577Y59370D01*
Y59130D01*
X106540Y58972D01*
X105933Y58567D01*
X105528Y57960D01*
X105370Y57923D01*
X105130D01*
X104972Y57960D01*
X104567Y58567D01*
X103848Y59047D01*
X103000Y59216D01*
X102152Y59047D01*
X101433Y58567D01*
X101028Y57960D01*
X100870Y57923D01*
X100630D01*
X100472Y57960D01*
X100067Y58567D01*
X99348Y59047D01*
X98500Y59216D01*
X97652Y59047D01*
X96933Y58567D01*
X96528Y57960D01*
X96370Y57923D01*
X96130D01*
X95972Y57960D01*
X95567Y58567D01*
X94960Y58972D01*
X94923Y59130D01*
Y59370D01*
X94960Y59528D01*
X95567Y59933D01*
X96047Y60652D01*
X96216Y61500D01*
X96047Y62348D01*
X95567Y63067D01*
X94848Y63547D01*
X94000Y63716D01*
X93152Y63547D01*
X92433Y63067D01*
X91953Y62348D01*
X91784Y61500D01*
X91953Y60652D01*
X92433Y59933D01*
X93040Y59528D01*
X93077Y59370D01*
Y59130D01*
X93040Y58972D01*
X92433Y58567D01*
X91953Y57848D01*
X91784Y57000D01*
X91953Y56152D01*
X92433Y55433D01*
X93152Y54953D01*
X94000Y54784D01*
X94848Y54953D01*
X95567Y55433D01*
X95972Y56040D01*
X96130Y56077D01*
X96370D01*
X96528Y56040D01*
X96933Y55433D01*
X97652Y54953D01*
X98500Y54784D01*
X99348Y54953D01*
X100067Y55433D01*
X100472Y56040D01*
X100630Y56077D01*
X100870D01*
X101028Y56040D01*
X101433Y55433D01*
X102152Y54953D01*
X103000Y54784D01*
X103848Y54953D01*
X104567Y55433D01*
X104972Y56040D01*
X105130Y56077D01*
X105370D01*
X105528Y56040D01*
X105933Y55433D01*
X106652Y54953D01*
X107500Y54784D01*
X108348Y54953D01*
X109067Y55433D01*
X109547Y56152D01*
X109716Y57000D01*
X109547Y57848D01*
X109067Y58567D01*
X108460Y58972D01*
X108423Y59130D01*
Y59370D01*
X108460Y59528D01*
X109067Y59933D01*
X109547Y60652D01*
X109716Y61500D01*
X109547Y62348D01*
X109067Y63067D01*
X108460Y63472D01*
X108423Y63630D01*
Y63870D01*
X108460Y64028D01*
X109067Y64433D01*
X109547Y65152D01*
X109716Y66000D01*
X109547Y66848D01*
X109067Y67567D01*
X108460Y67972D01*
X108423Y68130D01*
Y68370D01*
X108460Y68528D01*
X109067Y68933D01*
X109547Y69652D01*
X109716Y70500D01*
X109547Y71348D01*
X109067Y72067D01*
X108460Y72472D01*
X108423Y72630D01*
Y72870D01*
X108460Y73028D01*
X109067Y73433D01*
X109547Y74152D01*
X109716Y75000D01*
X109547Y75848D01*
X109067Y76567D01*
X108348Y77047D01*
X107500Y77216D01*
D02*
G37*
G36*
X311500Y76716D02*
X310652Y76547D01*
X309933Y76067D01*
X309453Y75348D01*
X309284Y74500D01*
X309453Y73652D01*
X309933Y72933D01*
X310652Y72453D01*
X311500Y72284D01*
X312348Y72453D01*
X313067Y72933D01*
X313547Y73652D01*
X313716Y74500D01*
X313547Y75348D01*
X313067Y76067D01*
X312348Y76547D01*
X311500Y76716D01*
D02*
G37*
G36*
X43000Y75716D02*
X42152Y75547D01*
X41433Y75067D01*
X40953Y74348D01*
X40784Y73500D01*
X40953Y72652D01*
X41433Y71933D01*
X42152Y71453D01*
X43000Y71284D01*
X43848Y71453D01*
X44567Y71933D01*
X45047Y72652D01*
X45216Y73500D01*
X45047Y74348D01*
X44567Y75067D01*
X43848Y75547D01*
X43000Y75716D01*
D02*
G37*
G36*
X342000Y75216D02*
X341152Y75047D01*
X340433Y74567D01*
X339953Y73848D01*
X339784Y73000D01*
X339953Y72152D01*
X340433Y71433D01*
X341152Y70953D01*
X342000Y70784D01*
X342848Y70953D01*
X343567Y71433D01*
X344047Y72152D01*
X344216Y73000D01*
X344047Y73848D01*
X343567Y74567D01*
X342848Y75047D01*
X342000Y75216D01*
D02*
G37*
G36*
X228500Y73216D02*
X227652Y73047D01*
X226933Y72567D01*
X226453Y71848D01*
X226284Y71000D01*
X226453Y70152D01*
X226933Y69433D01*
X227652Y68953D01*
X228500Y68784D01*
X229348Y68953D01*
X230067Y69433D01*
X230547Y70152D01*
X230716Y71000D01*
X230547Y71848D01*
X230067Y72567D01*
X229348Y73047D01*
X228500Y73216D01*
D02*
G37*
G36*
X209000Y68216D02*
X208152Y68047D01*
X207433Y67567D01*
X206953Y66848D01*
X206784Y66000D01*
X206953Y65152D01*
X207433Y64433D01*
X208152Y63953D01*
X209000Y63784D01*
X209848Y63953D01*
X210567Y64433D01*
X211047Y65152D01*
X211216Y66000D01*
X211047Y66848D01*
X210567Y67567D01*
X209848Y68047D01*
X209000Y68216D01*
D02*
G37*
G36*
X195600Y67516D02*
X194752Y67347D01*
X194033Y66867D01*
X193553Y66148D01*
X193384Y65300D01*
X193553Y64452D01*
X194033Y63733D01*
X194752Y63253D01*
X195600Y63084D01*
X196448Y63253D01*
X197167Y63733D01*
X197647Y64452D01*
X197816Y65300D01*
X197647Y66148D01*
X197167Y66867D01*
X196448Y67347D01*
X195600Y67516D01*
D02*
G37*
G36*
X188500Y90163D02*
X149500D01*
X149246Y90112D01*
X149031Y89969D01*
X148888Y89754D01*
X148837Y89500D01*
Y82600D01*
Y65500D01*
X148888Y65246D01*
X149031Y65031D01*
X149246Y64888D01*
X149500Y64837D01*
X165337D01*
Y62600D01*
X165388Y62346D01*
X165531Y62131D01*
X165746Y61988D01*
X166000Y61937D01*
X166254Y61988D01*
X166469Y62131D01*
X166612Y62346D01*
X166663Y62600D01*
Y65500D01*
X166612Y65754D01*
X166469Y65969D01*
X166254Y66112D01*
X166000Y66163D01*
X150163D01*
Y82600D01*
Y88837D01*
X187837D01*
Y66163D01*
X171900D01*
X171646Y66112D01*
X171431Y65969D01*
X171288Y65754D01*
X171237Y65500D01*
Y62600D01*
X171288Y62346D01*
X171431Y62131D01*
X171646Y61988D01*
X171900Y61937D01*
X172154Y61988D01*
X172369Y62131D01*
X172512Y62346D01*
X172563Y62600D01*
Y64837D01*
X188500D01*
X188754Y64888D01*
X188969Y65031D01*
X189112Y65246D01*
X189163Y65500D01*
Y88800D01*
Y89500D01*
X189112Y89754D01*
X188969Y89969D01*
X188754Y90112D01*
X188500Y90163D01*
D02*
G37*
G36*
X56500Y65716D02*
X55652Y65547D01*
X54933Y65067D01*
X54453Y64348D01*
X54284Y63500D01*
X54453Y62652D01*
X54933Y61933D01*
X55652Y61453D01*
X56500Y61284D01*
X57348Y61453D01*
X58067Y61933D01*
X58547Y62652D01*
X58716Y63500D01*
X58547Y64348D01*
X58067Y65067D01*
X57348Y65547D01*
X56500Y65716D01*
D02*
G37*
G36*
X337500Y64716D02*
X336652Y64547D01*
X335933Y64067D01*
X335453Y63348D01*
X335284Y62500D01*
X335453Y61652D01*
X335933Y60933D01*
X336652Y60453D01*
X337500Y60284D01*
X338348Y60453D01*
X339067Y60933D01*
X339547Y61652D01*
X339716Y62500D01*
X339547Y63348D01*
X339067Y64067D01*
X338348Y64547D01*
X337500Y64716D01*
D02*
G37*
G36*
X304000D02*
X303152Y64547D01*
X302433Y64067D01*
X301953Y63348D01*
X301784Y62500D01*
X301953Y61652D01*
X302433Y60933D01*
X303152Y60453D01*
X304000Y60284D01*
X304848Y60453D01*
X305567Y60933D01*
X306047Y61652D01*
X306216Y62500D01*
X306047Y63348D01*
X305567Y64067D01*
X304848Y64547D01*
X304000Y64716D01*
D02*
G37*
G36*
X236500Y63716D02*
X235652Y63547D01*
X234933Y63067D01*
X234453Y62348D01*
X234284Y61500D01*
X234453Y60652D01*
X234933Y59933D01*
X235652Y59453D01*
X236500Y59284D01*
X237348Y59453D01*
X238067Y59933D01*
X238547Y60652D01*
X238716Y61500D01*
X238547Y62348D01*
X238067Y63067D01*
X237348Y63547D01*
X236500Y63716D01*
D02*
G37*
G36*
X232500Y60716D02*
X231652Y60547D01*
X230933Y60067D01*
X230453Y59348D01*
X230284Y58500D01*
X230453Y57652D01*
X230933Y56933D01*
X231652Y56453D01*
X232500Y56284D01*
X233348Y56453D01*
X234067Y56933D01*
X234547Y57652D01*
X234716Y58500D01*
X234547Y59348D01*
X234067Y60067D01*
X233348Y60547D01*
X232500Y60716D01*
D02*
G37*
G36*
X337500Y59716D02*
X336652Y59547D01*
X335933Y59067D01*
X335453Y58348D01*
X335284Y57500D01*
X335453Y56652D01*
X335933Y55933D01*
X336652Y55453D01*
X337500Y55284D01*
X338348Y55453D01*
X339067Y55933D01*
X339547Y56652D01*
X339716Y57500D01*
X339547Y58348D01*
X339067Y59067D01*
X338348Y59547D01*
X337500Y59716D01*
D02*
G37*
G36*
X67500Y59216D02*
X66652Y59047D01*
X65933Y58567D01*
X65453Y57848D01*
X65284Y57000D01*
X65453Y56152D01*
X65933Y55433D01*
X66652Y54953D01*
X67500Y54784D01*
X68348Y54953D01*
X69067Y55433D01*
X69547Y56152D01*
X69716Y57000D01*
X69547Y57848D01*
X69067Y58567D01*
X68348Y59047D01*
X67500Y59216D01*
D02*
G37*
G36*
X62000D02*
X61152Y59047D01*
X60433Y58567D01*
X59953Y57848D01*
X59784Y57000D01*
X59953Y56152D01*
X60433Y55433D01*
X61152Y54953D01*
X62000Y54784D01*
X62848Y54953D01*
X63567Y55433D01*
X64047Y56152D01*
X64216Y57000D01*
X64047Y57848D01*
X63567Y58567D01*
X62848Y59047D01*
X62000Y59216D01*
D02*
G37*
G36*
X56500D02*
X55652Y59047D01*
X54933Y58567D01*
X54453Y57848D01*
X54284Y57000D01*
X54453Y56152D01*
X54933Y55433D01*
X55652Y54953D01*
X56500Y54784D01*
X57348Y54953D01*
X58067Y55433D01*
X58547Y56152D01*
X58716Y57000D01*
X58547Y57848D01*
X58067Y58567D01*
X57348Y59047D01*
X56500Y59216D01*
D02*
G37*
G36*
X159500Y58216D02*
X158652Y58047D01*
X157933Y57567D01*
X157453Y56848D01*
X157284Y56000D01*
X157453Y55152D01*
X157933Y54433D01*
X158652Y53953D01*
X159500Y53784D01*
X160348Y53953D01*
X161067Y54433D01*
X161547Y55152D01*
X161716Y56000D01*
X161547Y56848D01*
X161067Y57567D01*
X160348Y58047D01*
X159500Y58216D01*
D02*
G37*
G36*
X154500D02*
X153652Y58047D01*
X152933Y57567D01*
X152453Y56848D01*
X152284Y56000D01*
X152453Y55152D01*
X152933Y54433D01*
X153652Y53953D01*
X154500Y53784D01*
X155348Y53953D01*
X156067Y54433D01*
X156547Y55152D01*
X156716Y56000D01*
X156547Y56848D01*
X156067Y57567D01*
X155348Y58047D01*
X154500Y58216D01*
D02*
G37*
G36*
X178500Y55716D02*
X177652Y55547D01*
X176933Y55067D01*
X176453Y54348D01*
X176284Y53500D01*
X176453Y52652D01*
X176933Y51933D01*
X177652Y51453D01*
X178500Y51284D01*
X179348Y51453D01*
X180067Y51933D01*
X180547Y52652D01*
X180716Y53500D01*
X180547Y54348D01*
X180067Y55067D01*
X179348Y55547D01*
X178500Y55716D01*
D02*
G37*
G36*
X172500D02*
X171652Y55547D01*
X170933Y55067D01*
X170453Y54348D01*
X170284Y53500D01*
X170453Y52652D01*
X170933Y51933D01*
X171652Y51453D01*
X172500Y51284D01*
X173348Y51453D01*
X174067Y51933D01*
X174547Y52652D01*
X174716Y53500D01*
X174547Y54348D01*
X174067Y55067D01*
X173348Y55547D01*
X172500Y55716D01*
D02*
G37*
G36*
X167000D02*
X166152Y55547D01*
X165433Y55067D01*
X164953Y54348D01*
X164784Y53500D01*
X164953Y52652D01*
X165433Y51933D01*
X166152Y51453D01*
X167000Y51284D01*
X167848Y51453D01*
X168567Y51933D01*
X169047Y52652D01*
X169216Y53500D01*
X169047Y54348D01*
X168567Y55067D01*
X167848Y55547D01*
X167000Y55716D01*
D02*
G37*
G36*
X344000Y55216D02*
X343152Y55047D01*
X342433Y54567D01*
X341953Y53848D01*
X341784Y53000D01*
X341953Y52152D01*
X342433Y51433D01*
X343152Y50953D01*
X344000Y50784D01*
X344848Y50953D01*
X345567Y51433D01*
X346047Y52152D01*
X346216Y53000D01*
X346047Y53848D01*
X345567Y54567D01*
X344848Y55047D01*
X344000Y55216D01*
D02*
G37*
G36*
X134500Y54716D02*
X133652Y54547D01*
X132933Y54067D01*
X132453Y53348D01*
X132284Y52500D01*
X132453Y51652D01*
X132933Y50933D01*
X133652Y50453D01*
X134500Y50284D01*
X135348Y50453D01*
X136067Y50933D01*
X136547Y51652D01*
X136716Y52500D01*
X136547Y53348D01*
X136067Y54067D01*
X135348Y54547D01*
X134500Y54716D01*
D02*
G37*
G36*
X297000Y53216D02*
X296152Y53047D01*
X295433Y52567D01*
X294953Y51848D01*
X294784Y51000D01*
X294953Y50152D01*
X295433Y49433D01*
X296152Y48953D01*
X297000Y48784D01*
X297848Y48953D01*
X298567Y49433D01*
X299047Y50152D01*
X299216Y51000D01*
X299047Y51848D01*
X298567Y52567D01*
X297848Y53047D01*
X297000Y53216D01*
D02*
G37*
G36*
X242000Y50716D02*
X241152Y50547D01*
X240433Y50067D01*
X239953Y49348D01*
X239784Y48500D01*
X239953Y47652D01*
X240433Y46933D01*
X241152Y46453D01*
X242000Y46284D01*
X242848Y46453D01*
X243567Y46933D01*
X244047Y47652D01*
X244216Y48500D01*
X244047Y49348D01*
X243567Y50067D01*
X242848Y50547D01*
X242000Y50716D01*
D02*
G37*
G36*
X178000D02*
X177152Y50547D01*
X176433Y50067D01*
X175953Y49348D01*
X175784Y48500D01*
X175953Y47652D01*
X176433Y46933D01*
X177152Y46453D01*
X178000Y46284D01*
X178848Y46453D01*
X179567Y46933D01*
X180047Y47652D01*
X180216Y48500D01*
X180047Y49348D01*
X179567Y50067D01*
X178848Y50547D01*
X178000Y50716D01*
D02*
G37*
G36*
X172500D02*
X171652Y50547D01*
X170933Y50067D01*
X170453Y49348D01*
X170284Y48500D01*
X170453Y47652D01*
X170933Y46933D01*
X171652Y46453D01*
X172500Y46284D01*
X173348Y46453D01*
X174067Y46933D01*
X174547Y47652D01*
X174716Y48500D01*
X174547Y49348D01*
X174067Y50067D01*
X173348Y50547D01*
X172500Y50716D01*
D02*
G37*
G36*
X167000D02*
X166152Y50547D01*
X165433Y50067D01*
X164953Y49348D01*
X164784Y48500D01*
X164953Y47652D01*
X165433Y46933D01*
X166152Y46453D01*
X167000Y46284D01*
X167848Y46453D01*
X168567Y46933D01*
X169047Y47652D01*
X169216Y48500D01*
X169047Y49348D01*
X168567Y50067D01*
X167848Y50547D01*
X167000Y50716D01*
D02*
G37*
G36*
X344000Y50216D02*
X343152Y50047D01*
X342433Y49567D01*
X341953Y48848D01*
X341784Y48000D01*
X341953Y47152D01*
X342433Y46433D01*
X343152Y45953D01*
X344000Y45784D01*
X344848Y45953D01*
X345567Y46433D01*
X346047Y47152D01*
X346216Y48000D01*
X346047Y48848D01*
X345567Y49567D01*
X344848Y50047D01*
X344000Y50216D01*
D02*
G37*
G36*
X113500Y48716D02*
X112652Y48547D01*
X111933Y48067D01*
X111453Y47348D01*
X111284Y46500D01*
X111453Y45652D01*
X111933Y44933D01*
X112652Y44453D01*
X113500Y44284D01*
X114348Y44453D01*
X115067Y44933D01*
X115547Y45652D01*
X115716Y46500D01*
X115547Y47348D01*
X115067Y48067D01*
X114348Y48547D01*
X113500Y48716D01*
D02*
G37*
G36*
X99000D02*
X98152Y48547D01*
X97433Y48067D01*
X96953Y47348D01*
X96784Y46500D01*
X96953Y45652D01*
X97433Y44933D01*
X98152Y44453D01*
X99000Y44284D01*
X99848Y44453D01*
X100567Y44933D01*
X101047Y45652D01*
X101216Y46500D01*
X101047Y47348D01*
X100567Y48067D01*
X99848Y48547D01*
X99000Y48716D01*
D02*
G37*
G36*
X203500Y48216D02*
X202652Y48047D01*
X201933Y47567D01*
X201453Y46848D01*
X201284Y46000D01*
X201453Y45152D01*
X201933Y44433D01*
X202652Y43953D01*
X203500Y43784D01*
X204348Y43953D01*
X205067Y44433D01*
X205547Y45152D01*
X205716Y46000D01*
X205547Y46848D01*
X205067Y47567D01*
X204348Y48047D01*
X203500Y48216D01*
D02*
G37*
G36*
X7500D02*
X6652Y48047D01*
X5933Y47567D01*
X5453Y46848D01*
X5284Y46000D01*
X5453Y45152D01*
X5933Y44433D01*
X6652Y43953D01*
X7500Y43784D01*
X8348Y43953D01*
X9067Y44433D01*
X9547Y45152D01*
X9716Y46000D01*
X9547Y46848D01*
X9067Y47567D01*
X8348Y48047D01*
X7500Y48216D01*
D02*
G37*
G36*
X297000Y47716D02*
X296152Y47547D01*
X295433Y47067D01*
X294953Y46348D01*
X294784Y45500D01*
X294953Y44652D01*
X295433Y43933D01*
X296152Y43453D01*
X297000Y43284D01*
X297848Y43453D01*
X298567Y43933D01*
X299047Y44652D01*
X299216Y45500D01*
X299047Y46348D01*
X298567Y47067D01*
X297848Y47547D01*
X297000Y47716D01*
D02*
G37*
G36*
X246000D02*
X245152Y47547D01*
X244433Y47067D01*
X243953Y46348D01*
X243784Y45500D01*
X243953Y44652D01*
X244433Y43933D01*
X245152Y43453D01*
X246000Y43284D01*
X246848Y43453D01*
X247567Y43933D01*
X248047Y44652D01*
X248216Y45500D01*
X248047Y46348D01*
X247567Y47067D01*
X246848Y47547D01*
X246000Y47716D01*
D02*
G37*
G36*
X198500Y46216D02*
X197652Y46047D01*
X196933Y45567D01*
X196453Y44848D01*
X196284Y44000D01*
X196453Y43152D01*
X196933Y42433D01*
X197652Y41953D01*
X198500Y41784D01*
X199348Y41953D01*
X200067Y42433D01*
X200547Y43152D01*
X200716Y44000D01*
X200547Y44848D01*
X200067Y45567D01*
X199348Y46047D01*
X198500Y46216D01*
D02*
G37*
G36*
X178000Y45716D02*
X177152Y45547D01*
X176433Y45067D01*
X175953Y44348D01*
X175784Y43500D01*
X175953Y42652D01*
X176433Y41933D01*
X177152Y41453D01*
X178000Y41284D01*
X178848Y41453D01*
X179567Y41933D01*
X180047Y42652D01*
X180216Y43500D01*
X180047Y44348D01*
X179567Y45067D01*
X178848Y45547D01*
X178000Y45716D01*
D02*
G37*
G36*
X167000D02*
X166152Y45547D01*
X165433Y45067D01*
X164953Y44348D01*
X164784Y43500D01*
X164953Y42652D01*
X165433Y41933D01*
X166152Y41453D01*
X167000Y41284D01*
X167848Y41453D01*
X168567Y41933D01*
X169047Y42652D01*
X169216Y43500D01*
X169047Y44348D01*
X168567Y45067D01*
X167848Y45547D01*
X167000Y45716D01*
D02*
G37*
G36*
X157500D02*
X156652Y45547D01*
X155933Y45067D01*
X155453Y44348D01*
X155284Y43500D01*
X155453Y42652D01*
X155933Y41933D01*
X156652Y41453D01*
X157500Y41284D01*
X158348Y41453D01*
X159067Y41933D01*
X159547Y42652D01*
X159716Y43500D01*
X159547Y44348D01*
X159067Y45067D01*
X158348Y45547D01*
X157500Y45716D01*
D02*
G37*
G36*
X152500D02*
X151652Y45547D01*
X150933Y45067D01*
X150453Y44348D01*
X150284Y43500D01*
X150453Y42652D01*
X150933Y41933D01*
X151652Y41453D01*
X152500Y41284D01*
X153348Y41453D01*
X154067Y41933D01*
X154547Y42652D01*
X154716Y43500D01*
X154547Y44348D01*
X154067Y45067D01*
X153348Y45547D01*
X152500Y45716D01*
D02*
G37*
G36*
X147500D02*
X146652Y45547D01*
X145933Y45067D01*
X145453Y44348D01*
X145284Y43500D01*
X145453Y42652D01*
X145933Y41933D01*
X146652Y41453D01*
X147500Y41284D01*
X148348Y41453D01*
X149067Y41933D01*
X149547Y42652D01*
X149716Y43500D01*
X149547Y44348D01*
X149067Y45067D01*
X148348Y45547D01*
X147500Y45716D01*
D02*
G37*
G36*
X7500Y42716D02*
X6652Y42547D01*
X5933Y42067D01*
X5453Y41348D01*
X5284Y40500D01*
X5453Y39652D01*
X5933Y38933D01*
X6652Y38453D01*
X7500Y38284D01*
X8348Y38453D01*
X9067Y38933D01*
X9547Y39652D01*
X9716Y40500D01*
X9547Y41348D01*
X9067Y42067D01*
X8348Y42547D01*
X7500Y42716D01*
D02*
G37*
G36*
X157500Y40716D02*
X156652Y40547D01*
X155933Y40067D01*
X155453Y39348D01*
X155284Y38500D01*
X155453Y37652D01*
X155933Y36933D01*
X156652Y36453D01*
X157500Y36284D01*
X158348Y36453D01*
X159067Y36933D01*
X159547Y37652D01*
X159716Y38500D01*
X159547Y39348D01*
X159067Y40067D01*
X158348Y40547D01*
X157500Y40716D01*
D02*
G37*
G36*
X225000Y40216D02*
X224152Y40047D01*
X223433Y39567D01*
X222953Y38848D01*
X222784Y38000D01*
X222953Y37152D01*
X223433Y36433D01*
X224152Y35953D01*
X225000Y35784D01*
X225848Y35953D01*
X226567Y36433D01*
X227047Y37152D01*
X227216Y38000D01*
X227047Y38848D01*
X226567Y39567D01*
X225848Y40047D01*
X225000Y40216D01*
D02*
G37*
G36*
X68000Y37716D02*
X67152Y37547D01*
X66433Y37067D01*
X65953Y36348D01*
X65784Y35500D01*
X65953Y34652D01*
X66433Y33933D01*
X67152Y33453D01*
X68000Y33284D01*
X68848Y33453D01*
X69567Y33933D01*
X70047Y34652D01*
X70216Y35500D01*
X70047Y36348D01*
X69567Y37067D01*
X68848Y37547D01*
X68000Y37716D01*
D02*
G37*
G36*
X62500D02*
X61652Y37547D01*
X60933Y37067D01*
X60453Y36348D01*
X60284Y35500D01*
X60453Y34652D01*
X60933Y33933D01*
X61652Y33453D01*
X62500Y33284D01*
X63348Y33453D01*
X64067Y33933D01*
X64547Y34652D01*
X64716Y35500D01*
X64547Y36348D01*
X64067Y37067D01*
X63348Y37547D01*
X62500Y37716D01*
D02*
G37*
G36*
X57000D02*
X56152Y37547D01*
X55433Y37067D01*
X54953Y36348D01*
X54784Y35500D01*
X54953Y34652D01*
X55433Y33933D01*
X56152Y33453D01*
X57000Y33284D01*
X57848Y33453D01*
X58567Y33933D01*
X59047Y34652D01*
X59216Y35500D01*
X59047Y36348D01*
X58567Y37067D01*
X57848Y37547D01*
X57000Y37716D01*
D02*
G37*
G36*
X51500D02*
X50652Y37547D01*
X49933Y37067D01*
X49453Y36348D01*
X49284Y35500D01*
X49453Y34652D01*
X49933Y33933D01*
X50652Y33453D01*
X51500Y33284D01*
X52348Y33453D01*
X53067Y33933D01*
X53547Y34652D01*
X53716Y35500D01*
X53547Y36348D01*
X53067Y37067D01*
X52348Y37547D01*
X51500Y37716D01*
D02*
G37*
G36*
X46000D02*
X45152Y37547D01*
X44433Y37067D01*
X43953Y36348D01*
X43784Y35500D01*
X43953Y34652D01*
X44433Y33933D01*
X45152Y33453D01*
X46000Y33284D01*
X46848Y33453D01*
X47567Y33933D01*
X48047Y34652D01*
X48216Y35500D01*
X48047Y36348D01*
X47567Y37067D01*
X46848Y37547D01*
X46000Y37716D01*
D02*
G37*
G36*
X35000Y37570D02*
X34152Y37402D01*
X33433Y36921D01*
X32953Y36202D01*
X32784Y35354D01*
X32953Y34506D01*
X33433Y33788D01*
X34152Y33307D01*
X35000Y33139D01*
X35848Y33307D01*
X36567Y33788D01*
X37047Y34506D01*
X37216Y35354D01*
X37047Y36202D01*
X36567Y36921D01*
X35848Y37402D01*
X35000Y37570D01*
D02*
G37*
G36*
X239000Y37216D02*
X238152Y37047D01*
X237433Y36567D01*
X236953Y35848D01*
X236784Y35000D01*
X236953Y34152D01*
X237433Y33433D01*
X238152Y32953D01*
X239000Y32784D01*
X239848Y32953D01*
X240567Y33433D01*
X241047Y34152D01*
X241216Y35000D01*
X241047Y35848D01*
X240567Y36567D01*
X239848Y37047D01*
X239000Y37216D01*
D02*
G37*
G36*
X18500D02*
X17652Y37047D01*
X16933Y36567D01*
X16453Y35848D01*
X16284Y35000D01*
X16453Y34152D01*
X16933Y33433D01*
X17652Y32953D01*
X18500Y32784D01*
X19348Y32953D01*
X20067Y33433D01*
X20547Y34152D01*
X20716Y35000D01*
X20547Y35848D01*
X20067Y36567D01*
X19348Y37047D01*
X18500Y37216D01*
D02*
G37*
G36*
X13000D02*
X12152Y37047D01*
X11433Y36567D01*
X10953Y35848D01*
X10784Y35000D01*
X10953Y34152D01*
X11433Y33433D01*
X12152Y32953D01*
X13000Y32784D01*
X13848Y32953D01*
X14567Y33433D01*
X15047Y34152D01*
X15216Y35000D01*
X15047Y35848D01*
X14567Y36567D01*
X13848Y37047D01*
X13000Y37216D01*
D02*
G37*
G36*
X7500D02*
X6652Y37047D01*
X5933Y36567D01*
X5453Y35848D01*
X5284Y35000D01*
X5453Y34152D01*
X5933Y33433D01*
X6652Y32953D01*
X7500Y32784D01*
X8348Y32953D01*
X9067Y33433D01*
X9547Y34152D01*
X9716Y35000D01*
X9547Y35848D01*
X9067Y36567D01*
X8348Y37047D01*
X7500Y37216D01*
D02*
G37*
G36*
X312000Y36716D02*
X311152Y36547D01*
X310433Y36067D01*
X309953Y35348D01*
X309784Y34500D01*
X309953Y33652D01*
X310433Y32933D01*
X311152Y32453D01*
X312000Y32284D01*
X312848Y32453D01*
X313567Y32933D01*
X314047Y33652D01*
X314216Y34500D01*
X314047Y35348D01*
X313567Y36067D01*
X312848Y36547D01*
X312000Y36716D01*
D02*
G37*
G36*
X157500Y35716D02*
X156652Y35547D01*
X155933Y35067D01*
X155453Y34348D01*
X155284Y33500D01*
X155453Y32652D01*
X155933Y31933D01*
X156652Y31453D01*
X157500Y31284D01*
X158348Y31453D01*
X159067Y31933D01*
X159547Y32652D01*
X159716Y33500D01*
X159547Y34348D01*
X159067Y35067D01*
X158348Y35547D01*
X157500Y35716D01*
D02*
G37*
G36*
X147000Y35216D02*
X146152Y35047D01*
X145433Y34567D01*
X144953Y33848D01*
X144784Y33000D01*
X144953Y32152D01*
X145433Y31433D01*
X146152Y30953D01*
X147000Y30784D01*
X147848Y30953D01*
X148567Y31433D01*
X149047Y32152D01*
X149216Y33000D01*
X149047Y33848D01*
X148567Y34567D01*
X147848Y35047D01*
X147000Y35216D01*
D02*
G37*
G36*
X260000Y34716D02*
X259152Y34547D01*
X258433Y34067D01*
X257953Y33348D01*
X257784Y32500D01*
X257953Y31652D01*
X258433Y30933D01*
X259152Y30453D01*
X260000Y30284D01*
X260848Y30453D01*
X261567Y30933D01*
X262047Y31652D01*
X262216Y32500D01*
X262047Y33348D01*
X261567Y34067D01*
X260848Y34547D01*
X260000Y34716D01*
D02*
G37*
G36*
X112000Y33216D02*
X111152Y33047D01*
X110433Y32567D01*
X109953Y31848D01*
X109784Y31000D01*
X109953Y30152D01*
X110433Y29433D01*
X111152Y28953D01*
X112000Y28784D01*
X112848Y28953D01*
X113567Y29433D01*
X114047Y30152D01*
X114216Y31000D01*
X114047Y31848D01*
X113567Y32567D01*
X112848Y33047D01*
X112000Y33216D01*
D02*
G37*
G36*
X98500Y31716D02*
X97652Y31547D01*
X96933Y31067D01*
X96453Y30348D01*
X96284Y29500D01*
X96453Y28652D01*
X96933Y27933D01*
X97652Y27453D01*
X98500Y27284D01*
X99348Y27453D01*
X100067Y27933D01*
X100547Y28652D01*
X100716Y29500D01*
X100547Y30348D01*
X100067Y31067D01*
X99348Y31547D01*
X98500Y31716D01*
D02*
G37*
G36*
X171500Y30216D02*
X170652Y30047D01*
X169933Y29567D01*
X169453Y28848D01*
X169284Y28000D01*
X169453Y27152D01*
X169933Y26433D01*
X170652Y25953D01*
X171500Y25784D01*
X172348Y25953D01*
X173067Y26433D01*
X173547Y27152D01*
X173716Y28000D01*
X173547Y28848D01*
X173067Y29567D01*
X172348Y30047D01*
X171500Y30216D01*
D02*
G37*
G36*
X293500Y28216D02*
X292652Y28047D01*
X291933Y27567D01*
X291453Y26848D01*
X291284Y26000D01*
X291453Y25152D01*
X291933Y24433D01*
X292652Y23953D01*
X293500Y23784D01*
X294348Y23953D01*
X295067Y24433D01*
X295547Y25152D01*
X295716Y26000D01*
X295547Y26848D01*
X295067Y27567D01*
X294348Y28047D01*
X293500Y28216D01*
D02*
G37*
G36*
X305000Y26216D02*
X304152Y26047D01*
X303433Y25567D01*
X302953Y24848D01*
X302784Y24000D01*
X302953Y23152D01*
X303433Y22433D01*
X304152Y21953D01*
X305000Y21784D01*
X305848Y21953D01*
X306567Y22433D01*
X307047Y23152D01*
X307216Y24000D01*
X307047Y24848D01*
X306567Y25567D01*
X305848Y26047D01*
X305000Y26216D01*
D02*
G37*
G36*
X209000Y25716D02*
X208152Y25547D01*
X207433Y25067D01*
X206953Y24348D01*
X206784Y23500D01*
X206953Y22652D01*
X207433Y21933D01*
X208152Y21453D01*
X209000Y21284D01*
X209848Y21453D01*
X210567Y21933D01*
X211047Y22652D01*
X211216Y23500D01*
X211047Y24348D01*
X210567Y25067D01*
X209848Y25547D01*
X209000Y25716D01*
D02*
G37*
G36*
X153000Y24716D02*
X152152Y24547D01*
X151433Y24067D01*
X150953Y23348D01*
X150784Y22500D01*
X150953Y21652D01*
X151433Y20933D01*
X152152Y20453D01*
X153000Y20284D01*
X153848Y20453D01*
X154567Y20933D01*
X155047Y21652D01*
X155216Y22500D01*
X155047Y23348D01*
X154567Y24067D01*
X153848Y24547D01*
X153000Y24716D01*
D02*
G37*
G36*
X128500D02*
X127652Y24547D01*
X126933Y24067D01*
X126453Y23348D01*
X126284Y22500D01*
X126453Y21652D01*
X126933Y20933D01*
X127652Y20453D01*
X128500Y20284D01*
X129348Y20453D01*
X130067Y20933D01*
X130547Y21652D01*
X130716Y22500D01*
X130547Y23348D01*
X130067Y24067D01*
X129348Y24547D01*
X128500Y24716D01*
D02*
G37*
G36*
X123500D02*
X122652Y24547D01*
X121933Y24067D01*
X121453Y23348D01*
X121284Y22500D01*
X121453Y21652D01*
X121933Y20933D01*
X122652Y20453D01*
X123500Y20284D01*
X124348Y20453D01*
X125067Y20933D01*
X125547Y21652D01*
X125716Y22500D01*
X125547Y23348D01*
X125067Y24067D01*
X124348Y24547D01*
X123500Y24716D01*
D02*
G37*
G36*
X299000Y23716D02*
X298152Y23547D01*
X297433Y23067D01*
X296953Y22348D01*
X296784Y21500D01*
X296953Y20652D01*
X297433Y19933D01*
X298152Y19453D01*
X299000Y19284D01*
X299848Y19453D01*
X300567Y19933D01*
X301047Y20652D01*
X301216Y21500D01*
X301047Y22348D01*
X300567Y23067D01*
X299848Y23547D01*
X299000Y23716D01*
D02*
G37*
G36*
X226500D02*
X225652Y23547D01*
X224933Y23067D01*
X224453Y22348D01*
X224284Y21500D01*
X224453Y20652D01*
X224933Y19933D01*
X225652Y19453D01*
X226500Y19284D01*
X227348Y19453D01*
X228067Y19933D01*
X228547Y20652D01*
X228716Y21500D01*
X228547Y22348D01*
X228067Y23067D01*
X227348Y23547D01*
X226500Y23716D01*
D02*
G37*
G36*
X202000Y21716D02*
X201152Y21547D01*
X200433Y21067D01*
X199953Y20348D01*
X199784Y19500D01*
X199953Y18652D01*
X200433Y17933D01*
X201152Y17453D01*
X202000Y17284D01*
X202848Y17453D01*
X203567Y17933D01*
X204047Y18652D01*
X204216Y19500D01*
X204047Y20348D01*
X203567Y21067D01*
X202848Y21547D01*
X202000Y21716D01*
D02*
G37*
G36*
X355000Y18572D02*
X354330Y18484D01*
X353706Y18225D01*
X353170Y17814D01*
X352774Y17297D01*
X352648Y17278D01*
X352352D01*
X352226Y17297D01*
X351830Y17814D01*
X351294Y18225D01*
X350670Y18484D01*
X350000Y18572D01*
X349330Y18484D01*
X348706Y18225D01*
X348170Y17814D01*
X347774Y17297D01*
X347648Y17278D01*
X347352D01*
X347226Y17297D01*
X346830Y17814D01*
X346294Y18225D01*
X345670Y18484D01*
X345000Y18572D01*
X344330Y18484D01*
X343706Y18225D01*
X343170Y17814D01*
X342774Y17297D01*
X342648Y17278D01*
X342352D01*
X342226Y17297D01*
X341830Y17814D01*
X341294Y18225D01*
X340670Y18484D01*
X340000Y18572D01*
X339330Y18484D01*
X338706Y18225D01*
X338170Y17814D01*
X337774Y17297D01*
X337648Y17278D01*
X337352D01*
X337226Y17297D01*
X336830Y17814D01*
X336294Y18225D01*
X335670Y18484D01*
X335000Y18572D01*
X334330Y18484D01*
X333706Y18225D01*
X333170Y17814D01*
X332774Y17297D01*
X332648Y17278D01*
X332352D01*
X332226Y17297D01*
X331830Y17814D01*
X331294Y18225D01*
X330670Y18484D01*
X330000Y18572D01*
X329330Y18484D01*
X328706Y18225D01*
X328170Y17814D01*
X327774Y17297D01*
X327648Y17278D01*
X327352D01*
X327226Y17297D01*
X326830Y17814D01*
X326294Y18225D01*
X325670Y18484D01*
X325000Y18572D01*
X324330Y18484D01*
X323706Y18225D01*
X323170Y17814D01*
X322774Y17297D01*
X322648Y17278D01*
X322352D01*
X322226Y17297D01*
X321830Y17814D01*
X321294Y18225D01*
X320670Y18484D01*
X320000Y18572D01*
X319330Y18484D01*
X318706Y18225D01*
X318170Y17814D01*
X317774Y17297D01*
X317648Y17278D01*
X317352D01*
X317226Y17297D01*
X316830Y17814D01*
X316294Y18225D01*
X315670Y18484D01*
X315000Y18572D01*
X314330Y18484D01*
X313706Y18225D01*
X313170Y17814D01*
X313065Y17677D01*
X312565Y17847D01*
Y18550D01*
X307435D01*
Y11450D01*
X312565D01*
Y12153D01*
X313065Y12323D01*
X313170Y12186D01*
X313706Y11775D01*
X314330Y11516D01*
X315000Y11428D01*
X315670Y11516D01*
X316294Y11775D01*
X316830Y12186D01*
X317226Y12703D01*
X317352Y12722D01*
X317648D01*
X317774Y12703D01*
X318170Y12186D01*
X318706Y11775D01*
X319330Y11516D01*
X320000Y11428D01*
X320670Y11516D01*
X321294Y11775D01*
X321830Y12186D01*
X322226Y12703D01*
X322352Y12722D01*
X322648D01*
X322774Y12703D01*
X323170Y12186D01*
X323706Y11775D01*
X324330Y11516D01*
X325000Y11428D01*
X325670Y11516D01*
X326294Y11775D01*
X326830Y12186D01*
X327226Y12703D01*
X327352Y12722D01*
X327648D01*
X327774Y12703D01*
X328170Y12186D01*
X328706Y11775D01*
X329330Y11516D01*
X330000Y11428D01*
X330670Y11516D01*
X331294Y11775D01*
X331830Y12186D01*
X332226Y12703D01*
X332352Y12722D01*
X332648D01*
X332774Y12703D01*
X333170Y12186D01*
X333706Y11775D01*
X334330Y11516D01*
X335000Y11428D01*
X335670Y11516D01*
X336294Y11775D01*
X336830Y12186D01*
X337226Y12703D01*
X337352Y12722D01*
X337648D01*
X337774Y12703D01*
X338170Y12186D01*
X338706Y11775D01*
X339330Y11516D01*
X340000Y11428D01*
X340670Y11516D01*
X341294Y11775D01*
X341830Y12186D01*
X342226Y12703D01*
X342352Y12722D01*
X342648D01*
X342774Y12703D01*
X343170Y12186D01*
X343706Y11775D01*
X344330Y11516D01*
X345000Y11428D01*
X345670Y11516D01*
X346294Y11775D01*
X346830Y12186D01*
X347226Y12703D01*
X347352Y12722D01*
X347648D01*
X347774Y12703D01*
X348170Y12186D01*
X348706Y11775D01*
X349330Y11516D01*
X350000Y11428D01*
X350670Y11516D01*
X351294Y11775D01*
X351830Y12186D01*
X352226Y12703D01*
X352352Y12722D01*
X352648D01*
X352774Y12703D01*
X353170Y12186D01*
X353706Y11775D01*
X354330Y11516D01*
X355000Y11428D01*
X355670Y11516D01*
X356294Y11775D01*
X356830Y12186D01*
X357241Y12722D01*
X357499Y13346D01*
X357588Y14016D01*
Y15984D01*
X357499Y16654D01*
X357241Y17278D01*
X356830Y17814D01*
X356294Y18225D01*
X355670Y18484D01*
X355000Y18572D01*
D02*
G37*
G36*
X75000D02*
X74330Y18484D01*
X73706Y18225D01*
X73170Y17814D01*
X72774Y17297D01*
X72648Y17278D01*
X72352D01*
X72226Y17297D01*
X71830Y17814D01*
X71294Y18225D01*
X70670Y18484D01*
X70000Y18572D01*
X69330Y18484D01*
X68706Y18225D01*
X68170Y17814D01*
X67774Y17297D01*
X67648Y17278D01*
X67352D01*
X67226Y17297D01*
X66830Y17814D01*
X66294Y18225D01*
X65670Y18484D01*
X65000Y18572D01*
X64330Y18484D01*
X63706Y18225D01*
X63170Y17814D01*
X62774Y17297D01*
X62648Y17278D01*
X62352D01*
X62226Y17297D01*
X61830Y17814D01*
X61294Y18225D01*
X60670Y18484D01*
X60000Y18572D01*
X59330Y18484D01*
X58706Y18225D01*
X58170Y17814D01*
X57774Y17297D01*
X57648Y17278D01*
X57352D01*
X57226Y17297D01*
X56830Y17814D01*
X56294Y18225D01*
X55670Y18484D01*
X55000Y18572D01*
X54330Y18484D01*
X53706Y18225D01*
X53170Y17814D01*
X52774Y17297D01*
X52648Y17278D01*
X52352D01*
X52226Y17297D01*
X51830Y17814D01*
X51294Y18225D01*
X50670Y18484D01*
X50000Y18572D01*
X49330Y18484D01*
X48706Y18225D01*
X48170Y17814D01*
X47774Y17297D01*
X47648Y17278D01*
X47352D01*
X47226Y17297D01*
X46830Y17814D01*
X46294Y18225D01*
X45670Y18484D01*
X45000Y18572D01*
X44330Y18484D01*
X43706Y18225D01*
X43170Y17814D01*
X42759Y17278D01*
X42501Y16654D01*
X42412Y15984D01*
Y14016D01*
X42501Y13346D01*
X42759Y12722D01*
X43170Y12186D01*
X43706Y11775D01*
X44330Y11516D01*
X45000Y11428D01*
X45670Y11516D01*
X46294Y11775D01*
X46830Y12186D01*
X47226Y12703D01*
X47352Y12722D01*
X47648D01*
X47774Y12703D01*
X48170Y12186D01*
X48706Y11775D01*
X49330Y11516D01*
X50000Y11428D01*
X50670Y11516D01*
X51294Y11775D01*
X51830Y12186D01*
X52226Y12703D01*
X52352Y12722D01*
X52648D01*
X52774Y12703D01*
X53170Y12186D01*
X53706Y11775D01*
X54330Y11516D01*
X55000Y11428D01*
X55670Y11516D01*
X56294Y11775D01*
X56830Y12186D01*
X57226Y12703D01*
X57352Y12722D01*
X57648D01*
X57774Y12703D01*
X58170Y12186D01*
X58706Y11775D01*
X59330Y11516D01*
X60000Y11428D01*
X60670Y11516D01*
X61294Y11775D01*
X61830Y12186D01*
X62226Y12703D01*
X62352Y12722D01*
X62648D01*
X62774Y12703D01*
X63170Y12186D01*
X63706Y11775D01*
X64330Y11516D01*
X65000Y11428D01*
X65670Y11516D01*
X66294Y11775D01*
X66830Y12186D01*
X67226Y12703D01*
X67352Y12722D01*
X67648D01*
X67774Y12703D01*
X68170Y12186D01*
X68706Y11775D01*
X69330Y11516D01*
X70000Y11428D01*
X70670Y11516D01*
X71294Y11775D01*
X71830Y12186D01*
X72226Y12703D01*
X72352Y12722D01*
X72648D01*
X72774Y12703D01*
X73170Y12186D01*
X73706Y11775D01*
X74330Y11516D01*
X75000Y11428D01*
X75670Y11516D01*
X76294Y11775D01*
X76830Y12186D01*
X76935Y12323D01*
X77435Y12153D01*
Y11450D01*
X82565D01*
Y18550D01*
X77435D01*
Y17847D01*
X76935Y17677D01*
X76830Y17814D01*
X76294Y18225D01*
X75670Y18484D01*
X75000Y18572D01*
D02*
G37*
G36*
X142000Y18716D02*
X141152Y18547D01*
X140433Y18067D01*
X139953Y17348D01*
X139784Y16500D01*
X139953Y15652D01*
X140433Y14933D01*
X141152Y14453D01*
X142000Y14284D01*
X142848Y14453D01*
X143567Y14933D01*
X144047Y15652D01*
X144216Y16500D01*
X144047Y17348D01*
X143567Y18067D01*
X142848Y18547D01*
X142000Y18716D01*
D02*
G37*
G36*
X257000Y16216D02*
X256152Y16047D01*
X255433Y15567D01*
X254953Y14848D01*
X254784Y14000D01*
X254953Y13152D01*
X255433Y12433D01*
X256152Y11953D01*
X257000Y11784D01*
X257848Y11953D01*
X258567Y12433D01*
X259047Y13152D01*
X259216Y14000D01*
X259047Y14848D01*
X258567Y15567D01*
X257848Y16047D01*
X257000Y16216D01*
D02*
G37*
G36*
X266500Y15216D02*
X265652Y15047D01*
X264933Y14567D01*
X264453Y13848D01*
X264284Y13000D01*
X264453Y12152D01*
X264933Y11433D01*
X265652Y10953D01*
X266500Y10784D01*
X267348Y10953D01*
X268067Y11433D01*
X268547Y12152D01*
X268716Y13000D01*
X268547Y13848D01*
X268067Y14567D01*
X267348Y15047D01*
X266500Y15216D01*
D02*
G37*
G36*
X157500Y12716D02*
X156652Y12547D01*
X155933Y12067D01*
X155453Y11348D01*
X155284Y10500D01*
X155453Y9652D01*
X155933Y8933D01*
X156652Y8453D01*
X157500Y8284D01*
X158348Y8453D01*
X159067Y8933D01*
X159547Y9652D01*
X159716Y10500D01*
X159547Y11348D01*
X159067Y12067D01*
X158348Y12547D01*
X157500Y12716D01*
D02*
G37*
G36*
X150500D02*
X149652Y12547D01*
X148933Y12067D01*
X148453Y11348D01*
X148284Y10500D01*
X148453Y9652D01*
X148933Y8933D01*
X149652Y8453D01*
X150500Y8284D01*
X151348Y8453D01*
X152067Y8933D01*
X152547Y9652D01*
X152716Y10500D01*
X152547Y11348D01*
X152067Y12067D01*
X151348Y12547D01*
X150500Y12716D01*
D02*
G37*
G36*
X188500Y11716D02*
X187652Y11547D01*
X186933Y11067D01*
X186453Y10348D01*
X186284Y9500D01*
X186453Y8652D01*
X186933Y7933D01*
X187652Y7453D01*
X188500Y7284D01*
X189348Y7453D01*
X190067Y7933D01*
X190547Y8652D01*
X190716Y9500D01*
X190547Y10348D01*
X190067Y11067D01*
X189348Y11547D01*
X188500Y11716D01*
D02*
G37*
G36*
X170500Y9216D02*
X169652Y9047D01*
X168933Y8567D01*
X168453Y7848D01*
X168284Y7000D01*
X168453Y6152D01*
X168933Y5433D01*
X169652Y4953D01*
X170500Y4784D01*
X171348Y4953D01*
X172067Y5433D01*
X172547Y6152D01*
X172716Y7000D01*
X172547Y7848D01*
X172067Y8567D01*
X171348Y9047D01*
X170500Y9216D01*
D02*
G37*
G36*
X131000D02*
X130152Y9047D01*
X129433Y8567D01*
X128953Y7848D01*
X128784Y7000D01*
X128953Y6152D01*
X129433Y5433D01*
X130152Y4953D01*
X131000Y4784D01*
X131848Y4953D01*
X132567Y5433D01*
X133047Y6152D01*
X133216Y7000D01*
X133047Y7848D01*
X132567Y8567D01*
X131848Y9047D01*
X131000Y9216D01*
D02*
G37*
G36*
X266000Y7216D02*
X265152Y7047D01*
X264433Y6567D01*
X263953Y5848D01*
X263784Y5000D01*
X263953Y4152D01*
X264433Y3433D01*
X265152Y2953D01*
X266000Y2784D01*
X266848Y2953D01*
X267567Y3433D01*
X268047Y4152D01*
X268216Y5000D01*
X268047Y5848D01*
X267567Y6567D01*
X266848Y7047D01*
X266000Y7216D01*
D02*
G37*
%LPD*%
D148*
X310000Y205000D02*
D03*
X80000D02*
D03*
D149*
X315000D02*
D03*
X320000D02*
D03*
X325000D02*
D03*
X35000Y15000D02*
D03*
X40000D02*
D03*
X65000Y205000D02*
D03*
X70000D02*
D03*
X75000D02*
D03*
D150*
X366000Y153000D02*
D03*
X374000D02*
D03*
X382000D02*
D03*
X358000D02*
D03*
Y145000D02*
D03*
X366000D02*
D03*
X374000D02*
D03*
X382000D02*
D03*
Y137000D02*
D03*
X374000D02*
D03*
X366000D02*
D03*
X358000D02*
D03*
X7500D02*
D03*
X15500D02*
D03*
X23500D02*
D03*
X31500D02*
D03*
Y145000D02*
D03*
X23500D02*
D03*
X15500D02*
D03*
X7500D02*
D03*
Y153000D02*
D03*
X31500D02*
D03*
X23500D02*
D03*
X15500D02*
D03*
X128500Y27500D02*
D03*
X118000Y72500D02*
D03*
X377000Y87000D02*
D03*
Y80000D02*
D03*
Y123661D02*
D03*
X370000Y90000D02*
D03*
Y95000D02*
D03*
X117500Y24000D02*
D03*
X82000Y6500D02*
D03*
X7500Y80000D02*
D03*
Y75000D02*
D03*
Y70000D02*
D03*
X40000Y62500D02*
D03*
X35000D02*
D03*
X30000D02*
D03*
X25000D02*
D03*
Y57500D02*
D03*
X30000D02*
D03*
X35000D02*
D03*
X40000D02*
D03*
X71000Y89000D02*
D03*
X272500Y74500D02*
D03*
X280547Y125403D02*
D03*
X109721Y124291D02*
D03*
X65500Y135000D02*
D03*
Y140000D02*
D03*
Y119000D02*
D03*
Y124000D02*
D03*
Y129500D02*
D03*
X332000Y123500D02*
D03*
Y118000D02*
D03*
Y113000D02*
D03*
Y134000D02*
D03*
Y129000D02*
D03*
X293000Y57000D02*
D03*
X347000Y73000D02*
D03*
X249500Y72000D02*
D03*
X228500Y85000D02*
D03*
X103000Y172000D02*
D03*
Y166000D02*
D03*
Y160000D02*
D03*
X117000D02*
D03*
Y166000D02*
D03*
Y172000D02*
D03*
X323500Y159000D02*
D03*
X318000D02*
D03*
X311000D02*
D03*
X305500D02*
D03*
X84000D02*
D03*
X78000D02*
D03*
X71500D02*
D03*
X65500D02*
D03*
X304500Y47500D02*
D03*
X137500Y69000D02*
D03*
X188000Y19500D02*
D03*
X209500Y88000D02*
D03*
X197000D02*
D03*
X196500Y52500D02*
D03*
X118500Y63500D02*
D03*
X71000Y84000D02*
D03*
X67500Y81500D02*
D03*
X62500D02*
D03*
X379650Y71740D02*
D03*
Y39260D02*
D03*
X373000Y48000D02*
D03*
X287000Y172000D02*
D03*
X273000D02*
D03*
X287000Y160000D02*
D03*
X273000D02*
D03*
X287000Y166000D02*
D03*
X273000D02*
D03*
X244000Y115000D02*
D03*
X254000D02*
D03*
X249000Y108500D02*
D03*
Y121500D02*
D03*
X244000Y108500D02*
D03*
Y121500D02*
D03*
X254000D02*
D03*
Y108500D02*
D03*
X164000D02*
D03*
Y121500D02*
D03*
X154000D02*
D03*
Y108500D02*
D03*
X159000Y121500D02*
D03*
Y108500D02*
D03*
X164000Y115000D02*
D03*
X154000D02*
D03*
X290000Y4500D02*
D03*
X280000D02*
D03*
X274991D02*
D03*
X185500Y77500D02*
D03*
X152500Y77500D02*
D03*
X185500Y68500D02*
D03*
X152500D02*
D03*
X185500Y86500D02*
D03*
X152500Y86500D02*
D03*
X169000Y86500D02*
D03*
X157000Y82500D02*
D03*
X181000Y68500D02*
D03*
X243000Y21500D02*
D03*
X208500Y9500D02*
D03*
X10000Y110000D02*
D03*
Y102000D02*
D03*
Y88000D02*
D03*
Y92000D02*
D03*
Y96000D02*
D03*
Y106000D02*
D03*
Y117000D02*
D03*
Y121000D02*
D03*
Y125000D02*
D03*
D151*
X15000Y15000D02*
D03*
X375000D02*
D03*
X15000Y205000D02*
D03*
X375000D02*
D03*
M02*
