G04*
G04 #@! TF.GenerationSoftware,Altium Limited,Altium Designer,21.6.4 (81)*
G04*
G04 Layer_Physical_Order=4*
G04 Layer_Color=16711680*
%FSLAX25Y25*%
%MOIN*%
G70*
G04*
G04 #@! TF.SameCoordinates,D21CAB57-D7DD-4798-A039-69392B5906F0*
G04*
G04*
G04 #@! TF.FilePolarity,Positive*
G04*
G01*
G75*
%ADD60C,0.01181*%
%ADD61C,0.01968*%
%ADD62O,0.04095X0.04724*%
%ADD63R,0.04095X0.04724*%
%ADD64R,0.06791X0.06791*%
%ADD65C,0.06791*%
%ADD66C,0.23622*%
%ADD67C,0.02362*%
%ADD68C,0.03347*%
%ADD69C,0.02362*%
G36*
X313076Y206835D02*
X313974Y207093D01*
Y206391D01*
X314397Y206181D01*
Y203819D01*
X314074Y203659D01*
X316778D01*
X316181Y200664D01*
X313819D01*
X313335Y203090D01*
X313076Y203165D01*
X312035Y202650D01*
Y203463D01*
X310794Y203819D01*
Y206181D01*
X312035Y206537D01*
Y207350D01*
X313076Y206835D01*
D02*
G37*
G36*
X237988Y191681D02*
X236819Y190512D01*
X236358Y191307D01*
X237193Y192142D01*
X237988Y191681D01*
D02*
G37*
G36*
X239732Y191091D02*
Y189909D01*
X238843Y189673D01*
Y191327D01*
X239732Y191091D01*
D02*
G37*
G36*
X113181Y190063D02*
X112666Y189312D01*
X111711Y190662D01*
X112513Y191066D01*
X113181Y190063D01*
D02*
G37*
G36*
X140142Y189193D02*
X139307Y188358D01*
X138512Y188819D01*
X139681Y189988D01*
X140142Y189193D01*
D02*
G37*
G36*
X147142Y187193D02*
X146307Y186358D01*
X145512Y186819D01*
X146681Y187988D01*
X147142Y187193D01*
D02*
G37*
G36*
X164484Y177587D02*
Y173453D01*
X161819Y170787D01*
X58150D01*
X53966Y166604D01*
X50000D01*
X46604Y170000D01*
X50000Y173396D01*
X52333D01*
X58150Y179213D01*
X162858D01*
X164484Y177587D01*
D02*
G37*
G36*
X189484Y167587D02*
Y163453D01*
X186819Y160787D01*
X58150D01*
X53966Y156604D01*
X50000D01*
X46604Y160000D01*
X50000Y163396D01*
X52333D01*
X58150Y169213D01*
X187858D01*
X189484Y167587D01*
D02*
G37*
G36*
X164484Y157587D02*
Y153453D01*
X161819Y150787D01*
X58150D01*
X53966Y146604D01*
X50000D01*
X46604Y150000D01*
X50000Y153396D01*
X52333D01*
X58150Y159213D01*
X162858D01*
X164484Y157587D01*
D02*
G37*
G36*
X189484Y147587D02*
Y143453D01*
X186819Y140787D01*
X58150D01*
X53966Y136604D01*
X50000D01*
X46604Y140000D01*
X50000Y143396D01*
X52333D01*
X58150Y149213D01*
X187858D01*
X189484Y147587D01*
D02*
G37*
G36*
X252827Y134844D02*
X251173D01*
X251410Y135731D01*
X252590D01*
X252827Y134844D01*
D02*
G37*
G36*
X248827D02*
X247173D01*
X247410Y135731D01*
X248590D01*
X248827Y134844D01*
D02*
G37*
G36*
X164484Y137587D02*
Y133453D01*
X161819Y130787D01*
X58150D01*
X53966Y126604D01*
X50000D01*
X46604Y130000D01*
X50000Y133396D01*
X52333D01*
X58150Y139213D01*
X162858D01*
X164484Y137587D01*
D02*
G37*
G36*
X275327Y122344D02*
X273673D01*
X273909Y123231D01*
X275091D01*
X275327Y122344D01*
D02*
G37*
G36*
X189484Y127587D02*
Y123453D01*
X186819Y120787D01*
X58150D01*
X53966Y116604D01*
X50000D01*
X46604Y120000D01*
X50000Y123396D01*
X52333D01*
X58150Y129213D01*
X187858D01*
X189484Y127587D01*
D02*
G37*
G36*
X164484Y117587D02*
Y113453D01*
X161819Y110787D01*
X58150D01*
X53966Y106604D01*
X50000D01*
X46604Y110000D01*
X50000Y113396D01*
X52333D01*
X58150Y119213D01*
X162858D01*
X164484Y117587D01*
D02*
G37*
G36*
X189484Y107587D02*
Y103453D01*
X186819Y100787D01*
X58150D01*
X53966Y96604D01*
X50000D01*
X46604Y100000D01*
X50000Y103396D01*
X52333D01*
X58150Y109213D01*
X187858D01*
X189484Y107587D01*
D02*
G37*
G36*
X164484Y97587D02*
Y93453D01*
X161819Y90787D01*
X58150D01*
X53966Y86604D01*
X50000D01*
X46604Y90000D01*
X50000Y93396D01*
X52333D01*
X58150Y99213D01*
X162858D01*
X164484Y97587D01*
D02*
G37*
G36*
X254988Y87181D02*
X253819Y86012D01*
X253358Y86807D01*
X254193Y87642D01*
X254988Y87181D01*
D02*
G37*
G36*
X248156Y85173D02*
X247269Y85409D01*
Y86590D01*
X248156Y86827D01*
Y85173D01*
D02*
G37*
G36*
X189484Y87587D02*
Y83453D01*
X186819Y80787D01*
X58150D01*
X53966Y76604D01*
X50000D01*
X46604Y80000D01*
X50000Y83396D01*
X52333D01*
X58150Y89213D01*
X187858D01*
X189484Y87587D01*
D02*
G37*
G36*
X164484Y77587D02*
Y73453D01*
X161819Y70787D01*
X58150D01*
X53966Y66604D01*
X50000D01*
X46604Y70000D01*
X50000Y73396D01*
X52333D01*
X58150Y79213D01*
X162858D01*
X164484Y77587D01*
D02*
G37*
G36*
X189484Y67587D02*
Y63453D01*
X186819Y60787D01*
X58150D01*
X53966Y56604D01*
X50000D01*
X46604Y60000D01*
X50000Y63396D01*
X52333D01*
X58150Y69213D01*
X187858D01*
X189484Y67587D01*
D02*
G37*
G36*
X164484Y57587D02*
Y53453D01*
X161819Y50787D01*
X58150D01*
X53966Y46604D01*
X50000D01*
Y53396D01*
X52333D01*
X58150Y59213D01*
X162858D01*
X164484Y57587D01*
D02*
G37*
G36*
X135231Y47591D02*
Y46409D01*
X134344Y46173D01*
Y47827D01*
X135231Y47591D01*
D02*
G37*
G36*
X135142Y43307D02*
X134681Y42512D01*
X133512Y43681D01*
X134307Y44142D01*
X135142Y43307D01*
D02*
G37*
D60*
X224000Y164084D02*
X252000Y136084D01*
X221819Y163181D02*
X248000Y137000D01*
Y134000D02*
Y137000D01*
X252000Y134000D02*
Y136084D01*
X224000Y164084D02*
Y175084D01*
X135500Y44500D02*
X212035D01*
X133500Y42500D02*
X135500Y44500D01*
X211000Y47000D02*
X242000Y78000D01*
X133500Y47000D02*
X211000D01*
X145000Y183500D02*
X212500D01*
X138500Y190000D02*
X145000Y183500D01*
X145500Y188000D02*
X147819Y185681D01*
X213403D01*
X111782Y189500D02*
X115282Y193000D01*
X235500D02*
X238000Y190500D01*
X115282Y193000D02*
X235500D01*
X238000Y190500D02*
X247000D01*
X111500Y189500D02*
X111782D01*
X213403Y185681D02*
X224000Y175084D01*
X212500Y183500D02*
X221819Y174181D01*
Y163181D02*
Y174181D01*
X274500Y121500D02*
Y163000D01*
X247000Y190500D02*
X274500Y163000D01*
X245272Y88772D02*
X252228D01*
X255000Y86000D01*
X242000Y85500D02*
X245272Y88772D01*
X245000Y86000D02*
X249000D01*
X244500Y85500D02*
X245000Y86000D01*
X244500Y76964D02*
Y85500D01*
X212035Y44500D02*
X244500Y76964D01*
X242000Y78000D02*
Y85500D01*
D61*
X281000Y47000D02*
X295000D01*
X332000Y84000D01*
Y88000D01*
X334148Y170000D02*
X344500D01*
X332075Y167927D02*
X334148Y170000D01*
X332075Y164075D02*
Y167927D01*
X332000Y154500D02*
Y164000D01*
X332075Y164075D01*
X287500Y126500D02*
X304000D01*
X332000Y154500D01*
X105000Y46500D02*
X112500Y39000D01*
X230000Y28000D02*
X262000D01*
X112500Y39000D02*
X219000D01*
X230000Y28000D01*
X262000D02*
X281000Y47000D01*
X334000Y90000D02*
X344500D01*
X332000Y88000D02*
X334000Y90000D01*
D62*
X80000Y205000D02*
D03*
X75000D02*
D03*
X70000D02*
D03*
X65000D02*
D03*
X60000D02*
D03*
X55000D02*
D03*
X50000D02*
D03*
X45000D02*
D03*
X40000D02*
D03*
X315000D02*
D03*
X320000D02*
D03*
X325000D02*
D03*
X330000D02*
D03*
X335000D02*
D03*
X340000D02*
D03*
X345000D02*
D03*
X350000D02*
D03*
X355000D02*
D03*
Y15000D02*
D03*
X350000D02*
D03*
X345000D02*
D03*
X340000D02*
D03*
X335000D02*
D03*
X330000D02*
D03*
X325000D02*
D03*
X320000D02*
D03*
X315000D02*
D03*
X40000D02*
D03*
X45000D02*
D03*
X50000D02*
D03*
X55000D02*
D03*
X60000D02*
D03*
X65000D02*
D03*
X70000D02*
D03*
X75000D02*
D03*
X80000D02*
D03*
D63*
X35000Y205000D02*
D03*
X310000D02*
D03*
Y15000D02*
D03*
X35000D02*
D03*
D64*
X50000Y50000D02*
D03*
D65*
Y60000D02*
D03*
Y70000D02*
D03*
Y80000D02*
D03*
Y90000D02*
D03*
Y100000D02*
D03*
Y110000D02*
D03*
Y120000D02*
D03*
Y130000D02*
D03*
Y140000D02*
D03*
Y150000D02*
D03*
Y160000D02*
D03*
Y170000D02*
D03*
D66*
X375000Y205000D02*
D03*
X15000D02*
D03*
X375000Y15000D02*
D03*
X15000D02*
D03*
D67*
X230500Y97500D02*
D03*
X248000Y134000D02*
D03*
X310500Y52500D02*
D03*
X352618Y37000D02*
D03*
X342382D02*
D03*
X312382D02*
D03*
X322618D02*
D03*
X332500Y65000D02*
D03*
X355000Y115150D02*
D03*
X290000Y4500D02*
D03*
X264500Y179000D02*
D03*
X160000Y174500D02*
D03*
X145500Y188000D02*
D03*
X230500Y177500D02*
D03*
X138500Y190000D02*
D03*
X344500Y170000D02*
D03*
X332000Y164000D02*
D03*
X287500Y126500D02*
D03*
X238000Y190500D02*
D03*
X274500Y121500D02*
D03*
X111500Y189500D02*
D03*
X133500Y47000D02*
D03*
Y42500D02*
D03*
X255000Y86000D02*
D03*
X249000D02*
D03*
X105000Y46500D02*
D03*
X245500Y32000D02*
D03*
X266000Y54000D02*
D03*
X256000D02*
D03*
X301500Y81500D02*
D03*
X249000Y53500D02*
D03*
X243500D02*
D03*
X281000Y47000D02*
D03*
X298000Y105500D02*
D03*
Y118500D02*
D03*
X300000Y15500D02*
D03*
X290000D02*
D03*
X301000Y161500D02*
D03*
X341500Y76000D02*
D03*
X385500Y50000D02*
D03*
Y40000D02*
D03*
X341500Y156000D02*
D03*
X238000Y111500D02*
D03*
X287500Y121000D02*
D03*
X385000Y130000D02*
D03*
X332000Y84000D02*
D03*
X344500Y90000D02*
D03*
X340500Y55500D02*
D03*
X242500Y108000D02*
D03*
X288500Y138000D02*
D03*
X242500Y121000D02*
D03*
X260000Y54000D02*
D03*
X297000Y170500D02*
D03*
X292500Y177500D02*
D03*
X288500D02*
D03*
X297000Y90500D02*
D03*
X292500Y97500D02*
D03*
X288500D02*
D03*
X260000Y134000D02*
D03*
X252000D02*
D03*
X287500Y116000D02*
D03*
X274000Y178500D02*
D03*
X288500Y134500D02*
D03*
X235500Y174500D02*
D03*
X246000Y179000D02*
D03*
X214000Y78000D02*
D03*
X231000Y58500D02*
D03*
X279500Y98000D02*
D03*
X276000D02*
D03*
X288500Y54500D02*
D03*
Y58000D02*
D03*
X284500Y36000D02*
D03*
Y41000D02*
D03*
X231000Y45500D02*
D03*
X231500Y41000D02*
D03*
Y36000D02*
D03*
X181000Y164500D02*
D03*
Y144500D02*
D03*
X185000Y64500D02*
D03*
X181000D02*
D03*
X214000Y58000D02*
D03*
Y68000D02*
D03*
Y138000D02*
D03*
Y128000D02*
D03*
Y108000D02*
D03*
Y98000D02*
D03*
Y88000D02*
D03*
X181000Y87055D02*
D03*
X185000D02*
D03*
X214500Y168000D02*
D03*
Y158000D02*
D03*
Y148000D02*
D03*
X231000Y138000D02*
D03*
X226000Y125500D02*
D03*
X181000Y105362D02*
D03*
X185000D02*
D03*
Y124500D02*
D03*
X181000D02*
D03*
X235000Y94500D02*
D03*
X156000D02*
D03*
X160000D02*
D03*
X246000Y99000D02*
D03*
X228500Y116000D02*
D03*
Y121000D02*
D03*
X231000Y125500D02*
D03*
X156000Y114500D02*
D03*
X160000D02*
D03*
X332500Y40000D02*
D03*
X324500Y55500D02*
D03*
X354500Y52500D02*
D03*
X340500Y49500D02*
D03*
X324500D02*
D03*
X185000Y164500D02*
D03*
X156000Y154500D02*
D03*
X160000D02*
D03*
X185000Y144500D02*
D03*
X156000Y134500D02*
D03*
X160000D02*
D03*
X156000Y54500D02*
D03*
X160000D02*
D03*
Y74500D02*
D03*
X156000D02*
D03*
D68*
X265500Y59500D02*
D03*
X254500D02*
D03*
Y80500D02*
D03*
X265500D02*
D03*
X270500Y75500D02*
D03*
Y64500D02*
D03*
X249500D02*
D03*
Y75500D02*
D03*
Y144500D02*
D03*
Y155500D02*
D03*
X270500D02*
D03*
Y144500D02*
D03*
X265500Y139500D02*
D03*
X254500D02*
D03*
X265500Y160500D02*
D03*
X254500D02*
D03*
X249500Y150000D02*
D03*
X260000Y139500D02*
D03*
X270500D02*
D03*
Y150000D02*
D03*
Y160500D02*
D03*
X260000D02*
D03*
X249500D02*
D03*
X270500Y70000D02*
D03*
Y59500D02*
D03*
X260000D02*
D03*
X249500D02*
D03*
Y70000D02*
D03*
Y80500D02*
D03*
X260000D02*
D03*
X270500D02*
D03*
D69*
X368090Y37590D02*
Y186910D01*
X359000Y196000D02*
X368090Y186910D01*
X356500Y26000D02*
X368090Y37590D01*
X316384Y196000D02*
X359000D01*
X315000Y197384D02*
Y205000D01*
Y197384D02*
X316384Y196000D01*
X290000Y4500D02*
X294000D01*
X295500Y6000D01*
Y22000D01*
X299500Y26000D01*
X356500D01*
X310000Y205000D02*
X315000D01*
M02*
