G04*
G04 #@! TF.GenerationSoftware,Altium Limited,Altium Designer,21.6.4 (81)*
G04*
G04 Layer_Color=65535*
%FSLAX25Y25*%
%MOIN*%
G70*
G04*
G04 #@! TF.SameCoordinates,D21CAB57-D7DD-4798-A039-69392B5906F0*
G04*
G04*
G04 #@! TF.FilePolarity,Positive*
G04*
G01*
G75*
%ADD10C,0.00984*%
%ADD11C,0.00591*%
%ADD12C,0.00394*%
%ADD13C,0.00787*%
%ADD14C,0.01000*%
G36*
X323736Y124471D02*
Y124297D01*
Y124122D01*
Y123948D01*
Y123774D01*
X323910D01*
Y123599D01*
Y123425D01*
Y123250D01*
Y123076D01*
Y122901D01*
Y122727D01*
X324084D01*
Y122553D01*
Y122378D01*
Y122204D01*
Y122029D01*
Y121855D01*
X324259D01*
Y121680D01*
Y121506D01*
Y121332D01*
X324782D01*
Y121157D01*
X325131D01*
Y120983D01*
X325654D01*
Y120808D01*
X326003D01*
Y120634D01*
X326701D01*
Y120808D01*
X326875D01*
Y120983D01*
X327224D01*
Y121157D01*
X327398D01*
Y121332D01*
X327747D01*
Y121506D01*
X327922D01*
Y121680D01*
X328271D01*
Y121855D01*
X328445D01*
Y122029D01*
X328794D01*
Y122204D01*
X328968D01*
Y122378D01*
X329143D01*
Y122204D01*
X329491D01*
Y122029D01*
X329666D01*
Y121855D01*
X329840D01*
Y121680D01*
X330015D01*
Y121506D01*
X330189D01*
Y121332D01*
X330364D01*
Y121157D01*
X330538D01*
Y120983D01*
X330713D01*
Y120808D01*
X330887D01*
Y120634D01*
X331061D01*
Y120460D01*
X331236D01*
Y120285D01*
Y120111D01*
X331410D01*
Y119936D01*
X331236D01*
Y119762D01*
Y119588D01*
X331061D01*
Y119413D01*
X330887D01*
Y119239D01*
X330713D01*
Y119064D01*
Y118890D01*
X330538D01*
Y118715D01*
X330364D01*
Y118541D01*
Y118367D01*
X330189D01*
Y118192D01*
X330015D01*
Y118018D01*
Y117843D01*
X329840D01*
Y117669D01*
X329666D01*
Y117494D01*
Y117320D01*
Y117146D01*
X329840D01*
Y116971D01*
Y116797D01*
X330015D01*
Y116622D01*
Y116448D01*
Y116274D01*
X330189D01*
Y116099D01*
Y115925D01*
X330364D01*
Y115750D01*
Y115576D01*
X330538D01*
Y115401D01*
Y115227D01*
X330887D01*
Y115053D01*
X331759D01*
Y114878D01*
X332631D01*
Y114704D01*
X333503D01*
Y114529D01*
X333678D01*
Y114355D01*
Y114181D01*
Y114006D01*
Y113832D01*
Y113657D01*
Y113483D01*
Y113309D01*
Y113134D01*
Y112960D01*
Y112785D01*
Y112611D01*
Y112436D01*
Y112262D01*
Y112088D01*
Y111913D01*
Y111739D01*
Y111564D01*
Y111390D01*
X333503D01*
Y111215D01*
X332805D01*
Y111041D01*
X331759D01*
Y110867D01*
X330887D01*
Y110692D01*
X330538D01*
Y110518D01*
Y110343D01*
Y110169D01*
X330364D01*
Y109994D01*
Y109820D01*
X330189D01*
Y109646D01*
Y109471D01*
Y109297D01*
X330015D01*
Y109122D01*
Y108948D01*
X329840D01*
Y108774D01*
Y108599D01*
Y108425D01*
Y108250D01*
Y108076D01*
X330015D01*
Y107902D01*
Y107727D01*
X330189D01*
Y107553D01*
X330364D01*
Y107378D01*
Y107204D01*
X330538D01*
Y107029D01*
X330713D01*
Y106855D01*
Y106681D01*
X330887D01*
Y106506D01*
X331061D01*
Y106332D01*
X331236D01*
Y106157D01*
Y105983D01*
X331410D01*
Y105808D01*
X331236D01*
Y105634D01*
Y105460D01*
X331061D01*
Y105285D01*
X330887D01*
Y105111D01*
X330713D01*
Y104936D01*
X330538D01*
Y104762D01*
X330364D01*
Y104587D01*
X330189D01*
Y104413D01*
X330015D01*
Y104239D01*
X329840D01*
Y104064D01*
X329666D01*
Y103890D01*
X329491D01*
Y103715D01*
X329143D01*
Y103541D01*
X328968D01*
Y103715D01*
X328619D01*
Y103890D01*
X328445D01*
Y104064D01*
X328271D01*
Y104239D01*
X327922D01*
Y104413D01*
X327747D01*
Y104587D01*
X327398D01*
Y104762D01*
X327224D01*
Y104936D01*
X326875D01*
Y105111D01*
X326352D01*
Y104936D01*
X326003D01*
Y104762D01*
X325654D01*
Y104587D01*
X325306D01*
Y104762D01*
Y104936D01*
X325131D01*
Y105111D01*
Y105285D01*
Y105460D01*
X324957D01*
Y105634D01*
Y105808D01*
X324782D01*
Y105983D01*
Y106157D01*
X324608D01*
Y106332D01*
Y106506D01*
Y106681D01*
X324433D01*
Y106855D01*
Y107029D01*
X324259D01*
Y107204D01*
Y107378D01*
Y107553D01*
X324084D01*
Y107727D01*
Y107902D01*
X323910D01*
Y108076D01*
Y108250D01*
X323736D01*
Y108425D01*
Y108599D01*
Y108774D01*
X323561D01*
Y108948D01*
Y109122D01*
X323387D01*
Y109297D01*
Y109471D01*
Y109646D01*
X323213D01*
Y109820D01*
Y109994D01*
X323561D01*
Y110169D01*
X323736D01*
Y110343D01*
X323910D01*
Y110518D01*
X324259D01*
Y110692D01*
X324433D01*
Y110867D01*
Y111041D01*
X324608D01*
Y111215D01*
X324782D01*
Y111390D01*
Y111564D01*
X324957D01*
Y111739D01*
Y111913D01*
X325131D01*
Y112088D01*
Y112262D01*
Y112436D01*
Y112611D01*
Y112785D01*
Y112960D01*
Y113134D01*
Y113309D01*
Y113483D01*
Y113657D01*
Y113832D01*
Y114006D01*
X324957D01*
Y114181D01*
Y114355D01*
X324782D01*
Y114529D01*
Y114704D01*
X324608D01*
Y114878D01*
X324433D01*
Y115053D01*
X324259D01*
Y115227D01*
X324084D01*
Y115401D01*
X323910D01*
Y115576D01*
X323736D01*
Y115750D01*
X323387D01*
Y115925D01*
X322864D01*
Y116099D01*
X321119D01*
Y115925D01*
X320596D01*
Y115750D01*
X320247D01*
Y115576D01*
X320073D01*
Y115401D01*
X319899D01*
Y115227D01*
X319724D01*
Y115053D01*
X319550D01*
Y114878D01*
X319375D01*
Y114704D01*
X319201D01*
Y114529D01*
Y114355D01*
X319026D01*
Y114181D01*
Y114006D01*
Y113832D01*
X318852D01*
Y113657D01*
Y113483D01*
Y113309D01*
Y113134D01*
Y112960D01*
Y112785D01*
Y112611D01*
Y112436D01*
Y112262D01*
Y112088D01*
X319026D01*
Y111913D01*
Y111739D01*
Y111564D01*
X319201D01*
Y111390D01*
Y111215D01*
X319375D01*
Y111041D01*
X319550D01*
Y110867D01*
Y110692D01*
X319899D01*
Y110518D01*
X320073D01*
Y110343D01*
X320247D01*
Y110169D01*
X320422D01*
Y109994D01*
X320771D01*
Y109820D01*
Y109646D01*
Y109471D01*
X320596D01*
Y109297D01*
Y109122D01*
X320422D01*
Y108948D01*
Y108774D01*
Y108599D01*
X320247D01*
Y108425D01*
Y108250D01*
X320073D01*
Y108076D01*
Y107902D01*
X319899D01*
Y107727D01*
Y107553D01*
Y107378D01*
X319724D01*
Y107204D01*
Y107029D01*
X319550D01*
Y106855D01*
Y106681D01*
Y106506D01*
X319375D01*
Y106332D01*
Y106157D01*
X319201D01*
Y105983D01*
Y105808D01*
X319026D01*
Y105634D01*
Y105460D01*
Y105285D01*
X318852D01*
Y105111D01*
Y104936D01*
X318678D01*
Y104762D01*
Y104587D01*
X318329D01*
Y104762D01*
X317980D01*
Y104936D01*
X317806D01*
Y105111D01*
X317108D01*
Y104936D01*
X316759D01*
Y104762D01*
X316584D01*
Y104587D01*
X316410D01*
Y104413D01*
X316061D01*
Y104239D01*
X315887D01*
Y104064D01*
X315538D01*
Y103890D01*
X315364D01*
Y103715D01*
X315015D01*
Y103541D01*
X314840D01*
Y103715D01*
X314666D01*
Y103890D01*
X314492D01*
Y104064D01*
X314317D01*
Y104239D01*
X314143D01*
Y104413D01*
X313968D01*
Y104587D01*
X313794D01*
Y104762D01*
X313619D01*
Y104936D01*
X313445D01*
Y105111D01*
X313271D01*
Y105285D01*
X313096D01*
Y105460D01*
X312922D01*
Y105634D01*
X312747D01*
Y105808D01*
X312573D01*
Y105983D01*
X312747D01*
Y106157D01*
X312922D01*
Y106332D01*
Y106506D01*
X313096D01*
Y106681D01*
X313271D01*
Y106855D01*
Y107029D01*
X313445D01*
Y107204D01*
X313619D01*
Y107378D01*
Y107553D01*
X313794D01*
Y107727D01*
X313968D01*
Y107902D01*
X314143D01*
Y108076D01*
Y108250D01*
X314317D01*
Y108425D01*
Y108599D01*
X314143D01*
Y108774D01*
Y108948D01*
X313968D01*
Y109122D01*
Y109297D01*
Y109471D01*
X313794D01*
Y109646D01*
Y109820D01*
X313619D01*
Y109994D01*
Y110169D01*
Y110343D01*
X313445D01*
Y110518D01*
Y110692D01*
X313096D01*
Y110867D01*
X312224D01*
Y111041D01*
X311352D01*
Y111215D01*
X310480D01*
Y111390D01*
X310306D01*
Y111564D01*
Y111739D01*
Y111913D01*
Y112088D01*
Y112262D01*
Y112436D01*
Y112611D01*
Y112785D01*
Y112960D01*
Y113134D01*
Y113309D01*
Y113483D01*
Y113657D01*
Y113832D01*
Y114006D01*
Y114181D01*
Y114355D01*
Y114529D01*
X310480D01*
Y114704D01*
X311352D01*
Y114878D01*
X312224D01*
Y115053D01*
X313271D01*
Y115227D01*
X313445D01*
Y115401D01*
X313619D01*
Y115576D01*
Y115750D01*
X313794D01*
Y115925D01*
Y116099D01*
Y116274D01*
X313968D01*
Y116448D01*
Y116622D01*
X314143D01*
Y116797D01*
Y116971D01*
Y117146D01*
X314317D01*
Y117320D01*
Y117494D01*
Y117669D01*
X314143D01*
Y117843D01*
X313968D01*
Y118018D01*
Y118192D01*
X313794D01*
Y118367D01*
X313619D01*
Y118541D01*
Y118715D01*
X313445D01*
Y118890D01*
X313271D01*
Y119064D01*
Y119239D01*
X313096D01*
Y119413D01*
X312922D01*
Y119588D01*
Y119762D01*
X312747D01*
Y119936D01*
X312573D01*
Y120111D01*
X312747D01*
Y120285D01*
X312922D01*
Y120460D01*
X313096D01*
Y120634D01*
X313271D01*
Y120808D01*
X313445D01*
Y120983D01*
X313619D01*
Y121157D01*
X313794D01*
Y121332D01*
X313968D01*
Y121506D01*
X314143D01*
Y121680D01*
X314317D01*
Y121855D01*
X314492D01*
Y122029D01*
X314666D01*
Y122204D01*
X314840D01*
Y122378D01*
X315015D01*
Y122204D01*
X315364D01*
Y122029D01*
X315538D01*
Y121855D01*
X315887D01*
Y121680D01*
X316061D01*
Y121506D01*
X316236D01*
Y121332D01*
X316584D01*
Y121157D01*
X316759D01*
Y120983D01*
X317108D01*
Y120808D01*
X317282D01*
Y120634D01*
X317980D01*
Y120808D01*
X318329D01*
Y120983D01*
X318852D01*
Y121157D01*
X319201D01*
Y121332D01*
X319724D01*
Y121506D01*
Y121680D01*
X319899D01*
Y121855D01*
Y122029D01*
Y122204D01*
Y122378D01*
Y122553D01*
X320073D01*
Y122727D01*
Y122901D01*
Y123076D01*
Y123250D01*
Y123425D01*
Y123599D01*
X320247D01*
Y123774D01*
Y123948D01*
Y124122D01*
Y124297D01*
Y124471D01*
X320422D01*
Y124646D01*
X323736D01*
Y124471D01*
D02*
G37*
G36*
X311875Y101099D02*
X312224D01*
Y100925D01*
X312399D01*
Y100750D01*
X312573D01*
Y100576D01*
Y100401D01*
Y100227D01*
Y100053D01*
X312747D01*
Y99878D01*
Y99704D01*
Y99529D01*
Y99355D01*
Y99181D01*
X312573D01*
Y99006D01*
Y98832D01*
Y98657D01*
Y98483D01*
X312399D01*
Y98308D01*
X312224D01*
Y98134D01*
X311875D01*
Y97960D01*
X311178D01*
Y98134D01*
X310829D01*
Y97960D01*
Y97785D01*
Y97611D01*
Y97436D01*
Y97262D01*
Y97088D01*
Y96913D01*
Y96739D01*
Y96564D01*
Y96390D01*
Y96215D01*
Y96041D01*
X311003D01*
Y96215D01*
X311526D01*
Y96390D01*
X311701D01*
Y96215D01*
X312050D01*
Y96041D01*
X312399D01*
Y95867D01*
Y95692D01*
X312573D01*
Y95518D01*
Y95343D01*
Y95169D01*
X312747D01*
Y94994D01*
Y94820D01*
Y94646D01*
Y94471D01*
Y94297D01*
Y94122D01*
Y93948D01*
Y93774D01*
Y93599D01*
Y93425D01*
Y93250D01*
X312573D01*
Y93076D01*
X311875D01*
Y93250D01*
Y93425D01*
Y93599D01*
Y93774D01*
Y93948D01*
Y94122D01*
Y94297D01*
Y94471D01*
Y94646D01*
Y94820D01*
Y94994D01*
Y95169D01*
Y95343D01*
X311701D01*
Y95518D01*
X311003D01*
Y95343D01*
X310829D01*
Y95169D01*
Y94994D01*
Y94820D01*
Y94646D01*
Y94471D01*
Y94297D01*
Y94122D01*
Y93948D01*
Y93774D01*
Y93599D01*
Y93425D01*
Y93250D01*
Y93076D01*
X310131D01*
Y93250D01*
Y93425D01*
Y93599D01*
Y93774D01*
Y93948D01*
Y94122D01*
Y94297D01*
Y94471D01*
Y94646D01*
Y94820D01*
Y94994D01*
Y95169D01*
Y95343D01*
Y95518D01*
Y95692D01*
Y95867D01*
Y96041D01*
Y96215D01*
Y96390D01*
Y96564D01*
Y96739D01*
Y96913D01*
Y97088D01*
Y97262D01*
Y97436D01*
Y97611D01*
Y97785D01*
Y97960D01*
Y98134D01*
Y98308D01*
Y98483D01*
Y98657D01*
Y98832D01*
Y99006D01*
Y99181D01*
Y99355D01*
Y99529D01*
Y99704D01*
Y99878D01*
Y100053D01*
Y100227D01*
Y100401D01*
Y100576D01*
Y100750D01*
Y100925D01*
Y101099D01*
Y101274D01*
X310829D01*
Y101099D01*
X311178D01*
Y101274D01*
X311875D01*
Y101099D01*
D02*
G37*
G36*
X331410D02*
X331759D01*
Y100925D01*
Y100750D01*
X331585D01*
Y100576D01*
X331410D01*
Y100401D01*
X331236D01*
Y100576D01*
X330713D01*
Y100401D01*
X330538D01*
Y100227D01*
X330364D01*
Y100053D01*
Y99878D01*
Y99704D01*
Y99529D01*
Y99355D01*
Y99181D01*
Y99006D01*
Y98832D01*
Y98657D01*
Y98483D01*
Y98308D01*
Y98134D01*
Y97960D01*
X329666D01*
Y98134D01*
Y98308D01*
Y98483D01*
Y98657D01*
Y98832D01*
Y99006D01*
Y99181D01*
Y99355D01*
Y99529D01*
Y99704D01*
Y99878D01*
Y100053D01*
Y100227D01*
Y100401D01*
Y100576D01*
Y100750D01*
Y100925D01*
Y101099D01*
Y101274D01*
X330364D01*
Y101099D01*
Y100925D01*
X330538D01*
Y101099D01*
X330713D01*
Y101274D01*
X331410D01*
Y101099D01*
D02*
G37*
G36*
X317980D02*
X318329D01*
Y100925D01*
X318503D01*
Y100750D01*
Y100576D01*
X318678D01*
Y100401D01*
Y100227D01*
Y100053D01*
Y99878D01*
Y99704D01*
Y99529D01*
Y99355D01*
Y99181D01*
Y99006D01*
Y98832D01*
Y98657D01*
Y98483D01*
Y98308D01*
Y98134D01*
Y97960D01*
X317980D01*
Y98134D01*
Y98308D01*
Y98483D01*
Y98657D01*
Y98832D01*
Y99006D01*
Y99181D01*
Y99355D01*
Y99529D01*
Y99704D01*
Y99878D01*
Y100053D01*
Y100227D01*
X317806D01*
Y100401D01*
X317631D01*
Y100576D01*
X317108D01*
Y100401D01*
X316933D01*
Y100227D01*
Y100053D01*
X316759D01*
Y99878D01*
Y99704D01*
Y99529D01*
Y99355D01*
Y99181D01*
Y99006D01*
Y98832D01*
Y98657D01*
Y98483D01*
Y98308D01*
Y98134D01*
Y97960D01*
X316061D01*
Y98134D01*
Y98308D01*
Y98483D01*
Y98657D01*
Y98832D01*
Y99006D01*
Y99181D01*
Y99355D01*
Y99529D01*
Y99704D01*
Y99878D01*
Y100053D01*
Y100227D01*
Y100401D01*
Y100576D01*
Y100750D01*
Y100925D01*
Y101099D01*
Y101274D01*
X316759D01*
Y101099D01*
Y100925D01*
X316933D01*
Y101099D01*
X317282D01*
Y101274D01*
X317980D01*
Y101099D01*
D02*
G37*
G36*
X322166D02*
X322689D01*
Y100925D01*
X322864D01*
Y100750D01*
Y100576D01*
X322689D01*
Y100401D01*
X322166D01*
Y100576D01*
X321294D01*
Y100401D01*
Y100227D01*
Y100053D01*
X321991D01*
Y99878D01*
X322689D01*
Y99704D01*
X322864D01*
Y99529D01*
X323038D01*
Y99355D01*
Y99181D01*
Y99006D01*
Y98832D01*
Y98657D01*
Y98483D01*
X322864D01*
Y98308D01*
X322689D01*
Y98134D01*
X322340D01*
Y97960D01*
X321119D01*
Y98134D01*
X320771D01*
Y98308D01*
X320596D01*
Y98483D01*
X320422D01*
Y98657D01*
Y98832D01*
X320596D01*
Y99006D01*
X320945D01*
Y98832D01*
X321294D01*
Y98657D01*
X322166D01*
Y98832D01*
X322340D01*
Y99006D01*
Y99181D01*
X321991D01*
Y99355D01*
X320945D01*
Y99529D01*
X320771D01*
Y99704D01*
X320596D01*
Y99878D01*
Y100053D01*
Y100227D01*
Y100401D01*
Y100576D01*
Y100750D01*
X320771D01*
Y100925D01*
X320945D01*
Y101099D01*
X321294D01*
Y101274D01*
X322166D01*
Y101099D01*
D02*
G37*
G36*
X333503D02*
X333852D01*
Y100925D01*
X334201D01*
Y100750D01*
Y100576D01*
Y100401D01*
X333852D01*
Y100227D01*
X333678D01*
Y100401D01*
X333329D01*
Y100576D01*
X332805D01*
Y100401D01*
X332631D01*
Y100227D01*
X332457D01*
Y100053D01*
Y99878D01*
Y99704D01*
Y99529D01*
Y99355D01*
Y99181D01*
Y99006D01*
X332631D01*
Y98832D01*
X332805D01*
Y98657D01*
X333329D01*
Y98832D01*
X333678D01*
Y99006D01*
X333852D01*
Y98832D01*
X334026D01*
Y98657D01*
X334201D01*
Y98483D01*
Y98308D01*
X333852D01*
Y98134D01*
X333678D01*
Y97960D01*
X332631D01*
Y98134D01*
X332282D01*
Y98308D01*
X332108D01*
Y98483D01*
X331933D01*
Y98657D01*
Y98832D01*
X331759D01*
Y99006D01*
Y99181D01*
Y99355D01*
Y99529D01*
Y99704D01*
Y99878D01*
Y100053D01*
Y100227D01*
Y100401D01*
X331933D01*
Y100576D01*
Y100750D01*
X332108D01*
Y100925D01*
X332282D01*
Y101099D01*
X332805D01*
Y101274D01*
X333503D01*
Y101099D01*
D02*
G37*
G36*
X328968D02*
Y100925D01*
Y100750D01*
Y100576D01*
Y100401D01*
Y100227D01*
Y100053D01*
Y99878D01*
Y99704D01*
Y99529D01*
Y99355D01*
Y99181D01*
Y99006D01*
Y98832D01*
Y98657D01*
Y98483D01*
Y98308D01*
Y98134D01*
Y97960D01*
X328271D01*
Y98134D01*
X327922D01*
Y97960D01*
X327224D01*
Y98134D01*
X326875D01*
Y98308D01*
X326701D01*
Y98483D01*
X326526D01*
Y98657D01*
Y98832D01*
Y99006D01*
Y99181D01*
Y99355D01*
Y99529D01*
Y99704D01*
Y99878D01*
Y100053D01*
Y100227D01*
Y100401D01*
Y100576D01*
Y100750D01*
Y100925D01*
Y101099D01*
Y101274D01*
X327224D01*
Y101099D01*
Y100925D01*
Y100750D01*
Y100576D01*
Y100401D01*
Y100227D01*
Y100053D01*
Y99878D01*
Y99704D01*
Y99529D01*
Y99355D01*
Y99181D01*
Y99006D01*
Y98832D01*
X327573D01*
Y98657D01*
X328096D01*
Y98832D01*
X328271D01*
Y99006D01*
Y99181D01*
Y99355D01*
Y99529D01*
Y99704D01*
Y99878D01*
Y100053D01*
Y100227D01*
Y100401D01*
Y100576D01*
Y100750D01*
Y100925D01*
Y101099D01*
Y101274D01*
X328968D01*
Y101099D01*
D02*
G37*
G36*
X336119D02*
X336468D01*
Y100925D01*
X336643D01*
Y100750D01*
X336817D01*
Y100576D01*
X336992D01*
Y100401D01*
Y100227D01*
Y100053D01*
Y99878D01*
Y99704D01*
Y99529D01*
Y99355D01*
X335073D01*
Y99181D01*
Y99006D01*
X335247D01*
Y98832D01*
X335422D01*
Y98657D01*
X336119D01*
Y98832D01*
X336817D01*
Y98657D01*
X336992D01*
Y98483D01*
X336817D01*
Y98308D01*
X336643D01*
Y98134D01*
X336294D01*
Y97960D01*
X335247D01*
Y98134D01*
X334898D01*
Y98308D01*
X334724D01*
Y98483D01*
X334550D01*
Y98657D01*
Y98832D01*
Y99006D01*
X334375D01*
Y99181D01*
Y99355D01*
Y99529D01*
Y99704D01*
Y99878D01*
Y100053D01*
Y100227D01*
X334550D01*
Y100401D01*
Y100576D01*
X334724D01*
Y100750D01*
Y100925D01*
X335073D01*
Y101099D01*
X335247D01*
Y101274D01*
X336119D01*
Y101099D01*
D02*
G37*
G36*
X325131D02*
X325480D01*
Y100925D01*
X325654D01*
Y100750D01*
X325829D01*
Y100576D01*
Y100401D01*
X326003D01*
Y100227D01*
Y100053D01*
Y99878D01*
Y99704D01*
Y99529D01*
Y99355D01*
Y99181D01*
Y99006D01*
Y98832D01*
X325829D01*
Y98657D01*
Y98483D01*
X325654D01*
Y98308D01*
X325480D01*
Y98134D01*
X325131D01*
Y97960D01*
X324259D01*
Y98134D01*
X323910D01*
Y98308D01*
X323736D01*
Y98483D01*
X323561D01*
Y98657D01*
X323387D01*
Y98832D01*
Y99006D01*
Y99181D01*
Y99355D01*
Y99529D01*
Y99704D01*
Y99878D01*
Y100053D01*
Y100227D01*
Y100401D01*
Y100576D01*
X323561D01*
Y100750D01*
X323736D01*
Y100925D01*
X323910D01*
Y101099D01*
X324259D01*
Y101274D01*
X325131D01*
Y101099D01*
D02*
G37*
G36*
X314666D02*
X315015D01*
Y100925D01*
X315364D01*
Y100750D01*
Y100576D01*
X315538D01*
Y100401D01*
Y100227D01*
Y100053D01*
X315712D01*
Y99878D01*
Y99704D01*
Y99529D01*
Y99355D01*
X313794D01*
Y99181D01*
Y99006D01*
Y98832D01*
X313968D01*
Y98657D01*
X314840D01*
Y98832D01*
X315364D01*
Y98657D01*
X315538D01*
Y98483D01*
Y98308D01*
X315364D01*
Y98134D01*
X315015D01*
Y97960D01*
X313968D01*
Y98134D01*
X313619D01*
Y98308D01*
X313445D01*
Y98483D01*
X313271D01*
Y98657D01*
X313096D01*
Y98832D01*
Y99006D01*
Y99181D01*
Y99355D01*
X312922D01*
Y99529D01*
Y99704D01*
Y99878D01*
X313096D01*
Y100053D01*
Y100227D01*
Y100401D01*
Y100576D01*
X313271D01*
Y100750D01*
X313445D01*
Y100925D01*
X313619D01*
Y101099D01*
X313968D01*
Y101274D01*
X314666D01*
Y101099D01*
D02*
G37*
G36*
X308736D02*
X309085D01*
Y100925D01*
X309259D01*
Y100750D01*
X309433D01*
Y100576D01*
Y100401D01*
X309608D01*
Y100227D01*
Y100053D01*
Y99878D01*
Y99704D01*
Y99529D01*
Y99355D01*
Y99181D01*
Y99006D01*
Y98832D01*
X309433D01*
Y98657D01*
Y98483D01*
X309259D01*
Y98308D01*
X309085D01*
Y98134D01*
X308736D01*
Y97960D01*
X307864D01*
Y98134D01*
X307515D01*
Y98308D01*
X307340D01*
Y98483D01*
X307166D01*
Y98657D01*
Y98832D01*
X306992D01*
Y99006D01*
Y99181D01*
Y99355D01*
Y99529D01*
Y99704D01*
Y99878D01*
Y100053D01*
Y100227D01*
Y100401D01*
X307166D01*
Y100576D01*
Y100750D01*
X307340D01*
Y100925D01*
X307515D01*
Y101099D01*
X307864D01*
Y101274D01*
X308736D01*
Y101099D01*
D02*
G37*
G36*
X330887Y96041D02*
X331061D01*
Y95867D01*
X330887D01*
Y95692D01*
X330713D01*
Y95518D01*
X329666D01*
Y95343D01*
Y95169D01*
Y94994D01*
Y94820D01*
Y94646D01*
Y94471D01*
Y94297D01*
Y94122D01*
Y93948D01*
Y93774D01*
Y93599D01*
Y93425D01*
Y93250D01*
X329491D01*
Y93076D01*
X328794D01*
Y93250D01*
Y93425D01*
Y93599D01*
Y93774D01*
Y93948D01*
Y94122D01*
Y94297D01*
Y94471D01*
Y94646D01*
Y94820D01*
Y94994D01*
Y95169D01*
Y95343D01*
Y95518D01*
Y95692D01*
Y95867D01*
Y96041D01*
Y96215D01*
X329666D01*
Y96041D01*
X329840D01*
Y96215D01*
X330887D01*
Y96041D01*
D02*
G37*
G36*
X320945Y97436D02*
Y97262D01*
Y97088D01*
Y96913D01*
Y96739D01*
Y96564D01*
Y96390D01*
Y96215D01*
Y96041D01*
Y95867D01*
Y95692D01*
Y95518D01*
Y95343D01*
Y95169D01*
Y94994D01*
Y94820D01*
Y94646D01*
Y94471D01*
Y94297D01*
Y94122D01*
Y93948D01*
Y93774D01*
Y93599D01*
Y93425D01*
Y93250D01*
Y93076D01*
X320247D01*
Y93250D01*
X319899D01*
Y93076D01*
X318852D01*
Y93250D01*
X318678D01*
Y93425D01*
X318503D01*
Y93599D01*
Y93774D01*
X318329D01*
Y93948D01*
Y94122D01*
Y94297D01*
Y94471D01*
Y94646D01*
Y94820D01*
Y94994D01*
Y95169D01*
Y95343D01*
Y95518D01*
X318503D01*
Y95692D01*
Y95867D01*
X318678D01*
Y96041D01*
X318852D01*
Y96215D01*
X319375D01*
Y96390D01*
X319550D01*
Y96215D01*
X320073D01*
Y96041D01*
X320247D01*
Y96215D01*
Y96390D01*
Y96564D01*
Y96739D01*
Y96913D01*
Y97088D01*
Y97262D01*
Y97436D01*
Y97611D01*
X320945D01*
Y97436D01*
D02*
G37*
G36*
X317806Y96215D02*
X318329D01*
Y96041D01*
Y95867D01*
X318154D01*
Y95692D01*
Y95518D01*
X317108D01*
Y95343D01*
X316933D01*
Y95169D01*
Y94994D01*
Y94820D01*
Y94646D01*
Y94471D01*
Y94297D01*
Y94122D01*
Y93948D01*
Y93774D01*
Y93599D01*
Y93425D01*
Y93250D01*
Y93076D01*
X316236D01*
Y93250D01*
Y93425D01*
Y93599D01*
Y93774D01*
Y93948D01*
Y94122D01*
Y94297D01*
Y94471D01*
Y94646D01*
Y94820D01*
Y94994D01*
Y95169D01*
Y95343D01*
Y95518D01*
Y95692D01*
Y95867D01*
Y96041D01*
Y96215D01*
X316933D01*
Y96041D01*
X317108D01*
Y96215D01*
X317631D01*
Y96390D01*
X317806D01*
Y96215D01*
D02*
G37*
G36*
X325654Y96041D02*
Y95867D01*
X325480D01*
Y95692D01*
Y95518D01*
Y95343D01*
Y95169D01*
X325306D01*
Y94994D01*
Y94820D01*
Y94646D01*
X325131D01*
Y94471D01*
Y94297D01*
Y94122D01*
X324957D01*
Y93948D01*
Y93774D01*
Y93599D01*
X324782D01*
Y93425D01*
Y93250D01*
Y93076D01*
X324084D01*
Y93250D01*
X323910D01*
Y93425D01*
Y93599D01*
Y93774D01*
Y93948D01*
X323736D01*
Y94122D01*
Y94297D01*
Y94471D01*
X323561D01*
Y94646D01*
Y94820D01*
Y94994D01*
X323387D01*
Y94820D01*
Y94646D01*
X323213D01*
Y94471D01*
Y94297D01*
Y94122D01*
X323038D01*
Y93948D01*
Y93774D01*
Y93599D01*
X322864D01*
Y93425D01*
Y93250D01*
Y93076D01*
X322166D01*
Y93250D01*
Y93425D01*
X321991D01*
Y93599D01*
Y93774D01*
Y93948D01*
X321817D01*
Y94122D01*
Y94297D01*
Y94471D01*
X321643D01*
Y94646D01*
Y94820D01*
Y94994D01*
X321468D01*
Y95169D01*
Y95343D01*
Y95518D01*
X321294D01*
Y95692D01*
Y95867D01*
Y96041D01*
Y96215D01*
X321991D01*
Y96041D01*
Y95867D01*
Y95692D01*
X322166D01*
Y95518D01*
Y95343D01*
Y95169D01*
X322340D01*
Y94994D01*
Y94820D01*
Y94646D01*
Y94471D01*
X322689D01*
Y94646D01*
Y94820D01*
Y94994D01*
X322864D01*
Y95169D01*
Y95343D01*
Y95518D01*
X323038D01*
Y95692D01*
Y95867D01*
Y96041D01*
X323213D01*
Y96215D01*
X323736D01*
Y96041D01*
Y95867D01*
X323910D01*
Y95692D01*
Y95518D01*
Y95343D01*
X324084D01*
Y95169D01*
Y94994D01*
Y94820D01*
X324259D01*
Y94646D01*
Y94471D01*
Y94297D01*
X324433D01*
Y94471D01*
Y94646D01*
X324608D01*
Y94820D01*
Y94994D01*
Y95169D01*
Y95343D01*
X324782D01*
Y95518D01*
Y95692D01*
Y95867D01*
Y96041D01*
X324957D01*
Y96215D01*
X325654D01*
Y96041D01*
D02*
G37*
G36*
X332457Y96215D02*
X332980D01*
Y96041D01*
X333154D01*
Y95867D01*
X333329D01*
Y95692D01*
X333503D01*
Y95518D01*
Y95343D01*
X333678D01*
Y95169D01*
Y94994D01*
Y94820D01*
Y94646D01*
Y94471D01*
X333503D01*
Y94297D01*
X331759D01*
Y94122D01*
Y93948D01*
X331933D01*
Y93774D01*
X332805D01*
Y93948D01*
X333329D01*
Y93774D01*
X333503D01*
Y93599D01*
Y93425D01*
X333329D01*
Y93250D01*
X332980D01*
Y93076D01*
X331759D01*
Y93250D01*
X331410D01*
Y93425D01*
X331236D01*
Y93599D01*
Y93774D01*
X331061D01*
Y93948D01*
Y94122D01*
Y94297D01*
Y94471D01*
Y94646D01*
Y94820D01*
Y94994D01*
Y95169D01*
Y95343D01*
Y95518D01*
X331236D01*
Y95692D01*
Y95867D01*
X331410D01*
Y96041D01*
X331759D01*
Y96215D01*
X332282D01*
Y96390D01*
X332457D01*
Y96215D01*
D02*
G37*
G36*
X327050D02*
X327747D01*
Y96041D01*
X327922D01*
Y95867D01*
X328096D01*
Y95692D01*
X328271D01*
Y95518D01*
Y95343D01*
Y95169D01*
Y94994D01*
Y94820D01*
Y94646D01*
Y94471D01*
Y94297D01*
Y94122D01*
Y93948D01*
Y93774D01*
Y93599D01*
Y93425D01*
Y93250D01*
Y93076D01*
X327573D01*
Y93250D01*
X327398D01*
Y93076D01*
X326178D01*
Y93250D01*
X326003D01*
Y93425D01*
X325829D01*
Y93599D01*
X325654D01*
Y93774D01*
Y93948D01*
Y94122D01*
Y94297D01*
Y94471D01*
X325829D01*
Y94646D01*
X326003D01*
Y94820D01*
X326352D01*
Y94994D01*
X327573D01*
Y95169D01*
Y95343D01*
Y95518D01*
X327224D01*
Y95692D01*
X326875D01*
Y95518D01*
X326003D01*
Y95692D01*
X325829D01*
Y95867D01*
X326003D01*
Y96041D01*
X326178D01*
Y96215D01*
X326875D01*
Y96390D01*
X327050D01*
Y96215D01*
D02*
G37*
G36*
X314492D02*
X315189D01*
Y96041D01*
X315364D01*
Y95867D01*
X315538D01*
Y95692D01*
Y95518D01*
Y95343D01*
Y95169D01*
X315712D01*
Y94994D01*
Y94820D01*
Y94646D01*
Y94471D01*
Y94297D01*
Y94122D01*
Y93948D01*
Y93774D01*
Y93599D01*
Y93425D01*
Y93250D01*
X315538D01*
Y93076D01*
X313619D01*
Y93250D01*
X313271D01*
Y93425D01*
X313096D01*
Y93599D01*
Y93774D01*
Y93948D01*
Y94122D01*
Y94297D01*
Y94471D01*
X313271D01*
Y94646D01*
Y94820D01*
X313619D01*
Y94994D01*
X314840D01*
Y95169D01*
Y95343D01*
Y95518D01*
X314492D01*
Y95692D01*
X314143D01*
Y95518D01*
X313794D01*
Y95343D01*
X313619D01*
Y95518D01*
X313445D01*
Y95692D01*
X313271D01*
Y95867D01*
Y96041D01*
X313445D01*
Y96215D01*
X314143D01*
Y96390D01*
X314492D01*
Y96215D01*
D02*
G37*
%LPC*%
G36*
X311526Y100576D02*
X311178D01*
Y100401D01*
X311003D01*
Y100227D01*
X310829D01*
Y100053D01*
Y99878D01*
Y99704D01*
Y99529D01*
Y99355D01*
Y99181D01*
Y99006D01*
X311003D01*
Y98832D01*
X311178D01*
Y98657D01*
X311701D01*
Y98832D01*
X311875D01*
Y99006D01*
Y99181D01*
Y99355D01*
Y99529D01*
Y99704D01*
Y99878D01*
Y100053D01*
Y100227D01*
Y100401D01*
X311526D01*
Y100576D01*
D02*
G37*
G36*
X336119D02*
X335422D01*
Y100401D01*
X335247D01*
Y100227D01*
X335073D01*
Y100053D01*
Y99878D01*
X336294D01*
Y100053D01*
Y100227D01*
X336119D01*
Y100401D01*
Y100576D01*
D02*
G37*
G36*
X324957D02*
X324433D01*
Y100401D01*
X324259D01*
Y100227D01*
X324084D01*
Y100053D01*
Y99878D01*
Y99704D01*
Y99529D01*
Y99355D01*
Y99181D01*
Y99006D01*
X324259D01*
Y98832D01*
X324433D01*
Y98657D01*
X324957D01*
Y98832D01*
X325131D01*
Y99006D01*
X325306D01*
Y99181D01*
Y99355D01*
Y99529D01*
Y99704D01*
Y99878D01*
Y100053D01*
Y100227D01*
X325131D01*
Y100401D01*
X324957D01*
Y100576D01*
D02*
G37*
G36*
X314666D02*
X313968D01*
Y100401D01*
X313794D01*
Y100227D01*
Y100053D01*
Y99878D01*
X314840D01*
Y100053D01*
Y100227D01*
Y100401D01*
X314666D01*
Y100576D01*
D02*
G37*
G36*
X308561D02*
X308038D01*
Y100401D01*
X307864D01*
Y100227D01*
X307689D01*
Y100053D01*
Y99878D01*
Y99704D01*
Y99529D01*
Y99355D01*
Y99181D01*
Y99006D01*
X307864D01*
Y98832D01*
X308038D01*
Y98657D01*
X308561D01*
Y98832D01*
X308736D01*
Y99006D01*
X308910D01*
Y99181D01*
Y99355D01*
Y99529D01*
Y99704D01*
Y99878D01*
Y100053D01*
Y100227D01*
X308736D01*
Y100401D01*
X308561D01*
Y100576D01*
D02*
G37*
G36*
X320073Y95518D02*
X319201D01*
Y95343D01*
Y95169D01*
X319026D01*
Y94994D01*
Y94820D01*
Y94646D01*
Y94471D01*
Y94297D01*
Y94122D01*
X319201D01*
Y93948D01*
Y93774D01*
X320073D01*
Y93948D01*
Y94122D01*
X320247D01*
Y94297D01*
Y94471D01*
Y94646D01*
Y94820D01*
Y94994D01*
Y95169D01*
X320073D01*
Y95343D01*
Y95518D01*
D02*
G37*
G36*
X332457Y95692D02*
X332282D01*
Y95518D01*
X331933D01*
Y95343D01*
X331759D01*
Y95169D01*
Y94994D01*
X332980D01*
Y95169D01*
X332805D01*
Y95343D01*
Y95518D01*
X332457D01*
Y95692D01*
D02*
G37*
G36*
X327573Y94297D02*
X326352D01*
Y94122D01*
Y93948D01*
Y93774D01*
X327398D01*
Y93948D01*
X327573D01*
Y94122D01*
Y94297D01*
D02*
G37*
G36*
X314840D02*
X313794D01*
Y94122D01*
Y93948D01*
Y93774D01*
X314840D01*
Y93948D01*
Y94122D01*
Y94297D01*
D02*
G37*
%LPD*%
D10*
X235984Y87717D02*
X235246Y88143D01*
Y87290D01*
X235984Y87717D01*
Y167717D02*
X235246Y168143D01*
Y167290D01*
X235984Y167717D01*
X195984Y33388D02*
Y27484D01*
X198936D01*
X199920Y28468D01*
Y29452D01*
X198936Y30436D01*
X195984D01*
X198936D01*
X199920Y31420D01*
Y32404D01*
X198936Y33388D01*
X195984D01*
X201888Y27484D02*
Y33388D01*
X203856Y31420D01*
X205824Y33388D01*
Y27484D01*
X211727Y32404D02*
X210743Y33388D01*
X208775D01*
X207791Y32404D01*
Y31420D01*
X208775Y30436D01*
X210743D01*
X211727Y29452D01*
Y28468D01*
X210743Y27484D01*
X208775D01*
X207791Y28468D01*
X152984Y27484D02*
Y33388D01*
X155936D01*
X156920Y32404D01*
Y30436D01*
X155936Y29452D01*
X152984D01*
X154952D02*
X156920Y27484D01*
X162824Y31420D02*
X159872D01*
X158888Y30436D01*
Y28468D01*
X159872Y27484D01*
X162824D01*
X164791D02*
Y33388D01*
X166759Y31420D01*
X168727Y33388D01*
Y27484D01*
X170695D02*
Y33388D01*
X173647D01*
X174631Y32404D01*
Y30436D01*
X173647Y29452D01*
X170695D01*
X176599Y27484D02*
Y33388D01*
X179550D01*
X180534Y32404D01*
Y30436D01*
X179550Y29452D01*
X176599D01*
X182502Y33388D02*
X186438D01*
X184470D01*
Y27484D01*
D11*
X188000Y33500D02*
X187561Y34561D01*
X186500Y35000D01*
X189500Y33500D02*
X189353Y34427D01*
X188927Y35263D01*
X188263Y35927D01*
X187427Y36353D01*
X186500Y36500D01*
X191000Y33500D02*
X190887Y34501D01*
X190554Y35452D01*
X190018Y36306D01*
X189306Y37018D01*
X188452Y37554D01*
X187501Y37887D01*
X186500Y38000D01*
X192500Y33500D02*
X192409Y34542D01*
X192138Y35552D01*
X191696Y36500D01*
X191096Y37357D01*
X190357Y38096D01*
X189500Y38696D01*
X188552Y39138D01*
X187542Y39409D01*
X186500Y39500D01*
X159090Y23133D02*
X161452D01*
X160271D01*
Y19590D01*
X162633Y23133D02*
Y19590D01*
Y21362D01*
X163223Y21952D01*
X164404D01*
X164994Y21362D01*
Y19590D01*
X166765D02*
X167946D01*
X168536Y20181D01*
Y21362D01*
X167946Y21952D01*
X166765D01*
X166175Y21362D01*
Y20181D01*
X166765Y19590D01*
X169717D02*
Y21952D01*
X170307D01*
X170898Y21362D01*
Y19590D01*
Y21362D01*
X171488Y21952D01*
X172079Y21362D01*
Y19590D01*
X173849Y21952D02*
X175030D01*
X175621Y21362D01*
Y19590D01*
X173849D01*
X173259Y20181D01*
X173849Y20771D01*
X175621D01*
X176801Y19590D02*
X178572D01*
X179163Y20181D01*
X178572Y20771D01*
X177392D01*
X176801Y21362D01*
X177392Y21952D01*
X179163D01*
X183886Y23133D02*
Y19590D01*
Y21362D01*
X186247D01*
Y23133D01*
Y19590D01*
X188018D02*
X189199D01*
X189789Y20181D01*
Y21362D01*
X189199Y21952D01*
X188018D01*
X187428Y21362D01*
Y20181D01*
X188018Y19590D01*
X191560D02*
Y22542D01*
Y21362D01*
X190970D01*
X192151D01*
X191560D01*
Y22542D01*
X192151Y23133D01*
X193922Y19590D02*
Y21952D01*
X194512D01*
X195103Y21362D01*
Y19590D01*
Y21362D01*
X195693Y21952D01*
X196283Y21362D01*
Y19590D01*
X198054Y21952D02*
X199235D01*
X199825Y21362D01*
Y19590D01*
X198054D01*
X197464Y20181D01*
X198054Y20771D01*
X199825D01*
X201006Y19590D02*
Y21952D01*
X202777D01*
X203367Y21362D01*
Y19590D01*
X204548D02*
Y21952D01*
X206319D01*
X206910Y21362D01*
Y19590D01*
D12*
X342728Y48000D02*
X343122D01*
X342728D01*
X321878Y57000D02*
X322272D01*
X321878D01*
D13*
X317500Y31291D02*
Y42709D01*
X319500Y30500D02*
X325406D01*
X347500Y31291D02*
Y42709D01*
X349500Y30500D02*
X355405D01*
X82953Y198996D02*
Y201063D01*
Y208937D02*
Y211004D01*
X32047Y198996D02*
Y201063D01*
Y208937D02*
Y211004D01*
X82953D01*
X32047Y198996D02*
X82953D01*
X307047D02*
X357953D01*
X307047Y211004D02*
X357953D01*
X307047Y208937D02*
Y211004D01*
Y198996D02*
Y201063D01*
X357953Y208937D02*
Y211004D01*
Y198996D02*
Y201063D01*
Y8996D02*
Y11063D01*
Y18937D02*
Y21004D01*
X307047Y8996D02*
Y11063D01*
Y18937D02*
Y21004D01*
X357953D01*
X307047Y8996D02*
X357953D01*
X32047D02*
X82953D01*
X32047Y21004D02*
X82953D01*
X32047Y18937D02*
Y21004D01*
Y8996D02*
Y11063D01*
X82953Y18937D02*
Y21004D01*
Y8996D02*
Y11063D01*
X229319Y171000D02*
X231681D01*
X331319Y46350D02*
X333681D01*
X331319Y58650D02*
X333681D01*
X208000Y136819D02*
Y139181D01*
Y146819D02*
Y149181D01*
X143291Y119409D02*
Y120591D01*
X154709D01*
Y119409D02*
Y120591D01*
X143291Y119409D02*
X154709D01*
X142957Y113701D02*
Y118032D01*
X96000Y114291D02*
Y125709D01*
X126500Y164291D02*
Y175709D01*
X58819Y55000D02*
X61181D01*
X191059Y166555D02*
Y176543D01*
X185941Y166555D02*
Y173445D01*
X166059Y156555D02*
Y166543D01*
X160941Y156555D02*
Y163445D01*
X191059Y146555D02*
Y156543D01*
X185941Y146555D02*
Y153445D01*
X166059Y136555D02*
Y146543D01*
X160941Y136555D02*
Y143445D01*
X191059Y126555D02*
Y136543D01*
X185941Y126555D02*
Y133445D01*
X166059Y116555D02*
Y126543D01*
X160941Y116555D02*
Y123445D01*
X191059Y106555D02*
Y116543D01*
X185941Y106555D02*
Y113445D01*
X166059Y96555D02*
Y106543D01*
X160941Y96555D02*
Y103445D01*
X191059Y86555D02*
Y96543D01*
X185941Y86555D02*
Y93445D01*
X166059Y76555D02*
Y86543D01*
X160941Y76555D02*
Y83445D01*
X191059Y66555D02*
Y76543D01*
X185941Y66555D02*
Y73445D01*
X166059Y56555D02*
Y66543D01*
X160941Y56555D02*
Y63445D01*
X167957Y163701D02*
Y168032D01*
X168291Y169409D02*
X179709D01*
Y170591D01*
X168291D02*
X179709D01*
X168291Y169409D02*
Y170591D01*
X72606Y158583D02*
Y169409D01*
X79394Y158583D02*
Y172480D01*
X58819Y165000D02*
X61181D01*
X96000Y154291D02*
Y165709D01*
X142957Y153701D02*
Y158031D01*
X143291Y159409D02*
X154709D01*
Y160591D01*
X143291D02*
X154709D01*
X143291Y159409D02*
Y160591D01*
X63606Y148583D02*
Y159409D01*
X70394Y148583D02*
Y162480D01*
X58819Y155000D02*
X61181D01*
X126500Y144291D02*
Y155709D01*
X167957Y143701D02*
Y148031D01*
X168291Y149409D02*
X179709D01*
Y150591D01*
X168291D02*
X179709D01*
X168291Y149409D02*
Y150591D01*
X72606Y138583D02*
Y149409D01*
X79394Y138583D02*
Y152480D01*
X58819Y145000D02*
X61181D01*
X96000Y134291D02*
Y145709D01*
X142957Y133701D02*
Y138031D01*
X143291Y139409D02*
X154709D01*
Y140591D01*
X143291D02*
X154709D01*
X143291Y139409D02*
Y140591D01*
X63606Y128583D02*
Y139409D01*
X70394Y128583D02*
Y142480D01*
X58819Y135000D02*
X61181D01*
X126500Y124291D02*
Y135709D01*
X167957Y123701D02*
Y128032D01*
X168291Y129409D02*
X179709D01*
Y130591D01*
X168291D02*
X179709D01*
X168291Y129409D02*
Y130591D01*
X72606Y118583D02*
Y129409D01*
X79394Y118583D02*
Y132480D01*
X58819Y125000D02*
X61181D01*
X63606Y108583D02*
Y119409D01*
X70394Y108583D02*
Y122480D01*
X58819Y115000D02*
X61181D01*
X126500Y104291D02*
Y115709D01*
X167957Y103701D02*
Y108031D01*
X168291Y109409D02*
X179709D01*
Y110591D01*
X168291D02*
X179709D01*
X168291Y109409D02*
Y110591D01*
X72606Y98587D02*
Y109413D01*
X79394Y98587D02*
Y112484D01*
X58819Y105000D02*
X61181D01*
X96000Y94291D02*
Y105709D01*
X142957Y93701D02*
Y98032D01*
X143291Y99410D02*
X154709D01*
Y100591D01*
X143291D02*
X154709D01*
X143291Y99410D02*
Y100591D01*
X63606Y88583D02*
Y99410D01*
X70394Y88583D02*
Y102480D01*
X58819Y95000D02*
X61181D01*
X126500Y84291D02*
Y95709D01*
X167957Y83701D02*
Y88032D01*
X168291Y89410D02*
X179709D01*
Y90591D01*
X168291D02*
X179709D01*
X168291Y89410D02*
Y90591D01*
X72606Y78583D02*
Y89410D01*
X79394Y78583D02*
Y92480D01*
X58819Y85000D02*
X61181D01*
X96000Y74291D02*
Y85709D01*
X142957Y73701D02*
Y78031D01*
X143291Y79409D02*
X154709D01*
Y80590D01*
X143291D02*
X154709D01*
X143291Y79409D02*
Y80590D01*
X63606Y68583D02*
Y79409D01*
X70394Y68583D02*
Y82480D01*
X58819Y75000D02*
X61181D01*
X126500Y64291D02*
Y75709D01*
X167957Y63701D02*
Y68032D01*
X168291Y69410D02*
X179709D01*
Y70591D01*
X168291D02*
X179709D01*
X168291Y69410D02*
Y70591D01*
X72606Y58583D02*
Y69410D01*
X79394Y58583D02*
Y72480D01*
X58819Y65000D02*
X61181D01*
X96000Y54291D02*
Y65709D01*
X142957Y53701D02*
Y58031D01*
X143291Y59409D02*
X154709D01*
Y60590D01*
X143291D02*
X154709D01*
X143291Y59409D02*
Y60590D01*
X63606Y48583D02*
Y59409D01*
X70394Y48583D02*
Y62480D01*
X296819Y112000D02*
X299181D01*
X343701Y166043D02*
X348031D01*
X349410Y154291D02*
Y165709D01*
Y154291D02*
X350590D01*
Y165709D01*
X349410D02*
X350590D01*
X238500Y177819D02*
Y180181D01*
X246000Y189319D02*
Y191681D01*
X114500Y182819D02*
Y185181D01*
X208000Y166819D02*
Y169181D01*
X246000Y183819D02*
Y186181D01*
X121000Y188319D02*
Y190681D01*
X208000Y156819D02*
Y159181D01*
Y126819D02*
Y129181D01*
X281000Y119819D02*
Y122181D01*
Y114819D02*
Y117181D01*
X241319Y114000D02*
X243681D01*
X295819Y164500D02*
X298181D01*
X235000Y114819D02*
Y117181D01*
Y119819D02*
Y122181D01*
X229819Y131500D02*
X232181D01*
X224819D02*
X227181D01*
X343701Y86043D02*
X348031D01*
X349410Y74291D02*
Y85709D01*
Y74291D02*
X350590D01*
Y85709D01*
X349410D02*
X350590D01*
X238000Y97819D02*
Y100181D01*
X229319Y91000D02*
X231681D01*
X108000Y39819D02*
Y42181D01*
X266500Y24819D02*
Y27181D01*
X208000Y106819D02*
Y109181D01*
X114000Y45319D02*
Y47681D01*
X265500Y30819D02*
Y33181D01*
X208000Y96819D02*
Y99181D01*
Y86819D02*
Y89181D01*
Y76819D02*
Y79181D01*
Y66819D02*
Y69181D01*
X278000Y39819D02*
Y42181D01*
Y34819D02*
Y37181D01*
X295819Y84500D02*
X298181D01*
X244319Y38500D02*
X246681D01*
X238000Y34819D02*
Y37181D01*
Y39819D02*
Y42181D01*
X229819Y52000D02*
X232181D01*
X208000Y56819D02*
Y59181D01*
D14*
X283000Y10000D02*
X286000D01*
X375000Y137500D02*
X377500Y135000D01*
X375000Y57500D02*
X377500Y55000D01*
X372500Y80000D02*
X375000D01*
X370000Y82500D02*
X372500Y80000D01*
X370000Y82500D02*
Y87500D01*
X372500Y160000D02*
X375000D01*
X370000Y162500D02*
X372500Y160000D01*
X370000Y162500D02*
Y167500D01*
X383000Y154000D02*
Y154200D01*
Y74000D02*
Y74200D01*
X350677Y103563D02*
X349844Y104396D01*
X348178D01*
X347345Y103563D01*
Y100231D01*
X348178Y99398D01*
X349844D01*
X350677Y100231D01*
X354843Y99398D02*
X353177D01*
X352344Y100231D01*
Y101897D01*
X353177Y102730D01*
X354843D01*
X355676Y101897D01*
Y101064D01*
X352344D01*
X357342Y99398D02*
X359008D01*
X358175D01*
Y104396D01*
X357342D01*
X361507Y99398D02*
X363173D01*
X362340D01*
Y104396D01*
X361507D01*
X370671Y103563D02*
X371504Y104396D01*
X373170D01*
X374003Y103563D01*
Y100231D01*
X373170Y99398D01*
X371504D01*
X370671Y100231D01*
Y103563D01*
X375669Y101897D02*
X379002D01*
X384000Y104396D02*
X382334Y103563D01*
X380668Y101897D01*
Y100231D01*
X381501Y99398D01*
X383167D01*
X384000Y100231D01*
Y101064D01*
X383167Y101897D01*
X380668D01*
X360674Y95165D02*
X359841Y95998D01*
X358175D01*
X357342Y95165D01*
Y94332D01*
X358175Y93499D01*
X359841D01*
X360674Y92666D01*
Y91833D01*
X359841Y91000D01*
X358175D01*
X357342Y91833D01*
X363173Y95165D02*
Y94332D01*
X362340D01*
X364006D01*
X363173D01*
Y91833D01*
X364006Y91000D01*
X367339Y94332D02*
X369005D01*
X369838Y93499D01*
Y91000D01*
X367339D01*
X366506Y91833D01*
X367339Y92666D01*
X369838D01*
X372337Y95165D02*
Y94332D01*
X371504D01*
X373170D01*
X372337D01*
Y91833D01*
X373170Y91000D01*
X375669Y94332D02*
Y91833D01*
X376502Y91000D01*
X379002D01*
Y94332D01*
X380668Y91000D02*
X383167D01*
X384000Y91833D01*
X383167Y92666D01*
X381501D01*
X380668Y93499D01*
X381501Y94332D01*
X384000D01*
X238347Y19563D02*
X240013D01*
X239180D01*
Y14564D01*
X238347D01*
X240013D01*
X245011Y19563D02*
X243345D01*
X242512Y18730D01*
Y15397D01*
X243345Y14564D01*
X245011D01*
X245844Y15397D01*
Y18730D01*
X245011Y19563D01*
X247511Y17063D02*
X250843D01*
X255841Y18730D02*
X255008Y19563D01*
X253342D01*
X252509Y18730D01*
Y17896D01*
X253342Y17063D01*
X255008D01*
X255841Y16230D01*
Y15397D01*
X255008Y14564D01*
X253342D01*
X252509Y15397D01*
X257507Y17896D02*
Y15397D01*
X258340Y14564D01*
X260840D01*
Y17896D01*
X262506Y12898D02*
Y17896D01*
X265005D01*
X265838Y17063D01*
Y15397D01*
X265005Y14564D01*
X262506D01*
X267504Y12898D02*
Y17896D01*
X270003D01*
X270836Y17063D01*
Y15397D01*
X270003Y14564D01*
X267504D01*
X272502D02*
X274169D01*
X273336D01*
Y19563D01*
X272502D01*
X276668Y17896D02*
Y15397D01*
X277501Y14564D01*
X280000D01*
Y13731D01*
X279167Y12898D01*
X278334D01*
X280000Y14564D02*
Y17896D01*
X242512Y8665D02*
X241679Y9498D01*
X240013D01*
X239180Y8665D01*
Y7832D01*
X240013Y6999D01*
X241679D01*
X242512Y6166D01*
Y5333D01*
X241679Y4500D01*
X240013D01*
X239180Y5333D01*
X246677Y4500D02*
X245011D01*
X244178Y5333D01*
Y6999D01*
X245011Y7832D01*
X246677D01*
X247511Y6999D01*
Y6166D01*
X244178D01*
X249177Y4500D02*
X250843D01*
X250010D01*
Y9498D01*
X249177D01*
X255841Y4500D02*
X254175D01*
X253342Y5333D01*
Y6999D01*
X254175Y7832D01*
X255841D01*
X256674Y6999D01*
Y6166D01*
X253342D01*
X261673Y7832D02*
X259173D01*
X258340Y6999D01*
Y5333D01*
X259173Y4500D01*
X261673D01*
X264172Y8665D02*
Y7832D01*
X263339D01*
X265005D01*
X264172D01*
Y5333D01*
X265005Y4500D01*
X267504D02*
X269170D01*
X268337D01*
Y7832D01*
X267504D01*
X272502Y4500D02*
X274169D01*
X275002Y5333D01*
Y6999D01*
X274169Y7832D01*
X272502D01*
X271669Y6999D01*
Y5333D01*
X272502Y4500D01*
X276668D02*
Y7832D01*
X279167D01*
X280000Y6999D01*
Y4500D01*
X287501Y21668D02*
Y18336D01*
X292499D01*
Y21668D01*
X290000Y18336D02*
Y20002D01*
X287501Y23334D02*
X292499Y26666D01*
X287501D02*
X292499Y23334D01*
X287501Y28332D02*
Y31664D01*
Y29998D01*
X292499D01*
X346512Y183563D02*
X345679Y184396D01*
X344013D01*
X343180Y183563D01*
Y180231D01*
X344013Y179398D01*
X345679D01*
X346512Y180231D01*
X350677Y179398D02*
X349011D01*
X348178Y180231D01*
Y181897D01*
X349011Y182730D01*
X350677D01*
X351511Y181897D01*
Y181064D01*
X348178D01*
X353177Y179398D02*
X354843D01*
X354010D01*
Y184396D01*
X353177D01*
X357342Y179398D02*
X359008D01*
X358175D01*
Y184396D01*
X357342D01*
X369838D02*
X368172Y183563D01*
X366506Y181897D01*
Y180231D01*
X367339Y179398D01*
X369005D01*
X369838Y180231D01*
Y181064D01*
X369005Y181897D01*
X366506D01*
X371504D02*
X374836D01*
X376502Y179398D02*
X378169D01*
X377336D01*
Y184396D01*
X376502Y183563D01*
X384000Y179398D02*
X380668D01*
X384000Y182730D01*
Y183563D01*
X383167Y184396D01*
X381501D01*
X380668Y183563D01*
X360674Y175165D02*
X359841Y175998D01*
X358175D01*
X357342Y175165D01*
Y174332D01*
X358175Y173499D01*
X359841D01*
X360674Y172666D01*
Y171833D01*
X359841Y171000D01*
X358175D01*
X357342Y171833D01*
X363173Y175165D02*
Y174332D01*
X362340D01*
X364006D01*
X363173D01*
Y171833D01*
X364006Y171000D01*
X367339Y174332D02*
X369005D01*
X369838Y173499D01*
Y171000D01*
X367339D01*
X366506Y171833D01*
X367339Y172666D01*
X369838D01*
X372337Y175165D02*
Y174332D01*
X371504D01*
X373170D01*
X372337D01*
Y171833D01*
X373170Y171000D01*
X375669Y174332D02*
Y171833D01*
X376502Y171000D01*
X379002D01*
Y174332D01*
X380668Y171000D02*
X383167D01*
X384000Y171833D01*
X383167Y172666D01*
X381501D01*
X380668Y173499D01*
X381501Y174332D01*
X384000D01*
X297501Y18752D02*
Y20418D01*
Y19585D01*
X302499D01*
Y18752D01*
Y20418D01*
Y22917D02*
X297501D01*
X302499Y26250D01*
X297501D01*
Y27916D02*
Y31248D01*
Y29582D01*
X302499D01*
X341014Y146998D02*
Y141000D01*
Y143999D01*
X345013D01*
Y146998D01*
Y141000D01*
X347012Y143999D02*
X351011D01*
X357009Y145998D02*
X356009Y146998D01*
X354010D01*
X353010Y145998D01*
Y144999D01*
X354010Y143999D01*
X356009D01*
X357009Y142999D01*
Y142000D01*
X356009Y141000D01*
X354010D01*
X353010Y142000D01*
X362007Y141000D02*
X360008D01*
X359008Y142000D01*
Y143999D01*
X360008Y144999D01*
X362007D01*
X363007Y143999D01*
Y142999D01*
X359008D01*
X365006Y141000D02*
X367005D01*
X366006D01*
Y146998D01*
X365006D01*
X373004Y141000D02*
X371004D01*
X370005Y142000D01*
Y143999D01*
X371004Y144999D01*
X373004D01*
X374003Y143999D01*
Y142999D01*
X370005D01*
X380001Y144999D02*
X377002D01*
X376003Y143999D01*
Y142000D01*
X377002Y141000D01*
X380001D01*
X383000Y145998D02*
Y144999D01*
X382001D01*
X384000D01*
X383000D01*
Y142000D01*
X384000Y141000D01*
X371999Y131999D02*
X371000Y132999D01*
X369000D01*
X368001Y131999D01*
Y131000D01*
X369000Y130000D01*
X371000D01*
X371999Y129000D01*
Y128001D01*
X371000Y127001D01*
X369000D01*
X368001Y128001D01*
X371999Y51999D02*
X371000Y52999D01*
X369000D01*
X368001Y51999D01*
Y51000D01*
X369000Y50000D01*
X371000D01*
X371999Y49000D01*
Y48001D01*
X371000Y47001D01*
X369000D01*
X368001Y48001D01*
Y42999D02*
Y37001D01*
Y40000D01*
X371999D01*
Y42999D01*
Y37001D01*
X368001Y122999D02*
Y117001D01*
Y120000D01*
X371999D01*
Y122999D01*
Y117001D01*
X341014Y66998D02*
Y61000D01*
Y63999D01*
X345013D01*
Y66998D01*
Y61000D01*
X347012Y63999D02*
X351011D01*
X357009Y65998D02*
X356009Y66998D01*
X354010D01*
X353010Y65998D01*
Y64999D01*
X354010Y63999D01*
X356009D01*
X357009Y62999D01*
Y62000D01*
X356009Y61000D01*
X354010D01*
X353010Y62000D01*
X362007Y61000D02*
X360008D01*
X359008Y62000D01*
Y63999D01*
X360008Y64999D01*
X362007D01*
X363007Y63999D01*
Y62999D01*
X359008D01*
X365006Y61000D02*
X367005D01*
X366006D01*
Y66998D01*
X365006D01*
X373004Y61000D02*
X371004D01*
X370005Y62000D01*
Y63999D01*
X371004Y64999D01*
X373004D01*
X374003Y63999D01*
Y62999D01*
X370005D01*
X380001Y64999D02*
X377002D01*
X376003Y63999D01*
Y62000D01*
X377002Y61000D01*
X380001D01*
X383000Y65998D02*
Y64999D01*
X382001D01*
X384000D01*
X383000D01*
Y62000D01*
X384000Y61000D01*
M02*
