G04*
G04 #@! TF.GenerationSoftware,Altium Limited,Altium Designer,21.6.4 (81)*
G04*
G04 Layer_Physical_Order=2*
G04 Layer_Color=36540*
%FSLAX25Y25*%
%MOIN*%
G70*
G04*
G04 #@! TF.SameCoordinates,D21CAB57-D7DD-4798-A039-69392B5906F0*
G04*
G04*
G04 #@! TF.FilePolarity,Positive*
G04*
G01*
G75*
%ADD62O,0.04095X0.04724*%
%ADD63R,0.04095X0.04724*%
%ADD64R,0.06791X0.06791*%
%ADD65C,0.06791*%
%ADD66C,0.23622*%
%ADD67C,0.02362*%
%ADD68C,0.03347*%
G36*
X377619Y218165D02*
X379315Y217711D01*
X380937Y217039D01*
X382457Y216161D01*
X383851Y215092D01*
X385092Y213850D01*
X386161Y212457D01*
X387039Y210937D01*
X387711Y209315D01*
X388165Y207619D01*
X388394Y205878D01*
Y205000D01*
Y15000D01*
Y14122D01*
X388165Y12381D01*
X387711Y10685D01*
X387039Y9063D01*
X386161Y7542D01*
X385092Y6149D01*
X383851Y4908D01*
X382457Y3839D01*
X380937Y2961D01*
X379315Y2289D01*
X377619Y1835D01*
X375878Y1605D01*
X14122D01*
X12381Y1835D01*
X10685Y2289D01*
X9063Y2961D01*
X7542Y3839D01*
X6149Y4908D01*
X4908Y6149D01*
X3839Y7542D01*
X2961Y9063D01*
X2289Y10685D01*
X1835Y12381D01*
X1606Y14122D01*
Y15000D01*
X1606Y30894D01*
X25000D01*
X25039Y30902D01*
X25079Y30896D01*
X25814Y30932D01*
X25929Y30961D01*
X26048D01*
X27490Y31248D01*
X27637Y31309D01*
X27792Y31340D01*
X29150Y31902D01*
X29281Y31990D01*
X29427Y32051D01*
X30650Y32867D01*
X30762Y32979D01*
X30893Y33067D01*
X31933Y34107D01*
X32021Y34238D01*
X32133Y34350D01*
X32949Y35572D01*
X33010Y35719D01*
X33098Y35850D01*
X33660Y37208D01*
X33691Y37363D01*
X33752Y37510D01*
X34039Y38952D01*
Y39071D01*
X34067Y39186D01*
X34104Y39921D01*
X34098Y39961D01*
X34106Y40000D01*
X34106Y180000D01*
X34098Y180039D01*
X34104Y180079D01*
X34067Y180814D01*
X34039Y180929D01*
Y181048D01*
X33752Y182490D01*
X33691Y182636D01*
X33660Y182792D01*
X33098Y184150D01*
X33010Y184281D01*
X32949Y184427D01*
X32133Y185650D01*
X32021Y185762D01*
X31933Y185893D01*
X30893Y186933D01*
X30762Y187021D01*
X30650Y187133D01*
X29427Y187949D01*
X29281Y188010D01*
X29150Y188098D01*
X27792Y188660D01*
X27637Y188691D01*
X27490Y188752D01*
X26048Y189039D01*
X25929D01*
X25814Y189067D01*
X25079Y189104D01*
X25039Y189098D01*
X25000Y189106D01*
X1606Y189106D01*
Y205000D01*
Y205878D01*
X1835Y207619D01*
X2289Y209315D01*
X2961Y210937D01*
X3839Y212457D01*
X4908Y213850D01*
X6149Y215092D01*
X7542Y216161D01*
X9063Y217039D01*
X10685Y217711D01*
X12381Y218165D01*
X14122Y218394D01*
X15000D01*
X125000Y218394D01*
X265000Y218394D01*
X375878D01*
X377619Y218165D01*
D02*
G37*
%LPC*%
G36*
X315000Y208174D02*
X314260Y208077D01*
X313570Y207791D01*
X313335Y207610D01*
X312835Y207857D01*
Y208150D01*
X307165D01*
Y201850D01*
X312835D01*
Y202143D01*
X313335Y202390D01*
X313570Y202209D01*
X314260Y201923D01*
X315000Y201826D01*
X315740Y201923D01*
X316430Y202209D01*
X317022Y202663D01*
X317441Y203210D01*
X317658Y203254D01*
X318015Y203251D01*
X318236Y202921D01*
X319045Y202380D01*
X319800Y202230D01*
Y205000D01*
Y207770D01*
X319045Y207620D01*
X318236Y207079D01*
X318015Y206749D01*
X317658Y206746D01*
X317441Y206790D01*
X317022Y207337D01*
X316430Y207791D01*
X315740Y208077D01*
X315000Y208174D01*
D02*
G37*
G36*
X39800Y207770D02*
X39045Y207620D01*
X38236Y207079D01*
X37947Y206648D01*
X37447Y206799D01*
Y207762D01*
X35200D01*
Y205000D01*
Y202238D01*
X37447D01*
Y203201D01*
X37947Y203352D01*
X38236Y202921D01*
X39045Y202380D01*
X39800Y202230D01*
Y205000D01*
Y207770D01*
D02*
G37*
G36*
X324800D02*
X324045Y207620D01*
X323236Y207079D01*
X322778Y206394D01*
X322663Y206364D01*
X322337D01*
X322222Y206394D01*
X321764Y207079D01*
X320955Y207620D01*
X320200Y207770D01*
Y205000D01*
Y202230D01*
X320955Y202380D01*
X321764Y202921D01*
X322222Y203606D01*
X322337Y203636D01*
X322663D01*
X322778Y203606D01*
X323236Y202921D01*
X324045Y202380D01*
X324800Y202230D01*
Y205000D01*
Y207770D01*
D02*
G37*
G36*
X354800D02*
X354045Y207620D01*
X353236Y207079D01*
X352778Y206394D01*
X352663Y206364D01*
X352337D01*
X352222Y206394D01*
X351764Y207079D01*
X350955Y207620D01*
X350200Y207770D01*
Y205000D01*
Y202230D01*
X350955Y202380D01*
X351764Y202921D01*
X352222Y203606D01*
X352337Y203636D01*
X352663D01*
X352778Y203606D01*
X353236Y202921D01*
X354045Y202380D01*
X354800Y202230D01*
Y205000D01*
Y207770D01*
D02*
G37*
G36*
X349800D02*
X349045Y207620D01*
X348236Y207079D01*
X347778Y206394D01*
X347663Y206364D01*
X347337D01*
X347222Y206394D01*
X346764Y207079D01*
X345955Y207620D01*
X345200Y207770D01*
Y205000D01*
Y202230D01*
X345955Y202380D01*
X346764Y202921D01*
X347222Y203606D01*
X347337Y203636D01*
X347663D01*
X347778Y203606D01*
X348236Y202921D01*
X349045Y202380D01*
X349800Y202230D01*
Y205000D01*
Y207770D01*
D02*
G37*
G36*
X344800D02*
X344045Y207620D01*
X343236Y207079D01*
X342778Y206394D01*
X342663Y206364D01*
X342337D01*
X342222Y206394D01*
X341764Y207079D01*
X340955Y207620D01*
X340200Y207770D01*
Y205000D01*
Y202230D01*
X340955Y202380D01*
X341764Y202921D01*
X342222Y203606D01*
X342337Y203636D01*
X342663D01*
X342778Y203606D01*
X343236Y202921D01*
X344045Y202380D01*
X344800Y202230D01*
Y205000D01*
Y207770D01*
D02*
G37*
G36*
X339800D02*
X339045Y207620D01*
X338236Y207079D01*
X337778Y206394D01*
X337663Y206364D01*
X337337D01*
X337222Y206394D01*
X336764Y207079D01*
X335955Y207620D01*
X335200Y207770D01*
Y205000D01*
Y202230D01*
X335955Y202380D01*
X336764Y202921D01*
X337222Y203606D01*
X337337Y203636D01*
X337663D01*
X337778Y203606D01*
X338236Y202921D01*
X339045Y202380D01*
X339800Y202230D01*
Y205000D01*
Y207770D01*
D02*
G37*
G36*
X334800D02*
X334045Y207620D01*
X333236Y207079D01*
X332778Y206394D01*
X332663Y206364D01*
X332337D01*
X332222Y206394D01*
X331764Y207079D01*
X330955Y207620D01*
X330200Y207770D01*
Y205000D01*
Y202230D01*
X330955Y202380D01*
X331764Y202921D01*
X332222Y203606D01*
X332337Y203636D01*
X332663D01*
X332778Y203606D01*
X333236Y202921D01*
X334045Y202380D01*
X334800Y202230D01*
Y205000D01*
Y207770D01*
D02*
G37*
G36*
X329800D02*
X329045Y207620D01*
X328236Y207079D01*
X327778Y206394D01*
X327663Y206364D01*
X327337D01*
X327222Y206394D01*
X326764Y207079D01*
X325955Y207620D01*
X325200Y207770D01*
Y205000D01*
Y202230D01*
X325955Y202380D01*
X326764Y202921D01*
X327222Y203606D01*
X327337Y203636D01*
X327663D01*
X327778Y203606D01*
X328236Y202921D01*
X329045Y202380D01*
X329800Y202230D01*
Y205000D01*
Y207770D01*
D02*
G37*
G36*
X79800D02*
X79045Y207620D01*
X78236Y207079D01*
X77778Y206394D01*
X77663Y206364D01*
X77337D01*
X77222Y206394D01*
X76764Y207079D01*
X75955Y207620D01*
X75200Y207770D01*
Y205000D01*
Y202230D01*
X75955Y202380D01*
X76764Y202921D01*
X77222Y203606D01*
X77337Y203636D01*
X77663D01*
X77778Y203606D01*
X78236Y202921D01*
X79045Y202380D01*
X79800Y202230D01*
Y205000D01*
Y207770D01*
D02*
G37*
G36*
X74800D02*
X74045Y207620D01*
X73236Y207079D01*
X72778Y206394D01*
X72663Y206364D01*
X72337D01*
X72222Y206394D01*
X71764Y207079D01*
X70955Y207620D01*
X70200Y207770D01*
Y205000D01*
Y202230D01*
X70955Y202380D01*
X71764Y202921D01*
X72222Y203606D01*
X72337Y203636D01*
X72663D01*
X72778Y203606D01*
X73236Y202921D01*
X74045Y202380D01*
X74800Y202230D01*
Y205000D01*
Y207770D01*
D02*
G37*
G36*
X69800D02*
X69045Y207620D01*
X68236Y207079D01*
X67778Y206394D01*
X67663Y206364D01*
X67337D01*
X67222Y206394D01*
X66764Y207079D01*
X65955Y207620D01*
X65200Y207770D01*
Y205000D01*
Y202230D01*
X65955Y202380D01*
X66764Y202921D01*
X67222Y203606D01*
X67337Y203636D01*
X67663D01*
X67778Y203606D01*
X68236Y202921D01*
X69045Y202380D01*
X69800Y202230D01*
Y205000D01*
Y207770D01*
D02*
G37*
G36*
X64800D02*
X64045Y207620D01*
X63236Y207079D01*
X62778Y206394D01*
X62663Y206364D01*
X62337D01*
X62222Y206394D01*
X61764Y207079D01*
X60955Y207620D01*
X60200Y207770D01*
Y205000D01*
Y202230D01*
X60955Y202380D01*
X61764Y202921D01*
X62222Y203606D01*
X62337Y203636D01*
X62663D01*
X62778Y203606D01*
X63236Y202921D01*
X64045Y202380D01*
X64800Y202230D01*
Y205000D01*
Y207770D01*
D02*
G37*
G36*
X59800D02*
X59045Y207620D01*
X58236Y207079D01*
X57778Y206394D01*
X57663Y206364D01*
X57337D01*
X57222Y206394D01*
X56764Y207079D01*
X55955Y207620D01*
X55200Y207770D01*
Y205000D01*
Y202230D01*
X55955Y202380D01*
X56764Y202921D01*
X57222Y203606D01*
X57337Y203636D01*
X57663D01*
X57778Y203606D01*
X58236Y202921D01*
X59045Y202380D01*
X59800Y202230D01*
Y205000D01*
Y207770D01*
D02*
G37*
G36*
X54800D02*
X54045Y207620D01*
X53236Y207079D01*
X52778Y206394D01*
X52663Y206364D01*
X52337D01*
X52222Y206394D01*
X51764Y207079D01*
X50955Y207620D01*
X50200Y207770D01*
Y205000D01*
Y202230D01*
X50955Y202380D01*
X51764Y202921D01*
X52222Y203606D01*
X52337Y203636D01*
X52663D01*
X52778Y203606D01*
X53236Y202921D01*
X54045Y202380D01*
X54800Y202230D01*
Y205000D01*
Y207770D01*
D02*
G37*
G36*
X49800D02*
X49045Y207620D01*
X48236Y207079D01*
X47778Y206394D01*
X47663Y206364D01*
X47337D01*
X47222Y206394D01*
X46764Y207079D01*
X45955Y207620D01*
X45200Y207770D01*
Y205000D01*
Y202230D01*
X45955Y202380D01*
X46764Y202921D01*
X47222Y203606D01*
X47337Y203636D01*
X47663D01*
X47778Y203606D01*
X48236Y202921D01*
X49045Y202380D01*
X49800Y202230D01*
Y205000D01*
Y207770D01*
D02*
G37*
G36*
X44800D02*
X44045Y207620D01*
X43236Y207079D01*
X42778Y206394D01*
X42663Y206364D01*
X42337D01*
X42222Y206394D01*
X41764Y207079D01*
X40955Y207620D01*
X40200Y207770D01*
Y205000D01*
Y202230D01*
X40955Y202380D01*
X41764Y202921D01*
X42222Y203606D01*
X42337Y203636D01*
X42663D01*
X42778Y203606D01*
X43236Y202921D01*
X44045Y202380D01*
X44800Y202230D01*
Y205000D01*
Y207770D01*
D02*
G37*
G36*
X355200D02*
Y205200D01*
X357495D01*
Y205315D01*
X357305Y206270D01*
X356764Y207079D01*
X355955Y207620D01*
X355200Y207770D01*
D02*
G37*
G36*
X80200D02*
Y205200D01*
X82495D01*
Y205315D01*
X82305Y206270D01*
X81764Y207079D01*
X80955Y207620D01*
X80200Y207770D01*
D02*
G37*
G36*
X34800Y207762D02*
X32553D01*
Y205200D01*
X34800D01*
Y207762D01*
D02*
G37*
G36*
Y204800D02*
X32553D01*
Y202238D01*
X34800D01*
Y204800D01*
D02*
G37*
G36*
X357495D02*
X355200D01*
Y202230D01*
X355955Y202380D01*
X356764Y202921D01*
X357305Y203730D01*
X357495Y204685D01*
Y204800D01*
D02*
G37*
G36*
X82495D02*
X80200D01*
Y202230D01*
X80955Y202380D01*
X81764Y202921D01*
X82305Y203730D01*
X82495Y204685D01*
Y204800D01*
D02*
G37*
G36*
X385392Y131968D02*
X384608D01*
X383885Y131669D01*
X383331Y131115D01*
X383032Y130392D01*
Y129608D01*
X383331Y128885D01*
X383885Y128331D01*
X384608Y128032D01*
X385392D01*
X386115Y128331D01*
X386669Y128885D01*
X386968Y129608D01*
Y130392D01*
X386669Y131115D01*
X386115Y131669D01*
X385392Y131968D01*
D02*
G37*
G36*
X185392Y107331D02*
X184608D01*
X183885Y107031D01*
X183331Y106477D01*
X183271Y106331D01*
X182729D01*
X182669Y106477D01*
X182115Y107031D01*
X181392Y107331D01*
X180608D01*
X179885Y107031D01*
X179331Y106477D01*
X179032Y105754D01*
Y104971D01*
X179331Y104247D01*
X179885Y103693D01*
X180608Y103394D01*
X181392D01*
X182115Y103693D01*
X182669Y104247D01*
X182729Y104393D01*
X183271D01*
X183331Y104247D01*
X183885Y103693D01*
X184608Y103394D01*
X185392D01*
X186115Y103693D01*
X186669Y104247D01*
X186969Y104971D01*
Y105754D01*
X186669Y106477D01*
X186115Y107031D01*
X185392Y107331D01*
D02*
G37*
G36*
X246392Y100969D02*
X245608D01*
X244885Y100669D01*
X244331Y100115D01*
X244032Y99392D01*
Y98608D01*
X244331Y97885D01*
X244885Y97331D01*
X245608Y97031D01*
X246392D01*
X247115Y97331D01*
X247669Y97885D01*
X247969Y98608D01*
Y99392D01*
X247669Y100115D01*
X247115Y100669D01*
X246392Y100969D01*
D02*
G37*
G36*
X50551Y104183D02*
X49449D01*
X48385Y103898D01*
X47431Y103347D01*
X46653Y102568D01*
X46102Y101615D01*
X45817Y100551D01*
Y99449D01*
X46102Y98385D01*
X46653Y97431D01*
X47431Y96653D01*
X48385Y96102D01*
X49449Y95817D01*
X50551D01*
X51615Y96102D01*
X52569Y96653D01*
X53347Y97431D01*
X53898Y98385D01*
X54183Y99449D01*
Y100551D01*
X53898Y101615D01*
X53347Y102568D01*
X52569Y103347D01*
X51615Y103898D01*
X50551Y104183D01*
D02*
G37*
G36*
X160392Y96469D02*
X159608D01*
X158885Y96169D01*
X158331Y95615D01*
X158271Y95469D01*
X157729D01*
X157669Y95615D01*
X157115Y96169D01*
X156392Y96469D01*
X155608D01*
X154885Y96169D01*
X154331Y95615D01*
X154032Y94892D01*
Y94108D01*
X154331Y93385D01*
X154885Y92831D01*
X155608Y92532D01*
X156392D01*
X157115Y92831D01*
X157669Y93385D01*
X157729Y93531D01*
X158271D01*
X158331Y93385D01*
X158885Y92831D01*
X159608Y92532D01*
X160392D01*
X161115Y92831D01*
X161669Y93385D01*
X161969Y94108D01*
Y94892D01*
X161669Y95615D01*
X161115Y96169D01*
X160392Y96469D01*
D02*
G37*
G36*
X358000Y194303D02*
X66500D01*
X66193Y194242D01*
X65932Y194068D01*
X65932Y194068D01*
X49432Y177568D01*
X49258Y177307D01*
X49197Y177000D01*
Y174183D01*
X49210Y174119D01*
X48385Y173898D01*
X47431Y173347D01*
X46653Y172569D01*
X46102Y171615D01*
X45817Y170551D01*
Y169449D01*
X46102Y168385D01*
X46653Y167431D01*
X47431Y166653D01*
X48385Y166102D01*
X49210Y165881D01*
X49197Y165817D01*
Y164183D01*
X49210Y164119D01*
X48385Y163898D01*
X47431Y163347D01*
X46653Y162568D01*
X46102Y161615D01*
X45817Y160551D01*
Y159449D01*
X46102Y158385D01*
X46653Y157431D01*
X47431Y156653D01*
X48385Y156102D01*
X49210Y155881D01*
X49197Y155817D01*
Y154183D01*
X49210Y154119D01*
X48385Y153898D01*
X47431Y153347D01*
X46653Y152568D01*
X46102Y151615D01*
X45817Y150551D01*
Y149449D01*
X46102Y148385D01*
X46653Y147432D01*
X47431Y146653D01*
X48385Y146102D01*
X49210Y145881D01*
X49197Y145817D01*
Y144183D01*
X49210Y144119D01*
X48385Y143898D01*
X47431Y143347D01*
X46653Y142569D01*
X46102Y141615D01*
X45817Y140551D01*
Y139449D01*
X46102Y138385D01*
X46653Y137432D01*
X47431Y136653D01*
X48385Y136102D01*
X49210Y135881D01*
X49197Y135817D01*
Y134183D01*
X49210Y134119D01*
X48385Y133898D01*
X47431Y133347D01*
X46653Y132569D01*
X46102Y131615D01*
X45817Y130551D01*
Y129449D01*
X46102Y128385D01*
X46653Y127431D01*
X47431Y126653D01*
X48385Y126102D01*
X49210Y125881D01*
X49197Y125817D01*
Y124183D01*
X49210Y124119D01*
X48385Y123898D01*
X47431Y123347D01*
X46653Y122569D01*
X46102Y121615D01*
X45817Y120551D01*
Y119449D01*
X46102Y118385D01*
X46653Y117431D01*
X47431Y116653D01*
X48385Y116102D01*
X49210Y115881D01*
X49197Y115817D01*
Y114116D01*
X48385Y113898D01*
X47431Y113347D01*
X46653Y112568D01*
X46102Y111615D01*
X45817Y110551D01*
Y109449D01*
X46102Y108385D01*
X46653Y107431D01*
X47431Y106653D01*
X48385Y106102D01*
X49449Y105817D01*
X50551D01*
X51615Y106102D01*
X52569Y106653D01*
X53347Y107431D01*
X53898Y108385D01*
X54115Y109197D01*
X161500D01*
X161500Y109197D01*
X161807Y109258D01*
X162068Y109432D01*
X162068Y109432D01*
X170333Y117697D01*
X224697D01*
Y114500D01*
X224758Y114193D01*
X224932Y113932D01*
X224932Y113932D01*
X236932Y101932D01*
X237193Y101758D01*
X237500Y101697D01*
X247150D01*
X253685Y95161D01*
Y89687D01*
X253747Y89380D01*
X253921Y89119D01*
X254181Y88945D01*
X254488Y88884D01*
X269449D01*
X269756Y88945D01*
X270017Y89119D01*
X270191Y89380D01*
X270252Y89687D01*
Y95161D01*
X281068Y105978D01*
X281242Y106238D01*
X281303Y106545D01*
Y111197D01*
X358000D01*
X358307Y111258D01*
X358568Y111432D01*
X358742Y111693D01*
X358803Y112000D01*
Y193500D01*
X358742Y193807D01*
X358568Y194068D01*
X358307Y194242D01*
X358000Y194303D01*
D02*
G37*
G36*
X344892Y91969D02*
X344108D01*
X343385Y91669D01*
X342831Y91115D01*
X342531Y90392D01*
Y89608D01*
X342831Y88885D01*
X343385Y88331D01*
X344108Y88032D01*
X344892D01*
X345615Y88331D01*
X346169Y88885D01*
X346468Y89608D01*
Y90392D01*
X346169Y91115D01*
X345615Y91669D01*
X344892Y91969D01*
D02*
G37*
G36*
X185392Y89024D02*
X184608D01*
X183885Y88724D01*
X183331Y88170D01*
X183271Y88024D01*
X182729D01*
X182669Y88170D01*
X182115Y88724D01*
X181392Y89024D01*
X180608D01*
X179885Y88724D01*
X179331Y88170D01*
X179032Y87447D01*
Y86664D01*
X179331Y85940D01*
X179885Y85386D01*
X180608Y85087D01*
X181392D01*
X182115Y85386D01*
X182669Y85940D01*
X182729Y86086D01*
X183271D01*
X183331Y85940D01*
X183885Y85386D01*
X184608Y85087D01*
X185392D01*
X186115Y85386D01*
X186669Y85940D01*
X186969Y86664D01*
Y87447D01*
X186669Y88170D01*
X186115Y88724D01*
X185392Y89024D01*
D02*
G37*
G36*
X50551Y94183D02*
X49449D01*
X48385Y93898D01*
X47431Y93347D01*
X46653Y92568D01*
X46102Y91615D01*
X45817Y90551D01*
Y89449D01*
X46102Y88385D01*
X46653Y87432D01*
X47431Y86653D01*
X48385Y86102D01*
X49449Y85817D01*
X50551D01*
X51615Y86102D01*
X52569Y86653D01*
X53347Y87432D01*
X53898Y88385D01*
X54183Y89449D01*
Y90551D01*
X53898Y91615D01*
X53347Y92568D01*
X52569Y93347D01*
X51615Y93898D01*
X50551Y94183D01*
D02*
G37*
G36*
X255392Y87968D02*
X254608D01*
X253885Y87669D01*
X253331Y87115D01*
X253031Y86392D01*
Y85608D01*
X253331Y84885D01*
X253885Y84331D01*
X254608Y84031D01*
X255392D01*
X256115Y84331D01*
X256669Y84885D01*
X256968Y85608D01*
Y86392D01*
X256669Y87115D01*
X256115Y87669D01*
X255392Y87968D01*
D02*
G37*
G36*
X249392D02*
X248608D01*
X247885Y87669D01*
X247331Y87115D01*
X247031Y86392D01*
Y85608D01*
X247331Y84885D01*
X247885Y84331D01*
X248608Y84031D01*
X249392D01*
X250115Y84331D01*
X250669Y84885D01*
X250969Y85608D01*
Y86392D01*
X250669Y87115D01*
X250115Y87669D01*
X249392Y87968D01*
D02*
G37*
G36*
X332392Y85969D02*
X331608D01*
X330885Y85669D01*
X330331Y85115D01*
X330031Y84392D01*
Y83608D01*
X330331Y82885D01*
X330885Y82331D01*
X331608Y82032D01*
X332392D01*
X333115Y82331D01*
X333669Y82885D01*
X333968Y83608D01*
Y84392D01*
X333669Y85115D01*
X333115Y85669D01*
X332392Y85969D01*
D02*
G37*
G36*
X301892Y83469D02*
X301108D01*
X300385Y83169D01*
X299831Y82615D01*
X299532Y81892D01*
Y81108D01*
X299831Y80385D01*
X300385Y79831D01*
X301108Y79532D01*
X301892D01*
X302615Y79831D01*
X303169Y80385D01*
X303468Y81108D01*
Y81892D01*
X303169Y82615D01*
X302615Y83169D01*
X301892Y83469D01*
D02*
G37*
G36*
X50551Y84183D02*
X49449D01*
X48385Y83898D01*
X47431Y83347D01*
X46653Y82569D01*
X46102Y81615D01*
X45817Y80551D01*
Y79449D01*
X46102Y78385D01*
X46653Y77431D01*
X47431Y76653D01*
X48385Y76102D01*
X49449Y75817D01*
X50551D01*
X51615Y76102D01*
X52569Y76653D01*
X53347Y77431D01*
X53898Y78385D01*
X54183Y79449D01*
Y80551D01*
X53898Y81615D01*
X53347Y82569D01*
X52569Y83347D01*
X51615Y83898D01*
X50551Y84183D01*
D02*
G37*
G36*
X160392Y76468D02*
X159608D01*
X158885Y76169D01*
X158331Y75615D01*
X158271Y75469D01*
X157729D01*
X157669Y75615D01*
X157115Y76169D01*
X156392Y76468D01*
X155608D01*
X154885Y76169D01*
X154331Y75615D01*
X154032Y74892D01*
Y74108D01*
X154331Y73385D01*
X154885Y72831D01*
X155608Y72531D01*
X156392D01*
X157115Y72831D01*
X157669Y73385D01*
X157729Y73531D01*
X158271D01*
X158331Y73385D01*
X158885Y72831D01*
X159608Y72531D01*
X160392D01*
X161115Y72831D01*
X161669Y73385D01*
X161969Y74108D01*
Y74892D01*
X161669Y75615D01*
X161115Y76169D01*
X160392Y76468D01*
D02*
G37*
G36*
X50551Y74183D02*
X49449D01*
X48385Y73898D01*
X47431Y73347D01*
X46653Y72569D01*
X46102Y71615D01*
X45817Y70551D01*
Y69449D01*
X46102Y68385D01*
X46653Y67431D01*
X47431Y66653D01*
X48385Y66102D01*
X49449Y65817D01*
X50551D01*
X51615Y66102D01*
X52569Y66653D01*
X53347Y67431D01*
X53898Y68385D01*
X54183Y69449D01*
Y70551D01*
X53898Y71615D01*
X53347Y72569D01*
X52569Y73347D01*
X51615Y73898D01*
X50551Y74183D01*
D02*
G37*
G36*
X185392Y66469D02*
X184608D01*
X183885Y66169D01*
X183331Y65615D01*
X183271Y65469D01*
X182729D01*
X182669Y65615D01*
X182115Y66169D01*
X181392Y66469D01*
X180608D01*
X179885Y66169D01*
X179331Y65615D01*
X179032Y64892D01*
Y64108D01*
X179331Y63385D01*
X179885Y62831D01*
X180608Y62532D01*
X181392D01*
X182115Y62831D01*
X182669Y63385D01*
X182729Y63531D01*
X183271D01*
X183331Y63385D01*
X183885Y62831D01*
X184608Y62532D01*
X185392D01*
X186115Y62831D01*
X186669Y63385D01*
X186969Y64108D01*
Y64892D01*
X186669Y65615D01*
X186115Y66169D01*
X185392Y66469D01*
D02*
G37*
G36*
X50551Y64183D02*
X49449D01*
X48385Y63898D01*
X47431Y63347D01*
X46653Y62568D01*
X46102Y61615D01*
X45817Y60551D01*
Y59449D01*
X46102Y58385D01*
X46653Y57432D01*
X47431Y56653D01*
X48385Y56102D01*
X49449Y55817D01*
X50551D01*
X51615Y56102D01*
X52569Y56653D01*
X53347Y57432D01*
X53898Y58385D01*
X54183Y59449D01*
Y60551D01*
X53898Y61615D01*
X53347Y62568D01*
X52569Y63347D01*
X51615Y63898D01*
X50551Y64183D01*
D02*
G37*
G36*
X340892Y57468D02*
X340108D01*
X339385Y57169D01*
X338831Y56615D01*
X338531Y55892D01*
Y55108D01*
X338831Y54385D01*
X339385Y53831D01*
X340108Y53531D01*
X340892D01*
X341615Y53831D01*
X342169Y54385D01*
X342469Y55108D01*
Y55892D01*
X342169Y56615D01*
X341615Y57169D01*
X340892Y57468D01*
D02*
G37*
G36*
X324892D02*
X324108D01*
X323385Y57169D01*
X322831Y56615D01*
X322532Y55892D01*
Y55108D01*
X322831Y54385D01*
X323385Y53831D01*
X324108Y53531D01*
X324892D01*
X325615Y53831D01*
X326169Y54385D01*
X326468Y55108D01*
Y55892D01*
X326169Y56615D01*
X325615Y57169D01*
X324892Y57468D01*
D02*
G37*
G36*
X249392Y55468D02*
X248608D01*
X247885Y55169D01*
X247331Y54615D01*
X247031Y53892D01*
Y53108D01*
X247331Y52385D01*
X247885Y51831D01*
X248608Y51531D01*
X249392D01*
X250115Y51831D01*
X250669Y52385D01*
X250969Y53108D01*
Y53892D01*
X250669Y54615D01*
X250115Y55169D01*
X249392Y55468D01*
D02*
G37*
G36*
X243892D02*
X243108D01*
X242385Y55169D01*
X241831Y54615D01*
X241531Y53892D01*
Y53108D01*
X241831Y52385D01*
X242385Y51831D01*
X243108Y51531D01*
X243892D01*
X244615Y51831D01*
X245169Y52385D01*
X245468Y53108D01*
Y53892D01*
X245169Y54615D01*
X244615Y55169D01*
X243892Y55468D01*
D02*
G37*
G36*
X54396Y54396D02*
X50500D01*
Y50500D01*
X54396D01*
Y54396D01*
D02*
G37*
G36*
X49500D02*
X45604D01*
Y50500D01*
X49500D01*
Y54396D01*
D02*
G37*
G36*
X385892Y51968D02*
X385108D01*
X384385Y51669D01*
X383831Y51115D01*
X383531Y50392D01*
Y49608D01*
X383831Y48885D01*
X384385Y48331D01*
X385108Y48031D01*
X385892D01*
X386615Y48331D01*
X387169Y48885D01*
X387469Y49608D01*
Y50392D01*
X387169Y51115D01*
X386615Y51669D01*
X385892Y51968D01*
D02*
G37*
G36*
X340892Y51468D02*
X340108D01*
X339385Y51169D01*
X338831Y50615D01*
X338531Y49892D01*
Y49108D01*
X338831Y48385D01*
X339385Y47831D01*
X340108Y47532D01*
X340892D01*
X341615Y47831D01*
X342169Y48385D01*
X342469Y49108D01*
Y49892D01*
X342169Y50615D01*
X341615Y51169D01*
X340892Y51468D01*
D02*
G37*
G36*
X324892D02*
X324108D01*
X323385Y51169D01*
X322831Y50615D01*
X322532Y49892D01*
Y49108D01*
X322831Y48385D01*
X323385Y47831D01*
X324108Y47532D01*
X324892D01*
X325615Y47831D01*
X326169Y48385D01*
X326468Y49108D01*
Y49892D01*
X326169Y50615D01*
X325615Y51169D01*
X324892Y51468D01*
D02*
G37*
G36*
X54396Y49500D02*
X50500D01*
Y45604D01*
X54396D01*
Y49500D01*
D02*
G37*
G36*
X49500D02*
X45604D01*
Y45604D01*
X49500D01*
Y49500D01*
D02*
G37*
G36*
X281392Y48968D02*
X280608D01*
X279885Y48669D01*
X279331Y48115D01*
X279031Y47392D01*
Y46608D01*
X279331Y45885D01*
X279885Y45331D01*
X280608Y45031D01*
X281392D01*
X282115Y45331D01*
X282669Y45885D01*
X282968Y46608D01*
Y47392D01*
X282669Y48115D01*
X282115Y48669D01*
X281392Y48968D01*
D02*
G37*
G36*
X133892D02*
X133108D01*
X132385Y48669D01*
X131831Y48115D01*
X131532Y47392D01*
Y46608D01*
X131831Y45885D01*
X132385Y45331D01*
X133108Y45031D01*
X133892D01*
X134615Y45331D01*
X135169Y45885D01*
X135468Y46608D01*
Y47392D01*
X135169Y48115D01*
X134615Y48669D01*
X133892Y48968D01*
D02*
G37*
G36*
X105392Y48469D02*
X104608D01*
X103885Y48169D01*
X103331Y47615D01*
X103032Y46892D01*
Y46108D01*
X103331Y45385D01*
X103885Y44831D01*
X104608Y44532D01*
X105392D01*
X106115Y44831D01*
X106669Y45385D01*
X106968Y46108D01*
Y46892D01*
X106669Y47615D01*
X106115Y48169D01*
X105392Y48469D01*
D02*
G37*
G36*
X133892Y44469D02*
X133108D01*
X132385Y44169D01*
X131831Y43615D01*
X131532Y42892D01*
Y42108D01*
X131831Y41385D01*
X132385Y40831D01*
X133108Y40532D01*
X133892D01*
X134615Y40831D01*
X135169Y41385D01*
X135468Y42108D01*
Y42892D01*
X135169Y43615D01*
X134615Y44169D01*
X133892Y44469D01*
D02*
G37*
G36*
X342774Y38969D02*
X341990D01*
X341267Y38669D01*
X340713Y38115D01*
X340413Y37392D01*
Y36608D01*
X340713Y35885D01*
X341267Y35331D01*
X341990Y35032D01*
X342774D01*
X343497Y35331D01*
X344051Y35885D01*
X344350Y36608D01*
Y37392D01*
X344051Y38115D01*
X343497Y38669D01*
X342774Y38969D01*
D02*
G37*
G36*
X312773D02*
X311990D01*
X311267Y38669D01*
X310713Y38115D01*
X310413Y37392D01*
Y36608D01*
X310713Y35885D01*
X311267Y35331D01*
X311990Y35032D01*
X312773D01*
X313497Y35331D01*
X314051Y35885D01*
X314350Y36608D01*
Y37392D01*
X314051Y38115D01*
X313497Y38669D01*
X312773Y38969D01*
D02*
G37*
G36*
X355000Y18174D02*
X354260Y18077D01*
X353570Y17791D01*
X352978Y17337D01*
X352815Y17124D01*
X352185D01*
X352022Y17337D01*
X351430Y17791D01*
X350740Y18077D01*
X350000Y18174D01*
X349260Y18077D01*
X348570Y17791D01*
X347978Y17337D01*
X347815Y17124D01*
X347185D01*
X347022Y17337D01*
X346430Y17791D01*
X345740Y18077D01*
X345000Y18174D01*
X344260Y18077D01*
X343570Y17791D01*
X342978Y17337D01*
X342815Y17124D01*
X342185D01*
X342022Y17337D01*
X341430Y17791D01*
X340740Y18077D01*
X340000Y18174D01*
X339260Y18077D01*
X338570Y17791D01*
X337978Y17337D01*
X337815Y17124D01*
X337185D01*
X337022Y17337D01*
X336430Y17791D01*
X335740Y18077D01*
X335000Y18174D01*
X334260Y18077D01*
X333570Y17791D01*
X332978Y17337D01*
X332559Y16790D01*
X332342Y16746D01*
X331985Y16749D01*
X331764Y17079D01*
X330955Y17620D01*
X330200Y17770D01*
Y15000D01*
Y12230D01*
X330955Y12380D01*
X331764Y12921D01*
X331985Y13251D01*
X332342Y13254D01*
X332559Y13210D01*
X332978Y12663D01*
X333570Y12209D01*
X334260Y11923D01*
X335000Y11826D01*
X335740Y11923D01*
X336430Y12209D01*
X337022Y12663D01*
X337185Y12876D01*
X337815D01*
X337978Y12663D01*
X338570Y12209D01*
X339260Y11923D01*
X340000Y11826D01*
X340740Y11923D01*
X341430Y12209D01*
X342022Y12663D01*
X342185Y12876D01*
X342815D01*
X342978Y12663D01*
X343570Y12209D01*
X344260Y11923D01*
X345000Y11826D01*
X345740Y11923D01*
X346430Y12209D01*
X347022Y12663D01*
X347185Y12876D01*
X347815D01*
X347978Y12663D01*
X348570Y12209D01*
X349260Y11923D01*
X350000Y11826D01*
X350740Y11923D01*
X351430Y12209D01*
X352022Y12663D01*
X352185Y12876D01*
X352815D01*
X352978Y12663D01*
X353570Y12209D01*
X354260Y11923D01*
X355000Y11826D01*
X355740Y11923D01*
X356430Y12209D01*
X357022Y12663D01*
X357476Y13255D01*
X357762Y13945D01*
X357859Y14685D01*
Y15315D01*
X357762Y16055D01*
X357476Y16745D01*
X357022Y17337D01*
X356430Y17791D01*
X355740Y18077D01*
X355000Y18174D01*
D02*
G37*
G36*
X325000D02*
X324260Y18077D01*
X323570Y17791D01*
X322978Y17337D01*
X322815Y17124D01*
X322185D01*
X322022Y17337D01*
X321430Y17791D01*
X320740Y18077D01*
X320000Y18174D01*
X319260Y18077D01*
X318570Y17791D01*
X317978Y17337D01*
X317815Y17124D01*
X317185D01*
X317022Y17337D01*
X316430Y17791D01*
X315740Y18077D01*
X315000Y18174D01*
X314260Y18077D01*
X313570Y17791D01*
X313335Y17610D01*
X312835Y17857D01*
Y18150D01*
X307165D01*
Y11850D01*
X312835D01*
Y12143D01*
X313335Y12390D01*
X313570Y12209D01*
X314260Y11923D01*
X315000Y11826D01*
X315740Y11923D01*
X316430Y12209D01*
X317022Y12663D01*
X317185Y12876D01*
X317815D01*
X317978Y12663D01*
X318570Y12209D01*
X319260Y11923D01*
X320000Y11826D01*
X320740Y11923D01*
X321430Y12209D01*
X322022Y12663D01*
X322185Y12876D01*
X322815D01*
X322978Y12663D01*
X323570Y12209D01*
X324260Y11923D01*
X325000Y11826D01*
X325740Y11923D01*
X326430Y12209D01*
X327022Y12663D01*
X327441Y13210D01*
X327658Y13254D01*
X328015Y13251D01*
X328236Y12921D01*
X329045Y12380D01*
X329800Y12230D01*
Y15000D01*
Y17770D01*
X329045Y17620D01*
X328236Y17079D01*
X328015Y16749D01*
X327658Y16746D01*
X327441Y16790D01*
X327022Y17337D01*
X326430Y17791D01*
X325740Y18077D01*
X325000Y18174D01*
D02*
G37*
G36*
X39800Y17770D02*
X39045Y17620D01*
X38236Y17079D01*
X37947Y16648D01*
X37447Y16799D01*
Y17762D01*
X35200D01*
Y15000D01*
Y12238D01*
X37447D01*
Y13201D01*
X37947Y13352D01*
X38236Y12921D01*
X39045Y12380D01*
X39800Y12230D01*
Y15000D01*
Y17770D01*
D02*
G37*
G36*
X79800D02*
X79045Y17620D01*
X78236Y17079D01*
X77778Y16394D01*
X77663Y16364D01*
X77337D01*
X77222Y16394D01*
X76764Y17079D01*
X75955Y17620D01*
X75200Y17770D01*
Y15000D01*
Y12230D01*
X75955Y12380D01*
X76764Y12921D01*
X77222Y13606D01*
X77337Y13636D01*
X77663D01*
X77778Y13606D01*
X78236Y12921D01*
X79045Y12380D01*
X79800Y12230D01*
Y15000D01*
Y17770D01*
D02*
G37*
G36*
X74800D02*
X74045Y17620D01*
X73236Y17079D01*
X72778Y16394D01*
X72663Y16364D01*
X72337D01*
X72222Y16394D01*
X71764Y17079D01*
X70955Y17620D01*
X70200Y17770D01*
Y15000D01*
Y12230D01*
X70955Y12380D01*
X71764Y12921D01*
X72222Y13606D01*
X72337Y13636D01*
X72663D01*
X72778Y13606D01*
X73236Y12921D01*
X74045Y12380D01*
X74800Y12230D01*
Y15000D01*
Y17770D01*
D02*
G37*
G36*
X69800D02*
X69045Y17620D01*
X68236Y17079D01*
X67778Y16394D01*
X67663Y16364D01*
X67337D01*
X67222Y16394D01*
X66764Y17079D01*
X65955Y17620D01*
X65200Y17770D01*
Y15000D01*
Y12230D01*
X65955Y12380D01*
X66764Y12921D01*
X67222Y13606D01*
X67337Y13636D01*
X67663D01*
X67778Y13606D01*
X68236Y12921D01*
X69045Y12380D01*
X69800Y12230D01*
Y15000D01*
Y17770D01*
D02*
G37*
G36*
X64800D02*
X64045Y17620D01*
X63236Y17079D01*
X62778Y16394D01*
X62663Y16364D01*
X62337D01*
X62222Y16394D01*
X61764Y17079D01*
X60955Y17620D01*
X60200Y17770D01*
Y15000D01*
Y12230D01*
X60955Y12380D01*
X61764Y12921D01*
X62222Y13606D01*
X62337Y13636D01*
X62663D01*
X62778Y13606D01*
X63236Y12921D01*
X64045Y12380D01*
X64800Y12230D01*
Y15000D01*
Y17770D01*
D02*
G37*
G36*
X59800D02*
X59045Y17620D01*
X58236Y17079D01*
X57778Y16394D01*
X57663Y16364D01*
X57337D01*
X57222Y16394D01*
X56764Y17079D01*
X55955Y17620D01*
X55200Y17770D01*
Y15000D01*
Y12230D01*
X55955Y12380D01*
X56764Y12921D01*
X57222Y13606D01*
X57337Y13636D01*
X57663D01*
X57778Y13606D01*
X58236Y12921D01*
X59045Y12380D01*
X59800Y12230D01*
Y15000D01*
Y17770D01*
D02*
G37*
G36*
X54800D02*
X54045Y17620D01*
X53236Y17079D01*
X52778Y16394D01*
X52663Y16364D01*
X52337D01*
X52222Y16394D01*
X51764Y17079D01*
X50955Y17620D01*
X50200Y17770D01*
Y15000D01*
Y12230D01*
X50955Y12380D01*
X51764Y12921D01*
X52222Y13606D01*
X52337Y13636D01*
X52663D01*
X52778Y13606D01*
X53236Y12921D01*
X54045Y12380D01*
X54800Y12230D01*
Y15000D01*
Y17770D01*
D02*
G37*
G36*
X49800D02*
X49045Y17620D01*
X48236Y17079D01*
X47778Y16394D01*
X47663Y16364D01*
X47337D01*
X47222Y16394D01*
X46764Y17079D01*
X45955Y17620D01*
X45200Y17770D01*
Y15000D01*
Y12230D01*
X45955Y12380D01*
X46764Y12921D01*
X47222Y13606D01*
X47337Y13636D01*
X47663D01*
X47778Y13606D01*
X48236Y12921D01*
X49045Y12380D01*
X49800Y12230D01*
Y15000D01*
Y17770D01*
D02*
G37*
G36*
X44800D02*
X44045Y17620D01*
X43236Y17079D01*
X42778Y16394D01*
X42663Y16364D01*
X42337D01*
X42222Y16394D01*
X41764Y17079D01*
X40955Y17620D01*
X40200Y17770D01*
Y15000D01*
Y12230D01*
X40955Y12380D01*
X41764Y12921D01*
X42222Y13606D01*
X42337Y13636D01*
X42663D01*
X42778Y13606D01*
X43236Y12921D01*
X44045Y12380D01*
X44800Y12230D01*
Y15000D01*
Y17770D01*
D02*
G37*
G36*
X80200D02*
Y15200D01*
X82495D01*
Y15315D01*
X82305Y16270D01*
X81764Y17079D01*
X80955Y17620D01*
X80200Y17770D01*
D02*
G37*
G36*
X34800Y17762D02*
X32553D01*
Y15200D01*
X34800D01*
Y17762D01*
D02*
G37*
G36*
X300392Y17469D02*
X299608D01*
X298885Y17169D01*
X298331Y16615D01*
X298031Y15892D01*
Y15108D01*
X298331Y14385D01*
X298885Y13831D01*
X299608Y13532D01*
X300392D01*
X301115Y13831D01*
X301669Y14385D01*
X301969Y15108D01*
Y15892D01*
X301669Y16615D01*
X301115Y17169D01*
X300392Y17469D01*
D02*
G37*
G36*
X290392D02*
X289608D01*
X288885Y17169D01*
X288331Y16615D01*
X288032Y15892D01*
Y15108D01*
X288331Y14385D01*
X288885Y13831D01*
X289608Y13532D01*
X290392D01*
X291115Y13831D01*
X291669Y14385D01*
X291968Y15108D01*
Y15892D01*
X291669Y16615D01*
X291115Y17169D01*
X290392Y17469D01*
D02*
G37*
G36*
X34800Y14800D02*
X32553D01*
Y12238D01*
X34800D01*
Y14800D01*
D02*
G37*
G36*
X82495D02*
X80200D01*
Y12230D01*
X80955Y12380D01*
X81764Y12921D01*
X82305Y13730D01*
X82495Y14685D01*
Y14800D01*
D02*
G37*
G36*
X290392Y6469D02*
X289608D01*
X288885Y6169D01*
X288331Y5615D01*
X288032Y4892D01*
Y4108D01*
X288331Y3385D01*
X288885Y2831D01*
X289608Y2531D01*
X290392D01*
X291115Y2831D01*
X291669Y3385D01*
X291968Y4108D01*
Y4892D01*
X291669Y5615D01*
X291115Y6169D01*
X290392Y6469D01*
D02*
G37*
%LPD*%
G36*
X358000Y112000D02*
X280500D01*
Y106545D01*
X269449Y95494D01*
Y89687D01*
X254488D01*
Y95494D01*
X247482Y102500D01*
X237500D01*
X225500Y114500D01*
Y118500D01*
X170000D01*
X161500Y110000D01*
X50000D01*
Y115817D01*
X50551D01*
X51615Y116102D01*
X52569Y116653D01*
X53347Y117431D01*
X53898Y118385D01*
X54183Y119449D01*
Y120551D01*
X53898Y121615D01*
X53347Y122569D01*
X52569Y123347D01*
X51615Y123898D01*
X50551Y124183D01*
X50000D01*
Y125817D01*
X50551D01*
X51615Y126102D01*
X52569Y126653D01*
X53347Y127431D01*
X53898Y128385D01*
X54183Y129449D01*
Y130551D01*
X53898Y131615D01*
X53347Y132569D01*
X52569Y133347D01*
X51615Y133898D01*
X50551Y134183D01*
X50000D01*
Y135817D01*
X50551D01*
X51615Y136102D01*
X52569Y136653D01*
X53347Y137432D01*
X53898Y138385D01*
X54183Y139449D01*
Y140551D01*
X53898Y141615D01*
X53347Y142569D01*
X52569Y143347D01*
X51615Y143898D01*
X50551Y144183D01*
X50000D01*
Y145817D01*
X50551D01*
X51615Y146102D01*
X52569Y146653D01*
X53347Y147432D01*
X53898Y148385D01*
X54183Y149449D01*
Y150551D01*
X53898Y151615D01*
X53347Y152568D01*
X52569Y153347D01*
X51615Y153898D01*
X50551Y154183D01*
X50000D01*
Y155817D01*
X50551D01*
X51615Y156102D01*
X52569Y156653D01*
X53347Y157431D01*
X53898Y158385D01*
X54183Y159449D01*
Y160551D01*
X53898Y161615D01*
X53347Y162568D01*
X52569Y163347D01*
X51615Y163898D01*
X50551Y164183D01*
X50000D01*
Y165817D01*
X50551D01*
X51615Y166102D01*
X52569Y166653D01*
X53347Y167431D01*
X53898Y168385D01*
X54183Y169449D01*
Y170551D01*
X53898Y171615D01*
X53347Y172569D01*
X52569Y173347D01*
X51615Y173898D01*
X50551Y174183D01*
X50000D01*
Y177000D01*
X66500Y193500D01*
X358000D01*
Y112000D01*
D02*
G37*
%LPC*%
G36*
X238392Y192469D02*
X237608D01*
X236885Y192169D01*
X236331Y191615D01*
X236032Y190892D01*
Y190108D01*
X236331Y189385D01*
X236885Y188831D01*
X237608Y188531D01*
X238392D01*
X239115Y188831D01*
X239669Y189385D01*
X239968Y190108D01*
Y190892D01*
X239669Y191615D01*
X239115Y192169D01*
X238392Y192469D01*
D02*
G37*
G36*
X138892Y191969D02*
X138108D01*
X137385Y191669D01*
X136831Y191115D01*
X136531Y190392D01*
Y189608D01*
X136831Y188885D01*
X137385Y188331D01*
X138108Y188031D01*
X138892D01*
X139615Y188331D01*
X140169Y188885D01*
X140469Y189608D01*
Y190392D01*
X140169Y191115D01*
X139615Y191669D01*
X138892Y191969D01*
D02*
G37*
G36*
X111892Y191469D02*
X111108D01*
X110385Y191169D01*
X109831Y190615D01*
X109531Y189892D01*
Y189108D01*
X109831Y188385D01*
X110385Y187831D01*
X111108Y187531D01*
X111892D01*
X112615Y187831D01*
X113169Y188385D01*
X113469Y189108D01*
Y189892D01*
X113169Y190615D01*
X112615Y191169D01*
X111892Y191469D01*
D02*
G37*
G36*
X145892Y189969D02*
X145108D01*
X144385Y189669D01*
X143831Y189115D01*
X143532Y188392D01*
Y187608D01*
X143831Y186885D01*
X144385Y186331D01*
X145108Y186031D01*
X145892D01*
X146615Y186331D01*
X147169Y186885D01*
X147468Y187608D01*
Y188392D01*
X147169Y189115D01*
X146615Y189669D01*
X145892Y189969D01*
D02*
G37*
G36*
X264892Y180968D02*
X264108D01*
X263385Y180669D01*
X262831Y180115D01*
X262531Y179392D01*
Y178608D01*
X262831Y177885D01*
X263385Y177331D01*
X264108Y177032D01*
X264892D01*
X265615Y177331D01*
X266169Y177885D01*
X266469Y178608D01*
Y179392D01*
X266169Y180115D01*
X265615Y180669D01*
X264892Y180968D01*
D02*
G37*
G36*
X246392D02*
X245608D01*
X244885Y180669D01*
X244331Y180115D01*
X244032Y179392D01*
Y178608D01*
X244331Y177885D01*
X244885Y177331D01*
X245608Y177032D01*
X246392D01*
X247115Y177331D01*
X247669Y177885D01*
X247969Y178608D01*
Y179392D01*
X247669Y180115D01*
X247115Y180669D01*
X246392Y180968D01*
D02*
G37*
G36*
X160392Y176469D02*
X159608D01*
X158885Y176169D01*
X158331Y175615D01*
X158031Y174892D01*
Y174108D01*
X158331Y173385D01*
X158885Y172831D01*
X159608Y172531D01*
X160392D01*
X161115Y172831D01*
X161669Y173385D01*
X161969Y174108D01*
Y174892D01*
X161669Y175615D01*
X161115Y176169D01*
X160392Y176469D01*
D02*
G37*
G36*
X344892Y171968D02*
X344108D01*
X343385Y171669D01*
X342831Y171115D01*
X342531Y170392D01*
Y169608D01*
X342831Y168885D01*
X343385Y168331D01*
X344108Y168032D01*
X344892D01*
X345615Y168331D01*
X346169Y168885D01*
X346468Y169608D01*
Y170392D01*
X346169Y171115D01*
X345615Y171669D01*
X344892Y171968D01*
D02*
G37*
G36*
X185392Y166469D02*
X184608D01*
X183885Y166169D01*
X183331Y165615D01*
X183271Y165469D01*
X182729D01*
X182669Y165615D01*
X182115Y166169D01*
X181392Y166469D01*
X180608D01*
X179885Y166169D01*
X179331Y165615D01*
X179032Y164892D01*
Y164108D01*
X179331Y163385D01*
X179885Y162831D01*
X180608Y162531D01*
X181392D01*
X182115Y162831D01*
X182669Y163385D01*
X182729Y163531D01*
X183271D01*
X183331Y163385D01*
X183885Y162831D01*
X184608Y162531D01*
X185392D01*
X186115Y162831D01*
X186669Y163385D01*
X186969Y164108D01*
Y164892D01*
X186669Y165615D01*
X186115Y166169D01*
X185392Y166469D01*
D02*
G37*
G36*
X332392Y165969D02*
X331608D01*
X330885Y165669D01*
X330331Y165115D01*
X330031Y164392D01*
Y163608D01*
X330331Y162885D01*
X330885Y162331D01*
X331608Y162031D01*
X332392D01*
X333115Y162331D01*
X333669Y162885D01*
X333968Y163608D01*
Y164392D01*
X333669Y165115D01*
X333115Y165669D01*
X332392Y165969D01*
D02*
G37*
G36*
X301392Y163469D02*
X300608D01*
X299885Y163169D01*
X299331Y162615D01*
X299031Y161892D01*
Y161108D01*
X299331Y160385D01*
X299885Y159831D01*
X300608Y159531D01*
X301392D01*
X302115Y159831D01*
X302669Y160385D01*
X302969Y161108D01*
Y161892D01*
X302669Y162615D01*
X302115Y163169D01*
X301392Y163469D01*
D02*
G37*
G36*
X160392Y156468D02*
X159608D01*
X158885Y156169D01*
X158331Y155615D01*
X158271Y155469D01*
X157729D01*
X157669Y155615D01*
X157115Y156169D01*
X156392Y156468D01*
X155608D01*
X154885Y156169D01*
X154331Y155615D01*
X154032Y154892D01*
Y154108D01*
X154331Y153385D01*
X154885Y152831D01*
X155608Y152532D01*
X156392D01*
X157115Y152831D01*
X157669Y153385D01*
X157729Y153531D01*
X158271D01*
X158331Y153385D01*
X158885Y152831D01*
X159608Y152532D01*
X160392D01*
X161115Y152831D01*
X161669Y153385D01*
X161969Y154108D01*
Y154892D01*
X161669Y155615D01*
X161115Y156169D01*
X160392Y156468D01*
D02*
G37*
G36*
X185392Y146468D02*
X184608D01*
X183885Y146169D01*
X183331Y145615D01*
X183271Y145469D01*
X182729D01*
X182669Y145615D01*
X182115Y146169D01*
X181392Y146468D01*
X180608D01*
X179885Y146169D01*
X179331Y145615D01*
X179032Y144892D01*
Y144108D01*
X179331Y143385D01*
X179885Y142831D01*
X180608Y142532D01*
X181392D01*
X182115Y142831D01*
X182669Y143385D01*
X182729Y143531D01*
X183271D01*
X183331Y143385D01*
X183885Y142831D01*
X184608Y142532D01*
X185392D01*
X186115Y142831D01*
X186669Y143385D01*
X186969Y144108D01*
Y144892D01*
X186669Y145615D01*
X186115Y146169D01*
X185392Y146468D01*
D02*
G37*
G36*
X160392Y136469D02*
X159608D01*
X158885Y136169D01*
X158331Y135615D01*
X158271Y135469D01*
X157729D01*
X157669Y135615D01*
X157115Y136169D01*
X156392Y136469D01*
X155608D01*
X154885Y136169D01*
X154331Y135615D01*
X154032Y134892D01*
Y134108D01*
X154331Y133385D01*
X154885Y132831D01*
X155608Y132531D01*
X156392D01*
X157115Y132831D01*
X157669Y133385D01*
X157729Y133531D01*
X158271D01*
X158331Y133385D01*
X158885Y132831D01*
X159608Y132531D01*
X160392D01*
X161115Y132831D01*
X161669Y133385D01*
X161969Y134108D01*
Y134892D01*
X161669Y135615D01*
X161115Y136169D01*
X160392Y136469D01*
D02*
G37*
G36*
X252392Y135968D02*
X251608D01*
X250885Y135669D01*
X250331Y135115D01*
X250271Y134969D01*
X249729D01*
X249669Y135115D01*
X249115Y135669D01*
X248392Y135968D01*
X247608D01*
X246885Y135669D01*
X246331Y135115D01*
X246031Y134392D01*
Y133608D01*
X246331Y132885D01*
X246885Y132331D01*
X247608Y132032D01*
X248392D01*
X249115Y132331D01*
X249669Y132885D01*
X249729Y133031D01*
X250271D01*
X250331Y132885D01*
X250885Y132331D01*
X251608Y132032D01*
X252392D01*
X253115Y132331D01*
X253669Y132885D01*
X253969Y133608D01*
Y134392D01*
X253669Y135115D01*
X253115Y135669D01*
X252392Y135968D01*
D02*
G37*
G36*
X185392Y126469D02*
X184608D01*
X183885Y126169D01*
X183331Y125615D01*
X183271Y125469D01*
X182729D01*
X182669Y125615D01*
X182115Y126169D01*
X181392Y126469D01*
X180608D01*
X179885Y126169D01*
X179331Y125615D01*
X179032Y124892D01*
Y124108D01*
X179331Y123385D01*
X179885Y122831D01*
X180608Y122531D01*
X181392D01*
X182115Y122831D01*
X182669Y123385D01*
X182729Y123531D01*
X183271D01*
X183331Y123385D01*
X183885Y122831D01*
X184608Y122531D01*
X185392D01*
X186115Y122831D01*
X186669Y123385D01*
X186969Y124108D01*
Y124892D01*
X186669Y125615D01*
X186115Y126169D01*
X185392Y126469D01*
D02*
G37*
G36*
X287892Y128469D02*
X287108D01*
X286385Y128169D01*
X285831Y127615D01*
X285531Y126892D01*
Y126108D01*
X285831Y125385D01*
X286385Y124831D01*
X287108Y124531D01*
X287892D01*
X288615Y124831D01*
X289169Y125385D01*
X289469Y126108D01*
Y126892D01*
X289169Y127615D01*
X288615Y128169D01*
X287892Y128469D01*
D02*
G37*
G36*
X274892Y123468D02*
X274108D01*
X273385Y123169D01*
X272831Y122615D01*
X272532Y121892D01*
Y121108D01*
X272831Y120385D01*
X273385Y119831D01*
X274108Y119532D01*
X274892D01*
X275615Y119831D01*
X276169Y120385D01*
X276468Y121108D01*
Y121892D01*
X276169Y122615D01*
X275615Y123169D01*
X274892Y123468D01*
D02*
G37*
G36*
X242892Y122968D02*
X242108D01*
X241385Y122669D01*
X240831Y122115D01*
X240531Y121392D01*
Y120608D01*
X240831Y119885D01*
X241385Y119331D01*
X242108Y119032D01*
X242892D01*
X243615Y119331D01*
X244169Y119885D01*
X244468Y120608D01*
Y121392D01*
X244169Y122115D01*
X243615Y122669D01*
X242892Y122968D01*
D02*
G37*
G36*
X238392Y113469D02*
X237608D01*
X236885Y113169D01*
X236331Y112615D01*
X236032Y111892D01*
Y111108D01*
X236331Y110385D01*
X236885Y109831D01*
X237608Y109531D01*
X238392D01*
X239115Y109831D01*
X239669Y110385D01*
X239968Y111108D01*
Y111892D01*
X239669Y112615D01*
X239115Y113169D01*
X238392Y113469D01*
D02*
G37*
%LPD*%
D62*
X80000Y205000D02*
D03*
X75000D02*
D03*
X70000D02*
D03*
X65000D02*
D03*
X60000D02*
D03*
X55000D02*
D03*
X50000D02*
D03*
X45000D02*
D03*
X40000D02*
D03*
X320000D02*
D03*
X325000D02*
D03*
X330000D02*
D03*
X335000D02*
D03*
X340000D02*
D03*
X345000D02*
D03*
X350000D02*
D03*
X355000D02*
D03*
X330000Y15000D02*
D03*
X40000D02*
D03*
X45000D02*
D03*
X50000D02*
D03*
X55000D02*
D03*
X60000D02*
D03*
X65000D02*
D03*
X70000D02*
D03*
X75000D02*
D03*
X80000D02*
D03*
D63*
X35000Y205000D02*
D03*
Y15000D02*
D03*
D64*
X50000Y50000D02*
D03*
D65*
Y110000D02*
D03*
D66*
X375000Y205000D02*
D03*
X15000D02*
D03*
X375000Y15000D02*
D03*
X15000D02*
D03*
D67*
X230500Y97500D02*
D03*
X310500Y52500D02*
D03*
X352618Y37000D02*
D03*
X322618D02*
D03*
X332500Y65000D02*
D03*
X355000Y115150D02*
D03*
X230500Y177500D02*
D03*
X245500Y32000D02*
D03*
X266000Y54000D02*
D03*
X256000D02*
D03*
X298000Y105500D02*
D03*
Y118500D02*
D03*
X341500Y76000D02*
D03*
X385500Y40000D02*
D03*
X341500Y156000D02*
D03*
X287500Y121000D02*
D03*
X242500Y108000D02*
D03*
X288500Y138000D02*
D03*
X260000Y54000D02*
D03*
X297000Y170500D02*
D03*
X292500Y177500D02*
D03*
X288500D02*
D03*
X297000Y90500D02*
D03*
X292500Y97500D02*
D03*
X288500D02*
D03*
X260000Y134000D02*
D03*
X287500Y116000D02*
D03*
X274000Y178500D02*
D03*
X288500Y134500D02*
D03*
X235500Y174500D02*
D03*
X214000Y78000D02*
D03*
X231000Y58500D02*
D03*
X279500Y98000D02*
D03*
X276000D02*
D03*
X288500Y54500D02*
D03*
Y58000D02*
D03*
X284500Y36000D02*
D03*
Y41000D02*
D03*
X231000Y45500D02*
D03*
X231500Y41000D02*
D03*
Y36000D02*
D03*
X214000Y58000D02*
D03*
Y68000D02*
D03*
Y138000D02*
D03*
Y128000D02*
D03*
Y108000D02*
D03*
Y98000D02*
D03*
Y88000D02*
D03*
X214500Y168000D02*
D03*
Y158000D02*
D03*
Y148000D02*
D03*
X231000Y138000D02*
D03*
X226000Y125500D02*
D03*
X235000Y94500D02*
D03*
X228500Y116000D02*
D03*
Y121000D02*
D03*
X231000Y125500D02*
D03*
X156000Y114500D02*
D03*
X160000D02*
D03*
X332500Y40000D02*
D03*
X354500Y52500D02*
D03*
X156000Y54500D02*
D03*
X160000D02*
D03*
D68*
X265500Y59500D02*
D03*
X254500D02*
D03*
Y80500D02*
D03*
X265500D02*
D03*
X270500Y75500D02*
D03*
Y64500D02*
D03*
X249500D02*
D03*
Y75500D02*
D03*
Y144500D02*
D03*
Y155500D02*
D03*
X270500D02*
D03*
Y144500D02*
D03*
X265500Y139500D02*
D03*
X254500D02*
D03*
X265500Y160500D02*
D03*
X254500D02*
D03*
X249500Y150000D02*
D03*
X260000Y139500D02*
D03*
X270500D02*
D03*
Y150000D02*
D03*
Y160500D02*
D03*
X260000D02*
D03*
X249500D02*
D03*
X270500Y70000D02*
D03*
Y59500D02*
D03*
X260000D02*
D03*
X249500D02*
D03*
Y70000D02*
D03*
Y80500D02*
D03*
X260000D02*
D03*
X270500D02*
D03*
M02*
