G04*
G04 #@! TF.GenerationSoftware,Altium Limited,Altium Designer,21.6.4 (81)*
G04*
G04 Layer_Physical_Order=1*
G04 Layer_Color=255*
%FSLAX25Y25*%
%MOIN*%
G70*
G04*
G04 #@! TF.SameCoordinates,D21CAB57-D7DD-4798-A039-69392B5906F0*
G04*
G04*
G04 #@! TF.FilePolarity,Positive*
G04*
G01*
G75*
%ADD13C,0.00787*%
%ADD15R,0.05807X0.01181*%
%ADD16R,0.01181X0.05807*%
%ADD18R,0.04528X0.02362*%
%ADD19R,0.00787X0.02362*%
%ADD20R,0.02362X0.00787*%
%ADD21R,0.00787X0.00591*%
%ADD22R,0.02362X0.02756*%
%ADD23R,0.03701X0.02126*%
%ADD24R,0.02126X0.03701*%
%ADD25R,0.02559X0.04331*%
%ADD26R,0.04921X0.12992*%
%ADD27R,0.01968X0.04134*%
%ADD28R,0.04606X0.04961*%
%ADD29R,0.02756X0.02362*%
%ADD30R,0.03150X0.03150*%
%ADD31R,0.04331X0.02559*%
%ADD32R,0.03543X0.03740*%
%ADD33R,0.03347X0.03937*%
%ADD34R,0.03937X0.03347*%
%ADD59R,0.25591X0.25591*%
%ADD60C,0.01181*%
%ADD61C,0.01968*%
%ADD62O,0.04095X0.04724*%
%ADD63R,0.04095X0.04724*%
%ADD64R,0.06791X0.06791*%
%ADD65C,0.06791*%
%ADD66C,0.23622*%
%ADD67C,0.02362*%
%ADD68C,0.03347*%
G36*
X252886Y188543D02*
X251845Y189058D01*
X250909Y188642D01*
Y192358D01*
X251845Y191943D01*
X252886Y192456D01*
Y188543D01*
D02*
G37*
G36*
X126886Y188319D02*
X126042Y188741D01*
X125189Y188319D01*
Y190681D01*
X126042Y190259D01*
X126886Y190681D01*
Y188319D01*
D02*
G37*
G36*
X239732Y191091D02*
Y189909D01*
X238843Y189673D01*
Y191327D01*
X239732Y191091D01*
D02*
G37*
G36*
X241091Y189319D02*
X239910Y189909D01*
Y191091D01*
X241091Y191681D01*
Y189319D01*
D02*
G37*
G36*
X137111Y190682D02*
X137656Y190827D01*
Y189173D01*
X137111Y189318D01*
X136102Y188819D01*
Y191181D01*
X137111Y190682D01*
D02*
G37*
G36*
X113232Y190091D02*
Y188909D01*
X112344Y188673D01*
Y190327D01*
X113232Y190091D01*
D02*
G37*
G36*
X116799Y188319D02*
X115618Y188909D01*
Y190091D01*
X116799Y190681D01*
Y188319D01*
D02*
G37*
G36*
X112091Y187768D02*
X110909D01*
X110673Y188656D01*
X112327D01*
X112091Y187768D01*
D02*
G37*
G36*
X261043Y187362D02*
X259862D01*
X259272Y188556D01*
X261634D01*
X261043Y187362D01*
D02*
G37*
G36*
X243563Y187707D02*
X243901Y186838D01*
X241799D01*
X242138Y187707D01*
X241669Y188654D01*
X244032D01*
X243563Y187707D01*
D02*
G37*
G36*
X145488Y186819D02*
X144693Y186358D01*
X143858Y187193D01*
X144319Y187988D01*
X145488Y186819D01*
D02*
G37*
G36*
X129159Y187000D02*
X129681Y185944D01*
X127319D01*
X127841Y187000D01*
X127319Y188056D01*
X129681D01*
X129159Y187000D01*
D02*
G37*
G36*
X112681Y185846D02*
X110319D01*
X110909Y187039D01*
X112091D01*
X112681Y185846D01*
D02*
G37*
G36*
X252056Y183772D02*
X251122Y184234D01*
X250189Y183772D01*
Y186134D01*
X251122Y185672D01*
X252056Y186134D01*
Y183772D01*
D02*
G37*
G36*
X121386Y182819D02*
X120397Y183314D01*
X119397Y182819D01*
Y185181D01*
X120397Y184686D01*
X121386Y185181D01*
Y182819D01*
D02*
G37*
G36*
X257138Y185543D02*
Y184362D01*
X255944Y183772D01*
Y186134D01*
X257138Y185543D01*
D02*
G37*
G36*
X131795Y184591D02*
Y183409D01*
X130602Y182819D01*
Y185181D01*
X131795Y184591D01*
D02*
G37*
G36*
X250201Y183162D02*
X250091Y181981D01*
X248909D01*
X248319Y183174D01*
X250201Y183162D01*
D02*
G37*
G36*
X245157Y178173D02*
X244268Y178409D01*
Y179591D01*
X245157Y179827D01*
Y178173D01*
D02*
G37*
G36*
X243882Y179591D02*
Y178409D01*
X242701Y177819D01*
Y180181D01*
X243882Y179591D01*
D02*
G37*
G36*
X194874Y177335D02*
X193681Y177925D01*
Y179106D01*
X194862Y179366D01*
X194874Y177335D01*
D02*
G37*
G36*
X246590Y177269D02*
X245409D01*
X245173Y178156D01*
X246827D01*
X246590Y177269D01*
D02*
G37*
G36*
X265512Y177682D02*
X264331Y177122D01*
X264029Y177917D01*
X265573Y178507D01*
X265512Y177682D01*
D02*
G37*
G36*
X202319Y178591D02*
Y177409D01*
X201126Y176819D01*
Y179181D01*
X202319Y178591D01*
D02*
G37*
G36*
X274590Y176769D02*
X273410D01*
X273173Y177656D01*
X274827D01*
X274590Y176769D01*
D02*
G37*
G36*
X293155Y176656D02*
X293327D01*
X293267Y176431D01*
X293681Y175594D01*
X291319D01*
X291733Y176431D01*
X291673Y176656D01*
X291845D01*
X291910Y176787D01*
X293091D01*
X293155Y176656D01*
D02*
G37*
G36*
X289155D02*
X289327D01*
X289267Y176431D01*
X289681Y175594D01*
X287319D01*
X287733Y176431D01*
X287673Y176656D01*
X287845D01*
X287910Y176787D01*
X289090D01*
X289155Y176656D01*
D02*
G37*
G36*
X236061Y176118D02*
X236272Y175394D01*
X234622Y175289D01*
X234803Y176051D01*
X234299Y177162D01*
X236401D01*
X236061Y176118D01*
D02*
G37*
G36*
X231197Y176167D02*
X231681Y175189D01*
X229319D01*
X229803Y176167D01*
X229673Y176656D01*
X231327D01*
X231197Y176167D01*
D02*
G37*
G36*
X275342Y175482D02*
X274197Y174386D01*
X273440Y175833D01*
X274275Y176668D01*
X275342Y175482D01*
D02*
G37*
G36*
X161732Y175091D02*
Y173909D01*
X160844Y173673D01*
Y175327D01*
X161732Y175091D01*
D02*
G37*
G36*
X266323Y173360D02*
X266681Y173181D01*
Y172000D01*
X266323Y171821D01*
Y171409D01*
X265909Y171614D01*
X265500Y171409D01*
Y171817D01*
X265130Y172000D01*
Y173181D01*
X265500Y173364D01*
Y173772D01*
X265909Y173567D01*
X266323Y173772D01*
Y173360D01*
D02*
G37*
G36*
X264355D02*
X264712Y173181D01*
Y172000D01*
X264355Y171821D01*
Y171409D01*
X263941Y171614D01*
X263531Y171409D01*
Y171817D01*
X263162Y172000D01*
Y173181D01*
X263531Y173364D01*
Y173772D01*
X263941Y173567D01*
X264355Y173772D01*
Y173360D01*
D02*
G37*
G36*
X260418D02*
X260775Y173181D01*
Y172000D01*
X260418Y171821D01*
Y171409D01*
X260004Y171614D01*
X259594Y171409D01*
Y171817D01*
X259225Y172000D01*
Y173181D01*
X259594Y173364D01*
Y173772D01*
X260004Y173567D01*
X260418Y173772D01*
Y173360D01*
D02*
G37*
G36*
X256481D02*
X256838Y173181D01*
Y172000D01*
X256481Y171821D01*
Y171409D01*
X256067Y171614D01*
X255657Y171409D01*
Y171817D01*
X255288Y172000D01*
Y173181D01*
X255657Y173364D01*
Y173772D01*
X256067Y173567D01*
X256481Y173772D01*
Y173360D01*
D02*
G37*
G36*
X268292Y173360D02*
X268649Y173181D01*
Y172000D01*
X268292Y171821D01*
Y171409D01*
X267878Y171614D01*
X267468Y171409D01*
Y171817D01*
X267099Y172000D01*
Y173181D01*
X267468Y173364D01*
Y173772D01*
X267878Y173567D01*
X268292Y173772D01*
Y173360D01*
D02*
G37*
G36*
X262386D02*
X262744Y173181D01*
Y172000D01*
X262386Y171821D01*
Y171409D01*
X261972Y171614D01*
X261563Y171409D01*
Y171817D01*
X261193Y172000D01*
Y173181D01*
X261563Y173364D01*
Y173772D01*
X261972Y173567D01*
X262386Y173772D01*
Y173360D01*
D02*
G37*
G36*
X258449D02*
X258807Y173181D01*
Y172000D01*
X258449Y171821D01*
Y171409D01*
X258035Y171614D01*
X257626Y171409D01*
Y171817D01*
X257256Y172000D01*
Y173181D01*
X257626Y173364D01*
Y173772D01*
X258035Y173567D01*
X258449Y173772D01*
Y173360D01*
D02*
G37*
G36*
X190653Y175071D02*
Y173890D01*
X189460Y173299D01*
Y175661D01*
X190653Y175071D01*
D02*
G37*
G36*
X117150Y163504D02*
X112228D01*
Y166299D01*
X111008Y167520D01*
X78303D01*
X76295Y165512D01*
X64697D01*
X63122Y167087D01*
X58150D01*
X57667Y166604D01*
X50000D01*
X46604Y170000D01*
X50000Y173396D01*
X57667D01*
X58150Y172913D01*
X61850D01*
X62283Y172480D01*
X111000D01*
X112228Y173709D01*
Y176496D01*
X117150D01*
Y163504D01*
D02*
G37*
G36*
X187528Y172425D02*
X186347Y172413D01*
Y173594D01*
X187528Y174185D01*
Y172425D01*
D02*
G37*
G36*
X185059Y171968D02*
X184366Y171866D01*
Y173138D01*
X185059Y173150D01*
Y171968D01*
D02*
G37*
G36*
X201925Y172394D02*
Y171606D01*
X201126Y171213D01*
Y172787D01*
X201925Y172394D01*
D02*
G37*
G36*
X194874Y170819D02*
X193681Y171409D01*
Y172591D01*
X194874Y173181D01*
Y170819D01*
D02*
G37*
G36*
X181634Y170799D02*
X180453Y171378D01*
Y172559D01*
X181634Y173138D01*
Y170799D01*
D02*
G37*
G36*
X346874Y168819D02*
X345874Y169314D01*
X345343Y169173D01*
Y170827D01*
X345874Y170686D01*
X346874Y171181D01*
Y168819D01*
D02*
G37*
G36*
X205638Y169826D02*
X204063D01*
X204457Y170626D01*
X205244D01*
X205638Y169826D01*
D02*
G37*
G36*
X297702Y169657D02*
X297827D01*
X297783Y169493D01*
X298181Y168689D01*
X295819D01*
X296217Y169493D01*
X296173Y169657D01*
X296298D01*
X296410Y169882D01*
X297590D01*
X297702Y169657D01*
D02*
G37*
G36*
X205268Y168417D02*
X204433D01*
X204457Y169621D01*
X205244D01*
X205268Y168417D01*
D02*
G37*
G36*
X189484Y167587D02*
Y166689D01*
X190653Y166110D01*
Y164929D01*
X189484Y164350D01*
Y163453D01*
X176748D01*
X176500Y163701D01*
Y168032D01*
X177681Y169213D01*
X181222D01*
Y168231D01*
X183000D01*
X184778D01*
Y169213D01*
X187858D01*
X189484Y167587D01*
D02*
G37*
G36*
X293091Y168150D02*
X291910D01*
X291319Y169343D01*
X293681D01*
X293091Y168150D01*
D02*
G37*
G36*
X289090D02*
X287910D01*
X287319Y169343D01*
X289681D01*
X289090Y168150D01*
D02*
G37*
G36*
X140772Y173748D02*
X142118Y172401D01*
X166000D01*
X169898Y176299D01*
X175279D01*
Y171968D01*
X173311Y170000D01*
X168901D01*
X166500Y167599D01*
X142114Y167599D01*
X140772Y166256D01*
Y163504D01*
X135850D01*
Y176496D01*
X140772D01*
Y173748D01*
D02*
G37*
G36*
X352559Y167453D02*
X351378D01*
X350799Y168634D01*
X353138D01*
X352559Y167453D01*
D02*
G37*
G36*
X213167Y168697D02*
X213656Y168827D01*
Y167173D01*
X213167Y167303D01*
X212189Y166819D01*
Y169181D01*
X213167Y168697D01*
D02*
G37*
G36*
X203799Y166819D02*
X202618Y167409D01*
Y168591D01*
X203799Y169181D01*
Y166819D01*
D02*
G37*
G36*
X202319Y168591D02*
Y167409D01*
X201126Y166819D01*
Y169181D01*
X202319Y168591D01*
D02*
G37*
G36*
X194874Y166819D02*
X193681Y167409D01*
Y168591D01*
X194874Y169181D01*
Y166819D01*
D02*
G37*
G36*
X228662Y166799D02*
X227481Y167260D01*
Y168441D01*
X228662Y168901D01*
Y166799D01*
D02*
G37*
G36*
X172669Y166850D02*
X171488Y166260D01*
Y168019D01*
X172669Y168032D01*
Y166850D01*
D02*
G37*
G36*
X231090Y166197D02*
X229909D01*
X229897Y166799D01*
X231103D01*
X231090Y166197D01*
D02*
G37*
G36*
X334874Y162819D02*
X333699Y163401D01*
X332843Y163173D01*
Y164827D01*
X333699Y164599D01*
X334874Y165181D01*
Y162819D01*
D02*
G37*
G36*
X165653Y165071D02*
Y163890D01*
X164460Y163299D01*
Y165661D01*
X165653Y165071D01*
D02*
G37*
G36*
X86650Y153504D02*
X80311D01*
X78303Y155512D01*
X59724D01*
X58632Y156604D01*
X50000D01*
X46604Y160000D01*
X50000Y163396D01*
X57667D01*
X58150Y162913D01*
X78146D01*
X81728Y166496D01*
X86650D01*
Y153504D01*
D02*
G37*
G36*
X343725Y162709D02*
X342532Y163299D01*
Y164480D01*
X343713Y165047D01*
X343725Y162709D01*
D02*
G37*
G36*
X342319Y164480D02*
Y163299D01*
X341126Y162709D01*
Y165071D01*
X342319Y164480D01*
D02*
G37*
G36*
X162528Y162425D02*
X161347Y162413D01*
Y163594D01*
X162528Y164185D01*
Y162425D01*
D02*
G37*
G36*
X234518Y162217D02*
X233731Y162402D01*
Y163189D01*
X234518Y163374D01*
Y162217D01*
D02*
G37*
G36*
X378449Y161772D02*
X377256Y162362D01*
Y163543D01*
X378449Y164134D01*
Y161772D01*
D02*
G37*
G36*
X160547Y161969D02*
X159366Y161378D01*
Y163138D01*
X160547Y163150D01*
Y161969D01*
D02*
G37*
G36*
X340827Y162000D02*
X341138Y161366D01*
X338799D01*
X339110Y162000D01*
X338799Y162634D01*
X341138D01*
X340827Y162000D01*
D02*
G37*
G36*
X201925Y162394D02*
Y161606D01*
X201126Y161213D01*
Y162787D01*
X201925Y162394D01*
D02*
G37*
G36*
X156634Y160799D02*
X155453Y161378D01*
Y162559D01*
X156634Y163138D01*
Y160799D01*
D02*
G37*
G36*
X194862Y160634D02*
X193681Y160795D01*
Y161976D01*
X194874Y162567D01*
X194862Y160634D01*
D02*
G37*
G36*
X299646Y162138D02*
X300106Y162272D01*
X300211Y160622D01*
X299777Y160725D01*
X298838Y160299D01*
Y162401D01*
X299646Y162138D01*
D02*
G37*
G36*
X295162Y160299D02*
X293981Y160260D01*
Y161441D01*
X295174Y162031D01*
X295162Y160299D01*
D02*
G37*
G36*
X234518Y160248D02*
X233731Y160433D01*
Y161221D01*
X234518Y161405D01*
Y160248D01*
D02*
G37*
G36*
X205638Y159826D02*
X204063D01*
X204457Y160626D01*
X205244D01*
X205638Y159826D01*
D02*
G37*
G36*
X334874Y159213D02*
X334075Y159606D01*
Y160394D01*
X334874Y160787D01*
Y159213D01*
D02*
G37*
G36*
X205268Y158417D02*
X204433D01*
X204457Y159621D01*
X205244D01*
X205268Y158417D01*
D02*
G37*
G36*
X286269Y159252D02*
Y158465D01*
X285482Y158280D01*
Y159437D01*
X286269Y159252D01*
D02*
G37*
G36*
X234518Y158280D02*
X233731Y158465D01*
Y159252D01*
X234518Y159437D01*
Y158280D01*
D02*
G37*
G36*
X164484Y157587D02*
Y156689D01*
X165653Y156110D01*
Y154929D01*
X164484Y154350D01*
Y153453D01*
X151748D01*
X151500Y153701D01*
Y158031D01*
X152681Y159213D01*
X156222D01*
Y158231D01*
X158000D01*
X159778D01*
Y159213D01*
X162858D01*
X164484Y157587D01*
D02*
G37*
G36*
X354724Y157866D02*
X353543D01*
X353268Y158732D01*
X355000D01*
X354724Y157866D01*
D02*
G37*
G36*
X110272Y163748D02*
X111618Y162401D01*
X141921D01*
X145819Y166299D01*
X150279D01*
Y161969D01*
X147524Y159213D01*
X143193D01*
X141579Y157599D01*
X111614Y157599D01*
X110272Y156256D01*
Y153504D01*
X105350D01*
Y166496D01*
X110272D01*
Y163748D01*
D02*
G37*
G36*
X194874Y157314D02*
X193681Y157905D01*
Y159086D01*
X194862Y159366D01*
X194874Y157314D01*
D02*
G37*
G36*
X213167Y158697D02*
X213656Y158827D01*
Y157173D01*
X213167Y157303D01*
X212189Y156819D01*
Y159181D01*
X213167Y158697D01*
D02*
G37*
G36*
X203799Y156819D02*
X202618Y157409D01*
Y158591D01*
X203799Y159181D01*
Y156819D01*
D02*
G37*
G36*
X202319Y158591D02*
Y157409D01*
X201126Y156819D01*
Y159181D01*
X202319Y158591D01*
D02*
G37*
G36*
X343713Y154953D02*
X342825Y155379D01*
X342417Y155256D01*
X342263Y156902D01*
X342727Y156798D01*
X343725Y157291D01*
X343713Y154953D01*
D02*
G37*
G36*
X286269Y157283D02*
Y156496D01*
X285482Y156311D01*
Y157468D01*
X286269Y157283D01*
D02*
G37*
G36*
X234518Y156311D02*
X233731Y156496D01*
Y157283D01*
X234518Y157468D01*
Y156311D01*
D02*
G37*
G36*
X147669Y156850D02*
X146488Y156260D01*
Y158019D01*
X147669Y158031D01*
Y156850D01*
D02*
G37*
G36*
X378449Y155866D02*
X377256Y156457D01*
Y157638D01*
X378449Y158228D01*
Y155866D01*
D02*
G37*
G36*
X234518Y154343D02*
X233731Y154528D01*
Y155315D01*
X234518Y155500D01*
Y154343D01*
D02*
G37*
G36*
X190653Y155071D02*
Y153890D01*
X189460Y153299D01*
Y155661D01*
X190653Y155071D01*
D02*
G37*
G36*
X117150Y143504D02*
X112228D01*
Y146299D01*
X111008Y147520D01*
X78303D01*
X76295Y145512D01*
X64697D01*
X63122Y147087D01*
X58150D01*
X57667Y146604D01*
X50000D01*
X46604Y150000D01*
X50000Y153396D01*
X57667D01*
X58150Y152913D01*
X61850D01*
X62283Y152480D01*
X111000D01*
X112228Y153709D01*
Y156496D01*
X117150D01*
Y143504D01*
D02*
G37*
G36*
X187528Y152425D02*
X186504Y152413D01*
Y153595D01*
X187528Y154028D01*
Y152425D01*
D02*
G37*
G36*
X234518Y152374D02*
X233731Y152559D01*
Y153347D01*
X234518Y153531D01*
Y152374D01*
D02*
G37*
G36*
X201925Y152394D02*
Y151606D01*
X201126Y151213D01*
Y152787D01*
X201925Y152394D01*
D02*
G37*
G36*
X185468Y152559D02*
Y151378D01*
X184366Y150866D01*
Y153071D01*
X185468Y152559D01*
D02*
G37*
G36*
X194874Y150819D02*
X193681Y151409D01*
Y152591D01*
X194874Y153181D01*
Y150819D01*
D02*
G37*
G36*
X181634Y150799D02*
X180453Y151378D01*
Y152559D01*
X181634Y153138D01*
Y150799D01*
D02*
G37*
G36*
X234518Y150406D02*
X233731Y150591D01*
Y151378D01*
X234518Y151563D01*
Y150406D01*
D02*
G37*
G36*
X205638Y149826D02*
X204063D01*
X204457Y150626D01*
X205244D01*
X205638Y149826D01*
D02*
G37*
G36*
X234518Y148437D02*
X233731Y148622D01*
Y149409D01*
X234518Y149594D01*
Y148437D01*
D02*
G37*
G36*
X205268Y148417D02*
X204433D01*
X204457Y149621D01*
X205244D01*
X205268Y148417D01*
D02*
G37*
G36*
X189484Y147587D02*
Y146689D01*
X190653Y146110D01*
Y144929D01*
X189484Y144351D01*
Y143453D01*
X176748D01*
X176500Y143701D01*
Y148031D01*
X177681Y149213D01*
X181222D01*
Y148231D01*
X183000D01*
X184778D01*
Y149213D01*
X187858D01*
X189484Y147587D01*
D02*
G37*
G36*
X140772Y153748D02*
X142118Y152401D01*
X166000D01*
X169898Y156299D01*
X175279D01*
Y151969D01*
X173311Y150000D01*
X168901D01*
X166500Y147599D01*
X142114Y147599D01*
X140772Y146256D01*
Y143504D01*
X135850D01*
Y156496D01*
X140772D01*
Y153748D01*
D02*
G37*
G36*
X213167Y148697D02*
X213656Y148827D01*
Y147173D01*
X213167Y147303D01*
X212189Y146819D01*
Y149181D01*
X213167Y148697D01*
D02*
G37*
G36*
X203799Y146819D02*
X202618Y147409D01*
Y148591D01*
X203799Y149181D01*
Y146819D01*
D02*
G37*
G36*
X202319Y148591D02*
Y147409D01*
X201126Y146819D01*
Y149181D01*
X202319Y148591D01*
D02*
G37*
G36*
X194874Y146819D02*
X193681Y147409D01*
Y148591D01*
X194874Y149181D01*
Y146819D01*
D02*
G37*
G36*
X234518Y146469D02*
X233731Y146653D01*
Y147441D01*
X234518Y147626D01*
Y146469D01*
D02*
G37*
G36*
X172669Y146850D02*
X171488Y146260D01*
Y148020D01*
X172669Y148031D01*
Y146850D01*
D02*
G37*
G36*
X234518Y144500D02*
X233731Y144685D01*
Y145472D01*
X234518Y145657D01*
Y144500D01*
D02*
G37*
G36*
X165653Y145071D02*
Y143890D01*
X164460Y143299D01*
Y145661D01*
X165653Y145071D01*
D02*
G37*
G36*
X86650Y133504D02*
X80311D01*
X78303Y135512D01*
X59724D01*
X58632Y136604D01*
X50000D01*
X46604Y140000D01*
X50000Y143396D01*
X57667D01*
X58150Y142913D01*
X78146D01*
X81728Y146496D01*
X86650D01*
Y133504D01*
D02*
G37*
G36*
X234518Y142532D02*
X233731Y142717D01*
Y143504D01*
X234518Y143689D01*
Y142532D01*
D02*
G37*
G36*
X162528Y142425D02*
X161504Y142413D01*
Y143595D01*
X162528Y144028D01*
Y142425D01*
D02*
G37*
G36*
X201925Y142394D02*
Y141606D01*
X201126Y141213D01*
Y142787D01*
X201925Y142394D01*
D02*
G37*
G36*
X160468Y142559D02*
Y141378D01*
X159366Y140866D01*
Y143071D01*
X160468Y142559D01*
D02*
G37*
G36*
X156634Y140799D02*
X155453Y141378D01*
Y142559D01*
X156634Y143138D01*
Y140799D01*
D02*
G37*
G36*
X194862Y140634D02*
X193681Y140909D01*
Y142091D01*
X194874Y142681D01*
X194862Y140634D01*
D02*
G37*
G36*
X234518Y140563D02*
X233731Y140748D01*
Y141535D01*
X234518Y141720D01*
Y140563D01*
D02*
G37*
G36*
X205638Y139826D02*
X204063D01*
X204457Y140626D01*
X205244D01*
X205638Y139826D01*
D02*
G37*
G36*
X205268Y138417D02*
X204433D01*
X204457Y139621D01*
X205244D01*
X205268Y138417D01*
D02*
G37*
G36*
X288174Y139135D02*
X287343Y138238D01*
X286845Y138755D01*
X287680Y139591D01*
X288174Y139135D01*
D02*
G37*
G36*
X164484Y137587D02*
Y136689D01*
X165653Y136110D01*
Y134929D01*
X164484Y134351D01*
Y133453D01*
X151748D01*
X151500Y133701D01*
Y138031D01*
X152681Y139213D01*
X156222D01*
Y138232D01*
X158000D01*
X159778D01*
Y139213D01*
X162858D01*
X164484Y137587D01*
D02*
G37*
G36*
X110272Y143748D02*
X111618Y142401D01*
X141921D01*
X145819Y146299D01*
X150279D01*
Y141969D01*
X147524Y139213D01*
X143193D01*
X141579Y137599D01*
X111614Y137599D01*
X110272Y136256D01*
Y133504D01*
X105350D01*
Y146496D01*
X110272D01*
Y143748D01*
D02*
G37*
G36*
X283364Y138595D02*
X283772D01*
X283567Y138185D01*
X283772Y137771D01*
X283360D01*
X283181Y137414D01*
X282000D01*
X281821Y137771D01*
X281410D01*
X281614Y138185D01*
X281410Y138595D01*
X281817D01*
X282000Y138964D01*
X283181D01*
X283364Y138595D01*
D02*
G37*
G36*
X194874Y137385D02*
X193681Y137976D01*
Y139157D01*
X194862Y139366D01*
X194874Y137385D01*
D02*
G37*
G36*
X232732Y138591D02*
Y137409D01*
X231843Y137173D01*
Y138827D01*
X232732Y138591D01*
D02*
G37*
G36*
X212993Y138783D02*
X213157Y138827D01*
Y138702D01*
X213382Y138591D01*
Y137409D01*
X213157Y137298D01*
Y137173D01*
X212993Y137217D01*
X212189Y136819D01*
Y139181D01*
X212993Y138783D01*
D02*
G37*
G36*
X203799Y136819D02*
X202618Y137409D01*
Y138591D01*
X203799Y139181D01*
Y136819D01*
D02*
G37*
G36*
X202319Y138591D02*
Y137409D01*
X201126Y136819D01*
Y139181D01*
X202319Y138591D01*
D02*
G37*
G36*
X147669Y136850D02*
X146488Y136260D01*
Y138020D01*
X147669Y138031D01*
Y136850D01*
D02*
G37*
G36*
X226787Y135701D02*
X225213D01*
X225606Y136488D01*
X226394D01*
X226787Y135701D01*
D02*
G37*
G36*
X283364Y136626D02*
X283772D01*
X283567Y136217D01*
X283772Y135803D01*
X283360D01*
X283181Y135445D01*
X282000D01*
X281821Y135803D01*
X281410D01*
X281614Y136217D01*
X281410Y136626D01*
X281817D01*
X282000Y136996D01*
X283181D01*
X283364Y136626D01*
D02*
G37*
G36*
X224174Y133862D02*
X223374Y134256D01*
Y135043D01*
X224174Y135437D01*
Y133862D01*
D02*
G37*
G36*
X190653Y135071D02*
Y133890D01*
X189460Y133299D01*
Y135661D01*
X190653Y135071D01*
D02*
G37*
G36*
X117150Y123504D02*
X112228D01*
Y126299D01*
X111008Y127520D01*
X78303D01*
X76295Y125512D01*
X64697D01*
X63122Y127087D01*
X58150D01*
X57667Y126604D01*
X50000D01*
X46604Y130000D01*
X50000Y133396D01*
X57667D01*
X58150Y132913D01*
X61850D01*
X62283Y132480D01*
X111000D01*
X112228Y133709D01*
Y136496D01*
X117150D01*
Y123504D01*
D02*
G37*
G36*
X187528Y132425D02*
X186504Y132413D01*
Y133595D01*
X187528Y134028D01*
Y132425D01*
D02*
G37*
G36*
X201925Y132394D02*
Y131606D01*
X201126Y131213D01*
Y132787D01*
X201925Y132394D01*
D02*
G37*
G36*
X185468Y132559D02*
Y131378D01*
X184366Y130866D01*
Y133071D01*
X185468Y132559D01*
D02*
G37*
G36*
X194874Y130819D02*
X193681Y131409D01*
Y132591D01*
X194874Y133181D01*
Y130819D01*
D02*
G37*
G36*
X181634Y130799D02*
X180453Y131378D01*
Y132559D01*
X181634Y133138D01*
Y130799D01*
D02*
G37*
G36*
X205638Y129826D02*
X204063D01*
X204457Y130626D01*
X205244D01*
X205638Y129826D01*
D02*
G37*
G36*
X376874Y129213D02*
X376075Y129606D01*
Y130394D01*
X376874Y130787D01*
Y129213D01*
D02*
G37*
G36*
X383952Y130772D02*
X384156Y130827D01*
Y130671D01*
X384319Y130591D01*
Y129409D01*
X384156Y129329D01*
Y129173D01*
X383952Y129228D01*
X383126Y128819D01*
Y131181D01*
X383952Y130772D01*
D02*
G37*
G36*
X205268Y128417D02*
X204433D01*
X204457Y129621D01*
X205244D01*
X205268Y128417D01*
D02*
G37*
G36*
X189484Y127587D02*
Y126689D01*
X190653Y126110D01*
Y124929D01*
X189484Y124351D01*
Y123453D01*
X176748D01*
X176500Y123701D01*
Y128032D01*
X177681Y129213D01*
X181222D01*
Y128232D01*
X183000D01*
X184778D01*
Y129213D01*
X187858D01*
X189484Y127587D01*
D02*
G37*
G36*
X378425Y127847D02*
X377638D01*
X377244Y128634D01*
X378819D01*
X378425Y127847D01*
D02*
G37*
G36*
X140772Y133748D02*
X142118Y132401D01*
X166000D01*
X169898Y136299D01*
X175279D01*
Y131968D01*
X173311Y130000D01*
X168901D01*
X166500Y127599D01*
X142114Y127599D01*
X140772Y126256D01*
Y123504D01*
X135850D01*
Y136496D01*
X140772D01*
Y133748D01*
D02*
G37*
G36*
X212993Y128783D02*
X213157Y128827D01*
Y128702D01*
X213382Y128591D01*
Y127409D01*
X213157Y127298D01*
Y127173D01*
X212993Y127217D01*
X212189Y126819D01*
Y129181D01*
X212993Y128783D01*
D02*
G37*
G36*
X203799Y126819D02*
X202618Y127409D01*
Y128591D01*
X203799Y129181D01*
Y126819D01*
D02*
G37*
G36*
X202319Y128591D02*
Y127409D01*
X201126Y126819D01*
Y129181D01*
X202319Y128591D01*
D02*
G37*
G36*
X194874Y126819D02*
X193681Y127409D01*
Y128591D01*
X194874Y129181D01*
Y126819D01*
D02*
G37*
G36*
X172669Y126850D02*
X171488Y126260D01*
Y128019D01*
X172669Y128032D01*
Y126850D01*
D02*
G37*
G36*
X231783Y126507D02*
X231827Y126344D01*
X231702D01*
X231591Y126118D01*
X230410D01*
X230298Y126344D01*
X230173D01*
X230217Y126507D01*
X229819Y127311D01*
X232181D01*
X231783Y126507D01*
D02*
G37*
G36*
X226783D02*
X226827Y126344D01*
X226702D01*
X226590Y126118D01*
X225410D01*
X225298Y126344D01*
X225173D01*
X225217Y126507D01*
X224819Y127311D01*
X227181D01*
X226783Y126507D01*
D02*
G37*
G36*
X286656Y125673D02*
X285769Y125909D01*
Y127091D01*
X286656Y127327D01*
Y125673D01*
D02*
G37*
G36*
X276523Y127091D02*
Y125909D01*
X275342Y125319D01*
Y127681D01*
X276523Y127091D01*
D02*
G37*
G36*
X244658Y124518D02*
X243477Y124506D01*
Y125687D01*
X244670Y126277D01*
X244658Y124518D01*
D02*
G37*
G36*
X253456Y123868D02*
X252669D01*
X252532Y124518D01*
X253689D01*
X253456Y123868D01*
D02*
G37*
G36*
X269252Y123731D02*
X268465D01*
X268280Y124518D01*
X269437D01*
X269252Y123731D01*
D02*
G37*
G36*
X267284D02*
X266496D01*
X266311Y124518D01*
X267468D01*
X267284Y123731D01*
D02*
G37*
G36*
X265315D02*
X264528D01*
X264343Y124518D01*
X265500D01*
X265315Y123731D01*
D02*
G37*
G36*
X263347D02*
X262559D01*
X262374Y124518D01*
X263531D01*
X263347Y123731D01*
D02*
G37*
G36*
X259409D02*
X258622D01*
X258437Y124518D01*
X259594D01*
X259409Y123731D01*
D02*
G37*
G36*
X257441D02*
X256653D01*
X256469Y124518D01*
X257626D01*
X257441Y123731D01*
D02*
G37*
G36*
X255472D02*
X254685D01*
X254500Y124518D01*
X255657D01*
X255472Y123731D01*
D02*
G37*
G36*
X86650Y113504D02*
X80311D01*
X78303Y115512D01*
X59724D01*
X58632Y116604D01*
X50000D01*
X46604Y120000D01*
X50000Y123396D01*
X57667D01*
X58150Y122913D01*
X78146D01*
X81728Y126496D01*
X86650D01*
Y113504D01*
D02*
G37*
G36*
X278901Y122838D02*
X276799D01*
X277292Y124020D01*
X278473D01*
X278901Y122838D01*
D02*
G37*
G36*
X162528Y122425D02*
X161504Y122413D01*
Y123594D01*
X162528Y124028D01*
Y122425D01*
D02*
G37*
G36*
X276799Y120319D02*
X275831Y120803D01*
X275343Y120673D01*
Y122327D01*
X275831Y122197D01*
X276799Y122681D01*
Y120319D01*
D02*
G37*
G36*
X230811Y119819D02*
X229833Y120303D01*
X229344Y120173D01*
Y121827D01*
X229833Y121697D01*
X230811Y122181D01*
Y119819D01*
D02*
G37*
G36*
X378819Y121354D02*
X377244D01*
X377638Y122153D01*
X378425D01*
X378819Y121354D01*
D02*
G37*
G36*
X201925Y122394D02*
Y121606D01*
X201126Y121213D01*
Y122787D01*
X201925Y122394D01*
D02*
G37*
G36*
X240036Y122838D02*
X239201Y121168D01*
X237530Y122838D01*
X239201Y123674D01*
X240036Y122838D01*
D02*
G37*
G36*
X160468Y122559D02*
Y121378D01*
X159366Y120866D01*
Y123071D01*
X160468Y122559D01*
D02*
G37*
G36*
X156634Y120799D02*
X155453Y121378D01*
Y122559D01*
X156634Y123138D01*
Y120799D01*
D02*
G37*
G36*
X194862Y120634D02*
X193681Y120809D01*
Y121991D01*
X194874Y122581D01*
X194862Y120634D01*
D02*
G37*
G36*
X286167Y121697D02*
X286656Y121827D01*
Y120173D01*
X286167Y120303D01*
X285189Y119819D01*
Y122181D01*
X286167Y121697D01*
D02*
G37*
G36*
X244232Y121591D02*
Y120409D01*
X243343Y120173D01*
Y121827D01*
X244232Y121591D01*
D02*
G37*
G36*
X267787Y119126D02*
X266213D01*
X266606Y119925D01*
X267394D01*
X267787Y119126D01*
D02*
G37*
G36*
X259803D02*
X258228D01*
X258622Y119925D01*
X259409D01*
X259803Y119126D01*
D02*
G37*
G36*
X255787D02*
X254213D01*
X254606Y119925D01*
X255394D01*
X255787Y119126D01*
D02*
G37*
G36*
X252366Y119138D02*
X251138Y119126D01*
X251418Y119811D01*
X252205D01*
X252366Y119138D01*
D02*
G37*
G36*
X164484Y117587D02*
Y116518D01*
X165500Y116091D01*
Y114909D01*
X164484Y114482D01*
Y113453D01*
X151748D01*
X151500Y113701D01*
Y118032D01*
X152681Y119213D01*
X156222D01*
Y118231D01*
X158000D01*
X159778D01*
Y119213D01*
X162858D01*
X164484Y117587D01*
D02*
G37*
G36*
X243110Y119342D02*
X243681Y118201D01*
X241319D01*
X241890Y119342D01*
X241673Y120157D01*
X243327D01*
X243110Y119342D01*
D02*
G37*
G36*
X278643Y118500D02*
X278901Y117838D01*
X276799D01*
X277057Y118500D01*
X276799Y119162D01*
X278901D01*
X278643Y118500D01*
D02*
G37*
G36*
X238943D02*
X239201Y117838D01*
X237099D01*
X237356Y118500D01*
X237099Y119162D01*
X239201D01*
X238943Y118500D01*
D02*
G37*
G36*
X110272Y123748D02*
X111618Y122401D01*
X141921D01*
X145819Y126299D01*
X150279D01*
Y121968D01*
X147524Y119213D01*
X143193D01*
X141579Y117599D01*
X111614Y117599D01*
X110272Y116256D01*
Y113504D01*
X105350D01*
Y126496D01*
X110272D01*
Y123748D01*
D02*
G37*
G36*
X382559Y117453D02*
X381378D01*
X380799Y118634D01*
X383138D01*
X382559Y117453D01*
D02*
G37*
G36*
X194874Y117419D02*
X193681Y118009D01*
Y119191D01*
X194862Y119366D01*
X194874Y117419D01*
D02*
G37*
G36*
X201925Y118394D02*
Y117606D01*
X201126Y117213D01*
Y118787D01*
X201925Y118394D01*
D02*
G37*
G36*
X230811Y114819D02*
X229833Y115303D01*
X229344Y115173D01*
Y116827D01*
X229833Y116697D01*
X230811Y117181D01*
Y114819D01*
D02*
G37*
G36*
X147669Y116850D02*
X146488Y116260D01*
Y118019D01*
X147669Y118032D01*
Y116850D01*
D02*
G37*
G36*
X298697Y117169D02*
X299181Y116201D01*
X296819D01*
X297303Y117169D01*
X297173Y117657D01*
X298827D01*
X298697Y117169D01*
D02*
G37*
G36*
X196622Y115969D02*
X195441D01*
X195366Y116634D01*
X196697D01*
X196622Y115969D01*
D02*
G37*
G36*
X286167Y116697D02*
X286656Y116827D01*
Y115173D01*
X286167Y115303D01*
X285189Y114819D01*
Y117181D01*
X286167Y116697D01*
D02*
G37*
G36*
X356732Y115740D02*
Y114559D01*
X355843Y114323D01*
Y115976D01*
X356732Y115740D01*
D02*
G37*
G36*
X212350Y115591D02*
Y114409D01*
X211157Y113819D01*
Y116181D01*
X212350Y115591D01*
D02*
G37*
G36*
X204906Y113819D02*
X203713Y114409D01*
Y115591D01*
X204906Y116181D01*
Y113819D01*
D02*
G37*
G36*
X190653Y115071D02*
Y113890D01*
X189460Y113299D01*
Y115661D01*
X190653Y115071D01*
D02*
G37*
G36*
X117150Y103504D02*
X112228D01*
Y106299D01*
X111008Y107520D01*
X78303D01*
X76295Y105512D01*
X64697D01*
X63122Y107087D01*
X58150D01*
X57667Y106604D01*
X50000D01*
X46604Y110000D01*
X50000Y113396D01*
X57667D01*
X58150Y112913D01*
X61850D01*
X62283Y112480D01*
X111000D01*
X112228Y113709D01*
Y116496D01*
X117150D01*
Y103504D01*
D02*
G37*
G36*
X187528Y112425D02*
X186504Y112413D01*
Y113594D01*
X187528Y114028D01*
Y112425D01*
D02*
G37*
G36*
X238697Y113051D02*
X238878Y112289D01*
X237228Y112394D01*
X237439Y113118D01*
X237099Y114162D01*
X239201D01*
X238697Y113051D01*
D02*
G37*
G36*
X267394Y112075D02*
X266606D01*
X266213Y112874D01*
X267787D01*
X267394Y112075D01*
D02*
G37*
G36*
X259394D02*
X258606D01*
X258213Y112874D01*
X259787D01*
X259394Y112075D01*
D02*
G37*
G36*
X255394D02*
X254606D01*
X254213Y112874D01*
X255787D01*
X255394Y112075D01*
D02*
G37*
G36*
X251394D02*
X250606D01*
X250213Y112874D01*
X251787D01*
X251394Y112075D01*
D02*
G37*
G36*
X201925Y112394D02*
Y111606D01*
X201126Y111213D01*
Y112787D01*
X201925Y112394D01*
D02*
G37*
G36*
X275787Y111126D02*
X274213D01*
X274606Y111925D01*
X275394D01*
X275787Y111126D01*
D02*
G37*
G36*
X271787D02*
X270213D01*
X270606Y111925D01*
X271394D01*
X271787Y111126D01*
D02*
G37*
G36*
X263740D02*
X262165D01*
X262559Y111925D01*
X263347D01*
X263740Y111126D01*
D02*
G37*
G36*
X247787D02*
X246213D01*
X246606Y111925D01*
X247394D01*
X247787Y111126D01*
D02*
G37*
G36*
X185468Y112559D02*
Y111378D01*
X184366Y110866D01*
Y113071D01*
X185468Y112559D01*
D02*
G37*
G36*
X194874Y110819D02*
X193681Y111409D01*
Y112591D01*
X194874Y113181D01*
Y110819D01*
D02*
G37*
G36*
X181634Y110799D02*
X180453Y111378D01*
Y112559D01*
X181634Y113138D01*
Y110799D01*
D02*
G37*
G36*
X243283Y109007D02*
X243327Y108844D01*
X243202D01*
X243091Y108618D01*
X241910D01*
X241798Y108844D01*
X241673D01*
X241717Y109007D01*
X241319Y109811D01*
X243681D01*
X243283Y109007D01*
D02*
G37*
G36*
X189484Y107587D02*
Y106689D01*
X190653Y106110D01*
Y104929D01*
X189484Y104350D01*
Y103453D01*
X176748D01*
X176500Y103701D01*
Y108031D01*
X177681Y109213D01*
X181222D01*
Y108231D01*
X183000D01*
X184778D01*
Y109213D01*
X187858D01*
X189484Y107587D01*
D02*
G37*
G36*
X140772Y113748D02*
X142118Y112401D01*
X166000D01*
X169898Y116299D01*
X175279D01*
Y111969D01*
X173311Y110000D01*
X168901D01*
X166500Y107599D01*
X142114Y107599D01*
X140772Y106256D01*
Y103504D01*
X135850D01*
Y116496D01*
X140772D01*
Y113748D01*
D02*
G37*
G36*
X212993Y108783D02*
X213157Y108827D01*
Y108702D01*
X213382Y108591D01*
Y107409D01*
X213157Y107298D01*
Y107173D01*
X212993Y107217D01*
X212189Y106819D01*
Y109181D01*
X212993Y108783D01*
D02*
G37*
G36*
X203799Y106819D02*
X202618Y107409D01*
Y108591D01*
X203799Y109181D01*
Y106819D01*
D02*
G37*
G36*
X202319Y108591D02*
Y107409D01*
X201126Y106819D01*
Y109181D01*
X202319Y108591D01*
D02*
G37*
G36*
X194874Y106819D02*
X193681Y107409D01*
Y108591D01*
X194874Y109181D01*
Y106819D01*
D02*
G37*
G36*
X205244Y106379D02*
X204457D01*
X204433Y107583D01*
X205268D01*
X205244Y106379D01*
D02*
G37*
G36*
X298697Y106833D02*
X298827Y106343D01*
X297173D01*
X297303Y106833D01*
X296819Y107811D01*
X299181D01*
X298697Y106833D01*
D02*
G37*
G36*
X172669Y106850D02*
X171488Y106260D01*
Y108019D01*
X172669Y108031D01*
Y106850D01*
D02*
G37*
G36*
X205244Y105374D02*
X204457D01*
X204063Y106174D01*
X205638D01*
X205244Y105374D01*
D02*
G37*
G36*
X248366Y104862D02*
X248205Y104189D01*
X247418D01*
X247138Y104874D01*
X248366Y104862D01*
D02*
G37*
G36*
X275394Y104075D02*
X274606D01*
X274213Y104874D01*
X275787D01*
X275394Y104075D01*
D02*
G37*
G36*
X271394D02*
X270606D01*
X270213Y104874D01*
X271787D01*
X271394Y104075D01*
D02*
G37*
G36*
X263347D02*
X262559D01*
X262165Y104874D01*
X263740D01*
X263347Y104075D01*
D02*
G37*
G36*
X86650Y93504D02*
X80311D01*
X78303Y95512D01*
X59724D01*
X58632Y96604D01*
X50000D01*
X46604Y100000D01*
X50000Y103396D01*
X57667D01*
X58150Y102913D01*
X78146D01*
X81728Y106496D01*
X86650D01*
Y93504D01*
D02*
G37*
G36*
X162528Y102425D02*
X161504Y102413D01*
Y103595D01*
X162528Y104028D01*
Y102425D01*
D02*
G37*
G36*
X201925Y102394D02*
Y101606D01*
X201126Y101213D01*
Y102787D01*
X201925Y102394D01*
D02*
G37*
G36*
X160468Y102559D02*
Y101378D01*
X159366Y100866D01*
Y103071D01*
X160468Y102559D01*
D02*
G37*
G36*
X156634Y100799D02*
X155453Y101378D01*
Y102559D01*
X156634Y103138D01*
Y100799D01*
D02*
G37*
G36*
X194862Y100634D02*
X193681Y100810D01*
Y101990D01*
X194874Y102581D01*
X194862Y100634D01*
D02*
G37*
G36*
X164484Y97587D02*
Y96689D01*
X165653Y96110D01*
Y94929D01*
X164484Y94350D01*
Y93453D01*
X151748D01*
X151500Y93701D01*
Y98032D01*
X152681Y99213D01*
X156222D01*
Y98232D01*
X158000D01*
X159778D01*
Y99213D01*
X162858D01*
X164484Y97587D01*
D02*
G37*
G36*
X110272Y103748D02*
X111618Y102401D01*
X141921D01*
X145819Y106299D01*
X150279D01*
Y101969D01*
X147524Y99213D01*
X143193D01*
X141579Y97599D01*
X111614Y97599D01*
X110272Y96256D01*
Y93504D01*
X105350D01*
Y106496D01*
X110272D01*
Y103748D01*
D02*
G37*
G36*
X194874Y97419D02*
X193681Y98010D01*
Y99190D01*
X194862Y99366D01*
X194874Y97419D01*
D02*
G37*
G36*
X275156Y97173D02*
X274269Y97409D01*
Y98590D01*
X275156Y98827D01*
Y97173D01*
D02*
G37*
G36*
X212993Y98783D02*
X213157Y98827D01*
Y98702D01*
X213382Y98590D01*
Y97409D01*
X213157Y97298D01*
Y97173D01*
X212993Y97217D01*
X212189Y96819D01*
Y99181D01*
X212993Y98783D01*
D02*
G37*
G36*
X244169Y99984D02*
Y98016D01*
X242201Y97162D01*
Y100838D01*
X244169Y99984D01*
D02*
G37*
G36*
X246746Y98156D02*
X246827D01*
X246664Y97543D01*
X246590Y97000D01*
X245409D01*
X245336Y97543D01*
X245173Y98156D01*
X245254D01*
X245221Y98398D01*
X246778D01*
X246746Y98156D01*
D02*
G37*
G36*
X203799Y96819D02*
X202618Y97409D01*
Y98590D01*
X203799Y99181D01*
Y96819D01*
D02*
G37*
G36*
X202319Y98590D02*
Y97409D01*
X201126Y96819D01*
Y99181D01*
X202319Y98590D01*
D02*
G37*
G36*
X205244Y96379D02*
X204457D01*
X204433Y97583D01*
X205268D01*
X205244Y96379D01*
D02*
G37*
G36*
X279488Y96819D02*
X278693Y96358D01*
X277858Y97193D01*
X278319Y97988D01*
X279488Y96819D01*
D02*
G37*
G36*
X147669Y96850D02*
X146488Y96260D01*
Y98019D01*
X147669Y98032D01*
Y96850D01*
D02*
G37*
G36*
X293171Y96657D02*
X293327D01*
X293272Y96452D01*
X293681Y95626D01*
X291319D01*
X291728Y96452D01*
X291673Y96657D01*
X291829D01*
X291910Y96819D01*
X293091D01*
X293171Y96657D01*
D02*
G37*
G36*
X289171D02*
X289327D01*
X289272Y96452D01*
X289681Y95626D01*
X287319D01*
X287728Y96452D01*
X287673Y96657D01*
X287829D01*
X287910Y96819D01*
X289090D01*
X289171Y96657D01*
D02*
G37*
G36*
X269437Y95482D02*
X268280D01*
X268465Y96270D01*
X269252D01*
X269437Y95482D01*
D02*
G37*
G36*
X267468D02*
X266311D01*
X266496Y96270D01*
X267284D01*
X267468Y95482D01*
D02*
G37*
G36*
X265500D02*
X264343D01*
X264528Y96270D01*
X265315D01*
X265500Y95482D01*
D02*
G37*
G36*
X263531D02*
X262374D01*
X262559Y96270D01*
X263347D01*
X263531Y95482D01*
D02*
G37*
G36*
X261563D02*
X260406D01*
X260591Y96270D01*
X261378D01*
X261563Y95482D01*
D02*
G37*
G36*
X259594D02*
X258437D01*
X258622Y96270D01*
X259409D01*
X259594Y95482D01*
D02*
G37*
G36*
X257626D02*
X256469D01*
X256653Y96270D01*
X257441D01*
X257626Y95482D01*
D02*
G37*
G36*
X255657D02*
X254500D01*
X254685Y96270D01*
X255472D01*
X255657Y95482D01*
D02*
G37*
G36*
X205244Y95374D02*
X204457D01*
X204063Y96174D01*
X205638D01*
X205244Y95374D01*
D02*
G37*
G36*
X235560Y96118D02*
X235772Y95394D01*
X234121Y95289D01*
X234303Y96051D01*
X233799Y97162D01*
X235901D01*
X235560Y96118D01*
D02*
G37*
G36*
X231197Y96167D02*
X231681Y95189D01*
X229319D01*
X229803Y96167D01*
X229673Y96657D01*
X231327D01*
X231197Y96167D01*
D02*
G37*
G36*
X276403Y94313D02*
X275342Y93842D01*
Y95482D01*
X276403Y95494D01*
Y94313D01*
D02*
G37*
G36*
X190653Y95071D02*
Y93890D01*
X189460Y93299D01*
Y95661D01*
X190653Y95071D01*
D02*
G37*
G36*
X117150Y83504D02*
X112228D01*
Y86299D01*
X111008Y87520D01*
X78303D01*
X76295Y85512D01*
X64697D01*
X63122Y87087D01*
X58150D01*
X57667Y86604D01*
X50000D01*
X46604Y90000D01*
X50000Y93396D01*
X57667D01*
X58150Y92913D01*
X61850D01*
X62283Y92480D01*
X111000D01*
X112228Y93709D01*
Y96496D01*
X117150D01*
Y83504D01*
D02*
G37*
G36*
X187528Y92425D02*
X186504Y92413D01*
Y93594D01*
X187528Y94028D01*
Y92425D01*
D02*
G37*
G36*
X201925Y92394D02*
Y91606D01*
X201126Y91213D01*
Y92787D01*
X201925Y92394D01*
D02*
G37*
G36*
X185468Y92559D02*
Y91378D01*
X184366Y90866D01*
Y93071D01*
X185468Y92559D01*
D02*
G37*
G36*
X194874Y90819D02*
X193681Y91409D01*
Y92590D01*
X194874Y93181D01*
Y90819D01*
D02*
G37*
G36*
X181634Y90799D02*
X180453Y91378D01*
Y92559D01*
X181634Y93138D01*
Y90799D01*
D02*
G37*
G36*
X346874Y88819D02*
X345874Y89314D01*
X345343Y89173D01*
Y90827D01*
X345874Y90686D01*
X346874Y91181D01*
Y88819D01*
D02*
G37*
G36*
X297702Y89657D02*
X297827D01*
X297783Y89493D01*
X298181Y88689D01*
X295819D01*
X296217Y89493D01*
X296173Y89657D01*
X296298D01*
X296410Y89882D01*
X297590D01*
X297702Y89657D01*
D02*
G37*
G36*
X189484Y87587D02*
Y86689D01*
X190653Y86110D01*
Y84929D01*
X189484Y84351D01*
Y83453D01*
X176748D01*
X176500Y83701D01*
Y88032D01*
X177681Y89213D01*
X181222D01*
Y88231D01*
X183000D01*
X184778D01*
Y89213D01*
X187858D01*
X189484Y87587D01*
D02*
G37*
G36*
X293091Y88181D02*
X291910D01*
X291319Y89374D01*
X293681D01*
X293091Y88181D01*
D02*
G37*
G36*
X289090D02*
X287910D01*
X287319Y89374D01*
X289681D01*
X289090Y88181D01*
D02*
G37*
G36*
X140772Y93748D02*
X142118Y92401D01*
X166000D01*
X169898Y96299D01*
X175279D01*
Y91969D01*
X173311Y90000D01*
X168901D01*
X166500Y87599D01*
X142114Y87599D01*
X140772Y86256D01*
Y83504D01*
X135850D01*
Y96496D01*
X140772D01*
Y93748D01*
D02*
G37*
G36*
X352559Y87453D02*
X351378D01*
X350799Y88634D01*
X353138D01*
X352559Y87453D01*
D02*
G37*
G36*
X228674Y87338D02*
X228000Y87410D01*
Y88591D01*
X228674Y88662D01*
Y87338D01*
D02*
G37*
G36*
X212993Y88783D02*
X213157Y88827D01*
Y88702D01*
X213382Y88591D01*
Y87410D01*
X213157Y87298D01*
Y87173D01*
X212993Y87217D01*
X212189Y86819D01*
Y89181D01*
X212993Y88783D01*
D02*
G37*
G36*
X203799Y86819D02*
X202618Y87410D01*
Y88591D01*
X203799Y89181D01*
Y86819D01*
D02*
G37*
G36*
X202319Y88591D02*
Y87410D01*
X201126Y86819D01*
Y89181D01*
X202319Y88591D01*
D02*
G37*
G36*
X194874Y86819D02*
X193681Y87410D01*
Y88591D01*
X194874Y89181D01*
Y86819D01*
D02*
G37*
G36*
X205244Y86379D02*
X204457D01*
X204433Y87583D01*
X205268D01*
X205244Y86379D01*
D02*
G37*
G36*
X172669Y86850D02*
X171488Y86260D01*
Y88020D01*
X172669Y88032D01*
Y86850D01*
D02*
G37*
G36*
X254988Y87181D02*
X253819Y86012D01*
X253358Y86807D01*
X254193Y87642D01*
X254988Y87181D01*
D02*
G37*
G36*
X250642Y86807D02*
X250181Y86012D01*
X249012Y87181D01*
X249807Y87642D01*
X250642Y86807D01*
D02*
G37*
G36*
X231090Y86000D02*
X229909D01*
X229701Y86799D01*
X231299D01*
X231090Y86000D01*
D02*
G37*
G36*
X205244Y85374D02*
X204457D01*
X204063Y86174D01*
X205638D01*
X205244Y85374D01*
D02*
G37*
G36*
X334874Y82819D02*
X333699Y83401D01*
X332843Y83173D01*
Y84827D01*
X333699Y84599D01*
X334874Y85181D01*
Y82819D01*
D02*
G37*
G36*
X165653Y85071D02*
Y83890D01*
X164460Y83299D01*
Y85661D01*
X165653Y85071D01*
D02*
G37*
G36*
X86650Y73504D02*
X80311D01*
X78303Y75512D01*
X59724D01*
X58632Y76604D01*
X50000D01*
X46604Y80000D01*
X50000Y83396D01*
X57667D01*
X58150Y82913D01*
X78146D01*
X81728Y86496D01*
X86650D01*
Y73504D01*
D02*
G37*
G36*
X343725Y82709D02*
X342532Y83299D01*
Y84480D01*
X343713Y85047D01*
X343725Y82709D01*
D02*
G37*
G36*
X342319Y84480D02*
Y83299D01*
X341126Y82709D01*
Y85071D01*
X342319Y84480D01*
D02*
G37*
G36*
X162528Y82425D02*
X161504Y82413D01*
Y83595D01*
X162528Y84028D01*
Y82425D01*
D02*
G37*
G36*
X234518Y82217D02*
X233731Y82402D01*
Y83189D01*
X234518Y83374D01*
Y82217D01*
D02*
G37*
G36*
X378449Y81772D02*
X377256Y82362D01*
Y83543D01*
X378449Y84134D01*
Y81772D01*
D02*
G37*
G36*
X340827Y82000D02*
X341138Y81366D01*
X338799D01*
X339110Y82000D01*
X338799Y82634D01*
X341138D01*
X340827Y82000D01*
D02*
G37*
G36*
X201925Y82394D02*
Y81606D01*
X201126Y81213D01*
Y82787D01*
X201925Y82394D01*
D02*
G37*
G36*
X160468Y82559D02*
Y81378D01*
X159366Y80866D01*
Y83071D01*
X160468Y82559D01*
D02*
G37*
G36*
X156634Y80799D02*
X155453Y81378D01*
Y82559D01*
X156634Y83138D01*
Y80799D01*
D02*
G37*
G36*
X194862Y80634D02*
X193681Y80709D01*
Y81890D01*
X194874Y82481D01*
X194862Y80634D01*
D02*
G37*
G36*
X299882Y82060D02*
X300606Y82272D01*
X300711Y80621D01*
X299949Y80803D01*
X298838Y80299D01*
Y82401D01*
X299882Y82060D01*
D02*
G37*
G36*
X295162Y80299D02*
X293981Y80760D01*
Y81941D01*
X295162Y82401D01*
Y80299D01*
D02*
G37*
G36*
X234518Y80248D02*
X233731Y80433D01*
Y81221D01*
X234518Y81405D01*
Y80248D01*
D02*
G37*
G36*
X334874Y79213D02*
X334075Y79606D01*
Y80394D01*
X334874Y80787D01*
Y79213D01*
D02*
G37*
G36*
X286269Y79252D02*
Y78465D01*
X285482Y78280D01*
Y79437D01*
X286269Y79252D01*
D02*
G37*
G36*
X234518Y78280D02*
X233731Y78465D01*
Y79252D01*
X234518Y79437D01*
Y78280D01*
D02*
G37*
G36*
X164484Y77587D02*
Y76689D01*
X165653Y76110D01*
Y74929D01*
X164484Y74351D01*
Y73453D01*
X151748D01*
X151500Y73701D01*
Y78031D01*
X152681Y79213D01*
X156222D01*
Y78232D01*
X158000D01*
X159778D01*
Y79213D01*
X162858D01*
X164484Y77587D01*
D02*
G37*
G36*
X354724Y77866D02*
X353543D01*
X353268Y78733D01*
X355000D01*
X354724Y77866D01*
D02*
G37*
G36*
X110272Y83748D02*
X111618Y82401D01*
X141921D01*
X145819Y86299D01*
X150279D01*
Y81968D01*
X147524Y79213D01*
X143193D01*
X141579Y77599D01*
X111614Y77599D01*
X110272Y76256D01*
Y73504D01*
X105350D01*
Y86496D01*
X110272D01*
Y83748D01*
D02*
G37*
G36*
X194874Y77419D02*
X193681Y78009D01*
Y79190D01*
X194862Y79366D01*
X194874Y77419D01*
D02*
G37*
G36*
X212993Y78783D02*
X213157Y78827D01*
Y78702D01*
X213382Y78591D01*
Y77409D01*
X213157Y77298D01*
Y77173D01*
X212993Y77217D01*
X212189Y76819D01*
Y79181D01*
X212993Y78783D01*
D02*
G37*
G36*
X203799Y76819D02*
X202618Y77409D01*
Y78591D01*
X203799Y79181D01*
Y76819D01*
D02*
G37*
G36*
X202319Y78591D02*
Y77409D01*
X201126Y76819D01*
Y79181D01*
X202319Y78591D01*
D02*
G37*
G36*
X343713Y74953D02*
X342825Y75379D01*
X342417Y75256D01*
X342263Y76902D01*
X342727Y76798D01*
X343725Y77291D01*
X343713Y74953D01*
D02*
G37*
G36*
X205244Y76379D02*
X204457D01*
X204433Y77583D01*
X205268D01*
X205244Y76379D01*
D02*
G37*
G36*
X286269Y77284D02*
Y76496D01*
X285482Y76311D01*
Y77468D01*
X286269Y77284D01*
D02*
G37*
G36*
X234518Y76311D02*
X233731Y76496D01*
Y77284D01*
X234518Y77468D01*
Y76311D01*
D02*
G37*
G36*
X147669Y76850D02*
X146488Y76260D01*
Y78019D01*
X147669Y78031D01*
Y76850D01*
D02*
G37*
G36*
X378449Y75866D02*
X377256Y76457D01*
Y77638D01*
X378449Y78228D01*
Y75866D01*
D02*
G37*
G36*
X205244Y75374D02*
X204457D01*
X204063Y76174D01*
X205638D01*
X205244Y75374D01*
D02*
G37*
G36*
X286269Y75315D02*
Y74528D01*
X285482Y74343D01*
Y75500D01*
X286269Y75315D01*
D02*
G37*
G36*
X234518Y74343D02*
X233731Y74528D01*
Y75315D01*
X234518Y75500D01*
Y74343D01*
D02*
G37*
G36*
X190653Y75071D02*
Y73890D01*
X189460Y73299D01*
Y75661D01*
X190653Y75071D01*
D02*
G37*
G36*
X117150Y63504D02*
X112228D01*
Y66299D01*
X111008Y67520D01*
X78303D01*
X76295Y65512D01*
X64697D01*
X63122Y67087D01*
X58150D01*
X57667Y66604D01*
X50000D01*
X46604Y70000D01*
X50000Y73396D01*
X57667D01*
X58150Y72913D01*
X61850D01*
X62283Y72480D01*
X111000D01*
X112228Y73709D01*
Y76496D01*
X117150D01*
Y63504D01*
D02*
G37*
G36*
X187528Y72425D02*
X186504Y72413D01*
Y73594D01*
X187528Y74028D01*
Y72425D01*
D02*
G37*
G36*
X286269Y73347D02*
Y72559D01*
X285482Y72374D01*
Y73531D01*
X286269Y73347D01*
D02*
G37*
G36*
X234518Y72374D02*
X233731Y72559D01*
Y73347D01*
X234518Y73531D01*
Y72374D01*
D02*
G37*
G36*
X201925Y72394D02*
Y71606D01*
X201126Y71213D01*
Y72787D01*
X201925Y72394D01*
D02*
G37*
G36*
X185468Y72559D02*
Y71378D01*
X184366Y70866D01*
Y73071D01*
X185468Y72559D01*
D02*
G37*
G36*
X194874Y70819D02*
X193681Y71409D01*
Y72591D01*
X194874Y73181D01*
Y70819D01*
D02*
G37*
G36*
X181634Y70799D02*
X180453Y71378D01*
Y72559D01*
X181634Y73138D01*
Y70799D01*
D02*
G37*
G36*
X286269Y71378D02*
Y70591D01*
X285482Y70406D01*
Y71563D01*
X286269Y71378D01*
D02*
G37*
G36*
X234518Y70406D02*
X233731Y70591D01*
Y71378D01*
X234518Y71563D01*
Y70406D01*
D02*
G37*
G36*
X286269Y69410D02*
Y68622D01*
X285482Y68437D01*
Y69594D01*
X286269Y69410D01*
D02*
G37*
G36*
X234518Y68437D02*
X233731Y68622D01*
Y69410D01*
X234518Y69594D01*
Y68437D01*
D02*
G37*
G36*
X189484Y67587D02*
Y66689D01*
X190653Y66110D01*
Y64929D01*
X189484Y64350D01*
Y63453D01*
X176748D01*
X176500Y63701D01*
Y68032D01*
X177681Y69213D01*
X181222D01*
Y68231D01*
X183000D01*
X184778D01*
Y69213D01*
X187858D01*
X189484Y67587D01*
D02*
G37*
G36*
X140772Y73748D02*
X142118Y72401D01*
X166000D01*
X169898Y76299D01*
X175279D01*
Y71969D01*
X173311Y70000D01*
X168901D01*
X166500Y67599D01*
X142114Y67599D01*
X140772Y66256D01*
Y63504D01*
X135850D01*
Y76496D01*
X140772D01*
Y73748D01*
D02*
G37*
G36*
X212993Y68783D02*
X213157Y68827D01*
Y68702D01*
X213382Y68590D01*
Y67409D01*
X213157Y67298D01*
Y67173D01*
X212993Y67217D01*
X212189Y66819D01*
Y69181D01*
X212993Y68783D01*
D02*
G37*
G36*
X203799Y66819D02*
X202618Y67409D01*
Y68590D01*
X203799Y69181D01*
Y66819D01*
D02*
G37*
G36*
X202319Y68590D02*
Y67409D01*
X201126Y66819D01*
Y69181D01*
X202319Y68590D01*
D02*
G37*
G36*
X194874Y66819D02*
X193681Y67409D01*
Y68590D01*
X194874Y69181D01*
Y66819D01*
D02*
G37*
G36*
X286269Y67441D02*
Y66654D01*
X285482Y66469D01*
Y67626D01*
X286269Y67441D01*
D02*
G37*
G36*
X234518Y66469D02*
X233731Y66654D01*
Y67441D01*
X234518Y67626D01*
Y66469D01*
D02*
G37*
G36*
X205244Y66379D02*
X204457D01*
X204433Y67583D01*
X205268D01*
X205244Y66379D01*
D02*
G37*
G36*
X172669Y66850D02*
X171488Y66260D01*
Y68019D01*
X172669Y68032D01*
Y66850D01*
D02*
G37*
G36*
X205244Y65374D02*
X204457D01*
X204063Y66174D01*
X205638D01*
X205244Y65374D01*
D02*
G37*
G36*
X286269Y65472D02*
Y64685D01*
X285482Y64500D01*
Y65657D01*
X286269Y65472D01*
D02*
G37*
G36*
X234518Y64500D02*
X233731Y64606D01*
Y65394D01*
X234518Y65657D01*
Y64500D01*
D02*
G37*
G36*
X165620Y65071D02*
Y63890D01*
X164460Y63333D01*
Y65628D01*
X165620Y65071D01*
D02*
G37*
G36*
X86650Y53504D02*
X80311D01*
X78303Y55512D01*
X59724D01*
X58632Y56604D01*
X50000D01*
X46604Y60000D01*
X50000Y63396D01*
X57667D01*
X58150Y62913D01*
X78146D01*
X81728Y66496D01*
X86650D01*
Y53504D01*
D02*
G37*
G36*
X333001Y63420D02*
X333287Y62838D01*
X331713D01*
X331999Y63420D01*
X331673Y64157D01*
X333327D01*
X333001Y63420D01*
D02*
G37*
G36*
X286269Y63504D02*
Y62717D01*
X285482Y62532D01*
Y63689D01*
X286269Y63504D01*
D02*
G37*
G36*
X234518Y62532D02*
X233731Y62717D01*
Y63504D01*
X234518Y63689D01*
Y62532D01*
D02*
G37*
G36*
X162528Y62425D02*
X161504Y62413D01*
Y63595D01*
X162528Y64028D01*
Y62425D01*
D02*
G37*
G36*
X201925Y62394D02*
Y61606D01*
X201126Y61213D01*
Y62787D01*
X201925Y62394D01*
D02*
G37*
G36*
X160468Y62559D02*
Y61378D01*
X159366Y60866D01*
Y63071D01*
X160468Y62559D01*
D02*
G37*
G36*
X156634Y60799D02*
X155453Y61378D01*
Y62559D01*
X156634Y63138D01*
Y60799D01*
D02*
G37*
G36*
X194862Y60634D02*
X193681Y60809D01*
Y61990D01*
X194874Y62581D01*
X194862Y60634D01*
D02*
G37*
G36*
X286269Y61535D02*
Y60748D01*
X285482Y60563D01*
Y61720D01*
X286269Y61535D01*
D02*
G37*
G36*
X234518Y60563D02*
X233731Y60748D01*
Y61535D01*
X234518Y61720D01*
Y60563D01*
D02*
G37*
G36*
X288174Y59135D02*
X287343Y58237D01*
X286845Y58755D01*
X287680Y59591D01*
X288174Y59135D01*
D02*
G37*
G36*
X164484Y57587D02*
Y56689D01*
X165653Y56110D01*
Y54929D01*
X164484Y54351D01*
Y53453D01*
X151748D01*
X151500Y53701D01*
Y58031D01*
X152681Y59213D01*
X156222D01*
Y58232D01*
X158000D01*
X159778D01*
Y59213D01*
X162858D01*
X164484Y57587D01*
D02*
G37*
G36*
X110272Y63748D02*
X111618Y62401D01*
X141921D01*
X145819Y66299D01*
X150279D01*
Y61968D01*
X147524Y59213D01*
X143193D01*
X141579Y57599D01*
X111614Y57599D01*
X110272Y56256D01*
Y53504D01*
X105350D01*
Y66496D01*
X110272D01*
Y63748D01*
D02*
G37*
G36*
X283364Y58595D02*
X283772D01*
X283567Y58185D01*
X283772Y57771D01*
X283360D01*
X283181Y57414D01*
X282000D01*
X281821Y57771D01*
X281410D01*
X281614Y58185D01*
X281410Y58595D01*
X281817D01*
X282000Y58964D01*
X283181D01*
X283364Y58595D01*
D02*
G37*
G36*
X238183D02*
X238591D01*
X238386Y58185D01*
X238591Y57771D01*
X238179D01*
X238000Y57414D01*
X236819D01*
X236640Y57771D01*
X236228D01*
X236433Y58185D01*
X236228Y58595D01*
X236636D01*
X236819Y58964D01*
X238000D01*
X238183Y58595D01*
D02*
G37*
G36*
X212993Y58783D02*
X213157Y58827D01*
Y58702D01*
X213382Y58591D01*
Y57410D01*
X213157Y57298D01*
Y57173D01*
X212993Y57217D01*
X212189Y56819D01*
Y59181D01*
X212993Y58783D01*
D02*
G37*
G36*
X203799Y56819D02*
X202618Y57410D01*
Y58591D01*
X203799Y59181D01*
Y56819D01*
D02*
G37*
G36*
X202319Y58591D02*
Y57410D01*
X201126Y56819D01*
Y59181D01*
X202319Y58591D01*
D02*
G37*
G36*
X194874Y56819D02*
X193681Y57410D01*
Y58591D01*
X194874Y59181D01*
Y56819D01*
D02*
G37*
G36*
X205244Y56379D02*
X204457D01*
X204433Y57583D01*
X205268D01*
X205244Y56379D01*
D02*
G37*
G36*
X147669Y56850D02*
X146488Y56260D01*
Y58020D01*
X147669Y58031D01*
Y56850D01*
D02*
G37*
G36*
X283364Y56626D02*
X283772D01*
X283567Y56217D01*
X283772Y55803D01*
X283360D01*
X283181Y55445D01*
X282000D01*
X281821Y55803D01*
X281410D01*
X281614Y56217D01*
X281410Y56626D01*
X281817D01*
X282000Y56996D01*
X283181D01*
X283364Y56626D01*
D02*
G37*
G36*
X205244Y55374D02*
X204457D01*
X204063Y56174D01*
X205638D01*
X205244Y55374D01*
D02*
G37*
G36*
X343981Y54713D02*
X343181Y55106D01*
Y55894D01*
X343969Y56228D01*
X343981Y54713D01*
D02*
G37*
G36*
X335126Y55894D02*
Y55106D01*
X334326Y54713D01*
Y56287D01*
X335126Y55894D01*
D02*
G37*
G36*
X330674Y54713D02*
X329874Y55106D01*
Y55894D01*
X330674Y56287D01*
Y54713D01*
D02*
G37*
G36*
X321819Y55894D02*
Y55106D01*
X321019Y54713D01*
X321031Y56228D01*
X321819Y55894D01*
D02*
G37*
G36*
X342322D02*
Y55106D01*
X341343Y54673D01*
Y56327D01*
X342322Y55894D01*
D02*
G37*
G36*
X339656Y54673D02*
X338678Y55106D01*
Y55894D01*
X339656Y56327D01*
Y54673D01*
D02*
G37*
G36*
X326322Y55894D02*
Y55106D01*
X325343Y54673D01*
Y56327D01*
X326322Y55894D01*
D02*
G37*
G36*
X323657Y54673D02*
X322678Y55106D01*
Y55894D01*
X323657Y56327D01*
Y54673D01*
D02*
G37*
G36*
X234019Y55827D02*
Y54646D01*
X232838Y54099D01*
Y56201D01*
X234019Y55827D01*
D02*
G37*
G36*
X248988Y52319D02*
X248193Y51858D01*
X247358Y52693D01*
X247819Y53488D01*
X248988Y52319D01*
D02*
G37*
G36*
X245142Y52693D02*
X244307Y51858D01*
X243512Y52319D01*
X244681Y53488D01*
X245142Y52693D01*
D02*
G37*
G36*
X353657Y51673D02*
X352678Y52106D01*
Y52894D01*
X353657Y53327D01*
Y51673D01*
D02*
G37*
G36*
X312322Y52894D02*
Y52106D01*
X311344Y51673D01*
Y53327D01*
X312322Y52894D01*
D02*
G37*
G36*
X341327Y50344D02*
X339673D01*
X340106Y51322D01*
X340894D01*
X341327Y50344D01*
D02*
G37*
G36*
X325327D02*
X323673D01*
X324106Y51322D01*
X324894D01*
X325327Y50344D01*
D02*
G37*
G36*
X376874Y49213D02*
X376075Y49606D01*
Y50394D01*
X376874Y50787D01*
Y49213D01*
D02*
G37*
G36*
X384126Y50686D02*
X384657Y50827D01*
Y49173D01*
X384126Y49314D01*
X383126Y48819D01*
Y51181D01*
X384126Y50686D01*
D02*
G37*
G36*
X343969Y48772D02*
X343181Y49106D01*
Y49894D01*
X343981Y50287D01*
X343969Y48772D01*
D02*
G37*
G36*
X321819Y49894D02*
Y49106D01*
X321031Y48772D01*
X321019Y50287D01*
X321819Y49894D01*
D02*
G37*
G36*
X335126D02*
Y49106D01*
X334326Y48713D01*
Y50287D01*
X335126Y49894D01*
D02*
G37*
G36*
X330674Y48713D02*
X329874Y49106D01*
Y49894D01*
X330674Y50287D01*
Y48713D01*
D02*
G37*
G36*
X342322Y49894D02*
Y49106D01*
X341343Y48673D01*
Y50327D01*
X342322Y49894D01*
D02*
G37*
G36*
X339656Y48673D02*
X338678Y49106D01*
Y49894D01*
X339656Y50327D01*
Y48673D01*
D02*
G37*
G36*
X326322Y49894D02*
Y49106D01*
X325343Y48673D01*
Y50327D01*
X326322Y49894D01*
D02*
G37*
G36*
X323657Y48673D02*
X322678Y49106D01*
Y49894D01*
X323657Y50327D01*
Y48673D01*
D02*
G37*
G36*
X266323Y48179D02*
X266681Y48000D01*
Y46819D01*
X266323Y46640D01*
Y46228D01*
X265909Y46433D01*
X265500Y46228D01*
Y46636D01*
X265130Y46819D01*
Y48000D01*
X265500Y48183D01*
Y48591D01*
X265909Y48386D01*
X266323Y48591D01*
Y48179D01*
D02*
G37*
G36*
X264355D02*
X264712Y48000D01*
Y46819D01*
X264355Y46640D01*
Y46228D01*
X263941Y46433D01*
X263531Y46228D01*
Y46636D01*
X263162Y46819D01*
Y48000D01*
X263531Y48183D01*
Y48591D01*
X263941Y48386D01*
X264355Y48591D01*
Y48179D01*
D02*
G37*
G36*
X256481D02*
X256838Y48000D01*
Y46819D01*
X256481Y46640D01*
Y46228D01*
X256067Y46433D01*
X255657Y46228D01*
Y46636D01*
X255288Y46819D01*
Y48000D01*
X255657Y48183D01*
Y48591D01*
X256067Y48386D01*
X256481Y48591D01*
Y48179D01*
D02*
G37*
G36*
X254512D02*
X254870Y48000D01*
Y46819D01*
X254512Y46640D01*
Y46228D01*
X254098Y46433D01*
X253689Y46228D01*
Y46636D01*
X253319Y46819D01*
Y48000D01*
X253689Y48183D01*
Y48591D01*
X254098Y48386D01*
X254512Y48591D01*
Y48179D01*
D02*
G37*
G36*
X268292Y48179D02*
X268649Y48000D01*
Y46819D01*
X268292Y46640D01*
Y46228D01*
X267878Y46433D01*
X267468Y46228D01*
Y46636D01*
X267099Y46819D01*
Y48000D01*
X267468Y48183D01*
Y48591D01*
X267878Y48386D01*
X268292Y48591D01*
Y48179D01*
D02*
G37*
G36*
X258449D02*
X258807Y48000D01*
Y46819D01*
X258449Y46640D01*
Y46228D01*
X258035Y46433D01*
X257626Y46228D01*
Y46636D01*
X257256Y46819D01*
Y48000D01*
X257626Y48183D01*
Y48591D01*
X258035Y48386D01*
X258449Y48591D01*
Y48179D01*
D02*
G37*
G36*
X378425Y47847D02*
X377638D01*
X377244Y48634D01*
X378819D01*
X378425Y47847D01*
D02*
G37*
G36*
X119886Y45319D02*
X119042Y45741D01*
X118189Y45319D01*
Y47681D01*
X119042Y47259D01*
X119886Y47681D01*
Y45319D01*
D02*
G37*
G36*
X106486Y47156D02*
X107756Y47091D01*
Y45909D01*
X106486Y45844D01*
X105843Y45673D01*
Y45811D01*
X105695Y45804D01*
Y47196D01*
X105843Y47189D01*
Y47327D01*
X106486Y47156D01*
D02*
G37*
G36*
X231697Y46833D02*
X231827Y46343D01*
X230173D01*
X230303Y46833D01*
X229819Y47811D01*
X232181D01*
X231697Y46833D01*
D02*
G37*
G36*
X280156Y46173D02*
X279269Y46409D01*
Y47591D01*
X280156Y47827D01*
Y46173D01*
D02*
G37*
G36*
X132657D02*
X131769Y46409D01*
Y47591D01*
X132657Y47827D01*
Y46173D01*
D02*
G37*
G36*
X276523Y47591D02*
Y46409D01*
X275342Y45819D01*
Y48181D01*
X276523Y47591D01*
D02*
G37*
G36*
X130295D02*
Y46409D01*
X129102Y45819D01*
Y48181D01*
X130295Y47591D01*
D02*
G37*
G36*
X105616Y45616D02*
X105772Y45606D01*
X105582Y44955D01*
X105533Y44004D01*
X106106Y42846D01*
X105566D01*
X105622Y41770D01*
X104229D01*
X104284Y42846D01*
X103744D01*
X104317Y44004D01*
X104260Y45131D01*
X104121Y45711D01*
X104230Y45704D01*
X104229Y45730D01*
X105622D01*
X105616Y45616D01*
D02*
G37*
G36*
X58150Y52913D02*
X61850D01*
X62283Y52480D01*
X67295D01*
X69303Y50472D01*
Y45512D01*
X64697D01*
X63122Y47087D01*
X58150D01*
X57667Y46604D01*
X50000D01*
X46604Y50000D01*
X50000Y53396D01*
X57667D01*
X58150Y52913D01*
D02*
G37*
G36*
X109799Y45319D02*
X108618Y45909D01*
Y47091D01*
X109799Y47681D01*
Y45319D01*
D02*
G37*
G36*
X244658Y44518D02*
X243477Y44506D01*
Y45687D01*
X244670Y46278D01*
X244658Y44518D01*
D02*
G37*
G36*
X122659Y44000D02*
X123181Y42944D01*
X120819D01*
X121341Y44000D01*
X120819Y45055D01*
X123181D01*
X122659Y44000D01*
D02*
G37*
G36*
X275901Y42838D02*
X273799D01*
X274173Y44019D01*
X275354D01*
X275901Y42838D01*
D02*
G37*
G36*
X242201D02*
X240338Y42826D01*
X240910Y44000D01*
X242091D01*
X242201Y42838D01*
D02*
G37*
G36*
X353405Y41909D02*
X351831D01*
X352224Y42697D01*
X353012D01*
X353405Y41909D01*
D02*
G37*
G36*
X343169D02*
X341595D01*
X341988Y42697D01*
X342776D01*
X343169Y41909D01*
D02*
G37*
G36*
X323406D02*
X321831D01*
X322224Y42697D01*
X323012D01*
X323406Y41909D01*
D02*
G37*
G36*
X313169D02*
X311595D01*
X311988Y42697D01*
X312776D01*
X313169Y41909D01*
D02*
G37*
G36*
X233811Y39819D02*
X232833Y40303D01*
X232344Y40173D01*
Y41827D01*
X232833Y41697D01*
X233811Y42181D01*
Y39819D01*
D02*
G37*
G36*
X114886D02*
X113897Y40314D01*
X112897Y39819D01*
Y42181D01*
X113897Y41686D01*
X114886Y42181D01*
Y39819D01*
D02*
G37*
G36*
X378819Y41354D02*
X377244D01*
X377638Y42153D01*
X378425D01*
X378819Y41354D01*
D02*
G37*
G36*
X133488Y41319D02*
X132693Y40858D01*
X131858Y41693D01*
X132319Y42488D01*
X133488Y41319D01*
D02*
G37*
G36*
X333001Y41580D02*
X333327Y40843D01*
X331673D01*
X331999Y41580D01*
X331713Y42162D01*
X333287D01*
X333001Y41580D01*
D02*
G37*
G36*
X283167Y41697D02*
X283657Y41827D01*
Y40173D01*
X283167Y40303D01*
X282189Y39819D01*
Y42181D01*
X283167Y41697D01*
D02*
G37*
G36*
X355657Y41134D02*
Y40347D01*
X354858Y39953D01*
Y41528D01*
X355657Y41134D01*
D02*
G37*
G36*
X340142Y39953D02*
X339343Y40347D01*
Y41134D01*
X340142Y41528D01*
Y39953D01*
D02*
G37*
G36*
X325657Y41134D02*
Y40347D01*
X324858Y39953D01*
Y41528D01*
X325657Y41134D01*
D02*
G37*
G36*
X310142Y39953D02*
X309343Y40347D01*
Y41134D01*
X310142Y41528D01*
Y39953D01*
D02*
G37*
G36*
X273799Y39906D02*
X272618Y40496D01*
Y41677D01*
X273799Y42268D01*
Y39906D01*
D02*
G37*
G36*
X125295Y41591D02*
Y40409D01*
X124102Y39819D01*
Y42181D01*
X125295Y41591D01*
D02*
G37*
G36*
X251279Y39602D02*
X249543Y39614D01*
X249532Y40771D01*
X250713D01*
X251279Y39602D01*
D02*
G37*
G36*
X384126Y40686D02*
X384657Y40827D01*
Y39173D01*
X384126Y39314D01*
X383126Y38819D01*
Y41181D01*
X384126Y40686D01*
D02*
G37*
G36*
X275643Y38500D02*
X275901Y37838D01*
X273799D01*
X274057Y38500D01*
X273799Y39162D01*
X275901D01*
X275643Y38500D01*
D02*
G37*
G36*
X241943D02*
X242201Y37838D01*
X240099D01*
X240356Y38500D01*
X240099Y39162D01*
X242201D01*
X241943Y38500D01*
D02*
G37*
G36*
X233811Y34819D02*
X232833Y35303D01*
X232344Y35173D01*
Y36827D01*
X232833Y36697D01*
X233811Y37181D01*
Y34819D01*
D02*
G37*
G36*
X283167Y36697D02*
X283657Y36827D01*
Y35173D01*
X283167Y35303D01*
X282189Y34819D01*
Y37181D01*
X283167Y36697D01*
D02*
G37*
G36*
X269701Y33838D02*
X267599D01*
X268059Y35019D01*
X269240D01*
X269701Y33838D01*
D02*
G37*
G36*
X350366Y34429D02*
X350378Y33634D01*
X349953Y33654D01*
Y34441D01*
X350366Y34429D01*
D02*
G37*
G36*
X315047Y33654D02*
X314622Y33634D01*
X314634Y34429D01*
X315047Y34441D01*
Y33654D01*
D02*
G37*
G36*
X258681Y33602D02*
X256319D01*
X256909Y34795D01*
X258090D01*
X258681Y33602D01*
D02*
G37*
G36*
X345421Y33654D02*
X344622Y33260D01*
X344634Y34429D01*
X345421Y34441D01*
Y33654D01*
D02*
G37*
G36*
X320366Y34429D02*
X320378Y33260D01*
X319579Y33654D01*
Y34441D01*
X320366Y34429D01*
D02*
G37*
G36*
X275441Y32980D02*
X274260D01*
X273799Y34162D01*
X275901D01*
X275441Y32980D01*
D02*
G37*
G36*
X246197Y33333D02*
X246327Y32844D01*
X244673D01*
X244803Y33333D01*
X244319Y34311D01*
X246681D01*
X246197Y33333D01*
D02*
G37*
G36*
X261311Y30866D02*
X260378Y31328D01*
X259444Y30866D01*
Y33228D01*
X260378Y32766D01*
X261311Y33228D01*
Y30866D01*
D02*
G37*
G36*
X255556D02*
X254500Y31389D01*
X253445Y30866D01*
Y33228D01*
X254500Y32706D01*
X255556Y33228D01*
Y30866D01*
D02*
G37*
G36*
X351142Y31303D02*
X350354D01*
X350366Y32091D01*
X351535Y32103D01*
X351142Y31303D01*
D02*
G37*
G36*
X344634Y32091D02*
X344646Y31303D01*
X343858D01*
X343465Y32103D01*
X344634Y32091D01*
D02*
G37*
G36*
X321142Y31303D02*
X320354D01*
X320366Y32091D01*
X321535Y32103D01*
X321142Y31303D01*
D02*
G37*
G36*
X314634Y32091D02*
X314646Y31303D01*
X313858D01*
X313465Y32103D01*
X314634Y32091D01*
D02*
G37*
G36*
X350787Y29126D02*
X349213D01*
X349606Y29925D01*
X350394D01*
X350787Y29126D01*
D02*
G37*
G36*
X345787D02*
X344213D01*
X344606Y29925D01*
X345394D01*
X345787Y29126D01*
D02*
G37*
G36*
X320787D02*
X319213D01*
X319606Y29925D01*
X320394D01*
X320787Y29126D01*
D02*
G37*
G36*
X315787D02*
X314213D01*
X314606Y29925D01*
X315394D01*
X315787Y29126D01*
D02*
G37*
G36*
X339945D02*
X338646Y28221D01*
X338077Y29334D01*
X338552Y29973D01*
X339945Y29126D01*
D02*
G37*
G36*
X356923Y29138D02*
X356354Y28024D01*
X355252Y29126D01*
X356366Y29694D01*
X356923Y29138D01*
D02*
G37*
G36*
X326923D02*
X326354Y28024D01*
X325252Y29126D01*
X326366Y29694D01*
X326923Y29138D01*
D02*
G37*
G36*
X309748D02*
X308634Y28024D01*
X308077Y29138D01*
X308634Y29694D01*
X309748Y29138D01*
D02*
G37*
G36*
X269253Y29013D02*
X269831Y27846D01*
X267890Y27858D01*
X268053Y28996D01*
X267599Y30162D01*
X269701D01*
X269253Y29013D01*
D02*
G37*
G36*
X261603Y24866D02*
X260524Y25400D01*
X259444Y24866D01*
Y27228D01*
X260524Y26694D01*
X261603Y27228D01*
Y24866D01*
D02*
G37*
G36*
X355394Y22075D02*
X354606D01*
X354213Y22874D01*
X355787D01*
X355394Y22075D01*
D02*
G37*
G36*
X350394D02*
X349606D01*
X349213Y22874D01*
X350787D01*
X350394Y22075D01*
D02*
G37*
G36*
X345394D02*
X344606D01*
X344213Y22874D01*
X345787D01*
X345394Y22075D01*
D02*
G37*
G36*
X340394D02*
X339606D01*
X339213Y22874D01*
X340787D01*
X340394Y22075D01*
D02*
G37*
G36*
X320394D02*
X319606D01*
X319213Y22874D01*
X320787D01*
X320394Y22075D01*
D02*
G37*
G36*
X315394D02*
X314606D01*
X314213Y22874D01*
X315787D01*
X315394Y22075D01*
D02*
G37*
G36*
X310394D02*
X309606D01*
X309213Y22874D01*
X310787D01*
X310394Y22075D01*
D02*
G37*
G36*
X325590Y21681D02*
X324410D01*
X323819Y22874D01*
X326181D01*
X325590Y21681D01*
D02*
G37*
G36*
X310787Y17338D02*
X309213D01*
X309606Y18138D01*
X310394D01*
X310787Y17338D01*
D02*
G37*
G36*
X355783Y17181D02*
X354217D01*
X354606Y18103D01*
X355394D01*
X355783Y17181D01*
D02*
G37*
G36*
X350783D02*
X349217D01*
X349606Y18103D01*
X350394D01*
X350783Y17181D01*
D02*
G37*
G36*
X345783D02*
X344217D01*
X344606Y18103D01*
X345394D01*
X345783Y17181D01*
D02*
G37*
G36*
X340783D02*
X339217D01*
X339606Y18103D01*
X340394D01*
X340783Y17181D01*
D02*
G37*
G36*
X320783D02*
X319217D01*
X319606Y18103D01*
X320394D01*
X320783Y17181D01*
D02*
G37*
G36*
X315783D02*
X314217D01*
X314606Y18103D01*
X315394D01*
X315783Y17181D01*
D02*
G37*
G36*
X326174Y16964D02*
X323826D01*
X324410Y18454D01*
X325590D01*
X326174Y16964D01*
D02*
G37*
G36*
X300686Y14126D02*
X301181Y13126D01*
X298819D01*
X299314Y14126D01*
X299173Y14657D01*
X300827D01*
X300686Y14126D01*
D02*
G37*
G36*
X290686D02*
X291181Y13126D01*
X288819D01*
X289314Y14126D01*
X289173Y14657D01*
X290827D01*
X290686Y14126D01*
D02*
G37*
G36*
X298634Y6862D02*
X297453Y7441D01*
Y8622D01*
X298634Y9201D01*
Y6862D01*
D02*
G37*
G36*
X290686Y5874D02*
X290827Y5344D01*
X289173D01*
X289314Y5874D01*
X288819Y6874D01*
X291181D01*
X290686Y5874D01*
D02*
G37*
%LPC*%
G36*
X184778Y167832D02*
X183200D01*
Y166450D01*
X184778D01*
Y167832D01*
D02*
G37*
G36*
X182800D02*
X181222D01*
Y166450D01*
X182800D01*
Y167832D01*
D02*
G37*
G36*
X159778Y157832D02*
X158200D01*
Y156450D01*
X159778D01*
Y157832D01*
D02*
G37*
G36*
X157800D02*
X156222D01*
Y156450D01*
X157800D01*
Y157832D01*
D02*
G37*
G36*
X184778Y147831D02*
X183200D01*
Y146450D01*
X184778D01*
Y147831D01*
D02*
G37*
G36*
X182800D02*
X181222D01*
Y146450D01*
X182800D01*
Y147831D01*
D02*
G37*
G36*
X159778Y137831D02*
X158200D01*
Y136450D01*
X159778D01*
Y137831D01*
D02*
G37*
G36*
X157800D02*
X156222D01*
Y136450D01*
X157800D01*
Y137831D01*
D02*
G37*
G36*
X184778Y127831D02*
X183200D01*
Y126450D01*
X184778D01*
Y127831D01*
D02*
G37*
G36*
X182800D02*
X181222D01*
Y126450D01*
X182800D01*
Y127831D01*
D02*
G37*
G36*
X159778Y117832D02*
X158200D01*
Y116450D01*
X159778D01*
Y117832D01*
D02*
G37*
G36*
X157800D02*
X156222D01*
Y116450D01*
X157800D01*
Y117832D01*
D02*
G37*
G36*
X184778Y107832D02*
X183200D01*
Y106450D01*
X184778D01*
Y107832D01*
D02*
G37*
G36*
X182800D02*
X181222D01*
Y106450D01*
X182800D01*
Y107832D01*
D02*
G37*
G36*
X159778Y97831D02*
X158200D01*
Y96450D01*
X159778D01*
Y97831D01*
D02*
G37*
G36*
X157800D02*
X156222D01*
Y96450D01*
X157800D01*
Y97831D01*
D02*
G37*
G36*
X184778Y87831D02*
X183200D01*
Y86450D01*
X184778D01*
Y87831D01*
D02*
G37*
G36*
X182800D02*
X181222D01*
Y86450D01*
X182800D01*
Y87831D01*
D02*
G37*
G36*
X159778Y77832D02*
X158200D01*
Y76450D01*
X159778D01*
Y77832D01*
D02*
G37*
G36*
X157800D02*
X156222D01*
Y76450D01*
X157800D01*
Y77832D01*
D02*
G37*
G36*
X184778Y67831D02*
X183200D01*
Y66450D01*
X184778D01*
Y67831D01*
D02*
G37*
G36*
X182800D02*
X181222D01*
Y66450D01*
X182800D01*
Y67831D01*
D02*
G37*
G36*
X159778Y57832D02*
X158200D01*
Y56450D01*
X159778D01*
Y57832D01*
D02*
G37*
G36*
X157800D02*
X156222D01*
Y56450D01*
X157800D01*
Y57832D01*
D02*
G37*
%LPD*%
D13*
X282591Y74921D02*
X335579D01*
X350650Y55059D02*
Y59850D01*
X335579Y74921D02*
X350650Y59850D01*
X334516Y70984D02*
X347500Y58000D01*
Y55059D02*
Y58000D01*
X282591Y70984D02*
X334516D01*
X345925Y55059D02*
Y57075D01*
X282591Y69016D02*
X333984D01*
X345925Y57075D01*
X349075Y55059D02*
Y58925D01*
X282591Y72953D02*
X335047D01*
X349075Y58925D01*
X282591Y76890D02*
X336610D01*
X363500Y50000D02*
X378031D01*
X336610Y76890D02*
X363500Y50000D01*
X314350Y55059D02*
Y57650D01*
X310858Y61142D02*
X314350Y57650D01*
X282591Y61142D02*
X310858D01*
X282591Y63110D02*
X311390D01*
X315925Y55059D02*
Y58575D01*
X311390Y63110D02*
X315925Y58575D01*
X282591Y65079D02*
X311921D01*
X317500Y59500D01*
Y55059D02*
Y59500D01*
X312453Y67047D02*
X319075Y60425D01*
Y55059D02*
Y60425D01*
X282591Y67047D02*
X312453D01*
X344252Y31079D02*
Y32472D01*
Y31079D02*
X345000Y30331D01*
X342382Y33260D02*
X343465D01*
X344252Y32472D01*
X345000Y27968D02*
Y30331D01*
X350748Y32472D02*
X351535Y33260D01*
X350748Y31079D02*
Y32472D01*
X350000Y27968D02*
Y30331D01*
X351535Y33260D02*
X352618D01*
X350000Y30331D02*
X350748Y31079D01*
X355760Y40740D02*
X357000Y39500D01*
X352618Y40740D02*
X355760D01*
X357000Y29772D02*
Y39500D01*
X355197Y27968D02*
X357000Y29772D01*
X355000Y27968D02*
X355197D01*
X339016Y28756D02*
X339803Y27968D01*
X339016Y28756D02*
Y28953D01*
X338000Y29969D02*
X339016Y28953D01*
X338000Y29969D02*
Y39500D01*
X339803Y27968D02*
X340000D01*
X338000Y39500D02*
X339240Y40740D01*
X342382D01*
X347500Y35000D02*
Y49941D01*
X346547Y34047D02*
X347500Y35000D01*
X343169Y34047D02*
X346547D01*
X349075Y34925D02*
Y49941D01*
Y34925D02*
X349953Y34047D01*
X351831D01*
X352618Y33260D01*
X342382Y43882D02*
X344713Y46213D01*
Y47058D02*
X345925Y48271D01*
X345925Y48516D02*
Y49941D01*
X344713Y46213D02*
Y47058D01*
X345925Y48271D02*
Y48516D01*
X345925Y48516D01*
X342382Y33260D02*
X343169Y34047D01*
X350650Y45850D02*
Y49941D01*
Y45850D02*
X352618Y43882D01*
Y40740D02*
Y43882D01*
X342382Y40740D02*
Y43882D01*
X322618Y40740D02*
Y42882D01*
X319075Y46425D02*
X322618Y42882D01*
X319075Y46425D02*
Y49941D01*
X322618Y40740D02*
X325760D01*
X309240D02*
X312382D01*
Y42882D02*
X314350Y44850D01*
X312382Y40740D02*
Y42882D01*
X314350Y44850D02*
Y49941D01*
X318453Y34047D02*
X321831D01*
X317500Y35000D02*
Y49941D01*
Y35000D02*
X318453Y34047D01*
X313169D02*
X315047D01*
X315925Y34925D02*
Y49941D01*
X315047Y34047D02*
X315925Y34925D01*
X321831Y34047D02*
X322618Y33260D01*
X325760Y40740D02*
X327500Y39000D01*
Y30272D02*
Y39000D01*
X325000Y27968D02*
X325197D01*
X327500Y30272D01*
X320748Y32472D02*
X321535Y33260D01*
X320748Y31079D02*
Y32472D01*
X320000Y30331D02*
X320748Y31079D01*
X320000Y27968D02*
Y30331D01*
X321535Y33260D02*
X322618D01*
X307500Y39000D02*
X309240Y40740D01*
X307500Y30272D02*
Y39000D01*
X309803Y27968D02*
X310000D01*
X307500Y30272D02*
X309803Y27968D01*
X313465Y33260D02*
X314252Y32472D01*
Y31079D02*
Y32472D01*
X315000Y27968D02*
Y30331D01*
X312382Y33260D02*
X313465D01*
X314252Y31079D02*
X315000Y30331D01*
X312382Y33260D02*
X313169Y34047D01*
X310500Y52500D02*
X314350D01*
X332500Y61799D02*
Y65000D01*
X204850Y168000D02*
Y170850D01*
Y158000D02*
Y160850D01*
Y148000D02*
Y150850D01*
Y138000D02*
Y140850D01*
Y128000D02*
Y130850D01*
X222000Y133500D02*
X223150Y134650D01*
X226000D01*
X204850Y105150D02*
Y108000D01*
Y95150D02*
Y98000D01*
Y85150D02*
Y88000D01*
Y75150D02*
Y78000D01*
Y65150D02*
Y68000D01*
Y55150D02*
Y58000D01*
X199969Y118000D02*
X214000D01*
X226984Y69016D02*
X237409D01*
X203500Y142000D02*
X204500Y143000D01*
X199969Y172000D02*
X203500D01*
X226000Y134650D02*
Y137500D01*
X214000Y133000D02*
X228047Y147047D01*
X227516Y70984D02*
X237409D01*
X219000Y143000D02*
X226984Y150984D01*
X220642Y158858D02*
X237409D01*
X230173Y80827D02*
X237409D01*
X226000Y137500D02*
X229642Y141142D01*
X204500Y133000D02*
X214000D01*
X199969Y82000D02*
X216500D01*
X205500Y151500D02*
X225000D01*
X217500Y173000D02*
X227705Y162795D01*
X230705Y82795D02*
X237409D01*
X203500Y132000D02*
X204500Y133000D01*
Y173000D02*
X217500D01*
X199969Y112000D02*
X219000D01*
X205500Y171500D02*
X216000D01*
X199969Y122000D02*
X215500D01*
X228579Y74921D02*
X237409D01*
X220000Y141500D02*
X227516Y149016D01*
X220000Y94500D02*
X221000Y93500D01*
X224000Y153500D02*
X225421Y154921D01*
X226673Y160827D02*
X237409D01*
X214000Y118000D02*
X222000Y126000D01*
X204850Y75150D02*
X205500Y74500D01*
Y94500D02*
X220000D01*
X226984Y150984D02*
X237409D01*
X199969Y162000D02*
X203500D01*
X205500Y104500D02*
X223000D01*
X203500Y162000D02*
X204500Y163000D01*
X222000Y126000D02*
Y133500D01*
X199969Y132000D02*
X203500D01*
X216500Y82000D02*
X227516Y70984D01*
X204500Y143000D02*
X219000D01*
X204500Y163000D02*
X216500D01*
X225500Y88000D02*
X230705Y82795D01*
X228047Y147047D02*
X237409D01*
X216500Y84500D02*
X228047Y72953D01*
X226453Y152953D02*
X237409D01*
X203500Y172000D02*
X204500Y173000D01*
X219000Y112000D02*
X225500Y105500D01*
X216500Y163000D02*
X220642Y158858D01*
X215500Y122000D02*
X220500Y127000D01*
X204850Y140850D02*
X205500Y141500D01*
X227705Y162795D02*
X237409D01*
X216000Y171500D02*
X226673Y160827D01*
X229642Y141142D02*
X237409D01*
X228579Y145079D02*
X237409D01*
X221500Y74500D02*
X226984Y69016D01*
X199969Y142000D02*
X203500D01*
X204850Y130850D02*
X205500Y131500D01*
X199969Y102000D02*
X221500D01*
X220110Y156890D02*
X237409D01*
X215000Y131500D02*
X228579Y145079D01*
X229642Y78858D02*
X237409D01*
X205500Y161500D02*
X215500D01*
X205500Y131500D02*
X215000D01*
X222500Y86000D02*
Y101000D01*
X215500Y161500D02*
X220110Y156890D01*
X229110Y143110D02*
X237409D01*
X218500Y92000D02*
X219500Y91000D01*
X227516Y149016D02*
X237409D01*
X221000Y85000D02*
X229110Y76890D01*
X205000Y153500D02*
X224000D01*
X204850Y170850D02*
X205500Y171500D01*
X220500Y127000D02*
Y134500D01*
X222500Y86000D02*
X229642Y78858D01*
X204850Y160850D02*
X205500Y161500D01*
X220500Y134500D02*
X229110Y143110D01*
X199969Y92000D02*
X218500D01*
X205500Y141500D02*
X220000D01*
X229110Y76890D02*
X237409D01*
X203500Y152000D02*
X205000Y153500D01*
X199969Y72000D02*
X221500D01*
X226453Y67047D02*
X237409D01*
X225500Y88000D02*
Y105500D01*
X204850Y105150D02*
X205500Y104500D01*
X204850Y65150D02*
X205500Y64500D01*
X227110Y63110D02*
X237409D01*
X199969Y62000D02*
X226000D01*
X224000Y87000D02*
X230173Y80827D01*
X226000Y62000D02*
X227110Y63110D01*
X227642Y61142D02*
X237409D01*
X204850Y55150D02*
X205500Y54500D01*
X221500Y102000D02*
X222500Y101000D01*
X226000Y64500D02*
X226500Y65000D01*
X205500Y64500D02*
X226000D01*
X226500Y65000D02*
X237331D01*
X228047Y72953D02*
X237409D01*
X205500Y74500D02*
X221500D01*
Y72000D02*
X226453Y67047D01*
X221000Y54500D02*
X227642Y61142D01*
X205500Y54500D02*
X221000D01*
X204850Y85150D02*
X205500Y84500D01*
X216500D01*
X224000Y87000D02*
Y103500D01*
X223000Y104500D02*
X224000Y103500D01*
X204850Y150850D02*
X205500Y151500D01*
X225000D02*
X226453Y152953D01*
X219500Y84000D02*
Y91000D01*
X225421Y154921D02*
X237409D01*
X221000Y85000D02*
Y93500D01*
X237331Y65000D02*
X237409Y65079D01*
X199969Y152000D02*
X203500D01*
X219500Y84000D02*
X228579Y74921D01*
X204850Y95150D02*
X205500Y94500D01*
X282591Y78858D02*
X325858D01*
X321500Y160000D02*
X336032D01*
X282591Y158858D02*
X320358D01*
X321500Y160000D01*
X330610Y156890D02*
X357500Y130000D01*
X282591Y156890D02*
X330610D01*
X378031Y120000D02*
Y130000D01*
X357500D02*
X378031D01*
Y40000D02*
Y50000D01*
X325858Y78858D02*
X327000Y80000D01*
X336032D01*
X340500Y55500D02*
X344350D01*
X332500D02*
X340500D01*
X341000Y52500D02*
X344350D01*
X340500Y52000D02*
X341000Y52500D01*
X251000Y105000D02*
X257047Y98953D01*
Y92590D02*
Y98953D01*
X251000Y105000D02*
Y114032D01*
X255000Y104000D02*
X259016Y99984D01*
X255000Y104000D02*
Y114032D01*
X259016Y92590D02*
Y99984D01*
X247812Y104189D02*
X255079Y96921D01*
Y92590D02*
Y96921D01*
X247000Y106032D02*
X247024D01*
X247812Y105244D01*
Y104189D02*
Y105244D01*
X259000Y103000D02*
X260984Y101016D01*
Y92590D02*
Y101016D01*
X259000Y103000D02*
Y114032D01*
X268858Y92590D02*
Y97858D01*
X275000Y104000D01*
Y106032D01*
X266890Y92590D02*
Y99890D01*
X271000Y104000D01*
Y106032D01*
X264921Y92590D02*
Y101921D01*
X267000Y104000D01*
Y114032D01*
X262953Y92590D02*
Y105984D01*
X263000Y106032D01*
X250195Y121000D02*
X253063Y123868D01*
Y127362D01*
X253110Y127409D01*
X249000Y121000D02*
X250195D01*
X247000Y119000D02*
X249000Y121000D01*
X255079Y123079D02*
Y127409D01*
X255000Y120903D02*
X257047Y122950D01*
X251024Y117968D02*
X251812Y118756D01*
Y119811D02*
X255079Y123079D01*
X257047Y122950D02*
Y127409D01*
X255000Y117968D02*
Y120903D01*
X251812Y118756D02*
Y119811D01*
X251000Y117968D02*
X251024D01*
X268858Y123142D02*
Y127409D01*
Y123142D02*
X275000Y117000D01*
Y109968D02*
Y117000D01*
X266890Y123110D02*
Y127409D01*
Y123110D02*
X271000Y119000D01*
Y109968D02*
Y119000D01*
X264921Y122966D02*
X267000Y120887D01*
Y117968D02*
Y120887D01*
X264921Y122966D02*
Y127409D01*
X262953Y110016D02*
Y127409D01*
Y110016D02*
X263000Y109968D01*
X259016Y117984D02*
Y127409D01*
X259000Y117968D02*
X259016Y117984D01*
X247000Y109968D02*
Y119000D01*
X332500Y40000D02*
Y43201D01*
X320650Y55500D02*
X324500D01*
X332500D01*
X340500Y49500D02*
X344350D01*
X320650D02*
X324500D01*
X332500D02*
X340500D01*
X324500D02*
X332500D01*
X344350Y55059D02*
Y55500D01*
X320650Y55059D02*
Y55500D01*
X340500Y49500D02*
Y52000D01*
X344350Y49500D02*
Y49941D01*
X350650Y52500D02*
X354500D01*
X340000Y15000D02*
Y24032D01*
X345000Y15000D02*
Y24032D01*
X350000Y15000D02*
Y24032D01*
X355000Y15000D02*
Y24032D01*
X324500Y49500D02*
Y51500D01*
X323500Y52500D02*
X324500Y51500D01*
X320650Y52500D02*
X323500D01*
X320650Y49500D02*
Y49941D01*
X310000Y15000D02*
Y24032D01*
X315000Y15000D02*
Y24032D01*
X320000Y15000D02*
Y24032D01*
D15*
X237409Y84764D02*
D03*
Y82795D02*
D03*
Y80827D02*
D03*
Y78858D02*
D03*
Y76890D02*
D03*
Y74921D02*
D03*
Y72953D02*
D03*
Y70984D02*
D03*
Y69016D02*
D03*
Y67047D02*
D03*
Y65079D02*
D03*
Y63110D02*
D03*
Y61142D02*
D03*
Y59173D02*
D03*
Y57205D02*
D03*
Y55236D02*
D03*
X282591D02*
D03*
Y57205D02*
D03*
Y59173D02*
D03*
Y61142D02*
D03*
Y63110D02*
D03*
Y65079D02*
D03*
Y67047D02*
D03*
Y69016D02*
D03*
Y70984D02*
D03*
Y72953D02*
D03*
Y74921D02*
D03*
Y76890D02*
D03*
Y78858D02*
D03*
Y80827D02*
D03*
Y82795D02*
D03*
Y84764D02*
D03*
Y164764D02*
D03*
Y162795D02*
D03*
Y160827D02*
D03*
Y158858D02*
D03*
Y156890D02*
D03*
Y154921D02*
D03*
Y152953D02*
D03*
Y150984D02*
D03*
Y149016D02*
D03*
Y147047D02*
D03*
Y145079D02*
D03*
Y143110D02*
D03*
Y141142D02*
D03*
Y139173D02*
D03*
Y137205D02*
D03*
Y135236D02*
D03*
X237409D02*
D03*
Y137205D02*
D03*
Y139173D02*
D03*
Y141142D02*
D03*
Y143110D02*
D03*
Y145079D02*
D03*
Y147047D02*
D03*
Y149016D02*
D03*
Y150984D02*
D03*
Y152953D02*
D03*
Y154921D02*
D03*
Y156890D02*
D03*
Y158858D02*
D03*
Y160827D02*
D03*
Y162795D02*
D03*
Y164764D02*
D03*
D16*
X245236Y47409D02*
D03*
X247205D02*
D03*
X249173D02*
D03*
X251142D02*
D03*
X253110D02*
D03*
X255079D02*
D03*
X257047D02*
D03*
X259016D02*
D03*
X260984D02*
D03*
X262953D02*
D03*
X264921D02*
D03*
X266890D02*
D03*
X268858D02*
D03*
X270827D02*
D03*
X272795D02*
D03*
X274764D02*
D03*
Y92590D02*
D03*
X272795D02*
D03*
X270827D02*
D03*
X268858D02*
D03*
X266890D02*
D03*
X264921D02*
D03*
X262953D02*
D03*
X260984D02*
D03*
X259016D02*
D03*
X257047D02*
D03*
X255079D02*
D03*
X253110D02*
D03*
X251142D02*
D03*
X249173D02*
D03*
X247205D02*
D03*
X245236D02*
D03*
Y172591D02*
D03*
X247205D02*
D03*
X249173D02*
D03*
X251142D02*
D03*
X253110D02*
D03*
X255079D02*
D03*
X257047D02*
D03*
X259016D02*
D03*
X260984D02*
D03*
X262953D02*
D03*
X264921D02*
D03*
X266890D02*
D03*
X268858D02*
D03*
X270827D02*
D03*
X272795D02*
D03*
X274764D02*
D03*
Y127409D02*
D03*
X272795D02*
D03*
X270827D02*
D03*
X268858D02*
D03*
X266890D02*
D03*
X264921D02*
D03*
X262953D02*
D03*
X260984D02*
D03*
X259016D02*
D03*
X257047D02*
D03*
X255079D02*
D03*
X253110D02*
D03*
X251142D02*
D03*
X249173D02*
D03*
X247205D02*
D03*
X245236D02*
D03*
D18*
X312382Y33260D02*
D03*
Y37000D02*
D03*
Y40740D02*
D03*
X322618D02*
D03*
Y37000D02*
D03*
Y33260D02*
D03*
X342382D02*
D03*
Y37000D02*
D03*
Y40740D02*
D03*
X352618D02*
D03*
Y37000D02*
D03*
Y33260D02*
D03*
D19*
X344350Y49941D02*
D03*
X345925D02*
D03*
X347500D02*
D03*
X349075D02*
D03*
X350650D02*
D03*
Y55059D02*
D03*
X349075D02*
D03*
X347500D02*
D03*
X345925D02*
D03*
X344350D02*
D03*
X320650Y49941D02*
D03*
X319075D02*
D03*
X317500D02*
D03*
X315925D02*
D03*
X314350D02*
D03*
Y55059D02*
D03*
X315925D02*
D03*
X317500D02*
D03*
X319075D02*
D03*
X320650D02*
D03*
D20*
X350650Y52500D02*
D03*
X344350D02*
D03*
X320650D02*
D03*
X314350D02*
D03*
D21*
X343563Y50827D02*
D03*
X321437Y54173D02*
D03*
D22*
X378031Y130000D02*
D03*
X381968D02*
D03*
X378031Y120000D02*
D03*
X381968D02*
D03*
X351969Y170000D02*
D03*
X348031D02*
D03*
X339968Y164000D02*
D03*
X336032D02*
D03*
X339968Y160000D02*
D03*
X336032D02*
D03*
X196031Y178000D02*
D03*
X199969D02*
D03*
X196031Y172000D02*
D03*
X199969D02*
D03*
X196031Y168000D02*
D03*
X199969D02*
D03*
X196031Y162000D02*
D03*
X199969D02*
D03*
X196031Y158000D02*
D03*
X199969D02*
D03*
X196031Y152000D02*
D03*
X199969D02*
D03*
X196031Y148000D02*
D03*
X199969D02*
D03*
X196031Y142000D02*
D03*
X199969D02*
D03*
X196031Y138000D02*
D03*
X199969D02*
D03*
X196031Y132000D02*
D03*
X199969D02*
D03*
X196031Y128000D02*
D03*
X199969D02*
D03*
X196031Y122000D02*
D03*
X199969D02*
D03*
X196031Y118000D02*
D03*
X199969D02*
D03*
X351969Y90000D02*
D03*
X348031D02*
D03*
X378031Y50000D02*
D03*
X381968D02*
D03*
X339968Y84000D02*
D03*
X336032D02*
D03*
X378031Y40000D02*
D03*
X381968D02*
D03*
X339968Y80000D02*
D03*
X336032D02*
D03*
X206063Y115000D02*
D03*
X210000D02*
D03*
X196031Y112000D02*
D03*
X199969D02*
D03*
X196031Y108000D02*
D03*
X199969D02*
D03*
X196031Y102000D02*
D03*
X199969D02*
D03*
X196031Y98000D02*
D03*
X199969D02*
D03*
X196031Y92000D02*
D03*
X199969D02*
D03*
X196031Y88000D02*
D03*
X199969D02*
D03*
X196031Y82000D02*
D03*
X199969D02*
D03*
X196031Y78000D02*
D03*
X199969D02*
D03*
X196031Y72000D02*
D03*
X199969D02*
D03*
X196031Y68000D02*
D03*
X199969D02*
D03*
X196031Y62000D02*
D03*
X199969D02*
D03*
X196031Y58000D02*
D03*
X199969D02*
D03*
D23*
X230500Y167850D02*
D03*
Y174150D02*
D03*
X332500Y43201D02*
D03*
Y49500D02*
D03*
Y61799D02*
D03*
Y55500D02*
D03*
X60000Y58150D02*
D03*
Y51850D02*
D03*
Y161850D02*
D03*
Y168150D02*
D03*
Y151850D02*
D03*
Y158150D02*
D03*
Y141850D02*
D03*
Y148150D02*
D03*
Y131850D02*
D03*
Y138150D02*
D03*
Y121850D02*
D03*
Y128150D02*
D03*
Y111850D02*
D03*
Y118150D02*
D03*
Y101850D02*
D03*
Y108150D02*
D03*
Y91850D02*
D03*
Y98150D02*
D03*
Y81850D02*
D03*
Y88150D02*
D03*
Y71850D02*
D03*
Y78150D02*
D03*
Y61850D02*
D03*
Y68150D02*
D03*
X298000Y108850D02*
D03*
Y115150D02*
D03*
X242500Y110850D02*
D03*
Y117150D02*
D03*
X297000Y167650D02*
D03*
Y161350D02*
D03*
X231000Y128350D02*
D03*
Y134650D02*
D03*
X226000Y128350D02*
D03*
Y134650D02*
D03*
X230500Y94150D02*
D03*
Y87850D02*
D03*
X297000Y87650D02*
D03*
Y81350D02*
D03*
X245500Y35350D02*
D03*
Y41650D02*
D03*
X231000Y48850D02*
D03*
Y55150D02*
D03*
D24*
X204850Y138000D02*
D03*
X211150D02*
D03*
X204850Y148000D02*
D03*
X211150D02*
D03*
X235350Y179000D02*
D03*
X241650D02*
D03*
X211150Y168000D02*
D03*
X204850D02*
D03*
X249150Y185000D02*
D03*
X242850D02*
D03*
X124150Y189500D02*
D03*
X117850D02*
D03*
X211150Y158000D02*
D03*
X204850D02*
D03*
X211150Y128000D02*
D03*
X204850D02*
D03*
X284150Y121000D02*
D03*
X277850D02*
D03*
X284150Y116000D02*
D03*
X277850D02*
D03*
X231850D02*
D03*
X238150D02*
D03*
X231850Y121000D02*
D03*
X238150D02*
D03*
X234850Y99000D02*
D03*
X241150D02*
D03*
X211150Y108000D02*
D03*
X204850D02*
D03*
X117150Y46500D02*
D03*
X110850D02*
D03*
X262350Y32000D02*
D03*
X268650D02*
D03*
X211150Y98000D02*
D03*
X204850D02*
D03*
X211150Y88000D02*
D03*
X204850D02*
D03*
X211150Y78000D02*
D03*
X204850D02*
D03*
X211150Y68000D02*
D03*
X204850D02*
D03*
X281150Y41000D02*
D03*
X274850D02*
D03*
X281150Y36000D02*
D03*
X274850D02*
D03*
X234850D02*
D03*
X241150D02*
D03*
X234850Y41000D02*
D03*
X241150D02*
D03*
X211150Y58000D02*
D03*
X204850D02*
D03*
D25*
X145220Y115866D02*
D03*
X152779D02*
D03*
X149000Y124134D02*
D03*
X174000Y174134D02*
D03*
X177779Y165866D02*
D03*
X170220D02*
D03*
X149000Y164134D02*
D03*
X152779Y155866D02*
D03*
X145220D02*
D03*
X174000Y154134D02*
D03*
X177779Y145866D02*
D03*
X170220D02*
D03*
X149000Y144134D02*
D03*
X152779Y135866D02*
D03*
X145220D02*
D03*
X174000Y134134D02*
D03*
X177779Y125866D02*
D03*
X170220D02*
D03*
X174000Y114134D02*
D03*
X177779Y105866D02*
D03*
X170220D02*
D03*
X149000Y104134D02*
D03*
X152779Y95866D02*
D03*
X145220D02*
D03*
X174000Y94134D02*
D03*
X177779Y85866D02*
D03*
X170220D02*
D03*
X149000Y84134D02*
D03*
X152779Y75866D02*
D03*
X145220D02*
D03*
X174000Y74134D02*
D03*
X177779Y65866D02*
D03*
X170220D02*
D03*
X149000Y64134D02*
D03*
X152779Y55866D02*
D03*
X145220D02*
D03*
D26*
X107811Y120000D02*
D03*
X84189D02*
D03*
X138311Y170000D02*
D03*
X114689D02*
D03*
X84189Y160000D02*
D03*
X107811D02*
D03*
X114689Y150000D02*
D03*
X138311D02*
D03*
X84189Y140000D02*
D03*
X107811D02*
D03*
X114689Y130000D02*
D03*
X138311D02*
D03*
X114689Y110000D02*
D03*
X138311D02*
D03*
X84189Y100000D02*
D03*
X107811D02*
D03*
X114689Y90000D02*
D03*
X138311D02*
D03*
X84189Y80000D02*
D03*
X107811D02*
D03*
X114689Y70000D02*
D03*
X138311D02*
D03*
X84189Y60000D02*
D03*
X107811D02*
D03*
D27*
X188500Y174480D02*
D03*
Y165520D02*
D03*
X163500Y164480D02*
D03*
Y155520D02*
D03*
X188500Y154480D02*
D03*
Y145520D02*
D03*
X163500Y144480D02*
D03*
Y135520D02*
D03*
X188500Y134480D02*
D03*
Y125520D02*
D03*
X163500Y124480D02*
D03*
Y115520D02*
D03*
X188500Y114480D02*
D03*
Y105520D02*
D03*
X163500Y104480D02*
D03*
Y95520D02*
D03*
X188500Y94480D02*
D03*
Y85520D02*
D03*
X163500Y84480D02*
D03*
Y75520D02*
D03*
X188500Y74480D02*
D03*
Y65520D02*
D03*
X163500Y64480D02*
D03*
Y55520D02*
D03*
D28*
X76000Y157992D02*
D03*
Y170000D02*
D03*
X67000Y147992D02*
D03*
Y160000D02*
D03*
X76000Y137992D02*
D03*
Y150000D02*
D03*
X67000Y127992D02*
D03*
Y140000D02*
D03*
X76000Y117992D02*
D03*
Y130000D02*
D03*
X67000Y107992D02*
D03*
Y120000D02*
D03*
X76000Y97996D02*
D03*
Y110004D02*
D03*
X67000Y87992D02*
D03*
Y100000D02*
D03*
X76000Y77992D02*
D03*
Y90000D02*
D03*
X67000Y67992D02*
D03*
Y80000D02*
D03*
X76000Y57992D02*
D03*
Y70000D02*
D03*
X67000Y47992D02*
D03*
Y60000D02*
D03*
D29*
X183000Y168032D02*
D03*
Y171968D02*
D03*
X158000Y158031D02*
D03*
Y161969D02*
D03*
X183000Y148031D02*
D03*
Y151969D02*
D03*
X158000Y138031D02*
D03*
Y141969D02*
D03*
X183000Y128032D02*
D03*
Y131968D02*
D03*
X158000Y118032D02*
D03*
Y121968D02*
D03*
X183000Y108031D02*
D03*
Y111969D02*
D03*
X158000Y98032D02*
D03*
Y101969D02*
D03*
X183000Y88032D02*
D03*
Y91969D02*
D03*
X158000Y78031D02*
D03*
Y81968D02*
D03*
X183000Y68032D02*
D03*
Y71969D02*
D03*
X158000Y58031D02*
D03*
Y61968D02*
D03*
X267000Y114032D02*
D03*
Y117968D02*
D03*
X259000Y114032D02*
D03*
Y117968D02*
D03*
X255000Y114032D02*
D03*
Y117968D02*
D03*
X251000Y114032D02*
D03*
Y117968D02*
D03*
X275000Y106032D02*
D03*
Y109968D02*
D03*
X271000Y106032D02*
D03*
Y109968D02*
D03*
X263000Y106032D02*
D03*
Y109968D02*
D03*
X247000Y106032D02*
D03*
Y109968D02*
D03*
X340000Y27968D02*
D03*
Y24032D02*
D03*
X345000Y27968D02*
D03*
Y24032D02*
D03*
X350000Y27968D02*
D03*
Y24032D02*
D03*
X355000Y27968D02*
D03*
Y24032D02*
D03*
X300000Y11969D02*
D03*
Y8032D02*
D03*
X290000Y11969D02*
D03*
Y8032D02*
D03*
X325000Y27968D02*
D03*
Y24032D02*
D03*
X320000Y27968D02*
D03*
Y24032D02*
D03*
X315000Y27968D02*
D03*
Y24032D02*
D03*
X310000Y27968D02*
D03*
Y24032D02*
D03*
X288500Y170500D02*
D03*
Y174437D02*
D03*
X292500Y170500D02*
D03*
Y174437D02*
D03*
X288500Y90531D02*
D03*
Y94468D02*
D03*
X292500Y90531D02*
D03*
Y94468D02*
D03*
D30*
X380000Y162953D02*
D03*
Y157047D02*
D03*
Y82953D02*
D03*
Y77047D02*
D03*
D31*
X354134Y160000D02*
D03*
X345866Y156220D02*
D03*
Y163779D02*
D03*
X354134Y80000D02*
D03*
X345866Y76221D02*
D03*
Y83780D02*
D03*
D32*
X242850Y190500D02*
D03*
X249150D02*
D03*
X111350Y184000D02*
D03*
X117650D02*
D03*
X104850Y41000D02*
D03*
X111150D02*
D03*
X269650Y26000D02*
D03*
X263350D02*
D03*
D33*
X254547Y190500D02*
D03*
X260453D02*
D03*
X123047Y184000D02*
D03*
X128953D02*
D03*
X128547Y190000D02*
D03*
X134453D02*
D03*
X116547Y41000D02*
D03*
X122453D02*
D03*
X121547Y47000D02*
D03*
X127453D02*
D03*
D34*
X254000Y184953D02*
D03*
Y179047D02*
D03*
X257500Y26047D02*
D03*
Y31953D02*
D03*
X251500Y32047D02*
D03*
Y37953D02*
D03*
D59*
X260000Y70000D02*
D03*
Y150000D02*
D03*
D60*
X230500Y94150D02*
Y97500D01*
Y94150D02*
X230675Y94325D01*
X248000Y134000D02*
X249173Y132827D01*
X355000Y115150D02*
X380650D01*
X381968Y116469D01*
Y120000D01*
X290000Y4500D02*
Y8032D01*
X199969Y168000D02*
X204850D01*
X199969Y158000D02*
X204850D01*
X199969Y148000D02*
X204850D01*
X199969Y138000D02*
X204850D01*
X199969Y128000D02*
X204850D01*
X199969Y108000D02*
X204850D01*
X199969Y98000D02*
X204850D01*
X199969Y88000D02*
X204850D01*
X199969Y78000D02*
X204850D01*
X199969Y68000D02*
X204850D01*
X199969Y58000D02*
X204850D01*
X230500Y166197D02*
X231933Y164764D01*
X230500Y166197D02*
Y167850D01*
X231933Y164764D02*
X237409D01*
X199969Y178000D02*
X217000D01*
X227150Y167850D02*
X230500D01*
X219500Y115000D02*
X227000Y107500D01*
X210000Y115000D02*
X219500D01*
X227000Y89000D02*
X228000Y88000D01*
X217000Y178000D02*
X227150Y167850D01*
X230500Y86000D02*
Y87850D01*
X227000Y89000D02*
Y107500D01*
X228000Y88000D02*
X230350D01*
X230500Y87850D01*
X231736Y84764D02*
X237409D01*
X230500Y86000D02*
X231736Y84764D01*
X145220Y95866D02*
Y96752D01*
X145909Y97441D01*
X163500Y103398D02*
X163894Y103004D01*
X145220Y115866D02*
Y116752D01*
X145909Y117441D01*
X163500Y123398D02*
X163894Y123004D01*
X163500Y143398D02*
Y144480D01*
X145220Y135866D02*
Y136752D01*
X145909Y137441D01*
X145220Y155866D02*
Y156752D01*
X145909Y157441D01*
X163500Y163398D02*
Y164480D01*
X170220Y165866D02*
Y166752D01*
X170909Y167441D01*
X188500Y173398D02*
Y174480D01*
X191020D01*
X193500Y172000D01*
X196031D01*
X188500Y165520D02*
X191020D01*
X193500Y168000D01*
X196031D01*
X170220Y145866D02*
Y146752D01*
X170909Y147441D01*
X188500Y153398D02*
Y154480D01*
X191020D01*
X193500Y152000D01*
X196031D01*
X188500Y145520D02*
X191020D01*
X193500Y148000D01*
X196031D01*
X188500Y85520D02*
X191020D01*
X193500Y88000D01*
X196031D01*
X145220Y75866D02*
Y76752D01*
X145909Y77441D01*
X163500Y83398D02*
Y84480D01*
X166213D01*
X170220Y65866D02*
Y66752D01*
X170909Y67441D01*
X188500Y73398D02*
Y74480D01*
X193500Y72000D02*
X196031D01*
X188500Y65520D02*
X191020D01*
X193500Y68000D01*
X196031D01*
X145220Y55866D02*
Y56752D01*
X145909Y57441D01*
X163500Y63398D02*
Y64480D01*
X188500Y125520D02*
X191020D01*
X193500Y128000D01*
X196031D01*
X193500Y132000D02*
X196031D01*
X170220Y85866D02*
Y86752D01*
X170909Y87441D01*
X188500Y133398D02*
Y134480D01*
Y93398D02*
Y94480D01*
X193500Y92000D02*
X196031D01*
X170220Y125866D02*
Y126752D01*
X170909Y127441D01*
X170220Y105866D02*
Y106752D01*
X170909Y107441D01*
X188500Y113398D02*
Y114480D01*
X191020D01*
X193500Y112000D01*
X196031D01*
X188500Y105520D02*
X191020D01*
X193500Y108000D01*
X196031D01*
X195441Y118600D02*
X196031Y118009D01*
X161504Y63004D02*
X163106D01*
X188106Y173004D02*
X188500Y173398D01*
X188106Y153004D02*
X188500Y153398D01*
X158000Y141969D02*
X160468D01*
X169100Y98600D02*
X195441D01*
X196031Y101990D02*
Y102000D01*
X152969Y161969D02*
X158000D01*
X165500Y115500D02*
X168600Y118600D01*
X188106Y133004D02*
X188500Y133398D01*
X196031Y121991D02*
Y122000D01*
X185468Y91969D02*
X186504Y93004D01*
X168100Y101400D02*
X195441D01*
X196031Y115969D02*
Y118009D01*
X183000Y151969D02*
X185468D01*
X169100Y78600D02*
X195441D01*
X183591Y172559D02*
X185059D01*
X161504Y83004D02*
X163106D01*
X148441Y117441D02*
X152969Y121968D01*
X188106Y93004D02*
X188500Y93398D01*
X163894Y103004D02*
X164976D01*
X160000Y174500D02*
X164000D01*
X158000Y81968D02*
X160468D01*
X188500Y74480D02*
X191020D01*
X166020Y155520D02*
X168995Y158495D01*
X163106Y143004D02*
X163500Y143398D01*
X163106Y103004D02*
X163500Y103398D01*
X195441Y161386D02*
X196031Y161976D01*
X163500Y115520D02*
X163520Y115500D01*
X152969Y81968D02*
X158000D01*
X195441Y121400D02*
X196031Y121991D01*
X197000Y115000D02*
X206063D01*
X177969Y171968D02*
X183000D01*
X148441Y137441D02*
X152969Y141969D01*
X191020Y94480D02*
X191498Y94002D01*
X166500Y103000D02*
X168100Y101400D01*
X148441Y77441D02*
X152969Y81968D01*
X173441Y167441D02*
X177969Y171968D01*
X158000Y101969D02*
X160468D01*
X145909Y117441D02*
X148441D01*
X191498Y74002D02*
X193500Y72000D01*
X163500Y155520D02*
X166020D01*
X195531Y141500D02*
X196031Y142000D01*
X161504Y123004D02*
X163106D01*
X188500Y134480D02*
X191020D01*
X160468Y101969D02*
X161504Y103004D01*
X158000Y161969D02*
X158591Y162559D01*
X196031Y115969D02*
X197000Y115000D01*
X169393Y81300D02*
X195441D01*
X163106Y123004D02*
X163500Y123398D01*
X195516Y178516D02*
X196031Y178000D01*
X168995Y158495D02*
X195536D01*
X166020Y164480D02*
X169114Y161386D01*
X163520Y115500D02*
X165500D01*
X173441Y147441D02*
X177969Y151969D01*
X166020Y75520D02*
X169100Y78600D01*
X191498Y94002D02*
X193500Y92000D01*
X152969Y121968D02*
X158000D01*
X168600Y118600D02*
X195441D01*
X185468Y151969D02*
X186504Y153004D01*
X169114Y161386D02*
X195441D01*
X152969Y141969D02*
X158000D01*
X148441Y157441D02*
X152969Y161969D01*
X160468Y61968D02*
X161504Y63004D01*
X160468Y141969D02*
X161504Y143004D01*
X163500Y164480D02*
X166020D01*
X177969Y111969D02*
X183000D01*
X161504Y143004D02*
X163106D01*
Y163004D02*
X163500Y163398D01*
X196031Y81890D02*
Y82000D01*
Y78000D02*
Y78009D01*
X191020Y74480D02*
X191498Y74002D01*
X177969Y71969D02*
X183000D01*
X170909Y67441D02*
X173441D01*
X196031Y61990D02*
Y62000D01*
X165620Y64480D02*
X168700Y61400D01*
X163500Y64480D02*
X165620D01*
X158000Y61968D02*
X160468D01*
X195441Y61400D02*
X196031Y61990D01*
X145909Y57441D02*
X148441D01*
X166120Y55520D02*
X168600Y58000D01*
X163500Y55520D02*
X166120D01*
X168600Y58000D02*
X196031D01*
X186504Y133004D02*
X188106D01*
X185468Y131968D02*
X186504Y133004D01*
Y93004D02*
X188106D01*
X188500Y94480D02*
X191020D01*
X195441Y98600D02*
X196031Y98010D01*
X166020Y95520D02*
X169100Y98600D01*
X173441Y127441D02*
X177969Y131968D01*
X183000D02*
X185468D01*
X163500Y135520D02*
X166020D01*
X169066Y138566D02*
X195465D01*
X196031Y138000D01*
X183000Y111969D02*
X185468D01*
X170909Y107441D02*
X173441D01*
X186504Y113004D02*
X188106D01*
X163500Y144480D02*
X166020D01*
X173441Y67441D02*
X177969Y71969D01*
X158000Y121968D02*
X160468D01*
X152969Y101969D02*
X158000D01*
X168016Y178516D02*
X195516D01*
X185504Y173004D02*
X188106D01*
X161504Y103004D02*
X163106D01*
X166580Y121400D02*
X195441D01*
X164980Y103000D02*
X166500D01*
X185059Y172559D02*
X185504Y173004D01*
X164976Y123004D02*
X166580Y121400D01*
X164976Y103004D02*
X164980Y103000D01*
X183000Y171968D02*
X183591Y172559D01*
X164000Y174500D02*
X168016Y178516D01*
X148441Y97441D02*
X152969Y101969D01*
X145909Y157441D02*
X148441D01*
X195441Y101400D02*
X196031Y101990D01*
X160468Y121968D02*
X161504Y123004D01*
X163894D02*
X164976D01*
X145909Y97441D02*
X148441D01*
X160559Y162559D02*
X161004Y163004D01*
X169000Y141500D02*
X195531D01*
X166020Y144480D02*
X169000Y141500D01*
X161004Y163004D02*
X163106D01*
X145909Y137441D02*
X148441D01*
X196031Y161976D02*
Y162000D01*
X158591Y162559D02*
X160559D01*
X170909Y167441D02*
X173441D01*
X195536Y158495D02*
X196031Y158000D01*
X170909Y147441D02*
X173441D01*
X177969Y151969D02*
X183000D01*
X195441Y78600D02*
X196031Y78009D01*
X186504Y153004D02*
X188106D01*
X145909Y77441D02*
X148441D01*
X163106Y83004D02*
X163500Y83398D01*
Y95520D02*
X166020D01*
X160468Y81968D02*
X161504Y83004D01*
X195441Y81300D02*
X196031Y81890D01*
X166213Y84480D02*
X169393Y81300D01*
X163500Y75520D02*
X166020D01*
X183000Y71969D02*
X185468D01*
X188106Y113004D02*
X188500Y113398D01*
X185468Y71969D02*
X186504Y73004D01*
X188106D01*
X170909Y127441D02*
X173441D01*
X188106Y73004D02*
X188500Y73398D01*
X177969Y91969D02*
X183000D01*
X185468D01*
X148441Y57441D02*
X152969Y61968D01*
X173441Y87441D02*
X177969Y91969D01*
X152969Y61968D02*
X158000D01*
X191498Y134002D02*
X193500Y132000D01*
X163106Y63004D02*
X163500Y63398D01*
X168700Y61400D02*
X195441D01*
X170909Y87441D02*
X173441D01*
Y107441D02*
X177969Y111969D01*
X196031Y98000D02*
Y98010D01*
X185468Y111969D02*
X186504Y113004D01*
X177969Y131968D02*
X183000D01*
X166020Y135520D02*
X169066Y138566D01*
X191020Y134480D02*
X191498Y134002D01*
X264500Y179000D02*
X264921Y178579D01*
Y172591D02*
Y178579D01*
X266890Y172591D02*
X268858D01*
X264921D02*
X266890D01*
X262953D02*
X264921D01*
X260984D02*
X262953D01*
X259016D02*
X260984D01*
X257047D02*
X259016D01*
X255079D02*
X257047D01*
X128953Y184000D02*
X141500D01*
X145500Y188000D01*
X134453Y190000D02*
X138500D01*
X230500Y174150D02*
Y177500D01*
X128500Y184453D02*
X128953Y184000D01*
X128047Y190000D02*
X128500Y189547D01*
X127547Y189500D02*
X128047Y190000D01*
X123650Y189500D02*
X127547D01*
X128500Y184453D02*
Y189547D01*
X251142Y133142D02*
X252000Y134000D01*
X251142Y127409D02*
Y133142D01*
X249173Y127409D02*
Y132827D01*
X344500Y170000D02*
X348031D01*
X332000Y164000D02*
X336032D01*
X277530Y126500D02*
X287500D01*
X277530D02*
X277883Y126147D01*
Y121033D02*
Y126147D01*
X277378Y121500D02*
X277850Y121028D01*
Y116000D02*
Y121000D01*
Y121028D01*
X242850Y185000D02*
Y190500D01*
X238000D02*
X242850D01*
X111500Y189500D02*
X117350D01*
X274764Y126500D02*
Y127409D01*
Y126500D02*
X277530D01*
X274500Y121500D02*
X277378D01*
X111500Y184150D02*
Y189500D01*
X111350Y184000D02*
X111500Y184150D01*
X117650Y184000D02*
X123047D01*
X258953Y184953D02*
X260453Y186453D01*
Y190500D01*
X254000Y184953D02*
X258953D01*
X249197D02*
X249500Y184650D01*
X249150Y185000D02*
X249197Y184953D01*
X254000D01*
X249500Y177957D02*
Y184650D01*
X251142Y172591D02*
Y176315D01*
X249500Y177957D02*
X251142Y176315D01*
X253110Y178157D02*
X254000Y179047D01*
X253110Y172591D02*
Y178157D01*
Y87890D02*
X255000Y86000D01*
X253110Y87890D02*
Y92590D01*
X127453Y47000D02*
X133500D01*
X251142Y88142D02*
Y92590D01*
X249000Y86000D02*
X251142Y88142D01*
X132000Y41000D02*
X133500Y42500D01*
X121047Y46500D02*
X121547Y47000D01*
X122000Y46547D01*
X117150Y46500D02*
X121047D01*
X122453Y41000D02*
X132000D01*
X122000Y41453D02*
Y46547D01*
Y41453D02*
X122453Y41000D01*
X111150D02*
X116547D01*
X104925Y41075D02*
Y46425D01*
X274764Y47000D02*
X281000D01*
X105000Y46500D02*
X110850D01*
X245500Y32000D02*
Y35350D01*
X266000Y54000D02*
X266890Y53110D01*
Y47409D02*
Y53110D01*
X255079Y53079D02*
X256000Y54000D01*
X255079Y47409D02*
Y53079D01*
X266890Y47409D02*
X268858D01*
X264921D02*
X266890D01*
X262953D02*
X264921D01*
X257047D02*
X259016D01*
X255079D02*
X257047D01*
X253110D02*
X255079D01*
X254308Y41500D02*
X257500Y38308D01*
X251142Y42858D02*
X252500Y41500D01*
X254308D01*
X257500Y32047D02*
Y38308D01*
X243500Y53500D02*
X245236Y51764D01*
Y47409D02*
Y51764D01*
X247205Y51705D02*
X249000Y53500D01*
X247205Y47409D02*
Y51705D01*
X301425Y81425D02*
X301500Y81500D01*
X297000Y81350D02*
X297075Y81425D01*
X301425D01*
X242597Y45096D02*
X245236D01*
X268650Y38650D02*
X271087Y41087D01*
X274764D01*
X268650Y32000D02*
Y38650D01*
Y27000D02*
X269650Y26000D01*
X268650Y27000D02*
Y32000D01*
X263303Y26047D02*
X263350Y26000D01*
X257500Y26047D02*
X263303D01*
X257500Y31953D02*
Y32047D01*
X262303D01*
X251500D02*
X257500D01*
X262303D02*
X262350Y32000D01*
X251142Y42858D02*
Y47409D01*
X249173Y41719D02*
X250122Y40771D01*
Y39035D02*
Y40771D01*
X249173Y41719D02*
Y47409D01*
X241150Y36000D02*
Y41000D01*
X241500Y41350D02*
Y44000D01*
X241150Y41000D02*
X241500Y41350D01*
Y44000D02*
X242597Y45096D01*
X245236D02*
Y47409D01*
X246287Y41650D02*
X246760Y42122D01*
X245500Y41650D02*
X246287D01*
X246760Y43260D02*
X247205Y43705D01*
X246760Y42122D02*
Y43260D01*
X247205Y43705D02*
Y47409D01*
X250122Y39035D02*
X251205Y37953D01*
X251500D01*
X274764Y41087D02*
Y47000D01*
Y47409D01*
X298000Y105500D02*
Y108850D01*
Y115150D02*
Y118500D01*
X300000Y11969D02*
Y15500D01*
X290000Y11969D02*
Y15500D01*
X295000Y10000D02*
Y18000D01*
X274850Y32650D02*
X281750Y25750D01*
X287250D02*
X295000Y18000D01*
X281750Y25750D02*
X287250D01*
X295000Y10000D02*
X296969Y8032D01*
X300000D01*
X274850Y32650D02*
Y36000D01*
X297000Y161350D02*
X297075Y161425D01*
X300925D01*
X301000Y161500D01*
X344500Y90000D02*
X348031D01*
X341610Y76110D02*
X345756D01*
X345866Y76221D01*
X341500Y76000D02*
X341610Y76110D01*
X381968Y50000D02*
X385500D01*
X381968Y40000D02*
X385500D01*
X341610Y156110D02*
X345756D01*
X345866Y156220D01*
X341500Y156000D02*
X341610Y156110D01*
X238075Y111575D02*
Y115925D01*
X238150Y116000D01*
X238000Y111500D02*
X238075Y111575D01*
X284150Y121000D02*
X287500D01*
X381968Y130000D02*
X385000D01*
X291827Y80827D02*
X292350Y81350D01*
X297000D01*
X282591Y80827D02*
X291827D01*
X332000Y84000D02*
X336032D01*
X340079Y83890D02*
X345756D01*
X339968Y84000D02*
X340079Y83890D01*
X345756D02*
X345866Y83780D01*
X339968Y80000D02*
Y84000D01*
X340079Y163890D02*
X345756D01*
X339968Y164000D02*
X340079Y163890D01*
X345756D02*
X345866Y163779D01*
X339968Y160000D02*
Y164000D01*
X354134Y77866D02*
Y80000D01*
Y77866D02*
X354953Y77047D01*
X380000D01*
X351969Y166032D02*
Y170000D01*
Y166032D02*
X355047Y162953D01*
X380000D01*
X351969Y86032D02*
Y90000D01*
Y86032D02*
X355047Y82953D01*
X380000D01*
X354134Y157866D02*
Y160000D01*
Y157866D02*
X354953Y157047D01*
X380000D01*
X242500Y108000D02*
Y110850D01*
X288436Y138000D02*
X288500D01*
X287263Y139173D02*
X288436Y138000D01*
X282591Y160827D02*
X290310D01*
X290334Y160850D02*
X297000D01*
X290310Y160827D02*
X290334Y160850D01*
X282591Y162795D02*
X288795D01*
X292500Y166500D01*
X242500Y117150D02*
Y121000D01*
X246000D02*
X247205Y122205D01*
Y127409D01*
X242500Y121000D02*
X246000D01*
X260000Y53702D02*
X260984Y52718D01*
X260000Y53702D02*
Y54000D01*
X260984Y47409D02*
Y52718D01*
X288500Y94468D02*
Y97500D01*
X292500Y94468D02*
Y97500D01*
X297000Y87650D02*
Y90500D01*
Y167650D02*
Y170500D01*
X292500Y166500D02*
Y170500D01*
X286764Y164764D02*
X288500Y166500D01*
Y170500D01*
X282591Y164764D02*
X286764D01*
X292500Y174437D02*
Y177500D01*
X288500Y174437D02*
Y177500D01*
X290795Y82795D02*
X292500Y84500D01*
Y90531D01*
X282591Y82795D02*
X290795D01*
X288500Y86000D02*
Y90531D01*
X287264Y84764D02*
X288500Y86000D01*
X282591Y84764D02*
X287264D01*
X260000Y133680D02*
X260984Y132696D01*
Y127409D02*
Y132696D01*
X260000Y133680D02*
Y134000D01*
X284150Y116000D02*
X287500D01*
X274764Y172591D02*
Y175345D01*
X273857Y176251D02*
X274764Y175345D01*
X272795Y175188D02*
X274000Y176393D01*
X272795Y172591D02*
Y175188D01*
X274000Y176108D02*
Y178500D01*
X287444Y135236D02*
X288180Y134500D01*
X282591Y135236D02*
X287444D01*
X288180Y134500D02*
X288500D01*
X282591Y139173D02*
X287263D01*
X282591Y137205D02*
Y139173D01*
Y135236D02*
Y137205D01*
X235425Y174575D02*
Y178925D01*
X235350Y179000D02*
X235425Y178925D01*
Y174575D02*
X235500Y174500D01*
X241650Y179000D02*
X246000D01*
X247205Y172591D02*
Y175795D01*
X246000Y177000D02*
X247205Y175795D01*
X246000Y177000D02*
Y179000D01*
X245236Y176236D02*
X246000Y177000D01*
X245236Y172591D02*
Y176236D01*
X211150Y78000D02*
X214000D01*
X233000Y138000D02*
X234173Y139173D01*
X237409D01*
Y57205D02*
Y59173D01*
X231320Y58500D02*
X231993Y59173D01*
X237409D01*
X231000Y58500D02*
X231320D01*
X274764Y94903D02*
X276403D01*
X274764Y92590D02*
Y94903D01*
X276403D02*
X279500Y98000D01*
X274000D02*
X276000D01*
X272795Y96795D02*
X274000Y98000D01*
X272795Y92590D02*
Y96795D01*
X287444Y55236D02*
X288180Y54500D01*
X282591Y55236D02*
X287444D01*
X288180Y54500D02*
X288500D01*
X282591Y55236D02*
Y57205D01*
Y59173D01*
X287263D02*
X288436Y58000D01*
X282591Y59173D02*
X287263D01*
X288436Y58000D02*
X288500D01*
X281150Y36000D02*
X284500D01*
X281150Y41000D02*
X284500D01*
X274850Y36000D02*
Y41000D01*
X274764Y41087D02*
X274850Y41000D01*
X231000Y45500D02*
Y48850D01*
Y55150D02*
X231087Y55236D01*
X237409D01*
X231500Y36000D02*
X234850D01*
X231500Y41000D02*
X234850D01*
X163500Y103398D02*
Y104480D01*
X234925Y94575D02*
Y98925D01*
X234850Y99000D02*
X234925Y98925D01*
Y94575D02*
X235000Y94500D01*
X211150Y58000D02*
X214000D01*
X211150Y68000D02*
X214000D01*
X211150Y138000D02*
X214000D01*
X211150Y128000D02*
X214000D01*
X211150Y108000D02*
X214000D01*
X211150Y98000D02*
X214000D01*
X211150Y88000D02*
X214000D01*
X211150Y148000D02*
X214500D01*
X211150Y158000D02*
X214500D01*
X211150Y168000D02*
X214500D01*
X231000Y138000D02*
X233000D01*
X226000Y125500D02*
Y128350D01*
X163500Y123398D02*
Y124480D01*
X247205Y92590D02*
Y95795D01*
X246000Y97000D02*
X247205Y95795D01*
X246000Y97000D02*
Y99000D01*
X245236Y92590D02*
Y96236D01*
X246000Y97000D01*
X233795Y137205D02*
X237409D01*
X233000Y138000D02*
X233795Y137205D01*
X228500Y116000D02*
X231850D01*
X228500Y121000D02*
X231850D01*
X231000Y125500D02*
Y128350D01*
X231026Y134623D02*
X233407D01*
X231000Y134650D02*
X231026Y134623D01*
X233407D02*
X234020Y135236D01*
X237409D01*
X238150Y116000D02*
Y121000D01*
X241459Y125096D02*
X245236D01*
X238150Y121000D02*
Y121787D01*
X245236Y125096D02*
Y127409D01*
X238150Y121787D02*
X241459Y125096D01*
X325000Y15000D02*
Y24032D01*
D61*
X249150Y190500D02*
X254547D01*
X104850Y41000D02*
X104925Y41075D01*
Y46425D02*
X105000Y46500D01*
X241150Y99000D02*
X246000D01*
D62*
X80000Y205000D02*
D03*
X75000D02*
D03*
X70000D02*
D03*
X65000D02*
D03*
X60000D02*
D03*
X55000D02*
D03*
X50000D02*
D03*
X45000D02*
D03*
X40000D02*
D03*
X315000D02*
D03*
X320000D02*
D03*
X325000D02*
D03*
X330000D02*
D03*
X335000D02*
D03*
X340000D02*
D03*
X345000D02*
D03*
X350000D02*
D03*
X355000D02*
D03*
Y15000D02*
D03*
X350000D02*
D03*
X345000D02*
D03*
X340000D02*
D03*
X335000D02*
D03*
X330000D02*
D03*
X325000D02*
D03*
X320000D02*
D03*
X315000D02*
D03*
X40000D02*
D03*
X45000D02*
D03*
X50000D02*
D03*
X55000D02*
D03*
X60000D02*
D03*
X65000D02*
D03*
X70000D02*
D03*
X75000D02*
D03*
X80000D02*
D03*
D63*
X35000Y205000D02*
D03*
X310000D02*
D03*
Y15000D02*
D03*
X35000D02*
D03*
D64*
X50000Y50000D02*
D03*
D65*
Y60000D02*
D03*
Y70000D02*
D03*
Y80000D02*
D03*
Y90000D02*
D03*
Y100000D02*
D03*
Y110000D02*
D03*
Y120000D02*
D03*
Y130000D02*
D03*
Y140000D02*
D03*
Y150000D02*
D03*
Y160000D02*
D03*
Y170000D02*
D03*
D66*
X375000Y205000D02*
D03*
X15000D02*
D03*
X375000Y15000D02*
D03*
X15000D02*
D03*
D67*
X230500Y97500D02*
D03*
X248000Y134000D02*
D03*
X310500Y52500D02*
D03*
X352618Y37000D02*
D03*
X342382D02*
D03*
X312382D02*
D03*
X322618D02*
D03*
X332500Y65000D02*
D03*
X355000Y115150D02*
D03*
X290000Y4500D02*
D03*
X264500Y179000D02*
D03*
X160000Y174500D02*
D03*
X145500Y188000D02*
D03*
X230500Y177500D02*
D03*
X138500Y190000D02*
D03*
X344500Y170000D02*
D03*
X332000Y164000D02*
D03*
X287500Y126500D02*
D03*
X238000Y190500D02*
D03*
X274500Y121500D02*
D03*
X111500Y189500D02*
D03*
X133500Y47000D02*
D03*
Y42500D02*
D03*
X255000Y86000D02*
D03*
X249000D02*
D03*
X105000Y46500D02*
D03*
X245500Y32000D02*
D03*
X266000Y54000D02*
D03*
X256000D02*
D03*
X301500Y81500D02*
D03*
X249000Y53500D02*
D03*
X243500D02*
D03*
X281000Y47000D02*
D03*
X298000Y105500D02*
D03*
Y118500D02*
D03*
X300000Y15500D02*
D03*
X290000D02*
D03*
X301000Y161500D02*
D03*
X341500Y76000D02*
D03*
X385500Y50000D02*
D03*
Y40000D02*
D03*
X341500Y156000D02*
D03*
X238000Y111500D02*
D03*
X287500Y121000D02*
D03*
X385000Y130000D02*
D03*
X332000Y84000D02*
D03*
X344500Y90000D02*
D03*
X340500Y55500D02*
D03*
X242500Y108000D02*
D03*
X288500Y138000D02*
D03*
X242500Y121000D02*
D03*
X260000Y54000D02*
D03*
X297000Y170500D02*
D03*
X292500Y177500D02*
D03*
X288500D02*
D03*
X297000Y90500D02*
D03*
X292500Y97500D02*
D03*
X288500D02*
D03*
X260000Y134000D02*
D03*
X252000D02*
D03*
X287500Y116000D02*
D03*
X274000Y178500D02*
D03*
X288500Y134500D02*
D03*
X235500Y174500D02*
D03*
X246000Y179000D02*
D03*
X214000Y78000D02*
D03*
X231000Y58500D02*
D03*
X279500Y98000D02*
D03*
X276000D02*
D03*
X288500Y54500D02*
D03*
Y58000D02*
D03*
X284500Y36000D02*
D03*
Y41000D02*
D03*
X231000Y45500D02*
D03*
X231500Y41000D02*
D03*
Y36000D02*
D03*
X181000Y164500D02*
D03*
Y144500D02*
D03*
X185000Y64500D02*
D03*
X181000D02*
D03*
X214000Y58000D02*
D03*
Y68000D02*
D03*
Y138000D02*
D03*
Y128000D02*
D03*
Y108000D02*
D03*
Y98000D02*
D03*
Y88000D02*
D03*
X181000Y87055D02*
D03*
X185000D02*
D03*
X214500Y168000D02*
D03*
Y158000D02*
D03*
Y148000D02*
D03*
X231000Y138000D02*
D03*
X226000Y125500D02*
D03*
X181000Y105362D02*
D03*
X185000D02*
D03*
Y124500D02*
D03*
X181000D02*
D03*
X235000Y94500D02*
D03*
X156000D02*
D03*
X160000D02*
D03*
X246000Y99000D02*
D03*
X228500Y116000D02*
D03*
Y121000D02*
D03*
X231000Y125500D02*
D03*
X156000Y114500D02*
D03*
X160000D02*
D03*
X332500Y40000D02*
D03*
X324500Y55500D02*
D03*
X354500Y52500D02*
D03*
X340500Y49500D02*
D03*
X324500D02*
D03*
X185000Y164500D02*
D03*
X156000Y154500D02*
D03*
X160000D02*
D03*
X185000Y144500D02*
D03*
X156000Y134500D02*
D03*
X160000D02*
D03*
X156000Y54500D02*
D03*
X160000D02*
D03*
Y74500D02*
D03*
X156000D02*
D03*
D68*
X265500Y59500D02*
D03*
X254500D02*
D03*
Y80500D02*
D03*
X265500D02*
D03*
X270500Y75500D02*
D03*
Y64500D02*
D03*
X249500D02*
D03*
Y75500D02*
D03*
Y144500D02*
D03*
Y155500D02*
D03*
X270500D02*
D03*
Y144500D02*
D03*
X265500Y139500D02*
D03*
X254500D02*
D03*
X265500Y160500D02*
D03*
X254500D02*
D03*
X249500Y150000D02*
D03*
X260000Y139500D02*
D03*
X270500D02*
D03*
Y150000D02*
D03*
Y160500D02*
D03*
X260000D02*
D03*
X249500D02*
D03*
X270500Y70000D02*
D03*
Y59500D02*
D03*
X260000D02*
D03*
X249500D02*
D03*
Y70000D02*
D03*
Y80500D02*
D03*
X260000D02*
D03*
X270500D02*
D03*
M02*
