G04*
G04 #@! TF.GenerationSoftware,Altium Limited,Altium Designer,21.6.4 (81)*
G04*
G04 Layer_Color=16711935*
%FSLAX25Y25*%
%MOIN*%
G70*
G04*
G04 #@! TF.SameCoordinates,D21CAB57-D7DD-4798-A039-69392B5906F0*
G04*
G04*
G04 #@! TF.FilePolarity,Positive*
G04*
G01*
G75*
%ADD12C,0.00394*%
%ADD13C,0.00787*%
D12*
X240315Y89685D02*
X279685D01*
Y50315D02*
Y89685D01*
X240315Y50315D02*
X279685D01*
X240315D02*
Y89685D01*
Y87717D02*
X242284Y89685D01*
X240315Y167717D02*
X242284Y169685D01*
X240315Y130315D02*
Y169685D01*
Y130315D02*
X279685D01*
Y169685D01*
X240315D02*
X279685D01*
X314449Y31291D02*
X320551D01*
X314449D02*
Y42709D01*
X320551D01*
Y31291D02*
Y42709D01*
X316811Y31291D02*
X320551Y35032D01*
X344449Y31291D02*
X350551D01*
X344449D02*
Y42709D01*
X350551D01*
Y31291D02*
Y42709D01*
X346811Y31291D02*
X350551Y35032D01*
X82953Y198996D02*
Y211004D01*
X32047D02*
X82953D01*
X32047Y198996D02*
Y211004D01*
Y198996D02*
X82953D01*
X307047D02*
X357953D01*
X307047D02*
Y211004D01*
X357953D01*
Y198996D02*
Y211004D01*
Y8996D02*
Y21004D01*
X307047D02*
X357953D01*
X307047Y8996D02*
Y21004D01*
Y8996D02*
X357953D01*
X32047D02*
X82953D01*
X32047D02*
Y21004D01*
X82953D01*
Y8996D02*
Y21004D01*
X378031Y130984D02*
X381968D01*
Y129016D02*
Y130984D01*
X378031Y129016D02*
X381968D01*
X378031D02*
Y130984D01*
Y120984D02*
X381968D01*
Y119016D02*
Y120984D01*
X378031Y119016D02*
X381968D01*
X378031D02*
Y120984D01*
X228925Y174150D02*
X232075D01*
X228925Y167850D02*
Y174150D01*
Y167850D02*
X232075D01*
Y174150D01*
X330925Y43201D02*
Y49500D01*
X334075D01*
Y43201D02*
Y49500D01*
X330925Y43201D02*
X334075D01*
Y55500D02*
Y61799D01*
X330925Y55500D02*
X334075D01*
X330925D02*
Y61799D01*
X334075D01*
X211150Y136425D02*
Y139575D01*
X204850D02*
X211150D01*
X204850Y136425D02*
Y139575D01*
Y136425D02*
X211150D01*
Y146425D02*
Y149575D01*
X204850D02*
X211150D01*
X204850Y146425D02*
Y149575D01*
Y146425D02*
X211150D01*
X143291Y117441D02*
Y122559D01*
X154709D01*
Y117441D02*
Y122559D01*
X143291Y117441D02*
X154709D01*
X143291Y121221D02*
X147071Y117441D01*
X83598Y113898D02*
X108402D01*
X83598D02*
Y126102D01*
X108402D01*
Y113898D02*
Y126102D01*
X114098Y163898D02*
X138902D01*
X114098D02*
Y176102D01*
X138902D01*
Y163898D02*
Y176102D01*
X58425Y51850D02*
X61575D01*
Y58150D01*
X58425D02*
X61575D01*
X58425Y51850D02*
Y58150D01*
X191059Y166555D02*
Y173445D01*
X185941Y166555D02*
X191059D01*
X185941D02*
Y173445D01*
X191059D01*
X188992D02*
X191059Y171378D01*
X166059Y156555D02*
Y163445D01*
X160941Y156555D02*
X166059D01*
X160941D02*
Y163445D01*
X166059D01*
X163992D02*
X166059Y161378D01*
X191059Y146555D02*
Y153445D01*
X185941Y146555D02*
X191059D01*
X185941D02*
Y153445D01*
X191059D01*
X188992D02*
X191059Y151378D01*
X166059Y136555D02*
Y143445D01*
X160941Y136555D02*
X166059D01*
X160941D02*
Y143445D01*
X166059D01*
X163992D02*
X166059Y141378D01*
X191059Y126555D02*
Y133445D01*
X185941Y126555D02*
X191059D01*
X185941D02*
Y133445D01*
X191059D01*
X188992D02*
X191059Y131378D01*
X166059Y116555D02*
Y123445D01*
X160941Y116555D02*
X166059D01*
X160941D02*
Y123445D01*
X166059D01*
X163992D02*
X166059Y121378D01*
X191059Y106555D02*
Y113445D01*
X185941Y106555D02*
X191059D01*
X185941D02*
Y113445D01*
X191059D01*
X188992D02*
X191059Y111378D01*
X166059Y96555D02*
Y103445D01*
X160941Y96555D02*
X166059D01*
X160941D02*
Y103445D01*
X166059D01*
X163992D02*
X166059Y101378D01*
X191059Y86555D02*
Y93445D01*
X185941Y86555D02*
X191059D01*
X185941D02*
Y93445D01*
X191059D01*
X188992D02*
X191059Y91378D01*
X166059Y76555D02*
Y83445D01*
X160941Y76555D02*
X166059D01*
X160941D02*
Y83445D01*
X166059D01*
X163992D02*
X166059Y81378D01*
X191059Y66555D02*
Y73445D01*
X185941Y66555D02*
X191059D01*
X185941D02*
Y73445D01*
X191059D01*
X188992D02*
X191059Y71378D01*
X166059Y56555D02*
Y63445D01*
X160941Y56555D02*
X166059D01*
X160941D02*
Y63445D01*
X166059D01*
X163992D02*
X166059Y61378D01*
X168291Y171221D02*
X172071Y167441D01*
X168291D02*
X179709D01*
Y172559D01*
X168291D02*
X179709D01*
X168291Y167441D02*
Y172559D01*
X76913Y169409D02*
X79394Y166929D01*
X72606Y169409D02*
X79394D01*
X72606Y158583D02*
Y169409D01*
Y158583D02*
X79394D01*
Y169409D01*
X58425Y161850D02*
Y168150D01*
X61575D01*
Y161850D02*
Y168150D01*
X58425Y161850D02*
X61575D01*
X182016Y168032D02*
Y171968D01*
X183984D01*
Y168032D02*
Y171968D01*
X182016Y168032D02*
X183984D01*
X108402Y153898D02*
Y166102D01*
X83598D02*
X108402D01*
X83598Y153898D02*
Y166102D01*
Y153898D02*
X108402D01*
X143291Y161221D02*
X147071Y157441D01*
X143291D02*
X154709D01*
Y162559D01*
X143291D02*
X154709D01*
X143291Y157441D02*
Y162559D01*
X67913Y159409D02*
X70394Y156929D01*
X63606Y159409D02*
X70394D01*
X63606Y148583D02*
Y159409D01*
Y148583D02*
X70394D01*
Y159409D01*
X58425Y151850D02*
Y158150D01*
X61575D01*
Y151850D02*
Y158150D01*
X58425Y151850D02*
X61575D01*
X157016Y158031D02*
Y161969D01*
X158984D01*
Y158031D02*
Y161969D01*
X157016Y158031D02*
X158984D01*
X138902Y143898D02*
Y156102D01*
X114098D02*
X138902D01*
X114098Y143898D02*
Y156102D01*
Y143898D02*
X138902D01*
X168291Y151221D02*
X172071Y147441D01*
X168291D02*
X179709D01*
Y152559D01*
X168291D02*
X179709D01*
X168291Y147441D02*
Y152559D01*
X76913Y149409D02*
X79394Y146929D01*
X72606Y149409D02*
X79394D01*
X72606Y138583D02*
Y149409D01*
Y138583D02*
X79394D01*
Y149409D01*
X58425Y141850D02*
Y148150D01*
X61575D01*
Y141850D02*
Y148150D01*
X58425Y141850D02*
X61575D01*
X182016Y148031D02*
Y151969D01*
X183984D01*
Y148031D02*
Y151969D01*
X182016Y148031D02*
X183984D01*
X108402Y133898D02*
Y146102D01*
X83598D02*
X108402D01*
X83598Y133898D02*
Y146102D01*
Y133898D02*
X108402D01*
X143291Y141220D02*
X147071Y137441D01*
X143291D02*
X154709D01*
Y142559D01*
X143291D02*
X154709D01*
X143291Y137441D02*
Y142559D01*
X67913Y139409D02*
X70394Y136929D01*
X63606Y139409D02*
X70394D01*
X63606Y128583D02*
Y139409D01*
Y128583D02*
X70394D01*
Y139409D01*
X58425Y131850D02*
Y138150D01*
X61575D01*
Y131850D02*
Y138150D01*
X58425Y131850D02*
X61575D01*
X157016Y138031D02*
Y141969D01*
X158984D01*
Y138031D02*
Y141969D01*
X157016Y138031D02*
X158984D01*
X138902Y123898D02*
Y136102D01*
X114098D02*
X138902D01*
X114098Y123898D02*
Y136102D01*
Y123898D02*
X138902D01*
X168291Y131220D02*
X172071Y127441D01*
X168291D02*
X179709D01*
Y132559D01*
X168291D02*
X179709D01*
X168291Y127441D02*
Y132559D01*
X76913Y129409D02*
X79394Y126929D01*
X72606Y129409D02*
X79394D01*
X72606Y118583D02*
Y129409D01*
Y118583D02*
X79394D01*
Y129409D01*
X58425Y121850D02*
Y128150D01*
X61575D01*
Y121850D02*
Y128150D01*
X58425Y121850D02*
X61575D01*
X182016Y128032D02*
Y131968D01*
X183984D01*
Y128032D02*
Y131968D01*
X182016Y128032D02*
X183984D01*
X67913Y119409D02*
X70394Y116929D01*
X63606Y119409D02*
X70394D01*
X63606Y108583D02*
Y119409D01*
Y108583D02*
X70394D01*
Y119409D01*
X58425Y111850D02*
Y118150D01*
X61575D01*
Y111850D02*
Y118150D01*
X58425Y111850D02*
X61575D01*
X157016Y118032D02*
Y121968D01*
X158984D01*
Y118032D02*
Y121968D01*
X157016Y118032D02*
X158984D01*
X138902Y103898D02*
Y116102D01*
X114098D02*
X138902D01*
X114098Y103898D02*
Y116102D01*
Y103898D02*
X138902D01*
X168291Y111221D02*
X172071Y107441D01*
X168291D02*
X179709D01*
Y112559D01*
X168291D02*
X179709D01*
X168291Y107441D02*
Y112559D01*
X76913Y109413D02*
X79394Y106933D01*
X72606Y109413D02*
X79394D01*
X72606Y98587D02*
Y109413D01*
Y98587D02*
X79394D01*
Y109413D01*
X58425Y101850D02*
Y108150D01*
X61575D01*
Y101850D02*
Y108150D01*
X58425Y101850D02*
X61575D01*
X182016Y108031D02*
Y111969D01*
X183984D01*
Y108031D02*
Y111969D01*
X182016Y108031D02*
X183984D01*
X108402Y93898D02*
Y106102D01*
X83598D02*
X108402D01*
X83598Y93898D02*
Y106102D01*
Y93898D02*
X108402D01*
X143291Y101221D02*
X147071Y97441D01*
X143291D02*
X154709D01*
Y102559D01*
X143291D02*
X154709D01*
X143291Y97441D02*
Y102559D01*
X67913Y99410D02*
X70394Y96929D01*
X63606Y99410D02*
X70394D01*
X63606Y88583D02*
Y99410D01*
Y88583D02*
X70394D01*
Y99410D01*
X58425Y91850D02*
Y98150D01*
X61575D01*
Y91850D02*
Y98150D01*
X58425Y91850D02*
X61575D01*
X157016Y98032D02*
Y101969D01*
X158984D01*
Y98032D02*
Y101969D01*
X157016Y98032D02*
X158984D01*
X138902Y83898D02*
Y96102D01*
X114098D02*
X138902D01*
X114098Y83898D02*
Y96102D01*
Y83898D02*
X138902D01*
X168291Y91220D02*
X172071Y87441D01*
X168291D02*
X179709D01*
Y92559D01*
X168291D02*
X179709D01*
X168291Y87441D02*
Y92559D01*
X76913Y89410D02*
X79394Y86929D01*
X72606Y89410D02*
X79394D01*
X72606Y78583D02*
Y89410D01*
Y78583D02*
X79394D01*
Y89410D01*
X58425Y81850D02*
Y88150D01*
X61575D01*
Y81850D02*
Y88150D01*
X58425Y81850D02*
X61575D01*
X182016Y88032D02*
Y91969D01*
X183984D01*
Y88032D02*
Y91969D01*
X182016Y88032D02*
X183984D01*
X108402Y73898D02*
Y86102D01*
X83598D02*
X108402D01*
X83598Y73898D02*
Y86102D01*
Y73898D02*
X108402D01*
X143291Y81221D02*
X147071Y77441D01*
X143291D02*
X154709D01*
Y82559D01*
X143291D02*
X154709D01*
X143291Y77441D02*
Y82559D01*
X67913Y79409D02*
X70394Y76929D01*
X63606Y79409D02*
X70394D01*
X63606Y68583D02*
Y79409D01*
Y68583D02*
X70394D01*
Y79409D01*
X58425Y71850D02*
Y78150D01*
X61575D01*
Y71850D02*
Y78150D01*
X58425Y71850D02*
X61575D01*
X157016Y78031D02*
Y81968D01*
X158984D01*
Y78031D02*
Y81968D01*
X157016Y78031D02*
X158984D01*
X138902Y63898D02*
Y76102D01*
X114098D02*
X138902D01*
X114098Y63898D02*
Y76102D01*
Y63898D02*
X138902D01*
X168291Y71220D02*
X172071Y67441D01*
X168291D02*
X179709D01*
Y72559D01*
X168291D02*
X179709D01*
X168291Y67441D02*
Y72559D01*
X76913Y69410D02*
X79394Y66929D01*
X72606Y69410D02*
X79394D01*
X72606Y58583D02*
Y69410D01*
Y58583D02*
X79394D01*
Y69410D01*
X58425Y61850D02*
Y68150D01*
X61575D01*
Y61850D02*
Y68150D01*
X58425Y61850D02*
X61575D01*
X182016Y68032D02*
Y71969D01*
X183984D01*
Y68032D02*
Y71969D01*
X182016Y68032D02*
X183984D01*
X108402Y53898D02*
Y66102D01*
X83598D02*
X108402D01*
X83598Y53898D02*
Y66102D01*
Y53898D02*
X108402D01*
X143291Y61221D02*
X147071Y57441D01*
X143291D02*
X154709D01*
Y62559D01*
X143291D02*
X154709D01*
X143291Y57441D02*
Y62559D01*
X67913Y59409D02*
X70394Y56929D01*
X63606Y59409D02*
X70394D01*
X63606Y48583D02*
Y59409D01*
Y48583D02*
X70394D01*
Y59409D01*
X157016Y58031D02*
Y61968D01*
X158984D01*
Y58031D02*
Y61968D01*
X157016Y58031D02*
X158984D01*
X33976Y45000D02*
X42992D01*
X33976Y175000D02*
X42992D01*
Y45000D02*
Y175000D01*
X296425Y108850D02*
Y115150D01*
X299575D01*
Y108850D02*
Y115150D01*
X296425Y108850D02*
X299575D01*
X266016Y114032D02*
Y117968D01*
X267984D01*
Y114032D02*
Y117968D01*
X266016Y114032D02*
X267984D01*
X258016D02*
Y117968D01*
X259984D01*
Y114032D02*
Y117968D01*
X258016Y114032D02*
X259984D01*
X254016D02*
Y117968D01*
X255984D01*
Y114032D02*
Y117968D01*
X254016Y114032D02*
X255984D01*
X250016D02*
Y117968D01*
X251984D01*
Y114032D02*
Y117968D01*
X250016Y114032D02*
X251984D01*
X274016Y106032D02*
Y109968D01*
X275984D01*
Y106032D02*
Y109968D01*
X274016Y106032D02*
X275984D01*
X270016D02*
Y109968D01*
X271984D01*
Y106032D02*
Y109968D01*
X270016Y106032D02*
X271984D01*
X262016D02*
Y109968D01*
X263984D01*
Y106032D02*
Y109968D01*
X262016Y106032D02*
X263984D01*
X246016D02*
Y109968D01*
X247984D01*
Y106032D02*
Y109968D01*
X246016Y106032D02*
X247984D01*
X340984Y24032D02*
Y27968D01*
X339016Y24032D02*
X340984D01*
X339016D02*
Y27968D01*
X340984D01*
X345984Y24032D02*
Y27968D01*
X344016Y24032D02*
X345984D01*
X344016D02*
Y27968D01*
X345984D01*
X350984Y24032D02*
Y27968D01*
X349016Y24032D02*
X350984D01*
X349016D02*
Y27968D01*
X350984D01*
X355984Y24032D02*
Y27968D01*
X354016Y24032D02*
X355984D01*
X354016D02*
Y27968D01*
X355984D01*
X300984Y8032D02*
Y11969D01*
X299016Y8032D02*
X300984D01*
X299016D02*
Y11969D01*
X300984D01*
X290984Y8032D02*
Y11969D01*
X289016Y8032D02*
X290984D01*
X289016D02*
Y11969D01*
X290984D01*
X325984Y24032D02*
Y27968D01*
X324016Y24032D02*
X325984D01*
X324016D02*
Y27968D01*
X325984D01*
X320984Y24032D02*
Y27968D01*
X319016Y24032D02*
X320984D01*
X319016D02*
Y27968D01*
X320984D01*
X315984Y24032D02*
Y27968D01*
X314016Y24032D02*
X315984D01*
X314016D02*
Y27968D01*
X315984D01*
X310984Y24032D02*
Y27968D01*
X309016Y24032D02*
X310984D01*
X309016D02*
Y27968D01*
X310984D01*
X348031Y169016D02*
X351969D01*
X348031D02*
Y170984D01*
X351969D01*
Y169016D02*
Y170984D01*
X336032Y163016D02*
X339968D01*
X336032D02*
Y164984D01*
X339968D01*
Y163016D02*
Y164984D01*
X347441Y161929D02*
X351220Y165709D01*
X347441Y154291D02*
Y165709D01*
Y154291D02*
X352559D01*
Y165709D01*
X347441D02*
X352559D01*
X235350Y180575D02*
X241650D01*
Y177425D02*
Y180575D01*
X235350Y177425D02*
X241650D01*
X235350D02*
Y180575D01*
X336032Y159016D02*
X339968D01*
X336032D02*
Y160984D01*
X339968D01*
Y159016D02*
Y160984D01*
X196031Y178984D02*
X199969D01*
Y177016D02*
Y178984D01*
X196031Y177016D02*
X199969D01*
X196031D02*
Y178984D01*
Y172984D02*
X199969D01*
Y171016D02*
Y172984D01*
X196031Y171016D02*
X199969D01*
X196031D02*
Y172984D01*
Y168984D02*
X199969D01*
Y167016D02*
Y168984D01*
X196031Y167016D02*
X199969D01*
X196031D02*
Y168984D01*
X249150Y188925D02*
Y192075D01*
X242850D02*
X249150D01*
X242850Y188925D02*
Y192075D01*
Y188925D02*
X249150D01*
X117650Y182425D02*
Y185575D01*
X111350D02*
X117650D01*
X111350Y182425D02*
Y185575D01*
Y182425D02*
X117650D01*
X196031Y162984D02*
X199969D01*
Y161016D02*
Y162984D01*
X196031Y161016D02*
X199969D01*
X196031D02*
Y162984D01*
X204850Y166425D02*
X211150D01*
X204850D02*
Y169575D01*
X211150D01*
Y166425D02*
Y169575D01*
X196031Y158984D02*
X199969D01*
Y157016D02*
Y158984D01*
X196031Y157016D02*
X199969D01*
X196031D02*
Y158984D01*
X287516Y170500D02*
Y174437D01*
X289484D01*
Y170500D02*
Y174437D01*
X287516Y170500D02*
X289484D01*
X291516D02*
Y174437D01*
X293484D01*
Y170500D02*
Y174437D01*
X291516Y170500D02*
X293484D01*
X242850Y183425D02*
X249150D01*
X242850D02*
Y186575D01*
X249150D01*
Y183425D02*
Y186575D01*
X117850Y187925D02*
X124150D01*
X117850D02*
Y191075D01*
X124150D01*
Y187925D02*
Y191075D01*
X196031Y152984D02*
X199969D01*
Y151016D02*
Y152984D01*
X196031Y151016D02*
X199969D01*
X196031D02*
Y152984D01*
X204850Y156425D02*
X211150D01*
X204850D02*
Y159575D01*
X211150D01*
Y156425D02*
Y159575D01*
X260602Y188827D02*
Y192173D01*
X254398D02*
X260602D01*
X254398Y188827D02*
Y192173D01*
Y188827D02*
X260602D01*
X129102Y182327D02*
Y185673D01*
X122898D02*
X129102D01*
X122898Y182327D02*
Y185673D01*
Y182327D02*
X129102D01*
X196031Y148984D02*
X199969D01*
Y147016D02*
Y148984D01*
X196031Y147016D02*
X199969D01*
X196031D02*
Y148984D01*
Y142984D02*
X199969D01*
Y141016D02*
Y142984D01*
X196031Y141016D02*
X199969D01*
X196031D02*
Y142984D01*
X252327Y178898D02*
X255673D01*
Y185102D01*
X252327D02*
X255673D01*
X252327Y178898D02*
Y185102D01*
X196031Y138984D02*
X199969D01*
Y137016D02*
Y138984D01*
X196031Y137016D02*
X199969D01*
X196031D02*
Y138984D01*
X134602Y188327D02*
Y191673D01*
X128398D02*
X134602D01*
X128398Y188327D02*
Y191673D01*
Y188327D02*
X134602D01*
X196031Y132984D02*
X199969D01*
Y131016D02*
Y132984D01*
X196031Y131016D02*
X199969D01*
X196031D02*
Y132984D01*
Y128984D02*
X199969D01*
Y127016D02*
Y128984D01*
X196031Y127016D02*
X199969D01*
X196031D02*
Y128984D01*
Y122984D02*
X199969D01*
Y121016D02*
Y122984D01*
X196031Y121016D02*
X199969D01*
X196031D02*
Y122984D01*
X204850Y126425D02*
X211150D01*
X204850D02*
Y129575D01*
X211150D01*
Y126425D02*
Y129575D01*
X196031Y118984D02*
X199969D01*
Y117016D02*
Y118984D01*
X196031Y117016D02*
X199969D01*
X196031D02*
Y118984D01*
X277850Y119425D02*
X284150D01*
X277850D02*
Y122575D01*
X284150D01*
Y119425D02*
Y122575D01*
X277850Y114425D02*
X284150D01*
X277850D02*
Y117575D01*
X284150D01*
Y114425D02*
Y117575D01*
X240925Y110850D02*
Y117150D01*
X244075D01*
Y110850D02*
Y117150D01*
X240925Y110850D02*
X244075D01*
X298575Y161350D02*
Y167650D01*
X295425Y161350D02*
X298575D01*
X295425D02*
Y167650D01*
X298575D01*
X231850Y117575D02*
X238150D01*
Y114425D02*
Y117575D01*
X231850Y114425D02*
X238150D01*
X231850D02*
Y117575D01*
Y122575D02*
X238150D01*
Y119425D02*
Y122575D01*
X231850Y119425D02*
X238150D01*
X231850D02*
Y122575D01*
X229425Y128350D02*
Y134650D01*
X232575D01*
Y128350D02*
Y134650D01*
X229425Y128350D02*
X232575D01*
X224425D02*
Y134650D01*
X227575D01*
Y128350D02*
Y134650D01*
X224425Y128350D02*
X227575D01*
X348031Y89016D02*
X351969D01*
X348031D02*
Y90984D01*
X351969D01*
Y89016D02*
Y90984D01*
X378031Y50984D02*
X381968D01*
Y49016D02*
Y50984D01*
X378031Y49016D02*
X381968D01*
X378031D02*
Y50984D01*
X336032Y83016D02*
X339968D01*
X336032D02*
Y84984D01*
X339968D01*
Y83016D02*
Y84984D01*
X378031Y40984D02*
X381968D01*
Y39016D02*
Y40984D01*
X378031Y39016D02*
X381968D01*
X378031D02*
Y40984D01*
X347441Y81929D02*
X351220Y85709D01*
X347441Y74291D02*
Y85709D01*
Y74291D02*
X352559D01*
Y85709D01*
X347441D02*
X352559D01*
X234850Y100575D02*
X241150D01*
Y97425D02*
Y100575D01*
X234850Y97425D02*
X241150D01*
X234850D02*
Y100575D01*
X336032Y79016D02*
X339968D01*
X336032D02*
Y80984D01*
X339968D01*
Y79016D02*
Y80984D01*
X206063Y115984D02*
X210000D01*
Y114016D02*
Y115984D01*
X206063Y114016D02*
X210000D01*
X206063D02*
Y115984D01*
X196031Y112984D02*
X199969D01*
Y111016D02*
Y112984D01*
X196031Y111016D02*
X199969D01*
X196031D02*
Y112984D01*
X232075Y87850D02*
Y94150D01*
X228925Y87850D02*
X232075D01*
X228925D02*
Y94150D01*
X232075D01*
X196031Y108984D02*
X199969D01*
Y107016D02*
Y108984D01*
X196031Y107016D02*
X199969D01*
X196031D02*
Y108984D01*
X111150Y39425D02*
Y42575D01*
X104850D02*
X111150D01*
X104850Y39425D02*
Y42575D01*
Y39425D02*
X111150D01*
X263350Y24425D02*
Y27575D01*
Y24425D02*
X269650D01*
Y27575D01*
X263350D02*
X269650D01*
X196031Y102984D02*
X199969D01*
Y101016D02*
Y102984D01*
X196031Y101016D02*
X199969D01*
X196031D02*
Y102984D01*
X204850Y106425D02*
X211150D01*
X204850D02*
Y109575D01*
X211150D01*
Y106425D02*
Y109575D01*
X196031Y98984D02*
X199969D01*
Y97016D02*
Y98984D01*
X196031Y97016D02*
X199969D01*
X196031D02*
Y98984D01*
X287516Y90531D02*
Y94468D01*
X289484D01*
Y90531D02*
Y94468D01*
X287516Y90531D02*
X289484D01*
X291516D02*
Y94468D01*
X293484D01*
Y90531D02*
Y94468D01*
X291516Y90531D02*
X293484D01*
X110850Y44925D02*
X117150D01*
X110850D02*
Y48075D01*
X117150D01*
Y44925D02*
Y48075D01*
X262350Y33575D02*
X268650D01*
Y30425D02*
Y33575D01*
X262350Y30425D02*
X268650D01*
X262350D02*
Y33575D01*
X196031Y92984D02*
X199969D01*
Y91016D02*
Y92984D01*
X196031Y91016D02*
X199969D01*
X196031D02*
Y92984D01*
X204850Y96425D02*
X211150D01*
X204850D02*
Y99575D01*
X211150D01*
Y96425D02*
Y99575D01*
X122602Y39327D02*
Y42673D01*
X116398D02*
X122602D01*
X116398Y39327D02*
Y42673D01*
Y39327D02*
X122602D01*
X255827Y32102D02*
X259173D01*
X255827Y25898D02*
Y32102D01*
Y25898D02*
X259173D01*
Y32102D01*
X196031Y88984D02*
X199969D01*
Y87016D02*
Y88984D01*
X196031Y87016D02*
X199969D01*
X196031D02*
Y88984D01*
Y82984D02*
X199969D01*
Y81016D02*
Y82984D01*
X196031Y81016D02*
X199969D01*
X196031D02*
Y82984D01*
X204850Y86425D02*
X211150D01*
X204850D02*
Y89575D01*
X211150D01*
Y86425D02*
Y89575D01*
X127602Y45327D02*
Y48673D01*
X121398D02*
X127602D01*
X121398Y45327D02*
Y48673D01*
Y45327D02*
X127602D01*
X196031Y78984D02*
X199969D01*
Y77016D02*
Y78984D01*
X196031Y77016D02*
X199969D01*
X196031D02*
Y78984D01*
X249827Y38102D02*
X253173D01*
X249827Y31898D02*
Y38102D01*
Y31898D02*
X253173D01*
Y38102D01*
X196031Y72984D02*
X199969D01*
Y71016D02*
Y72984D01*
X196031Y71016D02*
X199969D01*
X196031D02*
Y72984D01*
X204850Y76425D02*
X211150D01*
X204850D02*
Y79575D01*
X211150D01*
Y76425D02*
Y79575D01*
X196031Y68984D02*
X199969D01*
Y67016D02*
Y68984D01*
X196031Y67016D02*
X199969D01*
X196031D02*
Y68984D01*
Y62984D02*
X199969D01*
Y61016D02*
Y62984D01*
X196031Y61016D02*
X199969D01*
X196031D02*
Y62984D01*
X204850Y66425D02*
X211150D01*
X204850D02*
Y69575D01*
X211150D01*
Y66425D02*
Y69575D01*
X196031Y58984D02*
X199969D01*
Y57016D02*
Y58984D01*
X196031Y57016D02*
X199969D01*
X196031D02*
Y58984D01*
X274850Y39425D02*
X281150D01*
X274850D02*
Y42575D01*
X281150D01*
Y39425D02*
Y42575D01*
X274850Y34425D02*
X281150D01*
X274850D02*
Y37575D01*
X281150D01*
Y34425D02*
Y37575D01*
X298575Y81350D02*
Y87650D01*
X295425Y81350D02*
X298575D01*
X295425D02*
Y87650D01*
X298575D01*
X243925Y35350D02*
Y41650D01*
X247075D01*
Y35350D02*
Y41650D01*
X243925Y35350D02*
X247075D01*
X234850Y37575D02*
X241150D01*
Y34425D02*
Y37575D01*
X234850Y34425D02*
X241150D01*
X234850D02*
Y37575D01*
Y42575D02*
X241150D01*
Y39425D02*
Y42575D01*
X234850Y39425D02*
X241150D01*
X234850D02*
Y42575D01*
X229425Y48850D02*
Y55150D01*
X232575D01*
Y48850D02*
Y55150D01*
X229425Y48850D02*
X232575D01*
X204850Y56425D02*
X211150D01*
X204850D02*
Y59575D01*
X211150D01*
Y56425D02*
Y59575D01*
D13*
X343563Y55847D02*
X351437D01*
Y49154D02*
Y55847D01*
X343563Y49154D02*
X351437D01*
X343563D02*
Y55847D01*
X321437Y49154D02*
Y55847D01*
X313563D02*
X321437D01*
X313563Y49154D02*
Y55847D01*
Y49154D02*
X321437D01*
X378425Y156850D02*
X381575D01*
X378425D02*
Y163150D01*
X381575D01*
Y156850D02*
Y163150D01*
X378425Y76850D02*
X381575D01*
X378425D02*
Y83150D01*
X381575D01*
Y76850D02*
Y83150D01*
M02*
