G04*
G04 #@! TF.GenerationSoftware,Altium Limited,Altium Designer,21.6.4 (81)*
G04*
G04 Layer_Physical_Order=3*
G04 Layer_Color=16440176*
%FSLAX25Y25*%
%MOIN*%
G70*
G04*
G04 #@! TF.SameCoordinates,D21CAB57-D7DD-4798-A039-69392B5906F0*
G04*
G04*
G04 #@! TF.FilePolarity,Positive*
G04*
G01*
G75*
%ADD60C,0.01181*%
%ADD62O,0.04095X0.04724*%
%ADD63R,0.04095X0.04724*%
%ADD64R,0.06791X0.06791*%
%ADD65C,0.06791*%
%ADD66C,0.23622*%
%ADD67C,0.02362*%
%ADD68C,0.03347*%
%ADD69C,0.02362*%
G36*
X377619Y218165D02*
X379315Y217711D01*
X380937Y217039D01*
X382457Y216161D01*
X383851Y215092D01*
X385092Y213850D01*
X386161Y212457D01*
X387039Y210937D01*
X387711Y209315D01*
X388165Y207619D01*
X388394Y205878D01*
Y205000D01*
Y15000D01*
Y14122D01*
X388165Y12381D01*
X387711Y10685D01*
X387039Y9063D01*
X386161Y7542D01*
X385092Y6149D01*
X383851Y4908D01*
X382457Y3839D01*
X380937Y2961D01*
X379315Y2289D01*
X377619Y1835D01*
X375878Y1605D01*
X359740D01*
Y11850D01*
X359740Y51120D01*
X360202Y51311D01*
X362507Y49007D01*
X362962Y48702D01*
X363500Y48595D01*
X383707D01*
X384271Y48445D01*
X384385Y48331D01*
X385108Y48031D01*
X385892D01*
X386615Y48331D01*
X387169Y48885D01*
X387469Y49608D01*
Y50392D01*
X387169Y51115D01*
X386615Y51669D01*
X385892Y51968D01*
X385108D01*
X384385Y51669D01*
X384271Y51555D01*
X383707Y51405D01*
X364082D01*
X336493Y78993D01*
X336038Y79298D01*
X335500Y79405D01*
X302842D01*
X302762Y79556D01*
X302689Y79905D01*
X302755Y79971D01*
X302919Y80081D01*
X303029Y80245D01*
X303169Y80385D01*
X303244Y80568D01*
X303354Y80732D01*
X303393Y80926D01*
X303468Y81108D01*
Y81306D01*
X303507Y81500D01*
X303468Y81694D01*
Y81892D01*
X303393Y82074D01*
X303354Y82268D01*
X303244Y82432D01*
X303169Y82615D01*
X303029Y82755D01*
X302919Y82919D01*
X302755Y83029D01*
X302615Y83169D01*
X302432Y83245D01*
X302268Y83354D01*
X302074Y83393D01*
X301892Y83469D01*
X301694D01*
X301500Y83507D01*
X279000D01*
X278232Y83354D01*
X277581Y82919D01*
X273081Y78419D01*
X272646Y77768D01*
X272493Y77000D01*
Y54831D01*
X267257Y49596D01*
X255743D01*
X250419Y54919D01*
X250255Y55029D01*
X250115Y55169D01*
X249932Y55244D01*
X249768Y55354D01*
X249574Y55393D01*
X249392Y55468D01*
X249194D01*
X249000Y55507D01*
X248806Y55468D01*
X248608D01*
X248426Y55393D01*
X248232Y55354D01*
X248068Y55244D01*
X247885Y55169D01*
X247745Y55029D01*
X247581Y54919D01*
X247471Y54755D01*
X247331Y54615D01*
X247255Y54432D01*
X247146Y54268D01*
X247107Y54074D01*
X247031Y53892D01*
Y53694D01*
X246993Y53500D01*
X247031Y53306D01*
Y53108D01*
X247107Y52926D01*
X247146Y52732D01*
X247255Y52568D01*
X247331Y52385D01*
X247325Y52369D01*
X246748Y52239D01*
X245761Y53226D01*
X245468Y53731D01*
Y53892D01*
X245169Y54615D01*
X244615Y55169D01*
X243892Y55468D01*
X243108D01*
X242385Y55169D01*
X241831Y54615D01*
X241531Y53892D01*
Y53108D01*
X241831Y52385D01*
X242385Y51831D01*
X243108Y51531D01*
X243269D01*
X243774Y51239D01*
X251501Y43512D01*
X251956Y43208D01*
X252494Y43101D01*
X269547D01*
X270085Y43208D01*
X270541Y43512D01*
X278493Y51465D01*
X278798Y51921D01*
X278905Y52459D01*
Y74918D01*
X280582Y76595D01*
X334918D01*
X337248Y74265D01*
X337057Y73803D01*
X287090Y73803D01*
X286783Y73742D01*
X286523Y73568D01*
X286349Y73307D01*
X286288Y73000D01*
X286288Y69551D01*
X286349Y69244D01*
X286523Y68984D01*
X286783Y68809D01*
X287090Y68748D01*
X293197D01*
Y40332D01*
X283432Y30568D01*
X283258Y30307D01*
X283197Y30000D01*
Y6500D01*
X283258Y6193D01*
X283432Y5932D01*
X283693Y5758D01*
X284000Y5697D01*
X287824D01*
X288158Y5197D01*
X288032Y4892D01*
Y4108D01*
X288331Y3385D01*
X288885Y2831D01*
X289608Y2531D01*
X290392D01*
X291115Y2831D01*
X291669Y3385D01*
X291968Y4108D01*
Y4892D01*
X291842Y5197D01*
X292176Y5697D01*
X305000D01*
X305260Y5484D01*
Y1605D01*
X14122D01*
X12381Y1835D01*
X10685Y2289D01*
X9063Y2961D01*
X7542Y3839D01*
X6149Y4908D01*
X4908Y6149D01*
X3839Y7542D01*
X2961Y9063D01*
X2289Y10685D01*
X1835Y12381D01*
X1606Y14122D01*
Y15000D01*
X1606Y30894D01*
X25000D01*
X25039Y30902D01*
X25079Y30896D01*
X25814Y30932D01*
X25929Y30961D01*
X26048D01*
X27490Y31248D01*
X27637Y31309D01*
X27792Y31340D01*
X29150Y31902D01*
X29281Y31990D01*
X29427Y32051D01*
X30650Y32867D01*
X30762Y32979D01*
X30893Y33067D01*
X31933Y34107D01*
X32021Y34238D01*
X32133Y34350D01*
X32949Y35572D01*
X33010Y35719D01*
X33098Y35850D01*
X33660Y37208D01*
X33691Y37363D01*
X33752Y37510D01*
X34039Y38952D01*
Y39071D01*
X34067Y39186D01*
X34104Y39921D01*
X34098Y39961D01*
X34106Y40000D01*
X34106Y180000D01*
X34098Y180039D01*
X34104Y180079D01*
X34067Y180814D01*
X34039Y180929D01*
Y181048D01*
X33752Y182490D01*
X33691Y182636D01*
X33660Y182792D01*
X33098Y184150D01*
X33010Y184281D01*
X32949Y184427D01*
X32133Y185650D01*
X32021Y185762D01*
X31933Y185893D01*
X30893Y186933D01*
X30762Y187021D01*
X30650Y187133D01*
X29427Y187949D01*
X29281Y188010D01*
X29150Y188098D01*
X27792Y188660D01*
X27637Y188691D01*
X27490Y188752D01*
X26048Y189039D01*
X25929D01*
X25814Y189067D01*
X25079Y189104D01*
X25039Y189098D01*
X25000Y189106D01*
X1606Y189106D01*
Y205000D01*
Y205878D01*
X1835Y207619D01*
X2289Y209315D01*
X2961Y210937D01*
X3839Y212457D01*
X4908Y213850D01*
X6149Y215092D01*
X7542Y216161D01*
X9063Y217039D01*
X10685Y217711D01*
X12381Y218165D01*
X14122Y218394D01*
X15000D01*
X125000Y218394D01*
X265000Y218394D01*
X375878D01*
X377619Y218165D01*
D02*
G37*
G36*
X338500Y73000D02*
X358235Y53265D01*
X358044Y52803D01*
X356469D01*
Y52892D01*
X356169Y53615D01*
X355615Y54169D01*
X354892Y54469D01*
X354108D01*
X353385Y54169D01*
X352831Y53615D01*
X352532Y52892D01*
Y52803D01*
X312469Y52803D01*
Y52892D01*
X312169Y53615D01*
X311615Y54169D01*
X310892Y54469D01*
X310108D01*
X309385Y54169D01*
X308831Y53615D01*
X308531Y52892D01*
Y52500D01*
X308500D01*
X308102Y52102D01*
X308099Y52100D01*
X308040Y52089D01*
X307958Y52034D01*
X307870Y51993D01*
X307829Y51948D01*
X307779Y51915D01*
X305495Y49631D01*
X305321Y49370D01*
X305309Y49309D01*
X305000Y49000D01*
Y6500D01*
X284000D01*
Y30000D01*
X294000Y40000D01*
Y69551D01*
X287090D01*
X287090Y73000D01*
X338500Y73000D01*
D02*
G37*
G36*
X245142Y52693D02*
X244307Y51858D01*
X243512Y52319D01*
X244681Y53488D01*
X245142Y52693D01*
D02*
G37*
G36*
X358937Y11850D02*
Y1605D01*
X306063D01*
Y49063D01*
X308347Y51347D01*
X308962Y51254D01*
X309385Y50831D01*
X310108Y50532D01*
X310892D01*
X311615Y50831D01*
X312169Y51385D01*
X312424Y52000D01*
X352576Y52000D01*
X352831Y51385D01*
X353385Y50831D01*
X354108Y50532D01*
X354892D01*
X355615Y50831D01*
X356169Y51385D01*
X356424Y52000D01*
X358937D01*
X358937Y11850D01*
D02*
G37*
G36*
X384657Y49173D02*
X383769Y49409D01*
Y50591D01*
X384657Y50827D01*
Y49173D01*
D02*
G37*
%LPC*%
G36*
X315000Y208174D02*
X314260Y208077D01*
X313570Y207791D01*
X313335Y207610D01*
X312835Y207857D01*
Y208150D01*
X307165D01*
Y201850D01*
X312835D01*
Y202143D01*
X313335Y202390D01*
X313570Y202209D01*
X314260Y201923D01*
X315000Y201826D01*
X315740Y201923D01*
X316430Y202209D01*
X317022Y202663D01*
X317441Y203210D01*
X317658Y203254D01*
X318015Y203251D01*
X318236Y202921D01*
X319045Y202380D01*
X319800Y202230D01*
Y205000D01*
Y207770D01*
X319045Y207620D01*
X318236Y207079D01*
X318015Y206749D01*
X317658Y206746D01*
X317441Y206790D01*
X317022Y207337D01*
X316430Y207791D01*
X315740Y208077D01*
X315000Y208174D01*
D02*
G37*
G36*
X39800Y207770D02*
X39045Y207620D01*
X38236Y207079D01*
X37947Y206648D01*
X37447Y206799D01*
Y207762D01*
X35200D01*
Y205000D01*
Y202238D01*
X37447D01*
Y203201D01*
X37947Y203352D01*
X38236Y202921D01*
X39045Y202380D01*
X39800Y202230D01*
Y205000D01*
Y207770D01*
D02*
G37*
G36*
X324800D02*
X324045Y207620D01*
X323236Y207079D01*
X322778Y206394D01*
X322663Y206364D01*
X322337D01*
X322222Y206394D01*
X321764Y207079D01*
X320955Y207620D01*
X320200Y207770D01*
Y205000D01*
Y202230D01*
X320955Y202380D01*
X321764Y202921D01*
X322222Y203606D01*
X322337Y203636D01*
X322663D01*
X322778Y203606D01*
X323236Y202921D01*
X324045Y202380D01*
X324800Y202230D01*
Y205000D01*
Y207770D01*
D02*
G37*
G36*
X354800D02*
X354045Y207620D01*
X353236Y207079D01*
X352778Y206394D01*
X352663Y206364D01*
X352337D01*
X352222Y206394D01*
X351764Y207079D01*
X350955Y207620D01*
X350200Y207770D01*
Y205000D01*
Y202230D01*
X350955Y202380D01*
X351764Y202921D01*
X352222Y203606D01*
X352337Y203636D01*
X352663D01*
X352778Y203606D01*
X353236Y202921D01*
X354045Y202380D01*
X354800Y202230D01*
Y205000D01*
Y207770D01*
D02*
G37*
G36*
X349800D02*
X349045Y207620D01*
X348236Y207079D01*
X347778Y206394D01*
X347663Y206364D01*
X347337D01*
X347222Y206394D01*
X346764Y207079D01*
X345955Y207620D01*
X345200Y207770D01*
Y205000D01*
Y202230D01*
X345955Y202380D01*
X346764Y202921D01*
X347222Y203606D01*
X347337Y203636D01*
X347663D01*
X347778Y203606D01*
X348236Y202921D01*
X349045Y202380D01*
X349800Y202230D01*
Y205000D01*
Y207770D01*
D02*
G37*
G36*
X344800D02*
X344045Y207620D01*
X343236Y207079D01*
X342778Y206394D01*
X342663Y206364D01*
X342337D01*
X342222Y206394D01*
X341764Y207079D01*
X340955Y207620D01*
X340200Y207770D01*
Y205000D01*
Y202230D01*
X340955Y202380D01*
X341764Y202921D01*
X342222Y203606D01*
X342337Y203636D01*
X342663D01*
X342778Y203606D01*
X343236Y202921D01*
X344045Y202380D01*
X344800Y202230D01*
Y205000D01*
Y207770D01*
D02*
G37*
G36*
X339800D02*
X339045Y207620D01*
X338236Y207079D01*
X337778Y206394D01*
X337663Y206364D01*
X337337D01*
X337222Y206394D01*
X336764Y207079D01*
X335955Y207620D01*
X335200Y207770D01*
Y205000D01*
Y202230D01*
X335955Y202380D01*
X336764Y202921D01*
X337222Y203606D01*
X337337Y203636D01*
X337663D01*
X337778Y203606D01*
X338236Y202921D01*
X339045Y202380D01*
X339800Y202230D01*
Y205000D01*
Y207770D01*
D02*
G37*
G36*
X334800D02*
X334045Y207620D01*
X333236Y207079D01*
X332778Y206394D01*
X332663Y206364D01*
X332337D01*
X332222Y206394D01*
X331764Y207079D01*
X330955Y207620D01*
X330200Y207770D01*
Y205000D01*
Y202230D01*
X330955Y202380D01*
X331764Y202921D01*
X332222Y203606D01*
X332337Y203636D01*
X332663D01*
X332778Y203606D01*
X333236Y202921D01*
X334045Y202380D01*
X334800Y202230D01*
Y205000D01*
Y207770D01*
D02*
G37*
G36*
X329800D02*
X329045Y207620D01*
X328236Y207079D01*
X327778Y206394D01*
X327663Y206364D01*
X327337D01*
X327222Y206394D01*
X326764Y207079D01*
X325955Y207620D01*
X325200Y207770D01*
Y205000D01*
Y202230D01*
X325955Y202380D01*
X326764Y202921D01*
X327222Y203606D01*
X327337Y203636D01*
X327663D01*
X327778Y203606D01*
X328236Y202921D01*
X329045Y202380D01*
X329800Y202230D01*
Y205000D01*
Y207770D01*
D02*
G37*
G36*
X79800D02*
X79045Y207620D01*
X78236Y207079D01*
X77778Y206394D01*
X77663Y206364D01*
X77337D01*
X77222Y206394D01*
X76764Y207079D01*
X75955Y207620D01*
X75200Y207770D01*
Y205000D01*
Y202230D01*
X75955Y202380D01*
X76764Y202921D01*
X77222Y203606D01*
X77337Y203636D01*
X77663D01*
X77778Y203606D01*
X78236Y202921D01*
X79045Y202380D01*
X79800Y202230D01*
Y205000D01*
Y207770D01*
D02*
G37*
G36*
X74800D02*
X74045Y207620D01*
X73236Y207079D01*
X72778Y206394D01*
X72663Y206364D01*
X72337D01*
X72222Y206394D01*
X71764Y207079D01*
X70955Y207620D01*
X70200Y207770D01*
Y205000D01*
Y202230D01*
X70955Y202380D01*
X71764Y202921D01*
X72222Y203606D01*
X72337Y203636D01*
X72663D01*
X72778Y203606D01*
X73236Y202921D01*
X74045Y202380D01*
X74800Y202230D01*
Y205000D01*
Y207770D01*
D02*
G37*
G36*
X69800D02*
X69045Y207620D01*
X68236Y207079D01*
X67778Y206394D01*
X67663Y206364D01*
X67337D01*
X67222Y206394D01*
X66764Y207079D01*
X65955Y207620D01*
X65200Y207770D01*
Y205000D01*
Y202230D01*
X65955Y202380D01*
X66764Y202921D01*
X67222Y203606D01*
X67337Y203636D01*
X67663D01*
X67778Y203606D01*
X68236Y202921D01*
X69045Y202380D01*
X69800Y202230D01*
Y205000D01*
Y207770D01*
D02*
G37*
G36*
X64800D02*
X64045Y207620D01*
X63236Y207079D01*
X62778Y206394D01*
X62663Y206364D01*
X62337D01*
X62222Y206394D01*
X61764Y207079D01*
X60955Y207620D01*
X60200Y207770D01*
Y205000D01*
Y202230D01*
X60955Y202380D01*
X61764Y202921D01*
X62222Y203606D01*
X62337Y203636D01*
X62663D01*
X62778Y203606D01*
X63236Y202921D01*
X64045Y202380D01*
X64800Y202230D01*
Y205000D01*
Y207770D01*
D02*
G37*
G36*
X59800D02*
X59045Y207620D01*
X58236Y207079D01*
X57778Y206394D01*
X57663Y206364D01*
X57337D01*
X57222Y206394D01*
X56764Y207079D01*
X55955Y207620D01*
X55200Y207770D01*
Y205000D01*
Y202230D01*
X55955Y202380D01*
X56764Y202921D01*
X57222Y203606D01*
X57337Y203636D01*
X57663D01*
X57778Y203606D01*
X58236Y202921D01*
X59045Y202380D01*
X59800Y202230D01*
Y205000D01*
Y207770D01*
D02*
G37*
G36*
X54800D02*
X54045Y207620D01*
X53236Y207079D01*
X52778Y206394D01*
X52663Y206364D01*
X52337D01*
X52222Y206394D01*
X51764Y207079D01*
X50955Y207620D01*
X50200Y207770D01*
Y205000D01*
Y202230D01*
X50955Y202380D01*
X51764Y202921D01*
X52222Y203606D01*
X52337Y203636D01*
X52663D01*
X52778Y203606D01*
X53236Y202921D01*
X54045Y202380D01*
X54800Y202230D01*
Y205000D01*
Y207770D01*
D02*
G37*
G36*
X49800D02*
X49045Y207620D01*
X48236Y207079D01*
X47778Y206394D01*
X47663Y206364D01*
X47337D01*
X47222Y206394D01*
X46764Y207079D01*
X45955Y207620D01*
X45200Y207770D01*
Y205000D01*
Y202230D01*
X45955Y202380D01*
X46764Y202921D01*
X47222Y203606D01*
X47337Y203636D01*
X47663D01*
X47778Y203606D01*
X48236Y202921D01*
X49045Y202380D01*
X49800Y202230D01*
Y205000D01*
Y207770D01*
D02*
G37*
G36*
X44800D02*
X44045Y207620D01*
X43236Y207079D01*
X42778Y206394D01*
X42663Y206364D01*
X42337D01*
X42222Y206394D01*
X41764Y207079D01*
X40955Y207620D01*
X40200Y207770D01*
Y205000D01*
Y202230D01*
X40955Y202380D01*
X41764Y202921D01*
X42222Y203606D01*
X42337Y203636D01*
X42663D01*
X42778Y203606D01*
X43236Y202921D01*
X44045Y202380D01*
X44800Y202230D01*
Y205000D01*
Y207770D01*
D02*
G37*
G36*
X355200D02*
Y205200D01*
X357495D01*
Y205315D01*
X357305Y206270D01*
X356764Y207079D01*
X355955Y207620D01*
X355200Y207770D01*
D02*
G37*
G36*
X80200D02*
Y205200D01*
X82495D01*
Y205315D01*
X82305Y206270D01*
X81764Y207079D01*
X80955Y207620D01*
X80200Y207770D01*
D02*
G37*
G36*
X34800Y207762D02*
X32553D01*
Y205200D01*
X34800D01*
Y207762D01*
D02*
G37*
G36*
Y204800D02*
X32553D01*
Y202238D01*
X34800D01*
Y204800D01*
D02*
G37*
G36*
X357495D02*
X355200D01*
Y202230D01*
X355955Y202380D01*
X356764Y202921D01*
X357305Y203730D01*
X357495Y204685D01*
Y204800D01*
D02*
G37*
G36*
X82495D02*
X80200D01*
Y202230D01*
X80955Y202380D01*
X81764Y202921D01*
X82305Y203730D01*
X82495Y204685D01*
Y204800D01*
D02*
G37*
G36*
X358000Y194303D02*
X66500D01*
X66193Y194242D01*
X65932Y194068D01*
X65932Y194068D01*
X49432Y177568D01*
X49258Y177307D01*
X49197Y177000D01*
Y174183D01*
X49210Y174119D01*
X48385Y173898D01*
X47431Y173347D01*
X46653Y172569D01*
X46102Y171615D01*
X45817Y170551D01*
Y169449D01*
X46102Y168385D01*
X46653Y167431D01*
X47431Y166653D01*
X48385Y166102D01*
X49210Y165881D01*
X49197Y165817D01*
Y164183D01*
X49210Y164119D01*
X48385Y163898D01*
X47431Y163347D01*
X46653Y162568D01*
X46102Y161615D01*
X45817Y160551D01*
Y159449D01*
X46102Y158385D01*
X46653Y157431D01*
X47431Y156653D01*
X48385Y156102D01*
X49210Y155881D01*
X49197Y155817D01*
Y154183D01*
X49210Y154119D01*
X48385Y153898D01*
X47431Y153347D01*
X46653Y152568D01*
X46102Y151615D01*
X45817Y150551D01*
Y149449D01*
X46102Y148385D01*
X46653Y147432D01*
X47431Y146653D01*
X48385Y146102D01*
X49210Y145881D01*
X49197Y145817D01*
Y144183D01*
X49210Y144119D01*
X48385Y143898D01*
X47431Y143347D01*
X46653Y142569D01*
X46102Y141615D01*
X45817Y140551D01*
Y139449D01*
X46102Y138385D01*
X46653Y137432D01*
X47431Y136653D01*
X48385Y136102D01*
X49210Y135881D01*
X49197Y135817D01*
Y134183D01*
X49210Y134119D01*
X48385Y133898D01*
X47431Y133347D01*
X46653Y132569D01*
X46102Y131615D01*
X45817Y130551D01*
Y129449D01*
X46102Y128385D01*
X46653Y127431D01*
X47431Y126653D01*
X48385Y126102D01*
X49210Y125881D01*
X49197Y125817D01*
Y124183D01*
X49210Y124119D01*
X48385Y123898D01*
X47431Y123347D01*
X46653Y122569D01*
X46102Y121615D01*
X45817Y120551D01*
Y119449D01*
X46102Y118385D01*
X46653Y117431D01*
X47431Y116653D01*
X48385Y116102D01*
X49210Y115881D01*
X49197Y115817D01*
Y114116D01*
X48385Y113898D01*
X47431Y113347D01*
X46653Y112568D01*
X46102Y111615D01*
X45817Y110551D01*
Y109449D01*
X46102Y108385D01*
X46653Y107431D01*
X47431Y106653D01*
X48385Y106102D01*
X49449Y105817D01*
X49841D01*
X52351Y104811D01*
X56581Y100581D01*
X57232Y100146D01*
X58000Y99993D01*
X231669D01*
X234081Y97581D01*
X234732Y97146D01*
X235500Y96993D01*
X246000D01*
X246194Y97031D01*
X246392D01*
X246574Y97107D01*
X246768Y97146D01*
X246932Y97255D01*
X247115Y97331D01*
X247255Y97471D01*
X247419Y97581D01*
X247529Y97745D01*
X247669Y97885D01*
X247744Y98068D01*
X247854Y98232D01*
X247893Y98426D01*
X247969Y98608D01*
Y98806D01*
X248007Y99000D01*
X247969Y99194D01*
Y99392D01*
X247893Y99574D01*
X247854Y99768D01*
X247744Y99932D01*
X247669Y100115D01*
X247529Y100255D01*
X247419Y100419D01*
X247255Y100529D01*
X247115Y100669D01*
X246932Y100744D01*
X246768Y100854D01*
X246574Y100893D01*
X246392Y100969D01*
X246194D01*
X246000Y101007D01*
X236331D01*
X233919Y103419D01*
X233268Y103854D01*
X232500Y104007D01*
X187082D01*
X186776Y104507D01*
X186969Y104971D01*
Y105754D01*
X186669Y106477D01*
X186115Y107031D01*
X185392Y107331D01*
X184608D01*
X183885Y107031D01*
X183331Y106477D01*
X183271Y106331D01*
X182729D01*
X182669Y106477D01*
X182115Y107031D01*
X181392Y107331D01*
X180608D01*
X179885Y107031D01*
X179331Y106477D01*
X179032Y105754D01*
Y104971D01*
X179224Y104507D01*
X178918Y104007D01*
X58831D01*
X55189Y107649D01*
X54735Y108783D01*
X55015Y109197D01*
X161500D01*
X161500Y109197D01*
X161807Y109258D01*
X162068Y109432D01*
X162068Y109432D01*
X170333Y117697D01*
X224697D01*
Y114500D01*
X224758Y114193D01*
X224932Y113932D01*
X224932Y113932D01*
X236932Y101932D01*
X237193Y101758D01*
X237500Y101697D01*
X247150D01*
X253685Y95161D01*
Y89687D01*
X253747Y89380D01*
X253921Y89119D01*
X254181Y88945D01*
X254488Y88884D01*
X269449D01*
X269756Y88945D01*
X270017Y89119D01*
X270191Y89380D01*
X270252Y89687D01*
Y95161D01*
X281068Y105978D01*
X281242Y106238D01*
X281303Y106545D01*
Y111197D01*
X358000D01*
X358307Y111258D01*
X358568Y111432D01*
X358742Y111693D01*
X358803Y112000D01*
Y128595D01*
X383207D01*
X383771Y128445D01*
X383885Y128331D01*
X384608Y128032D01*
X385392D01*
X386115Y128331D01*
X386669Y128885D01*
X386968Y129608D01*
Y130392D01*
X386669Y131115D01*
X386115Y131669D01*
X385392Y131968D01*
X384608D01*
X383885Y131669D01*
X383771Y131555D01*
X383207Y131405D01*
X358803D01*
Y193500D01*
X358742Y193807D01*
X358568Y194068D01*
X358307Y194242D01*
X358000Y194303D01*
D02*
G37*
G36*
X50551Y104183D02*
X49449D01*
X48385Y103898D01*
X47431Y103347D01*
X46653Y102568D01*
X46102Y101615D01*
X45817Y100551D01*
Y99449D01*
X46102Y98385D01*
X46653Y97431D01*
X47431Y96653D01*
X48385Y96102D01*
X49449Y95817D01*
X50551D01*
X51615Y96102D01*
X52569Y96653D01*
X53347Y97431D01*
X53898Y98385D01*
X54183Y99449D01*
Y100551D01*
X53898Y101615D01*
X53347Y102568D01*
X52569Y103347D01*
X51615Y103898D01*
X50551Y104183D01*
D02*
G37*
G36*
X160392Y96469D02*
X159608D01*
X158885Y96169D01*
X158331Y95615D01*
X158271Y95469D01*
X157729D01*
X157669Y95615D01*
X157115Y96169D01*
X156392Y96469D01*
X155608D01*
X154885Y96169D01*
X154331Y95615D01*
X154032Y94892D01*
Y94108D01*
X154331Y93385D01*
X154885Y92831D01*
X155608Y92532D01*
X156392D01*
X157115Y92831D01*
X157669Y93385D01*
X157729Y93531D01*
X158271D01*
X158331Y93385D01*
X158885Y92831D01*
X159608Y92532D01*
X160392D01*
X161115Y92831D01*
X161669Y93385D01*
X161969Y94108D01*
Y94892D01*
X161669Y95615D01*
X161115Y96169D01*
X160392Y96469D01*
D02*
G37*
G36*
X344892Y91969D02*
X344108D01*
X343385Y91669D01*
X342831Y91115D01*
X342531Y90392D01*
Y89608D01*
X342831Y88885D01*
X343385Y88331D01*
X344108Y88032D01*
X344892D01*
X345615Y88331D01*
X346169Y88885D01*
X346468Y89608D01*
Y90392D01*
X346169Y91115D01*
X345615Y91669D01*
X344892Y91969D01*
D02*
G37*
G36*
X185392Y89024D02*
X184608D01*
X183885Y88724D01*
X183331Y88170D01*
X183271Y88024D01*
X182729D01*
X182669Y88170D01*
X182115Y88724D01*
X181392Y89024D01*
X180608D01*
X179885Y88724D01*
X179331Y88170D01*
X179032Y87447D01*
Y86664D01*
X179331Y85940D01*
X179885Y85386D01*
X180608Y85087D01*
X181392D01*
X182115Y85386D01*
X182669Y85940D01*
X182729Y86086D01*
X183271D01*
X183331Y85940D01*
X183885Y85386D01*
X184608Y85087D01*
X185392D01*
X186115Y85386D01*
X186669Y85940D01*
X186969Y86664D01*
Y87447D01*
X186669Y88170D01*
X186115Y88724D01*
X185392Y89024D01*
D02*
G37*
G36*
X50551Y94183D02*
X49449D01*
X48385Y93898D01*
X47431Y93347D01*
X46653Y92568D01*
X46102Y91615D01*
X45817Y90551D01*
Y89449D01*
X46102Y88385D01*
X46653Y87432D01*
X47431Y86653D01*
X48385Y86102D01*
X49449Y85817D01*
X50551D01*
X51615Y86102D01*
X52569Y86653D01*
X53347Y87432D01*
X53898Y88385D01*
X54183Y89449D01*
Y90551D01*
X53898Y91615D01*
X53347Y92568D01*
X52569Y93347D01*
X51615Y93898D01*
X50551Y94183D01*
D02*
G37*
G36*
X255392Y87968D02*
X254608D01*
X253885Y87669D01*
X253331Y87115D01*
X253031Y86392D01*
Y85608D01*
X253331Y84885D01*
X253885Y84331D01*
X254608Y84031D01*
X255392D01*
X256115Y84331D01*
X256669Y84885D01*
X256968Y85608D01*
Y86392D01*
X256669Y87115D01*
X256115Y87669D01*
X255392Y87968D01*
D02*
G37*
G36*
X249392D02*
X248608D01*
X247885Y87669D01*
X247331Y87115D01*
X247031Y86392D01*
Y85608D01*
X247331Y84885D01*
X247885Y84331D01*
X248608Y84031D01*
X249392D01*
X250115Y84331D01*
X250669Y84885D01*
X250969Y85608D01*
Y86392D01*
X250669Y87115D01*
X250115Y87669D01*
X249392Y87968D01*
D02*
G37*
G36*
X332392Y85969D02*
X331608D01*
X330885Y85669D01*
X330331Y85115D01*
X330031Y84392D01*
Y83608D01*
X330331Y82885D01*
X330885Y82331D01*
X331608Y82032D01*
X332392D01*
X333115Y82331D01*
X333669Y82885D01*
X333968Y83608D01*
Y84392D01*
X333669Y85115D01*
X333115Y85669D01*
X332392Y85969D01*
D02*
G37*
G36*
X50551Y84183D02*
X49449D01*
X48385Y83898D01*
X47431Y83347D01*
X46653Y82569D01*
X46102Y81615D01*
X45817Y80551D01*
Y79449D01*
X46102Y78385D01*
X46653Y77431D01*
X47431Y76653D01*
X48385Y76102D01*
X49449Y75817D01*
X50551D01*
X51615Y76102D01*
X52569Y76653D01*
X53347Y77431D01*
X53898Y78385D01*
X54183Y79449D01*
Y80551D01*
X53898Y81615D01*
X53347Y82569D01*
X52569Y83347D01*
X51615Y83898D01*
X50551Y84183D01*
D02*
G37*
G36*
X160392Y76468D02*
X159608D01*
X158885Y76169D01*
X158331Y75615D01*
X158271Y75469D01*
X157729D01*
X157669Y75615D01*
X157115Y76169D01*
X156392Y76468D01*
X155608D01*
X154885Y76169D01*
X154331Y75615D01*
X154032Y74892D01*
Y74108D01*
X154331Y73385D01*
X154885Y72831D01*
X155608Y72531D01*
X156392D01*
X157115Y72831D01*
X157669Y73385D01*
X157729Y73531D01*
X158271D01*
X158331Y73385D01*
X158885Y72831D01*
X159608Y72531D01*
X160392D01*
X161115Y72831D01*
X161669Y73385D01*
X161969Y74108D01*
Y74892D01*
X161669Y75615D01*
X161115Y76169D01*
X160392Y76468D01*
D02*
G37*
G36*
X50551Y74183D02*
X49449D01*
X48385Y73898D01*
X47431Y73347D01*
X46653Y72569D01*
X46102Y71615D01*
X45817Y70551D01*
Y69449D01*
X46102Y68385D01*
X46653Y67431D01*
X47431Y66653D01*
X48385Y66102D01*
X49449Y65817D01*
X50551D01*
X51615Y66102D01*
X52569Y66653D01*
X53347Y67431D01*
X53898Y68385D01*
X54183Y69449D01*
Y70551D01*
X53898Y71615D01*
X53347Y72569D01*
X52569Y73347D01*
X51615Y73898D01*
X50551Y74183D01*
D02*
G37*
G36*
X185392Y66469D02*
X184608D01*
X183885Y66169D01*
X183331Y65615D01*
X183271Y65469D01*
X182729D01*
X182669Y65615D01*
X182115Y66169D01*
X181392Y66469D01*
X180608D01*
X179885Y66169D01*
X179331Y65615D01*
X179032Y64892D01*
Y64108D01*
X179331Y63385D01*
X179885Y62831D01*
X180608Y62532D01*
X181392D01*
X182115Y62831D01*
X182669Y63385D01*
X182729Y63531D01*
X183271D01*
X183331Y63385D01*
X183885Y62831D01*
X184608Y62532D01*
X185392D01*
X186115Y62831D01*
X186669Y63385D01*
X186969Y64108D01*
Y64892D01*
X186669Y65615D01*
X186115Y66169D01*
X185392Y66469D01*
D02*
G37*
G36*
X50551Y64183D02*
X49449D01*
X48385Y63898D01*
X47431Y63347D01*
X46653Y62568D01*
X46102Y61615D01*
X45817Y60551D01*
Y59449D01*
X46102Y58385D01*
X46653Y57432D01*
X47431Y56653D01*
X48385Y56102D01*
X49449Y55817D01*
X50551D01*
X51615Y56102D01*
X52569Y56653D01*
X53347Y57432D01*
X53898Y58385D01*
X54183Y59449D01*
Y60551D01*
X53898Y61615D01*
X53347Y62568D01*
X52569Y63347D01*
X51615Y63898D01*
X50551Y64183D01*
D02*
G37*
G36*
X54396Y54396D02*
X50500D01*
Y50500D01*
X54396D01*
Y54396D01*
D02*
G37*
G36*
X49500D02*
X45604D01*
Y50500D01*
X49500D01*
Y54396D01*
D02*
G37*
G36*
X54396Y49500D02*
X50500D01*
Y45604D01*
X54396D01*
Y49500D01*
D02*
G37*
G36*
X49500D02*
X45604D01*
Y45604D01*
X49500D01*
Y49500D01*
D02*
G37*
G36*
X281392Y48968D02*
X280608D01*
X279885Y48669D01*
X279331Y48115D01*
X279031Y47392D01*
Y46608D01*
X279331Y45885D01*
X279885Y45331D01*
X280608Y45031D01*
X281392D01*
X282115Y45331D01*
X282669Y45885D01*
X282968Y46608D01*
Y47392D01*
X282669Y48115D01*
X282115Y48669D01*
X281392Y48968D01*
D02*
G37*
G36*
X133892D02*
X133108D01*
X132385Y48669D01*
X131831Y48115D01*
X131532Y47392D01*
Y46608D01*
X131831Y45885D01*
X132385Y45331D01*
X133108Y45031D01*
X133892D01*
X134615Y45331D01*
X135169Y45885D01*
X135468Y46608D01*
Y47392D01*
X135169Y48115D01*
X134615Y48669D01*
X133892Y48968D01*
D02*
G37*
G36*
X105392Y48469D02*
X104608D01*
X103885Y48169D01*
X103331Y47615D01*
X103032Y46892D01*
Y46108D01*
X103331Y45385D01*
X103885Y44831D01*
X104608Y44532D01*
X105392D01*
X106115Y44831D01*
X106669Y45385D01*
X106968Y46108D01*
Y46892D01*
X106669Y47615D01*
X106115Y48169D01*
X105392Y48469D01*
D02*
G37*
G36*
X133892Y44469D02*
X133108D01*
X132385Y44169D01*
X131831Y43615D01*
X131532Y42892D01*
Y42108D01*
X131831Y41385D01*
X132385Y40831D01*
X133108Y40532D01*
X133892D01*
X134615Y40831D01*
X135169Y41385D01*
X135468Y42108D01*
Y42892D01*
X135169Y43615D01*
X134615Y44169D01*
X133892Y44469D01*
D02*
G37*
G36*
X39800Y17770D02*
X39045Y17620D01*
X38236Y17079D01*
X37947Y16648D01*
X37447Y16799D01*
Y17762D01*
X35200D01*
Y15000D01*
Y12238D01*
X37447D01*
Y13201D01*
X37947Y13352D01*
X38236Y12921D01*
X39045Y12380D01*
X39800Y12230D01*
Y15000D01*
Y17770D01*
D02*
G37*
G36*
X79800D02*
X79045Y17620D01*
X78236Y17079D01*
X77778Y16394D01*
X77663Y16364D01*
X77337D01*
X77222Y16394D01*
X76764Y17079D01*
X75955Y17620D01*
X75200Y17770D01*
Y15000D01*
Y12230D01*
X75955Y12380D01*
X76764Y12921D01*
X77222Y13606D01*
X77337Y13636D01*
X77663D01*
X77778Y13606D01*
X78236Y12921D01*
X79045Y12380D01*
X79800Y12230D01*
Y15000D01*
Y17770D01*
D02*
G37*
G36*
X74800D02*
X74045Y17620D01*
X73236Y17079D01*
X72778Y16394D01*
X72663Y16364D01*
X72337D01*
X72222Y16394D01*
X71764Y17079D01*
X70955Y17620D01*
X70200Y17770D01*
Y15000D01*
Y12230D01*
X70955Y12380D01*
X71764Y12921D01*
X72222Y13606D01*
X72337Y13636D01*
X72663D01*
X72778Y13606D01*
X73236Y12921D01*
X74045Y12380D01*
X74800Y12230D01*
Y15000D01*
Y17770D01*
D02*
G37*
G36*
X69800D02*
X69045Y17620D01*
X68236Y17079D01*
X67778Y16394D01*
X67663Y16364D01*
X67337D01*
X67222Y16394D01*
X66764Y17079D01*
X65955Y17620D01*
X65200Y17770D01*
Y15000D01*
Y12230D01*
X65955Y12380D01*
X66764Y12921D01*
X67222Y13606D01*
X67337Y13636D01*
X67663D01*
X67778Y13606D01*
X68236Y12921D01*
X69045Y12380D01*
X69800Y12230D01*
Y15000D01*
Y17770D01*
D02*
G37*
G36*
X64800D02*
X64045Y17620D01*
X63236Y17079D01*
X62778Y16394D01*
X62663Y16364D01*
X62337D01*
X62222Y16394D01*
X61764Y17079D01*
X60955Y17620D01*
X60200Y17770D01*
Y15000D01*
Y12230D01*
X60955Y12380D01*
X61764Y12921D01*
X62222Y13606D01*
X62337Y13636D01*
X62663D01*
X62778Y13606D01*
X63236Y12921D01*
X64045Y12380D01*
X64800Y12230D01*
Y15000D01*
Y17770D01*
D02*
G37*
G36*
X59800D02*
X59045Y17620D01*
X58236Y17079D01*
X57778Y16394D01*
X57663Y16364D01*
X57337D01*
X57222Y16394D01*
X56764Y17079D01*
X55955Y17620D01*
X55200Y17770D01*
Y15000D01*
Y12230D01*
X55955Y12380D01*
X56764Y12921D01*
X57222Y13606D01*
X57337Y13636D01*
X57663D01*
X57778Y13606D01*
X58236Y12921D01*
X59045Y12380D01*
X59800Y12230D01*
Y15000D01*
Y17770D01*
D02*
G37*
G36*
X54800D02*
X54045Y17620D01*
X53236Y17079D01*
X52778Y16394D01*
X52663Y16364D01*
X52337D01*
X52222Y16394D01*
X51764Y17079D01*
X50955Y17620D01*
X50200Y17770D01*
Y15000D01*
Y12230D01*
X50955Y12380D01*
X51764Y12921D01*
X52222Y13606D01*
X52337Y13636D01*
X52663D01*
X52778Y13606D01*
X53236Y12921D01*
X54045Y12380D01*
X54800Y12230D01*
Y15000D01*
Y17770D01*
D02*
G37*
G36*
X49800D02*
X49045Y17620D01*
X48236Y17079D01*
X47778Y16394D01*
X47663Y16364D01*
X47337D01*
X47222Y16394D01*
X46764Y17079D01*
X45955Y17620D01*
X45200Y17770D01*
Y15000D01*
Y12230D01*
X45955Y12380D01*
X46764Y12921D01*
X47222Y13606D01*
X47337Y13636D01*
X47663D01*
X47778Y13606D01*
X48236Y12921D01*
X49045Y12380D01*
X49800Y12230D01*
Y15000D01*
Y17770D01*
D02*
G37*
G36*
X44800D02*
X44045Y17620D01*
X43236Y17079D01*
X42778Y16394D01*
X42663Y16364D01*
X42337D01*
X42222Y16394D01*
X41764Y17079D01*
X40955Y17620D01*
X40200Y17770D01*
Y15000D01*
Y12230D01*
X40955Y12380D01*
X41764Y12921D01*
X42222Y13606D01*
X42337Y13636D01*
X42663D01*
X42778Y13606D01*
X43236Y12921D01*
X44045Y12380D01*
X44800Y12230D01*
Y15000D01*
Y17770D01*
D02*
G37*
G36*
X80200D02*
Y15200D01*
X82495D01*
Y15315D01*
X82305Y16270D01*
X81764Y17079D01*
X80955Y17620D01*
X80200Y17770D01*
D02*
G37*
G36*
X34800Y17762D02*
X32553D01*
Y15200D01*
X34800D01*
Y17762D01*
D02*
G37*
G36*
Y14800D02*
X32553D01*
Y12238D01*
X34800D01*
Y14800D01*
D02*
G37*
G36*
X82495D02*
X80200D01*
Y12230D01*
X80955Y12380D01*
X81764Y12921D01*
X82305Y13730D01*
X82495Y14685D01*
Y14800D01*
D02*
G37*
%LPD*%
G36*
X263656Y178173D02*
X262769Y178409D01*
Y179591D01*
X263656Y179827D01*
Y178173D01*
D02*
G37*
G36*
X249385Y179591D02*
Y178409D01*
X246835Y178164D01*
Y179836D01*
X249385Y179591D01*
D02*
G37*
G36*
X358000Y131405D02*
X277500D01*
X276962Y131298D01*
X276507Y130993D01*
X269418Y123905D01*
X251695D01*
X251157Y123798D01*
X250701Y123494D01*
X240113Y112905D01*
X239793D01*
X239229Y113055D01*
X239115Y113169D01*
X238392Y113469D01*
X237608D01*
X236885Y113169D01*
X236331Y112615D01*
X236032Y111892D01*
Y111108D01*
X236331Y110385D01*
X236885Y109831D01*
X237608Y109531D01*
X238392D01*
X239115Y109831D01*
X239229Y109945D01*
X239793Y110095D01*
X240695D01*
X241232Y110202D01*
X241688Y110506D01*
X252277Y121095D01*
X270000D01*
X270538Y121202D01*
X270993Y121507D01*
X278082Y128595D01*
X286158D01*
X286238Y128444D01*
X286311Y128095D01*
X285831Y127615D01*
X285531Y126892D01*
Y126108D01*
X285831Y125385D01*
X286385Y124831D01*
X287108Y124531D01*
X287892D01*
X288615Y124831D01*
X289169Y125385D01*
X289469Y126108D01*
Y126892D01*
X289169Y127615D01*
X288689Y128095D01*
X288762Y128444D01*
X288842Y128595D01*
X358000D01*
Y112000D01*
X280500D01*
Y106545D01*
X269449Y95494D01*
Y89687D01*
X254488D01*
Y95494D01*
X247482Y102500D01*
X237500D01*
X225500Y114500D01*
Y118500D01*
X170000D01*
X161500Y110000D01*
X50000D01*
Y115817D01*
X50551D01*
X51615Y116102D01*
X52569Y116653D01*
X53347Y117431D01*
X53898Y118385D01*
X54183Y119449D01*
Y120551D01*
X53898Y121615D01*
X53347Y122569D01*
X52569Y123347D01*
X51615Y123898D01*
X50551Y124183D01*
X50000D01*
Y125817D01*
X50551D01*
X51615Y126102D01*
X52569Y126653D01*
X53347Y127431D01*
X53898Y128385D01*
X54183Y129449D01*
Y130551D01*
X53898Y131615D01*
X53347Y132569D01*
X52569Y133347D01*
X51615Y133898D01*
X50551Y134183D01*
X50000D01*
Y135817D01*
X50551D01*
X51615Y136102D01*
X52569Y136653D01*
X53347Y137432D01*
X53898Y138385D01*
X54183Y139449D01*
Y140551D01*
X53898Y141615D01*
X53347Y142569D01*
X52569Y143347D01*
X51615Y143898D01*
X50551Y144183D01*
X50000D01*
Y145817D01*
X50551D01*
X51615Y146102D01*
X52569Y146653D01*
X53347Y147432D01*
X53898Y148385D01*
X54183Y149449D01*
Y150551D01*
X53898Y151615D01*
X53347Y152568D01*
X52569Y153347D01*
X51615Y153898D01*
X50551Y154183D01*
X50000D01*
Y155817D01*
X50551D01*
X51615Y156102D01*
X52569Y156653D01*
X53347Y157431D01*
X53898Y158385D01*
X54183Y159449D01*
Y160551D01*
X53898Y161615D01*
X53347Y162568D01*
X52569Y163347D01*
X51615Y163898D01*
X50551Y164183D01*
X50000D01*
Y165817D01*
X50551D01*
X51615Y166102D01*
X52569Y166653D01*
X52845Y166930D01*
X55331Y167993D01*
X137500D01*
X138268Y168146D01*
X138919Y168581D01*
X149831Y179493D01*
X242669D01*
X244581Y177581D01*
X244745Y177471D01*
X244885Y177331D01*
X245068Y177255D01*
X245232Y177146D01*
X245426Y177107D01*
X245608Y177032D01*
X245806D01*
X246000Y176993D01*
X246194Y177032D01*
X246392D01*
X246574Y177107D01*
X246768Y177146D01*
X246932Y177255D01*
X247115Y177331D01*
X247174Y177390D01*
X249303Y177595D01*
X262707D01*
X263271Y177445D01*
X263385Y177331D01*
X264108Y177032D01*
X264892D01*
X265615Y177331D01*
X266169Y177885D01*
X266469Y178608D01*
Y179392D01*
X266169Y180115D01*
X265615Y180669D01*
X264892Y180968D01*
X264108D01*
X263385Y180669D01*
X263271Y180555D01*
X262707Y180405D01*
X249303D01*
X247235Y180604D01*
X244919Y182919D01*
X244268Y183354D01*
X243500Y183507D01*
X149000D01*
X148232Y183354D01*
X147581Y182919D01*
X136669Y172007D01*
X55331D01*
X52845Y173070D01*
X52569Y173347D01*
X51615Y173898D01*
X50551Y174183D01*
X50000D01*
Y177000D01*
X66500Y193500D01*
X358000D01*
Y131405D01*
D02*
G37*
G36*
X55221Y171181D02*
Y168819D01*
X52425Y167623D01*
Y172377D01*
X55221Y171181D01*
D02*
G37*
G36*
X384156Y129173D02*
X383268Y129409D01*
Y130591D01*
X384156Y130827D01*
Y129173D01*
D02*
G37*
G36*
X239732Y112091D02*
Y110909D01*
X238843Y110673D01*
Y112327D01*
X239732Y112091D01*
D02*
G37*
G36*
X54527Y107143D02*
X52857Y105473D01*
X50034Y106605D01*
X53395Y109966D01*
X54527Y107143D01*
D02*
G37*
%LPC*%
G36*
X238392Y192469D02*
X237608D01*
X236885Y192169D01*
X236331Y191615D01*
X236032Y190892D01*
Y190108D01*
X236331Y189385D01*
X236885Y188831D01*
X237608Y188531D01*
X238392D01*
X239115Y188831D01*
X239669Y189385D01*
X239968Y190108D01*
Y190892D01*
X239669Y191615D01*
X239115Y192169D01*
X238392Y192469D01*
D02*
G37*
G36*
X138892Y191969D02*
X138108D01*
X137385Y191669D01*
X136831Y191115D01*
X136531Y190392D01*
Y189608D01*
X136831Y188885D01*
X137385Y188331D01*
X138108Y188031D01*
X138892D01*
X139615Y188331D01*
X140169Y188885D01*
X140469Y189608D01*
Y190392D01*
X140169Y191115D01*
X139615Y191669D01*
X138892Y191969D01*
D02*
G37*
G36*
X111892Y191469D02*
X111108D01*
X110385Y191169D01*
X109831Y190615D01*
X109531Y189892D01*
Y189108D01*
X109831Y188385D01*
X110385Y187831D01*
X111108Y187531D01*
X111892D01*
X112615Y187831D01*
X113169Y188385D01*
X113469Y189108D01*
Y189892D01*
X113169Y190615D01*
X112615Y191169D01*
X111892Y191469D01*
D02*
G37*
G36*
X145892Y189969D02*
X145108D01*
X144385Y189669D01*
X143831Y189115D01*
X143532Y188392D01*
Y187608D01*
X143831Y186885D01*
X144385Y186331D01*
X145108Y186031D01*
X145892D01*
X146615Y186331D01*
X147169Y186885D01*
X147468Y187608D01*
Y188392D01*
X147169Y189115D01*
X146615Y189669D01*
X145892Y189969D01*
D02*
G37*
G36*
X160392Y176469D02*
X159608D01*
X158885Y176169D01*
X158331Y175615D01*
X158031Y174892D01*
Y174108D01*
X158331Y173385D01*
X158885Y172831D01*
X159608Y172531D01*
X160392D01*
X161115Y172831D01*
X161669Y173385D01*
X161969Y174108D01*
Y174892D01*
X161669Y175615D01*
X161115Y176169D01*
X160392Y176469D01*
D02*
G37*
G36*
X344892Y171968D02*
X344108D01*
X343385Y171669D01*
X342831Y171115D01*
X342531Y170392D01*
Y169608D01*
X342831Y168885D01*
X343385Y168331D01*
X344108Y168032D01*
X344892D01*
X345615Y168331D01*
X346169Y168885D01*
X346468Y169608D01*
Y170392D01*
X346169Y171115D01*
X345615Y171669D01*
X344892Y171968D01*
D02*
G37*
G36*
X185392Y166469D02*
X184608D01*
X183885Y166169D01*
X183331Y165615D01*
X183271Y165469D01*
X182729D01*
X182669Y165615D01*
X182115Y166169D01*
X181392Y166469D01*
X180608D01*
X179885Y166169D01*
X179331Y165615D01*
X179032Y164892D01*
Y164108D01*
X179331Y163385D01*
X179885Y162831D01*
X180608Y162531D01*
X181392D01*
X182115Y162831D01*
X182669Y163385D01*
X182729Y163531D01*
X183271D01*
X183331Y163385D01*
X183885Y162831D01*
X184608Y162531D01*
X185392D01*
X186115Y162831D01*
X186669Y163385D01*
X186969Y164108D01*
Y164892D01*
X186669Y165615D01*
X186115Y166169D01*
X185392Y166469D01*
D02*
G37*
G36*
X332392Y165969D02*
X331608D01*
X330885Y165669D01*
X330331Y165115D01*
X330031Y164392D01*
Y163608D01*
X330331Y162885D01*
X330885Y162331D01*
X331608Y162031D01*
X332392D01*
X333115Y162331D01*
X333669Y162885D01*
X333968Y163608D01*
Y164392D01*
X333669Y165115D01*
X333115Y165669D01*
X332392Y165969D01*
D02*
G37*
G36*
X160392Y156468D02*
X159608D01*
X158885Y156169D01*
X158331Y155615D01*
X158271Y155469D01*
X157729D01*
X157669Y155615D01*
X157115Y156169D01*
X156392Y156468D01*
X155608D01*
X154885Y156169D01*
X154331Y155615D01*
X154032Y154892D01*
Y154108D01*
X154331Y153385D01*
X154885Y152831D01*
X155608Y152532D01*
X156392D01*
X157115Y152831D01*
X157669Y153385D01*
X157729Y153531D01*
X158271D01*
X158331Y153385D01*
X158885Y152831D01*
X159608Y152532D01*
X160392D01*
X161115Y152831D01*
X161669Y153385D01*
X161969Y154108D01*
Y154892D01*
X161669Y155615D01*
X161115Y156169D01*
X160392Y156468D01*
D02*
G37*
G36*
X185392Y146468D02*
X184608D01*
X183885Y146169D01*
X183331Y145615D01*
X183271Y145469D01*
X182729D01*
X182669Y145615D01*
X182115Y146169D01*
X181392Y146468D01*
X180608D01*
X179885Y146169D01*
X179331Y145615D01*
X179032Y144892D01*
Y144108D01*
X179331Y143385D01*
X179885Y142831D01*
X180608Y142532D01*
X181392D01*
X182115Y142831D01*
X182669Y143385D01*
X182729Y143531D01*
X183271D01*
X183331Y143385D01*
X183885Y142831D01*
X184608Y142532D01*
X185392D01*
X186115Y142831D01*
X186669Y143385D01*
X186969Y144108D01*
Y144892D01*
X186669Y145615D01*
X186115Y146169D01*
X185392Y146468D01*
D02*
G37*
G36*
X160392Y136469D02*
X159608D01*
X158885Y136169D01*
X158331Y135615D01*
X158271Y135469D01*
X157729D01*
X157669Y135615D01*
X157115Y136169D01*
X156392Y136469D01*
X155608D01*
X154885Y136169D01*
X154331Y135615D01*
X154032Y134892D01*
Y134108D01*
X154331Y133385D01*
X154885Y132831D01*
X155608Y132531D01*
X156392D01*
X157115Y132831D01*
X157669Y133385D01*
X157729Y133531D01*
X158271D01*
X158331Y133385D01*
X158885Y132831D01*
X159608Y132531D01*
X160392D01*
X161115Y132831D01*
X161669Y133385D01*
X161969Y134108D01*
Y134892D01*
X161669Y135615D01*
X161115Y136169D01*
X160392Y136469D01*
D02*
G37*
G36*
X252392Y135968D02*
X251608D01*
X250885Y135669D01*
X250331Y135115D01*
X250271Y134969D01*
X249729D01*
X249669Y135115D01*
X249115Y135669D01*
X248392Y135968D01*
X247608D01*
X246885Y135669D01*
X246331Y135115D01*
X246031Y134392D01*
Y133608D01*
X246331Y132885D01*
X246885Y132331D01*
X247608Y132032D01*
X248392D01*
X249115Y132331D01*
X249669Y132885D01*
X249729Y133031D01*
X250271D01*
X250331Y132885D01*
X250885Y132331D01*
X251608Y132032D01*
X252392D01*
X253115Y132331D01*
X253669Y132885D01*
X253969Y133608D01*
Y134392D01*
X253669Y135115D01*
X253115Y135669D01*
X252392Y135968D01*
D02*
G37*
G36*
X185392Y126469D02*
X184608D01*
X183885Y126169D01*
X183331Y125615D01*
X183271Y125469D01*
X182729D01*
X182669Y125615D01*
X182115Y126169D01*
X181392Y126469D01*
X180608D01*
X179885Y126169D01*
X179331Y125615D01*
X179032Y124892D01*
Y124108D01*
X179331Y123385D01*
X179885Y122831D01*
X180608Y122531D01*
X181392D01*
X182115Y122831D01*
X182669Y123385D01*
X182729Y123531D01*
X183271D01*
X183331Y123385D01*
X183885Y122831D01*
X184608Y122531D01*
X185392D01*
X186115Y122831D01*
X186669Y123385D01*
X186969Y124108D01*
Y124892D01*
X186669Y125615D01*
X186115Y126169D01*
X185392Y126469D01*
D02*
G37*
G36*
X274892Y123468D02*
X274108D01*
X273385Y123169D01*
X272831Y122615D01*
X272532Y121892D01*
Y121108D01*
X272831Y120385D01*
X273385Y119831D01*
X274108Y119532D01*
X274892D01*
X275615Y119831D01*
X276169Y120385D01*
X276468Y121108D01*
Y121892D01*
X276169Y122615D01*
X275615Y123169D01*
X274892Y123468D01*
D02*
G37*
G36*
X301000Y163507D02*
X279500D01*
X278732Y163354D01*
X278081Y162919D01*
X274581Y159419D01*
X274146Y158768D01*
X273993Y158000D01*
Y137331D01*
X267169Y130507D01*
X250000D01*
X249232Y130354D01*
X248581Y129919D01*
X241081Y122419D01*
X240971Y122255D01*
X240831Y122115D01*
X240756Y121932D01*
X240646Y121768D01*
X240607Y121574D01*
X240531Y121392D01*
Y121194D01*
X240493Y121000D01*
X240531Y120806D01*
Y120608D01*
X240607Y120426D01*
X240646Y120232D01*
X240756Y120068D01*
X240831Y119885D01*
X240971Y119745D01*
X241081Y119581D01*
X241245Y119471D01*
X241385Y119331D01*
X241568Y119255D01*
X241732Y119146D01*
X241926Y119107D01*
X242108Y119032D01*
X242306D01*
X242500Y118993D01*
X242694Y119032D01*
X242892D01*
X243074Y119107D01*
X243268Y119146D01*
X243432Y119255D01*
X243615Y119331D01*
X243755Y119471D01*
X243919Y119581D01*
X250831Y126493D01*
X268000D01*
X268768Y126646D01*
X269419Y127081D01*
X277419Y135081D01*
X277854Y135732D01*
X278007Y136500D01*
Y157169D01*
X280331Y159493D01*
X301000D01*
X301194Y159531D01*
X301392D01*
X301574Y159607D01*
X301768Y159646D01*
X301932Y159756D01*
X302115Y159831D01*
X302255Y159971D01*
X302419Y160081D01*
X302529Y160245D01*
X302669Y160385D01*
X302745Y160568D01*
X302854Y160732D01*
X302893Y160926D01*
X302969Y161108D01*
Y161306D01*
X303007Y161500D01*
X302969Y161694D01*
Y161892D01*
X302893Y162074D01*
X302854Y162268D01*
X302745Y162432D01*
X302669Y162615D01*
X302529Y162755D01*
X302419Y162919D01*
X302255Y163029D01*
X302115Y163169D01*
X301932Y163244D01*
X301768Y163354D01*
X301574Y163393D01*
X301392Y163469D01*
X301194D01*
X301000Y163507D01*
D02*
G37*
G36*
X332892Y66969D02*
X332108D01*
X331385Y66669D01*
X330831Y66115D01*
X330532Y65392D01*
Y64608D01*
X330831Y63885D01*
X331385Y63331D01*
X332108Y63032D01*
X332892D01*
X333615Y63331D01*
X334169Y63885D01*
X334469Y64608D01*
Y65392D01*
X334169Y66115D01*
X333615Y66669D01*
X332892Y66969D01*
D02*
G37*
G36*
Y41969D02*
X332108D01*
X331385Y41669D01*
X330831Y41115D01*
X330532Y40392D01*
Y39608D01*
X330831Y38885D01*
X331385Y38331D01*
X332108Y38032D01*
X332892D01*
X333615Y38331D01*
X334169Y38885D01*
X334469Y39608D01*
Y40392D01*
X334169Y41115D01*
X333615Y41669D01*
X332892Y41969D01*
D02*
G37*
G36*
X353010Y38969D02*
X352226D01*
X351503Y38669D01*
X350949Y38115D01*
X350650Y37392D01*
Y36608D01*
X350949Y35885D01*
X351503Y35331D01*
X352226Y35032D01*
X353010D01*
X353733Y35331D01*
X354287Y35885D01*
X354587Y36608D01*
Y37392D01*
X354287Y38115D01*
X353733Y38669D01*
X353010Y38969D01*
D02*
G37*
G36*
X323010D02*
X322227D01*
X321503Y38669D01*
X320949Y38115D01*
X320650Y37392D01*
Y36608D01*
X320949Y35885D01*
X321503Y35331D01*
X322227Y35032D01*
X323010D01*
X323733Y35331D01*
X324287Y35885D01*
X324587Y36608D01*
Y37392D01*
X324287Y38115D01*
X323733Y38669D01*
X323010Y38969D01*
D02*
G37*
G36*
X355000Y18174D02*
X354260Y18077D01*
X353570Y17791D01*
X352978Y17337D01*
X352815Y17124D01*
X352185D01*
X352022Y17337D01*
X351430Y17791D01*
X350740Y18077D01*
X350000Y18174D01*
X349260Y18077D01*
X348570Y17791D01*
X347978Y17337D01*
X347815Y17124D01*
X347185D01*
X347022Y17337D01*
X346430Y17791D01*
X345740Y18077D01*
X345000Y18174D01*
X344260Y18077D01*
X343570Y17791D01*
X342978Y17337D01*
X342815Y17124D01*
X342185D01*
X342022Y17337D01*
X341430Y17791D01*
X340740Y18077D01*
X340000Y18174D01*
X339260Y18077D01*
X338570Y17791D01*
X337978Y17337D01*
X337559Y16790D01*
X337342Y16746D01*
X336985Y16749D01*
X336764Y17079D01*
X335955Y17620D01*
X335200Y17770D01*
Y15000D01*
Y12230D01*
X335955Y12380D01*
X336764Y12921D01*
X336985Y13251D01*
X337342Y13254D01*
X337559Y13210D01*
X337978Y12663D01*
X338570Y12209D01*
X339260Y11923D01*
X340000Y11826D01*
X340740Y11923D01*
X341430Y12209D01*
X342022Y12663D01*
X342185Y12876D01*
X342815D01*
X342978Y12663D01*
X343570Y12209D01*
X344260Y11923D01*
X345000Y11826D01*
X345740Y11923D01*
X346430Y12209D01*
X347022Y12663D01*
X347185Y12876D01*
X347815D01*
X347978Y12663D01*
X348570Y12209D01*
X349260Y11923D01*
X350000Y11826D01*
X350740Y11923D01*
X351430Y12209D01*
X352022Y12663D01*
X352185Y12876D01*
X352815D01*
X352978Y12663D01*
X353570Y12209D01*
X354260Y11923D01*
X355000Y11826D01*
X355740Y11923D01*
X356430Y12209D01*
X357022Y12663D01*
X357476Y13255D01*
X357762Y13945D01*
X357859Y14685D01*
Y15315D01*
X357762Y16055D01*
X357476Y16745D01*
X357022Y17337D01*
X356430Y17791D01*
X355740Y18077D01*
X355000Y18174D01*
D02*
G37*
G36*
X330000D02*
X329260Y18077D01*
X328570Y17791D01*
X327978Y17337D01*
X327815Y17124D01*
X327185D01*
X327022Y17337D01*
X326430Y17791D01*
X325740Y18077D01*
X325000Y18174D01*
X324260Y18077D01*
X323570Y17791D01*
X322978Y17337D01*
X322815Y17124D01*
X322185D01*
X322022Y17337D01*
X321430Y17791D01*
X320740Y18077D01*
X320000Y18174D01*
X319260Y18077D01*
X318570Y17791D01*
X317978Y17337D01*
X317815Y17124D01*
X317185D01*
X317022Y17337D01*
X316430Y17791D01*
X315740Y18077D01*
X315000Y18174D01*
X314260Y18077D01*
X313570Y17791D01*
X313335Y17610D01*
X312835Y17857D01*
Y18150D01*
X307165D01*
Y11850D01*
X312835D01*
Y12143D01*
X313335Y12390D01*
X313570Y12209D01*
X314260Y11923D01*
X315000Y11826D01*
X315740Y11923D01*
X316430Y12209D01*
X317022Y12663D01*
X317185Y12876D01*
X317815D01*
X317978Y12663D01*
X318570Y12209D01*
X319260Y11923D01*
X320000Y11826D01*
X320740Y11923D01*
X321430Y12209D01*
X322022Y12663D01*
X322185Y12876D01*
X322815D01*
X322978Y12663D01*
X323570Y12209D01*
X324260Y11923D01*
X325000Y11826D01*
X325740Y11923D01*
X326430Y12209D01*
X327022Y12663D01*
X327185Y12876D01*
X327815D01*
X327978Y12663D01*
X328570Y12209D01*
X329260Y11923D01*
X330000Y11826D01*
X330740Y11923D01*
X331430Y12209D01*
X332022Y12663D01*
X332441Y13210D01*
X332658Y13254D01*
X333015Y13251D01*
X333236Y12921D01*
X334045Y12380D01*
X334800Y12230D01*
Y15000D01*
Y17770D01*
X334045Y17620D01*
X333236Y17079D01*
X333015Y16749D01*
X332658Y16746D01*
X332441Y16790D01*
X332022Y17337D01*
X331430Y17791D01*
X330740Y18077D01*
X330000Y18174D01*
D02*
G37*
%LPD*%
D60*
X246000Y179000D02*
X264500D01*
X252494Y44506D02*
X269547D01*
X243500Y53500D02*
X252494Y44506D01*
X269547D02*
X277500Y52459D01*
X280000Y78000D02*
X335500D01*
X363500Y50000D02*
X385500D01*
X335500Y78000D02*
X363500Y50000D01*
X277500Y75500D02*
X280000Y78000D01*
X277500Y52459D02*
Y75500D01*
X238000Y111500D02*
X240695D01*
X251695Y122500D02*
X270000D01*
X240695Y111500D02*
X251695Y122500D01*
X270000D02*
X277500Y130000D01*
X385000D01*
D62*
X80000Y205000D02*
D03*
X75000D02*
D03*
X70000D02*
D03*
X65000D02*
D03*
X60000D02*
D03*
X55000D02*
D03*
X50000D02*
D03*
X45000D02*
D03*
X40000D02*
D03*
X320000D02*
D03*
X325000D02*
D03*
X330000D02*
D03*
X335000D02*
D03*
X340000D02*
D03*
X345000D02*
D03*
X350000D02*
D03*
X355000D02*
D03*
X335000Y15000D02*
D03*
X40000D02*
D03*
X45000D02*
D03*
X50000D02*
D03*
X55000D02*
D03*
X60000D02*
D03*
X65000D02*
D03*
X70000D02*
D03*
X75000D02*
D03*
X80000D02*
D03*
D63*
X35000Y205000D02*
D03*
Y15000D02*
D03*
D64*
X50000Y50000D02*
D03*
D65*
Y110000D02*
D03*
Y170000D02*
D03*
D66*
X375000Y205000D02*
D03*
X15000D02*
D03*
X375000Y15000D02*
D03*
X15000D02*
D03*
D67*
X230500Y97500D02*
D03*
X342382Y37000D02*
D03*
X312382D02*
D03*
X355000Y115150D02*
D03*
X264500Y179000D02*
D03*
X230500Y177500D02*
D03*
X245500Y32000D02*
D03*
X266000Y54000D02*
D03*
X256000D02*
D03*
X301500Y81500D02*
D03*
X249000Y53500D02*
D03*
X243500D02*
D03*
X298000Y105500D02*
D03*
Y118500D02*
D03*
X300000Y15500D02*
D03*
X290000D02*
D03*
X301000Y161500D02*
D03*
X341500Y76000D02*
D03*
X385500Y50000D02*
D03*
Y40000D02*
D03*
X341500Y156000D02*
D03*
X238000Y111500D02*
D03*
X287500Y121000D02*
D03*
X385000Y130000D02*
D03*
X340500Y55500D02*
D03*
X242500Y108000D02*
D03*
X288500Y138000D02*
D03*
X242500Y121000D02*
D03*
X260000Y54000D02*
D03*
X297000Y170500D02*
D03*
X292500Y177500D02*
D03*
X288500D02*
D03*
X297000Y90500D02*
D03*
X292500Y97500D02*
D03*
X288500D02*
D03*
X260000Y134000D02*
D03*
X287500Y116000D02*
D03*
X274000Y178500D02*
D03*
X288500Y134500D02*
D03*
X235500Y174500D02*
D03*
X246000Y179000D02*
D03*
X214000Y78000D02*
D03*
X231000Y58500D02*
D03*
X279500Y98000D02*
D03*
X276000D02*
D03*
X288500Y54500D02*
D03*
Y58000D02*
D03*
X284500Y36000D02*
D03*
Y41000D02*
D03*
X231000Y45500D02*
D03*
X231500Y41000D02*
D03*
Y36000D02*
D03*
X214000Y58000D02*
D03*
Y68000D02*
D03*
Y138000D02*
D03*
Y128000D02*
D03*
Y108000D02*
D03*
Y98000D02*
D03*
Y88000D02*
D03*
X214500Y168000D02*
D03*
Y158000D02*
D03*
Y148000D02*
D03*
X231000Y138000D02*
D03*
X226000Y125500D02*
D03*
X235000Y94500D02*
D03*
X246000Y99000D02*
D03*
X228500Y116000D02*
D03*
Y121000D02*
D03*
X231000Y125500D02*
D03*
X156000Y114500D02*
D03*
X160000D02*
D03*
X324500Y55500D02*
D03*
X340500Y49500D02*
D03*
X324500D02*
D03*
X156000Y54500D02*
D03*
X160000D02*
D03*
D68*
X265500Y59500D02*
D03*
X254500D02*
D03*
Y80500D02*
D03*
X265500D02*
D03*
X270500Y75500D02*
D03*
Y64500D02*
D03*
X249500D02*
D03*
Y75500D02*
D03*
Y144500D02*
D03*
Y155500D02*
D03*
X270500D02*
D03*
Y144500D02*
D03*
X265500Y139500D02*
D03*
X254500D02*
D03*
X265500Y160500D02*
D03*
X254500D02*
D03*
X249500Y150000D02*
D03*
X260000Y139500D02*
D03*
X270500D02*
D03*
Y150000D02*
D03*
Y160500D02*
D03*
X260000D02*
D03*
X249500D02*
D03*
X270500Y70000D02*
D03*
Y59500D02*
D03*
X260000D02*
D03*
X249500D02*
D03*
Y70000D02*
D03*
Y80500D02*
D03*
X260000D02*
D03*
X270500D02*
D03*
D69*
X58000Y102000D02*
X232500D01*
X235500Y99000D02*
X246000D01*
X232500Y102000D02*
X235500Y99000D01*
X50000Y170000D02*
X137500D01*
X149000Y181500D02*
X243500D01*
X137500Y170000D02*
X149000Y181500D01*
X243500D02*
X246000Y179000D01*
X274500Y77000D02*
X279000Y81500D01*
X301500D01*
X268089Y47589D02*
X274500Y54000D01*
X254911Y47589D02*
X268089D01*
X249000Y53500D02*
X254911Y47589D01*
X279500Y161500D02*
X301000D01*
X276000Y158000D02*
X279500Y161500D01*
X274500Y54000D02*
Y77000D01*
X276000Y136500D02*
Y158000D01*
X250000Y128500D02*
X268000D01*
X276000Y136500D01*
X242500Y121000D02*
X250000Y128500D01*
X50000Y110000D02*
X58000Y102000D01*
M02*
