G04*
G04 #@! TF.GenerationSoftware,Altium Limited,Altium Designer,21.6.4 (81)*
G04*
G04 Layer_Color=32768*
%FSLAX25Y25*%
%MOIN*%
G70*
G04*
G04 #@! TF.SameCoordinates,D21CAB57-D7DD-4798-A039-69392B5906F0*
G04*
G04*
G04 #@! TF.FilePolarity,Positive*
G04*
G01*
G75*
%ADD12C,0.00394*%
%ADD71C,0.00197*%
D12*
X341500Y58000D02*
X353500D01*
Y47000D02*
Y58000D01*
X341500Y47000D02*
X353500D01*
X341500D02*
Y58000D01*
X323500Y47000D02*
Y58000D01*
X311500D02*
X323500D01*
X311500Y47000D02*
Y58000D01*
Y47000D02*
X323500D01*
X377000Y154000D02*
X383000D01*
Y166000D01*
X377000D02*
X383000D01*
X377000Y154000D02*
Y166000D01*
Y74000D02*
X383000D01*
Y86000D01*
X377000D02*
X383000D01*
X377000Y74000D02*
Y86000D01*
D71*
X233524Y96476D02*
X286476D01*
Y43524D02*
Y96476D01*
X233524Y43524D02*
X286476D01*
X233524D02*
Y96476D01*
Y123524D02*
Y176476D01*
Y123524D02*
X286476D01*
Y176476D01*
X233524D02*
X286476D01*
X308839Y29913D02*
X326161D01*
X308839D02*
Y44087D01*
X326161D01*
Y29913D02*
Y44087D01*
X338839Y29913D02*
X356161D01*
X338839D02*
Y44087D01*
X356161D01*
Y29913D02*
Y44087D01*
X83937Y198012D02*
Y211988D01*
X31063D02*
X83937D01*
X31063Y198012D02*
Y211988D01*
Y198012D02*
X83937D01*
X306063D02*
X358937D01*
X306063D02*
Y211988D01*
X358937D01*
Y198012D02*
Y211988D01*
Y8012D02*
Y21988D01*
X306063D02*
X358937D01*
X306063Y8012D02*
Y21988D01*
Y8012D02*
X358937D01*
X31063D02*
X83937D01*
X31063D02*
Y21988D01*
X83937D01*
Y8012D02*
Y21988D01*
X376000Y128000D02*
Y132000D01*
X384000D01*
Y128000D02*
Y132000D01*
X376000Y128000D02*
X384000D01*
X376000Y118000D02*
Y122000D01*
X384000D01*
Y118000D02*
Y122000D01*
X376000Y118000D02*
X384000D01*
X228059Y175803D02*
X232941D01*
X228059Y166197D02*
Y175803D01*
Y166197D02*
X232941D01*
Y175803D01*
X330059Y41547D02*
Y51153D01*
X334941D01*
Y41547D02*
Y51153D01*
X330059Y41547D02*
X334941D01*
Y53847D02*
Y63453D01*
X330059Y53847D02*
X334941D01*
X330059D02*
Y63453D01*
X334941D01*
X212803Y135559D02*
Y140441D01*
X203197D02*
X212803D01*
X203197Y135559D02*
Y140441D01*
Y135559D02*
X212803D01*
Y145559D02*
Y150441D01*
X203197D02*
X212803D01*
X203197Y145559D02*
Y150441D01*
Y145559D02*
X212803D01*
X142110Y112716D02*
Y127284D01*
X155890D01*
Y112716D02*
Y127284D01*
X142110Y112716D02*
X155890D01*
X80744Y112520D02*
X111256D01*
X80744D02*
Y127480D01*
X111256D01*
Y112520D02*
Y127480D01*
X111244Y162520D02*
X141756D01*
X111244D02*
Y177480D01*
X141756D01*
Y162520D02*
Y177480D01*
X57559Y50197D02*
X62441D01*
Y59803D01*
X57559D02*
X62441D01*
X57559Y50197D02*
Y59803D01*
X192000Y162500D02*
Y177500D01*
X185000Y162500D02*
X192000D01*
X185000D02*
Y177500D01*
X192000D01*
X167000Y152500D02*
Y167500D01*
X160000Y152500D02*
X167000D01*
X160000D02*
Y167500D01*
X167000D01*
X192000Y142500D02*
Y157500D01*
X185000Y142500D02*
X192000D01*
X185000D02*
Y157500D01*
X192000D01*
X167000Y132500D02*
Y147500D01*
X160000Y132500D02*
X167000D01*
X160000D02*
Y147500D01*
X167000D01*
X192000Y122500D02*
Y137500D01*
X185000Y122500D02*
X192000D01*
X185000D02*
Y137500D01*
X192000D01*
X167000Y112500D02*
Y127500D01*
X160000Y112500D02*
X167000D01*
X160000D02*
Y127500D01*
X167000D01*
X192000Y102500D02*
Y117500D01*
X185000Y102500D02*
X192000D01*
X185000D02*
Y117500D01*
X192000D01*
X167000Y92500D02*
Y107500D01*
X160000Y92500D02*
X167000D01*
X160000D02*
Y107500D01*
X167000D01*
X192000Y82500D02*
Y97500D01*
X185000Y82500D02*
X192000D01*
X185000D02*
Y97500D01*
X192000D01*
X167000Y72500D02*
Y87500D01*
X160000Y72500D02*
X167000D01*
X160000D02*
Y87500D01*
X167000D01*
X192000Y62500D02*
Y77500D01*
X185000Y62500D02*
X192000D01*
X185000D02*
Y77500D01*
X192000D01*
X167000Y52500D02*
Y67500D01*
X160000Y52500D02*
X167000D01*
X160000D02*
Y67500D01*
X167000D01*
X167110Y162716D02*
X180890D01*
Y177284D01*
X167110D02*
X180890D01*
X167110Y162716D02*
Y177284D01*
X71571Y173071D02*
X80429D01*
X71571Y154921D02*
Y173071D01*
Y154921D02*
X80429D01*
Y173071D01*
X57559Y160197D02*
Y169803D01*
X62441D01*
Y160197D02*
Y169803D01*
X57559Y160197D02*
X62441D01*
X181000Y166000D02*
X185000D01*
X181000D02*
Y174000D01*
X185000D01*
Y166000D02*
Y174000D01*
X111256Y152520D02*
Y167480D01*
X80744D02*
X111256D01*
X80744Y152520D02*
Y167480D01*
Y152520D02*
X111256D01*
X142110Y152717D02*
X155890D01*
Y167283D01*
X142110D02*
X155890D01*
X142110Y152717D02*
Y167283D01*
X62571Y163071D02*
X71429D01*
X62571Y144921D02*
Y163071D01*
Y144921D02*
X71429D01*
Y163071D01*
X57559Y150197D02*
Y159803D01*
X62441D01*
Y150197D02*
Y159803D01*
X57559Y150197D02*
X62441D01*
X156000Y156000D02*
X160000D01*
X156000D02*
Y164000D01*
X160000D01*
Y156000D02*
Y164000D01*
X141756Y142520D02*
Y157480D01*
X111244D02*
X141756D01*
X111244Y142520D02*
Y157480D01*
Y142520D02*
X141756D01*
X167110Y142717D02*
X180890D01*
Y157283D01*
X167110D02*
X180890D01*
X167110Y142717D02*
Y157283D01*
X71571Y153071D02*
X80429D01*
X71571Y134921D02*
Y153071D01*
Y134921D02*
X80429D01*
Y153071D01*
X57559Y140197D02*
Y149803D01*
X62441D01*
Y140197D02*
Y149803D01*
X57559Y140197D02*
X62441D01*
X181000Y146000D02*
X185000D01*
X181000D02*
Y154000D01*
X185000D01*
Y146000D02*
Y154000D01*
X111256Y132520D02*
Y147480D01*
X80744D02*
X111256D01*
X80744Y132520D02*
Y147480D01*
Y132520D02*
X111256D01*
X142110Y132717D02*
X155890D01*
Y147283D01*
X142110D02*
X155890D01*
X142110Y132717D02*
Y147283D01*
X62571Y143071D02*
X71429D01*
X62571Y124921D02*
Y143071D01*
Y124921D02*
X71429D01*
Y143071D01*
X57559Y130197D02*
Y139803D01*
X62441D01*
Y130197D02*
Y139803D01*
X57559Y130197D02*
X62441D01*
X156000Y136000D02*
X160000D01*
X156000D02*
Y144000D01*
X160000D01*
Y136000D02*
Y144000D01*
X141756Y122520D02*
Y137480D01*
X111244D02*
X141756D01*
X111244Y122520D02*
Y137480D01*
Y122520D02*
X141756D01*
X167110Y122716D02*
X180890D01*
Y137284D01*
X167110D02*
X180890D01*
X167110Y122716D02*
Y137284D01*
X71571Y133071D02*
X80429D01*
X71571Y114921D02*
Y133071D01*
Y114921D02*
X80429D01*
Y133071D01*
X57559Y120197D02*
Y129803D01*
X62441D01*
Y120197D02*
Y129803D01*
X57559Y120197D02*
X62441D01*
X181000Y126000D02*
X185000D01*
X181000D02*
Y134000D01*
X185000D01*
Y126000D02*
Y134000D01*
X62571Y123071D02*
X71429D01*
X62571Y104921D02*
Y123071D01*
Y104921D02*
X71429D01*
Y123071D01*
X57559Y110197D02*
Y119803D01*
X62441D01*
Y110197D02*
Y119803D01*
X57559Y110197D02*
X62441D01*
X156000Y116000D02*
X160000D01*
X156000D02*
Y124000D01*
X160000D01*
Y116000D02*
Y124000D01*
X141756Y102520D02*
Y117480D01*
X111244D02*
X141756D01*
X111244Y102520D02*
Y117480D01*
Y102520D02*
X141756D01*
X167110Y102717D02*
X180890D01*
Y117283D01*
X167110D02*
X180890D01*
X167110Y102717D02*
Y117283D01*
X71571Y113075D02*
X80429D01*
X71571Y94925D02*
Y113075D01*
Y94925D02*
X80429D01*
Y113075D01*
X57559Y100197D02*
Y109803D01*
X62441D01*
Y100197D02*
Y109803D01*
X57559Y100197D02*
X62441D01*
X181000Y106000D02*
X185000D01*
X181000D02*
Y114000D01*
X185000D01*
Y106000D02*
Y114000D01*
X111256Y92520D02*
Y107480D01*
X80744D02*
X111256D01*
X80744Y92520D02*
Y107480D01*
Y92520D02*
X111256D01*
X142110Y92716D02*
X155890D01*
Y107283D01*
X142110D02*
X155890D01*
X142110Y92716D02*
Y107283D01*
X62571Y103071D02*
X71429D01*
X62571Y84921D02*
Y103071D01*
Y84921D02*
X71429D01*
Y103071D01*
X57559Y90197D02*
Y99803D01*
X62441D01*
Y90197D02*
Y99803D01*
X57559Y90197D02*
X62441D01*
X156000Y96000D02*
X160000D01*
X156000D02*
Y104000D01*
X160000D01*
Y96000D02*
Y104000D01*
X141756Y82520D02*
Y97480D01*
X111244D02*
X141756D01*
X111244Y82520D02*
Y97480D01*
Y82520D02*
X141756D01*
X167110Y82717D02*
X180890D01*
Y97284D01*
X167110D02*
X180890D01*
X167110Y82717D02*
Y97284D01*
X71571Y93071D02*
X80429D01*
X71571Y74921D02*
Y93071D01*
Y74921D02*
X80429D01*
Y93071D01*
X57559Y80197D02*
Y89803D01*
X62441D01*
Y80197D02*
Y89803D01*
X57559Y80197D02*
X62441D01*
X181000Y86000D02*
X185000D01*
X181000D02*
Y94000D01*
X185000D01*
Y86000D02*
Y94000D01*
X111256Y72520D02*
Y87480D01*
X80744D02*
X111256D01*
X80744Y72520D02*
Y87480D01*
Y72520D02*
X111256D01*
X142110Y72716D02*
X155890D01*
Y87283D01*
X142110D02*
X155890D01*
X142110Y72716D02*
Y87283D01*
X62571Y83071D02*
X71429D01*
X62571Y64921D02*
Y83071D01*
Y64921D02*
X71429D01*
Y83071D01*
X57559Y70197D02*
Y79803D01*
X62441D01*
Y70197D02*
Y79803D01*
X57559Y70197D02*
X62441D01*
X156000Y76000D02*
X160000D01*
X156000D02*
Y84000D01*
X160000D01*
Y76000D02*
Y84000D01*
X141756Y62520D02*
Y77480D01*
X111244D02*
X141756D01*
X111244Y62520D02*
Y77480D01*
Y62520D02*
X141756D01*
X167110Y62717D02*
X180890D01*
Y77284D01*
X167110D02*
X180890D01*
X167110Y62717D02*
Y77284D01*
X71571Y73071D02*
X80429D01*
X71571Y54921D02*
Y73071D01*
Y54921D02*
X80429D01*
Y73071D01*
X57559Y60197D02*
Y69803D01*
X62441D01*
Y60197D02*
Y69803D01*
X57559Y60197D02*
X62441D01*
X181000Y66000D02*
X185000D01*
X181000D02*
Y74000D01*
X185000D01*
Y66000D02*
Y74000D01*
X111256Y52520D02*
Y67480D01*
X80744D02*
X111256D01*
X80744Y52520D02*
Y67480D01*
Y52520D02*
X111256D01*
X142110Y52716D02*
X155890D01*
Y67283D01*
X142110D02*
X155890D01*
X142110Y52716D02*
Y67283D01*
X62571Y63071D02*
X71429D01*
X62571Y44921D02*
Y63071D01*
Y44921D02*
X71429D01*
Y63071D01*
X156000Y56000D02*
X160000D01*
X156000D02*
Y64000D01*
X160000D01*
Y56000D02*
Y64000D01*
X55362Y44016D02*
Y175984D01*
X34000D02*
X55362D01*
X34000Y44016D02*
X55362D01*
X295559Y107197D02*
Y116803D01*
X300441D01*
Y107197D02*
Y116803D01*
X295559Y107197D02*
X300441D01*
X265000Y112000D02*
X269000D01*
X265000D02*
Y120000D01*
X269000D01*
Y112000D02*
Y120000D01*
X257000Y112000D02*
X261000D01*
X257000D02*
Y120000D01*
X261000D01*
Y112000D02*
Y120000D01*
X253000Y112000D02*
X257000D01*
X253000D02*
Y120000D01*
X257000D01*
Y112000D02*
Y120000D01*
X249000Y112000D02*
X253000D01*
X249000D02*
Y120000D01*
X253000D01*
Y112000D02*
Y120000D01*
X273000Y104000D02*
X277000D01*
X273000D02*
Y112000D01*
X277000D01*
Y104000D02*
Y112000D01*
X269000Y104000D02*
X273000D01*
X269000D02*
Y112000D01*
X273000D01*
Y104000D02*
Y112000D01*
X261000Y104000D02*
X265000D01*
X261000D02*
Y112000D01*
X265000D01*
Y104000D02*
Y112000D01*
X245000Y104000D02*
X249000D01*
X245000D02*
Y112000D01*
X249000D01*
Y104000D02*
Y112000D01*
X338000Y30000D02*
X342000D01*
Y22000D02*
Y30000D01*
X338000Y22000D02*
X342000D01*
X338000D02*
Y30000D01*
X343000D02*
X347000D01*
Y22000D02*
Y30000D01*
X343000Y22000D02*
X347000D01*
X343000D02*
Y30000D01*
X348000D02*
X352000D01*
Y22000D02*
Y30000D01*
X348000Y22000D02*
X352000D01*
X348000D02*
Y30000D01*
X353000D02*
X357000D01*
Y22000D02*
Y30000D01*
X353000Y22000D02*
X357000D01*
X353000D02*
Y30000D01*
X298000Y14000D02*
X302000D01*
Y6000D02*
Y14000D01*
X298000Y6000D02*
X302000D01*
X298000D02*
Y14000D01*
X288000D02*
X292000D01*
Y6000D02*
Y14000D01*
X288000Y6000D02*
X292000D01*
X288000D02*
Y14000D01*
X323000Y30000D02*
X327000D01*
Y22000D02*
Y30000D01*
X323000Y22000D02*
X327000D01*
X323000D02*
Y30000D01*
X318000D02*
X322000D01*
Y22000D02*
Y30000D01*
X318000Y22000D02*
X322000D01*
X318000D02*
Y30000D01*
X313000D02*
X317000D01*
Y22000D02*
Y30000D01*
X313000Y22000D02*
X317000D01*
X313000D02*
Y30000D01*
X308000D02*
X312000D01*
Y22000D02*
Y30000D01*
X308000Y22000D02*
X312000D01*
X308000D02*
Y30000D01*
X354000Y168000D02*
Y172000D01*
X346000Y168000D02*
X354000D01*
X346000D02*
Y172000D01*
X354000D01*
X342000Y162000D02*
Y166000D01*
X334000Y162000D02*
X342000D01*
X334000D02*
Y166000D01*
X342000D01*
X342717Y153110D02*
Y166890D01*
Y153110D02*
X357283D01*
Y166890D01*
X342717D02*
X357283D01*
X233697Y181441D02*
X243303D01*
Y176559D02*
Y181441D01*
X233697Y176559D02*
X243303D01*
X233697D02*
Y181441D01*
X342000Y158000D02*
Y162000D01*
X334000Y158000D02*
X342000D01*
X334000D02*
Y162000D01*
X342000D01*
X194000Y176000D02*
Y180000D01*
X202000D01*
Y176000D02*
Y180000D01*
X194000Y176000D02*
X202000D01*
X194000Y170000D02*
Y174000D01*
X202000D01*
Y170000D02*
Y174000D01*
X194000Y170000D02*
X202000D01*
X194000Y166000D02*
Y170000D01*
X202000D01*
Y166000D02*
Y170000D01*
X194000Y166000D02*
X202000D01*
X251905Y187547D02*
Y193453D01*
X240094D02*
X251905D01*
X240094Y187547D02*
Y193453D01*
Y187547D02*
X251905D01*
X120405Y181047D02*
Y186953D01*
X108595D02*
X120405D01*
X108595Y181047D02*
Y186953D01*
Y181047D02*
X120405D01*
X194000Y160000D02*
Y164000D01*
X202000D01*
Y160000D02*
Y164000D01*
X194000Y160000D02*
X202000D01*
X203197Y165559D02*
X212803D01*
X203197D02*
Y170441D01*
X212803D01*
Y165559D02*
Y170441D01*
X194000Y156000D02*
Y160000D01*
X202000D01*
Y156000D02*
Y160000D01*
X194000Y156000D02*
X202000D01*
X286500Y168468D02*
X290500D01*
X286500D02*
Y176469D01*
X290500D01*
Y168468D02*
Y176469D01*
Y168468D02*
X294500D01*
X290500D02*
Y176469D01*
X294500D01*
Y168468D02*
Y176469D01*
X241197Y182559D02*
X250803D01*
X241197D02*
Y187441D01*
X250803D01*
Y182559D02*
Y187441D01*
X116197Y187059D02*
X125803D01*
X116197D02*
Y191941D01*
X125803D01*
Y187059D02*
Y191941D01*
X194000Y150000D02*
Y154000D01*
X202000D01*
Y150000D02*
Y154000D01*
X194000Y150000D02*
X202000D01*
X203197Y155559D02*
X212803D01*
X203197D02*
Y160441D01*
X212803D01*
Y155559D02*
Y160441D01*
X263110Y187547D02*
Y193453D01*
X251890D02*
X263110D01*
X251890Y187547D02*
Y193453D01*
Y187547D02*
X263110D01*
X131610Y181047D02*
Y186953D01*
X120390D02*
X131610D01*
X120390Y181047D02*
Y186953D01*
Y181047D02*
X131610D01*
X194000Y146000D02*
Y150000D01*
X202000D01*
Y146000D02*
Y150000D01*
X194000Y146000D02*
X202000D01*
X194000Y140000D02*
Y144000D01*
X202000D01*
Y140000D02*
Y144000D01*
X194000Y140000D02*
X202000D01*
X251047Y176390D02*
X256953D01*
Y187610D01*
X251047D02*
X256953D01*
X251047Y176390D02*
Y187610D01*
X194000Y136000D02*
Y140000D01*
X202000D01*
Y136000D02*
Y140000D01*
X194000Y136000D02*
X202000D01*
X137110Y187047D02*
Y192953D01*
X125890D02*
X137110D01*
X125890Y187047D02*
Y192953D01*
Y187047D02*
X137110D01*
X194000Y130000D02*
Y134000D01*
X202000D01*
Y130000D02*
Y134000D01*
X194000Y130000D02*
X202000D01*
X194000Y126000D02*
Y130000D01*
X202000D01*
Y126000D02*
Y130000D01*
X194000Y126000D02*
X202000D01*
X194000Y120000D02*
Y124000D01*
X202000D01*
Y120000D02*
Y124000D01*
X194000Y120000D02*
X202000D01*
X203197Y125559D02*
X212803D01*
X203197D02*
Y130441D01*
X212803D01*
Y125559D02*
Y130441D01*
X194000Y116000D02*
Y120000D01*
X202000D01*
Y116000D02*
Y120000D01*
X194000Y116000D02*
X202000D01*
X276197Y118559D02*
X285803D01*
X276197D02*
Y123441D01*
X285803D01*
Y118559D02*
Y123441D01*
X276197Y113559D02*
X285803D01*
X276197D02*
Y118441D01*
X285803D01*
Y113559D02*
Y118441D01*
X240059Y109197D02*
Y118803D01*
X244941D01*
Y109197D02*
Y118803D01*
X240059Y109197D02*
X244941D01*
X299441Y159697D02*
Y169303D01*
X294559Y159697D02*
X299441D01*
X294559D02*
Y169303D01*
X299441D01*
X230197Y118441D02*
X239803D01*
Y113559D02*
Y118441D01*
X230197Y113559D02*
X239803D01*
X230197D02*
Y118441D01*
Y123441D02*
X239803D01*
Y118559D02*
Y123441D01*
X230197Y118559D02*
X239803D01*
X230197D02*
Y123441D01*
X228559Y126697D02*
Y136303D01*
X233441D01*
Y126697D02*
Y136303D01*
X228559Y126697D02*
X233441D01*
X223559D02*
Y136303D01*
X228441D01*
Y126697D02*
Y136303D01*
X223559Y126697D02*
X228441D01*
X354000Y88000D02*
Y92000D01*
X346000Y88000D02*
X354000D01*
X346000D02*
Y92000D01*
X354000D01*
X376000Y48000D02*
Y52000D01*
X384000D01*
Y48000D02*
Y52000D01*
X376000Y48000D02*
X384000D01*
X342000Y82000D02*
Y86000D01*
X334000Y82000D02*
X342000D01*
X334000D02*
Y86000D01*
X342000D01*
X376000Y38000D02*
Y42000D01*
X384000D01*
Y38000D02*
Y42000D01*
X376000Y38000D02*
X384000D01*
X342717Y73110D02*
Y86890D01*
Y73110D02*
X357283D01*
Y86890D01*
X342717D02*
X357283D01*
X233197Y101441D02*
X242803D01*
Y96559D02*
Y101441D01*
X233197Y96559D02*
X242803D01*
X233197D02*
Y101441D01*
X342000Y78000D02*
Y82000D01*
X334000Y78000D02*
X342000D01*
X334000D02*
Y82000D01*
X342000D01*
X204031Y113000D02*
Y117000D01*
X212032D01*
Y113000D02*
Y117000D01*
X204031Y113000D02*
X212032D01*
X194000Y110000D02*
Y114000D01*
X202000D01*
Y110000D02*
Y114000D01*
X194000Y110000D02*
X202000D01*
X232941Y86197D02*
Y95803D01*
X228059Y86197D02*
X232941D01*
X228059D02*
Y95803D01*
X232941D01*
X194000Y106000D02*
Y110000D01*
X202000D01*
Y106000D02*
Y110000D01*
X194000Y106000D02*
X202000D01*
X113906Y38047D02*
Y43953D01*
X102094D02*
X113906D01*
X102094Y38047D02*
Y43953D01*
Y38047D02*
X113906D01*
X260595Y23047D02*
Y28953D01*
Y23047D02*
X272406D01*
Y28953D01*
X260595D02*
X272406D01*
X194000Y100000D02*
Y104000D01*
X202000D01*
Y100000D02*
Y104000D01*
X194000Y100000D02*
X202000D01*
X203197Y105559D02*
X212803D01*
X203197D02*
Y110441D01*
X212803D01*
Y105559D02*
Y110441D01*
X194000Y96000D02*
Y100000D01*
X202000D01*
Y96000D02*
Y100000D01*
X194000Y96000D02*
X202000D01*
X286500Y88500D02*
X290500D01*
X286500D02*
Y96500D01*
X290500D01*
Y88500D02*
Y96500D01*
Y88500D02*
X294500D01*
X290500D02*
Y96500D01*
X294500D01*
Y88500D02*
Y96500D01*
X109197Y44059D02*
X118803D01*
X109197D02*
Y48941D01*
X118803D01*
Y44059D02*
Y48941D01*
X260697Y34441D02*
X270303D01*
Y29559D02*
Y34441D01*
X260697Y29559D02*
X270303D01*
X260697D02*
Y34441D01*
X194000Y90000D02*
Y94000D01*
X202000D01*
Y90000D02*
Y94000D01*
X194000Y90000D02*
X202000D01*
X203197Y95559D02*
X212803D01*
X203197D02*
Y100441D01*
X212803D01*
Y95559D02*
Y100441D01*
X125110Y38047D02*
Y43953D01*
X113890D02*
X125110D01*
X113890Y38047D02*
Y43953D01*
Y38047D02*
X125110D01*
X254547Y34610D02*
X260453D01*
X254547Y23390D02*
Y34610D01*
Y23390D02*
X260453D01*
Y34610D01*
X194000Y86000D02*
Y90000D01*
X202000D01*
Y86000D02*
Y90000D01*
X194000Y86000D02*
X202000D01*
X194000Y80000D02*
Y84000D01*
X202000D01*
Y80000D02*
Y84000D01*
X194000Y80000D02*
X202000D01*
X203197Y85559D02*
X212803D01*
X203197D02*
Y90441D01*
X212803D01*
Y85559D02*
Y90441D01*
X130110Y44047D02*
Y49953D01*
X118890D02*
X130110D01*
X118890Y44047D02*
Y49953D01*
Y44047D02*
X130110D01*
X194000Y76000D02*
Y80000D01*
X202000D01*
Y76000D02*
Y80000D01*
X194000Y76000D02*
X202000D01*
X248547Y40610D02*
X254453D01*
X248547Y29390D02*
Y40610D01*
Y29390D02*
X254453D01*
Y40610D01*
X194000Y70000D02*
Y74000D01*
X202000D01*
Y70000D02*
Y74000D01*
X194000Y70000D02*
X202000D01*
X203197Y75559D02*
X212803D01*
X203197D02*
Y80441D01*
X212803D01*
Y75559D02*
Y80441D01*
X194000Y66000D02*
Y70000D01*
X202000D01*
Y66000D02*
Y70000D01*
X194000Y66000D02*
X202000D01*
X194000Y60000D02*
Y64000D01*
X202000D01*
Y60000D02*
Y64000D01*
X194000Y60000D02*
X202000D01*
X203197Y65559D02*
X212803D01*
X203197D02*
Y70441D01*
X212803D01*
Y65559D02*
Y70441D01*
X194000Y56000D02*
Y60000D01*
X202000D01*
Y56000D02*
Y60000D01*
X194000Y56000D02*
X202000D01*
X273197Y38559D02*
X282803D01*
X273197D02*
Y43441D01*
X282803D01*
Y38559D02*
Y43441D01*
X273197Y33559D02*
X282803D01*
X273197D02*
Y38441D01*
X282803D01*
Y33559D02*
Y38441D01*
X299441Y79697D02*
Y89303D01*
X294559Y79697D02*
X299441D01*
X294559D02*
Y89303D01*
X299441D01*
X243059Y33697D02*
Y43303D01*
X247941D01*
Y33697D02*
Y43303D01*
X243059Y33697D02*
X247941D01*
X233197Y38441D02*
X242803D01*
Y33559D02*
Y38441D01*
X233197Y33559D02*
X242803D01*
X233197D02*
Y38441D01*
Y43441D02*
X242803D01*
Y38559D02*
Y43441D01*
X233197Y38559D02*
X242803D01*
X233197D02*
Y43441D01*
X228559Y47197D02*
Y56803D01*
X233441D01*
Y47197D02*
Y56803D01*
X228559Y47197D02*
X233441D01*
X203197Y55559D02*
X212803D01*
X203197D02*
Y60441D01*
X212803D01*
Y55559D02*
Y60441D01*
M02*
