G04*
G04 #@! TF.GenerationSoftware,Altium Limited,Altium Designer,21.6.4 (81)*
G04*
G04 Layer_Color=16711935*
%FSLAX25Y25*%
%MOIN*%
G70*
G04*
G04 #@! TF.SameCoordinates,D21CAB57-D7DD-4798-A039-69392B5906F0*
G04*
G04*
G04 #@! TF.FilePolarity,Positive*
G04*
G01*
G75*
%ADD14C,0.01000*%
D14*
X32500Y180000D02*
X32436Y180979D01*
X32245Y181941D01*
X31929Y182870D01*
X31495Y183750D01*
X30950Y184566D01*
X30303Y185303D01*
X29566Y185950D01*
X28750Y186495D01*
X27870Y186929D01*
X26941Y187244D01*
X25979Y187436D01*
X25000Y187500D01*
Y32500D02*
X25979Y32564D01*
X26941Y32756D01*
X27870Y33071D01*
X28750Y33505D01*
X29566Y34050D01*
X30303Y34697D01*
X30950Y35434D01*
X31495Y36250D01*
X31929Y37130D01*
X32244Y38059D01*
X32436Y39021D01*
X32500Y40000D01*
X390000Y205000D02*
X389968Y205981D01*
X389872Y206958D01*
X389712Y207926D01*
X389489Y208882D01*
X389204Y209822D01*
X388858Y210740D01*
X388453Y211634D01*
X387990Y212500D01*
X387472Y213334D01*
X386900Y214131D01*
X386278Y214890D01*
X385607Y215606D01*
X384890Y216278D01*
X384131Y216900D01*
X383334Y217472D01*
X382500Y217990D01*
X381634Y218453D01*
X380740Y218858D01*
X379822Y219204D01*
X378882Y219489D01*
X377926Y219712D01*
X376958Y219872D01*
X375981Y219968D01*
X375000Y220000D01*
X-0Y15000D02*
X32Y14019D01*
X128Y13042D01*
X288Y12074D01*
X511Y11118D01*
X796Y10178D01*
X1142Y9260D01*
X1547Y8366D01*
X2010Y7500D01*
X2528Y6666D01*
X3100Y5869D01*
X3722Y5110D01*
X4393Y4393D01*
X5110Y3722D01*
X5869Y3100D01*
X6666Y2528D01*
X7500Y2010D01*
X8366Y1547D01*
X9260Y1142D01*
X10178Y796D01*
X11118Y511D01*
X12074Y288D01*
X13042Y128D01*
X14019Y32D01*
X15000Y-0D01*
Y220000D02*
X14019Y219968D01*
X13042Y219872D01*
X12074Y219712D01*
X11118Y219489D01*
X10178Y219204D01*
X9260Y218858D01*
X8366Y218453D01*
X7500Y217990D01*
X6667Y217472D01*
X5869Y216900D01*
X5110Y216278D01*
X4393Y215606D01*
X3722Y214890D01*
X3100Y214131D01*
X2528Y213334D01*
X2010Y212500D01*
X1547Y211634D01*
X1142Y210740D01*
X796Y209822D01*
X511Y208882D01*
X288Y207926D01*
X128Y206958D01*
X32Y205981D01*
X0Y205000D01*
X375000Y-0D02*
X375981Y32D01*
X376958Y128D01*
X377926Y288D01*
X378882Y511D01*
X379822Y796D01*
X380740Y1142D01*
X381634Y1547D01*
X382500Y2010D01*
X383334Y2528D01*
X384131Y3100D01*
X384890Y3722D01*
X385607Y4393D01*
X386278Y5110D01*
X386900Y5869D01*
X387472Y6666D01*
X387990Y7500D01*
X388453Y8366D01*
X388858Y9260D01*
X389204Y10178D01*
X389489Y11118D01*
X389712Y12074D01*
X389872Y13042D01*
X389968Y14019D01*
X390000Y15000D01*
X0D02*
Y32500D01*
X0Y32500D02*
X0Y32500D01*
X0Y32500D02*
X25000D01*
X32500Y40000D02*
Y180000D01*
X0Y187500D02*
X25000D01*
X32500Y165000D02*
X32500Y165000D01*
X0Y187500D02*
Y205000D01*
X265000Y220000D02*
X375000D01*
X125000D02*
X265000D01*
X125000Y220000D02*
X125000Y220000D01*
X15000Y220000D02*
X125000D01*
X390000Y15000D02*
Y205000D01*
X15000Y-0D02*
X375000D01*
M02*
