M48
;Layer_Color=9474304
;FILE_FORMAT=2:4
INCH,TZ
;TYPE=PLATED
T1F00S00C0.0118
T2F00S00C0.0177
T3F00S00C0.0303
T4F00S00C0.0453
T5F00S00C0.1339
%
T01
X24550Y3200
X24350Y5350
X24900
X25600Y5400
X26000
X26600
X28100Y4700
X28450Y4100
Y3600
X28850Y5450
Y5800
X31050Y5250
X32450Y5550
Y4950
X32262Y3700
X31238
X33250Y4000
X34238Y3700
X35262
X35450Y5250
X34050Y5550
Y4950
X33250Y6500
X33200Y8400
X34150Y7600
X34450Y9000
X29700Y9050
X29250Y9750
X28850
X27950Y9800
X27600
X29800Y10550
X30150Y8150
X25500Y8600
X24900
X24600Y9900
X23500Y9450
X29000Y1550
X30000
X29000Y450
X38550Y4000
Y5000
X23100Y4550
X23150Y4100
Y3600
X23100Y5850
X21400Y5800
Y6800
Y7800
Y8800
Y9800
X23050Y9750
X18500Y10536
X18100
Y8706
X18500
Y6450
X18100
X16000Y5450
X15600
Y7450
X16000
Y9450
X15600
X13350Y4700
Y4250
X10500Y4650
X15600Y11450
X16000
Y13450
X15600
Y15450
X16000
Y17450
X14550Y18800
X13850Y19000
X11150Y18950
X18100Y16450
X18500
Y14450
X18100
Y12450
X18500
X21400Y12800
Y13800
X21450Y14800
Y15800
Y16800
X23050Y17750
X23100Y13800
Y12550
X22600
X22850Y12100
Y11600
X21400Y10800
X23800Y11150
X24250Y10800
Y12100
X24800Y13400
X25200
X26000
X27450Y12150
X28750Y12100
Y11600
Y12650
X28850Y13450
Y13800
X29800Y11850
X30100Y16150
X29700Y17050
X29250Y17750
X28850
X27400Y17850
X26450Y17900
X24600
X23550Y17450
X23800Y19050
X33200Y16400
X34150Y15600
X34450Y17000
X35500Y11515
X38500Y13000
T02
X24950Y5950
X25450
X26000
X26550
X27050
Y6450
Y7000
Y7550
Y8050
X26550
X26000
X25450
X24950
Y7550
Y7000
Y6450
Y14450
Y15000
Y15550
Y16050
X25450
X26000
X26550
X27050
Y15550
Y15000
Y14450
Y13950
X26550
X26000
X25450
T03
X31000Y1500
X31500
X32000
X32500
X33000
X33500
X34000
X34500
X35000
X35500
X8000
X7500
X7000
X6500
X6000
X5500
X5000
X4500
X4000
X3500
Y20500
X4000
X4500
X5000
X5500
X6000
X6500
X7000
X7500
X8000
X31000
X31500
X32000
X32500
X33000
X33500
X34000
X34500
X35000
X35500
T04
X5000Y5000
Y6000
Y7000
Y8000
Y9000
Y10000
Y11000
Y12000
Y13000
Y14000
Y15000
Y16000
Y17000
T05
X37500Y1500
X1500
Y20500
X37500
M30
