M48
;Layer_Color=9474304
;FILE_FORMAT=2:4
INCH,TZ
;TYPE=PLATED
T1F00S00C0.0177
T2F00S00C0.0295
T3F00S00C0.1339
%
T01
X750Y3500
X1300
X1850
X750Y4050
Y4600
X3500Y3535
X4600Y3550
X5150
X5700
X6250
X6800
X8200Y650
X9850Y2950
X11200Y3100
X11750Y2400
X12350Y2250
X12850
Y2750
X13100Y700
X14200Y1650
X15050Y1050
X15750
X15300Y2250
X15750Y3350
Y3850
Y4350
X15250
X14750
X14700Y3300
X17150Y2800
X16700Y4350
Y4850
Y5350
X17250
Y4850
X17800
Y4350
X17850Y5350
X19650Y5250
X19850Y4400
X20350Y4600
X20900Y2350
X20200Y1950
X18800
X18850Y950
X20850
X22650Y2150
X24300
X23900Y3500
X24200Y4850
X22500Y3800
X15950Y5600
X15450
X13450Y5250
X11350Y4650
X9900
X17050Y700
X25700Y1400
X26650Y1300
X26600Y500
X27499Y450
X28000
X29000
X29350Y2600
X29900Y2150
X30500Y2400
X31200Y3450
X30450Y4750
X29700Y4550
Y5100
X34400Y5300
Y4800
X37300
X37965Y3926
X26000Y3250
X24600Y4550
X24950Y7200
X27250Y7450
X28000Y8150
X27650Y9000
X28250Y9900
X28600Y11100
X28055Y12540
X28950Y13100
X29750Y11950
X31150Y11350
X32118Y12350
X33200
Y11800
Y11300
X34550Y11350
X35800Y11450
Y13700
Y14500
Y15300
X36600
X37400
X38200
Y14500
X37400
X36600
Y13700
X37400
X38200
X37700Y12366
X37000Y9500
Y9000
X37700Y8700
Y8000
X37965Y7174
X35850Y8000
X34700Y7300
X34200
X33750Y6250
Y5750
X33600Y9350
X34400
X33200Y12900
Y13400
X33800Y14100
X34300
X35000Y13600
X35800Y16950
Y17750
Y18550
X36600
X37400
X38200
Y17750
X37400
X36600
Y16950
X37400
X38200
X34100Y17250
Y17900
X33271
Y17250
X32350Y18000
X31750
X31100
X30500
X30550Y15900
X31100
X31800
X32350
X28700Y16000
Y16600
Y17200
X27300
Y16600
Y16000
X27550Y14500
X28000
X24800Y14800
Y14000
Y13200
X24900Y12150
X25400
Y11500
Y10850
X24900
X25250Y9900
X25400Y16100
X24900
X25400Y16750
Y17400
X24900
X24800Y18450
Y19250
Y20050
X27300Y19907
Y20507
Y19307
X28700
Y19907
Y20507
X29300Y5700
X30400Y6250
X31150Y7450
X24050Y6450
X23650Y6150
X23250Y5850
X22850Y7100
Y8500
X22250Y9700
X20950Y8800
X19700
X18550Y8650
Y7750
Y6850
X18100
X19560Y6530
X20900Y6600
X15250Y6850
Y7750
Y8650
X15700Y8250
X14490Y8020
X13750Y6900
X11800Y7250
X11850Y6350
X10750Y6150
Y5700
X10300
X9850
X9400
Y6150
Y7050
Y7500
X9850
X10300
X10750
Y7050
Y6600
X11850Y8500
X12350
X11700Y10100
X11681Y11400
X10972Y12429
X9850Y12050
X9450Y11350
X9700Y9600
X9200Y8850
Y8400
X9950Y13550
X10350Y14500
X10850
X11450Y13950
X11700Y16000
Y16600
Y17200
X10300
Y16600
Y16000
Y19307
Y19907
Y20507
X11700
Y19907
Y19307
X14200Y19250
X15000
X15800
Y18450
X15000
X14200
Y20050
X15000
X15800
X15900Y17400
X15400
Y16750
Y16100
X15900
X16400Y16750
Y17400
X17000Y15600
X17600
X17295Y15000
X17000Y14400
X17600
X15800Y14800
X15000
Y14000
X14200
Y14800
Y13200
X15000
X15800
Y14000
X15900Y12150
X16400
Y11500
Y10850
X15900
X15400
Y11500
Y12150
X14102Y11520
Y16770
X21409Y15600
X22009
X21705Y15000
X21409Y14400
X22009
X23200Y14000
X24000
Y13200
X23200
Y14800
X24000
X24400Y16750
Y17400
X24000Y18450
Y19250
X23200
Y18450
Y20050
X24000
X23102Y16770
Y11520
X24400Y11500
Y10850
Y12150
X16900Y8650
X8450Y9950
X6950Y10350
Y11150
X6550Y11900
Y12400
Y12950
Y13500
Y14000
X6400Y14600
X5450Y14150
X5800Y12600
X4900
X3200Y12435
Y12035
Y11635
Y11035
Y10635
Y10235
Y9635
Y9235
Y8835
X5076Y8950
X5250Y10100
X5800Y10050
X6250Y8150
X6750
X7100Y8400
Y8900
X6750Y5700
X6200
X5650
Y6350
X4000Y6250
X3500
X3000
X2500
Y5750
X3000
X3500
X4000
X4300Y7350
X750Y7500
Y8000
Y7000
X1000Y8800
Y9200
Y9600
Y10200
Y10600
Y11000
Y11700
Y12100
Y12500
X750Y13700
X1550
X2350
X3150
Y14500
X2350
X1550
X750
Y15300
X1550
X2350
X3150
X3200Y16950
X2400
X1600
X800
Y17750
X1600
X2400
X3200
Y18550
X2400
X1600
X800
X4871Y17900
Y17250
X5700
Y17900
X6550Y18000
X7150
X7800
X8400
Y15900
X7800
X7150
X6550
X7631Y12950
T02
X3500Y1500
X4000
X4500
X5000
X5500
X6000
X6500
X7000
X7500
X8000
X31000
X31500
X32000
X32500
X33000
X33500
X34000
X34500
X35000
X35500
Y20500
X35000
X34500
X34000
X33500
X33000
X32500
X32000
X31500
X31000
X8000
X7500
X7000
X6500
X6000
X5500
X5000
X4500
X4000
X3500
T03
X1500Y1500
X37500
Y20500
X1500
M30
