M48
;Layer_Color=9474304
;FILE_FORMAT=2:4
INCH,TZ
;TYPE=PLATED
T1F00S00C0.0118
T2F00S00C0.0177
T3F00S00C0.0260
T4F00S00C0.1339
%
T01
X3339Y630
X4520
X5701
X8063
X8600Y2600
X8900Y3100
X8950Y1600
Y400
X10100Y600
X11500Y550
X11400Y1000
X11200Y1650
X11214Y2120
X10900Y2000
Y1378
X12043Y1532
X11965Y2264
Y3000
X12787Y2992
X12550Y2650
X12750Y1850
X12649Y1115
X13386
X14122
X14858
X15594
X16330
X17188Y347
X17708Y868
X17885Y2607
X17450Y2800
X17300Y3400
X17890Y3343
X18365Y3906
X18550Y4900
X19407Y4947
X19976Y5413
X20712Y5415
X21449
X22185
X22921
X23657
X23075Y4485
X23000Y4150
X22339Y4485
X21050Y4112
Y3088
X20600Y2650
X19100
X19099Y3324
X18747Y1911
X21646Y1811
X22827
X23312Y2700
X23000Y3050
X20140Y4365
X17700Y4750
Y5250
X16331Y5354
X15150
X13968
X11400Y3800
X11350Y3400
X11100Y3116
X11000Y2700
X10450Y2600
X24788Y2700
X25250Y3288
Y4312
X26450Y4700
X25950Y5400
X27100Y5300
X28300Y4412
X29913Y4173
X30504Y5354
X29323
X31238Y3650
X32262
X34238
X35262
X35250Y4400
X35100Y4900
X34650Y5050
X36300Y4900
X37000Y4173
X38181
X38169Y5102
X37591Y2992
X36409
X35228Y630
X34047
X32866
X31685
X32900Y5600
X25189Y1811
X25341Y6816
X25861Y7336
X25950Y8150
X26785Y8473
Y9209
X26370Y8898
X26785Y9945
X27042Y10635
X26350Y10750
X28100Y10720
X28150Y11650
X27700Y12650
X27850Y13100
X27250Y13450
X27500Y13850
Y14250
X28250Y14600
Y15000
X28082Y15585
X28165Y16161
X28143Y16897
X27640Y17435
X26366Y17425
X25780Y17165
X25754Y17835
X25018
X24598Y17165
X25189Y15984
X26370
X27235Y16256
X26887Y16905
X27112Y19450
X26088
X25922Y18765
X25186
X26370Y20709
X27551
X29913
X29650Y19750
X28732Y18346
X28400Y18400
X30050Y17600
X30800
X31117Y17250
X30450Y17150
X30050Y16850
Y16100
X30000Y15500
X30400
X31050Y15700
Y15050
X32650Y15000
Y15976
X33050Y16100
X33700
X33600Y15350
X33050Y16850
Y17600
X32300
X31550
X31983Y15850
X29500Y15400
X29100Y15400
X28845Y15880
X28550Y14300
X30300Y13550
X30550Y13200
X30589Y12447
X30189
X30050Y11950
X29700Y11600
X30400
Y11200
Y10800
Y10400
X31800Y10550
X32050Y11705
X32600
X32050Y12295
X32250Y13100
X32650
X33750Y12393
X34550Y12062
Y11038
Y10320
X34050Y10450
X34450Y9300
X34850Y8550
X35400Y9750
X35900Y10320
X35847Y12780
X34550Y13350
Y13950
X36600Y14550
Y16400
X38400Y15700
Y15200
X38683Y17100
Y17750
Y18400
Y18950
X35228Y19528
X34047
X34000Y18000
X34400
X34638Y18346
X33700Y17400
X31300Y13600
X30889Y12747
X29500Y12100
X29400Y11200
X28900Y9450
Y9000
Y8550
Y8100
Y7650
X28150Y7600
X28700Y6950
X29900Y7400
X29950Y7950
X30250Y8250
X30550Y8550
X30850Y8850
X31350Y9050
X32345Y8700
X32429Y8279
X32800Y8250
X33199Y8250
X33150Y8650
X33200Y9100
X32135Y8115
X33200Y5900
X34600Y5838
Y6862
X36200Y8000
X38167Y7655
X38169Y6123
X27150Y6550
X27715Y9274
X28100Y9550
X27000Y12650
X26600Y13650
X26100
X22700Y12950
X22350
X22000
X21650
Y11950
X21300
X20849
X20500
Y11600
X20150
X19800
Y11950
X19451
X19000
X18650
X18300
Y12950
X17950
X17600
X18650
X19700Y13250
X19800Y12300
X20150
X20500
X20150Y11950
X20000Y10550
X20650
Y9900
X21000
X20300
X19283Y8898
X18102
X18693Y7717
X19200Y7050
X18102Y6535
X16921
X17512Y7717
X17600Y10950
X17950
X18350
X18700
X16921Y11260
X15150Y10079
X13968
X12787
X11606
X10425
X9850Y11927
Y12254
Y14927
Y15254
X8900Y18100
X10400Y19400
X10800Y19450
X10888Y20000
Y20600
X11250
X11150Y21000
X11600Y20400
X11700Y19850
X12315Y20199
Y19463
X11859Y18884
X11250Y18900
X12868Y20685
X13604
X14340
X15077
X15813
X16549
X17285
X18021
X18758
X19471Y20504
X19050Y19900
X18550Y19400
X18150
X17750Y20150
X17200Y18650
X18800Y18550
X19992Y19983
X20512Y19463
X21033Y18942
X21554Y18422
X22077Y17903
X22810Y17835
X22977Y18765
X22850Y19200
X22282Y19008
X22236Y19528
X21761Y19529
X21241Y20050
X20720Y20570
X20200Y21091
X20150Y17050
X19283Y15984
X18102
X16921
X17150Y16850
X17512Y17165
X15740Y15984
X15650Y18900
X14500Y18450
X14450Y19450
X13450Y17678
X13400Y17000
X18693Y14803
X19874
X21055
X21150Y15300
X22400
X22236Y17165
X23350Y17250
X24282Y17835
X24449Y18765
X24385Y19300
X24008Y15984
X22350Y11950
X22000
Y10950
X22350
X22700
X21650
X22726Y9142
X23100Y8158
X24300Y5774
X8350Y6746
Y7073
X6882Y7717
X5701
X3339
X3100Y5800
X2700
X2300
X1900
X1500
X1100
X1567Y11260
X2748
X2700Y16200
X2300
X1900
X1500
X1100
X3100
X5701Y14803
X6882
X7472Y13622
X6882Y12441
Y10079
X8350Y10073
Y9746
X7472Y8898
X8063Y19528
X8600Y19400
X10100Y21400
X12300Y21615
X13036
X13772
X14509
X15245
X15981
X16717
X17454
X18190
X18926
X19662Y21593
X28350Y21300
T02
X600Y3400
Y4200
Y5000
X1400
X2200
X3000
Y4200
X2200
X1400
Y3400
X2200
X3000
X4400Y3300
X4900
X5400
X5900
X6400
X6300Y5300
X5100
X11000Y5200
Y4600
X12050
Y5200
X13850Y4400
Y3600
X15000Y3836
X15550Y3850
X16100
X16850Y5300
X16400Y1800
X26000Y2700
X29150
X29750Y3650
X30300
X27359Y10141
X28057Y11200
X25400Y11400
Y10750
X24500Y11400
Y12103
X25700
X25550Y14050
X24500Y13800
X23500Y14050
X22665
X21850
X21200Y17250
X17750Y14650
X15100Y15600
X14500
X13900
X12050
Y16200
Y16800
Y17400
X11000
Y16800
Y16200
Y15600
X10850Y14200
X11500Y12400
X12100
X12700
X13300
X13900
X14500
X15100
X16750Y11950
X15850Y11000
X16750Y10050
X17750Y9250
X15100Y9600
X14500
X13900
X13300
X12700
X12100
X11500
X10850Y7800
X11000Y6400
Y5800
X12050
Y6400
X13900
X14500
X15100
X21650
X22400Y6500
X23000
Y7550
X22400
X22100Y8800
X21500
Y9900
X22100
X23594Y10749
Y11400
X24150Y6400
X16750Y18900
X16200
X6400Y18700
X5900
X5400
X4900
X4400
X3000Y18600
X2200
X1400
X600
Y17800
X1400
X2200
X3000
Y17000
X2200
X1400
X600
Y13600
X1400
X2200
X3000
Y12800
X2200
X1400
X600
Y12000
X1400
X2200
X3000
Y10000
Y9200
Y8400
X2200
X1400
X600
Y9200
X1400
X2200
Y10000
X1400
X600
X5100Y9800
Y9200
Y8600
X6300
Y9200
Y9800
Y12200
Y12800
Y13400
X5100
Y12800
Y12200
Y15400
Y16000
Y16700
X6300
Y16000
Y15400
Y6600
Y5900
X5100
Y6600
T03
X3501Y1502
X4002
X4502
X5002
X5501
X6001
X6502
X7002
X7502
X8001
X31002
X31502
X32002
X32501
X33001
X33502
X34002
X34502
X35001
X35501
Y20501
X35001
X34502
X34002
X33502
X33001
X32501
X32002
X31502
X31002
X8001
X7502
X7002
X6502
X6001
X5501
X5002
X4502
X4002
X3501
T04
X1500Y1500
X37500
Y20500
X1500
M30
