G04*
G04 #@! TF.GenerationSoftware,Altium Limited,Altium Designer,21.6.4 (81)*
G04*
G04 Layer_Color=8421504*
%FSLAX25Y25*%
%MOIN*%
G70*
G04*
G04 #@! TF.SameCoordinates,FA744667-6012-4636-895A-91306D9B36BD*
G04*
G04*
G04 #@! TF.FilePolarity,Positive*
G04*
G01*
G75*
%ADD16R,0.03543X0.03150*%
%ADD17R,0.07165X0.04134*%
%ADD18R,0.04134X0.07165*%
%ADD19R,0.10709X0.04961*%
%ADD20R,0.04331X0.05512*%
%ADD21R,0.30709X0.05512*%
%ADD22R,0.11221X0.02559*%
%ADD23R,0.02362X0.04528*%
%ADD24R,0.08661X0.06299*%
%ADD25R,0.07087X0.02756*%
%ADD26R,0.04528X0.02362*%
%ADD27R,0.04528X0.04134*%
%ADD28R,0.02756X0.07087*%
%ADD29R,0.06299X0.08661*%
%ADD30R,0.03150X0.03543*%
%ADD31R,0.05512X0.04528*%
%ADD32R,0.03937X0.03347*%
%ADD33R,0.04134X0.02362*%
%ADD34R,0.04134X0.01968*%
%ADD35R,0.01968X0.04134*%
%ADD36R,0.03701X0.02126*%
%ADD37R,0.06614X0.07402*%
%ADD38R,0.05610X0.01772*%
%ADD39R,0.05787X0.04016*%
%ADD40R,0.03347X0.03937*%
%ADD41R,0.02559X0.02441*%
%ADD42R,0.01173X0.05807*%
%ADD43R,0.02126X0.03701*%
%ADD44R,0.04134X0.05906*%
%ADD45R,0.09843X0.09843*%
%ADD46R,0.01968X0.05512*%
%ADD47R,0.01378X0.02756*%
%ADD48R,0.04961X0.04606*%
%ADD49R,0.03543X0.07480*%
%ADD50R,0.12598X0.07480*%
%ADD51R,0.02756X0.02362*%
%ADD52R,0.03543X0.03937*%
%ADD53R,0.08465X0.16929*%
%ADD54R,0.04961X0.10709*%
%ADD55R,0.05807X0.01772*%
%ADD56R,0.48504X0.15059*%
%ADD57R,0.01004X0.01260*%
%ADD58R,0.15394X0.15000*%
%ADD59R,0.02402X0.02795*%
%ADD60R,0.02402X0.05000*%
%ADD61R,0.04606X0.04961*%
%ADD62R,0.02362X0.02756*%
%ADD63R,0.03150X0.03150*%
%ADD64R,0.09843X0.08661*%
%ADD65R,0.02362X0.04724*%
%ADD66R,0.05807X0.01173*%
%ADD67R,0.02441X0.02559*%
%ADD68R,0.03937X0.06299*%
%ADD69R,0.01575X0.05315*%
%ADD70R,0.06299X0.05512*%
%ADD71R,0.09055X0.05118*%
%ADD72R,0.07087X0.07480*%
%ADD73R,0.04331X0.02559*%
G04:AMPARAMS|DCode=74|XSize=314.96mil|YSize=236.22mil|CornerRadius=11.81mil|HoleSize=0mil|Usage=FLASHONLY|Rotation=0.000|XOffset=0mil|YOffset=0mil|HoleType=Round|Shape=RoundedRectangle|*
%AMROUNDEDRECTD74*
21,1,0.31496,0.21260,0,0,0.0*
21,1,0.29134,0.23622,0,0,0.0*
1,1,0.02362,0.14567,-0.10630*
1,1,0.02362,-0.14567,-0.10630*
1,1,0.02362,-0.14567,0.10630*
1,1,0.02362,0.14567,0.10630*
%
%ADD74ROUNDEDRECTD74*%
D16*
X175937Y177260D02*
D03*
Y184740D02*
D03*
X168063Y181000D02*
D03*
X169437Y26760D02*
D03*
Y34240D02*
D03*
X161563Y30500D02*
D03*
D17*
X263500Y131972D02*
D03*
Y121028D02*
D03*
D18*
X250472Y140500D02*
D03*
X239528D02*
D03*
D19*
X227000Y64764D02*
D03*
Y75236D02*
D03*
X218000Y98736D02*
D03*
Y88264D02*
D03*
X222500Y133736D02*
D03*
Y123264D02*
D03*
X180500Y115736D02*
D03*
Y105264D02*
D03*
Y123264D02*
D03*
Y133736D02*
D03*
X222500Y115736D02*
D03*
Y105264D02*
D03*
X15000Y157236D02*
D03*
Y146764D02*
D03*
X27000Y157236D02*
D03*
Y146764D02*
D03*
X15000Y62764D02*
D03*
Y73236D02*
D03*
X27000D02*
D03*
Y62764D02*
D03*
D20*
X73831Y193268D02*
D03*
Y176732D02*
D03*
Y26732D02*
D03*
Y43268D02*
D03*
D21*
X51980Y193268D02*
D03*
Y176732D02*
D03*
Y26732D02*
D03*
Y43268D02*
D03*
D22*
X381579Y53720D02*
D03*
X368390D02*
D03*
X381579Y58720D02*
D03*
X368390D02*
D03*
X381579Y63721D02*
D03*
X368390D02*
D03*
X381579Y68721D02*
D03*
X368390D02*
D03*
X381579Y73721D02*
D03*
X368390D02*
D03*
D23*
X279260Y33882D02*
D03*
X283000D02*
D03*
X286740D02*
D03*
Y44118D02*
D03*
X283000D02*
D03*
X279260D02*
D03*
X342260Y68618D02*
D03*
X346000D02*
D03*
X349740D02*
D03*
Y58382D02*
D03*
X346000D02*
D03*
X342260D02*
D03*
X349240Y110382D02*
D03*
X345500D02*
D03*
X341760D02*
D03*
Y120618D02*
D03*
X345500D02*
D03*
X349240D02*
D03*
X256240Y43118D02*
D03*
X252500D02*
D03*
X248760D02*
D03*
Y32882D02*
D03*
X252500D02*
D03*
X256240D02*
D03*
X214240Y41118D02*
D03*
X210500D02*
D03*
X206760D02*
D03*
Y30882D02*
D03*
X210500D02*
D03*
X214240D02*
D03*
D24*
X378500Y94339D02*
D03*
Y136661D02*
D03*
D25*
X365508Y103197D02*
D03*
Y108118D02*
D03*
Y117961D02*
D03*
Y122882D02*
D03*
Y127803D02*
D03*
Y113039D02*
D03*
D26*
X322618Y40240D02*
D03*
Y36500D02*
D03*
Y32760D02*
D03*
X312382D02*
D03*
Y36500D02*
D03*
Y40240D02*
D03*
X352618D02*
D03*
Y36500D02*
D03*
Y32760D02*
D03*
X342382D02*
D03*
Y36500D02*
D03*
Y40240D02*
D03*
X271118Y198240D02*
D03*
Y194500D02*
D03*
Y190760D02*
D03*
X260882D02*
D03*
Y194500D02*
D03*
Y198240D02*
D03*
D27*
X357594Y85854D02*
D03*
Y80146D02*
D03*
X344406D02*
D03*
Y85854D02*
D03*
D28*
X233118Y21342D02*
D03*
X238039D02*
D03*
X242961D02*
D03*
X247882D02*
D03*
X228618Y198658D02*
D03*
X233539D02*
D03*
X238461D02*
D03*
X243382D02*
D03*
X191118Y21342D02*
D03*
X196039D02*
D03*
X200961D02*
D03*
X205882D02*
D03*
D29*
X256740Y8350D02*
D03*
X224260D02*
D03*
X252240Y211650D02*
D03*
X219760D02*
D03*
X214740Y8350D02*
D03*
X182260D02*
D03*
D30*
X153740Y33437D02*
D03*
X146260D02*
D03*
X150000Y25563D02*
D03*
X156500Y176063D02*
D03*
X152760Y183937D02*
D03*
X160240D02*
D03*
D31*
X319831Y162350D02*
D03*
X311169D02*
D03*
Y168650D02*
D03*
X319831D02*
D03*
D32*
X199000Y178047D02*
D03*
Y183953D02*
D03*
X303000Y31953D02*
D03*
Y26047D02*
D03*
X236000Y73453D02*
D03*
Y67547D02*
D03*
X241000Y84953D02*
D03*
Y79047D02*
D03*
X357500Y139547D02*
D03*
Y145453D02*
D03*
X351500Y139547D02*
D03*
Y145453D02*
D03*
X233500Y177047D02*
D03*
Y182953D02*
D03*
X283500Y209453D02*
D03*
Y203547D02*
D03*
X277500Y195953D02*
D03*
Y190047D02*
D03*
D33*
X184045Y180737D02*
D03*
X192707Y184477D02*
D03*
Y176997D02*
D03*
X195831Y62760D02*
D03*
Y70240D02*
D03*
X187169Y66500D02*
D03*
X279831Y176760D02*
D03*
Y184240D02*
D03*
X271169Y180500D02*
D03*
X292331Y190260D02*
D03*
Y197740D02*
D03*
X283669Y194000D02*
D03*
D34*
X138520Y18000D02*
D03*
X147480D02*
D03*
X264520Y27000D02*
D03*
X273480D02*
D03*
X153980Y168500D02*
D03*
X145020D02*
D03*
D35*
X131500Y31020D02*
D03*
Y39980D02*
D03*
Y16020D02*
D03*
Y24980D02*
D03*
X131000Y190480D02*
D03*
Y181520D02*
D03*
X124500Y39980D02*
D03*
Y31020D02*
D03*
X138000Y175480D02*
D03*
Y166520D02*
D03*
Y190480D02*
D03*
Y181520D02*
D03*
D36*
X143500Y47150D02*
D03*
Y40850D02*
D03*
X173500Y53150D02*
D03*
Y46850D02*
D03*
X297500Y25850D02*
D03*
Y32150D02*
D03*
X337000Y171150D02*
D03*
Y164850D02*
D03*
X277000Y116850D02*
D03*
Y123150D02*
D03*
X341500Y133350D02*
D03*
Y139650D02*
D03*
X263500Y116650D02*
D03*
Y110350D02*
D03*
X281000Y104650D02*
D03*
Y98350D02*
D03*
X270000Y123150D02*
D03*
Y116850D02*
D03*
X89500Y13150D02*
D03*
Y6850D02*
D03*
X150000Y197650D02*
D03*
Y191350D02*
D03*
X241500Y74150D02*
D03*
Y67850D02*
D03*
X326500Y162350D02*
D03*
Y168650D02*
D03*
X304500Y162350D02*
D03*
Y168650D02*
D03*
D37*
X158500Y45500D02*
D03*
X165000Y196000D02*
D03*
D38*
X149791Y41661D02*
D03*
Y44221D02*
D03*
Y46780D02*
D03*
Y49339D02*
D03*
X167209D02*
D03*
Y46780D02*
D03*
Y44221D02*
D03*
Y41661D02*
D03*
X173709Y192161D02*
D03*
Y194720D02*
D03*
Y197280D02*
D03*
Y199839D02*
D03*
X156291D02*
D03*
Y197280D02*
D03*
Y194720D02*
D03*
Y192161D02*
D03*
D39*
X138500Y24850D02*
D03*
Y31150D02*
D03*
X145000Y181150D02*
D03*
Y174850D02*
D03*
D40*
X154047Y18000D02*
D03*
X159953D02*
D03*
X202953Y137000D02*
D03*
X197047D02*
D03*
X213953D02*
D03*
X208047D02*
D03*
X372453Y171000D02*
D03*
X366547D02*
D03*
X372453Y177500D02*
D03*
X366547D02*
D03*
X372453Y184000D02*
D03*
X366547D02*
D03*
X372453Y190000D02*
D03*
X366547D02*
D03*
X228047Y98000D02*
D03*
X233953D02*
D03*
X353953Y93000D02*
D03*
X348047D02*
D03*
X189953Y170500D02*
D03*
X184047D02*
D03*
X207453Y66500D02*
D03*
X201547D02*
D03*
X207453Y60500D02*
D03*
X201547D02*
D03*
X291453Y176500D02*
D03*
X285547D02*
D03*
X220547Y30500D02*
D03*
X226453D02*
D03*
X220547Y41500D02*
D03*
X226453D02*
D03*
X165953Y168500D02*
D03*
X160047D02*
D03*
X88047Y200000D02*
D03*
X93953D02*
D03*
X88047Y20000D02*
D03*
X93953D02*
D03*
X99547Y200000D02*
D03*
X105453D02*
D03*
X99547Y20000D02*
D03*
X105453D02*
D03*
D41*
X275268Y134764D02*
D03*
X278732D02*
D03*
X281232Y138500D02*
D03*
X277768D02*
D03*
D42*
X301142Y97409D02*
D03*
X297205D02*
D03*
X299173D02*
D03*
X303110D02*
D03*
X324764D02*
D03*
X322795D02*
D03*
X320827D02*
D03*
X318858D02*
D03*
X316890D02*
D03*
X314921D02*
D03*
X312953D02*
D03*
X310984D02*
D03*
X309016D02*
D03*
X307047D02*
D03*
X305079D02*
D03*
X295236D02*
D03*
Y142591D02*
D03*
X297205D02*
D03*
X299173D02*
D03*
X301142D02*
D03*
X303110D02*
D03*
X305079D02*
D03*
X307047D02*
D03*
X309016D02*
D03*
X310984D02*
D03*
X312953D02*
D03*
X314921D02*
D03*
X316890D02*
D03*
X318858D02*
D03*
X320827D02*
D03*
X322795D02*
D03*
X324764D02*
D03*
D43*
X323350Y91000D02*
D03*
X329650D02*
D03*
X179350Y197500D02*
D03*
X185650D02*
D03*
X207850Y142500D02*
D03*
X214150D02*
D03*
X335650Y150000D02*
D03*
X329350D02*
D03*
X289850Y149000D02*
D03*
X296150D02*
D03*
X117150Y194500D02*
D03*
X110850D02*
D03*
X349182Y103197D02*
D03*
X355481D02*
D03*
X353850Y49000D02*
D03*
X360150D02*
D03*
D44*
X194512Y119500D02*
D03*
X208488D02*
D03*
D45*
X201500D02*
D03*
D46*
X193055Y127374D02*
D03*
X209984D02*
D03*
Y111626D02*
D03*
X193055D02*
D03*
D47*
X196894Y128752D02*
D03*
X199453D02*
D03*
X202012D02*
D03*
X204571D02*
D03*
X207130D02*
D03*
Y110248D02*
D03*
X204571D02*
D03*
X202012D02*
D03*
X199453D02*
D03*
X196894D02*
D03*
D48*
X177496Y141500D02*
D03*
X189504D02*
D03*
X177496Y97500D02*
D03*
X189504D02*
D03*
D49*
X254055Y131508D02*
D03*
X245000D02*
D03*
X235945D02*
D03*
D50*
X245000Y107492D02*
D03*
D51*
X340000Y26969D02*
D03*
Y23031D02*
D03*
X345000Y26969D02*
D03*
Y23031D02*
D03*
X350000Y26969D02*
D03*
Y23031D02*
D03*
X355000Y26969D02*
D03*
Y23031D02*
D03*
X325000Y26969D02*
D03*
Y23031D02*
D03*
X320000Y26969D02*
D03*
Y23031D02*
D03*
X315000Y27000D02*
D03*
Y23063D02*
D03*
X310000Y26969D02*
D03*
Y23031D02*
D03*
X314000Y155968D02*
D03*
Y152032D02*
D03*
X238000Y32969D02*
D03*
Y29032D02*
D03*
X243000Y32969D02*
D03*
Y29032D02*
D03*
X201000Y32969D02*
D03*
Y29032D02*
D03*
X196000Y32969D02*
D03*
Y29032D02*
D03*
D52*
X276650Y112000D02*
D03*
X270350D02*
D03*
D53*
X57000Y127465D02*
D03*
Y160535D02*
D03*
Y92535D02*
D03*
Y59465D02*
D03*
D54*
X105764Y61000D02*
D03*
X116236D02*
D03*
X105764Y49000D02*
D03*
X116236D02*
D03*
X105764Y171000D02*
D03*
X116236D02*
D03*
Y159000D02*
D03*
X105764D02*
D03*
D55*
X106567Y188839D02*
D03*
Y186279D02*
D03*
Y183721D02*
D03*
Y181161D02*
D03*
X83433D02*
D03*
Y183721D02*
D03*
Y186279D02*
D03*
Y188839D02*
D03*
X106567Y38839D02*
D03*
Y36279D02*
D03*
Y33720D02*
D03*
Y31161D02*
D03*
X83433D02*
D03*
Y33720D02*
D03*
Y36279D02*
D03*
Y38839D02*
D03*
D56*
X138000Y78041D02*
D03*
Y141959D02*
D03*
D57*
X82799Y48110D02*
D03*
X99201D02*
D03*
X82799Y171890D02*
D03*
X99201D02*
D03*
Y141890D02*
D03*
X82799D02*
D03*
X99201Y78110D02*
D03*
X82799D02*
D03*
D58*
X91000Y55000D02*
D03*
Y165000D02*
D03*
Y135000D02*
D03*
Y85000D02*
D03*
D59*
X98500Y46102D02*
D03*
X93500D02*
D03*
X88500D02*
D03*
X83500D02*
D03*
X98500Y173898D02*
D03*
X93500D02*
D03*
X88500D02*
D03*
X83500D02*
D03*
Y143898D02*
D03*
X88500D02*
D03*
X93500D02*
D03*
X98500D02*
D03*
X83500Y76102D02*
D03*
X88500D02*
D03*
X93500D02*
D03*
X98500D02*
D03*
D60*
X83500Y68228D02*
D03*
X88500D02*
D03*
X93500D02*
D03*
X98500D02*
D03*
X83500Y151772D02*
D03*
X88500D02*
D03*
X93500D02*
D03*
X98500D02*
D03*
Y121772D02*
D03*
X93500D02*
D03*
X88500D02*
D03*
X83500D02*
D03*
X98500Y98228D02*
D03*
X93500D02*
D03*
X88500D02*
D03*
X83500D02*
D03*
D61*
X216500Y80504D02*
D03*
Y68496D02*
D03*
D62*
X359453Y53720D02*
D03*
X355516D02*
D03*
X359453Y58720D02*
D03*
X355516D02*
D03*
X359453Y63721D02*
D03*
X355516D02*
D03*
X359453Y73721D02*
D03*
X355516D02*
D03*
X354532Y123000D02*
D03*
X358469D02*
D03*
X354532Y118000D02*
D03*
X358469D02*
D03*
X354532Y113000D02*
D03*
X358469D02*
D03*
X354532Y108000D02*
D03*
X358469D02*
D03*
X93000Y194000D02*
D03*
X89063D02*
D03*
X97031Y26000D02*
D03*
X100969D02*
D03*
Y194000D02*
D03*
X97031D02*
D03*
X89031Y26000D02*
D03*
X92968D02*
D03*
D63*
X378047Y171000D02*
D03*
X383953D02*
D03*
X378047Y177500D02*
D03*
X383953D02*
D03*
X378047Y184000D02*
D03*
X383953D02*
D03*
X378047Y190000D02*
D03*
X383953D02*
D03*
D64*
X202500Y92602D02*
D03*
Y80398D02*
D03*
D65*
X227260Y81579D02*
D03*
X231000D02*
D03*
X234740D02*
D03*
Y91421D02*
D03*
X227260D02*
D03*
D66*
X332591Y134764D02*
D03*
Y132795D02*
D03*
Y130827D02*
D03*
Y128858D02*
D03*
Y126890D02*
D03*
Y124921D02*
D03*
Y122953D02*
D03*
Y120984D02*
D03*
Y119016D02*
D03*
Y117047D02*
D03*
Y115079D02*
D03*
Y113110D02*
D03*
Y111142D02*
D03*
Y109173D02*
D03*
Y107205D02*
D03*
Y105236D02*
D03*
X287409D02*
D03*
Y107205D02*
D03*
Y109173D02*
D03*
Y111142D02*
D03*
Y113110D02*
D03*
Y115079D02*
D03*
Y117047D02*
D03*
Y119016D02*
D03*
Y120984D02*
D03*
Y122953D02*
D03*
Y124921D02*
D03*
Y126890D02*
D03*
Y128858D02*
D03*
Y130827D02*
D03*
Y132795D02*
D03*
Y134764D02*
D03*
D67*
X304000Y148768D02*
D03*
Y152232D02*
D03*
X300000Y148768D02*
D03*
Y152232D02*
D03*
D68*
X383890Y161784D02*
D03*
X377000D02*
D03*
X370110D02*
D03*
X383890Y147216D02*
D03*
X377000D02*
D03*
X370110D02*
D03*
D69*
X289118Y16532D02*
D03*
X278882D02*
D03*
X281441D02*
D03*
X284000D02*
D03*
X286559D02*
D03*
D70*
X271402Y15646D02*
D03*
X296598D02*
D03*
D71*
X269236Y6000D02*
D03*
X298764D02*
D03*
D72*
X279472D02*
D03*
X288528D02*
D03*
D73*
X105134Y206221D02*
D03*
Y213779D02*
D03*
X96866Y210000D02*
D03*
X105134Y6221D02*
D03*
Y13780D02*
D03*
X96866Y10000D02*
D03*
D74*
X18000Y42000D02*
D03*
Y92000D02*
D03*
Y128000D02*
D03*
Y178000D02*
D03*
M02*
