G04*
G04 #@! TF.GenerationSoftware,Altium Limited,Altium Designer,21.6.4 (81)*
G04*
G04 Layer_Color=16711935*
%FSLAX25Y25*%
%MOIN*%
G70*
G04*
G04 #@! TF.SameCoordinates,FA744667-6012-4636-895A-91306D9B36BD*
G04*
G04*
G04 #@! TF.FilePolarity,Negative*
G04*
G01*
G75*
G04:AMPARAMS|DCode=129|XSize=318.9mil|YSize=240.16mil|CornerRadius=13.78mil|HoleSize=0mil|Usage=FLASHONLY|Rotation=0.000|XOffset=0mil|YOffset=0mil|HoleType=Round|Shape=RoundedRectangle|*
%AMROUNDEDRECTD129*
21,1,0.31890,0.21260,0,0,0.0*
21,1,0.29134,0.24016,0,0,0.0*
1,1,0.02756,0.14567,-0.10630*
1,1,0.02756,-0.14567,-0.10630*
1,1,0.02756,-0.14567,0.10630*
1,1,0.02756,0.14567,0.10630*
%
%ADD129ROUNDEDRECTD129*%
%ADD131C,0.03740*%
%ADD132R,0.04370X0.04370*%
%ADD133C,0.04370*%
%ADD134C,0.24016*%
G36*
X83303Y62500D02*
X99429D01*
X103284Y66354D01*
X112000D01*
Y43646D01*
X81354D01*
X80295Y44705D01*
X77000Y48000D01*
X69311Y48000D01*
X67335Y46024D01*
Y40512D01*
X36626D01*
Y53374D01*
X33716Y56283D01*
X8000D01*
Y65000D01*
X10929Y67929D01*
X77874D01*
X83303Y62500D01*
D02*
G37*
G36*
X33402Y40598D02*
X38000Y36000D01*
X67335Y36000D01*
Y23976D01*
X26024D01*
X19465Y30535D01*
X2598D01*
Y53465D01*
X33402D01*
Y40598D01*
D02*
G37*
G36*
X67335Y184000D02*
X38000Y184000D01*
X33402Y179402D01*
Y166535D01*
X2598D01*
Y189465D01*
X19465D01*
X26024Y196024D01*
X67335D01*
Y184000D01*
D02*
G37*
G36*
Y173976D02*
X69311Y172000D01*
X77000Y172000D01*
X80295Y175295D01*
X81354Y176354D01*
X112000D01*
Y153646D01*
X103284D01*
X99429Y157500D01*
X83303D01*
X77874Y152071D01*
X10929D01*
X8000Y155000D01*
Y163716D01*
X34217D01*
X36626Y166126D01*
Y179488D01*
X67335D01*
Y173976D01*
D02*
G37*
G36*
X150000Y105000D02*
X40000D01*
Y115000D01*
X150000D01*
Y105000D01*
D02*
G37*
D129*
X18000Y42000D02*
D03*
Y92000D02*
D03*
Y128000D02*
D03*
Y178000D02*
D03*
D131*
X14000Y50000D02*
D03*
X22000D02*
D03*
X30000D02*
D03*
X6000D02*
D03*
Y42000D02*
D03*
X14000D02*
D03*
X22000D02*
D03*
X30000D02*
D03*
Y34000D02*
D03*
X22000D02*
D03*
X14000D02*
D03*
X6000D02*
D03*
Y84000D02*
D03*
X14000D02*
D03*
X22000D02*
D03*
X30000D02*
D03*
Y92000D02*
D03*
X22000D02*
D03*
X14000D02*
D03*
X6000D02*
D03*
Y100000D02*
D03*
X30000D02*
D03*
X22000D02*
D03*
X14000D02*
D03*
Y136000D02*
D03*
X22000D02*
D03*
X30000D02*
D03*
X6000D02*
D03*
Y128000D02*
D03*
X14000D02*
D03*
X22000D02*
D03*
X30000D02*
D03*
Y120000D02*
D03*
X22000D02*
D03*
X14000D02*
D03*
X6000D02*
D03*
X14000Y186000D02*
D03*
X22000D02*
D03*
X30000D02*
D03*
X6000D02*
D03*
Y178000D02*
D03*
X14000D02*
D03*
X22000D02*
D03*
X30000D02*
D03*
Y170000D02*
D03*
X22000D02*
D03*
X14000D02*
D03*
X6000D02*
D03*
D132*
X35015Y205015D02*
D03*
Y15015D02*
D03*
X355015Y205015D02*
D03*
Y15015D02*
D03*
D133*
X40015Y205015D02*
D03*
X45015D02*
D03*
X50015D02*
D03*
X55015D02*
D03*
X60015D02*
D03*
X65015D02*
D03*
X70015D02*
D03*
X75015D02*
D03*
X80015D02*
D03*
Y15015D02*
D03*
X75015D02*
D03*
X70015D02*
D03*
X65015D02*
D03*
X60015D02*
D03*
X55015D02*
D03*
X50015D02*
D03*
X45015D02*
D03*
X40015D02*
D03*
X350015Y205015D02*
D03*
X345015D02*
D03*
X340015D02*
D03*
X335015D02*
D03*
X330015D02*
D03*
X325015D02*
D03*
X320015D02*
D03*
X315015D02*
D03*
X310015D02*
D03*
X350015Y15015D02*
D03*
X345015D02*
D03*
X340015D02*
D03*
X335015D02*
D03*
X330015D02*
D03*
X325015D02*
D03*
X320015D02*
D03*
X315015D02*
D03*
X310015D02*
D03*
D134*
X15000Y15000D02*
D03*
X375000D02*
D03*
X15000Y205000D02*
D03*
X375000D02*
D03*
M02*
