G04*
G04 #@! TF.GenerationSoftware,Altium Limited,Altium Designer,21.6.4 (81)*
G04*
G04 Layer_Physical_Order=3*
G04 Layer_Color=16440176*
%FSLAX25Y25*%
%MOIN*%
G70*
G04*
G04 #@! TF.SameCoordinates,FA744667-6012-4636-895A-91306D9B36BD*
G04*
G04*
G04 #@! TF.FilePolarity,Positive*
G04*
G01*
G75*
%ADD12C,0.00787*%
%ADD130C,0.02362*%
%ADD140C,0.03347*%
%ADD141R,0.03976X0.03976*%
%ADD142C,0.03976*%
%ADD144C,0.02362*%
%ADD145C,0.03347*%
G36*
X70461Y207816D02*
X70015Y207450D01*
X69083Y207265D01*
X68293Y206737D01*
X68105Y206456D01*
X66925D01*
X66737Y206737D01*
X65947Y207265D01*
X65215Y207410D01*
Y205015D01*
Y202620D01*
X65947Y202765D01*
X66737Y203293D01*
X66925Y203574D01*
X68105D01*
X68293Y203293D01*
X69083Y202765D01*
X70015Y202580D01*
X70461Y202214D01*
Y173976D01*
X70461Y173976D01*
X70553Y173515D01*
X70814Y173125D01*
X71205Y172864D01*
X71665Y172772D01*
X76976D01*
X76976Y172772D01*
X77437Y172864D01*
X77828Y173125D01*
X80999Y176296D01*
X107372D01*
X107906Y175296D01*
X107682Y174960D01*
X107491Y174000D01*
X107682Y173040D01*
X108226Y172226D01*
X109040Y171682D01*
X110000Y171491D01*
X110960Y171682D01*
X111774Y172226D01*
X112318Y173040D01*
X112509Y174000D01*
X112318Y174960D01*
X112094Y175296D01*
X112628Y176296D01*
X120000D01*
X120000Y176296D01*
X120461Y176387D01*
X120852Y176648D01*
X121895Y176886D01*
X122224Y176727D01*
X122531Y176666D01*
X122531Y176666D01*
X122895Y175996D01*
X122993Y175739D01*
Y153331D01*
X120940Y151279D01*
X100507D01*
Y152543D01*
X100354Y153311D01*
X99919Y153963D01*
X99268Y154398D01*
X98500Y154550D01*
X97732Y154398D01*
X97081Y153963D01*
X96646Y153311D01*
X96493Y152543D01*
Y149272D01*
X96646Y148504D01*
X97081Y147852D01*
X97732Y147417D01*
X98500Y147265D01*
X109701D01*
X110115Y146265D01*
X108325Y144474D01*
X107540Y144318D01*
X106726Y143774D01*
X106182Y142960D01*
X105991Y142000D01*
X106182Y141040D01*
X106726Y140226D01*
X107540Y139682D01*
X108500Y139491D01*
X109460Y139682D01*
X110274Y140226D01*
X110818Y141040D01*
X110880Y141353D01*
X113115Y143587D01*
X123094D01*
X123862Y143740D01*
X124513Y144175D01*
X129919Y149581D01*
X130354Y150232D01*
X130507Y151000D01*
Y167051D01*
X131431Y167434D01*
X132932Y165933D01*
X133193Y165758D01*
X133500Y165697D01*
X137734Y165697D01*
X137997Y164697D01*
X137581Y164419D01*
X132581Y159419D01*
X132146Y158768D01*
X131993Y158000D01*
Y139831D01*
X127169Y135007D01*
X108957D01*
X108189Y134854D01*
X107537Y134419D01*
X97081Y123962D01*
X96646Y123311D01*
X96493Y122543D01*
Y119272D01*
X96646Y118504D01*
X97081Y117852D01*
X97732Y117417D01*
X98500Y117265D01*
X99268Y117417D01*
X99919Y117852D01*
X100354Y118504D01*
X100507Y119272D01*
Y121712D01*
X109788Y130993D01*
X128000D01*
X128768Y131146D01*
X129419Y131581D01*
X135419Y137581D01*
X135854Y138232D01*
X136007Y139000D01*
Y157169D01*
X139831Y160993D01*
X155500D01*
X156268Y161146D01*
X156919Y161581D01*
X160941Y165603D01*
X161924Y165932D01*
X161924Y165932D01*
X162185Y165758D01*
X162492Y165697D01*
X164383Y165697D01*
X170009Y165697D01*
X170316Y165758D01*
X170577Y165932D01*
X170751Y166193D01*
X170923Y166608D01*
X171500Y166493D01*
X172077Y166608D01*
X172249Y166193D01*
X172423Y165932D01*
X172684Y165758D01*
X172991Y165697D01*
X208197Y165697D01*
Y149964D01*
X208220Y149848D01*
X208232Y149731D01*
X208250Y149696D01*
X208258Y149657D01*
X208324Y149559D01*
X208379Y149455D01*
X208410Y149429D01*
X208432Y149396D01*
X208530Y149331D01*
X208622Y149256D01*
X209121Y148989D01*
X209234Y148954D01*
X209343Y148909D01*
X209383D01*
X209421Y148898D01*
X209539Y148909D01*
X209657D01*
X209693Y148925D01*
X209733Y148928D01*
X209837Y148984D01*
X209946Y149029D01*
X210096Y149129D01*
X210551Y149220D01*
X211006Y149129D01*
X211391Y148872D01*
X211649Y148486D01*
X211739Y148031D01*
X211649Y147577D01*
X211391Y147191D01*
X211006Y146933D01*
X210551Y146843D01*
X210096Y146933D01*
X209946Y147034D01*
X209837Y147079D01*
X209733Y147134D01*
X209693Y147138D01*
X209657Y147154D01*
X209539D01*
X209421Y147165D01*
X209383Y147154D01*
X209343D01*
X209234Y147108D01*
X209121Y147074D01*
X208622Y146807D01*
X208530Y146732D01*
X208432Y146667D01*
X208410Y146634D01*
X208379Y146608D01*
X208324Y146504D01*
X208258Y146406D01*
X208250Y146367D01*
X208232Y146332D01*
X208220Y146214D01*
X208197Y146099D01*
Y124618D01*
X208258Y124311D01*
X208432Y124050D01*
X208693Y123876D01*
X209000Y123815D01*
X210968D01*
X210968Y123815D01*
X211276Y123876D01*
X211536Y124050D01*
X214183Y126697D01*
X225317D01*
X226197Y125817D01*
Y112832D01*
X225668Y112303D01*
X214183D01*
X211536Y114950D01*
X211276Y115124D01*
X210968Y115185D01*
X209000D01*
X208693Y115124D01*
X208432Y114950D01*
X208258Y114689D01*
X208197Y114382D01*
X208197Y103832D01*
X206667Y102303D01*
X200000Y102303D01*
X199693Y102242D01*
X199432Y102068D01*
X199385Y101998D01*
X198420Y102150D01*
X198386Y102164D01*
Y111626D01*
X198324Y111933D01*
X198150Y112194D01*
X195395Y114950D01*
X195134Y115124D01*
X194827Y115185D01*
X182187D01*
X181303Y116069D01*
Y122931D01*
X182187Y123815D01*
X194039D01*
X194347Y123876D01*
X194607Y124050D01*
X194781Y124311D01*
X194842Y124618D01*
Y141748D01*
X194842Y141748D01*
X194781Y142055D01*
X194607Y142316D01*
X192552Y144371D01*
X192291Y144545D01*
X191984Y144606D01*
X181024D01*
X181024Y144606D01*
X180716Y144545D01*
X180456Y144371D01*
X173476Y137390D01*
X173302Y137130D01*
X173240Y136823D01*
Y102177D01*
X173240Y102177D01*
X173302Y101870D01*
X173476Y101610D01*
X180456Y94629D01*
X180716Y94455D01*
X181024Y94394D01*
X182630D01*
X183012Y93470D01*
X181312Y91770D01*
X181268Y91704D01*
X181212Y91648D01*
X181182Y91575D01*
X181138Y91510D01*
X181123Y91432D01*
X181092Y91359D01*
Y91280D01*
X181077Y91202D01*
X181092Y91125D01*
Y91046D01*
X181190Y90555D01*
X181220Y90482D01*
X181236Y90405D01*
X181280Y90339D01*
X181310Y90266D01*
X181366Y90210D01*
X181410Y90144D01*
X181475Y90100D01*
X181531Y90044D01*
X181604Y90014D01*
X181670Y89970D01*
X181684Y89964D01*
X182012Y89637D01*
X182189Y89208D01*
Y88744D01*
X182012Y88316D01*
X181684Y87988D01*
X181255Y87811D01*
X180792D01*
X180363Y87988D01*
X180035Y88316D01*
X180030Y88330D01*
X179986Y88395D01*
X179955Y88468D01*
X179900Y88524D01*
X179856Y88590D01*
X179790Y88634D01*
X179734Y88690D01*
X179661Y88720D01*
X179595Y88764D01*
X179517Y88780D01*
X179445Y88810D01*
X178954Y88907D01*
X178875D01*
X178797Y88923D01*
X178720Y88907D01*
X178641D01*
X178568Y88877D01*
X178490Y88862D01*
X178425Y88818D01*
X178351Y88788D01*
X178296Y88732D01*
X178230Y88688D01*
X170932Y81390D01*
X170758Y81130D01*
X170697Y80823D01*
Y62511D01*
X170573Y62416D01*
X169697Y62141D01*
X143419Y88419D01*
X142768Y88854D01*
X142000Y89007D01*
X94788D01*
X85507Y98288D01*
Y100728D01*
X85354Y101496D01*
X84919Y102148D01*
X84268Y102583D01*
X83500Y102735D01*
X82732Y102583D01*
X82081Y102148D01*
X81646Y101496D01*
X81493Y100728D01*
Y97457D01*
X81646Y96689D01*
X82081Y96038D01*
X92537Y85581D01*
X93189Y85146D01*
X93957Y84993D01*
X141169D01*
X166493Y59669D01*
Y54425D01*
X166182Y53960D01*
X166051Y53301D01*
X166044Y53303D01*
X165005D01*
X164866Y53275D01*
X164698Y53242D01*
X164698Y53242D01*
X164438Y53068D01*
X164353Y52941D01*
X163967Y52555D01*
X163539Y52378D01*
X163075D01*
X162647Y52555D01*
X162261Y52941D01*
X162176Y53068D01*
X162176Y53068D01*
X162079Y53133D01*
X161916Y53242D01*
X161608Y53303D01*
X153194D01*
X153056Y53275D01*
X152887Y53242D01*
X152887Y53242D01*
X152627Y53068D01*
X152542Y52941D01*
X152156Y52555D01*
X151728Y52378D01*
X151264D01*
X150836Y52555D01*
X150450Y52941D01*
X150365Y53068D01*
X150365Y53068D01*
X150268Y53133D01*
X150105Y53242D01*
X149797Y53303D01*
X144500D01*
X144193Y53242D01*
X143932Y53068D01*
X143932Y53068D01*
X141031Y50166D01*
X140324Y50873D01*
X132507Y58690D01*
Y70342D01*
X132354Y71111D01*
X131919Y71762D01*
X124262Y79419D01*
X123611Y79854D01*
X122843Y80007D01*
X109925D01*
X109460Y80318D01*
X108500Y80509D01*
X107540Y80318D01*
X106726Y79774D01*
X106182Y78960D01*
X105991Y78000D01*
X106182Y77040D01*
X106726Y76226D01*
X107540Y75682D01*
X108500Y75491D01*
X109460Y75682D01*
X109925Y75993D01*
X122011D01*
X124269Y73735D01*
X123854Y72735D01*
X83500D01*
X82732Y72583D01*
X82081Y72148D01*
X81646Y71496D01*
X81493Y70728D01*
Y67457D01*
X81646Y66689D01*
X82081Y66037D01*
X82732Y65602D01*
X83500Y65450D01*
X84268Y65602D01*
X84919Y66037D01*
X85354Y66689D01*
X85507Y67457D01*
Y68721D01*
X123440D01*
X124493Y67669D01*
Y56000D01*
X124646Y55232D01*
X125081Y54581D01*
X134600Y45061D01*
X134601Y45060D01*
X134676Y44889D01*
X134670Y44158D01*
X134444Y43803D01*
X121000D01*
X120693Y43742D01*
X120432Y43568D01*
X119520Y43385D01*
X119260Y43413D01*
X118961Y43613D01*
X118500Y43704D01*
X118500Y43704D01*
X112628D01*
X112094Y44704D01*
X112318Y45040D01*
X112509Y46000D01*
X112318Y46960D01*
X111774Y47774D01*
X110960Y48318D01*
X110000Y48509D01*
X109040Y48318D01*
X108226Y47774D01*
X107682Y46960D01*
X107491Y46000D01*
X107682Y45040D01*
X107906Y44704D01*
X107372Y43704D01*
X80999D01*
X77828Y46875D01*
X77437Y47136D01*
X76976Y47228D01*
X76976Y47228D01*
X71665D01*
X71205Y47136D01*
X70814Y46875D01*
X70553Y46485D01*
X70461Y46024D01*
Y17816D01*
X70015Y17450D01*
X69083Y17265D01*
X68293Y16737D01*
X68105Y16456D01*
X66925D01*
X66737Y16737D01*
X65947Y17265D01*
X65215Y17410D01*
Y15015D01*
Y12620D01*
X65947Y12765D01*
X66737Y13293D01*
X66925Y13574D01*
X68105D01*
X68293Y13293D01*
X69083Y12765D01*
X70015Y12580D01*
X70461Y12214D01*
Y1806D01*
X18295D01*
X18177Y2806D01*
X18905Y2981D01*
X20737Y3740D01*
X22428Y4776D01*
X23936Y6064D01*
X25224Y7572D01*
X26260Y9263D01*
X27019Y11095D01*
X27482Y13023D01*
X27637Y15000D01*
X27482Y16977D01*
X27019Y18905D01*
X26260Y20737D01*
X25224Y22428D01*
X23936Y23936D01*
X22428Y25224D01*
X20737Y26260D01*
X18905Y27019D01*
X16977Y27482D01*
X15000Y27637D01*
X13023Y27482D01*
X11095Y27019D01*
X9263Y26260D01*
X7572Y25224D01*
X6064Y23936D01*
X4776Y22428D01*
X3740Y20737D01*
X2981Y18905D01*
X2806Y18177D01*
X1806Y18295D01*
Y28948D01*
X1877Y29070D01*
X2598Y29732D01*
X33402D01*
X33709Y29793D01*
X33970Y29967D01*
X34144Y30228D01*
X34205Y30535D01*
Y47491D01*
X38000D01*
X38960Y47682D01*
X39774Y48226D01*
X43774Y52226D01*
X43774Y52226D01*
X44318Y53040D01*
X44509Y54000D01*
Y97461D01*
X51099Y104051D01*
X152901D01*
X166226Y90726D01*
X167040Y90182D01*
X168000Y89991D01*
X177500D01*
X178460Y90182D01*
X179274Y90726D01*
X179818Y91540D01*
X180009Y92500D01*
X179818Y93460D01*
X179274Y94274D01*
X178460Y94818D01*
X177500Y95009D01*
X169039D01*
X155714Y108334D01*
X154901Y108878D01*
X153940Y109069D01*
X50060D01*
X49099Y108878D01*
X48286Y108334D01*
X40226Y100274D01*
X39682Y99460D01*
X39491Y98500D01*
Y55039D01*
X36961Y52509D01*
X34205D01*
Y53465D01*
X34144Y53772D01*
X33970Y54033D01*
X33709Y54207D01*
X33402Y54268D01*
X2598D01*
X1877Y54930D01*
X1806Y55052D01*
Y164948D01*
X1877Y165070D01*
X2598Y165732D01*
X33402D01*
X33709Y165793D01*
X33970Y165967D01*
X34144Y166228D01*
X34205Y166535D01*
Y167491D01*
X37961D01*
X39491Y165961D01*
Y121500D01*
X39682Y120540D01*
X40226Y119726D01*
X48375Y111577D01*
X49188Y111034D01*
X50148Y110843D01*
X153851D01*
X154812Y111034D01*
X155625Y111577D01*
X167274Y123226D01*
X167818Y124040D01*
X168009Y125000D01*
X168009Y125000D01*
Y133461D01*
X179274Y144726D01*
X179818Y145540D01*
X180009Y146500D01*
X179818Y147460D01*
X179274Y148274D01*
X178460Y148818D01*
X177500Y149009D01*
X176540Y148818D01*
X175726Y148274D01*
X163726Y136274D01*
X163182Y135460D01*
X162991Y134500D01*
Y126039D01*
X152812Y115860D01*
X51188D01*
X44509Y122539D01*
Y167000D01*
X44318Y167960D01*
X43774Y168774D01*
X40774Y171774D01*
X39960Y172318D01*
X39000Y172509D01*
X34205D01*
Y189465D01*
X34144Y189772D01*
X33970Y190033D01*
X33709Y190207D01*
X33402Y190268D01*
X2598D01*
X1877Y190930D01*
X1806Y191052D01*
Y201705D01*
X2806Y201823D01*
X2981Y201095D01*
X3740Y199263D01*
X4776Y197572D01*
X6064Y196064D01*
X7572Y194776D01*
X9263Y193740D01*
X11095Y192981D01*
X13023Y192518D01*
X15000Y192363D01*
X16977Y192518D01*
X18905Y192981D01*
X20737Y193740D01*
X22428Y194776D01*
X23936Y196064D01*
X25224Y197572D01*
X26260Y199263D01*
X27019Y201095D01*
X27482Y203023D01*
X27637Y205000D01*
X27482Y206977D01*
X27019Y208905D01*
X26260Y210737D01*
X25224Y212428D01*
X23936Y213936D01*
X22428Y215224D01*
X20737Y216260D01*
X18905Y217019D01*
X18177Y217194D01*
X18295Y218194D01*
X70461D01*
Y207816D01*
D02*
G37*
G36*
X377068Y218056D02*
X379085Y217572D01*
X381001Y216778D01*
X382770Y215694D01*
X384347Y214347D01*
X385695Y212770D01*
X386778Y211001D01*
X387572Y209085D01*
X388056Y207068D01*
X388212Y205092D01*
X388194Y205000D01*
Y191578D01*
X387694Y191275D01*
X387226Y191469D01*
X386443D01*
X385720Y191169D01*
X385166Y190615D01*
X384866Y189892D01*
Y189108D01*
X385166Y188385D01*
X385720Y187831D01*
X386443Y187531D01*
X387226D01*
X387694Y187725D01*
X388194Y187422D01*
Y186078D01*
X387694Y185775D01*
X387226Y185968D01*
X386443D01*
X385720Y185669D01*
X385166Y185115D01*
X384866Y184392D01*
Y183608D01*
X385166Y182885D01*
X385720Y182331D01*
X386443Y182032D01*
X387226D01*
X387694Y182225D01*
X388194Y181922D01*
Y179578D01*
X387694Y179275D01*
X387226Y179469D01*
X386443D01*
X385720Y179169D01*
X385166Y178615D01*
X384866Y177892D01*
Y177108D01*
X385166Y176385D01*
X385720Y175831D01*
X386443Y175531D01*
X387226D01*
X387694Y175725D01*
X388194Y175422D01*
Y173078D01*
X387694Y172775D01*
X387226Y172968D01*
X386443D01*
X385720Y172669D01*
X385166Y172115D01*
X384866Y171392D01*
Y170608D01*
X385166Y169885D01*
X385720Y169331D01*
X386443Y169032D01*
X387226D01*
X387694Y169225D01*
X388194Y168922D01*
Y15000D01*
X388212Y14908D01*
X388056Y12932D01*
X387572Y10915D01*
X386778Y8999D01*
X385695Y7230D01*
X384347Y5653D01*
X382770Y4306D01*
X381001Y3222D01*
X379085Y2428D01*
X377068Y1944D01*
X375092Y1788D01*
X375000Y1806D01*
X175000D01*
Y7324D01*
X175095Y7379D01*
X175500Y7478D01*
X175968Y7010D01*
X176691Y6710D01*
X177474D01*
X178198Y7010D01*
X178752Y7563D01*
X179051Y8287D01*
Y9070D01*
X178752Y9793D01*
X178198Y10347D01*
X177474Y10647D01*
X176691D01*
X175968Y10347D01*
X175500Y9879D01*
X175095Y9978D01*
X175000Y10033D01*
Y21297D01*
X177351Y23649D01*
X177613Y24039D01*
X178159Y24225D01*
X178458Y24101D01*
X179242D01*
X179965Y24401D01*
X180519Y24955D01*
X180818Y25678D01*
Y26461D01*
X180519Y27185D01*
X180000Y27704D01*
X180001Y27706D01*
X180045Y27772D01*
X180060Y27850D01*
X180090Y27923D01*
X180090Y28002D01*
X180106Y28079D01*
Y31459D01*
X180090Y31537D01*
Y31616D01*
X180060Y31689D01*
X180045Y31766D01*
X180036Y31779D01*
X180574Y32317D01*
X180873Y33040D01*
Y33823D01*
X180574Y34547D01*
X180020Y35101D01*
X179296Y35400D01*
X178513D01*
X177790Y35101D01*
X177498Y34809D01*
X176998Y35016D01*
Y38795D01*
X185125Y46922D01*
X185156Y46942D01*
X185190Y46961D01*
X185225Y46976D01*
X185264Y46989D01*
X185308Y47000D01*
X185359Y47009D01*
X185416Y47014D01*
X185507Y47016D01*
X185575Y47032D01*
X185892D01*
X186615Y47331D01*
X187169Y47885D01*
X187469Y48608D01*
Y49392D01*
X187169Y50115D01*
X186615Y50669D01*
X185892Y50968D01*
X185108D01*
X184385Y50669D01*
X183831Y50115D01*
X183531Y49392D01*
Y49075D01*
X183516Y49007D01*
X183514Y48916D01*
X183509Y48859D01*
X183500Y48808D01*
X183489Y48764D01*
X183476Y48725D01*
X183461Y48690D01*
X183443Y48656D01*
X183422Y48625D01*
X180568Y45771D01*
X180106Y45962D01*
Y51609D01*
X180090Y51687D01*
Y51766D01*
X180060Y51839D01*
X180045Y51916D01*
X180001Y51982D01*
X179970Y52055D01*
X179914Y52111D01*
X179870Y52177D01*
X179805Y52221D01*
X179749Y52276D01*
X179676Y52307D01*
X179610Y52351D01*
X179533Y52366D01*
X179459Y52396D01*
X178969Y52494D01*
Y52892D01*
X178669Y53615D01*
X178115Y54169D01*
X177392Y54469D01*
X176608D01*
X176423Y54392D01*
X176251Y54807D01*
X176077Y55068D01*
X175816Y55242D01*
X175509Y55303D01*
X175000D01*
Y57500D01*
X234000D01*
Y115000D01*
X242500Y123500D01*
Y138204D01*
X246500Y142204D01*
Y169737D01*
X247099Y169985D01*
X247653Y170538D01*
X247953Y171262D01*
Y172045D01*
X247653Y172768D01*
X247099Y173322D01*
X246500Y173570D01*
Y190500D01*
X280500D01*
Y190697D01*
X310562D01*
X310562Y190697D01*
X310870Y190758D01*
X311130Y190932D01*
X317571Y197373D01*
X317745Y197634D01*
X317806Y197941D01*
Y202645D01*
X318268Y202837D01*
X318311Y202794D01*
X318944Y202429D01*
X319650Y202239D01*
X320380D01*
X321086Y202429D01*
X321719Y202794D01*
X322236Y203311D01*
X322265Y203361D01*
X322765D01*
X322794Y203311D01*
X323311Y202794D01*
X323944Y202429D01*
X324650Y202239D01*
X325380D01*
X326086Y202429D01*
X326719Y202794D01*
X327236Y203311D01*
X327265Y203361D01*
X327765D01*
X327794Y203311D01*
X328311Y202794D01*
X328944Y202429D01*
X329650Y202239D01*
X330380D01*
X331086Y202429D01*
X331719Y202794D01*
X332236Y203311D01*
X332265Y203361D01*
X332765D01*
X332794Y203311D01*
X333311Y202794D01*
X333944Y202429D01*
X334650Y202239D01*
X335380D01*
X336086Y202429D01*
X336719Y202794D01*
X337236Y203311D01*
X337265Y203361D01*
X337765D01*
X337794Y203311D01*
X338311Y202794D01*
X338944Y202429D01*
X339650Y202239D01*
X340380D01*
X341086Y202429D01*
X341719Y202794D01*
X342236Y203311D01*
X342265Y203361D01*
X342765D01*
X342794Y203311D01*
X343311Y202794D01*
X343944Y202429D01*
X344650Y202239D01*
X345380D01*
X346086Y202429D01*
X346719Y202794D01*
X347236Y203311D01*
X347265Y203361D01*
X347765D01*
X347794Y203311D01*
X348311Y202794D01*
X348944Y202429D01*
X349650Y202239D01*
X350380D01*
X351086Y202429D01*
X351719Y202794D01*
X351739Y202814D01*
X352239Y202607D01*
Y202239D01*
X357791D01*
Y207791D01*
X352239D01*
Y207423D01*
X351739Y207216D01*
X351719Y207236D01*
X351086Y207601D01*
X350380Y207791D01*
X349650D01*
X348944Y207601D01*
X348311Y207236D01*
X347794Y206719D01*
X347765Y206669D01*
X347265D01*
X347236Y206719D01*
X346719Y207236D01*
X346086Y207601D01*
X345380Y207791D01*
X344650D01*
X343944Y207601D01*
X343311Y207236D01*
X342794Y206719D01*
X342765Y206669D01*
X342265D01*
X342236Y206719D01*
X341719Y207236D01*
X341086Y207601D01*
X340380Y207791D01*
X339650D01*
X338944Y207601D01*
X338311Y207236D01*
X337794Y206719D01*
X337765Y206669D01*
X337265D01*
X337236Y206719D01*
X336719Y207236D01*
X336086Y207601D01*
X335380Y207791D01*
X334650D01*
X333944Y207601D01*
X333311Y207236D01*
X332794Y206719D01*
X332765Y206669D01*
X332265D01*
X332236Y206719D01*
X331719Y207236D01*
X331086Y207601D01*
X330380Y207791D01*
X329650D01*
X328944Y207601D01*
X328311Y207236D01*
X327794Y206719D01*
X327765Y206669D01*
X327265D01*
X327236Y206719D01*
X326719Y207236D01*
X326086Y207601D01*
X325380Y207791D01*
X324650D01*
X323944Y207601D01*
X323311Y207236D01*
X322794Y206719D01*
X322765Y206669D01*
X322265D01*
X322236Y206719D01*
X321719Y207236D01*
X321086Y207601D01*
X320380Y207791D01*
X319650D01*
X318944Y207601D01*
X318311Y207236D01*
X317794Y206719D01*
X317765Y206669D01*
X317265D01*
X317236Y206719D01*
X316719Y207236D01*
X316086Y207601D01*
X315380Y207791D01*
X315093D01*
X315015Y207806D01*
X301124D01*
X301047Y207791D01*
X300973D01*
X300802Y208202D01*
X300249Y208755D01*
X299525Y209055D01*
X298742D01*
X298019Y208755D01*
X297465Y208202D01*
X297295Y207791D01*
X297221D01*
X297143Y207806D01*
X280500D01*
Y218194D01*
X375000D01*
X375092Y218212D01*
X377068Y218056D01*
D02*
G37*
G36*
X120500Y190428D02*
X120000Y190221D01*
X119708Y190514D01*
X118984Y190813D01*
X118201D01*
X117477Y190514D01*
X116924Y189960D01*
X116624Y189236D01*
Y188453D01*
X116924Y187730D01*
X117477Y187176D01*
X118201Y186876D01*
X118849D01*
X118984Y186876D01*
X119296Y186464D01*
Y178704D01*
X89908D01*
X89809Y179204D01*
X90115Y179331D01*
X90669Y179885D01*
X90969Y180608D01*
Y181392D01*
X90669Y182115D01*
X90115Y182669D01*
X89392Y182968D01*
X88608D01*
X87885Y182669D01*
X87331Y182115D01*
X87032Y181392D01*
Y180608D01*
X87331Y179885D01*
X87885Y179331D01*
X88191Y179204D01*
X88092Y178704D01*
X80500D01*
X80500Y178704D01*
X80039Y178613D01*
X79649Y178351D01*
X79648Y178351D01*
X76477Y175181D01*
X72870D01*
Y202610D01*
X73370Y202760D01*
X73944Y202429D01*
X74650Y202239D01*
X75380D01*
X76086Y202429D01*
X76719Y202794D01*
X77236Y203311D01*
X77265Y203361D01*
X77765D01*
X77794Y203311D01*
X78311Y202794D01*
X78944Y202429D01*
X79650Y202239D01*
X80380D01*
X81086Y202429D01*
X81719Y202794D01*
X82236Y203311D01*
X82601Y203944D01*
X82791Y204650D01*
Y205380D01*
X82601Y206086D01*
X82236Y206719D01*
X81719Y207236D01*
X81086Y207601D01*
X80380Y207791D01*
X79650D01*
X78944Y207601D01*
X78311Y207236D01*
X77794Y206719D01*
X77765Y206669D01*
X77265D01*
X77236Y206719D01*
X76719Y207236D01*
X76086Y207601D01*
X75380Y207791D01*
X74650D01*
X73944Y207601D01*
X73370Y207270D01*
X72870Y207420D01*
Y218194D01*
X120500D01*
Y190428D01*
D02*
G37*
G36*
X213399Y180398D02*
X213789Y180137D01*
X214000Y180096D01*
Y168803D01*
X209500D01*
X209500Y168803D01*
X209193Y168742D01*
X208932Y168568D01*
X208932Y168568D01*
X208432Y168068D01*
X208258Y167807D01*
X208197Y167500D01*
Y166500D01*
X172991Y166500D01*
X172784Y167000D01*
X173169Y167385D01*
X173468Y168108D01*
Y168892D01*
X173169Y169615D01*
X172615Y170169D01*
X171892Y170468D01*
X171108D01*
X170385Y170169D01*
X169831Y169615D01*
X169532Y168892D01*
Y168108D01*
X169831Y167385D01*
X170216Y167000D01*
X170009Y166500D01*
X164383Y166500D01*
X162492Y166500D01*
X162300Y166962D01*
X168965Y173626D01*
X173600D01*
X173807Y173126D01*
X173449Y172768D01*
X173149Y172045D01*
Y171262D01*
X173449Y170538D01*
X174003Y169985D01*
X174726Y169685D01*
X175510D01*
X176233Y169985D01*
X176787Y170538D01*
X177086Y171262D01*
Y172045D01*
X176787Y172768D01*
X176429Y173126D01*
X176636Y173626D01*
X191634D01*
X192402Y173779D01*
X193053Y174214D01*
X194919Y176081D01*
X195354Y176732D01*
X195507Y177500D01*
Y196000D01*
X195354Y196768D01*
X194919Y197419D01*
X191919Y200419D01*
X191755Y200529D01*
X191615Y200669D01*
X191432Y200745D01*
X191268Y200854D01*
X191074Y200893D01*
X190892Y200969D01*
X190694D01*
X190500Y201007D01*
X190306Y200969D01*
X190108D01*
X189926Y200893D01*
X189732Y200854D01*
X189568Y200745D01*
X189385Y200669D01*
X189245Y200529D01*
X189081Y200419D01*
X188971Y200255D01*
X188831Y200115D01*
X188756Y199932D01*
X188646Y199768D01*
X188607Y199574D01*
X188531Y199392D01*
Y199194D01*
X188493Y199000D01*
X188531Y198806D01*
Y198608D01*
X188607Y198426D01*
X188646Y198232D01*
X188756Y198068D01*
X188831Y197885D01*
X188971Y197745D01*
X189081Y197581D01*
X191493Y195169D01*
Y178331D01*
X190802Y177641D01*
X168134D01*
X167366Y177488D01*
X166714Y177053D01*
X156162Y166500D01*
X133500Y166500D01*
X130507Y169493D01*
Y179669D01*
X137831Y186993D01*
X156500D01*
X156694Y187031D01*
X156892D01*
X157074Y187107D01*
X157268Y187146D01*
X157432Y187256D01*
X157615Y187331D01*
X157755Y187471D01*
X157919Y187581D01*
X158029Y187745D01*
X158169Y187885D01*
X158245Y188068D01*
X158354Y188232D01*
X158393Y188426D01*
X158468Y188608D01*
Y188806D01*
X158507Y189000D01*
X158468Y189194D01*
Y189392D01*
X158393Y189574D01*
X158354Y189768D01*
X158245Y189932D01*
X158169Y190115D01*
X158029Y190255D01*
X157919Y190419D01*
X157755Y190529D01*
X157615Y190669D01*
X157432Y190744D01*
X157268Y190854D01*
X157074Y190893D01*
X156892Y190969D01*
X156694D01*
X156500Y191007D01*
X137631D01*
X137424Y191507D01*
X138410Y192493D01*
X144500D01*
X144694Y192532D01*
X144892D01*
X145074Y192607D01*
X145268Y192646D01*
X145432Y192755D01*
X145615Y192831D01*
X145755Y192971D01*
X145919Y193081D01*
X146029Y193245D01*
X146169Y193385D01*
X146245Y193568D01*
X146354Y193732D01*
X146393Y193926D01*
X146468Y194108D01*
Y194306D01*
X146507Y194500D01*
X146468Y194694D01*
Y194892D01*
X146393Y195074D01*
X146354Y195268D01*
X146245Y195432D01*
X146169Y195615D01*
X146029Y195755D01*
X145919Y195919D01*
X145755Y196029D01*
X145615Y196169D01*
X145432Y196245D01*
X145268Y196354D01*
X145074Y196393D01*
X144892Y196468D01*
X144694D01*
X144500Y196507D01*
X137579D01*
X136811Y196354D01*
X136160Y195919D01*
X123581Y183341D01*
X123146Y182689D01*
X122993Y181921D01*
Y177660D01*
X122531Y177469D01*
X122000Y178000D01*
Y182831D01*
Y186797D01*
X126351Y191148D01*
X126351Y191148D01*
X126613Y191539D01*
X126704Y192000D01*
Y193500D01*
Y198001D01*
X131499Y202796D01*
X175365D01*
X175699Y202296D01*
X175531Y201892D01*
Y201108D01*
X175831Y200385D01*
X176385Y199831D01*
X177108Y199531D01*
X177892D01*
X178615Y199831D01*
X179169Y200385D01*
X179469Y201108D01*
Y201892D01*
X179301Y202296D01*
X179635Y202796D01*
X191001D01*
X213399Y180398D01*
D02*
G37*
G36*
X279500Y207003D02*
X297143D01*
X297279Y206318D01*
X297714Y205667D01*
X298366Y205232D01*
X299134Y205079D01*
X299902Y205232D01*
X300553Y205667D01*
X300988Y206318D01*
X301124Y207003D01*
X315015D01*
X317003Y205015D01*
Y197941D01*
X310562Y191500D01*
X245813D01*
X245545Y192000D01*
X245700Y192232D01*
X245853Y193000D01*
X245700Y193768D01*
X245265Y194419D01*
X244614Y194854D01*
X243846Y195007D01*
X243078Y194854D01*
X242427Y194419D01*
X241992Y193768D01*
X241839Y193000D01*
X241992Y192232D01*
X242427Y191581D01*
X243078Y191146D01*
X243846Y190993D01*
X244614Y191146D01*
X245000Y191403D01*
X245500Y191136D01*
Y189901D01*
X245000Y189556D01*
X244493Y189657D01*
X243725Y189504D01*
X243074Y189069D01*
X242639Y188418D01*
X242486Y187650D01*
X242639Y186882D01*
X243074Y186231D01*
X243725Y185796D01*
X244493Y185643D01*
X245000Y185744D01*
X245500Y185399D01*
Y173564D01*
X245216Y173508D01*
X244565Y173073D01*
X244130Y172422D01*
X243977Y171653D01*
X244130Y170885D01*
X244565Y170234D01*
X245216Y169799D01*
X245500Y169743D01*
Y142500D01*
X241595Y138594D01*
Y124094D01*
X233000Y115500D01*
Y91528D01*
X231121Y89650D01*
X225850D01*
X220000Y95500D01*
X202000D01*
X200000Y97500D01*
Y101500D01*
X207000Y101500D01*
X209000Y103500D01*
X209000Y114382D01*
X210968D01*
X213850Y111500D01*
X226000D01*
X227000Y112500D01*
Y126150D01*
X225650Y127500D01*
X213850D01*
X210968Y124618D01*
X209000D01*
Y146099D01*
X209500Y146366D01*
X209783Y146177D01*
X210551Y146024D01*
X211319Y146177D01*
X211970Y146612D01*
X212405Y147263D01*
X212558Y148031D01*
X212405Y148800D01*
X211970Y149451D01*
X211319Y149886D01*
X210551Y150039D01*
X209783Y149886D01*
X209500Y149697D01*
X209000Y149964D01*
Y167500D01*
X209500Y168000D01*
X215000D01*
Y180331D01*
X215102Y180398D01*
X215363Y180789D01*
X215454Y181250D01*
X215363Y181711D01*
X215345Y181737D01*
X215432Y181953D01*
X215620Y182226D01*
X216304Y182362D01*
X216956Y182797D01*
X217391Y183448D01*
X217543Y184216D01*
X217391Y184984D01*
X216956Y185635D01*
X216304Y186070D01*
X215536Y186223D01*
X215387Y186193D01*
X215000Y186511D01*
Y218194D01*
X279500D01*
Y207003D01*
D02*
G37*
G36*
X213500Y185010D02*
X212576Y184627D01*
X192351Y204852D01*
X191961Y205113D01*
X191500Y205204D01*
X191500Y205204D01*
X131000D01*
X130539Y205113D01*
X130148Y204852D01*
X130148Y204852D01*
X124648Y199352D01*
X124387Y198961D01*
X124296Y198500D01*
X124296Y198500D01*
Y192499D01*
X122303Y190506D01*
X121303Y190920D01*
Y218194D01*
X213500D01*
Y185010D01*
D02*
G37*
G36*
X33402Y166535D02*
X2598D01*
Y189465D01*
X33402D01*
Y166535D01*
D02*
G37*
G36*
X194039Y141748D02*
Y124618D01*
X181854D01*
X180500Y123264D01*
Y115736D01*
X181854Y114382D01*
X194827D01*
X197583Y111626D01*
Y100650D01*
X192130Y95197D01*
X181024D01*
X174043Y102177D01*
Y136823D01*
X181024Y143803D01*
X191984D01*
X194039Y141748D01*
D02*
G37*
G36*
X225000Y88500D02*
X233000D01*
Y83070D01*
X232500Y82863D01*
X232115Y83248D01*
X231392Y83547D01*
X230608D01*
X229885Y83248D01*
X229331Y82694D01*
X229031Y81970D01*
Y81187D01*
X229331Y80464D01*
X229885Y79910D01*
X230608Y79610D01*
X231392D01*
X232115Y79910D01*
X232500Y80295D01*
X233000Y80088D01*
Y58500D01*
X174000D01*
X171500Y61000D01*
Y80823D01*
X178797Y88120D01*
X179288Y88023D01*
X179355Y87861D01*
X179908Y87308D01*
X180632Y87008D01*
X181415D01*
X182139Y87308D01*
X182692Y87861D01*
X182992Y88585D01*
Y89368D01*
X182692Y90091D01*
X182139Y90645D01*
X181977Y90712D01*
X181880Y91202D01*
X184784Y94106D01*
X219394D01*
X225000Y88500D01*
D02*
G37*
G36*
X175716Y54000D02*
X175331Y53615D01*
X175031Y52892D01*
Y52108D01*
X175331Y51385D01*
X175885Y50831D01*
X176608Y50532D01*
X177392D01*
X178115Y50831D01*
X178669Y51385D01*
X178803Y51709D01*
X179303Y51609D01*
Y44506D01*
X174942Y40145D01*
X174681Y39755D01*
X174589Y39294D01*
X174589Y39294D01*
Y35848D01*
X174127Y35656D01*
X174115Y35669D01*
X173392Y35969D01*
X172608D01*
X171885Y35669D01*
X171331Y35115D01*
X171031Y34392D01*
Y33608D01*
X171331Y32885D01*
X171885Y32331D01*
X172608Y32032D01*
X173392D01*
X174115Y32331D01*
X174127Y32344D01*
X174589Y32152D01*
Y29976D01*
X174553Y29969D01*
X174108D01*
X173385Y29669D01*
X172831Y29115D01*
X172531Y28392D01*
Y27608D01*
X172831Y26885D01*
X173385Y26331D01*
X174108Y26032D01*
X174892D01*
X175615Y26331D01*
X176169Y26885D01*
X176469Y27608D01*
Y28053D01*
X176479Y28106D01*
X176476Y28123D01*
X176479Y28139D01*
X176476Y28192D01*
X176477Y28203D01*
X176479Y28214D01*
X176483Y28229D01*
X176491Y28249D01*
X176503Y28275D01*
X176523Y28308D01*
X176550Y28347D01*
X176553Y28350D01*
X176645Y28442D01*
X176645Y28442D01*
X176906Y28833D01*
X176998Y29294D01*
Y31848D01*
X177498Y32055D01*
X177790Y31763D01*
X178513Y31463D01*
X179296D01*
X179303Y31459D01*
Y28079D01*
X179242Y28038D01*
X178458D01*
X177735Y27739D01*
X177181Y27185D01*
X176882Y26461D01*
Y26138D01*
X176500Y25704D01*
X176039Y25613D01*
X175648Y25352D01*
X165001Y14704D01*
X126999D01*
X123704Y17999D01*
Y38500D01*
X123613Y38961D01*
X123352Y39351D01*
X123352Y39351D01*
X121000Y41703D01*
Y43000D01*
X135000D01*
X135539Y43539D01*
X135704Y43530D01*
X136092Y43385D01*
X136414Y42606D01*
X137106Y41914D01*
X138011Y41539D01*
X138989D01*
X139894Y41914D01*
X140586Y42606D01*
X140961Y43511D01*
Y43852D01*
X141461Y44059D01*
X147539Y37980D01*
Y37869D01*
X147914Y36964D01*
X148606Y36272D01*
X149511Y35898D01*
X150489D01*
X151394Y36272D01*
X152086Y36964D01*
X152461Y37869D01*
Y38848D01*
X152086Y39752D01*
X151394Y40444D01*
X150489Y40819D01*
X150378D01*
X141598Y49598D01*
X144500Y52500D01*
X149797D01*
X149827Y52428D01*
X150381Y51874D01*
X151104Y51575D01*
X151888D01*
X152611Y51874D01*
X153165Y52428D01*
X153194Y52500D01*
X161608D01*
X161638Y52428D01*
X162192Y51874D01*
X162915Y51575D01*
X163698D01*
X164422Y51874D01*
X164976Y52428D01*
X165006Y52500D01*
X166044D01*
X166414Y51606D01*
X167106Y50914D01*
X168010Y50539D01*
X168990D01*
X169894Y50914D01*
X170586Y51606D01*
X170961Y52511D01*
Y53489D01*
X170749Y54000D01*
X171083Y54500D01*
X175509D01*
X175716Y54000D01*
D02*
G37*
G36*
X185488Y47819D02*
X185369Y47816D01*
X185254Y47806D01*
X185144Y47787D01*
X185037Y47760D01*
X184935Y47725D01*
X184838Y47683D01*
X184744Y47632D01*
X184655Y47574D01*
X184570Y47508D01*
X184490Y47433D01*
X183933Y47990D01*
X184008Y48070D01*
X184074Y48155D01*
X184132Y48244D01*
X184183Y48338D01*
X184225Y48435D01*
X184260Y48537D01*
X184287Y48644D01*
X184306Y48754D01*
X184316Y48869D01*
X184319Y48988D01*
X185488Y47819D01*
D02*
G37*
G36*
X33402Y30535D02*
X2598D01*
Y53465D01*
X33402D01*
Y30535D01*
D02*
G37*
G36*
X176067Y29010D02*
X175985Y28923D01*
X175913Y28835D01*
X175850Y28747D01*
X175796Y28658D01*
X175753Y28568D01*
X175718Y28477D01*
X175694Y28385D01*
X175678Y28293D01*
X175672Y28200D01*
X175676Y28106D01*
X174607Y29176D01*
X174700Y29173D01*
X174793Y29178D01*
X174885Y29193D01*
X174977Y29218D01*
X175068Y29253D01*
X175158Y29296D01*
X175247Y29350D01*
X175335Y29413D01*
X175423Y29485D01*
X175510Y29567D01*
X176067Y29010D01*
D02*
G37*
G36*
X174197Y19187D02*
Y10033D01*
X174218Y9930D01*
X174224Y9825D01*
X174248Y9777D01*
X174258Y9725D01*
X174317Y9638D01*
X174363Y9544D01*
X174403Y9509D01*
X174432Y9465D01*
X174520Y9407D01*
X174598Y9337D01*
X174693Y9283D01*
X174802Y9246D01*
X174905Y9198D01*
X174925Y9193D01*
Y8164D01*
X174905Y8159D01*
X174802Y8111D01*
X174693Y8074D01*
X174598Y8019D01*
X174520Y7950D01*
X174432Y7892D01*
X174403Y7848D01*
X174363Y7813D01*
X174317Y7719D01*
X174258Y7631D01*
X174248Y7579D01*
X174224Y7532D01*
X174218Y7427D01*
X174197Y7324D01*
Y1806D01*
X120803D01*
Y13321D01*
X120803Y13367D01*
X120803Y13367D01*
X120803Y13367D01*
X120742Y13674D01*
X120568Y13935D01*
X120307Y14109D01*
X120307Y14109D01*
X120307D01*
X120272Y14123D01*
X119766Y14333D01*
X119438Y14661D01*
X119261Y15089D01*
Y15553D01*
X119438Y15981D01*
X119766Y16309D01*
X120307Y16533D01*
X120307D01*
X120307Y16533D01*
X120518Y16674D01*
X120657Y16710D01*
X121366Y16731D01*
X121499Y16706D01*
X121644Y16655D01*
X121649Y16648D01*
X125648Y12649D01*
X125648Y12649D01*
X126039Y12387D01*
X126500Y12296D01*
X165500D01*
X165500Y12296D01*
X165961Y12387D01*
X166351Y12649D01*
X173273Y19570D01*
X174197Y19187D01*
D02*
G37*
G36*
X79649Y41649D02*
X79649Y41649D01*
X80039Y41387D01*
X80500Y41296D01*
X80500Y41296D01*
X118001D01*
X120000Y39297D01*
Y31973D01*
X119258D01*
X118535Y31673D01*
X117981Y31119D01*
X117682Y30396D01*
Y29613D01*
X117981Y28889D01*
X118535Y28336D01*
X119258Y28036D01*
X120000D01*
Y24611D01*
X119258D01*
X118535Y24311D01*
X117981Y23757D01*
X117682Y23034D01*
Y22251D01*
X117981Y21527D01*
X118535Y20973D01*
X119258Y20674D01*
X120000D01*
Y17275D01*
X119311Y16990D01*
X118758Y16436D01*
X118458Y15713D01*
Y14930D01*
X118758Y14206D01*
X119311Y13652D01*
X120000Y13367D01*
Y1806D01*
X90655D01*
X90555Y2306D01*
X90615Y2331D01*
X91169Y2885D01*
X91469Y3608D01*
Y4392D01*
X91169Y5115D01*
X90615Y5669D01*
X89892Y5968D01*
X89108D01*
X88385Y5669D01*
X87831Y5115D01*
X87532Y4392D01*
Y3608D01*
X87831Y2885D01*
X88385Y2331D01*
X88445Y2306D01*
X88345Y1806D01*
X72870D01*
Y12610D01*
X73370Y12760D01*
X73944Y12429D01*
X74650Y12239D01*
X75380D01*
X76086Y12429D01*
X76719Y12794D01*
X77236Y13311D01*
X77265Y13361D01*
X77765D01*
X77794Y13311D01*
X78311Y12794D01*
X78944Y12429D01*
X79650Y12239D01*
X80380D01*
X81086Y12429D01*
X81719Y12794D01*
X82236Y13311D01*
X82601Y13944D01*
X82791Y14650D01*
Y15380D01*
X82601Y16086D01*
X82236Y16719D01*
X81719Y17236D01*
X81086Y17601D01*
X80380Y17791D01*
X79650D01*
X78944Y17601D01*
X78311Y17236D01*
X77794Y16719D01*
X77765Y16669D01*
X77265D01*
X77236Y16719D01*
X76719Y17236D01*
X76086Y17601D01*
X75380Y17791D01*
X74650D01*
X73944Y17601D01*
X73370Y17270D01*
X72870Y17420D01*
Y44819D01*
X76477D01*
X79649Y41649D01*
D02*
G37*
%LPC*%
G36*
X39815Y207410D02*
X39083Y207265D01*
X38403Y206810D01*
X37914Y206936D01*
X37403Y207205D01*
Y207403D01*
X35215D01*
Y205015D01*
Y202627D01*
X37403D01*
Y202825D01*
X37914Y203094D01*
X38403Y203220D01*
X39083Y202765D01*
X39815Y202620D01*
Y205015D01*
Y207410D01*
D02*
G37*
G36*
X64815D02*
X64083Y207265D01*
X63293Y206737D01*
X63105Y206456D01*
X61925D01*
X61737Y206737D01*
X60947Y207265D01*
X60215Y207410D01*
Y205015D01*
Y202620D01*
X60947Y202765D01*
X61737Y203293D01*
X61925Y203574D01*
X63105D01*
X63293Y203293D01*
X64083Y202765D01*
X64815Y202620D01*
Y205015D01*
Y207410D01*
D02*
G37*
G36*
X59815D02*
X59083Y207265D01*
X58293Y206737D01*
X58105Y206456D01*
X56925D01*
X56737Y206737D01*
X55947Y207265D01*
X55215Y207410D01*
Y205015D01*
Y202620D01*
X55947Y202765D01*
X56737Y203293D01*
X56925Y203574D01*
X58105D01*
X58293Y203293D01*
X59083Y202765D01*
X59815Y202620D01*
Y205015D01*
Y207410D01*
D02*
G37*
G36*
X54815D02*
X54083Y207265D01*
X53293Y206737D01*
X53105Y206456D01*
X51925D01*
X51737Y206737D01*
X50947Y207265D01*
X50215Y207410D01*
Y205015D01*
Y202620D01*
X50947Y202765D01*
X51737Y203293D01*
X51925Y203574D01*
X53105D01*
X53293Y203293D01*
X54083Y202765D01*
X54815Y202620D01*
Y205015D01*
Y207410D01*
D02*
G37*
G36*
X49815D02*
X49083Y207265D01*
X48293Y206737D01*
X48105Y206456D01*
X46925D01*
X46737Y206737D01*
X45947Y207265D01*
X45215Y207410D01*
Y205015D01*
Y202620D01*
X45947Y202765D01*
X46737Y203293D01*
X46925Y203574D01*
X48105D01*
X48293Y203293D01*
X49083Y202765D01*
X49815Y202620D01*
Y205015D01*
Y207410D01*
D02*
G37*
G36*
X44815D02*
X44083Y207265D01*
X43293Y206737D01*
X43105Y206456D01*
X41925D01*
X41737Y206737D01*
X40947Y207265D01*
X40215Y207410D01*
Y205015D01*
Y202620D01*
X40947Y202765D01*
X41737Y203293D01*
X41925Y203574D01*
X43105D01*
X43293Y203293D01*
X44083Y202765D01*
X44815Y202620D01*
Y205015D01*
Y207410D01*
D02*
G37*
G36*
X34815Y207403D02*
X32627D01*
Y205215D01*
X34815D01*
Y207403D01*
D02*
G37*
G36*
Y204815D02*
X32627D01*
Y202627D01*
X34815D01*
Y204815D01*
D02*
G37*
G36*
X64000Y189509D02*
X44000D01*
X43040Y189318D01*
X42226Y188774D01*
X41682Y187960D01*
X41491Y187000D01*
X41682Y186040D01*
X42226Y185226D01*
X43040Y184682D01*
X44000Y184491D01*
X64000D01*
X64960Y184682D01*
X65774Y185226D01*
X66318Y186040D01*
X66509Y187000D01*
X66318Y187960D01*
X65774Y188774D01*
X64960Y189318D01*
X64000Y189509D01*
D02*
G37*
G36*
X110000Y170509D02*
X109040Y170318D01*
X108226Y169774D01*
X107682Y168960D01*
X107491Y168000D01*
X107682Y167040D01*
X108226Y166226D01*
X109040Y165682D01*
X110000Y165491D01*
X110960Y165682D01*
X111774Y166226D01*
X112318Y167040D01*
X112509Y168000D01*
X112318Y168960D01*
X111774Y169774D01*
X110960Y170318D01*
X110000Y170509D01*
D02*
G37*
G36*
X63000Y169509D02*
X62040Y169318D01*
X61226Y168774D01*
X60682Y167960D01*
X60491Y167000D01*
X60682Y166040D01*
X61226Y165226D01*
X62040Y164682D01*
X63000Y164491D01*
X63960Y164682D01*
X64774Y165226D01*
X65318Y166040D01*
X65509Y167000D01*
X65318Y167960D01*
X64774Y168774D01*
X63960Y169318D01*
X63000Y169509D01*
D02*
G37*
G36*
X51000D02*
X50040Y169318D01*
X49226Y168774D01*
X48682Y167960D01*
X48491Y167000D01*
X48682Y166040D01*
X49226Y165226D01*
X50040Y164682D01*
X51000Y164491D01*
X51960Y164682D01*
X52774Y165226D01*
X53318Y166040D01*
X53509Y167000D01*
X53318Y167960D01*
X52774Y168774D01*
X51960Y169318D01*
X51000Y169509D01*
D02*
G37*
G36*
X31000Y164007D02*
X30232Y163854D01*
X29581Y163419D01*
X28419D01*
X27768Y163854D01*
X27000Y164007D01*
X26232Y163854D01*
X25581Y163419D01*
X24419D01*
X23768Y163854D01*
X23000Y164007D01*
X22232Y163854D01*
X21581Y163419D01*
X20419D01*
X19768Y163854D01*
X19000Y164007D01*
X18232Y163854D01*
X17581Y163419D01*
X16419D01*
X15768Y163854D01*
X15000Y164007D01*
X14232Y163854D01*
X13581Y163419D01*
X12419D01*
X11768Y163854D01*
X11000Y164007D01*
X10232Y163854D01*
X9581Y163419D01*
X9146Y162768D01*
X8993Y162000D01*
X9146Y161232D01*
X9581Y160581D01*
X10232Y160146D01*
X11000Y159993D01*
X11768Y160146D01*
X12419Y160581D01*
X13581D01*
X14232Y160146D01*
X15000Y159993D01*
X15768Y160146D01*
X16419Y160581D01*
X17581D01*
X18232Y160146D01*
X19000Y159993D01*
X19768Y160146D01*
X20419Y160581D01*
X21581D01*
X22232Y160146D01*
X23000Y159993D01*
X23768Y160146D01*
X24419Y160581D01*
X25581D01*
X26232Y160146D01*
X27000Y159993D01*
X27768Y160146D01*
X28419Y160581D01*
X29581D01*
X30232Y160146D01*
X31000Y159993D01*
X31768Y160146D01*
X32419Y160581D01*
X32854Y161232D01*
X33007Y162000D01*
X32854Y162768D01*
X32419Y163419D01*
X31768Y163854D01*
X31000Y164007D01*
D02*
G37*
G36*
X110000Y164509D02*
X109040Y164318D01*
X108226Y163774D01*
X107682Y162960D01*
X107491Y162000D01*
X107682Y161040D01*
X108226Y160226D01*
X109040Y159682D01*
X110000Y159491D01*
X110960Y159682D01*
X111774Y160226D01*
X112318Y161040D01*
X112509Y162000D01*
X112318Y162960D01*
X111774Y163774D01*
X110960Y164318D01*
X110000Y164509D01*
D02*
G37*
G36*
X63000Y162509D02*
X62040Y162318D01*
X61226Y161774D01*
X60682Y160960D01*
X60491Y160000D01*
X60682Y159040D01*
X61226Y158226D01*
X62040Y157682D01*
X63000Y157491D01*
X63960Y157682D01*
X64774Y158226D01*
X65318Y159040D01*
X65509Y160000D01*
X65318Y160960D01*
X64774Y161774D01*
X63960Y162318D01*
X63000Y162509D01*
D02*
G37*
G36*
X51000D02*
X50040Y162318D01*
X49226Y161774D01*
X48682Y160960D01*
X48491Y160000D01*
X48682Y159040D01*
X49226Y158226D01*
X50040Y157682D01*
X51000Y157491D01*
X51960Y157682D01*
X52774Y158226D01*
X53318Y159040D01*
X53509Y160000D01*
X53318Y160960D01*
X52774Y161774D01*
X51960Y162318D01*
X51000Y162509D01*
D02*
G37*
G36*
X110000Y158509D02*
X109040Y158318D01*
X108226Y157774D01*
X107682Y156960D01*
X107491Y156000D01*
X107682Y155040D01*
X108226Y154226D01*
X109040Y153682D01*
X110000Y153491D01*
X110960Y153682D01*
X111774Y154226D01*
X112318Y155040D01*
X112509Y156000D01*
X112318Y156960D01*
X111774Y157774D01*
X110960Y158318D01*
X110000Y158509D01*
D02*
G37*
G36*
X63000Y156509D02*
X62040Y156318D01*
X61226Y155774D01*
X60682Y154960D01*
X60491Y154000D01*
X60682Y153040D01*
X61226Y152226D01*
X62040Y151682D01*
X63000Y151491D01*
X63960Y151682D01*
X64774Y152226D01*
X65318Y153040D01*
X65509Y154000D01*
X65318Y154960D01*
X64774Y155774D01*
X63960Y156318D01*
X63000Y156509D01*
D02*
G37*
G36*
X51000D02*
X50040Y156318D01*
X49226Y155774D01*
X48682Y154960D01*
X48491Y154000D01*
X48682Y153040D01*
X49226Y152226D01*
X50040Y151682D01*
X51000Y151491D01*
X51960Y151682D01*
X52774Y152226D01*
X53318Y153040D01*
X53509Y154000D01*
X53318Y154960D01*
X52774Y155774D01*
X51960Y156318D01*
X51000Y156509D01*
D02*
G37*
G36*
X63000Y68509D02*
X62040Y68318D01*
X61226Y67774D01*
X60682Y66960D01*
X60491Y66000D01*
X60682Y65040D01*
X61226Y64226D01*
X62040Y63682D01*
X63000Y63491D01*
X63960Y63682D01*
X64774Y64226D01*
X65318Y65040D01*
X65509Y66000D01*
X65318Y66960D01*
X64774Y67774D01*
X63960Y68318D01*
X63000Y68509D01*
D02*
G37*
G36*
X51000D02*
X50040Y68318D01*
X49226Y67774D01*
X48682Y66960D01*
X48491Y66000D01*
X48682Y65040D01*
X49226Y64226D01*
X50040Y63682D01*
X51000Y63491D01*
X51960Y63682D01*
X52774Y64226D01*
X53318Y65040D01*
X53509Y66000D01*
X53318Y66960D01*
X52774Y67774D01*
X51960Y68318D01*
X51000Y68509D01*
D02*
G37*
G36*
X110000Y66509D02*
X109040Y66318D01*
X108226Y65774D01*
X107682Y64960D01*
X107491Y64000D01*
X107682Y63040D01*
X108226Y62226D01*
X109040Y61682D01*
X110000Y61491D01*
X110960Y61682D01*
X111774Y62226D01*
X112318Y63040D01*
X112509Y64000D01*
X112318Y64960D01*
X111774Y65774D01*
X110960Y66318D01*
X110000Y66509D01*
D02*
G37*
G36*
X31000Y60007D02*
X30232Y59854D01*
X29581Y59419D01*
X28419D01*
X27768Y59854D01*
X27000Y60007D01*
X26232Y59854D01*
X25581Y59419D01*
X24419D01*
X23768Y59854D01*
X23000Y60007D01*
X22232Y59854D01*
X21581Y59419D01*
X20419D01*
X19768Y59854D01*
X19000Y60007D01*
X18232Y59854D01*
X17581Y59419D01*
X16419D01*
X15768Y59854D01*
X15000Y60007D01*
X14232Y59854D01*
X13581Y59419D01*
X12419D01*
X11768Y59854D01*
X11000Y60007D01*
X10232Y59854D01*
X9581Y59419D01*
X9146Y58768D01*
X8993Y58000D01*
X9146Y57232D01*
X9581Y56581D01*
X10232Y56146D01*
X11000Y55993D01*
X11768Y56146D01*
X12419Y56581D01*
X13581D01*
X14232Y56146D01*
X15000Y55993D01*
X15768Y56146D01*
X16419Y56581D01*
X17581D01*
X18232Y56146D01*
X19000Y55993D01*
X19768Y56146D01*
X20419Y56581D01*
X21581D01*
X22232Y56146D01*
X23000Y55993D01*
X23768Y56146D01*
X24419Y56581D01*
X25581D01*
X26232Y56146D01*
X27000Y55993D01*
X27768Y56146D01*
X28419Y56581D01*
X29581D01*
X30232Y56146D01*
X31000Y55993D01*
X31768Y56146D01*
X32419Y56581D01*
X32854Y57232D01*
X33007Y58000D01*
X32854Y58768D01*
X32419Y59419D01*
X31768Y59854D01*
X31000Y60007D01*
D02*
G37*
G36*
X63000Y61509D02*
X62040Y61318D01*
X61226Y60774D01*
X60682Y59960D01*
X60491Y59000D01*
X60682Y58040D01*
X61226Y57226D01*
X62040Y56682D01*
X63000Y56491D01*
X63960Y56682D01*
X64774Y57226D01*
X65318Y58040D01*
X65509Y59000D01*
X65318Y59960D01*
X64774Y60774D01*
X63960Y61318D01*
X63000Y61509D01*
D02*
G37*
G36*
X51000D02*
X50040Y61318D01*
X49226Y60774D01*
X48682Y59960D01*
X48491Y59000D01*
X48682Y58040D01*
X49226Y57226D01*
X50040Y56682D01*
X51000Y56491D01*
X51960Y56682D01*
X52774Y57226D01*
X53318Y58040D01*
X53509Y59000D01*
X53318Y59960D01*
X52774Y60774D01*
X51960Y61318D01*
X51000Y61509D01*
D02*
G37*
G36*
X110000Y60509D02*
X109040Y60318D01*
X108226Y59774D01*
X107682Y58960D01*
X107491Y58000D01*
X107682Y57040D01*
X108226Y56226D01*
X109040Y55682D01*
X110000Y55491D01*
X110960Y55682D01*
X111774Y56226D01*
X112318Y57040D01*
X112509Y58000D01*
X112318Y58960D01*
X111774Y59774D01*
X110960Y60318D01*
X110000Y60509D01*
D02*
G37*
G36*
X63000Y55509D02*
X62040Y55318D01*
X61226Y54774D01*
X60682Y53960D01*
X60491Y53000D01*
X60682Y52040D01*
X61226Y51226D01*
X62040Y50682D01*
X63000Y50491D01*
X63960Y50682D01*
X64774Y51226D01*
X65318Y52040D01*
X65509Y53000D01*
X65318Y53960D01*
X64774Y54774D01*
X63960Y55318D01*
X63000Y55509D01*
D02*
G37*
G36*
X51000D02*
X50040Y55318D01*
X49226Y54774D01*
X48682Y53960D01*
X48491Y53000D01*
X48682Y52040D01*
X49226Y51226D01*
X50040Y50682D01*
X51000Y50491D01*
X51960Y50682D01*
X52774Y51226D01*
X53318Y52040D01*
X53509Y53000D01*
X53318Y53960D01*
X52774Y54774D01*
X51960Y55318D01*
X51000Y55509D01*
D02*
G37*
G36*
X110000Y54509D02*
X109040Y54318D01*
X108226Y53774D01*
X107682Y52960D01*
X107491Y52000D01*
X107682Y51040D01*
X108226Y50226D01*
X109040Y49682D01*
X110000Y49491D01*
X110960Y49682D01*
X111774Y50226D01*
X112318Y51040D01*
X112509Y52000D01*
X112318Y52960D01*
X111774Y53774D01*
X110960Y54318D01*
X110000Y54509D01*
D02*
G37*
G36*
X64000Y35509D02*
X44000D01*
X43040Y35318D01*
X42226Y34774D01*
X41682Y33960D01*
X41491Y33000D01*
X41682Y32040D01*
X42226Y31226D01*
X43040Y30682D01*
X44000Y30491D01*
X64000D01*
X64960Y30682D01*
X65774Y31226D01*
X66318Y32040D01*
X66509Y33000D01*
X66318Y33960D01*
X65774Y34774D01*
X64960Y35318D01*
X64000Y35509D01*
D02*
G37*
G36*
X39815Y17410D02*
X39083Y17265D01*
X38403Y16810D01*
X37914Y16936D01*
X37403Y17205D01*
Y17403D01*
X35215D01*
Y15015D01*
Y12627D01*
X37403D01*
Y12825D01*
X37914Y13094D01*
X38403Y13220D01*
X39083Y12765D01*
X39815Y12620D01*
Y15015D01*
Y17410D01*
D02*
G37*
G36*
X64815D02*
X64083Y17265D01*
X63293Y16737D01*
X63105Y16456D01*
X61925D01*
X61737Y16737D01*
X60947Y17265D01*
X60215Y17410D01*
Y15015D01*
Y12620D01*
X60947Y12765D01*
X61737Y13293D01*
X61925Y13574D01*
X63105D01*
X63293Y13293D01*
X64083Y12765D01*
X64815Y12620D01*
Y15015D01*
Y17410D01*
D02*
G37*
G36*
X59815D02*
X59083Y17265D01*
X58293Y16737D01*
X58105Y16456D01*
X56925D01*
X56737Y16737D01*
X55947Y17265D01*
X55215Y17410D01*
Y15015D01*
Y12620D01*
X55947Y12765D01*
X56737Y13293D01*
X56925Y13574D01*
X58105D01*
X58293Y13293D01*
X59083Y12765D01*
X59815Y12620D01*
Y15015D01*
Y17410D01*
D02*
G37*
G36*
X54815D02*
X54083Y17265D01*
X53293Y16737D01*
X53105Y16456D01*
X51925D01*
X51737Y16737D01*
X50947Y17265D01*
X50215Y17410D01*
Y15015D01*
Y12620D01*
X50947Y12765D01*
X51737Y13293D01*
X51925Y13574D01*
X53105D01*
X53293Y13293D01*
X54083Y12765D01*
X54815Y12620D01*
Y15015D01*
Y17410D01*
D02*
G37*
G36*
X49815D02*
X49083Y17265D01*
X48293Y16737D01*
X48105Y16456D01*
X46925D01*
X46737Y16737D01*
X45947Y17265D01*
X45215Y17410D01*
Y15015D01*
Y12620D01*
X45947Y12765D01*
X46737Y13293D01*
X46925Y13574D01*
X48105D01*
X48293Y13293D01*
X49083Y12765D01*
X49815Y12620D01*
Y15015D01*
Y17410D01*
D02*
G37*
G36*
X44815D02*
X44083Y17265D01*
X43293Y16737D01*
X43105Y16456D01*
X41925D01*
X41737Y16737D01*
X40947Y17265D01*
X40215Y17410D01*
Y15015D01*
Y12620D01*
X40947Y12765D01*
X41737Y13293D01*
X41925Y13574D01*
X43105D01*
X43293Y13293D01*
X44083Y12765D01*
X44815Y12620D01*
Y15015D01*
Y17410D01*
D02*
G37*
G36*
X34815Y17403D02*
X32627D01*
Y15215D01*
X34815D01*
Y17403D01*
D02*
G37*
G36*
Y14815D02*
X32627D01*
Y12627D01*
X34815D01*
Y14815D01*
D02*
G37*
G36*
X352675Y197244D02*
X351892D01*
X351168Y196944D01*
X350614Y196391D01*
X350315Y195667D01*
Y194884D01*
X350614Y194160D01*
X351168Y193607D01*
X351892Y193307D01*
X352675D01*
X353398Y193607D01*
X353952Y194160D01*
X354252Y194884D01*
Y195667D01*
X353952Y196391D01*
X353398Y196944D01*
X352675Y197244D01*
D02*
G37*
G36*
X340864D02*
X340081D01*
X339357Y196944D01*
X338803Y196391D01*
X338504Y195667D01*
Y194884D01*
X338803Y194160D01*
X339357Y193607D01*
X340081Y193307D01*
X340864D01*
X341587Y193607D01*
X342141Y194160D01*
X342441Y194884D01*
Y195667D01*
X342141Y196391D01*
X341587Y196944D01*
X340864Y197244D01*
D02*
G37*
G36*
X375992Y217598D02*
X374008D01*
X372050Y217288D01*
X370164Y216675D01*
X368397Y215775D01*
X366793Y214610D01*
X365390Y213207D01*
X364225Y211603D01*
X363325Y209836D01*
X362712Y207950D01*
X362402Y205992D01*
Y204009D01*
X362712Y202050D01*
X363325Y200164D01*
X364225Y198397D01*
X365390Y196793D01*
X366793Y195390D01*
X368397Y194225D01*
X370164Y193325D01*
X372050Y192712D01*
X374008Y192402D01*
X375992D01*
X377950Y192712D01*
X379836Y193325D01*
X381603Y194225D01*
X383207Y195390D01*
X384610Y196793D01*
X385775Y198397D01*
X386675Y200164D01*
X387288Y202050D01*
X387598Y204009D01*
Y205992D01*
X387288Y207950D01*
X386675Y209836D01*
X385775Y211603D01*
X384610Y213207D01*
X383207Y214610D01*
X381603Y215775D01*
X379836Y216675D01*
X377950Y217288D01*
X375992Y217598D01*
D02*
G37*
G36*
X259609Y189619D02*
X258826D01*
X258103Y189319D01*
X257549Y188765D01*
X257249Y188041D01*
Y187258D01*
X257549Y186535D01*
X258103Y185981D01*
X258826Y185681D01*
X259609D01*
X260333Y185981D01*
X260887Y186535D01*
X261186Y187258D01*
Y188041D01*
X260887Y188765D01*
X260333Y189319D01*
X259609Y189619D01*
D02*
G37*
G36*
X252247D02*
X251464D01*
X250741Y189319D01*
X250187Y188765D01*
X249887Y188041D01*
Y187258D01*
X250187Y186535D01*
X250741Y185981D01*
X251464Y185681D01*
X252247D01*
X252971Y185981D01*
X253524Y186535D01*
X253824Y187258D01*
Y188041D01*
X253524Y188765D01*
X252971Y189319D01*
X252247Y189619D01*
D02*
G37*
G36*
X284392Y185968D02*
X283608D01*
X282885Y185669D01*
X282331Y185115D01*
X282031Y184392D01*
Y183608D01*
X282331Y182885D01*
X282885Y182331D01*
X283608Y182032D01*
X284392D01*
X285115Y182331D01*
X285220Y182436D01*
X285654Y182349D01*
X286208Y181796D01*
X286931Y181496D01*
X287714D01*
X288438Y181796D01*
X288991Y182349D01*
X289291Y183073D01*
Y183856D01*
X288991Y184580D01*
X288438Y185133D01*
X287714Y185433D01*
X286931D01*
X286208Y185133D01*
X286103Y185029D01*
X285669Y185115D01*
X285115Y185669D01*
X284392Y185968D01*
D02*
G37*
G36*
X346769Y185433D02*
X345986D01*
X345263Y185133D01*
X344709Y184580D01*
X344409Y183856D01*
Y183073D01*
X344694Y182384D01*
X344628Y182252D01*
X344447Y182036D01*
X344383Y181968D01*
X343608D01*
X342885Y181669D01*
X342331Y181115D01*
X342271Y180969D01*
X341729D01*
X341669Y181115D01*
X341115Y181669D01*
X340392Y181968D01*
X339608D01*
X338885Y181669D01*
X338331Y181115D01*
X338032Y180392D01*
Y179608D01*
X338331Y178885D01*
X338885Y178331D01*
X339608Y178032D01*
X340392D01*
X341115Y178331D01*
X341669Y178885D01*
X341729Y179031D01*
X342271D01*
X342331Y178885D01*
X342885Y178331D01*
X343608Y178032D01*
X344392D01*
X345115Y178331D01*
X345669Y178885D01*
X345969Y179608D01*
Y180392D01*
X345683Y181080D01*
X345750Y181213D01*
X345930Y181429D01*
X345995Y181496D01*
X346769D01*
X347493Y181796D01*
X348046Y182349D01*
X348346Y183073D01*
Y183856D01*
X348046Y184580D01*
X347493Y185133D01*
X346769Y185433D01*
D02*
G37*
G36*
X257936Y180318D02*
X257153D01*
X256429Y180019D01*
X255876Y179465D01*
X255576Y178742D01*
Y177959D01*
X255876Y177235D01*
X256429Y176681D01*
X257153Y176382D01*
X257936D01*
X258660Y176681D01*
X259213Y177235D01*
X259513Y177959D01*
Y178742D01*
X259213Y179465D01*
X258660Y180019D01*
X257936Y180318D01*
D02*
G37*
G36*
X250574D02*
X249791D01*
X249067Y180019D01*
X248513Y179465D01*
X248214Y178742D01*
Y177959D01*
X248513Y177235D01*
X249067Y176681D01*
X249791Y176382D01*
X250574D01*
X251297Y176681D01*
X251851Y177235D01*
X252151Y177959D01*
Y178742D01*
X251851Y179465D01*
X251297Y180019D01*
X250574Y180318D01*
D02*
G37*
G36*
X276792Y176316D02*
X276009D01*
X275285Y176016D01*
X274731Y175462D01*
X274432Y174739D01*
Y173956D01*
X274731Y173232D01*
X275285Y172678D01*
X276009Y172379D01*
X276792D01*
X277515Y172678D01*
X278069Y173232D01*
X278369Y173956D01*
Y174739D01*
X278069Y175462D01*
X277515Y176016D01*
X276792Y176316D01*
D02*
G37*
G36*
X264053Y176222D02*
X263270D01*
X262547Y175923D01*
X261993Y175369D01*
X261693Y174645D01*
Y173862D01*
X261993Y173139D01*
X262547Y172585D01*
X263270Y172285D01*
X264053D01*
X264777Y172585D01*
X265331Y173139D01*
X265630Y173862D01*
Y174645D01*
X265331Y175369D01*
X264777Y175923D01*
X264053Y176222D01*
D02*
G37*
G36*
X333500Y180204D02*
X297500D01*
X297039Y180113D01*
X296649Y179851D01*
X296387Y179461D01*
X296296Y179000D01*
Y158000D01*
X296387Y157539D01*
X296649Y157149D01*
X297039Y156887D01*
X297500Y156796D01*
X298305D01*
X298512Y156296D01*
X298331Y156115D01*
X298031Y155392D01*
Y154608D01*
X298331Y153885D01*
X298885Y153331D01*
X299608Y153032D01*
X300392D01*
X301115Y153331D01*
X301669Y153885D01*
X301729Y154031D01*
X302271D01*
X302331Y153885D01*
X302885Y153331D01*
X303608Y153032D01*
X304392D01*
X305115Y153331D01*
X305296Y153512D01*
X305796Y153305D01*
Y149000D01*
X305796Y149000D01*
X305887Y148539D01*
X306149Y148149D01*
X307648Y146649D01*
X308039Y146387D01*
X308500Y146296D01*
X308500Y146296D01*
X311501D01*
X311749Y146048D01*
Y142591D01*
X311840Y142130D01*
X312101Y141739D01*
X312492Y141478D01*
X312953Y141386D01*
X313414Y141478D01*
X313804Y141739D01*
X314065Y142130D01*
X314157Y142591D01*
Y143000D01*
X317654D01*
Y142591D01*
X317746Y142130D01*
X318007Y141739D01*
X318397Y141478D01*
X318858Y141386D01*
X319319Y141478D01*
X319710Y141739D01*
X319971Y142130D01*
X320062Y142591D01*
Y151859D01*
X323999Y155796D01*
X331000D01*
X331000Y155796D01*
X331461Y155887D01*
X331852Y156149D01*
X334351Y158649D01*
X334351Y158649D01*
X334613Y159039D01*
X334704Y159500D01*
Y160092D01*
X335204Y160191D01*
X335331Y159885D01*
X335885Y159331D01*
X336608Y159031D01*
X337392D01*
X338115Y159331D01*
X338669Y159885D01*
X338968Y160608D01*
Y161392D01*
X338669Y162115D01*
X338115Y162669D01*
X337392Y162969D01*
X336608D01*
X335885Y162669D01*
X335331Y162115D01*
X335204Y161809D01*
X334704Y161908D01*
Y173092D01*
X335204Y173191D01*
X335331Y172885D01*
X335885Y172331D01*
X336608Y172031D01*
X337392D01*
X338115Y172331D01*
X338669Y172885D01*
X338968Y173608D01*
Y174392D01*
X338669Y175115D01*
X338115Y175669D01*
X337392Y175969D01*
X336608D01*
X335885Y175669D01*
X335331Y175115D01*
X335204Y174809D01*
X334704Y174908D01*
Y179000D01*
X334613Y179461D01*
X334351Y179851D01*
X333961Y180113D01*
X333500Y180204D01*
D02*
G37*
G36*
X258187Y173622D02*
X257403D01*
X256680Y173322D01*
X256126Y172768D01*
X255827Y172045D01*
Y171262D01*
X256126Y170538D01*
X256680Y169985D01*
X257403Y169685D01*
X258187D01*
X258910Y169985D01*
X259464Y170538D01*
X259764Y171262D01*
Y172045D01*
X259464Y172768D01*
X258910Y173322D01*
X258187Y173622D01*
D02*
G37*
G36*
X269259Y171016D02*
X268476D01*
X267753Y170717D01*
X267199Y170163D01*
X266899Y169439D01*
Y168656D01*
X267199Y167933D01*
X267753Y167379D01*
X268476Y167079D01*
X269259D01*
X269983Y167379D01*
X270536Y167933D01*
X270836Y168656D01*
Y169439D01*
X270536Y170163D01*
X269983Y170717D01*
X269259Y171016D01*
D02*
G37*
G36*
X281822Y170940D02*
X281039D01*
X280316Y170641D01*
X279762Y170087D01*
X279462Y169363D01*
Y168580D01*
X279762Y167857D01*
X280316Y167303D01*
X281039Y167003D01*
X281822D01*
X282546Y167303D01*
X283100Y167857D01*
X283399Y168580D01*
Y169363D01*
X283100Y170087D01*
X282546Y170641D01*
X281822Y170940D01*
D02*
G37*
G36*
X366392Y165969D02*
X365608D01*
X364885Y165669D01*
X364331Y165115D01*
X364032Y164392D01*
Y163608D01*
X364331Y162885D01*
X364885Y162331D01*
X365608Y162031D01*
X366392D01*
X367115Y162331D01*
X367669Y162885D01*
X367969Y163608D01*
Y164392D01*
X367669Y165115D01*
X367115Y165669D01*
X366392Y165969D01*
D02*
G37*
G36*
X272742Y164530D02*
X271958D01*
X271235Y164230D01*
X270681Y163676D01*
X270381Y162953D01*
Y162170D01*
X270681Y161446D01*
X271235Y160892D01*
X271958Y160593D01*
X272742D01*
X273465Y160892D01*
X274019Y161446D01*
X274319Y162170D01*
Y162953D01*
X274019Y163676D01*
X273465Y164230D01*
X272742Y164530D01*
D02*
G37*
G36*
X282042Y163581D02*
X281258D01*
X280535Y163282D01*
X279981Y162728D01*
X279681Y162004D01*
Y161221D01*
X279981Y160498D01*
X280535Y159944D01*
X281258Y159644D01*
X282042D01*
X282765Y159944D01*
X283319Y160498D01*
X283618Y161221D01*
Y162004D01*
X283319Y162728D01*
X282765Y163282D01*
X282042Y163581D01*
D02*
G37*
G36*
X264092Y161811D02*
X263309D01*
X262585Y161511D01*
X262032Y160958D01*
X261732Y160234D01*
Y159451D01*
X262032Y158727D01*
X262585Y158174D01*
X263309Y157874D01*
X264092D01*
X264816Y158174D01*
X265369Y158727D01*
X265669Y159451D01*
Y160234D01*
X265369Y160958D01*
X264816Y161511D01*
X264092Y161811D01*
D02*
G37*
G36*
X252281D02*
X251498D01*
X250775Y161511D01*
X250221Y160958D01*
X249921Y160234D01*
Y159451D01*
X250221Y158727D01*
X250775Y158174D01*
X251498Y157874D01*
X252281D01*
X253005Y158174D01*
X253558Y158727D01*
X253858Y159451D01*
Y160234D01*
X253558Y160958D01*
X253005Y161511D01*
X252281Y161811D01*
D02*
G37*
G36*
X288843Y160764D02*
X288060D01*
X287337Y160465D01*
X286783Y159911D01*
X286483Y159187D01*
Y158404D01*
X286783Y157681D01*
X287337Y157127D01*
X288060Y156827D01*
X288843D01*
X289567Y157127D01*
X290121Y157681D01*
X290420Y158404D01*
Y159187D01*
X290121Y159911D01*
X289567Y160465D01*
X288843Y160764D01*
D02*
G37*
G36*
X281211Y157818D02*
X280428D01*
X279705Y157519D01*
X279151Y156965D01*
X278851Y156242D01*
Y155458D01*
X279151Y154735D01*
X279705Y154181D01*
X280428Y153882D01*
X281211D01*
X281935Y154181D01*
X282488Y154735D01*
X282788Y155458D01*
Y156242D01*
X282488Y156965D01*
X281935Y157519D01*
X281211Y157818D01*
D02*
G37*
G36*
X295392Y155968D02*
X294608D01*
X293885Y155669D01*
X293331Y155115D01*
X293032Y154392D01*
Y153608D01*
X293331Y152885D01*
X293885Y152331D01*
X294608Y152032D01*
X295392D01*
X296115Y152331D01*
X296669Y152885D01*
X296969Y153608D01*
Y154392D01*
X296669Y155115D01*
X296115Y155669D01*
X295392Y155968D01*
D02*
G37*
G36*
X336392Y155468D02*
X335608D01*
X334885Y155169D01*
X334331Y154615D01*
X334032Y153892D01*
Y153108D01*
X334331Y152385D01*
X334885Y151831D01*
X335608Y151532D01*
X336392D01*
X337115Y151831D01*
X337669Y152385D01*
X337968Y153108D01*
Y153892D01*
X337669Y154615D01*
X337115Y155169D01*
X336392Y155468D01*
D02*
G37*
G36*
X366392Y147468D02*
X365608D01*
X364885Y147169D01*
X364331Y146615D01*
X364032Y145892D01*
Y145108D01*
X364331Y144385D01*
X364885Y143831D01*
X365608Y143532D01*
X366392D01*
X367115Y143831D01*
X367669Y144385D01*
X367969Y145108D01*
Y145892D01*
X367669Y146615D01*
X367115Y147169D01*
X366392Y147468D01*
D02*
G37*
G36*
X282892Y151969D02*
X282108D01*
X281385Y151669D01*
X280831Y151115D01*
X280532Y150392D01*
Y149608D01*
X280831Y148885D01*
X281385Y148331D01*
X281531Y148271D01*
Y147729D01*
X281385Y147669D01*
X280831Y147115D01*
X280532Y146392D01*
Y145608D01*
X280831Y144885D01*
X281385Y144331D01*
X282108Y144032D01*
X282892D01*
X283331Y144213D01*
X283713Y143831D01*
X283531Y143392D01*
Y142608D01*
X283831Y141885D01*
X284385Y141331D01*
X285108Y141032D01*
X285892D01*
X286615Y141331D01*
X287169Y141885D01*
X287469Y142608D01*
Y143392D01*
X287169Y144115D01*
X286615Y144669D01*
X285892Y144968D01*
X285108D01*
X284669Y144787D01*
X284287Y145169D01*
X284469Y145608D01*
Y146392D01*
X284169Y147115D01*
X283615Y147669D01*
X283469Y147729D01*
Y148271D01*
X283615Y148331D01*
X284169Y148885D01*
X284469Y149608D01*
Y150392D01*
X284169Y151115D01*
X283615Y151669D01*
X282892Y151969D01*
D02*
G37*
G36*
X255989Y142961D02*
X255011D01*
X254106Y142586D01*
X253414Y141894D01*
X253039Y140989D01*
Y140010D01*
X253414Y139106D01*
X254106Y138414D01*
X255011Y138039D01*
X255989D01*
X256894Y138414D01*
X257586Y139106D01*
X257961Y140010D01*
Y140989D01*
X257586Y141894D01*
X256894Y142586D01*
X255989Y142961D01*
D02*
G37*
G36*
X275392Y144468D02*
X274608D01*
X273885Y144169D01*
X273331Y143615D01*
X273031Y142892D01*
Y142108D01*
X273331Y141385D01*
X273885Y140831D01*
X274031Y140771D01*
Y140229D01*
X273885Y140169D01*
X273331Y139615D01*
X273031Y138892D01*
Y138108D01*
X273331Y137385D01*
X273885Y136831D01*
X274608Y136531D01*
X275392D01*
X276115Y136831D01*
X276669Y137385D01*
X276969Y138108D01*
Y138892D01*
X276669Y139615D01*
X276115Y140169D01*
X275969Y140229D01*
Y140771D01*
X276115Y140831D01*
X276669Y141385D01*
X276969Y142108D01*
Y142892D01*
X276669Y143615D01*
X276115Y144169D01*
X275392Y144468D01*
D02*
G37*
G36*
X266392Y138469D02*
X265608D01*
X264885Y138169D01*
X264331Y137615D01*
X264032Y136892D01*
Y136108D01*
X264331Y135385D01*
X264885Y134831D01*
X265608Y134531D01*
X266392D01*
X267115Y134831D01*
X267669Y135385D01*
X267969Y136108D01*
Y136892D01*
X267669Y137615D01*
X267115Y138169D01*
X266392Y138469D01*
D02*
G37*
G36*
X261392D02*
X260608D01*
X259885Y138169D01*
X259331Y137615D01*
X259032Y136892D01*
Y136108D01*
X259331Y135385D01*
X259885Y134831D01*
X260608Y134531D01*
X261392D01*
X262115Y134831D01*
X262669Y135385D01*
X262968Y136108D01*
Y136892D01*
X262669Y137615D01*
X262115Y138169D01*
X261392Y138469D01*
D02*
G37*
G36*
X313392Y137969D02*
X312608D01*
X311885Y137669D01*
X311331Y137115D01*
X311032Y136392D01*
Y135608D01*
X311331Y134885D01*
X311885Y134331D01*
X312608Y134031D01*
X313392D01*
X314115Y134331D01*
X314669Y134885D01*
X314968Y135608D01*
Y136392D01*
X314669Y137115D01*
X314115Y137669D01*
X313392Y137969D01*
D02*
G37*
G36*
X272892Y136469D02*
X272108D01*
X271385Y136169D01*
X270831Y135615D01*
X270532Y134892D01*
Y134108D01*
X270831Y133385D01*
X271385Y132831D01*
X272108Y132531D01*
X272892D01*
X273615Y132831D01*
X274169Y133385D01*
X274468Y134108D01*
Y134892D01*
X274169Y135615D01*
X273615Y136169D01*
X272892Y136469D01*
D02*
G37*
G36*
X326892Y132968D02*
X326108D01*
X325385Y132669D01*
X324831Y132115D01*
X324771Y131969D01*
X324229D01*
X324169Y132115D01*
X323615Y132669D01*
X322892Y132968D01*
X322108D01*
X321385Y132669D01*
X320831Y132115D01*
X320532Y131392D01*
Y130608D01*
X320831Y129885D01*
X321385Y129331D01*
X322108Y129032D01*
X322892D01*
X323615Y129331D01*
X324169Y129885D01*
X324229Y130031D01*
X324771D01*
X324831Y129885D01*
X325385Y129331D01*
X326108Y129032D01*
X326892D01*
X327615Y129331D01*
X328169Y129885D01*
X328468Y130608D01*
Y131392D01*
X328169Y132115D01*
X327615Y132669D01*
X326892Y132968D01*
D02*
G37*
G36*
X345892Y135468D02*
X345108D01*
X344385Y135169D01*
X343831Y134615D01*
X343531Y133892D01*
Y133108D01*
X343831Y132385D01*
X344385Y131831D01*
X345108Y131532D01*
X345892D01*
X346615Y131831D01*
X347169Y132385D01*
X347468Y133108D01*
Y133892D01*
X347169Y134615D01*
X346615Y135169D01*
X345892Y135468D01*
D02*
G37*
G36*
X303392Y137469D02*
X302608D01*
X301885Y137169D01*
X301331Y136615D01*
X301031Y135892D01*
Y135108D01*
X301331Y134385D01*
X301885Y133831D01*
X302608Y133531D01*
X303392D01*
X303646Y133637D01*
X303929Y133213D01*
X303831Y133115D01*
X303532Y132392D01*
Y131608D01*
X303831Y130885D01*
X304385Y130331D01*
X305108Y130032D01*
X305892D01*
X306615Y130331D01*
X307169Y130885D01*
X307469Y131608D01*
Y132392D01*
X307169Y133115D01*
X306615Y133669D01*
X305892Y133968D01*
X305108D01*
X304854Y133863D01*
X304571Y134287D01*
X304669Y134385D01*
X304969Y135108D01*
Y135892D01*
X304669Y136615D01*
X304115Y137169D01*
X303392Y137469D01*
D02*
G37*
G36*
X278892Y132968D02*
X278108D01*
X277385Y132669D01*
X276831Y132115D01*
X276532Y131392D01*
Y130608D01*
X276831Y129885D01*
X277385Y129331D01*
X278108Y129032D01*
X278892D01*
X279615Y129331D01*
X280169Y129885D01*
X280469Y130608D01*
Y131392D01*
X280169Y132115D01*
X279615Y132669D01*
X278892Y132968D01*
D02*
G37*
G36*
X309283Y129437D02*
X308500D01*
X307776Y129137D01*
X307223Y128584D01*
X306923Y127860D01*
Y127077D01*
X307105Y126638D01*
X306722Y126255D01*
X306283Y126437D01*
X305500D01*
X304777Y126137D01*
X304223Y125584D01*
X304162Y125437D01*
X303621D01*
X303560Y125584D01*
X303007Y126137D01*
X302283Y126437D01*
X301500D01*
X300777Y126137D01*
X300223Y125584D01*
X299923Y124860D01*
Y124077D01*
X300223Y123353D01*
X300777Y122800D01*
X301500Y122500D01*
X302283D01*
X303007Y122800D01*
X303560Y123353D01*
X303621Y123500D01*
X304162D01*
X304223Y123353D01*
X304777Y122800D01*
X305500Y122500D01*
X306283D01*
X307007Y122800D01*
X307560Y123353D01*
X307860Y124077D01*
Y124860D01*
X307678Y125299D01*
X308061Y125682D01*
X308500Y125500D01*
X309283D01*
X310007Y125800D01*
X310560Y126353D01*
X310860Y127077D01*
Y127860D01*
X310560Y128584D01*
X310007Y129137D01*
X309283Y129437D01*
D02*
G37*
G36*
X277392Y128469D02*
X276608D01*
X275885Y128169D01*
X275331Y127615D01*
X275031Y126892D01*
Y126108D01*
X275331Y125385D01*
X275885Y124831D01*
X276608Y124531D01*
X277392D01*
X278115Y124831D01*
X278669Y125385D01*
X278969Y126108D01*
Y126892D01*
X278669Y127615D01*
X278115Y128169D01*
X277392Y128469D01*
D02*
G37*
G36*
X270392D02*
X269608D01*
X268885Y128169D01*
X268331Y127615D01*
X268032Y126892D01*
Y126108D01*
X268331Y125385D01*
X268885Y124831D01*
X269608Y124531D01*
X270392D01*
X271115Y124831D01*
X271669Y125385D01*
X271969Y126108D01*
Y126892D01*
X271669Y127615D01*
X271115Y128169D01*
X270392Y128469D01*
D02*
G37*
G36*
X337892Y125894D02*
X337108D01*
X336385Y125594D01*
X335831Y125040D01*
X335531Y124317D01*
Y123534D01*
X335831Y122810D01*
X336385Y122256D01*
X337108Y121957D01*
X337892D01*
X338615Y122256D01*
X339169Y122810D01*
X339469Y123534D01*
Y124317D01*
X339169Y125040D01*
X338615Y125594D01*
X337892Y125894D01*
D02*
G37*
G36*
X320892Y124921D02*
X320108D01*
X319385Y124622D01*
X318831Y124068D01*
X318531Y123344D01*
Y122561D01*
X318831Y121838D01*
X319385Y121284D01*
X320108Y120984D01*
X320892D01*
X321615Y121284D01*
X322169Y121838D01*
X322468Y122561D01*
Y123344D01*
X322169Y124068D01*
X321615Y124622D01*
X320892Y124921D01*
D02*
G37*
G36*
X295392Y122968D02*
X294608D01*
X293885Y122669D01*
X293331Y122115D01*
X293032Y121392D01*
Y120608D01*
X293331Y119885D01*
X293885Y119331D01*
X294608Y119032D01*
X295392D01*
X296115Y119331D01*
X296669Y119885D01*
X296969Y120608D01*
Y121392D01*
X296669Y122115D01*
X296115Y122669D01*
X295392Y122968D01*
D02*
G37*
G36*
X345892Y122587D02*
X345108D01*
X344385Y122287D01*
X343831Y121733D01*
X343531Y121010D01*
Y120227D01*
X343831Y119503D01*
X344385Y118949D01*
X345108Y118650D01*
X345892D01*
X346615Y118949D01*
X347169Y119503D01*
X347468Y120227D01*
Y121010D01*
X347169Y121733D01*
X346615Y122287D01*
X345892Y122587D01*
D02*
G37*
G36*
X300892Y121468D02*
X300108D01*
X299385Y121169D01*
X298831Y120615D01*
X298532Y119892D01*
Y119108D01*
X298831Y118385D01*
X299385Y117831D01*
X300108Y117532D01*
X300892D01*
X301615Y117831D01*
X302169Y118385D01*
X302468Y119108D01*
Y119892D01*
X302169Y120615D01*
X301615Y121169D01*
X300892Y121468D01*
D02*
G37*
G36*
X326392Y119016D02*
X325608D01*
X324885Y118716D01*
X324331Y118162D01*
X324031Y117439D01*
Y116656D01*
X324331Y115932D01*
X324885Y115378D01*
X325608Y115079D01*
X326392D01*
X327115Y115378D01*
X327669Y115932D01*
X327969Y116656D01*
Y117439D01*
X327669Y118162D01*
X327115Y118716D01*
X326392Y119016D01*
D02*
G37*
G36*
X320892D02*
X320108D01*
X319385Y118716D01*
X318831Y118162D01*
X318531Y117439D01*
Y116656D01*
X318831Y115932D01*
X319385Y115378D01*
X320108Y115079D01*
X320892D01*
X321615Y115378D01*
X322169Y115932D01*
X322468Y116656D01*
Y117439D01*
X322169Y118162D01*
X321615Y118716D01*
X320892Y119016D01*
D02*
G37*
G36*
X297392Y117968D02*
X296608D01*
X295885Y117669D01*
X295331Y117115D01*
X295031Y116392D01*
Y115608D01*
X295331Y114885D01*
X295885Y114331D01*
X296608Y114032D01*
X297392D01*
X298115Y114331D01*
X298669Y114885D01*
X298969Y115608D01*
Y116392D01*
X298669Y117115D01*
X298115Y117669D01*
X297392Y117968D01*
D02*
G37*
G36*
X294392Y113969D02*
X293608D01*
X292885Y113669D01*
X292331Y113115D01*
X292032Y112392D01*
Y111608D01*
X292331Y110885D01*
X292885Y110331D01*
X293608Y110031D01*
X294392D01*
X295115Y110331D01*
X295669Y110885D01*
X295969Y111608D01*
Y112392D01*
X295669Y113115D01*
X295115Y113669D01*
X294392Y113969D01*
D02*
G37*
G36*
X263892Y109468D02*
X263108D01*
X262385Y109169D01*
X261831Y108615D01*
X261531Y107892D01*
Y107108D01*
X261831Y106385D01*
X262385Y105831D01*
X263108Y105532D01*
X263892D01*
X264615Y105831D01*
X265169Y106385D01*
X265469Y107108D01*
Y107892D01*
X265169Y108615D01*
X264615Y109169D01*
X263892Y109468D01*
D02*
G37*
G36*
X281892Y118468D02*
X281108D01*
X280385Y118169D01*
X279831Y117615D01*
X279532Y116892D01*
Y116108D01*
X279831Y115385D01*
X280256Y114961D01*
X280078Y114461D01*
X279173Y114086D01*
X278481Y113394D01*
X278106Y112489D01*
Y111511D01*
X278481Y110606D01*
X279173Y109914D01*
X280078Y109539D01*
X280186D01*
X280285Y109039D01*
X279885Y108873D01*
X279331Y108320D01*
X279031Y107596D01*
Y106813D01*
X279331Y106090D01*
X279885Y105536D01*
X280608Y105236D01*
X281392D01*
X282115Y105536D01*
X282669Y106090D01*
X282968Y106813D01*
Y107596D01*
X282669Y108320D01*
X282115Y108873D01*
X281435Y109155D01*
X281388Y109308D01*
X281380Y109673D01*
X281961Y109914D01*
X282653Y110606D01*
X283028Y111511D01*
Y112489D01*
X282653Y113394D01*
X281979Y114068D01*
X281977Y114076D01*
X281981Y114216D01*
X282042Y114594D01*
X282615Y114831D01*
X283169Y115385D01*
X283469Y116108D01*
Y116892D01*
X283169Y117615D01*
X282615Y118169D01*
X281892Y118468D01*
D02*
G37*
G36*
X270809Y108323D02*
X270025D01*
X269302Y108024D01*
X268748Y107470D01*
X268448Y106746D01*
Y105963D01*
X268748Y105240D01*
X269302Y104686D01*
X270025Y104386D01*
X270809D01*
X271532Y104686D01*
X272086Y105240D01*
X272386Y105963D01*
Y106746D01*
X272086Y107470D01*
X271532Y108024D01*
X270809Y108323D01*
D02*
G37*
G36*
X318392Y107468D02*
X317608D01*
X316885Y107169D01*
X316331Y106615D01*
X316032Y105892D01*
Y105108D01*
X316331Y104385D01*
X316885Y103831D01*
X317608Y103532D01*
X318392D01*
X319115Y103831D01*
X319669Y104385D01*
X319969Y105108D01*
Y105892D01*
X319669Y106615D01*
X319115Y107169D01*
X318392Y107468D01*
D02*
G37*
G36*
X340892Y106468D02*
X340108D01*
X339385Y106169D01*
X338831Y105615D01*
X338531Y104892D01*
Y104108D01*
X338831Y103385D01*
X339385Y102831D01*
X340108Y102532D01*
X340892D01*
X341615Y102831D01*
X342169Y103385D01*
X342469Y104108D01*
Y104892D01*
X342169Y105615D01*
X341615Y106169D01*
X340892Y106468D01*
D02*
G37*
G36*
X304392Y117968D02*
X303608D01*
X302885Y117669D01*
X302331Y117115D01*
X302031Y116392D01*
Y115608D01*
X302331Y114885D01*
X302885Y114331D01*
X303031Y114271D01*
Y113729D01*
X302885Y113669D01*
X302331Y113115D01*
X302031Y112392D01*
Y111608D01*
X302331Y110885D01*
X302885Y110331D01*
X303031Y110271D01*
Y109729D01*
X302885Y109669D01*
X302331Y109115D01*
X302031Y108392D01*
Y107608D01*
X302331Y106885D01*
X302885Y106331D01*
X303031Y106271D01*
Y105729D01*
X302885Y105669D01*
X302331Y105115D01*
X302031Y104392D01*
Y103608D01*
X302331Y102885D01*
X302885Y102331D01*
X303608Y102032D01*
X304392D01*
X305115Y102331D01*
X305669Y102885D01*
X305968Y103608D01*
Y104392D01*
X305669Y105115D01*
X305115Y105669D01*
X304969Y105729D01*
Y106271D01*
X305115Y106331D01*
X305669Y106885D01*
X305968Y107608D01*
Y108392D01*
X305669Y109115D01*
X305115Y109669D01*
X304969Y109729D01*
Y110271D01*
X305115Y110331D01*
X305669Y110885D01*
X305968Y111608D01*
Y112392D01*
X305669Y113115D01*
X305115Y113669D01*
X304969Y113729D01*
Y114271D01*
X305115Y114331D01*
X305669Y114885D01*
X305968Y115608D01*
Y116392D01*
X305669Y117115D01*
X305115Y117669D01*
X304392Y117968D01*
D02*
G37*
G36*
X359392Y105165D02*
X358608D01*
X357885Y104866D01*
X357331Y104312D01*
X357031Y103588D01*
Y102805D01*
X357331Y102082D01*
X357885Y101528D01*
X358608Y101228D01*
X359392D01*
X360115Y101528D01*
X360669Y102082D01*
X360968Y102805D01*
Y103588D01*
X360669Y104312D01*
X360115Y104866D01*
X359392Y105165D01*
D02*
G37*
G36*
X274077Y103873D02*
X273098D01*
X272193Y103499D01*
X271501Y102806D01*
X271127Y101902D01*
Y100923D01*
X271501Y100019D01*
X272193Y99327D01*
X273098Y98952D01*
X274077D01*
X274981Y99327D01*
X275673Y100019D01*
X276048Y100923D01*
Y101902D01*
X275673Y102806D01*
X274981Y103499D01*
X274077Y103873D01*
D02*
G37*
G36*
X268242Y101423D02*
X267459D01*
X266735Y101123D01*
X266181Y100570D01*
X265881Y99846D01*
Y99063D01*
X266181Y98339D01*
X266735Y97786D01*
X267459Y97486D01*
X268242D01*
X268965Y97786D01*
X269519Y98339D01*
X269818Y99063D01*
Y99846D01*
X269519Y100570D01*
X268965Y101123D01*
X268242Y101423D01*
D02*
G37*
G36*
X354392Y99468D02*
X353608D01*
X352885Y99169D01*
X352331Y98615D01*
X352031Y97892D01*
Y97108D01*
X352331Y96385D01*
X352885Y95831D01*
X353608Y95531D01*
X354392D01*
X355115Y95831D01*
X355669Y96385D01*
X355968Y97108D01*
Y97892D01*
X355669Y98615D01*
X355115Y99169D01*
X354392Y99468D01*
D02*
G37*
G36*
X289392Y96469D02*
X288608D01*
X287885Y96169D01*
X287331Y95615D01*
X287032Y94892D01*
Y94108D01*
X287331Y93385D01*
X287885Y92831D01*
X288608Y92532D01*
X289392D01*
X290115Y92831D01*
X290669Y93385D01*
X290968Y94108D01*
Y94892D01*
X290669Y95615D01*
X290115Y96169D01*
X289392Y96469D01*
D02*
G37*
G36*
X277541Y94711D02*
X276758D01*
X276035Y94411D01*
X275481Y93858D01*
X275182Y93134D01*
Y92351D01*
X275481Y91628D01*
X276035Y91074D01*
X276758Y90774D01*
X277541D01*
X278265Y91074D01*
X278819Y91628D01*
X279118Y92351D01*
Y93134D01*
X278819Y93858D01*
X278265Y94411D01*
X277541Y94711D01*
D02*
G37*
G36*
X268242Y94061D02*
X267459D01*
X266735Y93761D01*
X266181Y93207D01*
X265881Y92484D01*
Y91701D01*
X266181Y90977D01*
X266735Y90424D01*
X267459Y90124D01*
X268242D01*
X268965Y90424D01*
X269519Y90977D01*
X269818Y91701D01*
Y92484D01*
X269519Y93207D01*
X268965Y93761D01*
X268242Y94061D01*
D02*
G37*
G36*
X313892Y92469D02*
X313108D01*
X312385Y92169D01*
X311831Y91615D01*
X311531Y90892D01*
Y90108D01*
X311831Y89385D01*
X312385Y88831D01*
X313108Y88532D01*
X313892D01*
X314615Y88831D01*
X315169Y89385D01*
X315469Y90108D01*
Y90892D01*
X315169Y91615D01*
X314615Y92169D01*
X313892Y92469D01*
D02*
G37*
G36*
X289392Y91969D02*
X288608D01*
X287885Y91669D01*
X287331Y91115D01*
X287032Y90392D01*
Y89608D01*
X287331Y88885D01*
X287885Y88331D01*
X288608Y88032D01*
X289392D01*
X290115Y88331D01*
X290669Y88885D01*
X290968Y89608D01*
Y90392D01*
X290669Y91115D01*
X290115Y91669D01*
X289392Y91969D01*
D02*
G37*
G36*
X308892Y90469D02*
X308108D01*
X307385Y90169D01*
X306831Y89615D01*
X306532Y88892D01*
Y88108D01*
X306713Y87669D01*
X306331Y87287D01*
X305892Y87468D01*
X305108D01*
X304385Y87169D01*
X303831Y86615D01*
X303532Y85892D01*
Y85108D01*
X303713Y84669D01*
X303331Y84287D01*
X302892Y84469D01*
X302108D01*
X301385Y84169D01*
X300831Y83615D01*
X300532Y82892D01*
Y82108D01*
X300713Y81669D01*
X300331Y81287D01*
X299892Y81468D01*
X299108D01*
X298385Y81169D01*
X297831Y80615D01*
X297532Y79892D01*
Y79108D01*
X297831Y78385D01*
X298385Y77831D01*
X299108Y77531D01*
X299892D01*
X300615Y77831D01*
X301169Y78385D01*
X301468Y79108D01*
Y79892D01*
X301287Y80331D01*
X301669Y80713D01*
X302108Y80532D01*
X302892D01*
X303615Y80831D01*
X304169Y81385D01*
X304468Y82108D01*
Y82892D01*
X304287Y83331D01*
X304669Y83713D01*
X305108Y83531D01*
X305892D01*
X306615Y83831D01*
X307169Y84385D01*
X307469Y85108D01*
Y85892D01*
X307287Y86331D01*
X307669Y86713D01*
X308108Y86532D01*
X308892D01*
X309615Y86831D01*
X310169Y87385D01*
X310469Y88108D01*
Y88892D01*
X310169Y89615D01*
X309615Y90169D01*
X308892Y90469D01*
D02*
G37*
G36*
X264092Y90945D02*
X263309D01*
X262585Y90645D01*
X262032Y90091D01*
X261732Y89368D01*
Y88585D01*
X262032Y87861D01*
X262585Y87308D01*
X263309Y87008D01*
X264092D01*
X264816Y87308D01*
X265369Y87861D01*
X265669Y88585D01*
Y89368D01*
X265369Y90091D01*
X264816Y90645D01*
X264092Y90945D01*
D02*
G37*
G36*
X348892Y87468D02*
X348108D01*
X347385Y87169D01*
X346831Y86615D01*
X346532Y85892D01*
Y85108D01*
X346831Y84385D01*
X347385Y83831D01*
X348108Y83531D01*
X348892D01*
X349615Y83831D01*
X350169Y84385D01*
X350468Y85108D01*
Y85892D01*
X350169Y86615D01*
X349615Y87169D01*
X348892Y87468D01*
D02*
G37*
G36*
X289392D02*
X288608D01*
X287885Y87169D01*
X287331Y86615D01*
X287032Y85892D01*
Y85108D01*
X287331Y84385D01*
X287885Y83831D01*
X288608Y83531D01*
X289392D01*
X290115Y83831D01*
X290669Y84385D01*
X290968Y85108D01*
Y85892D01*
X290669Y86615D01*
X290115Y87169D01*
X289392Y87468D01*
D02*
G37*
G36*
X323843Y88968D02*
X323060D01*
X322337Y88669D01*
X321783Y88115D01*
X321483Y87392D01*
Y86608D01*
X321783Y85885D01*
X322337Y85331D01*
X323060Y85031D01*
X323256D01*
X323355Y84531D01*
X323171Y84455D01*
X322618Y83902D01*
X322318Y83178D01*
X322043Y82994D01*
X321740Y83120D01*
X320957D01*
X320233Y82820D01*
X319680Y82266D01*
X319380Y81543D01*
Y80760D01*
X319680Y80036D01*
X320233Y79483D01*
X320957Y79183D01*
X321740D01*
X322464Y79483D01*
X323017Y80036D01*
X323231Y80552D01*
X323779Y80866D01*
X323895Y80818D01*
X324678D01*
X325401Y81118D01*
X325754Y81471D01*
X326331Y81385D01*
X326885Y80831D01*
X327608Y80532D01*
X328392D01*
X329115Y80831D01*
X329669Y81385D01*
X329724Y81519D01*
X330265D01*
X330322Y81383D01*
X330876Y80829D01*
X331599Y80529D01*
X332382D01*
X333106Y80829D01*
X333660Y81383D01*
X333959Y82106D01*
Y82889D01*
X333660Y83613D01*
X333106Y84167D01*
X332712Y84330D01*
X332666Y84568D01*
X332672Y84888D01*
X333169Y85385D01*
X333469Y86108D01*
Y86892D01*
X333169Y87615D01*
X332615Y88169D01*
X331892Y88468D01*
X331108D01*
X330385Y88169D01*
X329831Y87615D01*
X329532Y86892D01*
Y86108D01*
X329831Y85385D01*
X330385Y84831D01*
X330779Y84668D01*
X330825Y84430D01*
X330819Y84110D01*
X330322Y83613D01*
X330266Y83479D01*
X329725D01*
X329669Y83615D01*
X329115Y84169D01*
X328392Y84469D01*
X327608D01*
X326885Y84169D01*
X326532Y83816D01*
X325955Y83902D01*
X325401Y84455D01*
X324678Y84755D01*
X324482D01*
X324383Y85255D01*
X324567Y85331D01*
X325120Y85885D01*
X325420Y86608D01*
Y87392D01*
X325120Y88115D01*
X324567Y88669D01*
X323843Y88968D01*
D02*
G37*
G36*
X268242Y86699D02*
X267459D01*
X266735Y86399D01*
X266181Y85845D01*
X265881Y85122D01*
Y84338D01*
X266181Y83615D01*
X266735Y83061D01*
X267459Y82762D01*
X268242D01*
X268965Y83061D01*
X269519Y83615D01*
X269818Y84338D01*
Y85122D01*
X269519Y85845D01*
X268965Y86399D01*
X268242Y86699D01*
D02*
G37*
G36*
X289392Y82968D02*
X288608D01*
X287885Y82669D01*
X287331Y82115D01*
X287032Y81392D01*
Y80608D01*
X287331Y79885D01*
X287885Y79331D01*
X288608Y79031D01*
X289392D01*
X290115Y79331D01*
X290669Y79885D01*
X290968Y80608D01*
Y81392D01*
X290669Y82115D01*
X290115Y82669D01*
X289392Y82968D01*
D02*
G37*
G36*
X362392Y81968D02*
X361608D01*
X360885Y81669D01*
X360331Y81115D01*
X360032Y80392D01*
Y79608D01*
X360331Y78885D01*
X360885Y78331D01*
X361608Y78031D01*
X362392D01*
X363115Y78331D01*
X363669Y78885D01*
X363968Y79608D01*
Y80392D01*
X363669Y81115D01*
X363115Y81669D01*
X362392Y81968D01*
D02*
G37*
G36*
X382066Y78515D02*
X381282D01*
X380559Y78216D01*
X380005Y77662D01*
X379706Y76938D01*
Y76155D01*
X380005Y75432D01*
X380559Y74878D01*
X381282Y74578D01*
X382066D01*
X382789Y74878D01*
X383343Y75432D01*
X383643Y76155D01*
Y76938D01*
X383343Y77662D01*
X382789Y78216D01*
X382066Y78515D01*
D02*
G37*
G36*
X289392Y78469D02*
X288608D01*
X287885Y78169D01*
X287331Y77615D01*
X287032Y76892D01*
Y76108D01*
X287331Y75385D01*
X287885Y74831D01*
X288608Y74532D01*
X289392D01*
X290115Y74831D01*
X290669Y75385D01*
X290968Y76108D01*
Y76892D01*
X290669Y77615D01*
X290115Y78169D01*
X289392Y78469D01*
D02*
G37*
G36*
X281892Y77969D02*
X281108D01*
X280385Y77669D01*
X279831Y77115D01*
X279532Y76392D01*
Y75608D01*
X279831Y74885D01*
X280385Y74331D01*
X281108Y74032D01*
X281892D01*
X282615Y74331D01*
X283169Y74885D01*
X283469Y75608D01*
Y76392D01*
X283169Y77115D01*
X282615Y77669D01*
X281892Y77969D01*
D02*
G37*
G36*
X299392Y75968D02*
X298608D01*
X297885Y75669D01*
X297331Y75115D01*
X297031Y74392D01*
Y73608D01*
X297331Y72885D01*
X297885Y72331D01*
X298608Y72031D01*
X299392D01*
X300115Y72331D01*
X300669Y72885D01*
X300969Y73608D01*
Y74392D01*
X300669Y75115D01*
X300115Y75669D01*
X299392Y75968D01*
D02*
G37*
G36*
X259006Y75331D02*
X258223D01*
X257500Y75031D01*
X256946Y74478D01*
X256646Y73754D01*
Y72971D01*
X256946Y72247D01*
X257500Y71694D01*
X258223Y71394D01*
X259006D01*
X259730Y71694D01*
X260284Y72247D01*
X260583Y72971D01*
Y73754D01*
X260284Y74478D01*
X259730Y75031D01*
X259006Y75331D01*
D02*
G37*
G36*
X287392Y71469D02*
X286608D01*
X285885Y71169D01*
X285331Y70615D01*
X285032Y69892D01*
Y69108D01*
X285331Y68385D01*
X285885Y67831D01*
X286608Y67532D01*
X287392D01*
X288115Y67831D01*
X288669Y68385D01*
X288968Y69108D01*
Y69892D01*
X288669Y70615D01*
X288115Y71169D01*
X287392Y71469D01*
D02*
G37*
G36*
X253801Y70125D02*
X253017D01*
X252294Y69826D01*
X251740Y69272D01*
X251441Y68548D01*
Y67765D01*
X251740Y67042D01*
X252294Y66488D01*
X253017Y66188D01*
X253801D01*
X254524Y66488D01*
X255078Y67042D01*
X255378Y67765D01*
Y68548D01*
X255078Y69272D01*
X254524Y69826D01*
X253801Y70125D01*
D02*
G37*
G36*
X271892Y67469D02*
X271108D01*
X270385Y67169D01*
X269831Y66615D01*
X269531Y65892D01*
Y65108D01*
X269831Y64385D01*
X270385Y63831D01*
X271108Y63532D01*
X271892D01*
X272615Y63831D01*
X273169Y64385D01*
X273468Y65108D01*
Y65892D01*
X273169Y66615D01*
X272615Y67169D01*
X271892Y67469D01*
D02*
G37*
G36*
X241989Y66461D02*
X241011D01*
X240106Y66086D01*
X239414Y65394D01*
X239039Y64489D01*
Y63511D01*
X239414Y62606D01*
X240106Y61914D01*
X241011Y61539D01*
X241989D01*
X242894Y61914D01*
X243586Y62606D01*
X243961Y63511D01*
Y64489D01*
X243586Y65394D01*
X242894Y66086D01*
X241989Y66461D01*
D02*
G37*
G36*
X382078Y63200D02*
X381295D01*
X380572Y62900D01*
X380018Y62347D01*
X379718Y61623D01*
Y60840D01*
X380018Y60116D01*
X380572Y59563D01*
X381295Y59263D01*
X382078D01*
X382802Y59563D01*
X383355Y60116D01*
X383655Y60840D01*
Y61623D01*
X383355Y62347D01*
X382802Y62900D01*
X382078Y63200D01*
D02*
G37*
G36*
X332392Y60969D02*
X331608D01*
X330885Y60669D01*
X330331Y60115D01*
X330031Y59392D01*
Y58608D01*
X330213Y58169D01*
X329831Y57787D01*
X329392Y57968D01*
X328608D01*
X327885Y57669D01*
X327331Y57115D01*
X327031Y56392D01*
Y55608D01*
X327331Y54885D01*
X327885Y54331D01*
X328608Y54031D01*
X329392D01*
X330115Y54331D01*
X330669Y54885D01*
X330968Y55608D01*
Y56392D01*
X330787Y56831D01*
X331169Y57213D01*
X331608Y57032D01*
X332392D01*
X333115Y57331D01*
X333669Y57885D01*
X333968Y58608D01*
Y59392D01*
X333669Y60115D01*
X333115Y60669D01*
X332392Y60969D01*
D02*
G37*
G36*
X346392Y60350D02*
X345608D01*
X344885Y60051D01*
X344331Y59497D01*
X344032Y58773D01*
Y57990D01*
X344331Y57267D01*
X344885Y56713D01*
X345608Y56413D01*
X346392D01*
X347115Y56713D01*
X347669Y57267D01*
X347969Y57990D01*
Y58773D01*
X347669Y59497D01*
X347115Y60051D01*
X346392Y60350D01*
D02*
G37*
G36*
X243389Y59713D02*
X242606D01*
X241882Y59414D01*
X241329Y58860D01*
X241029Y58136D01*
Y57353D01*
X241329Y56630D01*
X241882Y56076D01*
X242606Y55776D01*
X243389D01*
X244112Y56076D01*
X244666Y56630D01*
X244966Y57353D01*
Y58136D01*
X244666Y58860D01*
X244112Y59414D01*
X243389Y59713D01*
D02*
G37*
G36*
X236964Y56119D02*
X236181D01*
X235457Y55819D01*
X234904Y55265D01*
X234604Y54541D01*
Y53758D01*
X234904Y53035D01*
X235457Y52481D01*
X236181Y52182D01*
X236964D01*
X237687Y52481D01*
X238241Y53035D01*
X238541Y53758D01*
Y54541D01*
X238241Y55265D01*
X237687Y55819D01*
X236964Y56119D01*
D02*
G37*
G36*
X229602D02*
X228819D01*
X228095Y55819D01*
X227541Y55265D01*
X227242Y54541D01*
Y53758D01*
X227541Y53035D01*
X228095Y52481D01*
X228819Y52182D01*
X229602D01*
X230325Y52481D01*
X230879Y53035D01*
X231179Y53758D01*
Y54541D01*
X230879Y55265D01*
X230325Y55819D01*
X229602Y56119D01*
D02*
G37*
G36*
X222240D02*
X221457D01*
X220733Y55819D01*
X220179Y55265D01*
X219880Y54541D01*
Y53758D01*
X220179Y53035D01*
X220733Y52481D01*
X221457Y52182D01*
X222240D01*
X222963Y52481D01*
X223517Y53035D01*
X223817Y53758D01*
Y54541D01*
X223517Y55265D01*
X222963Y55819D01*
X222240Y56119D01*
D02*
G37*
G36*
X214877D02*
X214094D01*
X213371Y55819D01*
X212817Y55265D01*
X212517Y54541D01*
Y53758D01*
X212817Y53035D01*
X213371Y52481D01*
X214094Y52182D01*
X214877D01*
X215601Y52481D01*
X216155Y53035D01*
X216454Y53758D01*
Y54541D01*
X216155Y55265D01*
X215601Y55819D01*
X214877Y56119D01*
D02*
G37*
G36*
X207515D02*
X206732D01*
X206009Y55819D01*
X205455Y55265D01*
X205155Y54541D01*
Y53758D01*
X205455Y53035D01*
X206009Y52481D01*
X206732Y52182D01*
X207515D01*
X208239Y52481D01*
X208792Y53035D01*
X209092Y53758D01*
Y54541D01*
X208792Y55265D01*
X208239Y55819D01*
X207515Y56119D01*
D02*
G37*
G36*
X200153Y56102D02*
X199370D01*
X198646Y55803D01*
X198093Y55249D01*
X197793Y54525D01*
Y53742D01*
X198093Y53019D01*
X198646Y52465D01*
X199370Y52165D01*
X200153D01*
X200877Y52465D01*
X201430Y53019D01*
X201730Y53742D01*
Y54525D01*
X201430Y55249D01*
X200877Y55803D01*
X200153Y56102D01*
D02*
G37*
G36*
X259892Y55968D02*
X259108D01*
X258385Y55669D01*
X257831Y55115D01*
X257531Y54392D01*
Y53608D01*
X257831Y52885D01*
X258385Y52331D01*
X259108Y52031D01*
X259892D01*
X260615Y52331D01*
X261169Y52885D01*
X261469Y53608D01*
Y54392D01*
X261169Y55115D01*
X260615Y55669D01*
X259892Y55968D01*
D02*
G37*
G36*
X305431Y55512D02*
X304648D01*
X303924Y55212D01*
X303370Y54658D01*
X303071Y53935D01*
Y53152D01*
X303370Y52428D01*
X303924Y51874D01*
X304648Y51575D01*
X305431D01*
X306154Y51874D01*
X306708Y52428D01*
X307008Y53152D01*
Y53935D01*
X306708Y54658D01*
X306154Y55212D01*
X305431Y55512D01*
D02*
G37*
G36*
X293620D02*
X292837D01*
X292113Y55212D01*
X291559Y54658D01*
X291260Y53935D01*
Y53152D01*
X291559Y52428D01*
X292113Y51874D01*
X292837Y51575D01*
X293620D01*
X294343Y51874D01*
X294897Y52428D01*
X295197Y53152D01*
Y53935D01*
X294897Y54658D01*
X294343Y55212D01*
X293620Y55512D01*
D02*
G37*
G36*
X271392Y54969D02*
X270608D01*
X269885Y54669D01*
X269331Y54115D01*
X269032Y53392D01*
Y52608D01*
X269331Y51885D01*
X269885Y51331D01*
X270608Y51032D01*
X271392D01*
X272115Y51331D01*
X272669Y51885D01*
X272969Y52608D01*
Y53392D01*
X272669Y54115D01*
X272115Y54669D01*
X271392Y54969D01*
D02*
G37*
G36*
X346892Y52469D02*
X346108D01*
X345385Y52169D01*
X344831Y51615D01*
X344531Y50892D01*
Y50108D01*
X344831Y49385D01*
X345385Y48831D01*
X346108Y48531D01*
X346892D01*
X347615Y48831D01*
X348169Y49385D01*
X348468Y50108D01*
Y50892D01*
X348169Y51615D01*
X347615Y52169D01*
X346892Y52469D01*
D02*
G37*
G36*
X194457Y51438D02*
X193674D01*
X192950Y51139D01*
X192396Y50585D01*
X192097Y49861D01*
Y49078D01*
X192396Y48355D01*
X192950Y47801D01*
X193674Y47501D01*
X194457D01*
X195180Y47801D01*
X195734Y48355D01*
X196034Y49078D01*
Y49861D01*
X195734Y50585D01*
X195180Y51139D01*
X194457Y51438D01*
D02*
G37*
G36*
X351392Y50968D02*
X350608D01*
X349885Y50669D01*
X349331Y50115D01*
X349031Y49392D01*
Y48608D01*
X349331Y47885D01*
X349885Y47331D01*
X350608Y47032D01*
X351392D01*
X352115Y47331D01*
X352669Y47885D01*
X352969Y48608D01*
Y49392D01*
X352669Y50115D01*
X352115Y50669D01*
X351392Y50968D01*
D02*
G37*
G36*
X259500Y83507D02*
X259306Y83469D01*
X259108D01*
X258926Y83393D01*
X258732Y83354D01*
X258568Y83245D01*
X258385Y83169D01*
X258245Y83029D01*
X258081Y82919D01*
X257971Y82755D01*
X257831Y82615D01*
X257755Y82432D01*
X257646Y82268D01*
X257607Y82074D01*
X257531Y81892D01*
Y81694D01*
X257493Y81500D01*
X257531Y81306D01*
Y81108D01*
X257607Y80926D01*
X257646Y80732D01*
X257755Y80568D01*
X257831Y80385D01*
X257971Y80245D01*
X258081Y80081D01*
X262493Y75669D01*
Y47000D01*
X262531Y46806D01*
Y46608D01*
X262607Y46426D01*
X262646Y46232D01*
X262755Y46068D01*
X262831Y45885D01*
X262971Y45745D01*
X263081Y45581D01*
X263245Y45471D01*
X263385Y45331D01*
X263568Y45256D01*
X263732Y45146D01*
X263926Y45107D01*
X264108Y45031D01*
X264306D01*
X264500Y44993D01*
X264694Y45031D01*
X264892D01*
X265074Y45107D01*
X265268Y45146D01*
X265432Y45256D01*
X265615Y45331D01*
X265755Y45471D01*
X265919Y45581D01*
X266029Y45745D01*
X266169Y45885D01*
X266245Y46068D01*
X266354Y46232D01*
X266393Y46426D01*
X266469Y46608D01*
Y46806D01*
X266507Y47000D01*
Y76500D01*
X266354Y77268D01*
X265919Y77919D01*
X260919Y82919D01*
X260755Y83029D01*
X260615Y83169D01*
X260432Y83245D01*
X260268Y83354D01*
X260074Y83393D01*
X259892Y83469D01*
X259694D01*
X259500Y83507D01*
D02*
G37*
G36*
X231140Y46819D02*
X230357D01*
X229633Y46519D01*
X229080Y45965D01*
X228780Y45242D01*
Y44458D01*
X229080Y43735D01*
X229633Y43181D01*
X230357Y42882D01*
X231140D01*
X231864Y43181D01*
X232417Y43735D01*
X232717Y44458D01*
Y45242D01*
X232417Y45965D01*
X231864Y46519D01*
X231140Y46819D01*
D02*
G37*
G36*
X223778D02*
X222995D01*
X222271Y46519D01*
X221718Y45965D01*
X221418Y45242D01*
Y44458D01*
X221718Y43735D01*
X222271Y43181D01*
X222995Y42882D01*
X223778D01*
X224501Y43181D01*
X225055Y43735D01*
X225355Y44458D01*
Y45242D01*
X225055Y45965D01*
X224501Y46519D01*
X223778Y46819D01*
D02*
G37*
G36*
X352892Y45968D02*
X352108D01*
X351385Y45669D01*
X350831Y45115D01*
X350532Y44392D01*
Y43608D01*
X350831Y42885D01*
X351385Y42331D01*
X352108Y42031D01*
X352892D01*
X353615Y42331D01*
X354169Y42885D01*
X354468Y43608D01*
Y44392D01*
X354169Y45115D01*
X353615Y45669D01*
X352892Y45968D01*
D02*
G37*
G36*
X201790Y45619D02*
X201007D01*
X200283Y45319D01*
X199729Y44766D01*
X199430Y44042D01*
Y43259D01*
X199729Y42535D01*
X200283Y41982D01*
X201007Y41682D01*
X201790D01*
X202513Y41982D01*
X203067Y42535D01*
X203367Y43259D01*
Y44042D01*
X203067Y44766D01*
X202513Y45319D01*
X201790Y45619D01*
D02*
G37*
G36*
X252892Y45087D02*
X252108D01*
X251385Y44787D01*
X250831Y44233D01*
X250532Y43510D01*
Y42726D01*
X250831Y42003D01*
X251385Y41449D01*
X252108Y41150D01*
X252892D01*
X253615Y41449D01*
X254169Y42003D01*
X254468Y42726D01*
Y43510D01*
X254169Y44233D01*
X253615Y44787D01*
X252892Y45087D01*
D02*
G37*
G36*
X382202Y43701D02*
X381419D01*
X380696Y43401D01*
X380142Y42847D01*
X379842Y42124D01*
Y41341D01*
X380142Y40617D01*
X380696Y40063D01*
X381419Y39764D01*
X382202D01*
X382926Y40063D01*
X383480Y40617D01*
X383779Y41341D01*
Y42124D01*
X383480Y42847D01*
X382926Y43401D01*
X382202Y43701D01*
D02*
G37*
G36*
X370391D02*
X369608D01*
X368885Y43401D01*
X368331Y42847D01*
X368031Y42124D01*
Y41341D01*
X368331Y40617D01*
X368885Y40063D01*
X369608Y39764D01*
X370391D01*
X371115Y40063D01*
X371669Y40617D01*
X371968Y41341D01*
Y42124D01*
X371669Y42847D01*
X371115Y43401D01*
X370391Y43701D01*
D02*
G37*
G36*
X299525D02*
X298742D01*
X298019Y43401D01*
X297465Y42847D01*
X297165Y42124D01*
Y41341D01*
X297465Y40617D01*
X298019Y40063D01*
X298742Y39764D01*
X299525D01*
X300249Y40063D01*
X300802Y40617D01*
X301102Y41341D01*
Y42124D01*
X300802Y42847D01*
X300249Y43401D01*
X299525Y43701D01*
D02*
G37*
G36*
X210892Y43087D02*
X210108D01*
X209385Y42787D01*
X208831Y42233D01*
X208531Y41510D01*
Y40727D01*
X208831Y40003D01*
X209385Y39449D01*
X210108Y39150D01*
X210892D01*
X211615Y39449D01*
X212169Y40003D01*
X212469Y40727D01*
Y41510D01*
X212169Y42233D01*
X211615Y42787D01*
X210892Y43087D01*
D02*
G37*
G36*
X184045Y41026D02*
X183262D01*
X182538Y40727D01*
X181985Y40173D01*
X181685Y39450D01*
Y38666D01*
X181985Y37943D01*
X182538Y37389D01*
X183262Y37089D01*
X184045D01*
X184768Y37389D01*
X185322Y37943D01*
X185622Y38666D01*
Y39450D01*
X185322Y40173D01*
X184768Y40727D01*
X184045Y41026D01*
D02*
G37*
G36*
X342774Y38469D02*
X341990D01*
X341267Y38169D01*
X340713Y37615D01*
X340413Y36892D01*
Y36108D01*
X340713Y35385D01*
X341267Y34831D01*
X341990Y34532D01*
X342774D01*
X343497Y34831D01*
X344051Y35385D01*
X344350Y36108D01*
Y36892D01*
X344051Y37615D01*
X343497Y38169D01*
X342774Y38469D01*
D02*
G37*
G36*
X312773D02*
X311990D01*
X311267Y38169D01*
X310713Y37615D01*
X310413Y36892D01*
Y36108D01*
X310713Y35385D01*
X311267Y34831D01*
X311990Y34532D01*
X312773D01*
X313497Y34831D01*
X314051Y35385D01*
X314350Y36108D01*
Y36892D01*
X314051Y37615D01*
X313497Y38169D01*
X312773Y38469D01*
D02*
G37*
G36*
X303489Y38961D02*
X302511D01*
X301606Y38586D01*
X300914Y37894D01*
X300539Y36989D01*
Y36011D01*
X300914Y35106D01*
X301606Y34414D01*
X302511Y34039D01*
X303489D01*
X304394Y34414D01*
X305086Y35106D01*
X305461Y36011D01*
Y36989D01*
X305086Y37894D01*
X304394Y38586D01*
X303489Y38961D01*
D02*
G37*
G36*
X297989D02*
X297011D01*
X296106Y38586D01*
X295414Y37894D01*
X295039Y36989D01*
Y36011D01*
X295414Y35106D01*
X296106Y34414D01*
X297011Y34039D01*
X297989D01*
X298894Y34414D01*
X299586Y35106D01*
X299961Y36011D01*
Y36989D01*
X299586Y37894D01*
X298894Y38586D01*
X297989Y38961D01*
D02*
G37*
G36*
X191378Y35207D02*
X190595D01*
X189871Y34908D01*
X189318Y34354D01*
X189018Y33630D01*
Y32847D01*
X189318Y32124D01*
X189871Y31570D01*
X190595Y31270D01*
X191378D01*
X192102Y31570D01*
X192655Y32124D01*
X192955Y32847D01*
Y33630D01*
X192655Y34354D01*
X192102Y34908D01*
X191378Y35207D01*
D02*
G37*
G36*
X364486Y31890D02*
X363703D01*
X362979Y31590D01*
X362425Y31036D01*
X362126Y30313D01*
Y29530D01*
X362425Y28806D01*
X362979Y28252D01*
X363703Y27953D01*
X364486D01*
X365209Y28252D01*
X365763Y28806D01*
X366063Y29530D01*
Y30313D01*
X365763Y31036D01*
X365209Y31590D01*
X364486Y31890D01*
D02*
G37*
G36*
X248273Y28969D02*
X247490D01*
X246767Y28669D01*
X246213Y28115D01*
X245913Y27392D01*
Y26608D01*
X246213Y25885D01*
X246767Y25331D01*
X247490Y25032D01*
X248273D01*
X248997Y25331D01*
X249551Y25885D01*
X249850Y26608D01*
Y27392D01*
X249551Y28115D01*
X248997Y28669D01*
X248273Y28969D01*
D02*
G37*
G36*
X291989Y29461D02*
X291011D01*
X290106Y29086D01*
X289414Y28394D01*
X289039Y27489D01*
Y26511D01*
X289414Y25606D01*
X290106Y24914D01*
X291011Y24539D01*
X291989D01*
X292894Y24914D01*
X293586Y25606D01*
X293961Y26511D01*
Y27489D01*
X293586Y28394D01*
X292894Y29086D01*
X291989Y29461D01*
D02*
G37*
G36*
X260489D02*
X259511D01*
X258606Y29086D01*
X257914Y28394D01*
X257539Y27489D01*
Y26511D01*
X257914Y25606D01*
X258606Y24914D01*
X259511Y24539D01*
X260489D01*
X261394Y24914D01*
X262086Y25606D01*
X262461Y26511D01*
Y27489D01*
X262086Y28394D01*
X261394Y29086D01*
X260489Y29461D01*
D02*
G37*
G36*
X191392Y28468D02*
X190608D01*
X189885Y28169D01*
X189331Y27615D01*
X189032Y26892D01*
Y26108D01*
X189331Y25385D01*
X189885Y24831D01*
X190608Y24532D01*
X191392D01*
X192115Y24831D01*
X192669Y25385D01*
X192968Y26108D01*
Y26892D01*
X192669Y27615D01*
X192115Y28169D01*
X191392Y28468D01*
D02*
G37*
G36*
X357791Y17791D02*
X352239D01*
Y17423D01*
X351739Y17216D01*
X351719Y17236D01*
X351086Y17601D01*
X350380Y17791D01*
X349650D01*
X348944Y17601D01*
X348311Y17236D01*
X347794Y16719D01*
X347765Y16669D01*
X347265D01*
X347236Y16719D01*
X346719Y17236D01*
X346086Y17601D01*
X345380Y17791D01*
X344650D01*
X343944Y17601D01*
X343311Y17236D01*
X342794Y16719D01*
X342765Y16669D01*
X342265D01*
X342236Y16719D01*
X341719Y17236D01*
X341086Y17601D01*
X340380Y17791D01*
X339650D01*
X338944Y17601D01*
X338311Y17236D01*
X337794Y16719D01*
X337585Y16357D01*
X337040Y16368D01*
X336368Y17040D01*
X335490Y17403D01*
X335215D01*
Y15015D01*
Y12627D01*
X335490D01*
X336368Y12990D01*
X337040Y13662D01*
X337585Y13672D01*
X337794Y13311D01*
X338311Y12794D01*
X338944Y12429D01*
X339650Y12239D01*
X340380D01*
X341086Y12429D01*
X341719Y12794D01*
X342236Y13311D01*
X342265Y13361D01*
X342765D01*
X342794Y13311D01*
X343311Y12794D01*
X343944Y12429D01*
X344650Y12239D01*
X345380D01*
X346086Y12429D01*
X346719Y12794D01*
X347236Y13311D01*
X347265Y13361D01*
X347765D01*
X347794Y13311D01*
X348311Y12794D01*
X348944Y12429D01*
X349650Y12239D01*
X350380D01*
X351086Y12429D01*
X351719Y12794D01*
X351739Y12814D01*
X352239Y12607D01*
Y12239D01*
X357791D01*
Y17791D01*
D02*
G37*
G36*
X187862Y21083D02*
X187079D01*
X186355Y20783D01*
X185802Y20229D01*
X185502Y19506D01*
Y18723D01*
X185802Y17999D01*
X186355Y17445D01*
X187079Y17146D01*
X187862D01*
X188586Y17445D01*
X189139Y17999D01*
X189439Y18723D01*
Y19506D01*
X189139Y20229D01*
X188586Y20783D01*
X187862Y21083D01*
D02*
G37*
G36*
X330380Y17791D02*
X329650D01*
X328944Y17601D01*
X328311Y17236D01*
X327794Y16719D01*
X327765Y16669D01*
X327265D01*
X327236Y16719D01*
X326719Y17236D01*
X326086Y17601D01*
X325380Y17791D01*
X324650D01*
X323944Y17601D01*
X323311Y17236D01*
X322794Y16719D01*
X322765Y16669D01*
X322265D01*
X322236Y16719D01*
X321719Y17236D01*
X321086Y17601D01*
X320380Y17791D01*
X319650D01*
X318944Y17601D01*
X318311Y17236D01*
X317794Y16719D01*
X317765Y16669D01*
X317265D01*
X317236Y16719D01*
X316719Y17236D01*
X316086Y17601D01*
X315380Y17791D01*
X314650D01*
X313944Y17601D01*
X313311Y17236D01*
X312794Y16719D01*
X312765Y16669D01*
X312265D01*
X312236Y16719D01*
X311719Y17236D01*
X311086Y17601D01*
X310380Y17791D01*
X309650D01*
X308944Y17601D01*
X308311Y17236D01*
X307794Y16719D01*
X307429Y16086D01*
X307239Y15380D01*
Y14650D01*
X307429Y13944D01*
X307794Y13311D01*
X308311Y12794D01*
X308944Y12429D01*
X309650Y12239D01*
X310380D01*
X311086Y12429D01*
X311719Y12794D01*
X312236Y13311D01*
X312265Y13361D01*
X312765D01*
X312794Y13311D01*
X313311Y12794D01*
X313944Y12429D01*
X314650Y12239D01*
X315380D01*
X316086Y12429D01*
X316719Y12794D01*
X317236Y13311D01*
X317265Y13361D01*
X317765D01*
X317794Y13311D01*
X318311Y12794D01*
X318944Y12429D01*
X319650Y12239D01*
X320380D01*
X321086Y12429D01*
X321719Y12794D01*
X322236Y13311D01*
X322265Y13361D01*
X322765D01*
X322794Y13311D01*
X323311Y12794D01*
X323944Y12429D01*
X324650Y12239D01*
X325380D01*
X326086Y12429D01*
X326719Y12794D01*
X327236Y13311D01*
X327265Y13361D01*
X327765D01*
X327794Y13311D01*
X328311Y12794D01*
X328944Y12429D01*
X329650Y12239D01*
X330380D01*
X331086Y12429D01*
X331719Y12794D01*
X332236Y13311D01*
X332445Y13672D01*
X332990Y13662D01*
X333662Y12990D01*
X334540Y12627D01*
X334815D01*
Y15015D01*
Y17403D01*
X334540D01*
X333662Y17040D01*
X332990Y16368D01*
X332445Y16357D01*
X332236Y16719D01*
X331719Y17236D01*
X331086Y17601D01*
X330380Y17791D01*
D02*
G37*
G36*
X252281Y20079D02*
X251498D01*
X250775Y19779D01*
X250221Y19225D01*
X249921Y18502D01*
Y17719D01*
X250221Y16995D01*
X250775Y16441D01*
X251498Y16142D01*
X252281D01*
X253005Y16441D01*
X253558Y16995D01*
X253858Y17719D01*
Y18502D01*
X253558Y19225D01*
X253005Y19779D01*
X252281Y20079D01*
D02*
G37*
G36*
X228659D02*
X227876D01*
X227152Y19779D01*
X226599Y19225D01*
X226299Y18502D01*
Y17719D01*
X226599Y16995D01*
X227152Y16441D01*
X227876Y16142D01*
X228659D01*
X229383Y16441D01*
X229936Y16995D01*
X230236Y17719D01*
Y18502D01*
X229936Y19225D01*
X229383Y19779D01*
X228659Y20079D01*
D02*
G37*
G36*
X216848D02*
X216065D01*
X215341Y19779D01*
X214788Y19225D01*
X214488Y18502D01*
Y17719D01*
X214788Y16995D01*
X215341Y16441D01*
X216065Y16142D01*
X216848D01*
X217572Y16441D01*
X218125Y16995D01*
X218425Y17719D01*
Y18502D01*
X218125Y19225D01*
X217572Y19779D01*
X216848Y20079D01*
D02*
G37*
G36*
X352675Y8268D02*
X351892D01*
X351168Y7968D01*
X350614Y7414D01*
X350315Y6691D01*
Y5908D01*
X350614Y5184D01*
X351168Y4630D01*
X351892Y4331D01*
X352675D01*
X353398Y4630D01*
X353952Y5184D01*
X354252Y5908D01*
Y6691D01*
X353952Y7414D01*
X353398Y7968D01*
X352675Y8268D01*
D02*
G37*
G36*
X340864D02*
X340081D01*
X339357Y7968D01*
X338803Y7414D01*
X338504Y6691D01*
Y5908D01*
X338803Y5184D01*
X339357Y4630D01*
X340081Y4331D01*
X340864D01*
X341587Y4630D01*
X342141Y5184D01*
X342441Y5908D01*
Y6691D01*
X342141Y7414D01*
X341587Y7968D01*
X340864Y8268D01*
D02*
G37*
G36*
X329053D02*
X328270D01*
X327546Y7968D01*
X326992Y7414D01*
X326693Y6691D01*
Y5908D01*
X326992Y5184D01*
X327546Y4630D01*
X328270Y4331D01*
X329053D01*
X329776Y4630D01*
X330330Y5184D01*
X330630Y5908D01*
Y6691D01*
X330330Y7414D01*
X329776Y7968D01*
X329053Y8268D01*
D02*
G37*
G36*
X317242D02*
X316459D01*
X315735Y7968D01*
X315181Y7414D01*
X314882Y6691D01*
Y5908D01*
X315181Y5184D01*
X315735Y4630D01*
X316459Y4331D01*
X317242D01*
X317965Y4630D01*
X318519Y5184D01*
X318819Y5908D01*
Y6691D01*
X318519Y7414D01*
X317965Y7968D01*
X317242Y8268D01*
D02*
G37*
G36*
X376297Y31890D02*
X375514D01*
X374790Y31590D01*
X374236Y31036D01*
X373937Y30313D01*
Y29530D01*
X374236Y28806D01*
X374790Y28252D01*
X375162Y28098D01*
X375062Y27598D01*
X374008D01*
X372050Y27288D01*
X370164Y26675D01*
X368397Y25775D01*
X366793Y24610D01*
X365390Y23207D01*
X364225Y21603D01*
X363325Y19836D01*
X362712Y17950D01*
X362402Y15992D01*
Y14008D01*
X362712Y12050D01*
X363325Y10164D01*
X364225Y8397D01*
X365390Y6793D01*
X366793Y5390D01*
X368397Y4225D01*
X370164Y3325D01*
X372050Y2712D01*
X374008Y2402D01*
X375992D01*
X377950Y2712D01*
X379836Y3325D01*
X381603Y4225D01*
X383207Y5390D01*
X384610Y6793D01*
X385775Y8397D01*
X386675Y10164D01*
X387288Y12050D01*
X387598Y14008D01*
Y15992D01*
X387288Y17950D01*
X386675Y19836D01*
X385775Y21603D01*
X384610Y23207D01*
X383207Y24610D01*
X381603Y25775D01*
X379836Y26675D01*
X377950Y27288D01*
X376539Y27512D01*
X376478Y28028D01*
X377020Y28252D01*
X377574Y28806D01*
X377874Y29530D01*
Y30313D01*
X377574Y31036D01*
X377020Y31590D01*
X376297Y31890D01*
D02*
G37*
G36*
X111892Y211968D02*
X111108D01*
X110385Y211669D01*
X109831Y211115D01*
X109531Y210392D01*
Y209608D01*
X109831Y208885D01*
X110385Y208331D01*
X111081Y208043D01*
X111149Y207885D01*
X111248Y207531D01*
X111015Y207299D01*
X110691Y207171D01*
X110366Y207299D01*
X109997Y207669D01*
X109274Y207968D01*
X108490D01*
X107767Y207669D01*
X107213Y207115D01*
X106913Y206392D01*
Y205608D01*
X107213Y204885D01*
X107767Y204331D01*
X108490Y204031D01*
X109274D01*
X109997Y204331D01*
X110366Y204701D01*
X110691Y204829D01*
X111015Y204701D01*
X111385Y204331D01*
X112108Y204031D01*
X112892D01*
X113615Y204331D01*
X114169Y204885D01*
X114469Y205608D01*
Y206392D01*
X114169Y207115D01*
X113615Y207669D01*
X112919Y207957D01*
X112851Y208115D01*
X112752Y208469D01*
X113169Y208885D01*
X113469Y209608D01*
Y210392D01*
X113169Y211115D01*
X112615Y211669D01*
X111892Y211968D01*
D02*
G37*
G36*
X109274Y201969D02*
X108490D01*
X107767Y201669D01*
X107213Y201115D01*
X106913Y200392D01*
Y199608D01*
X107213Y198885D01*
X107767Y198331D01*
X108490Y198031D01*
X109274D01*
X109997Y198331D01*
X110551Y198885D01*
X110850Y199608D01*
Y200392D01*
X110551Y201115D01*
X109997Y201669D01*
X109274Y201969D01*
D02*
G37*
G36*
X117392Y200468D02*
X116608D01*
X115885Y200169D01*
X115331Y199615D01*
X115032Y198892D01*
Y198108D01*
X115331Y197385D01*
X115885Y196831D01*
X116608Y196531D01*
X117392D01*
X118115Y196831D01*
X118669Y197385D01*
X118968Y198108D01*
Y198892D01*
X118669Y199615D01*
X118115Y200169D01*
X117392Y200468D01*
D02*
G37*
G36*
X81021Y197244D02*
X80238D01*
X79515Y196944D01*
X78961Y196391D01*
X78661Y195667D01*
Y194884D01*
X78961Y194160D01*
X79515Y193607D01*
X80238Y193307D01*
X81021D01*
X81745Y193607D01*
X82299Y194160D01*
X82598Y194884D01*
Y195667D01*
X82299Y196391D01*
X81745Y196944D01*
X81021Y197244D01*
D02*
G37*
G36*
X104392Y195968D02*
X103608D01*
X102885Y195669D01*
X102331Y195115D01*
X102032Y194392D01*
Y193608D01*
X102331Y192885D01*
X102885Y192331D01*
X103608Y192032D01*
X104392D01*
X105115Y192331D01*
X105669Y192885D01*
X105968Y193608D01*
Y194392D01*
X105669Y195115D01*
X105115Y195669D01*
X104392Y195968D01*
D02*
G37*
G36*
X112892Y190969D02*
X112108D01*
X111385Y190669D01*
X110831Y190115D01*
X110531Y189392D01*
Y188608D01*
X110831Y187885D01*
X111385Y187331D01*
X112108Y187031D01*
X112892D01*
X113615Y187331D01*
X114169Y187885D01*
X114469Y188608D01*
Y189392D01*
X114169Y190115D01*
X113615Y190669D01*
X112892Y190969D01*
D02*
G37*
G36*
X185892Y195968D02*
X185108D01*
X184385Y195669D01*
X183831Y195115D01*
X183531Y194392D01*
Y193608D01*
X183831Y192885D01*
X184385Y192331D01*
X185108Y192032D01*
X185892D01*
X186615Y192331D01*
X187169Y192885D01*
X187469Y193608D01*
Y194392D01*
X187169Y195115D01*
X186615Y195669D01*
X185892Y195968D01*
D02*
G37*
G36*
X167990Y191461D02*
X167010D01*
X166106Y191086D01*
X165414Y190394D01*
X165039Y189489D01*
Y188511D01*
X165414Y187606D01*
X166106Y186914D01*
X167010Y186539D01*
X167990D01*
X168894Y186914D01*
X169586Y187606D01*
X169961Y188511D01*
Y189489D01*
X169586Y190394D01*
X168894Y191086D01*
X167990Y191461D01*
D02*
G37*
G36*
X162489D02*
X161511D01*
X160606Y191086D01*
X159914Y190394D01*
X159539Y189489D01*
Y188511D01*
X159914Y187606D01*
X160606Y186914D01*
X161511Y186539D01*
X162489D01*
X163394Y186914D01*
X164086Y187606D01*
X164461Y188511D01*
Y189489D01*
X164086Y190394D01*
X163394Y191086D01*
X162489Y191461D01*
D02*
G37*
G36*
X172392Y188469D02*
X171608D01*
X170885Y188169D01*
X170331Y187615D01*
X170031Y186892D01*
Y186108D01*
X170331Y185385D01*
X170885Y184831D01*
X171608Y184531D01*
X172392D01*
X173115Y184831D01*
X173669Y185385D01*
X173969Y186108D01*
Y186892D01*
X173669Y187615D01*
X173115Y188169D01*
X172392Y188469D01*
D02*
G37*
G36*
X188392Y187469D02*
X187608D01*
X186885Y187169D01*
X186331Y186615D01*
X186031Y185892D01*
Y185108D01*
X186331Y184385D01*
X186885Y183831D01*
X187608Y183531D01*
X188392D01*
X189115Y183831D01*
X189669Y184385D01*
X189969Y185108D01*
Y185892D01*
X189669Y186615D01*
X189115Y187169D01*
X188392Y187469D01*
D02*
G37*
G36*
X145392Y186469D02*
X144608D01*
X143885Y186169D01*
X143331Y185615D01*
X143032Y184892D01*
Y184108D01*
X143331Y183385D01*
X143885Y182831D01*
X144608Y182531D01*
X145392D01*
X146115Y182831D01*
X146669Y183385D01*
X146968Y184108D01*
Y184892D01*
X146669Y185615D01*
X146115Y186169D01*
X145392Y186469D01*
D02*
G37*
G36*
X275512Y209094D02*
X274744Y208941D01*
X274092Y208506D01*
X273657Y207855D01*
X273504Y207086D01*
X273657Y206318D01*
X274092Y205667D01*
X274744Y205232D01*
X275512Y205079D01*
X276280Y205232D01*
X276931Y205667D01*
X277366Y206318D01*
X277519Y207086D01*
X277366Y207855D01*
X276931Y208506D01*
X276280Y208941D01*
X275512Y209094D01*
D02*
G37*
G36*
X263701D02*
X262932Y208941D01*
X262281Y208506D01*
X261846Y207855D01*
X261694Y207086D01*
X261846Y206318D01*
X262281Y205667D01*
X262932Y205232D01*
X263701Y205079D01*
X264469Y205232D01*
X265120Y205667D01*
X265555Y206318D01*
X265708Y207086D01*
X265555Y207855D01*
X265120Y208506D01*
X264469Y208941D01*
X263701Y209094D01*
D02*
G37*
G36*
X296500Y199507D02*
X295732Y199354D01*
X295081Y198919D01*
X294646Y198268D01*
X294493Y197500D01*
X294646Y196732D01*
X295081Y196081D01*
X295732Y195646D01*
X296500Y195493D01*
X297268Y195646D01*
X297919Y196081D01*
X298354Y196732D01*
X298507Y197500D01*
X298354Y198268D01*
X297919Y198919D01*
X297268Y199354D01*
X296500Y199507D01*
D02*
G37*
G36*
X217615Y197297D02*
X216847Y197144D01*
X216196Y196709D01*
X215761Y196058D01*
X215608Y195290D01*
X215761Y194521D01*
X216196Y193870D01*
X216847Y193435D01*
X217615Y193282D01*
X218383Y193435D01*
X219034Y193870D01*
X219469Y194521D01*
X219622Y195290D01*
X219469Y196058D01*
X219034Y196709D01*
X218383Y197144D01*
X217615Y197297D01*
D02*
G37*
G36*
X222362Y197283D02*
X221594Y197130D01*
X220943Y196695D01*
X220508Y196044D01*
X220355Y195275D01*
X220508Y194507D01*
X220943Y193856D01*
X221594Y193421D01*
X222362Y193268D01*
X223130Y193421D01*
X223781Y193856D01*
X224216Y194507D01*
X224369Y195275D01*
X224216Y196044D01*
X223781Y196695D01*
X223130Y197130D01*
X222362Y197283D01*
D02*
G37*
G36*
X260882Y196507D02*
X260114Y196354D01*
X259463Y195919D01*
X259028Y195268D01*
X258875Y194500D01*
X259028Y193732D01*
X259463Y193081D01*
X260114Y192646D01*
X260882Y192493D01*
X261650Y192646D01*
X262301Y193081D01*
X262736Y193732D01*
X262889Y194500D01*
X262736Y195268D01*
X262301Y195919D01*
X261650Y196354D01*
X260882Y196507D01*
D02*
G37*
G36*
X222821Y192091D02*
X222053Y191938D01*
X221402Y191503D01*
X220966Y190852D01*
X220814Y190084D01*
X220966Y189316D01*
X221402Y188664D01*
X222053Y188230D01*
X222821Y188077D01*
X223589Y188230D01*
X224240Y188664D01*
X224675Y189316D01*
X224828Y190084D01*
X224675Y190852D01*
X224240Y191503D01*
X223589Y191938D01*
X222821Y192091D01*
D02*
G37*
G36*
X229769Y189657D02*
X229001Y189504D01*
X228350Y189069D01*
X227915Y188418D01*
X227762Y187650D01*
X227915Y186882D01*
X228350Y186231D01*
X229001Y185796D01*
X229769Y185643D01*
X230537Y185796D01*
X231188Y186231D01*
X231623Y186882D01*
X231776Y187650D01*
X231623Y188418D01*
X231188Y189069D01*
X230537Y189504D01*
X229769Y189657D01*
D02*
G37*
G36*
X220765Y181040D02*
X219997Y180888D01*
X219346Y180453D01*
X218911Y179801D01*
X218758Y179033D01*
X218911Y178265D01*
X219346Y177614D01*
X219997Y177179D01*
X220765Y177026D01*
X221533Y177179D01*
X222184Y177614D01*
X222620Y178265D01*
X222772Y179033D01*
X222620Y179801D01*
X222184Y180453D01*
X221533Y180888D01*
X220765Y181040D01*
D02*
G37*
G36*
X242820Y180357D02*
X242052Y180204D01*
X241401Y179769D01*
X240966Y179118D01*
X240813Y178350D01*
X240966Y177582D01*
X241401Y176931D01*
X242052Y176496D01*
X242820Y176343D01*
X243588Y176496D01*
X244239Y176931D01*
X244674Y177582D01*
X244827Y178350D01*
X244674Y179118D01*
X244239Y179769D01*
X243588Y180204D01*
X242820Y180357D01*
D02*
G37*
G36*
X228096D02*
X227328Y180204D01*
X226676Y179769D01*
X226241Y179118D01*
X226089Y178350D01*
X226241Y177582D01*
X226676Y176931D01*
X227328Y176496D01*
X228096Y176343D01*
X228864Y176496D01*
X229515Y176931D01*
X229950Y177582D01*
X230103Y178350D01*
X229950Y179118D01*
X229515Y179769D01*
X228864Y180204D01*
X228096Y180357D01*
D02*
G37*
G36*
X222362Y173661D02*
X221594Y173508D01*
X220943Y173073D01*
X220508Y172422D01*
X220355Y171653D01*
X220508Y170885D01*
X220943Y170234D01*
X221594Y169799D01*
X222362Y169646D01*
X223130Y169799D01*
X223781Y170234D01*
X224216Y170885D01*
X224369Y171653D01*
X224216Y172422D01*
X223781Y173073D01*
X223130Y173508D01*
X222362Y173661D01*
D02*
G37*
G36*
X240078Y161849D02*
X239311Y161697D01*
X238659Y161262D01*
X238224Y160610D01*
X238071Y159842D01*
X238224Y159074D01*
X238659Y158423D01*
X239311Y157988D01*
X240078Y157835D01*
X240847Y157988D01*
X241498Y158423D01*
X241933Y159074D01*
X242086Y159842D01*
X241933Y160610D01*
X241498Y161262D01*
X240847Y161697D01*
X240078Y161849D01*
D02*
G37*
G36*
X224000Y155007D02*
X223232Y154854D01*
X222581Y154419D01*
X222146Y153768D01*
X221993Y153000D01*
X222146Y152232D01*
X222581Y151581D01*
X223232Y151146D01*
X224000Y150993D01*
X224768Y151146D01*
X225419Y151581D01*
X225854Y152232D01*
X226007Y153000D01*
X225854Y153768D01*
X225419Y154419D01*
X224768Y154854D01*
X224000Y155007D01*
D02*
G37*
G36*
X211500D02*
X210732Y154854D01*
X210081Y154419D01*
X209646Y153768D01*
X209493Y153000D01*
X209646Y152232D01*
X210081Y151581D01*
X210732Y151146D01*
X211500Y150993D01*
X212268Y151146D01*
X212919Y151581D01*
X213354Y152232D01*
X213507Y153000D01*
X213354Y153768D01*
X212919Y154419D01*
X212268Y154854D01*
X211500Y155007D01*
D02*
G37*
G36*
X193226Y90945D02*
X192443D01*
X191719Y90645D01*
X191166Y90091D01*
X190866Y89368D01*
Y88585D01*
X191166Y87861D01*
X191719Y87308D01*
X192443Y87008D01*
X193226D01*
X193949Y87308D01*
X194503Y87861D01*
X194803Y88585D01*
Y89368D01*
X194503Y90091D01*
X193949Y90645D01*
X193226Y90945D01*
D02*
G37*
G36*
X221489Y90461D02*
X220511D01*
X219606Y90086D01*
X218914Y89394D01*
X218539Y88489D01*
Y87511D01*
X218914Y86606D01*
X219606Y85914D01*
X220511Y85539D01*
X221489D01*
X222394Y85914D01*
X223086Y86606D01*
X223461Y87511D01*
Y88489D01*
X223086Y89394D01*
X222394Y90086D01*
X221489Y90461D01*
D02*
G37*
G36*
X215489D02*
X214511D01*
X213606Y90086D01*
X212914Y89394D01*
X212539Y88489D01*
Y87511D01*
X212914Y86606D01*
X213606Y85914D01*
X214511Y85539D01*
X215489D01*
X216394Y85914D01*
X217086Y86606D01*
X217461Y87511D01*
Y88489D01*
X217086Y89394D01*
X216394Y90086D01*
X215489Y90461D01*
D02*
G37*
G36*
X187320Y79134D02*
X186537D01*
X185814Y78834D01*
X185260Y78280D01*
X184960Y77557D01*
Y76774D01*
X185260Y76050D01*
X185814Y75497D01*
X186537Y75197D01*
X187320D01*
X188044Y75497D01*
X188598Y76050D01*
X188898Y76774D01*
Y77557D01*
X188598Y78280D01*
X188044Y78834D01*
X187320Y79134D01*
D02*
G37*
G36*
X175510D02*
X174726D01*
X174003Y78834D01*
X173449Y78280D01*
X173149Y77557D01*
Y76774D01*
X173449Y76050D01*
X174003Y75497D01*
X174726Y75197D01*
X175510D01*
X176233Y75497D01*
X176787Y76050D01*
X177086Y76774D01*
Y77557D01*
X176787Y78280D01*
X176233Y78834D01*
X175510Y79134D01*
D02*
G37*
G36*
X230489Y77961D02*
X229511D01*
X228606Y77586D01*
X227914Y76894D01*
X227539Y75989D01*
Y75011D01*
X227914Y74106D01*
X228606Y73414D01*
X229511Y73039D01*
X230489D01*
X231394Y73414D01*
X232086Y74106D01*
X232461Y75011D01*
Y75989D01*
X232086Y76894D01*
X231394Y77586D01*
X230489Y77961D01*
D02*
G37*
G36*
X224489D02*
X223511D01*
X222606Y77586D01*
X221914Y76894D01*
X221539Y75989D01*
Y75011D01*
X221914Y74106D01*
X222606Y73414D01*
X223511Y73039D01*
X224489D01*
X225394Y73414D01*
X226086Y74106D01*
X226461Y75011D01*
Y75989D01*
X226086Y76894D01*
X225394Y77586D01*
X224489Y77961D01*
D02*
G37*
G36*
X192392Y72469D02*
X191608D01*
X190885Y72169D01*
X190331Y71615D01*
X190032Y70892D01*
Y70108D01*
X190331Y69385D01*
X190885Y68831D01*
X191608Y68532D01*
X192392D01*
X193115Y68831D01*
X193669Y69385D01*
X193968Y70108D01*
Y70892D01*
X193669Y71615D01*
X193115Y72169D01*
X192392Y72469D01*
D02*
G37*
G36*
X181415Y67323D02*
X180632D01*
X179908Y67023D01*
X179355Y66469D01*
X179055Y65746D01*
Y64963D01*
X179355Y64239D01*
X179908Y63686D01*
X180632Y63386D01*
X181415D01*
X182139Y63686D01*
X182692Y64239D01*
X182992Y64963D01*
Y65746D01*
X182692Y66469D01*
X182139Y67023D01*
X181415Y67323D01*
D02*
G37*
G36*
X161489Y40961D02*
X160511D01*
X159606Y40586D01*
X158914Y39894D01*
X158539Y38989D01*
Y38011D01*
X158914Y37106D01*
X159606Y36414D01*
X160511Y36039D01*
X161489D01*
X162394Y36414D01*
X163086Y37106D01*
X163461Y38011D01*
Y38989D01*
X163086Y39894D01*
X162394Y40586D01*
X161489Y40961D01*
D02*
G37*
G36*
X155990D02*
X155010D01*
X154106Y40586D01*
X153414Y39894D01*
X153039Y38989D01*
Y38011D01*
X153414Y37106D01*
X154106Y36414D01*
X155010Y36039D01*
X155990D01*
X156894Y36414D01*
X157586Y37106D01*
X157961Y38011D01*
Y38989D01*
X157586Y39894D01*
X156894Y40586D01*
X155990Y40961D01*
D02*
G37*
G36*
X138989Y38461D02*
X138011D01*
X137106Y38086D01*
X136414Y37394D01*
X136039Y36489D01*
Y35511D01*
X136414Y34606D01*
X137106Y33914D01*
X138011Y33539D01*
X138989D01*
X139894Y33914D01*
X140586Y34606D01*
X140961Y35511D01*
Y36489D01*
X140586Y37394D01*
X139894Y38086D01*
X138989Y38461D01*
D02*
G37*
G36*
X128265Y31890D02*
X127482D01*
X126759Y31590D01*
X126205Y31036D01*
X125905Y30313D01*
Y29530D01*
X126205Y28806D01*
X126759Y28252D01*
X127482Y27953D01*
X128265D01*
X128989Y28252D01*
X129543Y28806D01*
X129842Y29530D01*
Y30313D01*
X129543Y31036D01*
X128989Y31590D01*
X128265Y31890D01*
D02*
G37*
G36*
X164489Y20461D02*
X163511D01*
X162606Y20086D01*
X161914Y19394D01*
X161539Y18489D01*
Y17511D01*
X161914Y16606D01*
X162606Y15914D01*
X163511Y15539D01*
X164489D01*
X165394Y15914D01*
X166086Y16606D01*
X166461Y17511D01*
Y18489D01*
X166086Y19394D01*
X165394Y20086D01*
X164489Y20461D01*
D02*
G37*
G36*
X114392Y39968D02*
X113608D01*
X112885Y39669D01*
X112331Y39115D01*
X112031Y38392D01*
Y37608D01*
X112331Y36885D01*
X112824Y36392D01*
X112828Y36059D01*
X112781Y35833D01*
X112385Y35669D01*
X111831Y35115D01*
X111531Y34392D01*
Y33608D01*
X111831Y32885D01*
X112385Y32331D01*
X113108Y32032D01*
X113892D01*
X114615Y32331D01*
X115169Y32885D01*
X115469Y33608D01*
Y34392D01*
X115169Y35115D01*
X114676Y35608D01*
X114672Y35941D01*
X114719Y36167D01*
X115115Y36331D01*
X115669Y36885D01*
X115969Y37608D01*
Y38392D01*
X115669Y39115D01*
X115115Y39669D01*
X114392Y39968D01*
D02*
G37*
G36*
X89392Y32969D02*
X88608D01*
X87885Y32669D01*
X87331Y32115D01*
X87032Y31392D01*
Y30608D01*
X87331Y29885D01*
X87885Y29331D01*
X88608Y29032D01*
X89392D01*
X90115Y29331D01*
X90669Y29885D01*
X90969Y30608D01*
Y31392D01*
X90669Y32115D01*
X90115Y32669D01*
X89392Y32969D01*
D02*
G37*
G36*
X110392Y28969D02*
X109608D01*
X108885Y28669D01*
X108331Y28115D01*
X108031Y27392D01*
Y26608D01*
X108331Y25885D01*
X108885Y25331D01*
X109608Y25032D01*
X110392D01*
X111115Y25331D01*
X111669Y25885D01*
X111969Y26608D01*
Y27392D01*
X111669Y28115D01*
X111115Y28669D01*
X110392Y28969D01*
D02*
G37*
G36*
X86392Y27968D02*
X85608D01*
X84885Y27669D01*
X84331Y27115D01*
X84031Y26392D01*
Y25608D01*
X84331Y24885D01*
X84885Y24331D01*
X85608Y24032D01*
X86392D01*
X87115Y24331D01*
X87669Y24885D01*
X87968Y25608D01*
Y26392D01*
X87669Y27115D01*
X87115Y27669D01*
X86392Y27968D01*
D02*
G37*
G36*
X112529Y23164D02*
X111745D01*
X111022Y22864D01*
X110468Y22310D01*
X110368Y22069D01*
X109728Y21829D01*
X109392Y21969D01*
X108608D01*
X107885Y21669D01*
X107331Y21115D01*
X107032Y20392D01*
Y19608D01*
X107331Y18885D01*
X107885Y18331D01*
X108608Y18032D01*
X109392D01*
X110115Y18331D01*
X110669Y18885D01*
X110769Y19126D01*
X111409Y19366D01*
X111745Y19227D01*
X112529D01*
X113252Y19526D01*
X113806Y20080D01*
X114105Y20804D01*
Y21587D01*
X113806Y22310D01*
X113252Y22864D01*
X112529Y23164D01*
D02*
G37*
G36*
X112392Y18469D02*
X111608D01*
X110885Y18169D01*
X110331Y17615D01*
X110031Y16892D01*
Y16108D01*
X110331Y15385D01*
X110885Y14831D01*
X111608Y14532D01*
X112392D01*
X113115Y14831D01*
X113669Y15385D01*
X113969Y16108D01*
Y16892D01*
X113669Y17615D01*
X113115Y18169D01*
X112392Y18469D01*
D02*
G37*
G36*
X114392Y11969D02*
X113608D01*
X112885Y11669D01*
X112331Y11115D01*
X112031Y10392D01*
Y9608D01*
X112331Y8885D01*
X112885Y8331D01*
X113608Y8032D01*
X114392D01*
X115115Y8331D01*
X115669Y8885D01*
X115969Y9608D01*
Y10392D01*
X115669Y11115D01*
X115115Y11669D01*
X114392Y11969D01*
D02*
G37*
G36*
X81021Y8268D02*
X80238D01*
X79515Y7968D01*
X78961Y7414D01*
X78661Y6691D01*
Y5908D01*
X78961Y5184D01*
X79515Y4630D01*
X80238Y4331D01*
X81021D01*
X81745Y4630D01*
X82299Y5184D01*
X82598Y5908D01*
Y6691D01*
X82299Y7414D01*
X81745Y7968D01*
X81021Y8268D01*
D02*
G37*
G36*
X101392Y7969D02*
X100608D01*
X99885Y7669D01*
X99331Y7115D01*
X99032Y6392D01*
Y5608D01*
X99331Y4885D01*
X99885Y4331D01*
X100608Y4031D01*
X101392D01*
X102115Y4331D01*
X102669Y4885D01*
X102969Y5608D01*
Y6392D01*
X102669Y7115D01*
X102115Y7669D01*
X101392Y7969D01*
D02*
G37*
G36*
X115392Y7468D02*
X114608D01*
X113885Y7169D01*
X113331Y6615D01*
X113031Y5892D01*
Y5108D01*
X113331Y4385D01*
X113885Y3831D01*
X114608Y3531D01*
X115392D01*
X116115Y3831D01*
X116669Y4385D01*
X116969Y5108D01*
Y5892D01*
X116669Y6615D01*
X116115Y7169D01*
X115392Y7468D01*
D02*
G37*
%LPD*%
D12*
X174500Y28000D02*
X175794Y29294D01*
Y39294D01*
X185500Y49000D01*
D130*
X193500Y177500D02*
Y196000D01*
X190500Y199000D02*
X193500Y196000D01*
X155500Y163000D02*
X168134Y175634D01*
X191634D02*
X193500Y177500D01*
X168134Y175634D02*
X191634D01*
X139000Y163000D02*
X155500D01*
X128500Y151000D02*
Y180500D01*
X112283Y145594D02*
X123094D01*
X128500Y151000D01*
Y180500D02*
X137000Y189000D01*
X156500D01*
X125000Y152500D02*
Y181921D01*
X137579Y194500D02*
X144500D01*
X125000Y181921D02*
X137579Y194500D01*
X264500Y47000D02*
Y76500D01*
X259500Y81500D02*
X264500Y76500D01*
X134000Y158000D02*
X139000Y163000D01*
X134000Y139000D02*
Y158000D01*
X128000Y133000D02*
X134000Y139000D01*
X121772Y149272D02*
X125000Y152500D01*
X108500Y142000D02*
X108689D01*
X112283Y145594D01*
X98500Y149272D02*
Y152543D01*
Y149272D02*
X121772D01*
X108957Y133000D02*
X128000D01*
X98500Y119272D02*
Y122543D01*
X108957Y133000D01*
X122843Y78000D02*
X130500Y70342D01*
Y57858D02*
Y70342D01*
Y57858D02*
X150000Y38358D01*
X108500Y78000D02*
X122843D01*
X83500Y97457D02*
X93957Y87000D01*
X142000D02*
X168500Y60500D01*
X93957Y87000D02*
X142000D01*
X126500Y56000D02*
Y68500D01*
X124272Y70728D02*
X126500Y68500D01*
X83500Y70728D02*
X124272D01*
X126500Y56000D02*
X138500Y44000D01*
X168500Y53000D02*
Y60500D01*
X83500Y97457D02*
Y100728D01*
Y67457D02*
Y70728D01*
D140*
X14000Y50000D02*
D03*
X22000D02*
D03*
X30000D02*
D03*
X6000D02*
D03*
Y42000D02*
D03*
X14000D02*
D03*
X22000D02*
D03*
X30000D02*
D03*
Y34000D02*
D03*
X22000D02*
D03*
X14000D02*
D03*
X6000D02*
D03*
Y84000D02*
D03*
X14000D02*
D03*
X22000D02*
D03*
X30000D02*
D03*
Y92000D02*
D03*
X22000D02*
D03*
X14000D02*
D03*
X6000D02*
D03*
Y100000D02*
D03*
X30000D02*
D03*
X22000D02*
D03*
X14000D02*
D03*
Y136000D02*
D03*
X22000D02*
D03*
X30000D02*
D03*
X6000D02*
D03*
Y128000D02*
D03*
X14000D02*
D03*
X22000D02*
D03*
X30000D02*
D03*
Y120000D02*
D03*
X22000D02*
D03*
X14000D02*
D03*
X6000D02*
D03*
X14000Y186000D02*
D03*
X22000D02*
D03*
X30000D02*
D03*
X6000D02*
D03*
Y178000D02*
D03*
X14000D02*
D03*
X22000D02*
D03*
X30000D02*
D03*
Y170000D02*
D03*
X22000D02*
D03*
X14000D02*
D03*
X6000D02*
D03*
X235945Y107492D02*
D03*
Y114000D02*
D03*
X245000D02*
D03*
Y121028D02*
D03*
X254000Y114000D02*
D03*
X257000Y121028D02*
D03*
X235000Y140500D02*
D03*
X226646D02*
D03*
X218500D02*
D03*
X167500Y119500D02*
D03*
Y100500D02*
D03*
X254000Y107500D02*
D03*
X245000Y138000D02*
D03*
X158500Y110000D02*
D03*
X177500Y92500D02*
D03*
Y146500D02*
D03*
X212000Y172500D02*
D03*
X139000Y156000D02*
D03*
X108500Y142000D02*
D03*
X120500Y156000D02*
D03*
Y174000D02*
D03*
X145000Y156000D02*
D03*
X108500Y78000D02*
D03*
X120500Y64000D02*
D03*
X150000Y38358D02*
D03*
X138500Y44000D02*
D03*
X121000Y124000D02*
D03*
X115000D02*
D03*
X127000D02*
D03*
X139000D02*
D03*
X145000D02*
D03*
X151000D02*
D03*
X133000D02*
D03*
X127000Y96000D02*
D03*
X121000D02*
D03*
X133000D02*
D03*
X115000D02*
D03*
X168500Y53000D02*
D03*
X120500Y162000D02*
D03*
Y168000D02*
D03*
X139000Y64000D02*
D03*
X145000D02*
D03*
X151000D02*
D03*
X120500Y58000D02*
D03*
Y46000D02*
D03*
Y52000D02*
D03*
X215000Y99000D02*
D03*
X221000D02*
D03*
X216500Y64000D02*
D03*
X230000Y65000D02*
D03*
X224000D02*
D03*
X51000Y86000D02*
D03*
Y92000D02*
D03*
Y98000D02*
D03*
X139000Y96000D02*
D03*
X63000Y86000D02*
D03*
Y98000D02*
D03*
Y122000D02*
D03*
X151000Y156000D02*
D03*
X63000Y92000D02*
D03*
X51000Y122000D02*
D03*
Y128000D02*
D03*
Y134000D02*
D03*
X63000Y128000D02*
D03*
Y134000D02*
D03*
X151000Y96000D02*
D03*
X145000D02*
D03*
X44000Y33000D02*
D03*
X49000D02*
D03*
X54000D02*
D03*
X59000D02*
D03*
X64000D02*
D03*
X44000Y187000D02*
D03*
X49000D02*
D03*
X54000D02*
D03*
X59000D02*
D03*
X64000D02*
D03*
D141*
X35015Y205015D02*
D03*
Y15015D02*
D03*
D142*
X40015Y205015D02*
D03*
X45015D02*
D03*
X50015D02*
D03*
X55015D02*
D03*
X60015D02*
D03*
X65015D02*
D03*
Y15015D02*
D03*
X60015D02*
D03*
X55015D02*
D03*
X50015D02*
D03*
X45015D02*
D03*
X40015D02*
D03*
X315015Y205015D02*
D03*
X310015D02*
D03*
X335015Y15015D02*
D03*
D144*
X125500Y26500D02*
D03*
X210551Y148031D02*
D03*
X198740D02*
D03*
X192834Y159842D02*
D03*
X186929Y148031D02*
D03*
X181024Y159842D02*
D03*
Y88976D02*
D03*
X169212Y159842D02*
D03*
Y112598D02*
D03*
Y65354D02*
D03*
X163307Y53543D02*
D03*
X157401Y159842D02*
D03*
X151496Y100787D02*
D03*
Y53543D02*
D03*
X139685Y100787D02*
D03*
Y53543D02*
D03*
X127874Y100787D02*
D03*
X116063D02*
D03*
X104252D02*
D03*
X68819Y148031D02*
D03*
X74724Y136220D02*
D03*
X68819Y124409D02*
D03*
Y100787D02*
D03*
X74724Y88976D02*
D03*
X68819Y77165D02*
D03*
X57008Y148031D02*
D03*
Y77165D02*
D03*
Y6299D02*
D03*
X45197D02*
D03*
X33386Y77165D02*
D03*
Y6299D02*
D03*
X27480Y112598D02*
D03*
X15669D02*
D03*
X123150Y194627D02*
D03*
Y201989D02*
D03*
X128679Y206850D02*
D03*
X136041D02*
D03*
X143404D02*
D03*
X150766D02*
D03*
X158128D02*
D03*
X165490D02*
D03*
X172852D02*
D03*
X180215D02*
D03*
X187577D02*
D03*
X194713Y205040D02*
D03*
X199919Y199834D02*
D03*
X205125Y194628D02*
D03*
X210331Y189422D02*
D03*
X163304Y11150D02*
D03*
X155942D02*
D03*
X148580D02*
D03*
X141218D02*
D03*
X133855D02*
D03*
X126493D02*
D03*
X120427Y15321D02*
D03*
X171877Y3473D02*
D03*
X212409Y200496D02*
D03*
X207203Y205701D02*
D03*
X201997Y210907D02*
D03*
X196619Y215935D02*
D03*
X189260Y216150D02*
D03*
X181898D02*
D03*
X174536D02*
D03*
X167173D02*
D03*
X159811D02*
D03*
X152449D02*
D03*
X145087D02*
D03*
X137724D02*
D03*
X130362D02*
D03*
X123000D02*
D03*
X190500Y199000D02*
D03*
X134000Y170000D02*
D03*
X134500Y176785D02*
D03*
X144500Y194500D02*
D03*
X259500Y81500D02*
D03*
X264500Y47000D02*
D03*
X227000Y129500D02*
D03*
Y109500D02*
D03*
X227260Y91421D02*
D03*
X230000Y41500D02*
D03*
X197000Y132500D02*
D03*
X179500Y129500D02*
D03*
X176000D02*
D03*
X183000D02*
D03*
X186500D02*
D03*
X381693Y51022D02*
D03*
X283000Y44118D02*
D03*
X326500Y150000D02*
D03*
X291004Y154004D02*
D03*
X352618Y36500D02*
D03*
X322618D02*
D03*
X345500Y103197D02*
D03*
X363000Y49000D02*
D03*
X332000Y91000D02*
D03*
X346000Y68618D02*
D03*
X283500Y213000D02*
D03*
X271118Y194500D02*
D03*
X252500Y32882D02*
D03*
X230000Y30500D02*
D03*
X210500Y30882D02*
D03*
X345500Y110382D02*
D03*
X233500Y172500D02*
D03*
X201500Y170500D02*
D03*
X185500Y49000D02*
D03*
X174500Y28000D02*
D03*
X344500Y93000D02*
D03*
X181500Y194000D02*
D03*
X156500Y189000D02*
D03*
X116000Y204000D02*
D03*
X108000Y194500D02*
D03*
X177000Y47500D02*
D03*
X127500Y18500D02*
D03*
X228500Y192000D02*
D03*
X345500Y139500D02*
D03*
X111000Y31161D02*
D03*
X281000Y95500D02*
D03*
X109000Y13780D02*
D03*
X104500Y26000D02*
D03*
X89500Y16000D02*
D03*
X358469Y127803D02*
D03*
X206500Y105500D02*
D03*
X200000D02*
D03*
X233118Y27000D02*
D03*
X206000Y26500D02*
D03*
X179500Y109500D02*
D03*
X183500D02*
D03*
X187000D02*
D03*
X223500D02*
D03*
X220000D02*
D03*
X216500D02*
D03*
Y129500D02*
D03*
X220000D02*
D03*
X223500D02*
D03*
X176000Y109500D02*
D03*
X208488Y119500D02*
D03*
X194512D02*
D03*
X201500Y123000D02*
D03*
Y116000D02*
D03*
X205000D02*
D03*
Y123000D02*
D03*
X198000D02*
D03*
Y116000D02*
D03*
X205000Y119500D02*
D03*
X198000D02*
D03*
X201500D02*
D03*
X213000D02*
D03*
X216500D02*
D03*
X220000D02*
D03*
X223500D02*
D03*
X190000D02*
D03*
X186500D02*
D03*
X183000D02*
D03*
X384000Y152000D02*
D03*
Y157000D02*
D03*
X210000Y99000D02*
D03*
X206500D02*
D03*
X203000D02*
D03*
X83500Y97457D02*
D03*
X98500Y119272D02*
D03*
Y149272D02*
D03*
Y152543D02*
D03*
X83500Y70728D02*
D03*
Y67457D02*
D03*
Y100728D02*
D03*
X98500Y122543D02*
D03*
X86000Y194000D02*
D03*
X101000Y214000D02*
D03*
D145*
X59000Y33000D02*
X64000D01*
X54000D02*
X59000D01*
X49000D02*
X54000D01*
X44000D02*
X49000D01*
X59000Y187000D02*
X64000D01*
X54000D02*
X59000D01*
X49000D02*
X54000D01*
X44000D02*
X49000D01*
X165500Y134500D02*
X177500Y146500D01*
X165500Y125000D02*
Y134500D01*
X153851Y113352D02*
X165500Y125000D01*
X153940Y106560D02*
X168000Y92500D01*
X177500D01*
X50060Y106560D02*
X153940D01*
X50148Y113352D02*
X153851D01*
X42000Y121500D02*
Y167000D01*
X30000Y170000D02*
X39000D01*
X42000Y167000D01*
Y121500D02*
X50148Y113352D01*
X42000Y54000D02*
Y98500D01*
X50060Y106560D01*
X30000Y50000D02*
X38000D01*
X42000Y54000D01*
M02*
