G04*
G04 #@! TF.GenerationSoftware,Altium Limited,Altium Designer,21.6.4 (81)*
G04*
G04 Layer_Physical_Order=2*
G04 Layer_Color=36540*
%FSLAX25Y25*%
%MOIN*%
G70*
G04*
G04 #@! TF.SameCoordinates,FA744667-6012-4636-895A-91306D9B36BD*
G04*
G04*
G04 #@! TF.FilePolarity,Positive*
G04*
G01*
G75*
%ADD130C,0.02362*%
%ADD140C,0.03347*%
%ADD141R,0.03976X0.03976*%
%ADD142C,0.03976*%
%ADD144C,0.02362*%
%ADD145C,0.03347*%
G36*
X377068Y218056D02*
X379085Y217572D01*
X381001Y216778D01*
X382770Y215694D01*
X384347Y214347D01*
X385695Y212770D01*
X386778Y211001D01*
X387572Y209085D01*
X388056Y207068D01*
X388212Y205092D01*
X388194Y205000D01*
Y15000D01*
X388212Y14908D01*
X388056Y12932D01*
X387572Y10915D01*
X386778Y8999D01*
X385695Y7230D01*
X384347Y5653D01*
X382770Y4306D01*
X381001Y3222D01*
X379085Y2428D01*
X377068Y1944D01*
X375092Y1788D01*
X375000Y1806D01*
X72870D01*
Y13096D01*
X73370Y13242D01*
X74083Y12765D01*
X74815Y12620D01*
Y15015D01*
Y17410D01*
X74083Y17265D01*
X73370Y16788D01*
X72870Y16934D01*
Y44819D01*
X76477D01*
X79649Y41649D01*
X79649Y41649D01*
X80039Y41387D01*
X80500Y41296D01*
X80500Y41296D01*
X118001D01*
X121296Y38001D01*
Y17500D01*
X121296Y17500D01*
X121387Y17039D01*
X121649Y16648D01*
X125648Y12649D01*
X125648Y12649D01*
X126039Y12387D01*
X126500Y12296D01*
X165500D01*
X165500Y12296D01*
X165961Y12387D01*
X166351Y12649D01*
X177351Y23649D01*
X177613Y24039D01*
X177704Y24500D01*
X177613Y24961D01*
X177351Y25352D01*
X176961Y25613D01*
X176500Y25704D01*
X176039Y25613D01*
X175648Y25352D01*
X165001Y14704D01*
X126999D01*
X123704Y17999D01*
Y24813D01*
X124204Y24998D01*
X124732Y24646D01*
X125500Y24493D01*
X126268Y24646D01*
X126919Y25081D01*
X127354Y25732D01*
X127507Y26500D01*
X127354Y27268D01*
X126919Y27919D01*
X126268Y28354D01*
X125500Y28507D01*
X124732Y28354D01*
X124204Y28002D01*
X123704Y28187D01*
Y38500D01*
X123613Y38961D01*
X123352Y39351D01*
X123352Y39351D01*
X119351Y43352D01*
X118961Y43613D01*
X118500Y43704D01*
X118500Y43704D01*
X111854D01*
X111709Y44183D01*
X111774Y44226D01*
X112318Y45040D01*
X112509Y46000D01*
X112318Y46960D01*
X111774Y47774D01*
X110960Y48318D01*
X110000Y48509D01*
X109040Y48318D01*
X108226Y47774D01*
X107682Y46960D01*
X107491Y46000D01*
X107682Y45040D01*
X108226Y44226D01*
X108291Y44183D01*
X108146Y43704D01*
X80999D01*
X77828Y46875D01*
X77437Y47136D01*
X76976Y47228D01*
X76976Y47228D01*
X71665D01*
X71205Y47136D01*
X70814Y46875D01*
X70553Y46485D01*
X70461Y46024D01*
Y17755D01*
X70215Y17553D01*
Y15015D01*
Y12477D01*
X70461Y12275D01*
Y1806D01*
X15030D01*
X14934Y1787D01*
X12945Y1944D01*
X10925Y2429D01*
X9007Y3223D01*
X7236Y4308D01*
X5657Y5657D01*
X4308Y7236D01*
X3223Y9007D01*
X2429Y10925D01*
X1944Y12945D01*
X1821Y14508D01*
X1806Y15002D01*
X1806Y15030D01*
X1806Y15494D01*
Y29515D01*
X2289Y29792D01*
X2306Y29790D01*
X2598Y29732D01*
X33402D01*
X33709Y29793D01*
X33970Y29967D01*
X34144Y30228D01*
X34205Y30535D01*
Y53465D01*
X34144Y53772D01*
X33970Y54033D01*
X33709Y54207D01*
X33402Y54268D01*
X2598D01*
X2306Y54210D01*
X2289Y54208D01*
X1806Y54484D01*
Y165515D01*
X2289Y165793D01*
X2306Y165790D01*
X2598Y165732D01*
X33402D01*
X33709Y165793D01*
X33970Y165967D01*
X34144Y166228D01*
X34205Y166535D01*
Y189465D01*
X34144Y189772D01*
X33970Y190033D01*
X33709Y190207D01*
X33402Y190268D01*
X2598D01*
X2306Y190210D01*
X2289Y190208D01*
X1806Y190484D01*
Y205000D01*
X1806Y205000D01*
X1806D01*
X1820Y205494D01*
X1944Y207068D01*
X2428Y209085D01*
X3222Y211001D01*
X4306Y212770D01*
X5653Y214347D01*
X7230Y215694D01*
X8999Y216778D01*
X10915Y217572D01*
X12932Y218056D01*
X14908Y218212D01*
X15000Y218194D01*
X70461D01*
Y207755D01*
X70215Y207553D01*
Y205015D01*
Y202477D01*
X70461Y202275D01*
Y173976D01*
X70461Y173976D01*
X70553Y173515D01*
X70814Y173125D01*
X71205Y172864D01*
X71665Y172772D01*
X76976D01*
X76976Y172772D01*
X77437Y172864D01*
X77828Y173125D01*
X80999Y176296D01*
X108146D01*
X108291Y175817D01*
X108226Y175774D01*
X107682Y174960D01*
X107491Y174000D01*
X107682Y173040D01*
X108226Y172226D01*
X109040Y171682D01*
X110000Y171491D01*
X110960Y171682D01*
X111774Y172226D01*
X112318Y173040D01*
X112509Y174000D01*
X112318Y174960D01*
X111774Y175774D01*
X111709Y175817D01*
X111854Y176296D01*
X120000D01*
X120000Y176296D01*
X120461Y176387D01*
X120852Y176648D01*
X121352Y177148D01*
X121613Y177539D01*
X121704Y178000D01*
X121704Y178000D01*
Y186501D01*
X126351Y191148D01*
X126351Y191148D01*
X126613Y191539D01*
X126704Y192000D01*
Y193500D01*
Y198001D01*
X131499Y202796D01*
X175468D01*
X175704Y202355D01*
X175646Y202268D01*
X175493Y201500D01*
X175646Y200732D01*
X176081Y200081D01*
X176732Y199646D01*
X177500Y199493D01*
X178268Y199646D01*
X178919Y200081D01*
X179354Y200732D01*
X179507Y201500D01*
X179354Y202268D01*
X179296Y202355D01*
X179532Y202796D01*
X191001D01*
X213399Y180398D01*
X213789Y180137D01*
X214250Y180046D01*
X214711Y180137D01*
X215102Y180398D01*
X215363Y180789D01*
X215454Y181250D01*
X215363Y181711D01*
X215102Y182102D01*
X192351Y204852D01*
X191961Y205113D01*
X191500Y205204D01*
X191500Y205204D01*
X131000D01*
X130539Y205113D01*
X130148Y204852D01*
X130148Y204852D01*
X124648Y199352D01*
X124387Y198961D01*
X124296Y198500D01*
X124296Y198500D01*
Y192499D01*
X119649Y187852D01*
X119387Y187461D01*
X119296Y187000D01*
X119296Y187000D01*
Y178704D01*
X80500D01*
X80500Y178704D01*
X80039Y178613D01*
X79649Y178351D01*
X79648Y178351D01*
X76477Y175181D01*
X72870D01*
Y203096D01*
X73370Y203242D01*
X74083Y202765D01*
X74815Y202620D01*
Y205015D01*
Y207410D01*
X74083Y207265D01*
X73370Y206788D01*
X72870Y206934D01*
Y218194D01*
X375000D01*
X375092Y218212D01*
X377068Y218056D01*
D02*
G37*
G36*
X33402Y166535D02*
X2598D01*
Y189465D01*
X33402D01*
Y166535D01*
D02*
G37*
G36*
Y30535D02*
X2598D01*
Y53465D01*
X33402D01*
Y30535D01*
D02*
G37*
%LPC*%
G36*
X101000Y216007D02*
X100232Y215854D01*
X99581Y215419D01*
X99146Y214768D01*
X98993Y214000D01*
X99146Y213232D01*
X99581Y212581D01*
X100232Y212146D01*
X101000Y211993D01*
X101768Y212146D01*
X102419Y212581D01*
X102854Y213232D01*
X103007Y214000D01*
X102854Y214768D01*
X102419Y215419D01*
X101768Y215854D01*
X101000Y216007D01*
D02*
G37*
G36*
X283500Y215007D02*
X282732Y214854D01*
X282081Y214419D01*
X281646Y213768D01*
X281493Y213000D01*
X281646Y212232D01*
X282081Y211581D01*
X282732Y211146D01*
X283500Y210993D01*
X284268Y211146D01*
X284919Y211581D01*
X285354Y212232D01*
X285507Y213000D01*
X285354Y213768D01*
X284919Y214419D01*
X284268Y214854D01*
X283500Y215007D01*
D02*
G37*
G36*
X111500Y212007D02*
X110732Y211854D01*
X110081Y211419D01*
X109646Y210768D01*
X109493Y210000D01*
X109646Y209232D01*
X110081Y208581D01*
X110732Y208146D01*
X111500Y207993D01*
X112268Y208146D01*
X112919Y208581D01*
X113354Y209232D01*
X113507Y210000D01*
X113354Y210768D01*
X112919Y211419D01*
X112268Y211854D01*
X111500Y212007D01*
D02*
G37*
G36*
X315015Y207815D02*
X314290Y207719D01*
X313615Y207439D01*
X313035Y206995D01*
X312830Y206727D01*
X312200D01*
X311995Y206995D01*
X311415Y207439D01*
X310740Y207719D01*
X310015Y207815D01*
X309290Y207719D01*
X308615Y207439D01*
X308035Y206995D01*
X307591Y206415D01*
X307311Y205740D01*
X307215Y205015D01*
X307311Y204290D01*
X307591Y203615D01*
X308035Y203035D01*
X308615Y202590D01*
X309290Y202311D01*
X310015Y202216D01*
X310740Y202311D01*
X311415Y202590D01*
X311995Y203035D01*
X312200Y203303D01*
X312830D01*
X313035Y203035D01*
X313615Y202590D01*
X314290Y202311D01*
X315015Y202216D01*
X315740Y202311D01*
X316415Y202590D01*
X316995Y203035D01*
X317440Y203615D01*
X317454Y203650D01*
X318018Y203705D01*
X318293Y203293D01*
X319083Y202765D01*
X319815Y202620D01*
Y205015D01*
Y207410D01*
X319083Y207265D01*
X318293Y206737D01*
X318018Y206325D01*
X317454Y206380D01*
X317440Y206415D01*
X316995Y206995D01*
X316415Y207439D01*
X315740Y207719D01*
X315015Y207815D01*
D02*
G37*
G36*
X39815Y207410D02*
X39083Y207265D01*
X38293Y206737D01*
X37903Y206153D01*
X37403Y206305D01*
Y207403D01*
X35215D01*
Y205015D01*
Y202627D01*
X37403D01*
Y203725D01*
X37903Y203877D01*
X38293Y203293D01*
X39083Y202765D01*
X39815Y202620D01*
Y205015D01*
Y207410D01*
D02*
G37*
G36*
X324815Y207410D02*
X324083Y207265D01*
X323293Y206737D01*
X322772Y205957D01*
X322712Y205947D01*
X322318D01*
X322258Y205957D01*
X321737Y206737D01*
X320947Y207265D01*
X320215Y207410D01*
Y205015D01*
Y202620D01*
X320947Y202765D01*
X321737Y203293D01*
X322258Y204073D01*
X322318Y204083D01*
X322712D01*
X322772Y204073D01*
X323293Y203293D01*
X324083Y202765D01*
X324815Y202620D01*
Y205015D01*
Y207410D01*
D02*
G37*
G36*
X79815Y207410D02*
X79083Y207265D01*
X78293Y206737D01*
X77772Y205957D01*
X77712Y205947D01*
X77318D01*
X77258Y205957D01*
X76737Y206737D01*
X75947Y207265D01*
X75215Y207410D01*
Y205015D01*
Y202620D01*
X75947Y202765D01*
X76737Y203293D01*
X77258Y204073D01*
X77318Y204083D01*
X77712D01*
X77772Y204073D01*
X78293Y203293D01*
X79083Y202765D01*
X79815Y202620D01*
Y205015D01*
Y207410D01*
D02*
G37*
G36*
X349815Y207410D02*
X349083Y207265D01*
X348293Y206737D01*
X347772Y205957D01*
X347712Y205947D01*
X347318D01*
X347258Y205957D01*
X346737Y206737D01*
X345947Y207265D01*
X345215Y207410D01*
Y205015D01*
Y202620D01*
X345947Y202765D01*
X346737Y203293D01*
X347258Y204073D01*
X347318Y204083D01*
X347712D01*
X347772Y204073D01*
X348293Y203293D01*
X349083Y202765D01*
X349815Y202620D01*
Y205015D01*
Y207410D01*
D02*
G37*
G36*
X344815D02*
X344083Y207265D01*
X343293Y206737D01*
X342772Y205957D01*
X342712Y205947D01*
X342318D01*
X342258Y205957D01*
X341737Y206737D01*
X340947Y207265D01*
X340215Y207410D01*
Y205015D01*
Y202620D01*
X340947Y202765D01*
X341737Y203293D01*
X342258Y204073D01*
X342318Y204083D01*
X342712D01*
X342772Y204073D01*
X343293Y203293D01*
X344083Y202765D01*
X344815Y202620D01*
Y205015D01*
Y207410D01*
D02*
G37*
G36*
X339815D02*
X339083Y207265D01*
X338293Y206737D01*
X337772Y205957D01*
X337712Y205947D01*
X337318D01*
X337258Y205957D01*
X336737Y206737D01*
X335947Y207265D01*
X335215Y207410D01*
Y205015D01*
Y202620D01*
X335947Y202765D01*
X336737Y203293D01*
X337258Y204073D01*
X337318Y204083D01*
X337712D01*
X337772Y204073D01*
X338293Y203293D01*
X339083Y202765D01*
X339815Y202620D01*
Y205015D01*
Y207410D01*
D02*
G37*
G36*
X334815D02*
X334083Y207265D01*
X333293Y206737D01*
X332772Y205957D01*
X332712Y205947D01*
X332318D01*
X332258Y205957D01*
X331737Y206737D01*
X330947Y207265D01*
X330215Y207410D01*
Y205015D01*
Y202620D01*
X330947Y202765D01*
X331737Y203293D01*
X332258Y204073D01*
X332318Y204083D01*
X332712D01*
X332772Y204073D01*
X333293Y203293D01*
X334083Y202765D01*
X334815Y202620D01*
Y205015D01*
Y207410D01*
D02*
G37*
G36*
X329815D02*
X329083Y207265D01*
X328293Y206737D01*
X327772Y205957D01*
X327712Y205947D01*
X327318D01*
X327258Y205957D01*
X326737Y206737D01*
X325947Y207265D01*
X325215Y207410D01*
Y205015D01*
Y202620D01*
X325947Y202765D01*
X326737Y203293D01*
X327258Y204073D01*
X327318Y204083D01*
X327712D01*
X327772Y204073D01*
X328293Y203293D01*
X329083Y202765D01*
X329815Y202620D01*
Y205015D01*
Y207410D01*
D02*
G37*
G36*
X69815Y207410D02*
X69083Y207265D01*
X68293Y206737D01*
X67772Y205957D01*
X67712Y205947D01*
X67318D01*
X67258Y205957D01*
X66737Y206737D01*
X65947Y207265D01*
X65215Y207410D01*
Y205015D01*
Y202620D01*
X65947Y202765D01*
X66737Y203293D01*
X67258Y204073D01*
X67318Y204083D01*
X67712D01*
X67772Y204073D01*
X68293Y203293D01*
X69083Y202765D01*
X69815Y202620D01*
Y205015D01*
Y207410D01*
D02*
G37*
G36*
X64815D02*
X64083Y207265D01*
X63293Y206737D01*
X62772Y205957D01*
X62712Y205947D01*
X62318D01*
X62258Y205957D01*
X61737Y206737D01*
X60947Y207265D01*
X60215Y207410D01*
Y205015D01*
Y202620D01*
X60947Y202765D01*
X61737Y203293D01*
X62258Y204073D01*
X62318Y204083D01*
X62712D01*
X62772Y204073D01*
X63293Y203293D01*
X64083Y202765D01*
X64815Y202620D01*
Y205015D01*
Y207410D01*
D02*
G37*
G36*
X59815D02*
X59083Y207265D01*
X58293Y206737D01*
X57772Y205957D01*
X57712Y205947D01*
X57318D01*
X57258Y205957D01*
X56737Y206737D01*
X55947Y207265D01*
X55215Y207410D01*
Y205015D01*
Y202620D01*
X55947Y202765D01*
X56737Y203293D01*
X57258Y204073D01*
X57318Y204083D01*
X57712D01*
X57772Y204073D01*
X58293Y203293D01*
X59083Y202765D01*
X59815Y202620D01*
Y205015D01*
Y207410D01*
D02*
G37*
G36*
X54815D02*
X54083Y207265D01*
X53293Y206737D01*
X52772Y205957D01*
X52712Y205947D01*
X52318D01*
X52258Y205957D01*
X51737Y206737D01*
X50947Y207265D01*
X50215Y207410D01*
Y205015D01*
Y202620D01*
X50947Y202765D01*
X51737Y203293D01*
X52258Y204073D01*
X52318Y204083D01*
X52712D01*
X52772Y204073D01*
X53293Y203293D01*
X54083Y202765D01*
X54815Y202620D01*
Y205015D01*
Y207410D01*
D02*
G37*
G36*
X49815D02*
X49083Y207265D01*
X48293Y206737D01*
X47772Y205957D01*
X47712Y205947D01*
X47318D01*
X47258Y205957D01*
X46737Y206737D01*
X45947Y207265D01*
X45215Y207410D01*
Y205015D01*
Y202620D01*
X45947Y202765D01*
X46737Y203293D01*
X47258Y204073D01*
X47318Y204083D01*
X47712D01*
X47772Y204073D01*
X48293Y203293D01*
X49083Y202765D01*
X49815Y202620D01*
Y205015D01*
Y207410D01*
D02*
G37*
G36*
X44815D02*
X44083Y207265D01*
X43293Y206737D01*
X42772Y205957D01*
X42712Y205947D01*
X42318D01*
X42258Y205957D01*
X41737Y206737D01*
X40947Y207265D01*
X40215Y207410D01*
Y205015D01*
Y202620D01*
X40947Y202765D01*
X41737Y203293D01*
X42258Y204073D01*
X42318Y204083D01*
X42712D01*
X42772Y204073D01*
X43293Y203293D01*
X44083Y202765D01*
X44815Y202620D01*
Y205015D01*
Y207410D01*
D02*
G37*
G36*
X357403Y207403D02*
X355215D01*
Y205215D01*
X357403D01*
Y207403D01*
D02*
G37*
G36*
X80215Y207410D02*
Y205215D01*
X82410D01*
X82265Y205947D01*
X81737Y206737D01*
X80947Y207265D01*
X80215Y207410D01*
D02*
G37*
G36*
X34815Y207403D02*
X32627D01*
Y205215D01*
X34815D01*
Y207403D01*
D02*
G37*
G36*
X357403Y204815D02*
X355215D01*
Y202627D01*
X357403D01*
Y204815D01*
D02*
G37*
G36*
X350215Y207410D02*
Y205015D01*
Y202620D01*
X350947Y202765D01*
X351737Y203293D01*
X352127Y203877D01*
X352627Y203725D01*
Y202627D01*
X354815D01*
Y205015D01*
Y207403D01*
X352627D01*
Y206305D01*
X352127Y206153D01*
X351737Y206737D01*
X350947Y207265D01*
X350215Y207410D01*
D02*
G37*
G36*
X34815Y204815D02*
X32627D01*
Y202627D01*
X34815D01*
Y204815D01*
D02*
G37*
G36*
X82410D02*
X80215D01*
Y202620D01*
X80947Y202765D01*
X81737Y203293D01*
X82265Y204083D01*
X82410Y204815D01*
D02*
G37*
G36*
X116000Y206007D02*
X115232Y205854D01*
X114581Y205419D01*
X114146Y204768D01*
X113993Y204000D01*
X114146Y203232D01*
X114581Y202581D01*
X115232Y202146D01*
X116000Y201993D01*
X116768Y202146D01*
X117419Y202581D01*
X117854Y203232D01*
X118007Y204000D01*
X117854Y204768D01*
X117419Y205419D01*
X116768Y205854D01*
X116000Y206007D01*
D02*
G37*
G36*
X190500Y201007D02*
X189732Y200854D01*
X189081Y200419D01*
X188646Y199768D01*
X188493Y199000D01*
X188646Y198232D01*
X189081Y197581D01*
X189732Y197146D01*
X190500Y196993D01*
X191268Y197146D01*
X191919Y197581D01*
X192354Y198232D01*
X192507Y199000D01*
X192354Y199768D01*
X191919Y200419D01*
X191268Y200854D01*
X190500Y201007D01*
D02*
G37*
G36*
X271118Y196507D02*
X270350Y196354D01*
X269699Y195919D01*
X269264Y195268D01*
X269111Y194500D01*
X269264Y193732D01*
X269699Y193081D01*
X270350Y192646D01*
X271118Y192493D01*
X271886Y192646D01*
X272537Y193081D01*
X272972Y193732D01*
X273125Y194500D01*
X272972Y195268D01*
X272537Y195919D01*
X271886Y196354D01*
X271118Y196507D01*
D02*
G37*
G36*
X144500D02*
X143732Y196354D01*
X143081Y195919D01*
X142646Y195268D01*
X142493Y194500D01*
X142646Y193732D01*
X143081Y193081D01*
X143732Y192646D01*
X144500Y192493D01*
X145268Y192646D01*
X145919Y193081D01*
X146354Y193732D01*
X146507Y194500D01*
X146354Y195268D01*
X145919Y195919D01*
X145268Y196354D01*
X144500Y196507D01*
D02*
G37*
G36*
X108000D02*
X107232Y196354D01*
X106581Y195919D01*
X106146Y195268D01*
X105993Y194500D01*
X106146Y193732D01*
X106581Y193081D01*
X107232Y192646D01*
X108000Y192493D01*
X108768Y192646D01*
X109419Y193081D01*
X109854Y193732D01*
X110007Y194500D01*
X109854Y195268D01*
X109419Y195919D01*
X108768Y196354D01*
X108000Y196507D01*
D02*
G37*
G36*
X375000Y217637D02*
X373023Y217482D01*
X371095Y217019D01*
X369263Y216260D01*
X367572Y215224D01*
X366064Y213936D01*
X364776Y212428D01*
X363740Y210737D01*
X362981Y208905D01*
X362518Y206977D01*
X362363Y205000D01*
X362518Y203023D01*
X362981Y201095D01*
X363740Y199263D01*
X364776Y197572D01*
X366064Y196064D01*
X367572Y194776D01*
X369263Y193740D01*
X371095Y192981D01*
X373023Y192518D01*
X375000Y192363D01*
X376977Y192518D01*
X378905Y192981D01*
X380737Y193740D01*
X382428Y194776D01*
X383936Y196064D01*
X385224Y197572D01*
X386260Y199263D01*
X387019Y201095D01*
X387482Y203023D01*
X387637Y205000D01*
X387482Y206977D01*
X387019Y208905D01*
X386260Y210737D01*
X385224Y212428D01*
X383936Y213936D01*
X382428Y215224D01*
X380737Y216260D01*
X378905Y217019D01*
X376977Y217482D01*
X375000Y217637D01*
D02*
G37*
G36*
X15000D02*
X13023Y217482D01*
X11095Y217019D01*
X9263Y216260D01*
X7572Y215224D01*
X6064Y213936D01*
X4776Y212428D01*
X3740Y210737D01*
X2981Y208905D01*
X2518Y206977D01*
X2363Y205000D01*
X2518Y203023D01*
X2981Y201095D01*
X3740Y199263D01*
X4776Y197572D01*
X6064Y196064D01*
X7572Y194776D01*
X9263Y193740D01*
X11095Y192981D01*
X13023Y192518D01*
X15000Y192363D01*
X16977Y192518D01*
X18905Y192981D01*
X20737Y193740D01*
X22428Y194776D01*
X23936Y196064D01*
X25224Y197572D01*
X26260Y199263D01*
X27019Y201095D01*
X27482Y203023D01*
X27637Y205000D01*
X27482Y206977D01*
X27019Y208905D01*
X26260Y210737D01*
X25224Y212428D01*
X23936Y213936D01*
X22428Y215224D01*
X20737Y216260D01*
X18905Y217019D01*
X16977Y217482D01*
X15000Y217637D01*
D02*
G37*
G36*
X181500Y196007D02*
X180732Y195854D01*
X180081Y195419D01*
X179646Y194768D01*
X179493Y194000D01*
X179646Y193232D01*
X180081Y192581D01*
X180732Y192146D01*
X181500Y191993D01*
X182268Y192146D01*
X182919Y192581D01*
X183354Y193232D01*
X183507Y194000D01*
X183354Y194768D01*
X182919Y195419D01*
X182268Y195854D01*
X181500Y196007D01*
D02*
G37*
G36*
X86000D02*
X85232Y195854D01*
X84581Y195419D01*
X84146Y194768D01*
X83993Y194000D01*
X84146Y193232D01*
X84581Y192581D01*
X85232Y192146D01*
X86000Y191993D01*
X86768Y192146D01*
X87419Y192581D01*
X87854Y193232D01*
X88007Y194000D01*
X87854Y194768D01*
X87419Y195419D01*
X86768Y195854D01*
X86000Y196007D01*
D02*
G37*
G36*
X228500Y194007D02*
X227732Y193854D01*
X227081Y193419D01*
X226646Y192768D01*
X226493Y192000D01*
X226646Y191232D01*
X227081Y190581D01*
X227732Y190146D01*
X228500Y189993D01*
X229268Y190146D01*
X229919Y190581D01*
X230354Y191232D01*
X230507Y192000D01*
X230354Y192768D01*
X229919Y193419D01*
X229268Y193854D01*
X228500Y194007D01*
D02*
G37*
G36*
X156500Y191007D02*
X155732Y190854D01*
X155081Y190419D01*
X154646Y189768D01*
X154493Y189000D01*
X154646Y188232D01*
X155081Y187581D01*
X155732Y187146D01*
X156500Y186993D01*
X157268Y187146D01*
X157919Y187581D01*
X158354Y188232D01*
X158507Y189000D01*
X158354Y189768D01*
X157919Y190419D01*
X157268Y190854D01*
X156500Y191007D01*
D02*
G37*
G36*
X112500D02*
X111732Y190854D01*
X111081Y190419D01*
X110646Y189768D01*
X110493Y189000D01*
X110646Y188232D01*
X111081Y187581D01*
X111732Y187146D01*
X112500Y186993D01*
X113268Y187146D01*
X113919Y187581D01*
X114354Y188232D01*
X114507Y189000D01*
X114354Y189768D01*
X113919Y190419D01*
X113268Y190854D01*
X112500Y191007D01*
D02*
G37*
G36*
X64000Y189509D02*
X44000D01*
X43040Y189318D01*
X42226Y188774D01*
X41682Y187960D01*
X41491Y187000D01*
X41682Y186040D01*
X42226Y185226D01*
X43040Y184682D01*
X44000Y184491D01*
X64000D01*
X64960Y184682D01*
X65774Y185226D01*
X66318Y186040D01*
X66509Y187000D01*
X66318Y187960D01*
X65774Y188774D01*
X64960Y189318D01*
X64000Y189509D01*
D02*
G37*
G36*
X145000Y186507D02*
X144232Y186354D01*
X143581Y185919D01*
X143146Y185268D01*
X142993Y184500D01*
X143146Y183732D01*
X143581Y183081D01*
X144232Y182646D01*
X145000Y182493D01*
X145768Y182646D01*
X146419Y183081D01*
X146854Y183732D01*
X147007Y184500D01*
X146854Y185268D01*
X146419Y185919D01*
X145768Y186354D01*
X145000Y186507D01*
D02*
G37*
G36*
X344000Y182007D02*
X343232Y181854D01*
X342581Y181419D01*
X342284Y180975D01*
X341716D01*
X341419Y181419D01*
X340768Y181854D01*
X340000Y182007D01*
X339232Y181854D01*
X338581Y181419D01*
X338146Y180768D01*
X337993Y180000D01*
X338146Y179232D01*
X338581Y178581D01*
X339232Y178146D01*
X340000Y177993D01*
X340768Y178146D01*
X341419Y178581D01*
X341716Y179025D01*
X342284D01*
X342581Y178581D01*
X343232Y178146D01*
X344000Y177993D01*
X344768Y178146D01*
X345419Y178581D01*
X345854Y179232D01*
X346007Y180000D01*
X345854Y180768D01*
X345419Y181419D01*
X344768Y181854D01*
X344000Y182007D01*
D02*
G37*
G36*
X134500Y178792D02*
X133732Y178639D01*
X133081Y178204D01*
X132646Y177553D01*
X132493Y176785D01*
X132646Y176017D01*
X133081Y175366D01*
X133732Y174931D01*
X134500Y174778D01*
X135268Y174931D01*
X135919Y175366D01*
X136354Y176017D01*
X136507Y176785D01*
X136354Y177553D01*
X135919Y178204D01*
X135268Y178639D01*
X134500Y178792D01*
D02*
G37*
G36*
X233500Y174507D02*
X232732Y174354D01*
X232081Y173919D01*
X231646Y173268D01*
X231493Y172500D01*
X231646Y171732D01*
X232081Y171081D01*
X232732Y170646D01*
X233500Y170493D01*
X234268Y170646D01*
X234919Y171081D01*
X235354Y171732D01*
X235507Y172500D01*
X235354Y173268D01*
X234919Y173919D01*
X234268Y174354D01*
X233500Y174507D01*
D02*
G37*
G36*
X212000Y175009D02*
X211040Y174818D01*
X210226Y174274D01*
X209682Y173460D01*
X209491Y172500D01*
X209682Y171540D01*
X210226Y170726D01*
X211040Y170182D01*
X212000Y169991D01*
X212960Y170182D01*
X213774Y170726D01*
X214318Y171540D01*
X214509Y172500D01*
X214318Y173460D01*
X213774Y174274D01*
X212960Y174818D01*
X212000Y175009D01*
D02*
G37*
G36*
X201500Y172507D02*
X200732Y172354D01*
X200081Y171919D01*
X199646Y171268D01*
X199493Y170500D01*
X199646Y169732D01*
X200081Y169081D01*
X200732Y168646D01*
X201500Y168493D01*
X202268Y168646D01*
X202919Y169081D01*
X203354Y169732D01*
X203507Y170500D01*
X203354Y171268D01*
X202919Y171919D01*
X202268Y172354D01*
X201500Y172507D01*
D02*
G37*
G36*
X134000Y172007D02*
X133232Y171854D01*
X132581Y171419D01*
X132146Y170768D01*
X131993Y170000D01*
X132146Y169232D01*
X132581Y168581D01*
X133232Y168146D01*
X134000Y167993D01*
X134768Y168146D01*
X135419Y168581D01*
X135854Y169232D01*
X136007Y170000D01*
X135854Y170768D01*
X135419Y171419D01*
X134768Y171854D01*
X134000Y172007D01*
D02*
G37*
G36*
X171500Y170507D02*
X170732Y170354D01*
X170081Y169919D01*
X169646Y169268D01*
X169493Y168500D01*
X169646Y167732D01*
X170081Y167081D01*
X170732Y166646D01*
X171500Y166493D01*
X172268Y166646D01*
X172919Y167081D01*
X173354Y167732D01*
X173507Y168500D01*
X173354Y169268D01*
X172919Y169919D01*
X172268Y170354D01*
X171500Y170507D01*
D02*
G37*
G36*
X110000Y170509D02*
X109040Y170318D01*
X108226Y169774D01*
X107682Y168960D01*
X107491Y168000D01*
X107682Y167040D01*
X108226Y166226D01*
X109040Y165682D01*
X110000Y165491D01*
X110960Y165682D01*
X111774Y166226D01*
X112318Y167040D01*
X112509Y168000D01*
X112318Y168960D01*
X111774Y169774D01*
X110960Y170318D01*
X110000Y170509D01*
D02*
G37*
G36*
X63000Y169509D02*
X62040Y169318D01*
X61226Y168774D01*
X60682Y167960D01*
X60491Y167000D01*
X60682Y166040D01*
X61226Y165226D01*
X62040Y164682D01*
X63000Y164491D01*
X63960Y164682D01*
X64774Y165226D01*
X65318Y166040D01*
X65509Y167000D01*
X65318Y167960D01*
X64774Y168774D01*
X63960Y169318D01*
X63000Y169509D01*
D02*
G37*
G36*
X51000D02*
X50040Y169318D01*
X49226Y168774D01*
X48682Y167960D01*
X48491Y167000D01*
X48682Y166040D01*
X49226Y165226D01*
X50040Y164682D01*
X51000Y164491D01*
X51960Y164682D01*
X52774Y165226D01*
X53318Y166040D01*
X53509Y167000D01*
X53318Y167960D01*
X52774Y168774D01*
X51960Y169318D01*
X51000Y169509D01*
D02*
G37*
G36*
X31000Y164007D02*
X11000D01*
X10232Y163854D01*
X9581Y163419D01*
X9146Y162768D01*
X8993Y162000D01*
X9146Y161232D01*
X9581Y160581D01*
X10232Y160146D01*
X11000Y159993D01*
X31000D01*
X31768Y160146D01*
X32419Y160581D01*
X32854Y161232D01*
X33007Y162000D01*
X32854Y162768D01*
X32419Y163419D01*
X31768Y163854D01*
X31000Y164007D01*
D02*
G37*
G36*
X110000Y164509D02*
X109040Y164318D01*
X108226Y163774D01*
X107682Y162960D01*
X107491Y162000D01*
X107682Y161040D01*
X108226Y160226D01*
X109040Y159682D01*
X110000Y159491D01*
X110960Y159682D01*
X111774Y160226D01*
X112318Y161040D01*
X112509Y162000D01*
X112318Y162960D01*
X111774Y163774D01*
X110960Y164318D01*
X110000Y164509D01*
D02*
G37*
G36*
X333500Y180204D02*
X297500D01*
X297039Y180113D01*
X296649Y179851D01*
X296387Y179461D01*
X296296Y179000D01*
Y158000D01*
X296387Y157539D01*
X296649Y157149D01*
X297039Y156887D01*
X297500Y156796D01*
X305796D01*
Y152500D01*
Y149000D01*
X305796Y149000D01*
X305887Y148539D01*
X306149Y148149D01*
X307648Y146649D01*
X308039Y146387D01*
X308500Y146296D01*
X308500Y146296D01*
X311501D01*
X311749Y146048D01*
Y142591D01*
X311840Y142130D01*
X312101Y141739D01*
X312492Y141478D01*
X312953Y141386D01*
X313414Y141478D01*
X313804Y141739D01*
X314065Y142130D01*
X314157Y142591D01*
Y146547D01*
X314157Y146547D01*
X314065Y147008D01*
X313804Y147399D01*
X313804Y147399D01*
X312852Y148352D01*
X312461Y148613D01*
X312000Y148704D01*
X312000Y148704D01*
X308999D01*
X308204Y149499D01*
Y152500D01*
Y158000D01*
X308113Y158461D01*
X307852Y158852D01*
X307461Y159113D01*
X307000Y159204D01*
X298704D01*
Y177796D01*
X332296D01*
Y159999D01*
X330501Y158204D01*
X323500D01*
X323500Y158204D01*
X323039Y158113D01*
X322649Y157852D01*
X322649Y157852D01*
X318007Y153210D01*
X317746Y152819D01*
X317654Y152358D01*
X317654Y152358D01*
Y142591D01*
X317746Y142130D01*
X318007Y141739D01*
X318397Y141478D01*
X318858Y141386D01*
X319319Y141478D01*
X319710Y141739D01*
X319971Y142130D01*
X320062Y142591D01*
Y151859D01*
X323999Y155796D01*
X331000D01*
X331000Y155796D01*
X331461Y155887D01*
X331852Y156149D01*
X334351Y158649D01*
X334351Y158649D01*
X334613Y159039D01*
X334704Y159500D01*
Y160061D01*
X334788Y160094D01*
X335204Y160144D01*
X335581Y159581D01*
X336232Y159146D01*
X337000Y158993D01*
X337768Y159146D01*
X338419Y159581D01*
X338854Y160232D01*
X339007Y161000D01*
X338854Y161768D01*
X338419Y162419D01*
X337768Y162854D01*
X337000Y163007D01*
X336232Y162854D01*
X335581Y162419D01*
X335204Y161856D01*
X334788Y161906D01*
X334704Y161939D01*
Y179000D01*
X334613Y179461D01*
X334351Y179851D01*
X333961Y180113D01*
X333500Y180204D01*
D02*
G37*
G36*
X63000Y162509D02*
X62040Y162318D01*
X61226Y161774D01*
X60682Y160960D01*
X60491Y160000D01*
X60682Y159040D01*
X61226Y158226D01*
X62040Y157682D01*
X63000Y157491D01*
X63960Y157682D01*
X64774Y158226D01*
X65318Y159040D01*
X65509Y160000D01*
X65318Y160960D01*
X64774Y161774D01*
X63960Y162318D01*
X63000Y162509D01*
D02*
G37*
G36*
X51000D02*
X50040Y162318D01*
X49226Y161774D01*
X48682Y160960D01*
X48491Y160000D01*
X48682Y159040D01*
X49226Y158226D01*
X50040Y157682D01*
X51000Y157491D01*
X51960Y157682D01*
X52774Y158226D01*
X53318Y159040D01*
X53509Y160000D01*
X53318Y160960D01*
X52774Y161774D01*
X51960Y162318D01*
X51000Y162509D01*
D02*
G37*
G36*
X384000Y159007D02*
X383232Y158854D01*
X382581Y158419D01*
X382146Y157768D01*
X381993Y157000D01*
X382146Y156232D01*
X382581Y155581D01*
X383232Y155146D01*
X384000Y154993D01*
X384768Y155146D01*
X385419Y155581D01*
X385854Y156232D01*
X386007Y157000D01*
X385854Y157768D01*
X385419Y158419D01*
X384768Y158854D01*
X384000Y159007D01*
D02*
G37*
G36*
X110000Y158509D02*
X109040Y158318D01*
X108226Y157774D01*
X107682Y156960D01*
X107491Y156000D01*
X107682Y155040D01*
X108226Y154226D01*
X109040Y153682D01*
X110000Y153491D01*
X110960Y153682D01*
X111774Y154226D01*
X112318Y155040D01*
X112509Y156000D01*
X112318Y156960D01*
X111774Y157774D01*
X110960Y158318D01*
X110000Y158509D01*
D02*
G37*
G36*
X291004Y156011D02*
X290236Y155858D01*
X289584Y155423D01*
X289149Y154772D01*
X288997Y154004D01*
X289149Y153236D01*
X289584Y152585D01*
X290236Y152149D01*
X291004Y151997D01*
X291772Y152149D01*
X292423Y152585D01*
X292858Y153236D01*
X293011Y154004D01*
X292858Y154772D01*
X292423Y155423D01*
X291772Y155858D01*
X291004Y156011D01*
D02*
G37*
G36*
X63000Y156509D02*
X62040Y156318D01*
X61226Y155774D01*
X60682Y154960D01*
X60491Y154000D01*
X60682Y153040D01*
X61226Y152226D01*
X62040Y151682D01*
X63000Y151491D01*
X63960Y151682D01*
X64774Y152226D01*
X65318Y153040D01*
X65509Y154000D01*
X65318Y154960D01*
X64774Y155774D01*
X63960Y156318D01*
X63000Y156509D01*
D02*
G37*
G36*
X51000D02*
X50040Y156318D01*
X49226Y155774D01*
X48682Y154960D01*
X48491Y154000D01*
X48682Y153040D01*
X49226Y152226D01*
X50040Y151682D01*
X51000Y151491D01*
X51960Y151682D01*
X52774Y152226D01*
X53318Y153040D01*
X53509Y154000D01*
X53318Y154960D01*
X52774Y155774D01*
X51960Y156318D01*
X51000Y156509D01*
D02*
G37*
G36*
X224000Y155007D02*
X223232Y154854D01*
X222581Y154419D01*
X222146Y153768D01*
X221993Y153000D01*
X222146Y152232D01*
X222581Y151581D01*
X223232Y151146D01*
X224000Y150993D01*
X224768Y151146D01*
X225419Y151581D01*
X225854Y152232D01*
X226007Y153000D01*
X225854Y153768D01*
X225419Y154419D01*
X224768Y154854D01*
X224000Y155007D01*
D02*
G37*
G36*
X211500D02*
X210732Y154854D01*
X210081Y154419D01*
X209646Y153768D01*
X209493Y153000D01*
X209646Y152232D01*
X210081Y151581D01*
X210732Y151146D01*
X211500Y150993D01*
X212268Y151146D01*
X212919Y151581D01*
X213354Y152232D01*
X213507Y153000D01*
X213354Y153768D01*
X212919Y154419D01*
X212268Y154854D01*
X211500Y155007D01*
D02*
G37*
G36*
X384000Y154007D02*
X383232Y153854D01*
X382581Y153419D01*
X382146Y152768D01*
X381993Y152000D01*
X382146Y151232D01*
X382581Y150581D01*
X383232Y150146D01*
X384000Y149993D01*
X384768Y150146D01*
X385419Y150581D01*
X385854Y151232D01*
X386007Y152000D01*
X385854Y152768D01*
X385419Y153419D01*
X384768Y153854D01*
X384000Y154007D01*
D02*
G37*
G36*
X326500Y152007D02*
X325732Y151854D01*
X325081Y151419D01*
X324646Y150768D01*
X324493Y150000D01*
X324646Y149232D01*
X325081Y148581D01*
X325732Y148146D01*
X326500Y147993D01*
X327268Y148146D01*
X327919Y148581D01*
X328354Y149232D01*
X328507Y150000D01*
X328354Y150768D01*
X327919Y151419D01*
X327268Y151854D01*
X326500Y152007D01*
D02*
G37*
G36*
X98500Y154550D02*
X97732Y154398D01*
X97081Y153963D01*
X96646Y153311D01*
X96493Y152543D01*
Y149272D01*
X96646Y148504D01*
X97081Y147852D01*
X97732Y147417D01*
X98500Y147265D01*
X99268Y147417D01*
X99919Y147852D01*
X100354Y148504D01*
X100507Y149272D01*
Y152543D01*
X100354Y153311D01*
X99919Y153963D01*
X99268Y154398D01*
X98500Y154550D01*
D02*
G37*
G36*
X177500Y149009D02*
X176540Y148818D01*
X175726Y148274D01*
X175182Y147460D01*
X174991Y146500D01*
X175182Y145540D01*
X175726Y144726D01*
X176540Y144182D01*
X177500Y143991D01*
X178460Y144182D01*
X179274Y144726D01*
X179818Y145540D01*
X180009Y146500D01*
X179818Y147460D01*
X179274Y148274D01*
X178460Y148818D01*
X177500Y149009D01*
D02*
G37*
G36*
X282500Y152007D02*
X281732Y151854D01*
X281081Y151419D01*
X280646Y150768D01*
X280493Y150000D01*
X280646Y149232D01*
X281081Y148581D01*
X281525Y148284D01*
Y147716D01*
X281081Y147419D01*
X280646Y146768D01*
X280493Y146000D01*
X280646Y145232D01*
X281081Y144581D01*
X281732Y144146D01*
X282500Y143993D01*
X283268Y144146D01*
X283320Y144180D01*
X283680Y143820D01*
X283646Y143768D01*
X283493Y143000D01*
X283646Y142232D01*
X284081Y141581D01*
X284732Y141146D01*
X285500Y140993D01*
X286268Y141146D01*
X286919Y141581D01*
X287354Y142232D01*
X287507Y143000D01*
X287354Y143768D01*
X286919Y144419D01*
X286268Y144854D01*
X285500Y145007D01*
X284732Y144854D01*
X284680Y144820D01*
X284320Y145180D01*
X284354Y145232D01*
X284507Y146000D01*
X284354Y146768D01*
X283919Y147419D01*
X283475Y147716D01*
Y148284D01*
X283919Y148581D01*
X284354Y149232D01*
X284507Y150000D01*
X284354Y150768D01*
X283919Y151419D01*
X283268Y151854D01*
X282500Y152007D01*
D02*
G37*
G36*
X275000Y144507D02*
X274232Y144354D01*
X273581Y143919D01*
X273146Y143268D01*
X272993Y142500D01*
X273146Y141732D01*
X273581Y141081D01*
X274232Y140646D01*
X275000Y140493D01*
X275768Y140646D01*
X276419Y141081D01*
X276854Y141732D01*
X277007Y142500D01*
X276854Y143268D01*
X276419Y143919D01*
X275768Y144354D01*
X275000Y144507D01*
D02*
G37*
G36*
X108500Y144509D02*
X107540Y144318D01*
X106726Y143774D01*
X106182Y142960D01*
X105991Y142000D01*
X106182Y141040D01*
X106726Y140226D01*
X107540Y139682D01*
X108500Y139491D01*
X109460Y139682D01*
X110274Y140226D01*
X110818Y141040D01*
X111009Y142000D01*
X110818Y142960D01*
X110274Y143774D01*
X109460Y144318D01*
X108500Y144509D01*
D02*
G37*
G36*
X235000Y143009D02*
X234040Y142818D01*
X233226Y142274D01*
X232682Y141460D01*
X232491Y140500D01*
X232682Y139540D01*
X233226Y138726D01*
X234040Y138182D01*
X235000Y137991D01*
X235960Y138182D01*
X236774Y138726D01*
X237318Y139540D01*
X237509Y140500D01*
X237318Y141460D01*
X236774Y142274D01*
X235960Y142818D01*
X235000Y143009D01*
D02*
G37*
G36*
X226646D02*
X225686Y142818D01*
X224872Y142274D01*
X224328Y141460D01*
X224137Y140500D01*
X224328Y139540D01*
X224872Y138726D01*
X225686Y138182D01*
X226646Y137991D01*
X227606Y138182D01*
X228420Y138726D01*
X228963Y139540D01*
X229154Y140500D01*
X228963Y141460D01*
X228420Y142274D01*
X227606Y142818D01*
X226646Y143009D01*
D02*
G37*
G36*
X218500D02*
X217540Y142818D01*
X216726Y142274D01*
X216182Y141460D01*
X215991Y140500D01*
X216182Y139540D01*
X216726Y138726D01*
X217540Y138182D01*
X218500Y137991D01*
X219460Y138182D01*
X220274Y138726D01*
X220818Y139540D01*
X221009Y140500D01*
X220818Y141460D01*
X220274Y142274D01*
X219460Y142818D01*
X218500Y143009D01*
D02*
G37*
G36*
X345500Y141507D02*
X344732Y141354D01*
X344081Y140919D01*
X343646Y140268D01*
X343493Y139500D01*
X343646Y138732D01*
X344081Y138081D01*
X344732Y137646D01*
X345500Y137493D01*
X346268Y137646D01*
X346919Y138081D01*
X347354Y138732D01*
X347507Y139500D01*
X347354Y140268D01*
X346919Y140919D01*
X346268Y141354D01*
X345500Y141507D01*
D02*
G37*
G36*
X245000Y140509D02*
X244040Y140318D01*
X243226Y139774D01*
X242682Y138960D01*
X242491Y138000D01*
X242682Y137040D01*
X243226Y136226D01*
X244040Y135682D01*
X245000Y135491D01*
X245960Y135682D01*
X246774Y136226D01*
X247318Y137040D01*
X247509Y138000D01*
X247318Y138960D01*
X246774Y139774D01*
X245960Y140318D01*
X245000Y140509D01*
D02*
G37*
G36*
X313000Y138007D02*
X312232Y137854D01*
X311581Y137419D01*
X311146Y136768D01*
X310993Y136000D01*
X311146Y135232D01*
X311581Y134581D01*
X312232Y134146D01*
X313000Y133993D01*
X313768Y134146D01*
X314419Y134581D01*
X314854Y135232D01*
X315007Y136000D01*
X314854Y136768D01*
X314419Y137419D01*
X313768Y137854D01*
X313000Y138007D01*
D02*
G37*
G36*
X303000Y137507D02*
X302232Y137354D01*
X301581Y136919D01*
X301146Y136268D01*
X300993Y135500D01*
X301146Y134732D01*
X301581Y134081D01*
X302232Y133646D01*
X303000Y133493D01*
X303768Y133646D01*
X304419Y134081D01*
X304854Y134732D01*
X305007Y135500D01*
X304854Y136268D01*
X304419Y136919D01*
X303768Y137354D01*
X303000Y137507D01*
D02*
G37*
G36*
X326500Y133007D02*
X325732Y132854D01*
X325081Y132419D01*
X324784Y131975D01*
X324216D01*
X323919Y132419D01*
X323268Y132854D01*
X322500Y133007D01*
X321732Y132854D01*
X321081Y132419D01*
X320646Y131768D01*
X320493Y131000D01*
X320646Y130232D01*
X321081Y129581D01*
X321732Y129146D01*
X322500Y128993D01*
X323268Y129146D01*
X323919Y129581D01*
X324216Y130025D01*
X324784D01*
X325081Y129581D01*
X325732Y129146D01*
X326500Y128993D01*
X327268Y129146D01*
X327919Y129581D01*
X328354Y130232D01*
X328507Y131000D01*
X328354Y131768D01*
X327919Y132419D01*
X327268Y132854D01*
X326500Y133007D01*
D02*
G37*
G36*
X278500D02*
X277732Y132854D01*
X277081Y132419D01*
X276646Y131768D01*
X276493Y131000D01*
X276646Y130232D01*
X277081Y129581D01*
X277732Y129146D01*
X278500Y128993D01*
X279268Y129146D01*
X279919Y129581D01*
X280354Y130232D01*
X280507Y131000D01*
X280354Y131768D01*
X279919Y132419D01*
X279268Y132854D01*
X278500Y133007D01*
D02*
G37*
G36*
X227000Y131507D02*
X216500D01*
X215732Y131354D01*
X215081Y130919D01*
X214646Y130268D01*
X214493Y129500D01*
X214646Y128732D01*
X215081Y128081D01*
X215732Y127646D01*
X216500Y127493D01*
X227000D01*
X227768Y127646D01*
X228419Y128081D01*
X228854Y128732D01*
X229007Y129500D01*
X228854Y130268D01*
X228419Y130919D01*
X227768Y131354D01*
X227000Y131507D01*
D02*
G37*
G36*
X186500D02*
X176000D01*
X175232Y131354D01*
X174581Y130919D01*
X174146Y130268D01*
X173993Y129500D01*
X174146Y128732D01*
X174581Y128081D01*
X175232Y127646D01*
X176000Y127493D01*
X186500D01*
X187268Y127646D01*
X187919Y128081D01*
X188354Y128732D01*
X188507Y129500D01*
X188354Y130268D01*
X187919Y130919D01*
X187268Y131354D01*
X186500Y131507D01*
D02*
G37*
G36*
X308892Y129476D02*
X308123Y129323D01*
X307472Y128888D01*
X307037Y128237D01*
X306885Y127469D01*
X307037Y126700D01*
X307072Y126649D01*
X306711Y126288D01*
X306660Y126323D01*
X305892Y126476D01*
X305123Y126323D01*
X304472Y125888D01*
X304176Y125444D01*
X303608D01*
X303311Y125888D01*
X302660Y126323D01*
X301892Y126476D01*
X301123Y126323D01*
X300472Y125888D01*
X300037Y125237D01*
X299885Y124469D01*
X300037Y123700D01*
X300472Y123049D01*
X301123Y122614D01*
X301892Y122461D01*
X302660Y122614D01*
X303311Y123049D01*
X303608Y123493D01*
X304176D01*
X304472Y123049D01*
X305123Y122614D01*
X305892Y122461D01*
X306660Y122614D01*
X307311Y123049D01*
X307746Y123700D01*
X307899Y124469D01*
X307746Y125237D01*
X307711Y125288D01*
X308072Y125649D01*
X308123Y125614D01*
X308892Y125461D01*
X309660Y125614D01*
X310311Y126049D01*
X310746Y126700D01*
X310899Y127469D01*
X310746Y128237D01*
X310311Y128888D01*
X309660Y129323D01*
X308892Y129476D01*
D02*
G37*
G36*
X358469Y129810D02*
X357700Y129657D01*
X357049Y129222D01*
X356614Y128571D01*
X356461Y127803D01*
X356614Y127035D01*
X357049Y126384D01*
X357700Y125949D01*
X358469Y125796D01*
X359237Y125949D01*
X359888Y126384D01*
X360323Y127035D01*
X360476Y127803D01*
X360323Y128571D01*
X359888Y129222D01*
X359237Y129657D01*
X358469Y129810D01*
D02*
G37*
G36*
X337500Y125932D02*
X336732Y125779D01*
X336081Y125344D01*
X335646Y124693D01*
X335493Y123925D01*
X335646Y123157D01*
X336081Y122506D01*
X336732Y122071D01*
X337500Y121918D01*
X338268Y122071D01*
X338919Y122506D01*
X339354Y123157D01*
X339507Y123925D01*
X339354Y124693D01*
X338919Y125344D01*
X338268Y125779D01*
X337500Y125932D01*
D02*
G37*
G36*
X320500Y124960D02*
X319732Y124807D01*
X319081Y124372D01*
X318646Y123721D01*
X318493Y122953D01*
X318646Y122185D01*
X319081Y121534D01*
X319732Y121098D01*
X320500Y120946D01*
X321268Y121098D01*
X321919Y121534D01*
X322354Y122185D01*
X322507Y122953D01*
X322354Y123721D01*
X321919Y124372D01*
X321268Y124807D01*
X320500Y124960D01*
D02*
G37*
G36*
X295000Y123007D02*
X294232Y122854D01*
X293581Y122419D01*
X293146Y121768D01*
X292993Y121000D01*
X293146Y120232D01*
X293581Y119581D01*
X294232Y119146D01*
X295000Y118993D01*
X295768Y119146D01*
X296419Y119581D01*
X296854Y120232D01*
X297007Y121000D01*
X296854Y121768D01*
X296419Y122419D01*
X295768Y122854D01*
X295000Y123007D01*
D02*
G37*
G36*
X257000Y123536D02*
X256040Y123345D01*
X255226Y122802D01*
X254682Y121988D01*
X254491Y121028D01*
X254682Y120068D01*
X255226Y119254D01*
X256040Y118710D01*
X257000Y118519D01*
X257960Y118710D01*
X258774Y119254D01*
X259318Y120068D01*
X259509Y121028D01*
X259318Y121988D01*
X258774Y122802D01*
X257960Y123345D01*
X257000Y123536D01*
D02*
G37*
G36*
X245000D02*
X244040Y123345D01*
X243226Y122802D01*
X242682Y121988D01*
X242491Y121028D01*
X242682Y120068D01*
X243226Y119254D01*
X244040Y118710D01*
X245000Y118519D01*
X245960Y118710D01*
X246774Y119254D01*
X247318Y120068D01*
X247509Y121028D01*
X247318Y121988D01*
X246774Y122802D01*
X245960Y123345D01*
X245000Y123536D01*
D02*
G37*
G36*
X98500Y124550D02*
X97732Y124398D01*
X97081Y123962D01*
X96646Y123311D01*
X96493Y122543D01*
Y119272D01*
X96646Y118504D01*
X97081Y117852D01*
X97732Y117417D01*
X98500Y117265D01*
X99268Y117417D01*
X99919Y117852D01*
X100354Y118504D01*
X100507Y119272D01*
Y122543D01*
X100354Y123311D01*
X99919Y123962D01*
X99268Y124398D01*
X98500Y124550D01*
D02*
G37*
G36*
X326000Y119054D02*
X325232Y118902D01*
X324581Y118466D01*
X324146Y117815D01*
X323993Y117047D01*
X324146Y116279D01*
X324581Y115628D01*
X325232Y115193D01*
X326000Y115040D01*
X326768Y115193D01*
X327419Y115628D01*
X327854Y116279D01*
X328007Y117047D01*
X327854Y117815D01*
X327419Y118466D01*
X326768Y118902D01*
X326000Y119054D01*
D02*
G37*
G36*
X320500D02*
X319732Y118902D01*
X319081Y118466D01*
X318646Y117815D01*
X318493Y117047D01*
X318646Y116279D01*
X319081Y115628D01*
X319732Y115193D01*
X320500Y115040D01*
X321268Y115193D01*
X321919Y115628D01*
X322354Y116279D01*
X322507Y117047D01*
X322354Y117815D01*
X321919Y118466D01*
X321268Y118902D01*
X320500Y119054D01*
D02*
G37*
G36*
X254000Y116509D02*
X253040Y116318D01*
X252226Y115774D01*
X251682Y114960D01*
X251491Y114000D01*
X251682Y113040D01*
X252226Y112226D01*
X253040Y111682D01*
X254000Y111491D01*
X254960Y111682D01*
X255774Y112226D01*
X256318Y113040D01*
X256509Y114000D01*
X256318Y114960D01*
X255774Y115774D01*
X254960Y116318D01*
X254000Y116509D01*
D02*
G37*
G36*
X245000D02*
X244040Y116318D01*
X243226Y115774D01*
X242682Y114960D01*
X242491Y114000D01*
X242682Y113040D01*
X243226Y112226D01*
X244040Y111682D01*
X245000Y111491D01*
X245960Y111682D01*
X246774Y112226D01*
X247318Y113040D01*
X247509Y114000D01*
X247318Y114960D01*
X246774Y115774D01*
X245960Y116318D01*
X245000Y116509D01*
D02*
G37*
G36*
X235945D02*
X234985Y116318D01*
X234171Y115774D01*
X233627Y114960D01*
X233436Y114000D01*
X233627Y113040D01*
X234171Y112226D01*
X234985Y111682D01*
X235945Y111491D01*
X236905Y111682D01*
X237719Y112226D01*
X238263Y113040D01*
X238454Y114000D01*
X238263Y114960D01*
X237719Y115774D01*
X236905Y116318D01*
X235945Y116509D01*
D02*
G37*
G36*
X294000Y114007D02*
X293232Y113854D01*
X292581Y113419D01*
X292146Y112768D01*
X291993Y112000D01*
X292146Y111232D01*
X292581Y110581D01*
X293232Y110146D01*
X294000Y109993D01*
X294768Y110146D01*
X295419Y110581D01*
X295854Y111232D01*
X296007Y112000D01*
X295854Y112768D01*
X295419Y113419D01*
X294768Y113854D01*
X294000Y114007D01*
D02*
G37*
G36*
X280567Y114509D02*
X279607Y114318D01*
X278793Y113774D01*
X278249Y112960D01*
X278058Y112000D01*
X278249Y111040D01*
X278793Y110226D01*
X279607Y109682D01*
X280567Y109491D01*
X281527Y109682D01*
X282341Y110226D01*
X282885Y111040D01*
X283076Y112000D01*
X282885Y112960D01*
X282341Y113774D01*
X281527Y114318D01*
X280567Y114509D01*
D02*
G37*
G36*
X345500Y112389D02*
X344732Y112236D01*
X344081Y111801D01*
X343646Y111150D01*
X343493Y110382D01*
X343646Y109614D01*
X344081Y108963D01*
X344732Y108528D01*
X345500Y108375D01*
X346268Y108528D01*
X346919Y108963D01*
X347354Y109614D01*
X347507Y110382D01*
X347354Y111150D01*
X346919Y111801D01*
X346268Y112236D01*
X345500Y112389D01*
D02*
G37*
G36*
X227000Y111507D02*
X216500D01*
X215732Y111354D01*
X215081Y110919D01*
X214646Y110268D01*
X214493Y109500D01*
X214646Y108732D01*
X215081Y108081D01*
X215732Y107646D01*
X216500Y107493D01*
X227000D01*
X227768Y107646D01*
X228419Y108081D01*
X228854Y108732D01*
X229007Y109500D01*
X228854Y110268D01*
X228419Y110919D01*
X227768Y111354D01*
X227000Y111507D01*
D02*
G37*
G36*
X187000D02*
X176000D01*
X175232Y111354D01*
X174581Y110919D01*
X174146Y110268D01*
X173993Y109500D01*
X174146Y108732D01*
X174581Y108081D01*
X175232Y107646D01*
X176000Y107493D01*
X187000D01*
X187768Y107646D01*
X188419Y108081D01*
X188854Y108732D01*
X189007Y109500D01*
X188854Y110268D01*
X188419Y110919D01*
X187768Y111354D01*
X187000Y111507D01*
D02*
G37*
G36*
X254000Y110009D02*
X253040Y109818D01*
X252226Y109274D01*
X251682Y108460D01*
X251491Y107500D01*
X251682Y106540D01*
X252226Y105726D01*
X253040Y105182D01*
X254000Y104991D01*
X254960Y105182D01*
X255774Y105726D01*
X256318Y106540D01*
X256509Y107500D01*
X256318Y108460D01*
X255774Y109274D01*
X254960Y109818D01*
X254000Y110009D01*
D02*
G37*
G36*
X235945Y110001D02*
X234985Y109810D01*
X234171Y109266D01*
X233627Y108452D01*
X233436Y107492D01*
X233627Y106532D01*
X234171Y105718D01*
X234985Y105174D01*
X235945Y104983D01*
X236905Y105174D01*
X237719Y105718D01*
X238263Y106532D01*
X238454Y107492D01*
X238263Y108452D01*
X237719Y109266D01*
X236905Y109810D01*
X235945Y110001D01*
D02*
G37*
G36*
X318000Y107507D02*
X317232Y107354D01*
X316581Y106919D01*
X316146Y106268D01*
X315993Y105500D01*
X316146Y104732D01*
X316581Y104081D01*
X317232Y103646D01*
X318000Y103493D01*
X318768Y103646D01*
X319419Y104081D01*
X319854Y104732D01*
X320007Y105500D01*
X319854Y106268D01*
X319419Y106919D01*
X318768Y107354D01*
X318000Y107507D01*
D02*
G37*
G36*
X340500Y106507D02*
X339732Y106354D01*
X339081Y105919D01*
X338646Y105268D01*
X338493Y104500D01*
X338646Y103732D01*
X339081Y103081D01*
X339732Y102646D01*
X340500Y102493D01*
X341268Y102646D01*
X341919Y103081D01*
X342354Y103732D01*
X342507Y104500D01*
X342354Y105268D01*
X341919Y105919D01*
X341268Y106354D01*
X340500Y106507D01*
D02*
G37*
G36*
X304000Y118007D02*
X303232Y117854D01*
X302581Y117419D01*
X302146Y116768D01*
X301993Y116000D01*
X302146Y115232D01*
X302581Y114581D01*
X303025Y114284D01*
Y113716D01*
X302581Y113419D01*
X302146Y112768D01*
X301993Y112000D01*
X302146Y111232D01*
X302581Y110581D01*
X303025Y110284D01*
Y109716D01*
X302581Y109419D01*
X302146Y108768D01*
X301993Y108000D01*
X302146Y107232D01*
X302581Y106581D01*
X303025Y106284D01*
Y105716D01*
X302581Y105419D01*
X302146Y104768D01*
X301993Y104000D01*
X302146Y103232D01*
X302581Y102581D01*
X303232Y102146D01*
X304000Y101993D01*
X304768Y102146D01*
X305419Y102581D01*
X305854Y103232D01*
X306007Y104000D01*
X305854Y104768D01*
X305419Y105419D01*
X304975Y105716D01*
Y106284D01*
X305419Y106581D01*
X305854Y107232D01*
X306007Y108000D01*
X305854Y108768D01*
X305419Y109419D01*
X304975Y109716D01*
Y110284D01*
X305419Y110581D01*
X305854Y111232D01*
X306007Y112000D01*
X305854Y112768D01*
X305419Y113419D01*
X304975Y113716D01*
Y114284D01*
X305419Y114581D01*
X305854Y115232D01*
X306007Y116000D01*
X305854Y116768D01*
X305419Y117419D01*
X304768Y117854D01*
X304000Y118007D01*
D02*
G37*
G36*
X345500Y105204D02*
X344732Y105051D01*
X344081Y104616D01*
X343646Y103965D01*
X343493Y103197D01*
X343646Y102429D01*
X344081Y101778D01*
X344732Y101343D01*
X345500Y101190D01*
X346268Y101343D01*
X346919Y101778D01*
X347354Y102429D01*
X347507Y103197D01*
X347354Y103965D01*
X346919Y104616D01*
X346268Y105051D01*
X345500Y105204D01*
D02*
G37*
G36*
X273587Y103921D02*
X272627Y103731D01*
X271813Y103187D01*
X271269Y102373D01*
X271078Y101413D01*
X271269Y100453D01*
X271813Y99639D01*
X272627Y99095D01*
X273587Y98904D01*
X274547Y99095D01*
X275361Y99639D01*
X275905Y100453D01*
X276096Y101413D01*
X275905Y102373D01*
X275361Y103187D01*
X274547Y103731D01*
X273587Y103921D01*
D02*
G37*
G36*
X210000Y101007D02*
X203000D01*
X202232Y100854D01*
X201581Y100419D01*
X201146Y99768D01*
X200993Y99000D01*
X201146Y98232D01*
X201581Y97581D01*
X202232Y97146D01*
X203000Y96993D01*
X210000D01*
X210768Y97146D01*
X211419Y97581D01*
X211854Y98232D01*
X212007Y99000D01*
X211854Y99768D01*
X211419Y100419D01*
X210768Y100854D01*
X210000Y101007D01*
D02*
G37*
G36*
X221000Y101509D02*
X220040Y101318D01*
X219226Y100774D01*
X218682Y99960D01*
X218491Y99000D01*
X218682Y98040D01*
X219226Y97226D01*
X220040Y96682D01*
X221000Y96491D01*
X221960Y96682D01*
X222774Y97226D01*
X223318Y98040D01*
X223509Y99000D01*
X223318Y99960D01*
X222774Y100774D01*
X221960Y101318D01*
X221000Y101509D01*
D02*
G37*
G36*
X215000D02*
X214040Y101318D01*
X213226Y100774D01*
X212682Y99960D01*
X212491Y99000D01*
X212682Y98040D01*
X213226Y97226D01*
X214040Y96682D01*
X215000Y96491D01*
X215960Y96682D01*
X216774Y97226D01*
X217318Y98040D01*
X217509Y99000D01*
X217318Y99960D01*
X216774Y100774D01*
X215960Y101318D01*
X215000Y101509D01*
D02*
G37*
G36*
X354000Y99507D02*
X353232Y99354D01*
X352581Y98919D01*
X352146Y98268D01*
X351993Y97500D01*
X352146Y96732D01*
X352581Y96081D01*
X353232Y95646D01*
X354000Y95493D01*
X354768Y95646D01*
X355419Y96081D01*
X355854Y96732D01*
X356007Y97500D01*
X355854Y98268D01*
X355419Y98919D01*
X354768Y99354D01*
X354000Y99507D01*
D02*
G37*
G36*
X83500Y102735D02*
X82732Y102583D01*
X82081Y102148D01*
X81646Y101496D01*
X81493Y100728D01*
Y97457D01*
X81646Y96689D01*
X82081Y96038D01*
X82732Y95602D01*
X83500Y95450D01*
X84268Y95602D01*
X84919Y96038D01*
X85354Y96689D01*
X85507Y97457D01*
Y100728D01*
X85354Y101496D01*
X84919Y102148D01*
X84268Y102583D01*
X83500Y102735D01*
D02*
G37*
G36*
X281000Y97507D02*
X280232Y97354D01*
X279581Y96919D01*
X279146Y96268D01*
X278993Y95500D01*
X279146Y94732D01*
X279581Y94081D01*
X280232Y93646D01*
X281000Y93493D01*
X281768Y93646D01*
X282419Y94081D01*
X282854Y94732D01*
X283007Y95500D01*
X282854Y96268D01*
X282419Y96919D01*
X281768Y97354D01*
X281000Y97507D01*
D02*
G37*
G36*
X289000Y96507D02*
X288232Y96354D01*
X287581Y95919D01*
X287146Y95268D01*
X286993Y94500D01*
X287146Y93732D01*
X287581Y93081D01*
X288232Y92646D01*
X289000Y92493D01*
X289768Y92646D01*
X290419Y93081D01*
X290854Y93732D01*
X291007Y94500D01*
X290854Y95268D01*
X290419Y95919D01*
X289768Y96354D01*
X289000Y96507D01*
D02*
G37*
G36*
X344500Y95007D02*
X343732Y94854D01*
X343081Y94419D01*
X342646Y93768D01*
X342493Y93000D01*
X342646Y92232D01*
X343081Y91581D01*
X343732Y91146D01*
X344500Y90993D01*
X345268Y91146D01*
X345919Y91581D01*
X346354Y92232D01*
X346507Y93000D01*
X346354Y93768D01*
X345919Y94419D01*
X345268Y94854D01*
X344500Y95007D01*
D02*
G37*
G36*
X177500Y95009D02*
X176540Y94818D01*
X175726Y94274D01*
X175182Y93460D01*
X174991Y92500D01*
X175182Y91540D01*
X175726Y90726D01*
X176540Y90182D01*
X177500Y89991D01*
X178460Y90182D01*
X179274Y90726D01*
X179818Y91540D01*
X180009Y92500D01*
X179818Y93460D01*
X179274Y94274D01*
X178460Y94818D01*
X177500Y95009D01*
D02*
G37*
G36*
X227260Y93428D02*
X226492Y93275D01*
X225841Y92840D01*
X225406Y92189D01*
X225253Y91421D01*
X225406Y90653D01*
X225841Y90002D01*
X226492Y89567D01*
X227260Y89414D01*
X228028Y89567D01*
X228679Y90002D01*
X229114Y90653D01*
X229267Y91421D01*
X229114Y92189D01*
X228679Y92840D01*
X228028Y93275D01*
X227260Y93428D01*
D02*
G37*
G36*
X332000Y93007D02*
X331232Y92854D01*
X330581Y92419D01*
X330146Y91768D01*
X329993Y91000D01*
X330146Y90232D01*
X330581Y89581D01*
X331232Y89146D01*
X332000Y88993D01*
X332768Y89146D01*
X333419Y89581D01*
X333854Y90232D01*
X334007Y91000D01*
X333854Y91768D01*
X333419Y92419D01*
X332768Y92854D01*
X332000Y93007D01*
D02*
G37*
G36*
X289000Y92007D02*
X288232Y91854D01*
X287581Y91419D01*
X287146Y90768D01*
X286993Y90000D01*
X287146Y89232D01*
X287581Y88581D01*
X288232Y88146D01*
X289000Y87993D01*
X289768Y88146D01*
X290419Y88581D01*
X290854Y89232D01*
X291007Y90000D01*
X290854Y90768D01*
X290419Y91419D01*
X289768Y91854D01*
X289000Y92007D01*
D02*
G37*
G36*
X308500Y90507D02*
X307732Y90354D01*
X307081Y89919D01*
X306646Y89268D01*
X306493Y88500D01*
X306646Y87732D01*
X306680Y87680D01*
X306320Y87320D01*
X306268Y87354D01*
X305500Y87507D01*
X304732Y87354D01*
X304081Y86919D01*
X303646Y86268D01*
X303493Y85500D01*
X303646Y84732D01*
X303680Y84680D01*
X303320Y84320D01*
X303268Y84354D01*
X302500Y84507D01*
X301732Y84354D01*
X301081Y83919D01*
X300646Y83268D01*
X300493Y82500D01*
X300646Y81732D01*
X300680Y81680D01*
X300320Y81320D01*
X300268Y81354D01*
X299500Y81507D01*
X298732Y81354D01*
X298081Y80919D01*
X297646Y80268D01*
X297493Y79500D01*
X297646Y78732D01*
X298081Y78081D01*
X298732Y77646D01*
X299500Y77493D01*
X300268Y77646D01*
X300919Y78081D01*
X301354Y78732D01*
X301507Y79500D01*
X301354Y80268D01*
X301320Y80320D01*
X301680Y80680D01*
X301732Y80646D01*
X302500Y80493D01*
X303268Y80646D01*
X303919Y81081D01*
X304354Y81732D01*
X304507Y82500D01*
X304354Y83268D01*
X304320Y83320D01*
X304680Y83680D01*
X304732Y83646D01*
X305500Y83493D01*
X306268Y83646D01*
X306919Y84081D01*
X307354Y84732D01*
X307507Y85500D01*
X307354Y86268D01*
X307320Y86320D01*
X307680Y86680D01*
X307732Y86646D01*
X308500Y86493D01*
X309268Y86646D01*
X309919Y87081D01*
X310354Y87732D01*
X310507Y88500D01*
X310354Y89268D01*
X309919Y89919D01*
X309268Y90354D01*
X308500Y90507D01*
D02*
G37*
G36*
X289000Y87507D02*
X288232Y87354D01*
X287581Y86919D01*
X287146Y86268D01*
X286993Y85500D01*
X287146Y84732D01*
X287581Y84081D01*
X288232Y83646D01*
X289000Y83493D01*
X289768Y83646D01*
X290419Y84081D01*
X290854Y84732D01*
X291007Y85500D01*
X290854Y86268D01*
X290419Y86919D01*
X289768Y87354D01*
X289000Y87507D01*
D02*
G37*
G36*
X324286Y84794D02*
X323518Y84641D01*
X322867Y84206D01*
X322432Y83555D01*
X322396Y83374D01*
X321825Y83064D01*
X321349Y83158D01*
X320581Y83006D01*
X319929Y82571D01*
X319494Y81919D01*
X319341Y81151D01*
X319494Y80383D01*
X319929Y79732D01*
X320581Y79297D01*
X321349Y79144D01*
X322117Y79297D01*
X322768Y79732D01*
X323203Y80383D01*
X323239Y80563D01*
X323810Y80874D01*
X324286Y80779D01*
X325055Y80932D01*
X325706Y81367D01*
X325747Y81429D01*
X326348D01*
X326581Y81081D01*
X327232Y80646D01*
X328000Y80493D01*
X328768Y80646D01*
X329419Y81081D01*
X329708Y81514D01*
X330282Y81512D01*
X330572Y81079D01*
X331223Y80644D01*
X331991Y80491D01*
X332759Y80644D01*
X333410Y81079D01*
X333845Y81730D01*
X333998Y82498D01*
X333845Y83266D01*
X333410Y83917D01*
X332759Y84352D01*
X331991Y84505D01*
X331223Y84352D01*
X330572Y83917D01*
X330282Y83484D01*
X329709Y83485D01*
X329419Y83919D01*
X328768Y84354D01*
X328000Y84507D01*
X327232Y84354D01*
X326581Y83919D01*
X326540Y83858D01*
X325938D01*
X325706Y84206D01*
X325055Y84641D01*
X324286Y84794D01*
D02*
G37*
G36*
X259500Y83507D02*
X258732Y83354D01*
X258081Y82919D01*
X257646Y82268D01*
X257493Y81500D01*
X257646Y80732D01*
X258081Y80081D01*
X258732Y79646D01*
X259500Y79493D01*
X260268Y79646D01*
X260919Y80081D01*
X261354Y80732D01*
X261507Y81500D01*
X261354Y82268D01*
X260919Y82919D01*
X260268Y83354D01*
X259500Y83507D01*
D02*
G37*
G36*
X289000Y83007D02*
X288232Y82854D01*
X287581Y82419D01*
X287146Y81768D01*
X286993Y81000D01*
X287146Y80232D01*
X287581Y79581D01*
X288232Y79146D01*
X289000Y78993D01*
X289768Y79146D01*
X290419Y79581D01*
X290854Y80232D01*
X291007Y81000D01*
X290854Y81768D01*
X290419Y82419D01*
X289768Y82854D01*
X289000Y83007D01*
D02*
G37*
G36*
X108500Y80509D02*
X107540Y80318D01*
X106726Y79774D01*
X106182Y78960D01*
X105991Y78000D01*
X106182Y77040D01*
X106726Y76226D01*
X107540Y75682D01*
X108500Y75491D01*
X109460Y75682D01*
X110274Y76226D01*
X110818Y77040D01*
X111009Y78000D01*
X110818Y78960D01*
X110274Y79774D01*
X109460Y80318D01*
X108500Y80509D01*
D02*
G37*
G36*
X289000Y78507D02*
X288232Y78354D01*
X287581Y77919D01*
X287146Y77268D01*
X286993Y76500D01*
X287146Y75732D01*
X287581Y75081D01*
X288232Y74646D01*
X289000Y74493D01*
X289768Y74646D01*
X290419Y75081D01*
X290854Y75732D01*
X291007Y76500D01*
X290854Y77268D01*
X290419Y77919D01*
X289768Y78354D01*
X289000Y78507D01*
D02*
G37*
G36*
X346000Y70625D02*
X345232Y70472D01*
X344581Y70037D01*
X344146Y69386D01*
X343993Y68618D01*
X344146Y67850D01*
X344581Y67199D01*
X345232Y66764D01*
X346000Y66611D01*
X346768Y66764D01*
X347419Y67199D01*
X347854Y67850D01*
X348007Y68618D01*
X347854Y69386D01*
X347419Y70037D01*
X346768Y70472D01*
X346000Y70625D01*
D02*
G37*
G36*
X83500Y72735D02*
X82732Y72583D01*
X82081Y72148D01*
X81646Y71496D01*
X81493Y70728D01*
Y67457D01*
X81646Y66689D01*
X82081Y66037D01*
X82732Y65602D01*
X83500Y65450D01*
X84268Y65602D01*
X84919Y66037D01*
X85354Y66689D01*
X85507Y67457D01*
Y70728D01*
X85354Y71496D01*
X84919Y72148D01*
X84268Y72583D01*
X83500Y72735D01*
D02*
G37*
G36*
X63000Y68509D02*
X62040Y68318D01*
X61226Y67774D01*
X60682Y66960D01*
X60491Y66000D01*
X60682Y65040D01*
X61226Y64226D01*
X62040Y63682D01*
X63000Y63491D01*
X63960Y63682D01*
X64774Y64226D01*
X65318Y65040D01*
X65509Y66000D01*
X65318Y66960D01*
X64774Y67774D01*
X63960Y68318D01*
X63000Y68509D01*
D02*
G37*
G36*
X51000D02*
X50040Y68318D01*
X49226Y67774D01*
X48682Y66960D01*
X48491Y66000D01*
X48682Y65040D01*
X49226Y64226D01*
X50040Y63682D01*
X51000Y63491D01*
X51960Y63682D01*
X52774Y64226D01*
X53318Y65040D01*
X53509Y66000D01*
X53318Y66960D01*
X52774Y67774D01*
X51960Y68318D01*
X51000Y68509D01*
D02*
G37*
G36*
X230000Y67509D02*
X229040Y67318D01*
X228226Y66774D01*
X227682Y65960D01*
X227491Y65000D01*
X227682Y64040D01*
X228226Y63226D01*
X229040Y62682D01*
X230000Y62491D01*
X230960Y62682D01*
X231774Y63226D01*
X232318Y64040D01*
X232509Y65000D01*
X232318Y65960D01*
X231774Y66774D01*
X230960Y67318D01*
X230000Y67509D01*
D02*
G37*
G36*
X224000D02*
X223040Y67318D01*
X222226Y66774D01*
X221682Y65960D01*
X221491Y65000D01*
X221682Y64040D01*
X222226Y63226D01*
X223040Y62682D01*
X224000Y62491D01*
X224960Y62682D01*
X225774Y63226D01*
X226318Y64040D01*
X226509Y65000D01*
X226318Y65960D01*
X225774Y66774D01*
X224960Y67318D01*
X224000Y67509D01*
D02*
G37*
G36*
X241500Y66509D02*
X240540Y66318D01*
X239726Y65774D01*
X239182Y64960D01*
X238991Y64000D01*
X239182Y63040D01*
X239726Y62226D01*
X240540Y61682D01*
X241500Y61491D01*
X242460Y61682D01*
X243274Y62226D01*
X243818Y63040D01*
X244009Y64000D01*
X243818Y64960D01*
X243274Y65774D01*
X242460Y66318D01*
X241500Y66509D01*
D02*
G37*
G36*
X216500D02*
X215540Y66318D01*
X214726Y65774D01*
X214182Y64960D01*
X213991Y64000D01*
X214182Y63040D01*
X214726Y62226D01*
X215540Y61682D01*
X216500Y61491D01*
X217460Y61682D01*
X218274Y62226D01*
X218818Y63040D01*
X219009Y64000D01*
X218818Y64960D01*
X218274Y65774D01*
X217460Y66318D01*
X216500Y66509D01*
D02*
G37*
G36*
X110000D02*
X109040Y66318D01*
X108226Y65774D01*
X107682Y64960D01*
X107491Y64000D01*
X107682Y63040D01*
X108226Y62226D01*
X109040Y61682D01*
X110000Y61491D01*
X110960Y61682D01*
X111774Y62226D01*
X112318Y63040D01*
X112509Y64000D01*
X112318Y64960D01*
X111774Y65774D01*
X110960Y66318D01*
X110000Y66509D01*
D02*
G37*
G36*
X332000Y61007D02*
X331232Y60854D01*
X330581Y60419D01*
X330146Y59768D01*
X329993Y59000D01*
X330146Y58232D01*
X330180Y58180D01*
X329820Y57820D01*
X329768Y57854D01*
X329000Y58007D01*
X328232Y57854D01*
X327581Y57419D01*
X327146Y56768D01*
X326993Y56000D01*
X327146Y55232D01*
X327581Y54581D01*
X328232Y54146D01*
X329000Y53993D01*
X329768Y54146D01*
X330419Y54581D01*
X330854Y55232D01*
X331007Y56000D01*
X330854Y56768D01*
X330820Y56820D01*
X331180Y57180D01*
X331232Y57146D01*
X332000Y56993D01*
X332768Y57146D01*
X333419Y57581D01*
X333854Y58232D01*
X334007Y59000D01*
X333854Y59768D01*
X333419Y60419D01*
X332768Y60854D01*
X332000Y61007D01*
D02*
G37*
G36*
X63000Y61509D02*
X62040Y61318D01*
X61226Y60774D01*
X60682Y59960D01*
X60491Y59000D01*
X60682Y58040D01*
X61226Y57226D01*
X62040Y56682D01*
X63000Y56491D01*
X63960Y56682D01*
X64774Y57226D01*
X65318Y58040D01*
X65509Y59000D01*
X65318Y59960D01*
X64774Y60774D01*
X63960Y61318D01*
X63000Y61509D01*
D02*
G37*
G36*
X51000D02*
X50040Y61318D01*
X49226Y60774D01*
X48682Y59960D01*
X48491Y59000D01*
X48682Y58040D01*
X49226Y57226D01*
X50040Y56682D01*
X51000Y56491D01*
X51960Y56682D01*
X52774Y57226D01*
X53318Y58040D01*
X53509Y59000D01*
X53318Y59960D01*
X52774Y60774D01*
X51960Y61318D01*
X51000Y61509D01*
D02*
G37*
G36*
X31000Y60007D02*
X11000D01*
X10232Y59854D01*
X9581Y59419D01*
X9146Y58768D01*
X8993Y58000D01*
X9146Y57232D01*
X9581Y56581D01*
X10232Y56146D01*
X11000Y55993D01*
X31000D01*
X31768Y56146D01*
X32419Y56581D01*
X32854Y57232D01*
X33007Y58000D01*
X32854Y58768D01*
X32419Y59419D01*
X31768Y59854D01*
X31000Y60007D01*
D02*
G37*
G36*
X110000Y60509D02*
X109040Y60318D01*
X108226Y59774D01*
X107682Y58960D01*
X107491Y58000D01*
X107682Y57040D01*
X108226Y56226D01*
X109040Y55682D01*
X110000Y55491D01*
X110960Y55682D01*
X111774Y56226D01*
X112318Y57040D01*
X112509Y58000D01*
X112318Y58960D01*
X111774Y59774D01*
X110960Y60318D01*
X110000Y60509D01*
D02*
G37*
G36*
X168500Y55509D02*
X167540Y55318D01*
X166726Y54774D01*
X166182Y53960D01*
X165991Y53000D01*
X166182Y52040D01*
X166726Y51226D01*
X167540Y50682D01*
X168500Y50491D01*
X169460Y50682D01*
X170274Y51226D01*
X170818Y52040D01*
X171009Y53000D01*
X170818Y53960D01*
X170274Y54774D01*
X169460Y55318D01*
X168500Y55509D01*
D02*
G37*
G36*
X63000D02*
X62040Y55318D01*
X61226Y54774D01*
X60682Y53960D01*
X60491Y53000D01*
X60682Y52040D01*
X61226Y51226D01*
X62040Y50682D01*
X63000Y50491D01*
X63960Y50682D01*
X64774Y51226D01*
X65318Y52040D01*
X65509Y53000D01*
X65318Y53960D01*
X64774Y54774D01*
X63960Y55318D01*
X63000Y55509D01*
D02*
G37*
G36*
X51000D02*
X50040Y55318D01*
X49226Y54774D01*
X48682Y53960D01*
X48491Y53000D01*
X48682Y52040D01*
X49226Y51226D01*
X50040Y50682D01*
X51000Y50491D01*
X51960Y50682D01*
X52774Y51226D01*
X53318Y52040D01*
X53509Y53000D01*
X53318Y53960D01*
X52774Y54774D01*
X51960Y55318D01*
X51000Y55509D01*
D02*
G37*
G36*
X110000Y54509D02*
X109040Y54318D01*
X108226Y53774D01*
X107682Y52960D01*
X107491Y52000D01*
X107682Y51040D01*
X108226Y50226D01*
X109040Y49682D01*
X110000Y49491D01*
X110960Y49682D01*
X111774Y50226D01*
X112318Y51040D01*
X112509Y52000D01*
X112318Y52960D01*
X111774Y53774D01*
X110960Y54318D01*
X110000Y54509D01*
D02*
G37*
G36*
X381693Y53029D02*
X380925Y52876D01*
X380274Y52441D01*
X379839Y51790D01*
X379686Y51022D01*
X379839Y50254D01*
X380274Y49603D01*
X380925Y49168D01*
X381693Y49015D01*
X382462Y49168D01*
X383113Y49603D01*
X383548Y50254D01*
X383700Y51022D01*
X383548Y51790D01*
X383113Y52441D01*
X382462Y52876D01*
X381693Y53029D01*
D02*
G37*
G36*
X346500Y52507D02*
X345732Y52354D01*
X345081Y51919D01*
X344646Y51268D01*
X344493Y50500D01*
X344646Y49732D01*
X345081Y49081D01*
X345732Y48646D01*
X346500Y48493D01*
X347268Y48646D01*
X347919Y49081D01*
X348354Y49732D01*
X348507Y50500D01*
X348354Y51268D01*
X347919Y51919D01*
X347268Y52354D01*
X346500Y52507D01*
D02*
G37*
G36*
X363000Y51007D02*
X362232Y50854D01*
X361581Y50419D01*
X361146Y49768D01*
X360993Y49000D01*
X361146Y48232D01*
X361581Y47581D01*
X362232Y47146D01*
X363000Y46993D01*
X363768Y47146D01*
X364419Y47581D01*
X364854Y48232D01*
X365007Y49000D01*
X364854Y49768D01*
X364419Y50419D01*
X363768Y50854D01*
X363000Y51007D01*
D02*
G37*
G36*
X185500D02*
X184732Y50854D01*
X184081Y50419D01*
X183646Y49768D01*
X183493Y49000D01*
X183646Y48232D01*
X184081Y47581D01*
X184732Y47146D01*
X185500Y46993D01*
X186268Y47146D01*
X186919Y47581D01*
X187354Y48232D01*
X187507Y49000D01*
X187354Y49768D01*
X186919Y50419D01*
X186268Y50854D01*
X185500Y51007D01*
D02*
G37*
G36*
X177000Y49507D02*
X176232Y49354D01*
X175581Y48919D01*
X175146Y48268D01*
X174993Y47500D01*
X175146Y46732D01*
X175581Y46081D01*
X176232Y45646D01*
X177000Y45493D01*
X177768Y45646D01*
X178419Y46081D01*
X178854Y46732D01*
X179007Y47500D01*
X178854Y48268D01*
X178419Y48919D01*
X177768Y49354D01*
X177000Y49507D01*
D02*
G37*
G36*
X264500Y49007D02*
X263732Y48854D01*
X263081Y48419D01*
X262646Y47768D01*
X262493Y47000D01*
X262646Y46232D01*
X263081Y45581D01*
X263732Y45146D01*
X264500Y44993D01*
X265268Y45146D01*
X265919Y45581D01*
X266354Y46232D01*
X266507Y47000D01*
X266354Y47768D01*
X265919Y48419D01*
X265268Y48854D01*
X264500Y49007D01*
D02*
G37*
G36*
X283000Y46125D02*
X282232Y45972D01*
X281581Y45537D01*
X281146Y44886D01*
X280993Y44118D01*
X281146Y43350D01*
X281581Y42699D01*
X282232Y42264D01*
X283000Y42111D01*
X283768Y42264D01*
X284419Y42699D01*
X284854Y43350D01*
X285007Y44118D01*
X284854Y44886D01*
X284419Y45537D01*
X283768Y45972D01*
X283000Y46125D01*
D02*
G37*
G36*
X352500Y46007D02*
X351732Y45854D01*
X351081Y45419D01*
X350646Y44768D01*
X350493Y44000D01*
X350646Y43232D01*
X351081Y42581D01*
X351732Y42146D01*
X352500Y41993D01*
X353268Y42146D01*
X353919Y42581D01*
X354354Y43232D01*
X354507Y44000D01*
X354354Y44768D01*
X353919Y45419D01*
X353268Y45854D01*
X352500Y46007D01*
D02*
G37*
G36*
X138500Y46509D02*
X137540Y46318D01*
X136726Y45774D01*
X136182Y44960D01*
X135991Y44000D01*
X136182Y43040D01*
X136726Y42226D01*
X137540Y41682D01*
X138500Y41491D01*
X139460Y41682D01*
X140274Y42226D01*
X140818Y43040D01*
X141009Y44000D01*
X140818Y44960D01*
X140274Y45774D01*
X139460Y46318D01*
X138500Y46509D01*
D02*
G37*
G36*
X230000Y43507D02*
X229232Y43354D01*
X228581Y42919D01*
X228146Y42268D01*
X227993Y41500D01*
X228146Y40732D01*
X228581Y40081D01*
X229232Y39646D01*
X230000Y39493D01*
X230768Y39646D01*
X231419Y40081D01*
X231854Y40732D01*
X232007Y41500D01*
X231854Y42268D01*
X231419Y42919D01*
X230768Y43354D01*
X230000Y43507D01*
D02*
G37*
G36*
X114000Y40007D02*
X113232Y39854D01*
X112581Y39419D01*
X112146Y38768D01*
X111993Y38000D01*
X112146Y37232D01*
X112581Y36581D01*
X113232Y36146D01*
X114000Y35993D01*
X114768Y36146D01*
X115419Y36581D01*
X115854Y37232D01*
X116007Y38000D01*
X115854Y38768D01*
X115419Y39419D01*
X114768Y39854D01*
X114000Y40007D01*
D02*
G37*
G36*
X150000Y40867D02*
X149040Y40676D01*
X148226Y40132D01*
X147682Y39318D01*
X147491Y38358D01*
X147682Y37398D01*
X148226Y36584D01*
X149040Y36040D01*
X150000Y35849D01*
X150960Y36040D01*
X151774Y36584D01*
X152318Y37398D01*
X152509Y38358D01*
X152318Y39318D01*
X151774Y40132D01*
X150960Y40676D01*
X150000Y40867D01*
D02*
G37*
G36*
X352618Y38507D02*
X351850Y38354D01*
X351199Y37919D01*
X350764Y37268D01*
X350611Y36500D01*
X350764Y35732D01*
X351199Y35081D01*
X351850Y34646D01*
X352618Y34493D01*
X353386Y34646D01*
X354037Y35081D01*
X354472Y35732D01*
X354625Y36500D01*
X354472Y37268D01*
X354037Y37919D01*
X353386Y38354D01*
X352618Y38507D01*
D02*
G37*
G36*
X322618D02*
X321850Y38354D01*
X321199Y37919D01*
X320764Y37268D01*
X320611Y36500D01*
X320764Y35732D01*
X321199Y35081D01*
X321850Y34646D01*
X322618Y34493D01*
X323386Y34646D01*
X324037Y35081D01*
X324472Y35732D01*
X324625Y36500D01*
X324472Y37268D01*
X324037Y37919D01*
X323386Y38354D01*
X322618Y38507D01*
D02*
G37*
G36*
X138500Y38509D02*
X137540Y38318D01*
X136726Y37774D01*
X136182Y36960D01*
X135991Y36000D01*
X136182Y35040D01*
X136726Y34226D01*
X137540Y33682D01*
X138500Y33491D01*
X139460Y33682D01*
X140274Y34226D01*
X140818Y35040D01*
X141009Y36000D01*
X140818Y36960D01*
X140274Y37774D01*
X139460Y38318D01*
X138500Y38509D01*
D02*
G37*
G36*
X252500Y34889D02*
X251732Y34736D01*
X251081Y34301D01*
X250646Y33650D01*
X250493Y32882D01*
X250646Y32114D01*
X251081Y31463D01*
X251732Y31028D01*
X252500Y30875D01*
X253268Y31028D01*
X253919Y31463D01*
X254354Y32114D01*
X254507Y32882D01*
X254354Y33650D01*
X253919Y34301D01*
X253268Y34736D01*
X252500Y34889D01*
D02*
G37*
G36*
X64000Y35509D02*
X44000D01*
X43040Y35318D01*
X42226Y34774D01*
X41682Y33960D01*
X41491Y33000D01*
X41682Y32040D01*
X42226Y31226D01*
X43040Y30682D01*
X44000Y30491D01*
X64000D01*
X64960Y30682D01*
X65774Y31226D01*
X66318Y32040D01*
X66509Y33000D01*
X66318Y33960D01*
X65774Y34774D01*
X64960Y35318D01*
X64000Y35509D01*
D02*
G37*
G36*
X111000Y33169D02*
X110232Y33016D01*
X109581Y32581D01*
X109146Y31929D01*
X108993Y31161D01*
X109146Y30393D01*
X109581Y29742D01*
X110232Y29307D01*
X111000Y29154D01*
X111768Y29307D01*
X112419Y29742D01*
X112854Y30393D01*
X113007Y31161D01*
X112854Y31929D01*
X112419Y32581D01*
X111768Y33016D01*
X111000Y33169D01*
D02*
G37*
G36*
X210500Y32889D02*
X209732Y32736D01*
X209081Y32301D01*
X208646Y31650D01*
X208493Y30882D01*
X208646Y30114D01*
X209081Y29463D01*
X209732Y29028D01*
X210500Y28875D01*
X211268Y29028D01*
X211919Y29463D01*
X212354Y30114D01*
X212507Y30882D01*
X212354Y31650D01*
X211919Y32301D01*
X211268Y32736D01*
X210500Y32889D01*
D02*
G37*
G36*
X230000Y32507D02*
X229232Y32354D01*
X228581Y31919D01*
X228146Y31268D01*
X227993Y30500D01*
X228146Y29732D01*
X228581Y29081D01*
X229232Y28646D01*
X230000Y28493D01*
X230768Y28646D01*
X231419Y29081D01*
X231854Y29732D01*
X232007Y30500D01*
X231854Y31268D01*
X231419Y31919D01*
X230768Y32354D01*
X230000Y32507D01*
D02*
G37*
G36*
X174500Y30007D02*
X173732Y29854D01*
X173081Y29419D01*
X172646Y28768D01*
X172493Y28000D01*
X172646Y27232D01*
X173081Y26581D01*
X173732Y26146D01*
X174500Y25993D01*
X175268Y26146D01*
X175919Y26581D01*
X176354Y27232D01*
X176507Y28000D01*
X176354Y28768D01*
X175919Y29419D01*
X175268Y29854D01*
X174500Y30007D01*
D02*
G37*
G36*
X233118Y29007D02*
X232350Y28854D01*
X231699Y28419D01*
X231264Y27768D01*
X231111Y27000D01*
X231264Y26232D01*
X231699Y25581D01*
X232350Y25146D01*
X233118Y24993D01*
X233886Y25146D01*
X234537Y25581D01*
X234972Y26232D01*
X235125Y27000D01*
X234972Y27768D01*
X234537Y28419D01*
X233886Y28854D01*
X233118Y29007D01*
D02*
G37*
G36*
X206000Y28507D02*
X205232Y28354D01*
X204581Y27919D01*
X204146Y27268D01*
X203993Y26500D01*
X204146Y25732D01*
X204581Y25081D01*
X205232Y24646D01*
X206000Y24493D01*
X206768Y24646D01*
X207419Y25081D01*
X207854Y25732D01*
X208007Y26500D01*
X207854Y27268D01*
X207419Y27919D01*
X206768Y28354D01*
X206000Y28507D01*
D02*
G37*
G36*
X260000Y29509D02*
X259040Y29318D01*
X258226Y28774D01*
X257682Y27960D01*
X257491Y27000D01*
X257682Y26040D01*
X258226Y25226D01*
X259040Y24682D01*
X260000Y24491D01*
X260960Y24682D01*
X261774Y25226D01*
X262318Y26040D01*
X262509Y27000D01*
X262318Y27960D01*
X261774Y28774D01*
X260960Y29318D01*
X260000Y29509D01*
D02*
G37*
G36*
X104500Y28007D02*
X103732Y27854D01*
X103081Y27419D01*
X102646Y26768D01*
X102493Y26000D01*
X102646Y25232D01*
X103081Y24581D01*
X103732Y24146D01*
X104500Y23993D01*
X105268Y24146D01*
X105919Y24581D01*
X106354Y25232D01*
X106507Y26000D01*
X106354Y26768D01*
X105919Y27419D01*
X105268Y27854D01*
X104500Y28007D01*
D02*
G37*
G36*
X350015Y17815D02*
X349290Y17719D01*
X348615Y17439D01*
X348035Y16995D01*
X347830Y16727D01*
X347200D01*
X346995Y16995D01*
X346415Y17439D01*
X345740Y17719D01*
X345015Y17815D01*
X344290Y17719D01*
X343615Y17439D01*
X343035Y16995D01*
X342830Y16727D01*
X342200D01*
X341995Y16995D01*
X341415Y17439D01*
X340740Y17719D01*
X340015Y17815D01*
X339290Y17719D01*
X338615Y17439D01*
X338035Y16995D01*
X337830Y16727D01*
X337200D01*
X336995Y16995D01*
X336415Y17439D01*
X335740Y17719D01*
X335015Y17815D01*
X334290Y17719D01*
X333615Y17439D01*
X333035Y16995D01*
X332591Y16415D01*
X332311Y15740D01*
X332215Y15015D01*
X332311Y14290D01*
X332591Y13615D01*
X333035Y13035D01*
X333615Y12591D01*
X334290Y12311D01*
X335015Y12216D01*
X335740Y12311D01*
X336415Y12591D01*
X336995Y13035D01*
X337200Y13303D01*
X337830D01*
X338035Y13035D01*
X338615Y12591D01*
X339290Y12311D01*
X340015Y12216D01*
X340740Y12311D01*
X341415Y12591D01*
X341995Y13035D01*
X342200Y13303D01*
X342830D01*
X343035Y13035D01*
X343615Y12591D01*
X344290Y12311D01*
X345015Y12216D01*
X345740Y12311D01*
X346415Y12591D01*
X346995Y13035D01*
X347200Y13303D01*
X347830D01*
X348035Y13035D01*
X348615Y12591D01*
X349290Y12311D01*
X350015Y12216D01*
X350740Y12311D01*
X351415Y12591D01*
X351739Y12840D01*
X352239Y12593D01*
Y12239D01*
X357791D01*
Y17791D01*
X352239D01*
Y17437D01*
X351739Y17190D01*
X351415Y17439D01*
X350740Y17719D01*
X350015Y17815D01*
D02*
G37*
G36*
X325015D02*
X324290Y17719D01*
X323615Y17439D01*
X323035Y16995D01*
X322830Y16727D01*
X322200D01*
X321995Y16995D01*
X321415Y17439D01*
X320740Y17719D01*
X320015Y17815D01*
X319290Y17719D01*
X318615Y17439D01*
X318035Y16995D01*
X317830Y16727D01*
X317200D01*
X316995Y16995D01*
X316415Y17439D01*
X315740Y17719D01*
X315015Y17815D01*
X314290Y17719D01*
X313615Y17439D01*
X313035Y16995D01*
X312830Y16727D01*
X312200D01*
X311995Y16995D01*
X311415Y17439D01*
X310740Y17719D01*
X310015Y17815D01*
X309290Y17719D01*
X308615Y17439D01*
X308035Y16995D01*
X307591Y16415D01*
X307311Y15740D01*
X307215Y15015D01*
X307311Y14290D01*
X307591Y13615D01*
X308035Y13035D01*
X308615Y12591D01*
X309290Y12311D01*
X310015Y12216D01*
X310740Y12311D01*
X311415Y12591D01*
X311995Y13035D01*
X312200Y13303D01*
X312830D01*
X313035Y13035D01*
X313615Y12591D01*
X314290Y12311D01*
X315015Y12216D01*
X315740Y12311D01*
X316415Y12591D01*
X316995Y13035D01*
X317200Y13303D01*
X317830D01*
X318035Y13035D01*
X318615Y12591D01*
X319290Y12311D01*
X320015Y12216D01*
X320740Y12311D01*
X321415Y12591D01*
X321995Y13035D01*
X322200Y13303D01*
X322830D01*
X323035Y13035D01*
X323615Y12591D01*
X324290Y12311D01*
X325015Y12216D01*
X325740Y12311D01*
X326415Y12591D01*
X326995Y13035D01*
X327439Y13615D01*
X327719Y14290D01*
X327815Y15015D01*
X327719Y15740D01*
X327439Y16415D01*
X326995Y16995D01*
X326415Y17439D01*
X325740Y17719D01*
X325015Y17815D01*
D02*
G37*
G36*
X127500Y20507D02*
X126732Y20354D01*
X126081Y19919D01*
X125646Y19268D01*
X125493Y18500D01*
X125646Y17732D01*
X126081Y17081D01*
X126732Y16646D01*
X127500Y16493D01*
X128268Y16646D01*
X128919Y17081D01*
X129354Y17732D01*
X129507Y18500D01*
X129354Y19268D01*
X128919Y19919D01*
X128268Y20354D01*
X127500Y20507D01*
D02*
G37*
G36*
X39815Y17410D02*
X39083Y17265D01*
X38293Y16737D01*
X37903Y16153D01*
X37403Y16305D01*
Y17403D01*
X35215D01*
Y15015D01*
Y12627D01*
X37403D01*
Y13725D01*
X37903Y13877D01*
X38293Y13293D01*
X39083Y12765D01*
X39815Y12620D01*
Y15015D01*
Y17410D01*
D02*
G37*
G36*
X79815D02*
X79083Y17265D01*
X78293Y16737D01*
X77772Y15957D01*
X77712Y15947D01*
X77318D01*
X77258Y15957D01*
X76737Y16737D01*
X75947Y17265D01*
X75215Y17410D01*
Y15015D01*
Y12620D01*
X75947Y12765D01*
X76737Y13293D01*
X77258Y14073D01*
X77318Y14083D01*
X77712D01*
X77772Y14073D01*
X78293Y13293D01*
X79083Y12765D01*
X79815Y12620D01*
Y15015D01*
Y17410D01*
D02*
G37*
G36*
X69815D02*
X69083Y17265D01*
X68293Y16737D01*
X67772Y15957D01*
X67712Y15947D01*
X67318D01*
X67258Y15957D01*
X66737Y16737D01*
X65947Y17265D01*
X65215Y17410D01*
Y15015D01*
Y12620D01*
X65947Y12765D01*
X66737Y13293D01*
X67258Y14073D01*
X67318Y14083D01*
X67712D01*
X67772Y14073D01*
X68293Y13293D01*
X69083Y12765D01*
X69815Y12620D01*
Y15015D01*
Y17410D01*
D02*
G37*
G36*
X64815D02*
X64083Y17265D01*
X63293Y16737D01*
X62772Y15957D01*
X62712Y15947D01*
X62318D01*
X62258Y15957D01*
X61737Y16737D01*
X60947Y17265D01*
X60215Y17410D01*
Y15015D01*
Y12620D01*
X60947Y12765D01*
X61737Y13293D01*
X62258Y14073D01*
X62318Y14083D01*
X62712D01*
X62772Y14073D01*
X63293Y13293D01*
X64083Y12765D01*
X64815Y12620D01*
Y15015D01*
Y17410D01*
D02*
G37*
G36*
X59815D02*
X59083Y17265D01*
X58293Y16737D01*
X57772Y15957D01*
X57712Y15947D01*
X57318D01*
X57258Y15957D01*
X56737Y16737D01*
X55947Y17265D01*
X55215Y17410D01*
Y15015D01*
Y12620D01*
X55947Y12765D01*
X56737Y13293D01*
X57258Y14073D01*
X57318Y14083D01*
X57712D01*
X57772Y14073D01*
X58293Y13293D01*
X59083Y12765D01*
X59815Y12620D01*
Y15015D01*
Y17410D01*
D02*
G37*
G36*
X54815D02*
X54083Y17265D01*
X53293Y16737D01*
X52772Y15957D01*
X52712Y15947D01*
X52318D01*
X52258Y15957D01*
X51737Y16737D01*
X50947Y17265D01*
X50215Y17410D01*
Y15015D01*
Y12620D01*
X50947Y12765D01*
X51737Y13293D01*
X52258Y14073D01*
X52318Y14083D01*
X52712D01*
X52772Y14073D01*
X53293Y13293D01*
X54083Y12765D01*
X54815Y12620D01*
Y15015D01*
Y17410D01*
D02*
G37*
G36*
X49815D02*
X49083Y17265D01*
X48293Y16737D01*
X47772Y15957D01*
X47712Y15947D01*
X47318D01*
X47258Y15957D01*
X46737Y16737D01*
X45947Y17265D01*
X45215Y17410D01*
Y15015D01*
Y12620D01*
X45947Y12765D01*
X46737Y13293D01*
X47258Y14073D01*
X47318Y14083D01*
X47712D01*
X47772Y14073D01*
X48293Y13293D01*
X49083Y12765D01*
X49815Y12620D01*
Y15015D01*
Y17410D01*
D02*
G37*
G36*
X44815D02*
X44083Y17265D01*
X43293Y16737D01*
X42772Y15957D01*
X42712Y15947D01*
X42318D01*
X42258Y15957D01*
X41737Y16737D01*
X40947Y17265D01*
X40215Y17410D01*
Y15015D01*
Y12620D01*
X40947Y12765D01*
X41737Y13293D01*
X42258Y14073D01*
X42318Y14083D01*
X42712D01*
X42772Y14073D01*
X43293Y13293D01*
X44083Y12765D01*
X44815Y12620D01*
Y15015D01*
Y17410D01*
D02*
G37*
G36*
X164000Y20509D02*
X163040Y20318D01*
X162226Y19774D01*
X161682Y18960D01*
X161491Y18000D01*
X161682Y17040D01*
X162226Y16226D01*
X163040Y15682D01*
X164000Y15491D01*
X164960Y15682D01*
X165774Y16226D01*
X166318Y17040D01*
X166509Y18000D01*
X166318Y18960D01*
X165774Y19774D01*
X164960Y20318D01*
X164000Y20509D01*
D02*
G37*
G36*
X80215Y17410D02*
Y15215D01*
X82410D01*
X82265Y15947D01*
X81737Y16737D01*
X80947Y17265D01*
X80215Y17410D01*
D02*
G37*
G36*
X34815Y17403D02*
X32627D01*
Y15215D01*
X34815D01*
Y17403D01*
D02*
G37*
G36*
X89500Y18007D02*
X88732Y17854D01*
X88081Y17419D01*
X87646Y16768D01*
X87493Y16000D01*
X87646Y15232D01*
X88081Y14581D01*
X88732Y14146D01*
X89500Y13993D01*
X90268Y14146D01*
X90919Y14581D01*
X91354Y15232D01*
X91507Y16000D01*
X91354Y16768D01*
X90919Y17419D01*
X90268Y17854D01*
X89500Y18007D01*
D02*
G37*
G36*
X34815Y14815D02*
X32627D01*
Y12627D01*
X34815D01*
Y14815D01*
D02*
G37*
G36*
X82410D02*
X80215D01*
Y12620D01*
X80947Y12765D01*
X81737Y13293D01*
X82265Y14083D01*
X82410Y14815D01*
D02*
G37*
G36*
X109000Y15787D02*
X108232Y15634D01*
X107581Y15199D01*
X107146Y14548D01*
X106993Y13780D01*
X107146Y13012D01*
X107581Y12360D01*
X108232Y11925D01*
X109000Y11772D01*
X109768Y11925D01*
X110419Y12360D01*
X110854Y13012D01*
X111007Y13780D01*
X110854Y14548D01*
X110419Y15199D01*
X109768Y15634D01*
X109000Y15787D01*
D02*
G37*
G36*
X114000Y12007D02*
X113232Y11854D01*
X112581Y11419D01*
X112146Y10768D01*
X111993Y10000D01*
X112146Y9232D01*
X112581Y8581D01*
X113232Y8146D01*
X114000Y7993D01*
X114768Y8146D01*
X115419Y8581D01*
X115854Y9232D01*
X116007Y10000D01*
X115854Y10768D01*
X115419Y11419D01*
X114768Y11854D01*
X114000Y12007D01*
D02*
G37*
G36*
X375000Y27637D02*
X373023Y27482D01*
X371095Y27019D01*
X369263Y26260D01*
X367572Y25224D01*
X366064Y23936D01*
X364776Y22428D01*
X363740Y20737D01*
X362981Y18905D01*
X362518Y16977D01*
X362363Y15000D01*
X362518Y13023D01*
X362981Y11095D01*
X363740Y9263D01*
X364776Y7572D01*
X366064Y6064D01*
X367572Y4776D01*
X369263Y3740D01*
X371095Y2981D01*
X373023Y2518D01*
X375000Y2363D01*
X376977Y2518D01*
X378905Y2981D01*
X380737Y3740D01*
X382428Y4776D01*
X383936Y6064D01*
X385224Y7572D01*
X386260Y9263D01*
X387019Y11095D01*
X387482Y13023D01*
X387637Y15000D01*
X387482Y16977D01*
X387019Y18905D01*
X386260Y20737D01*
X385224Y22428D01*
X383936Y23936D01*
X382428Y25224D01*
X380737Y26260D01*
X378905Y27019D01*
X376977Y27482D01*
X375000Y27637D01*
D02*
G37*
G36*
X15000D02*
X13023Y27482D01*
X11095Y27019D01*
X9263Y26260D01*
X7572Y25224D01*
X6064Y23936D01*
X4776Y22428D01*
X3740Y20737D01*
X2981Y18905D01*
X2518Y16977D01*
X2363Y15000D01*
X2518Y13023D01*
X2981Y11095D01*
X3740Y9263D01*
X4776Y7572D01*
X6064Y6064D01*
X7572Y4776D01*
X9263Y3740D01*
X11095Y2981D01*
X13023Y2518D01*
X15000Y2363D01*
X16977Y2518D01*
X18905Y2981D01*
X20737Y3740D01*
X22428Y4776D01*
X23936Y6064D01*
X25224Y7572D01*
X26260Y9263D01*
X27019Y11095D01*
X27482Y13023D01*
X27637Y15000D01*
X27482Y16977D01*
X27019Y18905D01*
X26260Y20737D01*
X25224Y22428D01*
X23936Y23936D01*
X22428Y25224D01*
X20737Y26260D01*
X18905Y27019D01*
X16977Y27482D01*
X15000Y27637D01*
D02*
G37*
%LPD*%
D130*
X83500Y67457D02*
Y70728D01*
Y97457D02*
Y100728D01*
X98500Y119272D02*
Y122543D01*
Y149272D02*
Y152543D01*
X206500Y99000D02*
X210000D01*
X203000D02*
X206500D01*
X223500Y129500D02*
X227000D01*
X220000D02*
X223500D01*
Y109500D02*
X227000D01*
X220000D02*
X223500D01*
X216500D02*
X220000D01*
X179500D02*
X183500D01*
X179500Y129500D02*
X183000D01*
X186500D01*
X176000D02*
X179500D01*
X183500Y109500D02*
X187000D01*
X176000D02*
X179500D01*
X216500Y129500D02*
X220000D01*
X27000Y58000D02*
X31000D01*
X23000D02*
X27000D01*
X19000D02*
X23000D01*
X15000D02*
X19000D01*
X11000D02*
X15000D01*
X27000Y162000D02*
X31000D01*
X23000D02*
X27000D01*
X19000D02*
X23000D01*
X15000D02*
X19000D01*
X11000D02*
X15000D01*
D140*
X14000Y50000D02*
D03*
X22000D02*
D03*
X30000D02*
D03*
X6000D02*
D03*
Y42000D02*
D03*
X14000D02*
D03*
X22000D02*
D03*
X30000D02*
D03*
Y34000D02*
D03*
X22000D02*
D03*
X14000D02*
D03*
X6000D02*
D03*
Y84000D02*
D03*
X14000D02*
D03*
X22000D02*
D03*
X30000D02*
D03*
Y92000D02*
D03*
X22000D02*
D03*
X14000D02*
D03*
X6000D02*
D03*
Y100000D02*
D03*
X30000D02*
D03*
X22000D02*
D03*
X14000D02*
D03*
Y136000D02*
D03*
X22000D02*
D03*
X30000D02*
D03*
X6000D02*
D03*
Y128000D02*
D03*
X14000D02*
D03*
X22000D02*
D03*
X30000D02*
D03*
Y120000D02*
D03*
X22000D02*
D03*
X14000D02*
D03*
X6000D02*
D03*
X14000Y186000D02*
D03*
X22000D02*
D03*
X30000D02*
D03*
X6000D02*
D03*
Y178000D02*
D03*
X14000D02*
D03*
X22000D02*
D03*
X30000D02*
D03*
Y170000D02*
D03*
X22000D02*
D03*
X14000D02*
D03*
X6000D02*
D03*
X255500Y140500D02*
D03*
X162000Y189000D02*
D03*
X167500Y119500D02*
D03*
Y100500D02*
D03*
X158500Y110000D02*
D03*
X167500Y189000D02*
D03*
X161000Y38500D02*
D03*
X155500D02*
D03*
X291500Y27000D02*
D03*
X139000Y156000D02*
D03*
X120500D02*
D03*
Y174000D02*
D03*
X145000Y156000D02*
D03*
X120500Y64000D02*
D03*
X121000Y124000D02*
D03*
X115000D02*
D03*
X127000D02*
D03*
X139000D02*
D03*
X145000D02*
D03*
X151000D02*
D03*
X133000D02*
D03*
X127000Y96000D02*
D03*
X121000D02*
D03*
X133000D02*
D03*
X115000D02*
D03*
X303000Y36500D02*
D03*
X297500D02*
D03*
X120500Y162000D02*
D03*
Y168000D02*
D03*
X139000Y64000D02*
D03*
X145000D02*
D03*
X151000D02*
D03*
X120500Y58000D02*
D03*
Y46000D02*
D03*
Y52000D02*
D03*
X221000Y88000D02*
D03*
X215000D02*
D03*
X224000Y75500D02*
D03*
X230000D02*
D03*
X51000Y86000D02*
D03*
Y92000D02*
D03*
Y98000D02*
D03*
X139000Y96000D02*
D03*
X63000Y86000D02*
D03*
Y98000D02*
D03*
Y122000D02*
D03*
X151000Y156000D02*
D03*
X63000Y92000D02*
D03*
X51000Y122000D02*
D03*
Y128000D02*
D03*
Y134000D02*
D03*
X63000Y128000D02*
D03*
Y134000D02*
D03*
X151000Y96000D02*
D03*
X145000D02*
D03*
X44000Y33000D02*
D03*
X49000D02*
D03*
X54000D02*
D03*
X59000D02*
D03*
X64000D02*
D03*
X44000Y187000D02*
D03*
X49000D02*
D03*
X54000D02*
D03*
X59000D02*
D03*
X64000D02*
D03*
D141*
X35015Y205015D02*
D03*
Y15015D02*
D03*
X355015Y205015D02*
D03*
D142*
X40015D02*
D03*
X45015D02*
D03*
X50015D02*
D03*
X55015D02*
D03*
X60015D02*
D03*
X65015D02*
D03*
X70015D02*
D03*
X75015D02*
D03*
X80015D02*
D03*
Y15015D02*
D03*
X75015D02*
D03*
X70015D02*
D03*
X65015D02*
D03*
X60015D02*
D03*
X55015D02*
D03*
X50015D02*
D03*
X45015D02*
D03*
X40015D02*
D03*
X350015Y205015D02*
D03*
X345015D02*
D03*
X340015D02*
D03*
X335015D02*
D03*
X330015D02*
D03*
X325015D02*
D03*
X320015D02*
D03*
X330015Y15015D02*
D03*
D144*
X271500Y65500D02*
D03*
X259500Y54000D02*
D03*
X281500Y76000D02*
D03*
X305500Y132000D02*
D03*
X300500Y119500D02*
D03*
X297000Y116000D02*
D03*
X299000Y74000D02*
D03*
X313500Y90500D02*
D03*
X271000Y53000D02*
D03*
X287000Y69500D02*
D03*
X331500Y86500D02*
D03*
X381811Y41732D02*
D03*
X375905Y29921D02*
D03*
X370000Y41732D02*
D03*
X364094Y29921D02*
D03*
X352283Y195275D02*
D03*
Y6299D02*
D03*
X340472Y195275D02*
D03*
X346378Y183465D02*
D03*
X340472Y6299D02*
D03*
X328661D02*
D03*
X316850D02*
D03*
X305039Y53543D02*
D03*
X299134Y207086D02*
D03*
X293228Y53543D02*
D03*
X299134Y41732D02*
D03*
X287323Y183465D02*
D03*
X275512Y207086D02*
D03*
X263701D02*
D03*
X257795Y171653D02*
D03*
X263701Y159842D02*
D03*
Y88976D02*
D03*
X245984Y171653D02*
D03*
X251890Y159842D02*
D03*
Y18110D02*
D03*
X240078Y159842D02*
D03*
X222362Y195275D02*
D03*
Y171653D02*
D03*
X228268Y18110D02*
D03*
X210551Y148031D02*
D03*
X216457Y18110D02*
D03*
X198740Y148031D02*
D03*
X192834Y159842D02*
D03*
X186929Y148031D02*
D03*
X192834Y88976D02*
D03*
X186929Y77165D02*
D03*
X175118Y171653D02*
D03*
X181024Y159842D02*
D03*
Y88976D02*
D03*
X175118Y77165D02*
D03*
X181024Y65354D02*
D03*
X169212Y159842D02*
D03*
Y112598D02*
D03*
Y65354D02*
D03*
X163307Y53543D02*
D03*
X157401Y159842D02*
D03*
X151496Y100787D02*
D03*
Y53543D02*
D03*
X139685Y100787D02*
D03*
Y53543D02*
D03*
X127874Y100787D02*
D03*
Y29921D02*
D03*
X116063Y100787D02*
D03*
X104252D02*
D03*
X80630Y195275D02*
D03*
Y6299D02*
D03*
X68819Y148031D02*
D03*
X74724Y136220D02*
D03*
X68819Y124409D02*
D03*
Y100787D02*
D03*
X74724Y88976D02*
D03*
X68819Y77165D02*
D03*
X57008Y148031D02*
D03*
Y77165D02*
D03*
Y6299D02*
D03*
X45197D02*
D03*
X33386Y77165D02*
D03*
Y6299D02*
D03*
X27480Y112598D02*
D03*
X15669D02*
D03*
X112500Y206000D02*
D03*
X118593Y188845D02*
D03*
X123150Y194627D02*
D03*
Y201989D02*
D03*
X128679Y206850D02*
D03*
X136041D02*
D03*
X143404D02*
D03*
X150766D02*
D03*
X158128D02*
D03*
X165490D02*
D03*
X172852D02*
D03*
X180215D02*
D03*
X187577D02*
D03*
X194713Y205040D02*
D03*
X199919Y199834D02*
D03*
X205125Y194628D02*
D03*
X210331Y189422D02*
D03*
X215536Y184216D02*
D03*
X220765Y179033D02*
D03*
X228096Y178350D02*
D03*
X242820D02*
D03*
X250182D02*
D03*
X257544D02*
D03*
X263662Y174254D02*
D03*
X268868Y169048D02*
D03*
X272350Y162561D02*
D03*
X270417Y106355D02*
D03*
X267850Y99454D02*
D03*
Y92092D02*
D03*
Y84730D02*
D03*
X258615Y73362D02*
D03*
X253409Y68157D02*
D03*
X242997Y57745D02*
D03*
X236573Y54150D02*
D03*
X229210D02*
D03*
X221848D02*
D03*
X214486D02*
D03*
X207124D02*
D03*
X199761Y54134D02*
D03*
X194065Y49470D02*
D03*
X183653Y39058D02*
D03*
X178905Y33432D02*
D03*
X178850Y26070D02*
D03*
X163304Y11150D02*
D03*
X155942D02*
D03*
X148580D02*
D03*
X141218D02*
D03*
X133855D02*
D03*
X126493D02*
D03*
X120427Y15321D02*
D03*
X119650Y22642D02*
D03*
Y30004D02*
D03*
X113500Y34000D02*
D03*
X110000Y27000D02*
D03*
X112137Y21195D02*
D03*
X112000Y16500D02*
D03*
X115000Y5500D02*
D03*
X171877Y3473D02*
D03*
X177083Y8678D02*
D03*
X187471Y19114D02*
D03*
X190986Y33239D02*
D03*
X201398Y43650D02*
D03*
X223386Y44850D02*
D03*
X230749D02*
D03*
X277150Y92743D02*
D03*
X280820Y155850D02*
D03*
X288452Y158796D02*
D03*
X281650Y161613D02*
D03*
X281431Y168972D02*
D03*
X276400Y174347D02*
D03*
X259218Y187650D02*
D03*
X251856D02*
D03*
X244493D02*
D03*
X229769D02*
D03*
X222821Y190084D02*
D03*
X217615Y195290D02*
D03*
X212409Y200496D02*
D03*
X207203Y205701D02*
D03*
X201997Y210907D02*
D03*
X196619Y215935D02*
D03*
X189260Y216150D02*
D03*
X181898D02*
D03*
X174536D02*
D03*
X167173D02*
D03*
X159811D02*
D03*
X152449D02*
D03*
X145087D02*
D03*
X137724D02*
D03*
X130362D02*
D03*
X123000D02*
D03*
X227000Y129500D02*
D03*
Y109500D02*
D03*
X192000Y70500D02*
D03*
X197000Y132500D02*
D03*
X266000Y136500D02*
D03*
X261000D02*
D03*
X263500Y107500D02*
D03*
X179500Y129500D02*
D03*
X176000D02*
D03*
X183000D02*
D03*
X186500D02*
D03*
X381674Y76547D02*
D03*
X381687Y61231D02*
D03*
X323452Y87000D02*
D03*
X15000Y162000D02*
D03*
X19000D02*
D03*
X23000D02*
D03*
X27000D02*
D03*
X15000Y58000D02*
D03*
X19000D02*
D03*
X23000D02*
D03*
X27000D02*
D03*
X295000Y154000D02*
D03*
X351000Y49000D02*
D03*
X342382Y36500D02*
D03*
X312382D02*
D03*
X359000Y103197D02*
D03*
X346000Y58382D02*
D03*
X345500Y120618D02*
D03*
X296500Y197500D02*
D03*
X284000Y184000D02*
D03*
X260882Y194500D02*
D03*
X252500Y43118D02*
D03*
X210500Y41118D02*
D03*
X336000Y153500D02*
D03*
X337000Y174000D02*
D03*
X185500Y194000D02*
D03*
X243846Y193000D02*
D03*
X348500Y85500D02*
D03*
X362000Y80000D02*
D03*
X275000Y138500D02*
D03*
X188000Y185500D02*
D03*
X172000Y186500D02*
D03*
X117000Y198500D02*
D03*
X177000Y52500D02*
D03*
X173000Y34000D02*
D03*
X270000Y126500D02*
D03*
X277000D02*
D03*
X310500Y157000D02*
D03*
Y150500D02*
D03*
X304000Y155000D02*
D03*
X330500Y168500D02*
D03*
X308000Y176000D02*
D03*
X323000D02*
D03*
X300500Y168500D02*
D03*
X315500Y176000D02*
D03*
X300500D02*
D03*
X330500D02*
D03*
Y161000D02*
D03*
X300500D02*
D03*
X300000Y155000D02*
D03*
X326500Y159756D02*
D03*
X311169Y172500D02*
D03*
X345500Y133500D02*
D03*
X319831Y158500D02*
D03*
X272500Y134500D02*
D03*
X281000Y107205D02*
D03*
X109000Y20000D02*
D03*
X89500Y4000D02*
D03*
X206500Y105500D02*
D03*
X200000D02*
D03*
X108882Y200000D02*
D03*
Y206000D02*
D03*
X386835Y171000D02*
D03*
Y177500D02*
D03*
Y184000D02*
D03*
Y189500D02*
D03*
X191000Y26500D02*
D03*
X247882Y27000D02*
D03*
X304500Y171500D02*
D03*
X179500Y109500D02*
D03*
X183500D02*
D03*
X187000D02*
D03*
X223500D02*
D03*
X220000D02*
D03*
X216500D02*
D03*
Y129500D02*
D03*
X220000D02*
D03*
X223500D02*
D03*
X176000Y109500D02*
D03*
X208488Y119500D02*
D03*
X194512D02*
D03*
X201500Y123000D02*
D03*
Y116000D02*
D03*
X205000D02*
D03*
Y123000D02*
D03*
X198000D02*
D03*
Y116000D02*
D03*
X205000Y119500D02*
D03*
X198000D02*
D03*
X201500D02*
D03*
X213000D02*
D03*
X216500D02*
D03*
X220000D02*
D03*
X223500D02*
D03*
X190000D02*
D03*
X186500D02*
D03*
X183000D02*
D03*
X281500Y116500D02*
D03*
X366000Y145500D02*
D03*
Y164000D02*
D03*
X210000Y99000D02*
D03*
X206500D02*
D03*
X203000D02*
D03*
X231000Y81579D02*
D03*
X83500Y97457D02*
D03*
X98500Y119272D02*
D03*
Y149272D02*
D03*
Y152543D02*
D03*
X83500Y70728D02*
D03*
Y67457D02*
D03*
Y100728D02*
D03*
X98500Y122543D02*
D03*
X101000Y6000D02*
D03*
X89000Y31000D02*
D03*
X86000Y26000D02*
D03*
X89000Y181000D02*
D03*
X104000Y194000D02*
D03*
X11000Y58000D02*
D03*
X31000D02*
D03*
X11000Y162000D02*
D03*
X31000D02*
D03*
D145*
X59000Y187000D02*
X64000D01*
X54000D02*
X59000D01*
X49000D02*
X54000D01*
X44000D02*
X49000D01*
X59000Y33000D02*
X64000D01*
X54000D02*
X59000D01*
X49000D02*
X54000D01*
X44000D02*
X49000D01*
M02*
