G04*
G04 #@! TF.GenerationSoftware,Altium Limited,Altium Designer,21.6.4 (81)*
G04*
G04 Layer_Color=16711935*
%FSLAX25Y25*%
%MOIN*%
G70*
G04*
G04 #@! TF.SameCoordinates,FA744667-6012-4636-895A-91306D9B36BD*
G04*
G04*
G04 #@! TF.FilePolarity,Positive*
G04*
G01*
G75*
%ADD12C,0.00787*%
%ADD139C,0.01968*%
D12*
X307000Y152500D02*
Y158000D01*
X318858Y152358D02*
X323500Y157000D01*
X312000Y147500D02*
X312953Y146547D01*
X333500Y159500D02*
Y179000D01*
X297500D02*
X333500D01*
X308500Y147500D02*
X312000D01*
X331000Y157000D02*
X333500Y159500D01*
X297500Y158000D02*
Y179000D01*
X307000Y149000D02*
X308500Y147500D01*
X323500Y157000D02*
X331000D01*
X297500Y158000D02*
X301000D01*
X307000Y149000D02*
Y152500D01*
X318858Y142591D02*
Y152358D01*
X301000Y158000D02*
X307000D01*
X312953Y142591D02*
Y146547D01*
X80500Y42500D02*
X118500D01*
X122500Y38500D01*
X76976Y46024D02*
X80500Y42500D01*
X76976Y46024D02*
X76976D01*
X122500Y17500D02*
X126500Y13500D01*
X71665Y46024D02*
X76976D01*
X122500Y17500D02*
Y38500D01*
X71665Y0D02*
Y46024D01*
X165500Y13500D02*
X176500Y24500D01*
X126500Y13500D02*
X165500D01*
X120500Y178000D02*
Y187000D01*
X71665Y173976D02*
X71665Y173976D01*
X131000Y204000D02*
X191500D01*
X120500Y178000D02*
X120500Y178000D01*
X71665Y173976D02*
Y220000D01*
X125500Y198500D02*
X131000Y204000D01*
X120000Y177500D02*
X120500Y178000D01*
X125500Y193500D02*
Y198500D01*
X80500Y177500D02*
X120000D01*
X125500Y192000D02*
Y193500D01*
X76976Y173976D02*
X80500Y177500D01*
X120500Y187000D02*
X125500Y192000D01*
X71665Y173976D02*
X76976D01*
X191500Y204000D02*
X214250Y181250D01*
D139*
X0Y15000D02*
X33Y14018D01*
X130Y13040D01*
X291Y12071D01*
X515Y11114D01*
X802Y10174D01*
X1149Y9255D01*
X1555Y8361D01*
X2019Y7495D01*
X2539Y6661D01*
X3112Y5863D01*
X3736Y5104D01*
X4408Y4387D01*
X5126Y3716D01*
X5886Y3094D01*
X6686Y2522D01*
X7520Y2004D01*
X8388Y1542D01*
X9283Y1137D01*
X10203Y792D01*
X11143Y508D01*
X12100Y286D01*
X13070Y126D01*
X14048Y31D01*
X15030Y0D01*
X375000D02*
X375981Y32D01*
X376958Y128D01*
X377926Y288D01*
X378882Y511D01*
X379822Y796D01*
X380740Y1142D01*
X381634Y1547D01*
X382500Y2010D01*
X383334Y2528D01*
X384131Y3100D01*
X384890Y3722D01*
X385607Y4393D01*
X386278Y5110D01*
X386900Y5869D01*
X387472Y6667D01*
X387990Y7500D01*
X388453Y8366D01*
X388858Y9260D01*
X389204Y10178D01*
X389489Y11118D01*
X389712Y12074D01*
X389872Y13042D01*
X389968Y14019D01*
X390000Y15000D01*
X15000Y220000D02*
X14019Y219968D01*
X13042Y219872D01*
X12074Y219712D01*
X11118Y219489D01*
X10178Y219204D01*
X9260Y218858D01*
X8366Y218453D01*
X7500Y217990D01*
X6667Y217472D01*
X5869Y216900D01*
X5110Y216278D01*
X4393Y215607D01*
X3722Y214890D01*
X3100Y214131D01*
X2528Y213334D01*
X2010Y212500D01*
X1547Y211634D01*
X1142Y210740D01*
X796Y209822D01*
X511Y208882D01*
X288Y207926D01*
X128Y206958D01*
X32Y205981D01*
X0Y205000D01*
X390000D02*
X389968Y205981D01*
X389872Y206958D01*
X389712Y207926D01*
X389489Y208882D01*
X389204Y209822D01*
X388858Y210740D01*
X388453Y211634D01*
X387990Y212500D01*
X387472Y213334D01*
X386900Y214131D01*
X386278Y214890D01*
X385607Y215607D01*
X384890Y216278D01*
X384131Y216900D01*
X383334Y217472D01*
X382500Y217990D01*
X381634Y218453D01*
X380740Y218858D01*
X379822Y219204D01*
X378882Y219489D01*
X377926Y219712D01*
X376958Y219872D01*
X375981Y219968D01*
X375000Y220000D01*
X15000D02*
X375000D01*
X-0Y15030D02*
Y205000D01*
X15030Y0D02*
X375000D01*
X390000Y15000D02*
Y205000D01*
M02*
